<svg xmlns="http://www.w3.org/2000/svg" fill="none" viewBox="0 0 28 28">
  <path fill="#2A2238" d="M14 0C6.272 0 0 6.272 0 14s6.272 14 14 14h7v-2.8h-7C7.924 25.2 2.8 20.076 2.8 14S7.924 2.8 14 2.8 25.2 7.924 25.2 14v2.002c0 1.106-.994 2.198-2.1 2.198S21 17.108 21 16.002V14c0-3.864-3.136-7-7-7s-7 3.136-7 7 3.136 7 7 7c1.932 0 3.696-.784 4.956-2.058C19.866 20.188 21.434 21 23.1 21c2.758 0 4.9-2.24 4.9-4.998V14c0-7.728-6.272-14-14-14Zm0 18.2c-2.324 0-4.2-1.876-4.2-4.2 0-2.324 1.876-4.2 4.2-4.2 2.324 0 4.2 1.876 4.2 4.2 0 2.324-1.876 4.2-4.2 4.2Z"/>
</svg>
