<svg xmlns="http://www.w3.org/2000/svg" fill="none" viewBox="0 0 28 28">
  <path fill="#2A2238" fill-rule="evenodd" d="M6.68042 7.26761c-.39628 0-.71754.32125-.71754.71754V20.4226c0 .3962.32126.7175.71754.7175.39629 0 .71755-.3213.71755-.7175v-5.4543l10.83493 6.2555c.9248.534 2.0808-.1334 2.0808-1.2014V7.42853c0-1.0679-1.156-1.73534-2.0808-1.20139L7.39797 12.4827V7.98515c0-.39629-.32126-.71754-.71755-.71754Zm1.43509 6.45789L18.8786 7.51139V19.9396L8.11551 13.7255Z" clip-rule="evenodd"/>
  <path fill="#2A2238" d="M-.00000137 14C-.00000137 21.732 6.26801 28 14 28c7.732 0 14-6.268 14-14 0-7.73199-6.268-14-14-14C6.26801 0-.00000137 6.26801-.00000137 14ZM26.1582 14c0 6.7148-5.4434 12.1582-12.1582 12.1582-6.71481 0-12.15824-5.4434-12.15824-12.1582C1.84176 7.28519 7.28519 1.84177 14 1.84177c6.7148 0 12.1582 5.44342 12.1582 12.15823Z"/>
</svg>
