<svg xmlns="http://www.w3.org/2000/svg" fill="none" viewBox="0 0 24 24">
  <path fill="#2A2238" fill-rule="evenodd" d="M11.5937.483963c.0668-.066927.1461-.120026.2334-.156256.0873-.036231.1809-.05488.2754-.05488.0946 0 .1882.018649.2755.05488.0873.03623.1666.089329.2334.156256L15.486 3.35864c.0669.06682.1199.14615.156.23345.0362.0873.0548.18087.0548.27537s-.0186.18807-.0548.27537c-.0361.0873-.0891.16663-.156.23345-.0668.06682-.1461.11982-.2334.15598-.0873.03617-.1809.05478-.2754.05478-.0945 0-.1881-.01861-.2754-.05478-.0873-.03616-.1666-.08916-.2334-.15598l-1.6472-1.64863v5.45183c0 .1906-.0757.3734-.2105.50817-.1348.13478-.3176.2105-.5082.2105s-.3734-.07572-.5081-.2105c-.1348-.13477-.2105-.31757-.2105-.50817V2.72765L9.73668 4.37628c-.13495.13495-.31798.21076-.50882.21076-.19084 0-.37387-.07581-.50882-.21076-.13495-.13495-.21076-.31798-.21076-.50882 0-.19084.07581-.37387.21076-.50882L11.5937.483963Zm.5088 14.163537c.1906 0 .3734.0757.5082.2105.1348.1348.2105.3176.2105.5082v5.4518l1.6472-1.6486c.1349-.135.318-.2108.5088-.2108.1909 0 .3739.0758.5088.2108.135.1349.2108.3179.2108.5088 0 .1908-.0758.3739-.2108.5088l-2.8746 2.8747c-.0668.0669-.1461.12-.2334.1562-.0873.0363-.1809.0549-.2755.0549-.0945 0-.1881-.0186-.2754-.0549-.0873-.0362-.1666-.0893-.2334-.1562L8.71904 20.187c-.06682-.0668-.11982-.1461-.15598-.2334-.03617-.0873-.05478-.1809-.05478-.2754 0-.0945.01861-.1881.05478-.2754.03616-.0873.08916-.1666.15598-.2334.13495-.135.31798-.2108.50882-.2108.0945 0 .18807.0186.27537.0548.0873.0362.16663.0892.23345.156l1.64722 1.6486v-5.4518c0-.1906.0757-.3734.2105-.5082.1347-.1348.3175-.2105.5081-.2105ZM.813675 12.2816c-.066927-.0667-.120026-.146-.156257-.2333-.03623-.0873-.054879-.1809-.054879-.2755 0-.0945.018649-.1881.054879-.2754.036231-.0873.08933-.1666.156257-.2334L3.68835 8.38933c.13495-.13495.31798-.21076.50882-.21076.19085 0 .37387.07581.50882.21076.13495.13495.21076.31797.21076.50882 0 .19084-.07581.37387-.21076.50882L3.05736 11.0542h5.45183c.1906 0 .3734.0757.50818.2105.13477.1347.21049.3175.21049.5081s-.07572.3734-.21049.5082c-.13478.1348-.31758.2105-.50818.2105H3.05736l1.64863 1.6472c.13495.1349.21076.318.21076.5088 0 .1908-.07581.3739-.21076.5088-.13495.135-.31797.2108-.50882.2108-.19084 0-.37387-.0758-.50882-.2108L.813675 12.2816Zm14.163525-.5088c0-.1906.0757-.3734.2105-.5081.1348-.1348.3176-.2105.5082-.2105h5.4518l-1.6486-1.64723c-.0668-.06682-.1198-.14615-.156-.23345-.0362-.0873-.0548-.18088-.0548-.27537 0-.0945.0186-.18807.0548-.27537.0362-.08731.0892-.16663.156-.23345.1349-.13495.318-.21076.5088-.21076.0945 0 .1881.01861.2754.05477.0873.03617.1666.08917.2334.15599l2.8747 2.87467c.0669.0668.12.1461.1563.2334.0362.0873.0548.1809.0548.2754 0 .0946-.0186.1882-.0548.2755-.0363.0873-.0894.1666-.1563.2333l-2.8747 2.8747c-.0668.0668-.1461.1198-.2334.156-.0873.0362-.1809.0548-.2754.0548-.0945 0-.1881-.0186-.2754-.0548-.0873-.0362-.1666-.0892-.2334-.156s-.1198-.1461-.156-.2334c-.0362-.0873-.0548-.1809-.0548-.2754 0-.0945.0186-.1881.0548-.2754.0362-.0873.0892-.1666.156-.2334l1.6486-1.6472h-5.4518c-.1906 0-.3734-.0757-.5082-.2105-.1348-.1348-.2105-.3176-.2105-.5082Z" clip-rule="evenodd"/>
</svg>
