<svg xmlns="http://www.w3.org/2000/svg" fill="none" viewBox="0 0 25 29">
  <path fill="#2A2238" fill-rule="evenodd" d="M12.3503.782991V8.80985c0 .09698.0277.19194.0797.27376.0521.08182.1264.14711.2142.18824.0878.04112.1855.05638.2817.04397.0962-.0124.1869-.05195.2614-.11401l4.8177-4.01344c.245-.20414.245-.57976 0-.7839L13.1873.391038c-.0745-.062063-.1652-.101613-.2614-.114018-.0962-.012405-.1939.002849-.2817.043976-.0878.041126-.1621.106423-.2142.188243-.052.08182-.0797.176777-.0797.273752ZM6.23248 7.85666C7.99775 6.5336 10.1441 5.81805 12.3502 5.8172V3.77579c-2.64736.00045-5.22331.8586-7.342 2.44593C2.8895 7.80904 1.34211 10.0401.597812 12.5807c-.744298 2.5405-.6454373 5.2539.281773 7.7335.927205 2.4797 2.632855 4.5922 4.861445 6.0211 2.2286 1.429 4.86017 2.0974 7.50057 1.9052 2.6403-.1922 5.1474-1.2347 7.1455-2.9713 1.9982-1.7366 3.3799-4.0739 3.9382-6.6617.5583-2.5878.2632-5.2869-.8412-7.6929-.1196-.2348-.3254-.4143-.5743-.5008-.249-.0865-.5217-.0734-.7612.0365-.2395.11-.4272.3084-.5237.5536-.0966.2452-.0946.5182.0056.762.9203 2.0049 1.1664 4.254.7013 6.4105-.4651 2.1564-1.6164 4.1041-3.2814 5.5514-1.6649 1.4473-3.7539 2.3162-5.9541 2.4766-2.2003.1604-4.39321-.3964-6.25046-1.5869-1.85724-1.1905-3.27881-2.9506-4.05176-5.0168-.77295-2.0662-.85569-4.3273-.23583-6.4444.61987-2.1172 1.90897-3.97657 3.67423-5.29964Z" clip-rule="evenodd"/>
</svg>
