<svg xmlns="http://www.w3.org/2000/svg" fill="none" viewBox="0 0 26 29">
  <path fill="#2A2238" fill-rule="evenodd" d="M.604103 20.3973c0 .2321.09218.4546.256261.6187.164086.1641.386626.2563.618666.2563H22.1152l-5.5069 5.505c-.1642.1643-.2565.3872-.2565.6195 0 .2323.0923.4552.2565.6194.1643.1643.3872.2566.6195.2566.2323 0 .4552-.0923.6194-.2566l6.9995-6.9994c.0815-.0813.1461-.1778.1902-.2841s.0668-.2203.0668-.3354c0-.115-.0227-.229-.0668-.3353-.0441-.1063-.1087-.2028-.1902-.2841l-6.9995-6.9995c-.1642-.1642-.3871-.2565-.6194-.2565-.2323 0-.4552.0923-.6195.2565-.1642.1643-.2565.3872-.2565.6195 0 .2323.0923.4552.2565.6194l5.5069 5.5051H1.47903c-.23204 0-.45458.0922-.618666.2563-.164081.1641-.256261.3866-.256261.6186ZM25.1022 8.14831c0 .23205-.0922.45459-.2563.61867-.1641.16408-.3866.25626-.6187.25626H3.59112l5.50681 5.50506c.08135.0814.14588.1779.1899.2842.04403.1063.06669.2202.06669.3353 0 .115-.02266.2289-.06669.3352-.04402.1063-.10855.2029-.1899.2842-.08134.0814-.17792.1459-.2842.1899-.10629.044-.22021.0667-.33525.0667s-.22896-.0227-.33524-.0667c-.10629-.044-.20286-.1085-.28421-.1899L.859583 8.76776c-.081479-.08127-.146124-.17782-.190232-.28412-.044108-.10629-.066812-.22024-.066812-.33533 0-.11508.022704-.22904.066812-.33533.044108-.1063.108753-.20285.190232-.28412L7.85903.529412c.16429-.164288.38711-.256585.61945-.256585.23234 0 .45516.092297.61945.256585.16429.164289.25659.387112.25659.619448 0 .23234-.0923.45517-.25659.61945L3.59112 7.27338H24.2272c.2321 0 .4546.09218.6187.25626.1641.16408.2563.38663.2563.61867Z" clip-rule="evenodd"/>
</svg>
