<svg xmlns="http://www.w3.org/2000/svg" fill="none" viewBox="0 0 24 26">
  <path fill="#2A2238" fill-rule="evenodd" d="M14.8951 2.81488c-.7619-.76187-1.7952-1.18988-2.8726-1.18988-1.0775 0-2.11079.42801-2.87266 1.18988S7.95996 4.61006 7.95996 5.6875V6.5H16.085v-.8125c0-1.07744-.4281-2.11075-1.1899-2.87262ZM17.71 5.6875V6.5h5.6875v16.25c0 .862-.3425 1.6886-.9519 2.2981-.6095.6095-1.4362.9519-2.2981.9519H3.89746c-.86195 0-1.6886-.3424-2.2981-.9519C.989871 24.4386.647461 23.612.647461 22.75V6.5H6.33496v-.8125c0-1.50842.59922-2.95506 1.66583-4.02167C9.0674.599217 10.514 0 12.0225 0c1.5084 0 2.955.599217 4.0216 1.66583C17.1107 2.73244 17.71 4.17908 17.71 5.6875Zm3.5865 18.2115c.3048-.3047.476-.718.476-1.149V8.125H2.27246V22.75c0 .431.17121.8443.47595 1.149.30475.3048.71807.476 1.14905.476H20.1475c.4309 0 .8443-.1712 1.149-.476ZM12.597 12.4255c-.1524-.1524-.3591-.238-.5745-.238-.2155 0-.4222.0856-.5746.238-.1523.1523-.2379.359-.2379.5745v2.4375H8.77246c-.21549 0-.42215.0856-.57452.238-.15238.1523-.23798.359-.23798.5745 0 .2155.0856.4222.23798.5745.15237.1524.35903.238.57452.238H11.21V19.5c0 .2155.0856.4222.2379.5745.1524.1524.3591.238.5746.238.2154 0 .4221-.0856.5745-.238.1524-.1523.238-.359.238-.5745v-2.4375h2.4375c.2154 0 .4221-.0856.5745-.238.1524-.1523.238-.359.238-.5745 0-.2155-.0856-.4222-.238-.5745-.1524-.1524-.3591-.238-.5745-.238H12.835V13c0-.2155-.0856-.4222-.238-.5745Z" clip-rule="evenodd"/>
</svg>
