<svg xmlns="http://www.w3.org/2000/svg" fill="none" viewBox="0 0 24 26">
  <path fill="#2A2238" d="M17.71 6.5v-.8125c0-1.50842-.5993-2.95506-1.6659-4.02167C14.9775.599217 13.5309 0 12.0225 0 10.514 0 9.0674.599217 8.00079 1.66583 6.93418 2.73244 6.33496 4.17908 6.33496 5.6875V6.5H.647461v16.25c0 .862.34241 1.6886.951899 2.2981.6095.6095 1.43615.9519 2.2981.9519H20.1475c.8619 0 1.6886-.3424 2.2981-.9519.6094-.6095.9519-1.4361.9519-2.2981V6.5H17.71Zm-5.6875-4.875c1.0774 0 2.1107.42801 2.8726 1.18988.7618.76187 1.1899 1.79518 1.1899 2.87262V6.5H7.95996v-.8125c0-1.07744.42801-2.11075 1.18988-2.87262S10.945 1.625 12.0225 1.625Zm0 11.3636c2.704-2.7803 9.4656 2.0849 0 8.3395-9.46566-6.2562-2.70404-11.1198 0-8.3395Z"/>
</svg>
