<svg xmlns="http://www.w3.org/2000/svg" fill="none" viewBox="0 0 24 27">
  <path fill="#2A2238" d="M12.2275 1.89783c1.0775 0 2.1108.42801 2.8727 1.18988.7618.76186 1.1898 1.79517 1.1898 2.87262v.8125H8.16504v-.8125c0-1.07745.42801-2.11076 1.18988-2.87262.76188-.76187 1.79518-1.18988 2.87258-1.18988Zm5.6875 4.875v-.8125c0-1.50842-.5992-2.95506-1.6658-4.02167C15.1826.872044 13.736.272827 12.2275.272827c-1.5084 0-2.95502.599217-4.02163 1.665833-1.06661 1.06661-1.66583 2.51325-1.66583 4.02167v.8125H.852539V23.0228c0 .862.342411 1.6886.951901 2.2981.6095.6095 1.43615.9519 2.2981.9519H20.3525c.862 0 1.6886-.3424 2.2981-.9519.6095-.6095.9519-1.4361.9519-2.2981V6.77283H17.915Zm-15.43746 1.625H21.9775V23.0228c0 .431-.1712.8443-.4759 1.1491-.3048.3047-.7181.4759-1.1491.4759H4.10254c-.43098 0-.8443-.1712-1.14905-.4759-.30475-.3048-.47595-.7181-.47595-1.1491V8.39783Z"/>
</svg>
