<svg xmlns="http://www.w3.org/2000/svg" fill="none" viewBox="0 0 19 29">
  <path fill="#2A2238" fill-rule="evenodd" d="M9.71643 18.0914c4.27197-.8497 7.11107-4.4515 7.11107-8.86032 0-1.88597-.7492-3.69468-2.0828-5.02826-1.3336-1.33358-3.1423-2.08278-5.02827-2.08278-1.88596 0-3.69468.7492-5.02826 2.08278C3.35459 5.5364 2.6054 7.34511 2.6054 9.23108c0 4.40882 2.83908 8.01062 7.11103 8.86032Zm8.88877-8.86032c0 5.04352-3.1804 9.29232-8.0354 10.49052l.4337.8658c.0528.1056.0615.2279.0242.3399-.0374.112-.1177.2046-.2233.2574-.1056.0528-.2279.0615-.3399.0242-.112-.0374-.2046-.1177-.2574-.2233l-.0142-.0302c.0142.1955.0355.3591.0657.5155.096.48.2863.8676.7449 1.7831.512 1.0276.4178 2.0445.1351 2.896-.2791.8338-.7502 1.5413-1.0453 1.9822l-.0071.0125c-.0324.0485-.0741.0902-.12271.1226-.04856.0325-.10304.0551-.16032.0664-.05729.0114-.11625.0114-.17353 0-.05728-.0114-.11176-.0339-.16032-.0664-.04856-.0324-.09025-.0741-.12269-.1227-.03245-.0486-.05501-.103-.0664-.1603-.01139-.0573-.01139-.1163.00001-.1735.0114-.0573.03397-.1118.06642-.1604.29866-.448.71114-1.0666.94754-1.7831.2364-.704.2898-1.4648-.0871-2.215l-.0231-.0498c-.42668-.8533-.67557-1.3476-.79646-1.9591-.04981-.2641-.0807-.5315-.09244-.8l-.07111.1422c-.02587.0527-.06191.0997-.10603.1383-.04412.0387-.09545.0682-.15104.0869-.05559.0187-.11433.0262-.17284.0221-.05852-.0041-.11564-.0197-.16808-.046-.05243-.0262-.09915-.0626-.13746-.1071-.0383-.0444-.06744-.0959-.08572-.1517-.01828-.0557-.02535-.1145-.0208-.173.00455-.0585.02063-.1155.04731-.1677l.43378-.8658C4.00805 18.5234.827637 14.2746.827637 9.23108c0-2.35746.936493-4.61836 2.603463-6.28533C5.09808 1.27878 7.35898.342285 9.71643.342285c2.35747 0 4.61837.936495 6.28537 2.603465 1.6669 1.66697 2.6034 3.92787 2.6034 6.28533Z" clip-rule="evenodd"/>
</svg>
