<svg xmlns="http://www.w3.org/2000/svg" fill="none" viewBox="0 0 29 28">
  <path fill="#2A2238" d="M14.9971.14655C14.8535.0509859 14.6848 0 14.5123 0s-.3411.0509859-.4847.14655L.902341 8.89669c-.156195.10415-.274752.25578-.338159.43248-.063407.1767-.068301.36911-.01396.54881.054341.17972.165035.33712.315734.44912.150694.112.333404.1725.521144.1726h3.2813v12.2502H3.13713c-.23207 0-.45463.0922-.61873.2563-.1641.1641-.25629.3867-.25629.6187 0 .2321.09219.4547.25629.6188.1641.1641.38666.2562.61873.2562H25.8875c.2321 0 .4546-.0921.6187-.2562.1641-.1641.2563-.3867.2563-.6188 0-.232-.0922-.4546-.2563-.6187-.1641-.1641-.3866-.2563-.6187-.2563h-1.5313V10.4997h3.2813c.1878-.0001.3705-.0606.5212-.1726s.2614-.2694.3157-.44912c.0543-.1797.0494-.37211-.014-.54881-.0634-.1767-.1819-.32833-.3381-.43248L14.9971.14655Zm7.1716 10.35315v12.2502h-2.1876V10.4997h2.1876Zm-4.3751 0v12.2502h-2.1875V10.4997h2.1875Zm-4.3751 0v12.2502H11.231V10.4997h2.1875Zm-4.37503 0v12.2502H6.85594V10.4997h2.18753Zm5.46883-3.50004c-.4641 0-.9093-.18438-1.2374-.51257-.3282-.32819-.5126-.77332-.5126-1.23746 0-.46413.1844-.90926.5126-1.23745.3281-.3282.7733-.51258 1.2374-.51258.4641 0 .9093.18438 1.2375.51258.3282.32819.5125.77332.5125 1.23745 0 .46414-.1843.90927-.5125 1.23746-.3282.32819-.7734.51257-1.2375.51257ZM1.3871 26.25c-.23207 0-.454632.0922-.618729.2563-.164097.1641-.256286.3866-.256286.6187 0 .2321.092189.4546.256286.6187.164097.1641.386659.2563.618729.2563h26.2504c.2321 0 .4547-.0922.6188-.2563.164-.1641.2562-.3866.2562-.6187 0-.2321-.0922-.4546-.2562-.6187-.1641-.1641-.3867-.2563-.6188-.2563H1.3871Z"/>
</svg>
