<svg xmlns="http://www.w3.org/2000/svg" fill="none" viewBox="0 0 28 28">
  <path fill="#2A2238" d="M14 0C6.272 0 0 6.272 0 14s6.272 14 14 14 14-6.272 14-14S21.728 0 14 0ZM4.522 8.05C5.74 9.268 6.58 10.836 6.874 12.6H2.898c.21-1.652.784-3.192 1.624-4.55ZM2.898 15.4h3.976c-.294 1.764-1.134 3.332-2.352 4.55-.84-1.358-1.414-2.898-1.624-4.55Zm9.702 9.702c-2.422-.308-4.606-1.4-6.286-2.996 1.82-1.736 3.066-4.074 3.388-6.706H12.6v9.702Zm0-12.502H9.702C9.366 9.968 8.134 7.616 6.3 5.88c1.694-1.596 3.878-2.674 6.3-2.982V12.6Zm12.502 0h-3.976c.294-1.764 1.134-3.332 2.352-4.55.84 1.358 1.414 2.898 1.624 4.55ZM15.4 2.898c2.422.308 4.606 1.386 6.3 2.982-1.834 1.736-3.066 4.088-3.402 6.72H15.4V2.898Zm0 22.204V15.4h2.898c.336 2.632 1.568 4.97 3.388 6.706-1.68 1.596-3.864 2.688-6.286 2.996Zm8.078-5.152c-1.218-1.204-2.044-2.786-2.352-4.55h3.976c-.21 1.652-.784 3.192-1.624 4.55Z"/>
</svg>
