<svg xmlns="http://www.w3.org/2000/svg" fill="none" viewBox="0 0 28 28">
  <path fill="#2A2238" d="M7 9.8c1.5464 0 2.8-1.2536 2.8-2.8 0-1.5464-1.2536-2.8-2.8-2.8-1.5464 0-2.8 1.2536-2.8 2.8 0 1.5464 1.2536 2.8 2.8 2.8Z"/>
  <path fill="#2A2238" d="M25.2 15.4V3.962C25.2 1.778 23.422 0 21.238 0c-1.05 0-2.058.42-2.8 1.162l-1.75 1.75c-.224-.07-.462-.112-.714-.112-.56 0-1.078.168-1.512.448l3.864 3.864c.28-.434.448-.952.448-1.512 0-.252-.042-.476-.098-.714l1.75-1.75c.21-.21.504-.336.812-.336.644 0 1.162.518 1.162 1.162V15.4h-9.59c-.42-.294-.798-.63-1.148-1.008l-1.96-2.17c-.266-.294-.602-.532-.966-.7-.434-.21-.91-.322-1.4-.322C5.6 11.214 4.2 12.614 4.2 14.35v1.05H0v8.4c0 1.54 1.26 2.8 2.8 2.8 0 .77.63 1.4 1.4 1.4h19.6c.77 0 1.4-.63 1.4-1.4 1.54 0 2.8-1.26 2.8-2.8v-8.4h-2.8Zm0 8.4H2.8v-5.6h22.4v5.6Z"/>
</svg>
