<svg xmlns="http://www.w3.org/2000/svg" fill="none" viewBox="0 0 28 28">
  <path fill="#2A2238" d="M28 25.7784 25.7793 28 15.7542 17.978l2.2254-2.2216L28 25.7784ZM15.7371 0c-4.015 0-8.03 1.52461-11.11128 4.5894l-.01557.01556c-6.147 6.14514-6.147 16.11734 0 22.26244L15.7371 15.7362 26.864 4.60496C23.7982 1.54017 19.7677 0 15.7371 0ZM4.87481 22.2002c-1.15159-1.9291-1.77407-4.1382-1.77407-6.4562 0-1.4469.24899-2.8315.71585-4.1538.29568 2.9714 1.38502 5.8962 3.22134 8.4631l-2.16312 2.1469Zm4.41962-4.4182c-2.10088-3.1893-2.89454-7.0008-2.14756-10.62565.90259-.18669 1.80519-.28003 2.72335-.28003 2.80118 0 5.52448.85565 7.90548 2.42693L9.29443 17.782ZM11.582 3.82709c1.3228-.46672 2.7078-.71563 4.1551-.71563 2.3188 0 4.5286.62229 6.4583 1.77353l-2.1632 2.16246c-2.5677-1.83576-5.4778-2.92477-8.4502-3.22036Z"/>
</svg>
