<svg xmlns="http://www.w3.org/2000/svg" fill="none" viewBox="0 0 22 29">
  <path fill="#2A2238" fill-rule="evenodd" d="m11.8262 7.25129 2.303 2.303-2.303 2.30301V7.25129Zm0 14.18201 2.303-2.303-2.303-2.303v4.606ZM9.35873 14.358l-5.0015-5.03296 1.44725-1.44725 3.98125 3.97951V2.31629l7.23977 7.238-4.7723 4.80551 4.8038 4.8037-7.23802 7.2398v-9.576l-4.0145 3.9795-1.44725-1.4473 5.0015-4.9997v-.0018Zm1.34747 13.9843c6.1215 0 10.332-2.8963 10.332-14.0175C21.0382 3.23853 16.8277.342285 10.708.342285 4.58823.342285.375977 3.23854.375977 14.3598c0 11.0845 4.212253 13.9825 10.332023 13.9825h-.0018Z" clip-rule="evenodd"/>
</svg>
