<svg xmlns="http://www.w3.org/2000/svg" fill="none" viewBox="0 0 12 20">
  <path fill="#2A2238" d="M11.6763 13.4375 7.73429 10l3.93751-3.39732c.308-.26786.3303-.72768.0491-1.02232L6.50661.160714C6.4084.0580356 6.26554 0 6.12269 0c-.27233 0-.49554.21875-.49554.482143V8.03571L1.77447 4.76339c-.31696-.26785-.794642-.2366-1.075892.06697-.290179.3125-.258929.7991.071428 1.07589L5.62715 10 .801256 14.058c-.325893.2724-.361607.75-.075893 1.067l.013393.0134c.281254.3125.772324.3437 1.093754.067l3.79464-3.2858V19.5c0 .2768.22768.5.51339.5.14286 0 .27679-.058.375-.1562l5.20986-5.3795c.2812-.2947.2589-.7545-.0491-1.0268ZM7.25215 3.07589l2.79915 2.94197c.0357.03571.0312.09375-.009.12946L7.24322 8.51339c-.05803.04911-.15179.00893-.15179-.06696V3.13839c.00447-.08482.10715-.12053.16072-.0625ZM7.0959 16.8705v-5.2812c0-.0759.09375-.1161.15178-.067l2.79912 2.3661c.0402.0312.0402.0893.0089.1295L7.25661 16.933c-.05803.0581-.16071.0179-.16071-.0625Z"/>
</svg>
