<svg xmlns="http://www.w3.org/2000/svg" fill="none" viewBox="0 0 28 27">
  <path fill="#2A2238" d="M3.89011 1.69071c-.44752 0-.8767.17777-1.19315.49421-.31644.31645-.49421.74563-.49421 1.19315 0 .44752.17777.8767.49421 1.19315.31645.31644.74563.49421 1.19315.49421.44752 0 .8767-.17777 1.19315-.49421.31644-.31645.49421-.74563.49421-1.19315 0-.44752-.17777-.8767-.49421-1.19315-.31645-.31644-.74563-.49421-1.19315-.49421ZM.515383 3.37807C.51457 2.5561.813779 1.76209 1.35685 1.14508 1.89992.528059 2.64951.130458 3.46493.026899c.81542-.1035586 1.64061.094046 2.32067.555724.68006.461677 1.16825 1.155687 1.37293 1.951767H20.87c.149-.57595.4475-1.10231.8654-1.52572.4179-.423408.9402-.728832 1.5142-.88532.5739-.1564868 1.1791-.1584758 1.754-.005765.575.152711 1.0994.454695 1.52.87535.4207.420655.7226.945035.8754 1.519995.1527.57496.1507 1.18007-.0058 1.75402-.1565.57394-.4619 1.09632-.8853 1.5142-.4234.41789-.9498.71642-1.5257.86534V20.358c.5759.1489 1.1023.4475 1.5257.8653.4234.4179.7288.9403.8853 1.5143.1565.5739.1585 1.179.0058 1.754-.1528.5749-.4547 1.0993-.8754 1.52-.4206.4206-.945.7226-1.52.8753-.5749.1527-1.1801.1507-1.754-.0057-.574-.1565-1.0963-.462-1.5142-.8854-.4179-.4234-.7164-.9497-.8654-1.5257H7.15853c-.14893.576-.44746 1.1023-.86534 1.5257s-.94026.7289-1.5142.8854c-.57395.1564-1.17906.1584-1.75402.0057-.57496-.1527-1.09934-.4547-1.52-.8753-.42065-.4207-.722635-.9451-.875346-1.52-.152711-.575-.150722-1.1801.005765-1.754.156488-.574.461911-1.0964.885321-1.5143.42341-.4178.94976-.7164 1.52572-.8653V6.64649c-.72455-.18707-1.36637-.60966-1.82454-1.20131-.458168-.59165-.706698-1.3188-.706507-2.06711ZM4.73379 6.64649V20.358c1.18622.3037 2.11933 1.2385 2.42474 2.4247H20.87c.1513-.5836.4559-1.1161.8823-1.5425.4263-.4263.9589-.7309 1.5425-.8822V6.64649c-.5836-.15129-1.1162-.45588-1.5425-.88221-.4264-.42633-.731-.9589-.8823-1.54253H7.15853c-.15129.58363-.45588 1.1162-.88221 1.54253-.42633.42633-.9589.73092-1.54253.88221ZM24.1385 1.69071c-.4475 0-.8767.17777-1.1932.49421-.3164.31645-.4942.74563-.4942 1.19315 0 .44752.1778.8767.4942 1.19315.3165.31644.7457.49421 1.1932.49421s.8767-.17777 1.1931-.49421c.3165-.31645.4942-.74563.4942-1.19315 0-.44752-.1777-.8767-.4942-1.19315-.3164-.31644-.7456-.49421-1.1931-.49421ZM3.89011 21.9391c-.44752 0-.8767.1777-1.19315.4942-.31644.3164-.49421.7456-.49421 1.1931s.17777.8767.49421 1.1932c.31645.3164.74563.4942 1.19315.4942.44752 0 .8767-.1778 1.19315-.4942.31644-.3165.49421-.7457.49421-1.1932s-.17777-.8767-.49421-1.1931c-.31645-.3165-.74563-.4942-1.19315-.4942Zm20.24839 0c-.4475 0-.8767.1777-1.1932.4942-.3164.3164-.4942.7456-.4942 1.1931s.1778.8767.4942 1.1932c.3165.3164.7457.4942 1.1932.4942s.8767-.1778 1.1931-.4942c.3165-.3165.4942-.7457.4942-1.1932s-.1777-.8767-.4942-1.1931c-.3164-.3165-.7456-.4942-1.1931-.4942Z"/>
</svg>
