<svg xmlns="http://www.w3.org/2000/svg" fill="none" viewBox="0 0 29 21">
  <path fill="#2A2238" d="M5.85007 1.49168C4.71242 2.62921 3.80999 3.97969 3.19429 5.466c-.61569 1.48631-.93259 3.07935-.93259 4.6881 0 1.6088.3169 3.2019.93259 4.6882.6157 1.4863 1.51813 2.8368 2.65578 3.9743.15939.165.24758.386.24559.6155-.002.2294-.09402.4488-.25625.6111-.16223.1622-.38169.2542-.61111.2562-.22942.002-.45045-.0862-.61548-.2456-1.30009-1.3-2.33138-2.8434-3.03498-4.542C.874228 13.8132.512085 11.9927.512085 10.1541c0-1.83852.362143-3.65907 1.065755-5.35767.7036-1.6986 1.73489-3.24197 3.03498-4.541993.16503-.1593878.38606-.2475824.61548-.2455888.22942.0019936.44888.0940158.61111.2562478.16223.162231.25425.381691.25625.611112.00199.229422-.0862.450442-.24559.615472Zm3.71348 3.71348C8.25126 6.51785 7.51405 8.298 7.51405 10.1541c0 1.8562.73721 3.6363 2.0495 4.949.08135.0814.14589.1779.18991.2842.04403.1063.06669.2203.06669.3353 0 .1151-.02266.229-.06669.3353-.04402.1063-.10856.2028-.18991.2842-.08136.0814-.17794.1459-.28423.1899-.10629.044-.22022.0667-.33527.0667-.11505 0-.22897-.0227-.33527-.0667-.10629-.044-.20287-.1085-.28422-.1899-.81276-.8125-1.45748-1.7772-1.89735-2.839-.43987-1.0617-.66627-2.1997-.66627-3.349 0-1.14922.2264-2.28722.66627-3.34896.43987-1.06174 1.08459-2.02643 1.89735-2.83897.1643-.1643.38713-.25661.61949-.25661s.4552.09231.6195.25661c.1643.1643.2566.38714.2566.61949 0 .23236-.0923.4552-.2566.6195Zm9.89795-1.23899c.0813-.08149.1778-.14614.2841-.19025.1063-.04411.2203-.06682.3354-.06682.1151 0 .229.02271.3354.06682.1063.04411.2028.10876.2841.19025.8127.81254 1.4575 1.77723 1.8973 2.83897.4399 1.06174.6663 2.19974.6663 3.34896 0 1.1493-.2264 2.2873-.6663 3.349-.4398 1.0618-1.0846 2.0265-1.8973 2.839-.0814.0814-.1779.1459-.2842.1899-.1063.044-.2203.0667-.3353.0667-.1151 0-.229-.0227-.3353-.0667-.1063-.044-.2028-.1085-.2842-.1899-.0814-.0814-.1459-.1779-.1899-.2842-.044-.1063-.0667-.2202-.0667-.3353 0-.115.0227-.229.0667-.3353.044-.1063.1085-.2028.1899-.2842 1.3123-1.3127 2.0495-3.0928 2.0495-4.949 0-1.8561-.7372-3.63625-2.0495-4.94894-.0815-.08128-.1461-.17784-.1902-.28414-.0442-.1063-.0669-.22026-.0669-.33536 0-.11509.0227-.22905.0669-.33535.0441-.10631.1087-.20286.1902-.28414ZM23.175.256187C23.3391.0921506 23.5616 0 23.7936 0c.232 0 .4545.0921506.6186.256187C27.0373 2.88163 28.5121 6.4423 28.5121 10.155c0 3.7127-1.4748 7.2734-4.0999 9.8988-.165.1594-.386.2476-.6154.2456-.2295-.002-.4489-.094-.6112-.2562-.1622-.1623-.2542-.3817-.2562-.6111-.002-.2295.0862-.4505.2456-.6155 1.1376-1.1375 2.0401-2.488 2.6558-3.9743.6156-1.4863.9325-3.0794.9325-4.6882 0-1.60875-.3169-3.20179-.9325-4.6881-.6157-1.48631-1.5182-2.83679-2.6558-3.97432-.1641-.16409-.2562-.3866-.2562-.618621 0-.232018.0921-.454536.2562-.618622v.00175ZM18.0125 10.1541c0 .9283-.3687 1.8185-1.0251 2.4749-.6564.6564-1.5466 1.0251-2.4749 1.0251-.9282 0-1.8185-.3687-2.4748-1.0251-.6564-.6564-1.0252-1.5466-1.0252-2.4749 0-.92822.3688-1.81845 1.0252-2.47482.6563-.65638 1.5466-1.02513 2.4748-1.02513.9283 0 1.8185.36875 2.4749 1.02513.6564.65637 1.0251 1.5466 1.0251 2.47482Z"/>
</svg>
