<svg xmlns="http://www.w3.org/2000/svg" fill="none" viewBox="0 0 22 28">
  <path fill="#2A2238" d="M.622559 3.5c0-.92826.368748-1.8185 1.025121-2.47487C2.30406.368749 3.1943 0 4.12256 0H18.1226c.9282 0 1.8185.368749 2.4748 1.02513.6564.65637 1.0252 1.54661 1.0252 2.47487v21c0 .9283-.3688 1.8185-1.0252 2.4749C19.9411 27.6313 19.0508 28 18.1226 28H4.12256c-.92826 0-1.8185-.3687-2.47488-1.0251C.991307 26.3185.622559 25.4283.622559 24.5v-21Zm3.500001.875v3.5c0 .23206.09219.45462.25628.61872.16409.16409.38665.25628.61872.25628H17.2476c.232 0 .4546-.09219.6187-.25628.1641-.1641.2563-.38666.2563-.61872v-3.5c0-.23206-.0922-.45462-.2563-.61872-.1641-.16409-.3867-.25628-.6187-.25628H4.99756c-.23207 0-.45463.09219-.61872.25628-.16409.1641-.25628.38666-.25628.61872Zm0 7v1.75c0 .2321.09219.4546.25628.6187.16409.1641.38665.2563.61872.2563h1.75c.23206 0 .45462-.0922.61872-.2563.16409-.1641.25628-.3866.25628-.6187v-1.75c0-.2321-.09219-.4546-.25628-.6187-.1641-.1641-.38666-.2563-.61872-.2563h-1.75c-.23207 0-.45463.0922-.61872.2563-.16409.1641-.25628.3866-.25628.6187Zm.875 4.375c-.23207 0-.45463.0922-.61872.2563-.16409.1641-.25628.3866-.25628.6187v1.75c0 .2321.09219.4546.25628.6187.16409.1641.38665.2563.61872.2563h1.75c.23206 0 .45462-.0922.61872-.2563.16409-.1641.25628-.3866.25628-.6187v-1.75c0-.2321-.09219-.4546-.25628-.6187-.1641-.1641-.38666-.2563-.61872-.2563h-1.75Zm-.875 6.125v1.75c0 .2321.09219.4546.25628.6187.16409.1641.38665.2563.61872.2563h1.75c.23206 0 .45462-.0922.61872-.2563.16409-.1641.25628-.3866.25628-.6187v-1.75c0-.2321-.09219-.4546-.25628-.6187-.1641-.1641-.38666-.2563-.61872-.2563h-1.75c-.23207 0-.45463.0922-.61872.2563-.16409.1641-.25628.3866-.25628.6187ZM10.2476 10.5c-.2321 0-.45467.0922-.61876.2563-.16409.1641-.25628.3866-.25628.6187v1.75c0 .2321.09219.4546.25628.6187.16409.1641.38666.2563.61876.2563h1.75c.232 0 .4546-.0922.6187-.2563.1641-.1641.2563-.3866.2563-.6187v-1.75c0-.2321-.0922-.4546-.2563-.6187-.1641-.1641-.3867-.2563-.6187-.2563h-1.75Zm-.87504 6.125v1.75c0 .2321.09219.4546.25628.6187.16409.1641.38666.2563.61876.2563h1.75c.232 0 .4546-.0922.6187-.2563.1641-.1641.2563-.3866.2563-.6187v-1.75c0-.2321-.0922-.4546-.2563-.6187-.1641-.1641-.3867-.2563-.6187-.2563h-1.75c-.2321 0-.45467.0922-.61876.2563-.16409.1641-.25628.3866-.25628.6187ZM10.2476 21c-.2321 0-.45467.0922-.61876.2563-.16409.1641-.25628.3866-.25628.6187v1.75c0 .2321.09219.4546.25628.6187.16409.1641.38666.2563.61876.2563h1.75c.232 0 .4546-.0922.6187-.2563.1641-.1641.2563-.3866.2563-.6187v-1.75c0-.2321-.0922-.4546-.2563-.6187-.1641-.1641-.3867-.2563-.6187-.2563h-1.75Zm4.375-9.625v1.75c0 .2321.0921.4546.2562.6187.1641.1641.3867.2563.6188.2563h1.75c.232 0 .4546-.0922.6187-.2563.1641-.1641.2563-.3866.2563-.6187v-1.75c0-.2321-.0922-.4546-.2563-.6187-.1641-.1641-.3867-.2563-.6187-.2563h-1.75c-.2321 0-.4547.0922-.6188.2563-.1641.1641-.2562.3866-.2562.6187Zm.875 4.375c-.2321 0-.4547.0922-.6188.2563-.1641.1641-.2562.3866-.2562.6187v7c0 .2321.0921.4546.2562.6187.1641.1641.3867.2563.6188.2563h1.75c.232 0 .4546-.0922.6187-.2563.1641-.1641.2563-.3866.2563-.6187v-7c0-.2321-.0922-.4546-.2563-.6187-.1641-.1641-.3867-.2563-.6187-.2563h-1.75Z"/>
</svg>
