<svg xmlns="http://www.w3.org/2000/svg" fill="none" viewBox="0 0 32 32">
  <path fill="#2A2238" d="M24.7867 14.0267c1.4.68 2.72 1.5333 3.9466 2.5466L27.3067 18c-.7734-.6267-1.6134-1.1867-2.5067-1.6933v-2.28h-.0133Zm-17.5867 0v2.2666c-.86667.4934-1.70667 1.0534-2.49333 1.6934L3.28 16.56c1.21333-1 2.53333-1.84 3.92-2.5333ZM16 9.33333C9.94667 9.33333 4.45333 11.7067.386667 15.56.146667 15.8 0 16.1333 0 16.5067c0 .3733.146667.7066.386667.9333l3.306663 3.3067c.24.24.57334.3866.94667.3866.36 0 .69333-.1333.93333-.3733 1.05334-.9733 2.24-1.8133 3.54667-2.4667.44-.2133.74667-.68.74667-1.2V12.96C11.8 12.3333 13.8667 12 16 12s4.2.3333 6.12.9733v4.1334c0 .5333.3067.9866.7467 1.2 1.3066.6533 2.5066 1.48 3.56 2.4666.24.2267.5733.3734.9333.3734.3733 0 .7067-.1467.9467-.3867l3.3066-3.3067c.24-.24.3867-.5733.3867-.9466 0-.3734-.1467-.7067-.3867-.9467-4.0666-3.8533-9.56-6.22667-15.6133-6.22667Z"/>
</svg>
