<svg xmlns="http://www.w3.org/2000/svg" fill="none" viewBox="0 0 32 32">
  <path fill="#2A2238" d="M26.6667 20.6c-1.6667 0-3.2667-.2667-4.76-.76-.1334-.04-.28-.0667-.4134-.0667-.3466 0-.68.1334-.9466.3867l-2.9334 2.9333c-3.7733-1.92-6.8666-5-8.78663-8.7866L11.76 11.36c.3733-.3467.48-.8667.3333-1.3333-.4933-1.49337-.76-3.09337-.76-4.76003 0-.73334-.6-1.33334-1.3333-1.33334H5.33333C4.6 3.93333 4 4.53333 4 5.26667 4 17.7867 14.1467 27.9333 26.6667 27.9333c.7333 0 1.3333-.6 1.3333-1.3333v-4.6667C28 21.2 27.4 20.6 26.6667 20.6ZM6.70667 6.6h2c.09333 1.17333.29333 2.33333.6 3.44l-1.6 1.6133c-.53334-1.6133-.88-3.2933-1-5.0533ZM25.3333 25.2267c-1.76-.12-3.4666-.4667-5.0666-1.0134l1.6-1.6c1.1333.32 2.2933.52 3.4666.6v2.0134ZM24 7.93333v-4h-2.6667v4h-4V10.6h4v4H24v-4h4V7.93333h-4Z"/>
</svg>
