<svg xmlns="http://www.w3.org/2000/svg" fill="none" viewBox="0 0 28 28">
  <path stroke="#2A2238" stroke-width="1.5" d="M16.625 11.25h.0001c.667-.0001 1.3113.2423 1.8129.6819s.8263 1.0466.9137 1.7078l.1314.9945.9167-.4073 5.4425-2.4185.0007-.0003c.1522-.0679.319-.0966.4851-.0835.1662.013.3264.0673.4662.158.1398.0908.2548.215.3343.3614.0796.1464.1213.3104.1214.4771v13.0575c-.0001.1665-.0419.3304-.1214.4767-.0795.1463-.1943.2704-.334.3611-.1396.0907-.2997.1451-.4658.1582-.166.0131-.3326-.0154-.4848-.083l-5.4443-2.4185-.9166-.4072-.1314.9944c-.0874.6612-.4121 1.2682-.9137 1.7078-.5016.4396-1.1459.682-1.8129.6819H3.5c-.72935 0-1.42882-.2897-1.94454-.8055C1.03973 25.9288.75 25.2293.75 24.5V14c0-.7293.28973-1.4288.80546-1.9445.51572-.5158 1.21519-.8055 1.94454-.8055h13.125Zm-6.875-6c0 1.19347-.47411 2.33807-1.31802 3.18198C7.58807 9.27589 6.44347 9.75 5.25 9.75c-1.19347 0-2.33807-.47411-3.18198-1.31802C1.22411 7.58807.75 6.44347.75 5.25c0-1.19347.47411-2.33807 1.31802-3.18198C2.91193 1.22411 4.05653.75 5.25.75c1.19347 0 2.33807.47411 3.18198 1.31802C9.27589 2.91193 9.75 4.05653 9.75 5.25Zm2.818 3.18198C11.7241 7.58807 11.25 6.44347 11.25 5.25c0-1.19347.4741-2.33807 1.318-3.18198C13.4119 1.22411 14.5565.75 15.75.75s2.3381.47411 3.182 1.31802c.8439.84391 1.318 1.98851 1.318 3.18198 0 1.19347-.4741 2.33807-1.318 3.18198C18.0881 9.27589 16.9435 9.75 15.75 9.75s-2.3381-.47411-3.182-1.31802Z"/>
</svg>
