<svg xmlns="http://www.w3.org/2000/svg" fill="none" viewBox="0 0 28 24">
  <path fill="#2A2238" d="M25.4545.48999H2.54545C1.14545.48999 0 1.63544 0 3.03544v3.81819h2.54545V3.03544H25.4545V20.8536h-8.909v2.5455h8.909c1.4 0 2.5455-1.1455 2.5455-2.5455V3.03544c0-1.4-1.1455-2.54545-2.5455-2.54545ZM0 19.5809v3.8182h3.81818c0-2.1127-1.70545-3.8182-3.81818-3.8182ZM0 14.49v2.5454c3.51273 0 6.36364 2.851 6.36364 6.3637h2.54545C8.90909 18.4736 4.92545 14.49 0 14.49Zm0-5.09092v2.54542c6.32545 0 11.4545 5.1291 11.4545 11.4546H14C14 15.6609 7.72545 9.39908 0 9.39908Z"/>
</svg>
