<svg xmlns="http://www.w3.org/2000/svg" fill="none" viewBox="0 0 28 23">
  <path fill="#2A2238" d="M0 19.0909v3.8182h3.81818c0-2.1127-1.70545-3.8182-3.81818-3.8182ZM0 14v2.5455c3.51273 0 6.36364 2.8509 6.36364 6.3636h2.54545C8.90909 17.9836 4.92545 14 0 14Zm0-5.09091v2.54541c6.32545 0 11.4545 5.1291 11.4545 11.4546H14C14 15.1709 7.72545 8.90909 0 8.90909ZM25.4545 0H2.54545C1.14545 0 0 1.14545 0 2.54545v3.81819h2.54545V2.54545H25.4545V20.3636h-8.909v2.5455h8.909c1.4 0 2.5455-1.1455 2.5455-2.5455V2.54545C28 1.14545 26.8545 0 25.4545 0ZM5.09091 5.09091v2.54545H20.3636v7.63634h-3.8181v2.5455h6.3636V5.09091H5.09091Z"/>
</svg>
