<svg xmlns="http://www.w3.org/2000/svg" fill="none" viewBox="0 0 17 16">
  <path fill="#2A2238" fill-rule="evenodd" d="M7 10H1v5h6v-5Zm9-9h-6v5h6V1Zm-2.5 14c1.3807 0 2.5-1.1193 2.5-2.5S14.8807 10 13.5 10 11 11.1193 11 12.5s1.1193 2.5 2.5 2.5Zm-10-9C4.88071 6 6 4.88071 6 3.5S4.88071 1 3.5 1 1 2.11929 1 3.5 2.11929 6 3.5 6ZM10 0c-.55228 0-1 .447715-1 1v5c0 .55228.44772 1 1 1h6c.5523 0 1-.44772 1-1V1c0-.552285-.4477-1-1-1h-6ZM1 9c-.552285 0-1 .44772-1 1v5c0 .5523.447715 1 1 1h6c.55228 0 1-.4477 1-1v-5c0-.55228-.44772-1-1-1H1Zm16 3.5c0 1.933-1.567 3.5-3.5 3.5S10 14.433 10 12.5 11.567 9 13.5 9s3.5 1.567 3.5 3.5ZM3.5 7C5.433 7 7 5.433 7 3.5S5.433 0 3.5 0 0 1.567 0 3.5 1.567 7 3.5 7Z" clip-rule="evenodd"/>
</svg>
