<svg xmlns="http://www.w3.org/2000/svg" fill="none" viewBox="0 0 28 28">
  <path fill="#2A2238" d="M16.2105 0v11.2H28C28 5.012 22.7242 0 16.2105 0Zm2.9474 8.4V3.276c2.5053.84 4.4947 2.73 5.3937 5.124h-5.3937ZM6.54316 12.6l-1.4-2.8H0v2.8h3.27158s2.78526 5.698 3.12421 6.188c-1.62105.826-2.71158 2.45-2.71158 4.312 0 2.702 2.31369 4.9 5.1579 4.9 2.59369 0 4.74529-1.82 5.09899-4.2h3.0652c.3537 2.38 2.5053 4.2 5.099 4.2 2.8442 0 5.1579-2.198 5.1579-4.9 0-1.456-.6779-2.758-1.739-3.654C27.0716 17.556 28 15.176 28 12.6H6.54316Zm2.29895 12.6c-1.22316 0-2.21053-.938-2.21053-2.1 0-1.162.98737-2.1 2.21053-2.1 1.22319 0 2.21049.938 2.21049 2.1 0 1.162-.9873 2.1-2.21049 2.1Zm13.26319 0c-1.2232 0-2.2106-.938-2.2106-2.1 0-1.162.9874-2.1 2.2106-2.1 1.2231 0 2.2105.938 2.2105 2.1 0 1.162-.9874 2.1-2.2105 2.1Zm1.0905-7.476-.4274.518c-.2063-.028-.4421-.042-.6631-.042-2.0485 0-3.8316 1.148-4.6569 2.8h-3.9495c-.7368-1.456-2.2105-2.52-3.94943-2.758l-.64842-.938c-.14737-.238-.50105-.966-.98736-1.904H24.5516c-.3095.826-.7663 1.61-1.3558 2.324Z"/>
</svg>
