<svg xmlns="http://www.w3.org/2000/svg" fill="none" viewBox="0 0 28 28">
  <path fill="#2A2238" d="M14 6.125c0-.23206.0922-.45462.2563-.61872.1641-.16409.3866-.25628.6187-.25628.2321 0 .4546.09219.6187.25628.1641.1641.2563.38666.2563.61872v9.625c0 .1542-.0409.3057-.1183.4391-.0775.1334-.1888.2439-.3227.3204l-6.125 3.5c-.201.1086-.43652.1343-.65622.0716s-.40616-.2089-.51951-.4073c-.11336-.1983-.14463-.4332-.08713-.6543.05751-.2211.19922-.411.39486-.529L14 15.2425V6.125Z"/>
  <path fill="#2A2238" d="M14 28c-3.713 0-7.27399-1.475-9.8995-4.1005C1.47499 21.274 0 17.713 0 14s1.47499-7.27399 4.1005-9.89949C6.72601 1.475 10.287 0 14 0s7.274 1.475 9.8995 4.10051C26.525 6.72601 28 10.287 28 14s-1.475 7.274-4.1005 9.8995C21.274 26.525 17.713 28 14 28ZM1.75 14c0 3.2489 1.29062 6.3647 3.58794 8.6621C7.63526 24.9594 10.7511 26.25 14 26.25s6.3647-1.2906 8.6621-3.5879C24.9594 20.3647 26.25 17.2489 26.25 14c0-3.2489-1.2906-6.36474-3.5879-8.66206C20.3647 3.04062 17.2489 1.75 14 1.75c-3.2489 0-6.36474 1.29062-8.66206 3.58794S1.75 10.7511 1.75 14Z"/>
</svg>
