<svg xmlns="http://www.w3.org/2000/svg" fill="none" viewBox="0 0 24 28">
  <path fill="#2A2238" d="M1.97306 1.41081C2.47158.5384 3.39934 0 4.40414 0H18.7792c1.0048 0 1.9326.538401 2.4311 1.41081l1.6 2.8c.9071 1.58747.068 3.50468-1.5257 4.04264.0058.11381.0047.22929-.0036.34604l-1.2 16.80001C19.9763 26.8647 18.7571 28 17.2881 28H5.89524c-1.46899 0-2.68823-1.1353-2.79289-2.6005l-1.2-16.80001c-.00834-.11675-.00941-.23224-.00363-.34605C.305075 7.71547-.534064 5.79827.373057 4.21081l1.600003-2.8ZM4.69524 8.4l.3 4.2H18.1881l.3-4.2H4.69524Zm.9 12.6.3 4.2H17.2881l.3-4.2H5.59524ZM20.3792 5.6l-1.6-2.8H4.40414l-1.6 2.8H20.3792Z"/>
</svg>
