<svg xmlns="http://www.w3.org/2000/svg" fill="none" viewBox="0 0 24 24">
  <path fill="#2A2238" d="M16.2856 17.7141c-1.6398-.0007-3.2006-.7049-4.286-1.934-1.7401 1.9726-4.60211 2.5023-6.93303 1.2834-2.33092-1.219-3.52851-3.8718-2.9011-6.4263.6274-2.55454 2.91767-4.35069 5.5481-4.35114.89895-.00214 1.78545.21005 2.58603.619-.62441.73207-1.10819 1.57318-1.42703 2.481-1.1565-.51223-2.51216-.20305-3.33221.75994-.82004.963-.90927 2.3506-.2193 3.4107.68996 1.0602 1.99486 1.5404 3.20744 1.1805 1.21258-.3599 2.0442-1.4743 2.0441-2.7391 0-3.1558 2.5582-5.71404 5.714-5.71404 3.1557 0 5.714 2.55824 5.714 5.71404 0 3.1557-2.5583 5.714-5.714 5.714l-.001.002Zm-2.856-5.614c.0274 1.5678 1.3135 2.8206 2.8815 2.8068 1.5681-.0137 2.832-1.2887 2.832-2.8568 0-1.5682-1.2639-2.84321-2.832-2.85693-1.568-.01373-2.8541 1.23903-2.8815 2.80693v.1Z"/>
</svg>
