<svg xmlns="http://www.w3.org/2000/svg" fill="none" viewBox="0 0 18 29">
  <path fill="#2A2238" d="M16.7351.272827H1.48923c-.3866 0-.700005.313401-.700005.700001V3.11361c0 .42197.369815.75111.790375.71664.99313-.08141 2.74039-.16535 4.16796.07894 2.125.36364 2.88075 1.43685 3.54166 2.54546H1.48923c-.3866 0-.700005.3134-.700005.7v1.87272c0 .3866.313405.7.700005.7h7.79999c-1.016 2.35333-2.04319 3.35783-8.13518 3.28563-.393071-.0046-.718981.3108-.718981.7039v2.5559L10.1418 28.0187c.1329.161.3308.2541.5395.2541h3.53c.5864 0 .9129-.6777.5475-1.1362L6.10173 16.2728c4.76017-.7432 6.76447-2.6238 7.79167-6.90906h2.8417c.3866 0 .7-.31341.7-.7V7.15465c0-.3866-.3134-.7-.7-.7h-2.8417c-.1242-1.20968-.0793-1.84543-1.7708-3.63637h4.6125c.3866 0 .7-.3134.7-.7V.972827c0-.386599-.3134-.7-.7-.7Z"/>
</svg>
