<svg xmlns="http://www.w3.org/2000/svg" fill="none" viewBox="0 0 19 29">
  <path fill="#2A2238" d="M.550049 19.6308c.266 3.339 2.905001 5.9395 7.637001 6.2475v2.464H10.287v-2.4815c4.9-.343 7.763-2.961 7.763-6.762 0-3.4545-2.191-5.236-6.1075-6.16l-1.6555-.392V5.83729c2.1.238 3.437 1.386 3.759 2.975h3.682c-.266-3.2165-3.024-5.733-7.441-6.006V.342285H8.18705V2.85878c-4.1825.4095-7.035 2.92601-7.035 6.48551 0 3.15001 2.121 5.15201 5.6455 5.97451l1.3895.343v7.119c-2.1525-.3255-3.577-1.505-3.899-3.15H.550049Zm7.619501-7.581c-2.065-.4795-3.185-1.456-3.185-2.92601 0-1.64501 1.2075-2.877 3.2025-3.2375v6.16001h-.0175v.0035Zm2.42205 4.1755c2.5095.581 3.6679 1.5225 3.6679 3.185 0 1.897-1.442 3.199-3.9725 3.437v-6.692l.3046.07Z"/>
</svg>
