<svg xmlns="http://www.w3.org/2000/svg" fill="none" viewBox="0 0 32 32">
  <path fill="#2A2238" d="M20.6667 7.33333c1.4666 0 2.6666-1.2 2.6666-2.66666C23.3333 3.2 22.1333 2 20.6667 2 19.2 2 18 3.2 18 4.66667c0 1.46666 1.2 2.66666 2.6667 2.66666ZM6.66667 16C2.93333 16 0 18.9333 0 22.6667c0 3.7333 2.93333 6.6666 6.66667 6.6666 3.73333 0 6.66663-2.9333 6.66663-6.6666C13.3333 18.9333 10.4 16 6.66667 16Zm0 11.3333C4.13333 27.3333 2 25.2 2 22.6667 2 20.1333 4.13333 18 6.66667 18 9.2 18 11.3333 20.1333 11.3333 22.6667c0 2.5333-2.1333 4.6666-4.66663 4.6666ZM14.4 14l3.2-3.2 1.0667 1.0667c1.7333 1.7333 4 2.8 6.8 2.8V12c-2 0-3.6-.8-4.8-2l-2.5334-2.53333c-.6666-.53334-1.3333-.8-2.1333-.8-.8 0-1.4667.26666-1.8667.8L10.4 11.2c-.53333.5333-.8 1.2-.8 1.8667 0 .8.26667 1.4666.8 1.8666l4.2667 3.7334v6.6666h2.6666v-8.2666L14.4 14Zm10.9333 2c-3.7333 0-6.6666 2.9333-6.6666 6.6667 0 3.7333 2.9333 6.6666 6.6666 6.6666C29.0667 29.3333 32 26.4 32 22.6667 32 18.9333 29.0667 16 25.3333 16Zm0 11.3333c-2.5333 0-4.6666-2.1333-4.6666-4.6666C20.6667 20.1333 22.8 18 25.3333 18 27.8667 18 30 20.1333 30 22.6667c0 2.5333-2.1333 4.6666-4.6667 4.6666Z"/>
</svg>
