<svg xmlns="http://www.w3.org/2000/svg" fill="none" viewBox="0 0 32 32">
  <path fill="#2A2238" d="M11.3333 17.3333c1.1067 0 2 .8934 2 2 0 1.1067-.8933 2-2 2-1.1066 0-1.99997-.8933-1.99997-2 0-1.1066.89337-2 1.99997-2Zm15.04 12.8134L24.1867 27.96c-.0667.0133-.12.04-.1867.04h-1.3333c-.7334 0-1.3334-.6-1.3334-1.3333v-1.3334H10.6667v1.3334c0 .7333-.6 1.3333-1.33337 1.3333H8c-.73333 0-1.33333-.6-1.33333-1.3333v-2.3734c-.81334-.7333-1.33334-1.7866-1.33334-2.96V9.10667l-3.48-3.48 1.88-1.88L28.24 28.2533l-1.8667 1.8934ZM8 11.7733v1.56h1.56L8 11.7733Zm10.8933 10.8934L12.2267 16H8v5.3333c0 .4934.28.8267.45333.9734l.38667.36h10.0533ZM16 5.33333c4.92 0 6.8133.61334 7.5467 1.32h-13.12L13.0933 9.32H24v4.0133h-6.8933L19.7733 16H24v4.2267l2.4133 2.4133c.1467-.4133.2534-.84.2534-1.3067V8c0-4.66667-4.7734-5.33333-10.6667-5.33333-3.36 0-6.34667.21333-8.29333 1.26666l2.04 2.04C10.8933 5.6 12.8 5.33333 16 5.33333Z"/>
</svg>
