<svg xmlns="http://www.w3.org/2000/svg" fill="none" viewBox="0 0 32 32">
  <path fill="#2A2238" d="M16 2.66667c-5.3333 0-10.66667.66666-10.66667 5.33333v12.6667c0 2.5733 2.09334 4.6666 4.66667 4.6666l-2 2V28h16v-.6667l-2-2c2.5733 0 4.6667-2.0933 4.6667-4.6666V8c0-4.66667-4.7734-5.33333-10.6667-5.33333Zm7.5467 4H8.57333C9.38667 5.97333 11.32 5.33333 16 5.33333c4.9467 0 6.8267.61334 7.5467 1.33334Zm-8.88 2.66666v3.99997H8V9.33333h6.6667Zm2.6666 0H24v3.99997h-6.6667V9.33333ZM22 22.6667H10c-1.10667 0-2-.8934-2-2V16h16v4.6667c0 1.1066-.8933 2-2 2Z"/>
  <path fill="#2A2238" d="M11.3333 21.3333c1.1046 0 2-.8954 2-2 0-1.1045-.8954-2-2-2-1.1045 0-1.99997.8955-1.99997 2 0 1.1046.89547 2 1.99997 2Zm9.3334 0c1.1045 0 2-.8954 2-2 0-1.1045-.8955-2-2-2-1.1046 0-2 .8955-2 2 0 1.1046.8954 2 2 2Z"/>
</svg>
