<svg xmlns="http://www.w3.org/2000/svg" fill="none" viewBox="0 0 29 29">
  <path fill="#2A2238" d="M26.2001 23.6c0 1.9882-1.6118 3.6-3.6 3.6-1.9882 0-3.6-1.6118-3.6-3.6 0-1.9882 1.6118-3.6 3.6-3.6 1.9882 0 3.6 1.6118 3.6 3.6ZM9.20011 7.6c0 1.98823-1.61178 3.6-3.6 3.6-1.98823 0-3.6-1.61177-3.6-3.6 0-1.98822 1.61177-3.6 3.6-3.6 1.98822 0 3.6 1.61178 3.6 3.6ZM26.8701.707108c.3906-.390524 1.0237-.390524 1.4143 0 .3905.390522.3905 1.023692 0 1.414212L2.12141 28.2843c-.39052.3905-1.02369.3905-1.41421 0-.390524-.3906-.390524-1.0237 0-1.4142L26.8701.707108Z"/>
</svg>
