<svg xmlns="http://www.w3.org/2000/svg" fill="none" viewBox="0 0 24 26">
  <path fill="#2A2238" fill-rule="evenodd" d="M9.3335 2c-.92048 0-1.66667.74619-1.66667 1.66667V17c0 .9205.74619 1.6667 1.66667 1.6667h10.6667c.9204 0 1.6666-.7462 1.6666-1.6667V8.21895c0-.0884-.0351-.17319-.0976-.2357l-5.8856-5.88562C15.6211 2.03512 15.5363 2 15.4479 2H9.3335ZM5.66683 3.66667C5.66683 1.64162 7.30845 0 9.3335 0h6.1144c.6188 0 1.2123.245834 1.6499.683417l5.8856 5.885623c.4376.43758.6834 1.03107.6834 1.64991V17c0 2.025-1.6416 3.6667-3.6666 3.6667h-1.6667V23c0 1.6569-1.3431 3-3 3H4.00016C1.97512 26 .333496 24.3584.333496 22.3333V8.33333c0-1.65685 1.343144-3 3.000004-3h2.33333V3.66667Zm0 3.66666H3.3335c-.55229 0-1 .44772-1 1V22.3333c0 .9205.74619 1.6667 1.66666 1.6667H15.3335c.5523 0 1-.4477 1-1v-2.3333h-7c-2.02505 0-3.66667-1.6417-3.66667-3.6667V7.33333Z" clip-rule="evenodd"/>
</svg>
