<svg xmlns="http://www.w3.org/2000/svg" fill="none" viewBox="0 0 28 28">
  <path fill="#2A2238" d="M26.3333 18.6667C27.2533 18.6667 28 17.92 28 17s-.7467-1.6667-1.6667-1.6667H14.6667V14h9c.92 0 1.6666-.7467 1.6666-1.6667 0-.8933-.7066-1.6-1.5733-1.6533l-13.2667-.0133L12.4667 7.2c.12-.22667.1866-.45333.1866-.72 0-.34667-.12-.66667-.3466-.93333L10.8267 4l-9.57337 9.0667C.453333 13.8133 0 14.8667 0 15.96V24c0 2.2133 1.78667 4 4 4h18.3333c.92 0 1.6667-.7467 1.6667-1.6667s-.7467-1.6666-1.6667-1.6666h-7.6666v-1.3334H25c.92 0 1.6667-.7466 1.6667-1.6666S25.92 20 25 20H14.6667v-1.3333h11.6666ZM12 25.3333H4c-.73333 0-1.33333-.6-1.33333-1.3333v-8c0-.52.30666-.8533.48-1L8 10.4933v2.84h4v12Zm7.5333-21.51997L19.44 3.72c-.76-.82667-1.0933-1.88-.8933-2.933333L18.6667 0h-2.52l-.08.573333C15.8 2.38667 16.4267 4.18667 17.8 5.53333l.0933.08c.76.82667 1.0934 1.88.8934 2.93334l-.1467.78666h2.5467l.08-.57333c.28-1.81333-.36-3.61333-1.7334-4.94667Zm5.3334 0L24.7733 3.72c-.76-.82667-1.0933-1.88-.8933-2.933333L24 0h-2.52l-.08.573333c-.2667 1.813337.36 3.613337 1.7333 4.959997l.0934.08c.76.82667 1.0933 1.88.8933 2.93334l-.1467.78666H26.52L26.6 8.76c.28-1.81333-.36-3.61333-1.7333-4.94667Z"/>
</svg>
