<svg xmlns="http://www.w3.org/2000/svg" fill="none" viewBox="0 0 28 28">
  <path fill="#2A2238" d="M19.122 2.8c0-1.554 1.2156-2.8 2.7317-2.8s2.7317 1.246 2.7317 2.8c0 1.554-1.2156 2.8-2.7317 2.8S19.122 4.354 19.122 2.8ZM24.5854 28v-8.4H28L24.5307 8.918C24.1483 7.77 23.1102 7 21.9356 7h-.1639c-1.1746 0-2.2263.77-2.5951 1.918L18.002 12.53c1.4751.84 2.4858 2.422 2.4858 4.27V28h4.0976ZM14.3415 13.3c1.1336 0 2.0487-.938 2.0487-2.1 0-1.162-.9151-2.1-2.0487-2.1-1.1337 0-2.0488.938-2.0488 2.1 0 1.162.9151 2.1 2.0488 2.1ZM4.78049 5.6c1.5161 0 2.73171-1.246 2.73171-2.8 0-1.554-1.21561-2.8-2.73171-2.8S2.04878 1.246 2.04878 2.8c0 1.554 1.21561 2.8 2.73171 2.8ZM7.5122 28v-9.8h2.04878V9.8c0-1.54-1.22927-2.8-2.73171-2.8H2.73171C1.22927 7 0 8.26 0 9.8v8.4h2.04878V28H7.5122Zm8.878 0v-5.6h1.3659v-5.6c0-1.148-.9288-2.1-2.0488-2.1h-2.7317c-1.12 0-2.0488.952-2.0488 2.1v5.6h1.3659V28h4.0975Z"/>
</svg>
