<svg xmlns="http://www.w3.org/2000/svg" fill="none" viewBox="0 0 25 29">
  <path fill="#2A2238" fill-rule="evenodd" d="M24.5 8.23371V25.3424c0 .9283.1564 1.8436-.5 2.5-.6564.6564-2.0717.5163-3 .5163v-1.75c.4641 0 1.1718.0619 1.5-.2663.3282-.3282.25-.5359.25-1V8.23371H18.5c-.6962 0-1.0077.11728-1.5-.375-.4923-.49229-.375-.80381-.375-1.5v-4.25H6.66142c-.46413 0-.83323-.07819-1.16142.25-.32819.32818-.25.68525-.25 1.14938V19.6087H3.5V3.35871c0-.92826-.15638-1.84368.5-2.500055C4.65638.202278 5.52967.358706 6.45793.358706H16.625L24.5 8.23371ZM1.2355 28.0945v-4.655h.0665l1.666 3.78h.903l1.6555-3.78h.0665v4.655h1.25125v-6.9983h-1.4l-1.995 4.543h-.0455l-1.995-4.543H0v6.9983h1.2355Zm9.1647-6.9983c-.45845.7595-.9187 1.5173-1.38245 2.275-.46375.7595-.8995 1.5225-1.309 2.2925v1.134h3.38975v1.2968h1.295v-1.2968h.8575v-1.1182h-.8575v-4.5833h-1.9933Zm-1.43495 4.585v-.0367c.315-.595.6475-1.19.99925-1.7798.3552-.5915.7088-1.1655 1.0623-1.722h.07v3.5368H8.967l-.00175.0017Zm5.06275-4.585h2.8c.5058 0 .9327.105 1.281.3133.3517.2047.6212.483.805.8347.1855.3518.2765.7473.2765 1.1848 0 .4375-.0928.833-.28 1.1847-.1855.3483-.455.6248-.812.8295-.393.2117-.8348.3161-1.281.3028h-1.4052v2.3485h-1.3825v-6.9983h-.0018Zm3.605 2.9995c.1042-.2064.1554-.4356.1487-.6667 0-.3955-.1084-.7-.3237-.9118-.2152-.2135-.5145-.3185-.8977-.3185H15.407v2.4605h1.155c.2266.0063.4513-.043.6545-.1435.1778-.095.323-.2414.4165-.42Z" clip-rule="evenodd"/>
</svg>
