<svg xmlns="http://www.w3.org/2000/svg" fill="none" viewBox="0 0 24 29">
  <path fill="#2A2238" fill-rule="evenodd" d="M23.9188 25.2891 23.908 8.1606 16.0365.289045H6.41569C6.04861.289047 5.7374.283774 5.46982.279241 4.28177.259115 3.95424.253566 3.41875.789055c-.54356.543565-.5307 1.216045-.5103 2.282855.00422.22085.00877.4586.00877.7156V19.5306h1.74923V3.78751c.00001-.46392.00001-1.25688.24159-1.49847.25955-.25955.90058-.25487 1.36416-.25148.05014.00037.09821.00072.14349.00072h9.62081v4.25078c0 .10709-.0024.20508-.0045.29604-.012.50015-.0189.78761.3974 1.20396.4921.49207.8042.5 1.5.5h4.2294V25.1494c0 .4639 0 .76-.24 1-.3281.3281-.5361.3782-1 .3782h-2.2585v1.7492l2.2585.0122c.0221 0 .0443.0001.0665.0001.9049.0003 1.793.0007 2.4335-.6397.5474-.5475.5294-1.1787.5084-1.9119-.0042-.1454-.0084-.2949-.0084-.4484ZM2.27512 27.1388h3.1325v1.1323H.901367v-6.9983H5.40762v1.134h-3.1325v1.7938h2.94875v1.0605H2.27512v1.8777Zm8.10598-5.866h1.5628l-2.22953 3.5123 2.19453 3.486h-1.589l-1.48753-2.4763h-.06125l-1.49275 2.4763H5.77162l2.16825-3.528-2.14725-3.4703h1.62925l1.456 2.5183h.063l1.44023-2.5183Zm3.3565 5.866h3.1325v1.1323h-4.5097v-6.9983h4.508v1.134h-3.1325v1.7938h2.947v1.0605h-2.947v1.8777h.0017Z" clip-rule="evenodd"/>
</svg>
