<svg xmlns="http://www.w3.org/2000/svg" fill="none" viewBox="0 0 18 28">
  <path fill="#2A2238" d="M2.94737 23.5789H17.6842v1.4737c0 1.6211-1.3263 2.9474-2.9474 2.9474H5.89474c-1.62106 0-2.94737-1.3263-2.94737-2.9474v-1.4737Zm0-1.4736H17.6842v-7.3685H2.94737v7.3685ZM17.6842 0v8.84211l-4.6421-.97264c-.0147 0-.0147.01474-.0295.02948 2.2842.91368 4.0085 2.91785 4.5242 5.36425H3.09474c.50105-2.4464 2.24-4.45057 4.52421-5.36425-.48632-.38316-.88421-.85474-1.17895-1.4L0 5.15789V3.68421l6.44-1.34105C7.17684.957895 8.63579 0 10.3158 0c1.0316 0 1.9747.368421 2.7263.972632L17.6842 0Zm-5.8947 4.42105c-.0442-.86947-.6632-1.47368-1.4737-1.47368-.81054 0-1.47369.66316-1.47369 1.47368 0 .81053.66315 1.47369 1.47369 1.47369.8105 0 1.4737-.66316 1.4737-1.47369Z"/>
</svg>
