<svg xmlns="http://www.w3.org/2000/svg" fill="none" viewBox="0 0 28 28">
  <path fill="#2A2238" d="M14 0C6.272 0 0 6.272 0 14s6.272 14 14 14 14-6.272 14-14S21.728 0 14 0Zm1.4 4.62 1.89-1.33c2.548.784 4.718 2.464 6.132 4.676l-.546 1.876-1.89.644L15.4 6.58V4.62Zm-4.69-1.33 1.89 1.33v1.96l-5.586 3.906-1.89-.644-.546-1.876C5.992 5.768 8.162 4.088 10.71 3.29ZM7.112 21.154l-1.596.14C3.822 19.334 2.8 16.786 2.8 14c0-.168.014-.322.028-.49l1.4-1.022 1.932.672 2.044 6.076-1.092 1.918ZM17.5 24.626c-1.106.364-2.282.574-3.5.574s-2.394-.21-3.5-.574l-.966-2.086.896-1.54h7.154l.896 1.554-.98 2.072Zm-.322-6.426h-6.356l-1.89-5.628L14 9.016l5.082 3.556-1.904 5.628Zm5.306 3.094-1.596-.14-1.106-1.918 2.044-6.076 1.946-.658 1.4 1.022c.014.154.028.308.028.476 0 2.786-1.022 5.334-2.716 7.294Z"/>
</svg>
