<svg xmlns="http://www.w3.org/2000/svg" fill="none" viewBox="0 0 32 32">
  <path fill="#2A2238" d="m26.36 9.64.0133-.01333-4.96-4.96L20 6.08l2.8133 2.81333c-1.2533.48-2.1466 1.67997-2.1466 3.10667 0 1.84 1.4933 3.3333 3.3333 3.3333.48 0 .92-.1066 1.3333-.28v9.6134C25.3333 25.4 24.7333 26 24 26s-1.3333-.6-1.3333-1.3333v-6C22.6667 17.2 21.4667 16 20 16h-1.3333V6.66667C18.6667 5.2 17.4667 4 16 4H8C6.53333 4 5.33333 5.2 5.33333 6.66667V28H18.6667V18h2v6.6667C20.6667 26.5067 22.16 28 24 28c1.84 0 3.3333-1.4933 3.3333-3.3333V12c0-.92-.3733-1.76-.9733-2.36ZM16 14.6667v10.6666H8V6.66667h8v8.00003Zm8-1.3334c-.7333 0-1.3333-.6-1.3333-1.3333s.6-1.3333 1.3333-1.3333 1.3333.6 1.3333 1.3333-.6 1.3333-1.3333 1.3333ZM13.3333 8 8 18h2.6667v6L16 14.6667h-2.6667V8Z"/>
</svg>
