<svg xmlns="http://www.w3.org/2000/svg" fill="none" viewBox="0 0 28 28">
  <path fill="#2A2238" d="M13.9883 2.33333C7.54833 2.33333 2.33333 7.56 2.33333 14c0 6.44 5.215 11.6667 11.65497 11.6667C20.44 25.6667 25.6667 20.44 25.6667 14S20.44 2.33333 13.9883 2.33333Zm8.085 7h-3.4416c-.3734-1.45833-.91-2.85833-1.61-4.15333 2.1466.735 3.9316 2.22833 5.0516 4.15333ZM14 4.71333c.9683 1.4 1.7267 2.95167 2.2283 4.62h-4.4566c.5016-1.66833 1.26-3.22 2.2283-4.62ZM4.97 16.3333c-.18667-.7466-.30333-1.5283-.30333-2.3333 0-.805.11666-1.5867.30333-2.3333h3.94333C8.82 12.4367 8.75 13.2067 8.75 14c0 .7933.07 1.5633.16333 2.3333H4.97Zm.95667 2.3334h3.44166c.37334 1.4583.90997 2.8583 1.60997 4.1533-2.14663-.735-3.93163-2.2167-5.05163-4.1533Zm3.44166-9.33337H5.92667c1.12-1.93666 2.905-3.41833 5.05163-4.15333-.7 1.295-1.23663 2.695-1.60997 4.15333ZM14 23.2867c-.9683-1.4-1.7267-2.9517-2.2283-4.62h4.4566c-.5016 1.6683-1.26 3.22-2.2283 4.62Zm2.73-6.9534h-5.46c-.105-.77-.1867-1.54-.1867-2.3333 0-.7933.0817-1.575.1867-2.3333h5.46c.105.7583.1867 1.54.1867 2.3333 0 .7933-.0817 1.5633-.1867 2.3333Zm.2917 6.4867c.7-1.295 1.2366-2.695 1.61-4.1533h3.4416c-1.12 1.925-2.905 3.4183-5.0516 4.1533Zm2.065-6.4867c.0933-.77.1633-1.54.1633-2.3333 0-.7933-.07-1.5633-.1633-2.3333H23.03c.1867.7466.3033 1.5283.3033 2.3333 0 .805-.1166 1.5867-.3033 2.3333h-3.9433Z"/>
</svg>
