<svg xmlns="http://www.w3.org/2000/svg" fill="none" viewBox="0 0 28 28">
  <path fill="#2A2238" d="M14 28C6.26801 28 0 21.732 0 14 0 6.26801 6.26801 0 14 0c7.732 0 14 6.26801 14 14-.0085 7.7285-6.2715 13.9915-14 14Zm0-25.2C7.81441 2.8 2.8 7.81441 2.8 14c0 6.1856 5.01441 11.2 11.2 11.2 6.1856 0 11.2-5.0144 11.2-11.2C25.1931 7.81729 20.1827 2.80694 14 2.8Zm0 19.6c-2.212.0374-4.30276-1.008-5.6-2.8-.62989-.8424-1.10403-1.7907-1.4-2.8h14v.0112c-.3005 1.0041-.7743 1.9479-1.4 2.7888-1.2974 1.7918-3.3881 2.8372-5.6 2.8ZM9.1 14C7.9402 14 7 13.0598 7 11.9c0-1.1598.9402-2.1 2.1-2.1 1.1598 0 2.1.9402 2.1 2.1 0 1.1598-.9402 2.1-2.1 2.1Zm9.7902-.0196c-1.1544 0-2.0902-.9358-2.0902-2.0902 0-1.1544.9358-2.0902 2.0902-2.0902 1.1544 0 2.0902.9358 2.0902 2.0902-.0015 1.1537-.9365 2.0887-2.0902 2.0902Z"/>
</svg>
