<svg xmlns="http://www.w3.org/2000/svg" fill="none" viewBox="0 0 29 23">
  <path fill="#2A2238" d="M14.75 3.1125c-1.5187 0-2.9312.63125-3.9937 1.775-1.06255 1.14375-1.6313 2.075-1.6313 3.725 0 .48125.36875.875.825.875.4563 0 .825-.39375.825-.875 0-1.08125.4125-2.025 1.1875-2.71875.7375-.6625 1.7313-1.03125 2.7938-1.03125s2.0562.3625 2.7937 1.03125c.775.7 1.1875 1.6375 1.1875 2.71875 0 .48125.3688.875.825.875.4563 0 .825-.39375.825-.875 0-1.65-.575-2.58125-1.6312-3.725-1.075-1.15-2.4875-1.775-4.0063-1.775Z"/>
  <path fill="#2A2238" d="M27.3188 12.8062c-.925-.925-2.1438-1.4312-3.4438-1.4312h-.5c-.1375 0-.25-.1125-.25-.25V8.7625c0-2.23125-.875-4.33125-2.4625-5.91875C19.0813 1.25 16.9813.375 14.75.375c-2.2312 0-4.3313.875-5.9125 2.4625C7.25 4.425 6.375 6.525 6.375 8.75625V11.125c0 .1375-.1125.25-.25.25h-.5c-1.3 0-2.51875.5062-3.44375 1.4312C1.25625 13.7312.75 14.95.75 16.25v.7375c0 1.3.50625 2.525 1.43125 3.45.925.925 2.15 1.4375 3.44375 1.4375h.35c.25 0 .5.0875.68125.2563.15625.1437.36875.2375.59375.2375.48125 0 .875-.3938.875-.8813V8.75625c0-1.7625.69375-3.425 1.95-4.68125 1.2563-1.25625 2.9188-1.95 4.675-1.95 1.7625 0 3.425.69375 4.675 1.95 1.2562 1.25625 1.95 2.91875 1.95 4.68125V21.4938c0 .4875.3938.8812.875.8812.225 0 .4375-.0937.5938-.2375.1812-.1687.4312-.2562.6812-.2562h.35c1.2938 0 2.5188-.5125 3.4438-1.4375.925-.925 1.4312-2.15 1.4312-3.45V16.25c0-1.3-.5062-2.5188-1.4312-3.4438Z"/>
</svg>
