<svg xmlns="http://www.w3.org/2000/svg" fill="none" viewBox="0 0 24 22">
  <path fill="#2A2238" d="M17.1188.5C15.1281.5 13.2523 1.41328 12 2.90078 10.7477 1.41328 8.87187.5 6.88125.5 3.35391.5.625 3.24531.625 6.79453c0 4.34767 3.86641 7.83667 9.7234 13.21797L12 21.5l1.6516-1.4875c5.857-5.3813 9.7234-8.8703 9.7234-13.21797C23.375 3.24531 20.6461.5 17.1188.5ZM12.7 18.5086l-.2297.2133-.4703.4265-.4703-.4265-.2297-.2133c-2.75625-2.532-5.14062-4.7195-6.71016-6.6719-1.53125-1.89764-2.20937-3.45076-2.20937-5.04217 0-1.25234.45937-2.40078 1.29609-3.24297C4.50781 2.70938 5.64531 2.25 6.88125 2.25c1.42734 0 2.84375.66719 3.77895 1.77734L12 5.61875l1.3398-1.59141C14.275 2.91172 15.6914 2.25 17.1188 2.25c1.2359 0 2.3734.45938 3.2101 1.30156.8367.84219 1.2961 1.9961 1.2961 3.24297 0 1.58594-.6836 3.14453-2.2094 5.04217-1.575 1.9524-3.9539 4.1399-6.7156 6.6719Z"/>
</svg>
