<svg xmlns="http://www.w3.org/2000/svg" fill="none" viewBox="0 0 29 29">
  <path fill="#2A2238" d="M13.4572 8.71899c0-.76731.626-1.33942 1.3798-1.33942.7673 0 1.3933.57211 1.3933 1.33942s-.626 1.34611-1.3933 1.34611c-.7538 0-1.3798-.5788-1.3798-1.34611Zm.0942 2.40291h2.5712v9.699c-.984.6462-1.544.7248-2.5712 0v-9.699Z"/>
  <path fill="#2A2238" d="M14.8438 2.24399c3.2375 0 6.2798 1.25865 8.5682 3.54712 2.2885 2.28846 3.5471 5.33079 3.5471 8.56829 0 3.2375-1.2586 6.2798-3.5471 8.5682-2.2884 2.2885-5.3307 3.5472-8.5682 3.5472-3.2375 0-6.27986-1.2587-8.56832-3.5472-2.28846-2.2884-3.54711-5.3307-3.54711-8.5682 0-3.2375 1.25865-6.27983 3.54711-8.56829 2.28846-2.28847 5.33082-3.54712 8.56832-3.54712Zm0-1.884615C7.1101.359375.84375 6.62572.84375 14.3594c0 7.7336 6.26635 14 14.00005 14 7.7336 0 14-6.2664 14-14 0-7.73368-6.2664-14.000025-14-14.000025Z"/>
</svg>
