<svg xmlns="http://www.w3.org/2000/svg" fill="none" viewBox="0 0 28 28">
  <path fill="#2A2238" d="M14 5.95v4.725l8.6333 8.6333c1.3417-3.36.6884-7.3266-2.0416-10.04497L14 2.64833 9.98667 6.66167l1.64503 1.645L14 5.95Zm-8.86667-.85167-1.645 1.645 3.24334 3.24334C3.76833 13.65 3.99 19.0283 7.39667 22.4467c1.82 1.82 4.21163 2.73 6.60333 2.73 2.0767 0 4.1533-.6884 5.8567-2.065l3.15 3.15 1.645-1.645L5.13333 5.09833ZM14 22.855c-1.8667 0-3.6283-.7233-4.94667-2.0533C7.72333 19.4717 7 17.7217 7 15.855c0-1.54.50167-2.9867 1.41167-4.1883L14 17.255v5.6Z"/>
</svg>
