<svg xmlns="http://www.w3.org/2000/svg" fill="none" viewBox="0 0 28 28">
  <path fill="#2A2238" d="M21.2962 17.049c.5048-.5048.5048-1.3327 0-1.8375l-6.4414-6.42112c-.4913-.49135-1.2856-.50481-1.7904-.04038l-6.34709 6.3269c-.25577.2558-.38365.5856-.38365.9221 0 .3298.12788.6664.37692.9154.50481.5048 1.32596.5116 1.8375 0L14 11.5433l5.4587 5.5125c.5048.5048 1.3259.5048 1.8375-.0068Z"/>
  <path fill="#2A2238" d="M28 14c0-7.73365-6.2663-14-14-14C6.26634 0-.00000143 6.26635-.00000143 14-.00000143 21.7337 6.26634 28 14 28c7.7337 0 14-6.2663 14-14ZM5.62692 22.3731C3.38558 20.1385 2.15384 17.1635 2.15384 14c0-3.1635 1.23174-6.13846 3.47308-8.37308C7.86154 3.38558 10.8365 2.15385 14 2.15385s6.1385 1.23173 8.3731 3.47307C24.6144 7.86154 25.8462 10.8365 25.8462 14s-1.2318 6.1385-3.4731 8.3731c-2.2346 2.2413-5.2096 3.4731-8.3731 3.4731-3.1635 0-6.13846-1.2318-8.37308-3.4731Z"/>
</svg>
