<svg xmlns="http://www.w3.org/2000/svg" fill="none" viewBox="0 0 28 28">
  <path fill="#2A2238" d="M17.049 6.70384c-.5048-.5048-1.3327-.5048-1.8375 0L8.79038 13.1452c-.49135.4913-.50481 1.2856-.04038 1.7904l6.3269 6.3471c.2558.2558.5856.3836.9221.3836.3298 0 .6664-.1278.9154-.3769.5048-.5048.5116-1.3259 0-1.8375L11.5433 14l5.5125-5.45866c.5048-.5048.5048-1.32596-.0068-1.8375Z"/>
  <path fill="#2A2238" d="M14 0C6.26635 0 0 6.26635 0 14c0 7.7337 6.26635 14 14 14 7.7337 0 14-6.2663 14-14 0-7.73365-6.2663-14-14-14Zm8.3731 22.3731c-2.2346 2.2413-5.2096 3.4731-8.3731 3.4731-3.1635 0-6.13846-1.2318-8.37308-3.4731C3.38558 20.1385 2.15385 17.1635 2.15385 14c0-3.1635 1.23173-6.13846 3.47307-8.37308C7.86154 3.38558 10.8365 2.15385 14 2.15385s6.1385 1.23173 8.3731 3.47307C24.6144 7.86154 25.8462 10.8365 25.8462 14s-1.2318 6.1385-3.4731 8.3731Z"/>
</svg>
