<svg xmlns="http://www.w3.org/2000/svg" fill="none" viewBox="0 0 19 28">
  <path fill="#2A2238" fill-rule="evenodd" d="M4.91535 3.11111H9.3313c.06416 0 .11172.05956.09752.12213L4.51535 24.8889H.797705c-.220913 0-.4.1791-.4.4V27.6c0 .2209.179086.4.4.4H13.9977c.2209 0 .4-.1791.4-.4v-2.3111c0-.2209-.1791-.4-.4-.4H9.58176c-.06416 0-.11172-.0596-.09752-.1221L14.3977 3.11111h3.7177c.2209 0 .4-.17909.4-.4V.4c0-.220915-.1791-.4-.4-.4H4.91535c-.22091 0-.4.179086-.4.4v2.31111c0 .22092.17909.4.4.4Z" clip-rule="evenodd"/>
</svg>
