<svg xmlns="http://www.w3.org/2000/svg" fill="none" viewBox="0 0 24 24">
  <path fill="#2A2238" d="M21 21H3V3h18v18ZM9.1 17.232l-1.368.844c.2132.4679.55875.8632.994 1.137.47284.271 1.0101.4092 1.555.4.2858-.002.5705-.0355.849-.1.5826-.1433 1.0765-.5281 1.358-1.058.2805-.66.3839-1.3818.3-2.094v-.415c.005-1.027 0-2.072 0-3.084v-1.593H11.1v4.897c.0502.4991.014 1.0032-.107 1.49-.1453.2804-.4442.4466-.759.422-.141-.0004-.28119-.0216-.416-.063-.27083-.1416-.48916-.3662-.623-.641l-.033-.056c-.031-.053-.052-.09-.062-.09v.004Zm5.949-.2-1.373.787c.1124.246.2675.4701.458.662.047.052.1.108.149.17.6714.6004 1.5488.9182 2.449.887 1.1649.1148 2.2655-.5541 2.7-1.641v-.008c.1138-.3995.132-.8202.053-1.228l.034.049c-.148-.929-.821-1.574-2.252-2.155-.111-.052-.226-.1-.338-.15-.445-.192-.865-.372-1.011-.7-.0651-.1687-.0769-.3533-.034-.529.1035-.3519.4431-.5801.808-.543.1114 0 .2222.0162.329.048.3291.1109.5953.3568.732.676.775-.507.775-.507 1.316-.844-.1238-.2113-.271-.4078-.439-.586-.5133-.5503-1.2499-.8361-2-.776h-.12l-.528.067c-.4959.1113-.9445.3749-1.283.754-.3979.4976-.5771 1.1353-.4967 1.7674.0805.6321.4138 1.2045.9237 1.5866.438.2998.9104.5458 1.407.733.641.27 1.194.5 1.306.921.0678.2438.0178.5053-.135.707-.2715.2681-.647.4033-1.027.37-.1046-.0003-.2092-.007-.313-.02-.5655-.1267-1.047-.4952-1.317-1.008l.002.003Z"/>
</svg>
