<svg xmlns="http://www.w3.org/2000/svg" fill="none" viewBox="0 0 30 30">
  <path fill="#2A2238" fill-rule="evenodd" d="M0 1c0-.552285.447715-1 1-1h28c.5523 0 1 .447715 1 1 0 .55228-.4477 1-1 1H1c-.552285 0-1-.44772-1-1Zm15.3865 6.7304c-.1056-.39591-.6674-.39592-.773 0L12.1016 17.15h5.7968l-2.5119-9.4196ZM18.4317 19.15l1.2021 4.5077c.1423.5336.6902.8508 1.2239.7085.5336-.1423.8508-.6902.7085-1.2239L17.319 7.21507c-.6335-2.37548-4.0045-2.37548-4.638 0L8.43377 23.1423c-.14231.5337.17493 1.0816.70857 1.2239.53363.1423 1.08156-.1749 1.22386-.7085l1.2021-4.5077h6.8634ZM0 29c0-.5523.447715-1 1-1h28c.5523 0 1 .4477 1 1s-.4477 1-1 1H1c-.552285 0-1-.4477-1-1Z" clip-rule="evenodd"/>
</svg>
