<svg xmlns="http://www.w3.org/2000/svg" fill="none" viewBox="0 0 24 24">
  <path fill="#2A2238" d="M10.396 22c-.3223-.0001-.63882-.085-.91798-.246l-4.52-2.61c-.56645-.3284-.91567-.9332-.917-1.588v-5.22c.00098-.6551.35024-1.2603.917-1.589l1.373-.79299V11.664c.00154.9827.52567 1.8904 1.376 2.383l4.52098 2.61c.8513.4922 1.9007.4922 2.752 0l1.772-1.022v1.921c-.001.6552-.3502 1.2604-.917 1.589l-4.521 2.61c-.2792.1607-.5958.2452-.918.245Zm3.207-5.891c-.3219 0-.6382-.085-.917-.246l-4.52098-2.61c-.56715-.3284-.91682-.9336-.918-1.589V6.44402c.00098-.65541.3507-1.26077.918-1.58901l4.52098-2.609c.5675-.32761 1.2666-.32761 1.834 0l4.521 2.61c.5669.3285.9162.9338.917 1.589V11.665c-.0008.6552-.3501 1.2605-.917 1.589l-4.521 2.61c-.2789.1605-.5951.245-.917.245Z"/>
</svg>
