<svg xmlns="http://www.w3.org/2000/svg" fill="none" viewBox="0 0 25 18">
  <path fill="#2A2238" d="M5 1h18c2 .5 2 3.5 0 4H5V1Zm0 6h18c2 .5 2 3.5 0 4H5V7Zm0 6h18c2 .5 2 3.5 0 4H5v-4ZM3.11377 1.44287V5h-.76416V2.31201l-.8252.25147v-.59082l1.51368-.52979h.07568Zm.68848 8.96383V11H1.34619v-.5029l1.14746-1.21585c.10742-.1237.19287-.23275.25635-.32715.0651-.0944.1123-.17985.1416-.25635.0293-.07812.04395-.14974.04395-.21484 0-.10579-.01709-.19531-.05127-.26855-.03255-.07325-.08057-.1294-.14405-.16846-.06347-.03906-.14078-.0586-.23193-.0586-.09766 0-.18148.02523-.25146.07569-.06999.05045-.1237.12044-.16114.20996-.03743.08789-.05615.18799-.05615.30029h-.7666c0-.21647.05208-.41341.15625-.59082.10417-.17903.24984-.32145.43701-.42724.18718-.10743.40609-.16114.65674-.16114.25716 0 .47282.04069.64697.12207.17416.08138.30599.19776.39551.34912.08952.15137.13428.33366.13428.54688 0 .12044-.01953.23682-.0586.34912-.03743.11231-.09196.2238-.16357.33447-.07162.11068-.15788.2238-.25879.33936-.10091.11393-.21484.23437-.3418.36133l-.53711.61031h1.46241Zm-1.7212 4.4912h.38819c.11068 0 .20182-.0195.27344-.0585.07324-.0391.12695-.0944.16113-.1661.03581-.0716.05371-.1554.05371-.2514 0-.083-.01628-.1571-.04883-.2222-.03255-.0651-.08219-.1164-.14892-.1538-.06511-.0391-.14974-.0586-.25391-.0586-.07487 0-.14648.0155-.21484.0464-.06674.0293-.12126.0724-.16358.1294-.04232.0553-.06348.1221-.06348.2002H1.2998c0-.1986.05372-.3703.16114-.5152.10905-.1448.25309-.2563.43213-.3344.18066-.0798.3776-.1197.59082-.1197.24576 0 .46142.0391.64697.1172.18717.0765.33203.1905.43457.3418.10417.1498.15625.3353.15625.5567 0 .1155-.02767.227-.08301.3344-.05371.1058-.13102.2002-.23193.2832-.09929.0814-.2181.1465-.35645.1954-.13672.0472-.2889.0708-.45654.0708h-.5127v-.3956Zm0 .5738v-.3882h.5127c.18555 0 .35156.0212.49805.0635.14648.0423.27099.1033.37353.1831.10254.0797.18067.1766.23438.2905.05371.1139.08056.2409.08056.3809 0 .166-.03255.3141-.09765.4443-.06511.1302-.15625.2401-.27344.3296-.11719.0895-.25472.1579-.4126.2051-.15788.0455-.32877.0683-.51269.0683-.14812 0-.29541-.0203-.4419-.061-.14648-.0407-.27913-.1025-.39795-.1856-.11881-.0846-.21403-.1912-.28564-.3198-.07162-.1302-.10742-.2848-.10742-.4638h.76416c0 .083.02116.1578.06347.2246.04395.0651.10336.1172.17823.1562.07649.0374.1595.0562.24902.0562.10742 0 .19857-.0196.27344-.0586.07649-.0407.13427-.0961.17334-.166.04069-.07.06103-.1506.06103-.2417 0-.1237-.02197-.223-.06592-.2979-.04231-.0765-.10416-.1318-.18554-.166-.08138-.0358-.17904-.0537-.29297-.0537h-.38819Z"/>
</svg>
