<svg xmlns="http://www.w3.org/2000/svg" fill="none" viewBox="0 0 29 34">
  <circle cx="17.9282" cy="10.9282" r="7.5" stroke="#2A2238" transform="rotate(30 17.9282 10.9282)"/>
  <path fill="#2A2238" fill-rule="evenodd" d="M14.9282 16.1244c2.8698 1.6568 6.5393.6736 8.1962-2.1962 1.6568-2.8697.6736-6.53929-2.1962-8.19614-2.8697-1.65686-6.5393-.67361-8.1961 2.19615-1.6569 2.86979-.6736 6.53929 2.1961 8.19619Zm2.0941-8.57693c.8967-.24025 1.852-.11448 2.6559.34965l.5-.86603c-1.0336-.59673-2.2619-.75844-3.4147-.44955-1.1528.3089-2.1357 1.06309-2.7324 2.09667l.866.5c.4641-.8039 1.2286-1.39049 2.1252-1.63074Z" clip-rule="evenodd"/>
  <path fill="#2A2238" d="m14.5621 14.7583 1.7320508 1-4 6.92820323-1.7320508-1z"/>
  <rect width="4" height="10" x="10.1962" y="20.3205" fill="#2A2238" rx="1.5" transform="rotate(30 10.1962 20.3205)"/>
</svg>
