<svg xmlns="http://www.w3.org/2000/svg" fill="none" viewBox="0 0 28 25">
  <path fill="#2A2238" d="M22.75 2.62502c0-.69619.2766-1.36387.7688-1.856152.4923-.492283 1.16-.76884463 1.8562-.76884463.6962 0 1.3639.27656163 1.8562.76884463C27.7234 1.26115 28 1.92883 28 2.62502V21.875c0 .6962-.2766 1.3639-.7688 1.8562-.4923.4923-1.16.7688-1.8562.7688-.6962 0-1.3639-.2765-1.8562-.7688-.4922-.4923-.7688-1.16-.7688-1.8562V2.62502ZM21 3.89202c-3.6172 1.6625-7.9433 2.59175-12.25 2.898V17.7048c.63567.0358 1.2705.0854 1.904.1487 3.5927.357 7.0665 1.169 10.346 2.73V3.89202ZM7 17.6138V6.88452c-1.19.04725-2.44825.07525-3.514.09275-.92691.01285-1.81168.38927-2.46371 1.04818C.370247 8.68436.00312337 9.57303 0 10.5V14c0 1.9355 1.568 3.493 3.4895 3.5158.28935.0036.57868.0083.868.014.88113.0176 1.76203.0456 2.6425.084Zm2.4325 1.8917c.49875.0368.9957.0823 1.4875.1365l.4428 2.9575c.0481.2531.0398.5137-.0244.7632-.0641.2496-.1826.4818-.347.6803-.1643.1984-.3704.3581-.6036.4677-.2332.1095-.48766.1662-.7453.1661h-.959c-.34016-.0001-.67294-.0992-.95764-.2854-.28469-.1862-.50896-.4513-.64536-.7629l-2.2995-4.34c.98744.0247 1.97452.062 2.961.112.57225.0298 1.1375.0648 1.6905.105Z"/>
</svg>
