<svg xmlns="http://www.w3.org/2000/svg" fill="none" viewBox="0 0 28 27">
  <path fill="#2A2238" d="M24.5 1.75c.4641 0 .9092.18437 1.2374.51256.3282.32819.5126.77331.5126 1.23744v14c0 .4641-.1844.9092-.5126 1.2374-.3282.3282-.7733.5126-1.2374.5126H7.7245c-.92818.0002-1.81828.3691-2.4745 1.0255l-3.5 3.5V3.5c0-.46413.18437-.90925.51256-1.23744C2.59075 1.93437 3.03587 1.75 3.5 1.75h21ZM3.5 0c-.92826 0-1.8185.368749-2.47487 1.02513C.368749 1.6815 0 2.57174 0 3.5v22.3878c.00003678.1731.051437.3423.147695.4862.096258.1439.233047.2561.393054.3222.160006.0661.336038.0833.505811.0494.16978-.034.32567-.1175.44794-.2401l4.99275-4.9927c.32811-.3283.77316-.5127 1.23725-.5128H24.5c.9283 0 1.8185-.3688 2.4749-1.0251C27.6312 19.3185 28 18.4283 28 17.5v-14c0-.92826-.3688-1.8185-1.0251-2.47487C26.3185.368749 25.4283 0 24.5 0h-21Z"/>
  <path fill="#2A2238" d="M5.25 6.125c0-.23206.09219-.45462.25628-.61872.1641-.16409.38666-.25628.61872-.25628h15.75c.2321 0 .4546.09219.6187.25628.1641.1641.2563.38666.2563.61872 0 .23206-.0922.45462-.2563.61872C22.3296 6.90781 22.1071 7 21.875 7H6.125c-.23206 0-.45462-.09219-.61872-.25628C5.34219 6.57962 5.25 6.35706 5.25 6.125Zm0 4.375c0-.2321.09219-.4546.25628-.61872.1641-.16409.38666-.25628.61872-.25628h15.75c.2321 0 .4546.09219.6187.25628.1641.16412.2563.38662.2563.61872 0 .2321-.0922.4546-.2563.6187-.1641.1641-.3866.2563-.6187.2563H6.125c-.23206 0-.45462-.0922-.61872-.2563-.16409-.1641-.25628-.3866-.25628-.6187Zm0 4.375c0-.2321.09219-.4546.25628-.6187.1641-.1641.38666-.2563.61872-.2563h8.75c.2321 0 .4546.0922.6187.2563.1641.1641.2563.3866.2563.6187 0 .2321-.0922.4546-.2563.6187-.1641.1641-.3866.2563-.6187.2563h-8.75c-.23206 0-.45462-.0922-.61872-.2563-.16409-.1641-.25628-.3866-.25628-.6187Z"/>
</svg>
