<svg xmlns="http://www.w3.org/2000/svg" fill="none" viewBox="0 0 32 32">
  <path fill="#2A2238" d="M14.4 6.53333c0-.88.72-1.6 1.6-1.6.88 0 1.6.72 1.6 1.6l-.0133 5.21337L20 14.1333V6.66667c0-2.21334-1.7867-4-4-4-2.0533 0-3.72 1.54666-3.9467 3.53333L14.4 8.54667V6.53333Zm10.9333 8.13337h-2.2666c0 .7733-.1334 1.5066-.36 2.1866L24.4 18.5467c.5867-1.1734.9333-2.4934.9333-3.88ZM5.88 3.81333 4 5.69333l8 7.99997v.9734c0 2.2133 1.7867 4 4 4 .3067 0 .5867-.04.8667-.1067l2.2133 2.2133c-.9467.44-2 .6934-3.08.6934-3.68 0-7.06667-2.8-7.06667-6.8H6.66667c0 4.5466 3.62663 8.3066 8.00003 8.96V28h2.6666v-4.3733c1.2134-.1734 2.36-.6 3.4-1.2l5.6 5.6 1.88-1.88L5.88 3.81333Z"/>
</svg>
