<svg xmlns="http://www.w3.org/2000/svg" fill="none" viewBox="0 0 28 28">
  <path fill="#2A2238" d="M20.1164 15.7672V5.25575C20.1164 2.94322 23.0596 0 26.6861 0v21.2464l-2.6279-2.6279v-2.8513h-3.9418ZM26.016 28 12.259 14.2562c-.4336.1183-.8672.1971-1.3402.1971v11.8254H8.29094V14.4533c-2.9038 0-5.25575-2.3519-5.25575-5.25574V5.03238L0 1.98405 1.85265.131394 27.8686 26.1474 26.016 28ZM7.20038 9.19756 5.66307 7.66025v1.53731h1.53731ZM10.9188 0H8.29094v2.85124l2.62786 2.62788V0Zm5.2558 9.19756V0h-2.6279v8.10699l2.4308 2.43081c.1182-.4336.1971-.86722.1971-1.34024Z"/>
</svg>
