<svg xmlns="http://www.w3.org/2000/svg" fill="none" viewBox="0 0 30 31">
  <path fill="#2A2238" d="M18.35 25.773h.75v-.75h-.75v.75Zm-6.9996 0v-.75h-.75v.75h.75Zm5.2409-22.5755-.7462-.0749-.0679.67577.6658.13432.1483-.73519Zm-3.4823 0 .1495.73495.6645-.13515-.0677-.6747-.7463.0749Zm-7.00836 8.5763-.75-.0001v.0001h.75ZM2.60083 24.0231l-.41603-.624-2.061052 1.374H2.60083v-.75Zm24.49867 0v.75h2.4771l-2.0611-1.374-.416.624ZM9.565 3.36193c.32536-.25635.38129-.72792.12494-1.05327-.25636-.32536-.72792-.38129-1.05328-.12494L9.565 3.36193ZM3.37947 10.0676c-.11337.3984.11769.8132.51609.9266.3984.1134.81327-.1177.92663-.5161l-1.44272-.4105ZM21.065 1.68372c-.3254-.25635-.7969-.20042-1.0533.12494-.2563.32535-.2004.79692.125 1.05327l.9283-1.17821Zm3.8145 8.29438c.1133.3984.5282.6295.9266.5161.3984-.1134.6295-.52825.5161-.92664l-1.4427.41054ZM14.8502 30.0228c1.1271 0 2.208-.4477 3.005-1.2447l-1.0606-1.0607c-.5157.5157-1.2151.8054-1.9444.8054v1.5Zm3.005-1.2447c.797-.797 1.2448-1.878 1.2448-3.0051h-1.5c0 .7293-.2897 1.4287-.8054 1.9444l1.0606 1.0607Zm.4948-3.7551h-6.9996v1.5H18.35v-1.5Zm-7.7496.75c0 1.1271.4477 2.2081 1.2447 3.0051l1.0607-1.0607c-.5157-.5157-.8054-1.2151-.8054-1.9444h-1.5Zm1.2447 3.0051c.797.797 1.8779 1.2447 3.0051 1.2447v-1.5c-.7293 0-1.4288-.2897-1.9444-.8054l-1.0607 1.0607Zm5.4925-25.50569c.0349-.3476-.0035-.69866-.1126-1.03053l-1.425.46853c.0437.13274.059.27315.0451.41219l1.4925.14981Zm-.1126-1.03053c-.1091-.33187-.2866-.63718-.521-.89625l-1.1123 1.0063c.0937.10362.1647.22574.2083.35848l1.425-.46853Zm-.521-.89625c-.2343-.25907-.5204-.466143-.8397-.607862L15.2558 2.1088c.1277.05668.2421.13951.3359.24313l1.1123-1.0063Zm-.8397-.607862c-.3193-.14172-.6648-.214941-1.0141-.214941V2.02283c.1397 0 .2779.02928.4056.08597l.6085-1.371032ZM14.8502.522827c-.3494 0-.6949.073221-1.0142.214941l.6085 1.371032c.1277-.05669.2659-.08597.4057-.08597V.522827ZM13.836.737768c-.3193.141719-.6053.348792-.8397.607862l1.1124 1.0063c.0937-.10362.2081-.18645.3358-.24313L13.836.737768Zm-.8397.607862c-.2344.25907-.4118.56438-.521.89625l1.425.46853c.0436-.13274.1146-.25486.2084-.35848l-1.1124-1.0063Zm-.521.89625c-.1091.33187-.1474.68293-.1125 1.03053l1.4925-.14981c-.014-.13903.0013-.27945.045-.41219l-1.425-.46853Zm.4842.22067c-2.1473.43678-4.07777 1.60226-5.46438 3.29908l1.1615.94916c1.16775-1.42899 2.79348-2.4105 4.60188-2.77834l-.299-1.4699ZM7.49512 5.76163C6.1085 7.45846 5.35092 9.58236 5.35064 11.7737l1.5.0002c.00023-1.84546.63824-3.63411 1.80598-5.06311l-1.1615-.94916ZM5.35064 11.7738c0 .9014-.21172 3.4742-.74957 6.0348-.26839 1.2777-.61218 2.5236-1.03811 3.5435-.4375 1.0476-.91349 1.7372-1.37816 2.047l.83206 1.2481c.84776-.5652 1.46546-1.6041 1.93025-2.7171.47637-1.1407.84347-2.4875 1.12193-3.8132.55584-2.6462.7816-5.3232.7816-6.3431h-1.5ZM2.60083 24.7731H27.0995v-1.5H2.60083v1.5Zm24.91467-1.374c-.4647-.3098-.9406-.9994-1.3781-2.047-.426-1.0199-.7698-2.2658-1.0382-3.5435-.5378-2.5606-.7495-5.1334-.7495-6.0348h-1.5c0 1.0199.2257 3.6969.7816 6.3431.2784 1.3257.6455 2.6725 1.1219 3.8132.4648 1.113 1.0825 2.1519 1.9303 2.7171l.832-1.2481Zm-3.1658-11.6253c0-4.59858-3.2682-8.43551-7.6101-9.31148l-.2966 1.47037c3.6552.73744 6.4067 3.97012 6.4067 7.84111h1.5ZM8.63666 2.18372C6.84438 3.5959 5.763 4.65797 5.01146 5.85579c-.74752 1.19143-1.13629 2.46979-1.63199 4.21181l1.44272.4105c.50216-1.76467.84238-2.84089 1.45989-3.8251.61349-.9778 1.53318-1.91241 3.28292-3.29107l-.92834-1.17821Zm11.50004.67821c1.7497 1.37866 2.6694 2.31327 3.2829 3.29107.6175.98421.9577 2.06043 1.4599 3.8251l1.4427-.41054c-.4957-1.74198-.8845-3.02034-1.632-4.21177-.7515-1.19782-1.8329-2.25989-3.6252-3.67207l-.9283 1.17821Z"/>
</svg>
