<svg xmlns="http://www.w3.org/2000/svg" fill="none" viewBox="0 0 24 24">
  <path fill="#2A2238" d="M11.3976 21.009H8.87357c-.12825.0073-.25191-.0488-.331-.15-.08017-.1027-.11289-.2347-.09-.363.04-.241.09-.559.153-.963.035-.222.073-.463.114-.727.125-.8.21-1.337.267-1.688.02267-.1406.04966-.3073.081-.5v-.02c.05133-.3193.114-.7073.188-1.164l.1-.619v-.005c.072-.4446.12867-.7983.17-1.061.00459-.108.05381-.2092.13589-.2796.08209-.0703.18968-.1034.29711-.0914h1.52003c.7292.0079 1.4571-.0632 2.171-.212 1.0748-.2145 2.0719-.7151 2.886-1.449.7133-.6852 1.2487-1.5341 1.56-2.47298.1519-.43617.2696-.88353.352-1.338.007-.042.015-.066.025-.074.0059-.00771.0152-.01216.025-.012h.01c.0219.00922.0427.02096.062.035.5247.39746.8757.98208.98 1.632.1183.67988.1047 1.37618-.04 2.05098-.1894 1.3059-.8499 2.4974-1.857 3.35-1.1126.793-2.4606 1.1863-3.825 1.116h-.439c-.1634-.0013-.3216.0578-.444.166-.127.1102-.2115.2612-.239.427l-.041.194-.553 3.478-.021.151c-.0286.1676-.1167.3192-.248.427-.1237.1064-.2819.164-.445.162Zm-3.57803-2h-2.965c-.14149.003-.27688-.0575-.369-.165-.09602-.1055-.1384-.2492-.115-.39l2.331-14.78998c.02931-.18975.12802-.36187.277-.483.14389-.12408.328-.19161.518-.19003h6.01403c.3297.01302.6574.05688.979.13103.3832.07253.7591.17963 1.123.32.6623.2342 1.2366.6664 1.645 1.238.3872.58347.5855 1.27196.568 1.972-.017.81186-.1729 1.61481-.461 2.374-.4593 1.47468-1.5859 2.64718-3.041 3.16498-.8168.2766-1.6727.4201-2.535.425-.01.006-.44.007-.9.007l-.90003-.007c-.59369-.0606-1.12451.3705-1.187.964-.013.054-.317 1.947-.855 5.329.00002.0321-.01434.0625-.03914.0828-.0248.0204-.05741.0285-.08886.0222l.001-.005Z"/>
</svg>
