<svg xmlns="http://www.w3.org/2000/svg" fill="none" viewBox="0 0 28 21">
  <path stroke="#2A2238" stroke-width="1.5" d="M12.2557 20.25h-.0004c-.0039-.0001-.0132-.0005-.0271-.0015-.0279-.002-.0726-.0064-.1283-.0156-.115-.0192-.2568-.0561-.3895-.1225-.1298-.0649-.2367-.1504-.3129-.2647-.0731-.1096-.1475-.2894-.1475-.5957 0-.6955.3732-2.2725 1.5694-3.6682C13.985 14.222 15.962 13 19.25 13c3.3413 0 5.3114 1.0088 6.4517 2.2305 1.1548 1.2373 1.5483 2.7889 1.5483 4.0195v.9509c0 .0265-.0213.0491-.05.0491H12.2557ZM22.432 8.43198C21.5881 9.27589 20.4435 9.75 19.25 9.75s-2.3381-.47411-3.182-1.31802C15.2241 7.58807 14.75 6.44347 14.75 5.25c0-1.19347.4741-2.33807 1.318-3.18198C16.9119 1.22411 18.0565.75 19.25.75s2.3381.47411 3.182 1.31802c.8439.84391 1.318 1.98851 1.318 3.18198 0 1.19347-.4741 2.33807-1.318 3.18198ZM8.75 13v.0001L8.75872 13c.60818-.0071 1.21487.0396 1.81308.1391C8.90811 14.8684 8.00182 17.0669 8 19.2435c-.00556.339.02585.6764.09299 1.0065H.8c-.02872 0-.05-.0226-.05-.0491V19.25c0-1.4508.4015-2.9889 1.53872-4.163C3.419 13.9201 5.38552 13 8.75 13Zm1.6883-4.31174C9.75844 9.36808 8.83641 9.75 7.875 9.75c-.96141 0-1.88344-.38192-2.56326-1.06174C4.63192 8.00844 4.25 7.08641 4.25 6.125c0-.96141.38192-1.88344 1.06174-2.56326C5.99156 2.88192 6.91359 2.5 7.875 2.5c.96141 0 1.88344.38192 2.5633 1.06174C11.1181 4.24156 11.5 5.16359 11.5 6.125c0 .96141-.3819 1.88344-1.0617 2.56326Z"/>
</svg>
