<svg xmlns="http://www.w3.org/2000/svg" fill="none" viewBox="0 0 32 32">
  <path fill="#2A2238" d="M23.28 6.66667c-.08 1.18666-.28 2.34666-.6 3.45333l1.6 1.6c.5467-1.6.8933-3.29333 1.0133-5.05333H23.28ZM10.1333 22.6933c-1.1333.32-2.2933.52-3.46663.6V25.28c1.76-.12 3.45333-.4667 5.06663-1l-1.6-1.5867ZM22 4h4.6667C27.4 4 28 4.6 28 5.33333 28 17.8533 17.8533 28 5.33333 28 4.6 28 4 27.4 4 26.6667v-4.6534c0-.7333.6-1.3333 1.33333-1.3333 1.65334 0 3.26667-.2667 4.75997-.76.1334-.0533.28-.0667.4134-.0667.3466 0 .68.1334.9466.3867l2.9334 2.9333c3.7733-1.9333 6.8666-5.0133 8.7866-8.7866L20.24 11.4533c-.3733-.3733-.48-.8933-.3333-1.36.4933-1.4933.76-3.0933.76-4.75997C20.6667 4.6 21.2667 4 22 4Z"/>
</svg>
