<svg xmlns="http://www.w3.org/2000/svg" fill="none" viewBox="0 0 32 32">
  <path fill="#2A2238" d="M30.6667 20H28v2.6667h2.6667V20Zm0-5.3333H28v2.6666h2.6667v-2.6666Zm0 10.6666H28V28c1.3333 0 2.6667-1.3333 2.6667-2.6667ZM20 4h-2.6667v2.66667H20V4Zm10.6667 5.33333H28V12h2.6667V9.33333ZM28 4v2.66667h2.6667C30.6667 5.33333 29.3333 4 28 4ZM4 28h10.6667v-8H1.33333v5.3333C1.33333 26.8 2.53333 28 4 28ZM4 9.33333H1.33333V12H4V9.33333ZM20 25.3333h-2.6667V28H20v-2.6667ZM25.3333 4h-2.6666v2.66667h2.6666V4Zm0 21.3333h-2.6666V28h2.6666v-2.6667ZM4 4C2.66667 4 1.33333 5.33333 1.33333 6.66667H4V4Zm0 10.6667H1.33333v2.6666H4v-2.6666ZM14.6667 4H12v2.66667h2.6667V4ZM9.33333 4H6.66667v2.66667h2.66666V4Z"/>
</svg>
