<svg xmlns="http://www.w3.org/2000/svg" fill="none" viewBox="0 0 21 29">
  <path fill="#2A2238" fill-rule="evenodd" d="M.25 3.87369C.25.854416 3.72975-.836864 6.10385 1.02851L19.2615 11.3667c.8731.686 1.3829 1.7348 1.3829 2.8451v.0735c0 1.1104-.5098 2.1592-1.3829 2.8452L6.10385 27.4687C3.72974 29.3341.25 27.6428.25 24.6235V3.87369Zm4.63449-1.29327c-1.07914-.84789-2.66084-.07913-2.66084 1.29327V24.6235c0 1.3724 1.5817 2.1412 2.66084 1.2933L18.0422 15.5786c.3968-.3118.6285-.7886.6285-1.2933v-.0735c0-.5046-.2317-.9814-.6285-1.2932L4.88449 2.58042Z" clip-rule="evenodd"/>
</svg>
