<svg xmlns="http://www.w3.org/2000/svg" fill="none" viewBox="0 0 23 25">
  <path fill="#2A2238" d="M12 12c.6895 0 3.2131-3.87878 2.9856-5.09091-.2277-1.21213-5.74353-1.21213-5.97107 0C8.78687 8.12122 11.3105 12 12 12Z"/>
  <path fill="#2A2238" fill-rule="evenodd" d="M.25 1C.25.585785.585815.25 1 .25h21c.4142 0 .75.335785.75.75 0 .41422-.3358.75-.75.75h-.8601c-.5543 3.04575-2.0569 5.62366-6.1682 10.7401 3.9776 4.7557 5.865 7.8445 6.2206 10.7599H22c.4142 0 .75.3358.75.75s-.3358.75-.75.75H1c-.414185 0-.75-.3358-.75-.75s.335815-.75.75-.75h1.30774c.35559-2.9154 2.24292-6.0042 6.22058-10.7599C4.41699 7.37366 2.91443 4.79575 2.36011 1.75H1C.585815 1.75.25 1.41422.25 1Zm3.63745.75c.5376 2.62833 1.95447 5.04276 6.19535 10.2779l.3907.4824-.4009.474C5.90015 17.9184 4.18433 20.7856 3.82092 23.25h2.0343c-.80285-.2047 4.33578-4.4924 5.56968-4.4924 1.2338 0 6.6607 4.2877 6.2511 4.4924h2.0031c-.3634-2.4644-2.0792-5.3316-6.2517-10.2657l-.4009-.474.3907-.4824C17.6581 6.79276 19.075 4.37833 19.6125 1.75H3.88745Z" clip-rule="evenodd"/>
</svg>
