<svg xmlns="http://www.w3.org/2000/svg" fill="none" viewBox="0 0 27 28">
  <path fill="#2A2238" fill-rule="evenodd" d="M6.22222 3.11111c-1.71822 0-3.11111 1.39289-3.11111 3.11111S4.504 9.33333 6.22222 9.33333c.85954 0 1.63519-.34652 2.19989-.91122s.91122-1.34035.91122-2.19989c0-1.71822-1.39289-3.11111-3.11111-3.11111ZM0 6.22222C0 2.78578 2.78578 0 6.22222 0s6.22218 2.78578 6.22218 6.22222c0 1.15327-.3146 2.23437-.8617 3.16061L14 11.8001l9.7889-9.78893c.6075-.60749 1.5925-.60749 2.1999 0 .6075.60748.6075 1.5924 0 2.19989L11.5827 18.6172c.5471.9262.8617 2.0073.8617 3.1606C12.4444 25.2142 9.65866 28 6.22222 28 2.78578 28 0 25.2142 0 21.7778c0-3.4365 2.78578-6.2222 6.22222-6.2222 1.15327 0 2.23437.3146 3.16061.8617L11.8001 14l-2.41727-2.4173c-.92624.5471-2.00734.8617-3.16061.8617C2.78578 12.4444 0 9.65866 0 6.22222ZM6.22222 18.6667c-1.71822 0-3.11111 1.3929-3.11111 3.1111s1.39289 3.1111 3.11111 3.1111 3.11111-1.3929 3.11111-3.1111c0-.8596-.34652-1.6352-.91122-2.1999s-1.34035-.9112-2.19989-.9112Zm9.97768-2.4668c.6075-.6075 1.5924-.6075 2.1999 0l7.589 7.589c.6075.6075.6075 1.5925 0 2.1999-.6074.6075-1.5924.6075-2.1999 0l-7.589-7.589c-.6075-.6075-.6075-1.5924 0-2.1999Z" clip-rule="evenodd"/>
</svg>
