<svg xmlns="http://www.w3.org/2000/svg" fill="none" viewBox="0 0 28 28">
  <path fill="#2A2238" fill-rule="evenodd" d="M14 0C10.3517 3.19095 5.55515 5.15381.290688 5.2236.0995115 6.33653 0 7.47984 0 8.64585 0 17.5812 5.84366 25.1828 14 28c8.1563-2.8172 14-10.4188 14-19.35415 0-1.16602-.0995-2.30932-.2907-3.42225C22.4448 5.1538 17.6483 3.19095 14 0Zm1.75 20.6169c0 .9445-.7835 1.7102-1.75 1.7102s-1.75-.7657-1.75-1.7102c0-.9445.7835-1.7101 1.75-1.7101s1.75.7656 1.75 1.7101Zm0-11.9711c0-.9445-.7835-1.71016-1.75-1.71016s-1.75.76566-1.75 1.71016v5.1305c0 .9445.7835 1.7101 1.75 1.7101s1.75-.7656 1.75-1.7101V8.6458Z" clip-rule="evenodd"/>
</svg>
