<svg xmlns="http://www.w3.org/2000/svg" fill="none" viewBox="0 0 32 24">
  <path fill="#2A2238" d="M27.6364 5.81818h-4.3637V0H2.90909C1.30909 0 0 1.30909 0 2.90909V18.9091h2.90909c0 2.4145 1.94909 4.3636 4.36364 4.3636 2.41454 0 4.36367-1.9491 4.36367-4.3636h8.7272c0 2.4145 1.9491 4.3636 4.3637 4.3636 2.4145 0 4.3636-1.9491 4.3636-4.3636H32v-7.2727l-4.3636-5.81822ZM26.9091 8l2.8509 3.6364h-6.4873V8h3.6364ZM7.27273 20.3636c-.8 0-1.45455-.6545-1.45455-1.4545 0-.8.65455-1.4546 1.45455-1.4546s1.45454.6546 1.45454 1.4546c0 .8-.65454 1.4545-1.45454 1.4545ZM10.5018 16c-.79998-.8873-1.93453-1.4545-3.22907-1.4545-1.29455 0-2.42909.5672-3.22909 1.4545H2.90909V2.90909H20.3636V16h-9.8618Zm14.2255 4.3636c-.8 0-1.4546-.6545-1.4546-1.4545 0-.8.6546-1.4546 1.4546-1.4546.8 0 1.4545.6546 1.4545 1.4546 0 .8-.6545 1.4545-1.4545 1.4545Z"/>
</svg>
