<svg xmlns="http://www.w3.org/2000/svg" fill="none" viewBox="0 0 21 28">
  <path stroke="#2A2238" stroke-width="1.5" d="M1 5h13v22H4c-1.65685 0-3-1.3431-3-3V5Zm13 0h6v19c0 1.6569-1.3431 3-3 3h-3V5Zm-1 0c0-1.06087-.4214-2.07828-1.1716-2.82843C11.0783 1.42143 10.0609 1 9 1c-1.06087 0-2.07828.42143-2.82843 1.17157C5.42143 2.92172 5 3.93913 5 5"/>
  <path stroke="#2A2238" stroke-width="1.5" d="M18 5c0-1.06087-.4214-2.07828-1.1716-2.82843C16.0783 1.42143 15.0609 1 14 1c-1.0609 0-2.0783.42143-2.8284 1.17157C10.4214 2.92172 10 3.93913 10 5"/>
  <rect width="8" height="5" x="4" y="9" fill="#2A2238" rx="1"/>
  <path stroke="#2A2238" stroke-width="1.5" d="M16.75 8v16"/>
</svg>
