<svg xmlns="http://www.w3.org/2000/svg" fill="none" viewBox="0 0 32 26">
  <path fill="#2A2238" d="M27.3333 8.6667c.48 0 .9467.0533 1.4.1466L31.52 5.33333C30.92 4.88 24.9467 0 16 0 7.03998 0 1.07998 4.88.47998 5.33333L16 24.6667l4.6667-5.8134v-3.52c0-3.7333 2.9333-6.6666 6.6666-6.6666Zm3.3334 8.6666v-2C30.6667 13.4667 29.2 12 27.3333 12 25.4667 12 24 13.4667 24 15.3333v2c-.6667 0-1.3333.6667-1.3333 1.3334V24c0 .6667.6666 1.3333 1.3333 1.3333h6.6667C31.3333 25.3333 32 24.6667 32 24v-5.3333c0-.6667-.6667-1.3334-1.3333-1.3334Zm-1.3334 0h-4v-2c0-1.0666.9334-2 2-2 1.0667 0 2 .9334 2 2v2Z"/>
</svg>
