<svg xmlns="http://www.w3.org/2000/svg" fill="none" viewBox="0 0 30 30">
  <path fill="#2A2238" d="M7.81894 14.5971c-1.19908-.365-1.76397-.6077-1.76397-1.2538 0-.7037 1.07819-.7584 1.40876-.7584.58786 0 1.24093.1707 1.79148.4682.15726.0849.34253.1007.51185.0437.16917-.0571.30714-.1818.38094-.3444l.1286-.2839c.1381-.3045.0201-.664-.2715-.8276C9.2789 11.2336 8.37375 11 7.52185 11c-1.87395 0-3.13308.9744-3.13308 2.4246 0 1.8103 1.54177 2.2685 2.78092 2.6367 1.26107.3747 1.78771.6349 1.78417 1.2796 0 .8636-1.21159.9308-1.5829.9308-.74955 0-1.55301-.2971-2.20431-.815-.152-.1209-.35028-.1667-.53986-.1248-.18953.0419-.35012.1671-.43697.3408l-.12172.2434c-.1334.2665-.06631.5898.16186.7814.85604.7185 2.02578 1.1474 3.12932 1.1474 1.95034 0 3.26082-1.0257 3.26082-2.5498.0073-1.843-1.54989-2.3171-2.80116-2.698Z"/>
  <path fill="#2A2238" d="M15.1184 11.0116c-2.5711 0-4.5851 1.9375-4.5851 4.4109 0 2.4864 2.014 4.4341 4.5851 4.4341 2.5645 0 4.5735-1.9477 4.5735-4.4341 0-2.4734-2.009-4.4109-4.5735-4.4109Zm0 7.3064c-1.6543 0-3.0002-1.2989-3.0002-2.8955 0-1.5903 1.3458-2.884 3.0002-2.884 1.6415 0 2.977 1.2937 2.977 2.884 0 1.5966-1.3355 2.8955-2.977 2.8955Z"/>
  <path fill="#2A2238" d="M23.1985 14.5971c-1.1989-.3651-1.7638-.6078-1.7638-1.2538 0-.7037 1.0783-.7584 1.4089-.7584.5879 0 1.2409.1707 1.7915.4682.1572.0849.3426.1007.5118.0437.1692-.057.3072-.1818.3809-.3444l.1287-.2838c.1381-.3045.0201-.6641-.2715-.8277-.7262-.4073-1.6315-.6409-2.4832-.6409-1.8741 0-3.1331.9744-3.1331 2.4246 0 1.8104 1.5418 2.2685 2.7809 2.6367 1.261.3747 1.7876.6349 1.7842 1.2795 0 .8637-1.2118.9309-1.5831.9309-.7495 0-1.553-.2971-2.2043-.815-.152-.1209-.3504-.1667-.5398-.1248-.1896.0419-.3503.1672-.4371.3408l-.1217.2434c-.1333.2666-.0663.5898.162.7814.8561.7185 2.0259 1.1474 3.1292 1.1474 1.9504 0 3.261-1.0257 3.261-2.5497.0071-1.8431-1.5501-2.3172-2.8015-2.6981Z"/>
  <path fill="#2A2238" fill-rule="evenodd" d="M25 1.5H5C3.067 1.5 1.5 3.067 1.5 5v20c0 1.933 1.567 3.5 3.5 3.5h20c1.933 0 3.5-1.567 3.5-3.5V5c0-1.933-1.567-3.5-3.5-3.5ZM5 0C2.23858 0 0 2.23858 0 5v20c0 2.7614 2.23858 5 5 5h20c2.7614 0 5-2.2386 5-5V5c0-2.76142-2.2386-5-5-5H5Z" clip-rule="evenodd"/>
</svg>
