<svg xmlns="http://www.w3.org/2000/svg" fill="none" viewBox="0 0 28 28">
  <path fill="#2A2238" d="M18.886 10.682C18.634 6.776 17.052 2.968 14.084 0c-2.996 2.996-4.648 6.804-4.97 10.682 1.792.952 3.444 2.184 4.886 3.682 1.442-1.484 3.094-2.716 4.886-3.682ZM14.07 4.466c.882 1.442 1.498 3.052 1.82 4.732-.658.42-1.274.882-1.876 1.372-.588-.476-1.218-.938-1.862-1.358.35-1.68.994-3.29 1.918-4.746ZM14 18.83c-1.148-1.75-2.604-3.276-4.284-4.48-.182-.126-.378-.224-.56-.364.182.126.378.238.546.35C6.972 12.362 3.626 11.2 0 11.2c0 7.448 4.704 13.748 11.242 16.086.882.322 1.806.56 2.758.714.952-.168 1.862-.406 2.758-.714C23.296 24.948 28 18.648 28 11.2c-5.852 0-10.99 3.038-14 7.63Zm1.848 5.81c-.616.21-1.232.378-1.862.518-.616-.126-1.218-.294-1.792-.504-4.606-1.652-7.98-5.586-9.03-10.29 1.54.364 3.01.994 4.368 1.862l-.028.014c.182.126.364.252.546.35l.098.056c1.386 1.008 2.576 2.254 3.514 3.71L14 23.94l2.338-3.57c.966-1.47 2.17-2.73 3.542-3.724l.098-.07c.126-.07.252-.154.378-.238l-.014-.028c1.372-.91 2.898-1.582 4.494-1.96-1.05 4.718-4.41 8.652-8.988 10.29ZM9.786 14.392c-.028-.014-.056-.042-.07-.056 0 0 .014 0 .014.014.014.014.028.028.056.042Z"/>
</svg>
