<svg xmlns="http://www.w3.org/2000/svg" fill="none" viewBox="0 0 28 17">
  <path fill="#2A2238" d="M12.922 0c-2.324 0-4.508.924-6.104 2.422C6.356 1.022 5.054 0 3.5 0 1.568 0 0 1.568 0 3.5S1.568 7 3.5 7c.294 0 .574-.042.854-.112-.07.35-.126.714-.14 1.092-.252 5.152 4.13 9.352 9.352 8.778 3.57-.392 6.552-3.164 7.266-6.678.21-.994.21-1.96.084-2.884-.126-.84.532-1.582 1.386-1.582H28V0H12.922ZM3.5 4.2c-.392 0-.7-.308-.7-.7 0-.392.308-.7.7-.7.392 0 .7.308.7.7 0 .392-.308.7-.7.7Zm9.1 8.4c-2.324 0-4.2-1.876-4.2-4.2 0-2.324 1.876-4.2 4.2-4.2 2.324 0 4.2 1.876 4.2 4.2 0 2.324-1.876 4.2-4.2 4.2Z"/>
  <path fill="#2A2238" d="M12.6 11.2c1.5464 0 2.8-1.2536 2.8-2.8 0-1.5464-1.2536-2.8-2.8-2.8-1.5464 0-2.8 1.2536-2.8 2.8 0 1.5464 1.2536 2.8 2.8 2.8Z"/>
</svg>
