<svg xmlns="http://www.w3.org/2000/svg" fill="none" viewBox="0 0 27 29">
  <path fill="#2A2238" d="M17.7028 25.0695H7.37619v-9.7808c1.85879-.5016 3.11271-1.8735 4.08641-2.9357 1.2244-1.3425 1.9326-2.0358 3.2898-2.0358h2.9504v14.7523ZM10.3267.0200195c-2.78824 0-5.17812 1.6375105-6.2993 3.9978905C1.69652 4.79979 0 6.98314 0 9.57956 0 12.3235 1.8883 14.6101 4.42571 15.274V28.02H20.6533v-2.9505h2.9505c1.6228 0 2.9505-1.3277 2.9505-2.9504v-8.8515c0-1.6227-1.3277-2.9504-2.9505-2.9504h-2.3014c.5164-.87042.8262-1.87358.8262-2.9505 0-3.26027-2.6407-5.90095-5.901-5.90095-.5016 0-.9736.07376-1.4457.19178C13.5722.654372 12.0379.0200195 10.3267.0200195ZM5.90095 12.53c-1.62276 0-2.95048-1.3277-2.95048-2.95044 0-1.25396.81138-2.36038 2.02108-2.77345l1.18019-.39831.53108-1.12118c.69337-1.43098 2.08009-2.31613 3.64388-2.31613 1.1654 0 2.0505.51634 2.5669.95891l1.1507.9589s.9441-.47207 2.1686-.47207c1.6227 0 2.9504 1.32771 2.9504 2.95047h-4.4257c-4.89777 0-5.66489 5.1633-8.83665 5.1633Zm14.75235 9.5891v-8.8515h2.9505v8.8515h-2.9505Z"/>
</svg>
