<svg xmlns="http://www.w3.org/2000/svg" fill="none" viewBox="0 0 28 26">
  <path fill="#2A2238" d="M27.8615 8.24865 26.391 2.12868C26.0829.868279 24.9905 0 23.7161 0H4.26386C3.00346 0 1.8971.882284 1.60301 2.12868L.132532 8.24865C-.203576 9.67711.104523 11.1336 1.00081 12.282c.11204.154.26609.266.39213.4061v9.7191c0 1.5405 1.2604 2.8009 2.8009 2.8009H23.8001c1.5405 0 2.8009-1.2604 2.8009-2.8009v-9.7191c.1261-.1261.2801-.2521.3922-.3921.8963-1.1484 1.2184-2.61889.8683-4.04735ZM23.6741 2.7869l1.4705 6.11996c.14.58819.014 1.17634-.3501 1.63854-.1961.2521-.6162.6582-1.3165.6582-.8542 0-1.5965-.6862-1.6945-1.59651l-.8123-6.80619 2.7029-.014Zm-8.2767.014h2.7449l.7563 6.33004c.07.54617-.0981 1.09236-.4622 1.49846-.3081.3641-.7562.5742-1.3304.5742-.9383 0-1.7086-.8263-1.7086-1.83459V2.8009ZM9.08141 9.13094l.77025-6.33004h2.74484v6.56811c0 1.00829-.7702 1.83459-1.8065 1.83459-.4762 0-.91033-.2101-1.24644-.5742-.35011-.4061-.51817-.95229-.46215-1.49846Zm-6.232-.22408L4.26386 2.8009h2.75889l-.81226 6.80619c-.11204.91031-.84027 1.59651-1.69455 1.59651-.68622 0-1.12036-.4061-1.30242-.6582-.37812-.4482-.50416-1.05035-.36411-1.63854ZM4.19384 22.4072v-8.4447c.11203.014.21007.042.3221.042 1.21839 0 2.32475-.5042 3.13701-1.3304.84027.8402 1.96063 1.3304 3.23505 1.3304 1.2184 0 2.3107-.5042 3.123-1.3024.8263.7982 1.9466 1.3024 3.207 1.3024 1.1764 0 2.2968-.4902 3.137-1.3304.8123.8262 1.9187 1.3304 3.137 1.3304.1121 0 .2101-.028.3222-.042v8.4447H4.19384Z"/>
</svg>
