<svg xmlns="http://www.w3.org/2000/svg" fill="none" viewBox="0 0 17 15">
  <path fill="#2A2238" fill-rule="evenodd" d="M7 9H1v5h6V9Zm0-1c.55228 0 1 .44772 1 1v5c0 .5523-.44772 1-1 1H1c-.552285 0-1-.4477-1-1V9c0-.55228.447715-1 1-1h6Zm2-7v5c0 .55228.44772 1 1 1h6c.5523 0 1-.44772 1-1V1c0-.552285-.4477-1-1-1h-6c-.55228 0-1 .447715-1 1Zm7 0h-6v5h6V1ZM7 1H1v5h6V1ZM1 0C.447715 0 0 .447715 0 1v5c0 .55228.447715 1 1 1h6c.55228 0 1-.44772 1-1V1c0-.552285-.44772-1-1-1H1Zm11.75 8c.4142 0 .75.33579.75.75v1.5h2c.4142 0 .75.3358.75.75s-.3358.75-.75.75h-2v1.5c0 .4142-.3358.75-.75.75s-.75-.3358-.75-.75v-1.5h-2c-.41421 0-.75-.3358-.75-.75s.33579-.75.75-.75h2v-1.5c0-.41421.3358-.75.75-.75Z" clip-rule="evenodd"/>
</svg>
