<svg xmlns="http://www.w3.org/2000/svg" fill="none" viewBox="0 0 28 28">
  <path fill="#2A2238" d="M12.3908 6.43153c.1487-.31639.3129-.63041.4928-.94084l.0378-.0648.0214-.03628c.3178-.53695.6691-1.03908 1.0474-1.50394C15.4613 2.07813 17.3426.834019 19.2677.297565c.0069-.001919.0138-.003829.0207-.005729 1.8242-.503449 3.6868-.371228 5.2761.519338l.0441.02494C28.312 2.95072 29.1051 8.41958 26.3782 13.0614c-2.4094 4.1013-6.7616 6.1866-10.305 5.1719l4.9267 8.3819L18.558 28l-4.5569-7.7528-4.55448 7.7527-2.44669-1.3883 6.05677-10.31c-1.2513-1.4552-1.8532-3.4799-1.7446-5.6559.0689-1.37942.4233-2.81968 1.0787-4.21417Zm9.7125-3.56328V13.9505c.6646-.5889 1.2927-1.3399 1.8396-2.2709 2.2724-3.86811 1.1063-7.37456-.7673-8.43766-.3124-.17724-.6747-.30379-1.0723-.37369ZM20.6907 14.9435V2.85011c-.9058.1214-1.886.49107-2.8252 1.15536V15.6818c.8714.0148 1.8539-.215 2.8252-.7383Zm-5.6252-.6678c.2092.2864.4448.5313.6987.7288.1164.0904.2365.1709.3598.2408.0669.038.1362.0737.2077.107.034.0159.0685.0312.1035.0459l.0177.0074V5.28383c-.3894.44203-.7583.94856-1.0962 1.52382l-.0213.03636-.0316.05465c-.0843.14678-.1637.29302-.2383.4386-1.462 2.85314-1.0858 5.45274 0 6.93844Z"/>
  <path fill="#2A2238" d="M10.3914 4.20821c-1.01989-.7934-2.10316-1.22578-3.09639-1.35885V14.8995c.69909.3768 1.40401.601 2.06884.6912.11694.2754.24605.5456.38747.8096L8.63298 18.304c-2.66037-.5064-5.31923-2.3911-7.01442-5.2751C-1.10665 8.39245-.309348 2.92888 3.39938.82565 5.97834-.636884 9.28601-.089418 11.9782 1.93882c-.5472.64438-1.0415 1.33754-1.471 2.06879-.0392.06662-.0778.13349-.1158.2006ZM4.05417 11.6476c.54453.9264 1.16961 1.674 1.831 2.2604V2.86768c-.3956.06968-.75616.19561-1.06694.37186-1.86663 1.05857-3.03055 4.5521-.76406 8.40806Z"/>
</svg>
