<svg xmlns="http://www.w3.org/2000/svg" fill="none" viewBox="0 0 25 28">
  <path fill="#2A2238" d="M16.0076 0H8.00381v2.66794h8.00379V0Zm-5.3359 17.3416h2.668V9.33778h-2.668v8.00382Zm10.7118-8.83088 1.8943-1.89424c-.5737-.68032-1.2006-1.32063-1.8809-1.88089l-1.8943 1.89423c-2.0676-1.65412-4.6689-2.64125-7.4969-2.64125C5.37589 3.98857 0 9.36446 0 15.9943 0 22.6241 5.36255 28 12.0057 28c6.6432 0 12.0057-5.3759 12.0057-12.0057 0-2.8147-.9871-5.4159-2.6279-7.48358ZM12.0057 25.3454c-5.16244 0-9.33776-4.1753-9.33776-9.3378 0-5.1624 4.17532-9.33776 9.33776-9.33776 5.1625 0 9.3378 4.17536 9.3378 9.33776 0 5.1625-4.1753 9.3378-9.3378 9.3378Z"/>
</svg>
