<svg xmlns="http://www.w3.org/2000/svg" fill="none" viewBox="0 0 32 18">
  <path fill="#2A2238" d="M0 3.2933v2.24l3.99667-1.33333V17h2.66445V.999971h-.33306L0 3.2933ZM31.6803 12.16c-.1865-.3734-.4663-.7067-.8393-.9867-.3731-.28-.8127-.52-1.3456-.7067-.5329-.1866-1.1324-.36-1.7985-.50663-.4663-.09333-.8526-.2-1.159-.30666-.3064-.10667-.5462-.21334-.7327-.33334-.1865-.12-.3064-.25333-.3731-.4-.0666-.14667-.1065-.32-.1065-.52 0-.18666.0399-.37333.1199-.54666.0799-.17334.1998-.33334.3597-.45334.1598-.13333.3597-.24.5995-.32.2398-.08.5329-.12.8526-.12.333 0 .6261.05333.8793.14667.2531.09333.4662.22667.6394.38667.1732.16.2931.34666.3864.55999.0799.21334.1332.42667.1332.65334h2.5978c0-.52-.1066-1-.3197-1.45334-.2132-.45333-.5196-.83999-.9192-1.17333-.3997-.33333-.8793-.58666-1.4522-.78666-.5728-.2-1.2256-.29334-1.945-.29334-.6794 0-1.3056.09334-1.8518.28-.5462.18667-1.0258.44-1.4122.76-.3863.32-.6794.69333-.8926 1.12-.2131.42667-.3064.86667-.3064 1.34667s.1066.92.3064 1.28c.1999.37336.4797.69336.8527.97336.3597.28.7993.5066 1.3056.7066.5062.1867 1.0791.3467 1.6919.48.5195.1067.9459.2267 1.2656.3467.3197.12.5728.2533.7594.3867.1731.1333.293.2933.3597.4533.0666.16.0932.3333.0932.52 0 .4267-.1732.76-.5329 1.0267-.3597.2666-.8792.3866-1.5587.3866-.2931 0-.5728-.0266-.8526-.1066-.2798-.0667-.5329-.1734-.746-.32-.2265-.1467-.3997-.3467-.5463-.5867-.1465-.24-.2264-.5467-.2398-.8933h-2.5179c0 .48.1066.9466.3198 1.4.2131.4533.5195.8666.9325 1.24.413.36.9193.6533 1.5321.88.6128.2266 1.3056.3333 2.1049.3333.7061 0 1.3455-.08 1.9184-.2533.5729-.1734 1.0658-.4134 1.4788-.72.413-.3067.7194-.68.9458-1.1067.2265-.4267.3331-.8933.3331-1.4133-.0266-.5334-.1199-.9867-.3197-1.36Zm-13.269-9.76003c-.4529-.53333-.9991-.93333-1.6386-1.17333-.6262-.240001-1.3456-.360002-2.1182-.360002-.7727 0-1.4788.120001-2.1183.360002-.6394.24-1.1857.62667-1.6386 1.17333-.453.54667-.7993 1.24-1.05247 2.12-.2398.86667-.37302 1.93334-.37302 3.18667v2.55996c0 1.2534.1199 2.32.37302 3.1867.25317.88.59947 1.5867 1.06577 2.1333.453.5467.9992.9467 1.6386 1.1867.6395.24 1.3456.3733 2.1183.3733.786 0 1.4921-.12 2.1182-.3733.6395-.24 1.1724-.64 1.6253-1.1867.453-.5466.7994-1.2533 1.0392-2.1333.2398-.8667.373-1.9333.373-3.1867V7.70664c0-1.25333-.1199-2.32-.373-3.18667-.2398-.88-.5862-1.58666-1.0392-2.12Zm-1.2256 8.22663c0 .8-.0533 1.48-.1599 2.04-.1066.56-.2664 1.0134-.4796 1.36-.2131.3467-.4796.6-.786.76-.3064.16-.6794.24-1.0924.24-.3997 0-.7727-.08-1.0924-.24-.3198-.16-.5862-.4133-.7994-.76-.2131-.3466-.3863-.8-.5062-1.36s-.1732-1.24-.1732-2.04V7.29331c0-.8.0533-1.48001.1732-2.02667.1199-.54667.2797-.98667.5062-1.33334.2132-.33333.4796-.57333.7994-.73333.3197-.14666.6794-.22667 1.0791-.22667.4129 0 .7726.08001 1.0791.22667.3197.14667.5861.38667.7993.73333.2131.33334.3863.77334.4929 1.32.1066.54667.1732 1.22667.1732 2.02667v3.34663h-.0133Z"/>
</svg>
