<svg xmlns="http://www.w3.org/2000/svg" fill="none" viewBox="0 0 28 16">
  <path fill="#2A2238" d="M20.3636 0H7.63636C3.42364 0 0 3.42364 0 7.63636c0 4.21274 3.42364 7.63634 7.63636 7.63634H20.3636c4.2128 0 7.6364-3.4236 7.6364-7.63634C28 3.42364 24.5764 0 20.3636 0Zm0 12.7273H7.63636c-2.81272 0-5.09091-2.2782-5.09091-5.09094 0-2.81272 2.27819-5.09091 5.09091-5.09091H20.3636c2.8128 0 5.0909 2.27819 5.0909 5.09091 0 2.81274-2.2781 5.09094-5.0909 5.09094Zm0-8.90912c-2.1127 0-3.8181 1.70546-3.8181 3.81818 0 2.11273 1.7054 3.81814 3.8181 3.81814 2.1128 0 3.8182-1.70541 3.8182-3.81814 0-2.11272-1.7054-3.81818-3.8182-3.81818Z"/>
</svg>
