<svg xmlns="http://www.w3.org/2000/svg" fill="none" viewBox="0 0 28 28">
  <path fill="#2A2238" fill-rule="evenodd" d="M8.7499 0c.96648 0 1.75.783491 1.75 1.74998v1.74997h1.2813c.0206-.00036.0413-.00037.062 0h3.9066c.9665 0 1.75.78349 1.75 1.74998 0 .96648-.7835 1.74997-1.75 1.74997h-2.4885c-.6329 2.95305-1.6576 5.7601-3.0168 8.3642.5088.6198 1.0422 1.2187 1.5988 1.7952.6712.6954.6517 1.8033-.0437 2.4745-.6954.6712-1.80321.6517-2.47445-.0437-.33094-.3428-.65458-.6927-.97068-1.0495-1.5489 2.3018-3.37777 4.3987-5.43739 6.2422-.72017.6445-1.82649.5832-2.471056-.1369-.644562-.7202-.583276-1.8265.136886-2.4711 2.12289-1.9 3.97078-4.0996 5.47742-6.5319-.97379-1.3808-1.84521-2.8392-2.60311-4.3642-.43012-.8655-.07717-1.91586.78833-2.34597.8655-.43012 1.91581-.07717 2.34593.78833.40879.82254.85459 1.62364 1.33523 2.40104.73042-1.635 1.31749-3.34769 1.74537-5.1222H1.74999c-.966482 0-1.7499733-.78349-1.7499733-1.74997 0-.96649.7834913-1.74998 1.7499733-1.74998h5.24993V1.74998C6.99992.783491 7.78341 0 8.7499 0Zm10.4999 10.4999c.6628 0 1.2687.3745 1.5652.9673l5.2342 10.4684c.0113.0215.0222.0433.0327.0654l1.733 3.466c.4322.8645.0818 1.9156-.7826 2.3479-.8645.4322-1.9156.0818-2.3479-.7826l-1.2663-2.5326h-8.3367l-1.2663 2.5326c-.4322.8644-1.4834 1.2148-2.3479.7826-.8644-.4323-1.2148-1.4834-.7826-2.3479l1.733-3.466c.0105-.0221.0214-.0439.0327-.0654l5.2342-10.4684c.2965-.5928.9024-.9673 1.5653-.9673Zm-2.4185 10.4998h4.8369l-2.4184-4.8368-2.4185 4.8368Z" clip-rule="evenodd"/>
</svg>
