<svg xmlns="http://www.w3.org/2000/svg" fill="none" viewBox="0 0 24 24">
  <path fill="#2A2238" d="M18.75 21H5.25c-1.24196-.0017-2.24835-1.008-2.25-2.25V5.25C3.00165 4.00804 4.00804 3.00165 5.25 3h13.5c1.242.00165 2.2483 1.00804 2.25 2.25v13.5c-.0017 1.242-1.008 2.2483-2.25 2.25ZM6.42 5.34c-.59624.00055-1.07945.48376-1.08 1.08v10.215c.00055.5962.48376 1.0794 1.08 1.08h3.33c.5962-.0006 1.0794-.4838 1.08-1.08V6.42c-.0006-.59624-.4838-1.07945-1.08-1.08H6.42Zm7.83 0c-.5962.00055-1.0794.48376-1.08 1.08v5.715c.0006.5962.4838 1.0794 1.08 1.08h3.33c.5962-.0006 1.0794-.4838 1.08-1.08V6.42c-.0006-.59624-.4838-1.07945-1.08-1.08h-3.33Z"/>
</svg>
