<svg xmlns="http://www.w3.org/2000/svg" fill="none" viewBox="0 0 24 24">
  <path fill="#2A2238" d="M19.995 6.68799c.8964-.53591 1.5672-1.37976 1.887-2.374-.8423.4998-1.764.85188-2.725 1.041-1.3324-1.40947-3.4435-1.75248-5.1536-.83735-1.7101.91513-2.5959 2.86184-2.1624 4.75235-3.45038-.17323-6.66502-1.80309-8.84398-4.484-1.13716 1.96142-.55605 4.46878 1.328 5.73001-.68129-.0219-1.34748-.2064-1.943-.53801v.05401c.00039 2.0431 1.44037 3.8031 3.443 4.208-.63194.1719-1.2948.1972-1.938.074.5632 1.7473 2.17355 2.9443 4.009 2.98-1.52017 1.1931-3.39753 1.8402-5.33 1.837-.34253.0005-.68479-.0192-1.025-.059 1.96239 1.261 4.24637 1.9303 6.579 1.928 3.24528.0223 6.36398-1.2571 8.65868-3.552 2.2947-2.2949 3.5739-5.4138 3.5513-8.65901 0-.186-.0043-.371-.013-.555.8405-.6074 1.5658-1.35985 2.142-2.222-.783.34706-1.6135.57492-2.464.676Z"/>
</svg>
