<svg xmlns="http://www.w3.org/2000/svg" fill="none" viewBox="0 0 28 28">
  <path fill="#2A2238" d="M14 0c7.7268 0 14 6.27317 14 14 0 7.7268-6.2732 14-14 14-7.72683 0-14-6.2732-14-14C0 6.27317 6.27317 0 14 0Zm3.8255 20.6267c-.8937.5145-1.2005 1.659-.6837 2.5538.5145.8925 1.659 1.1993 2.5527.6813.8937-.5145 1.2005-1.659.6825-2.5538-.5145-.8925-1.6578-1.1993-2.5515-.6813ZM14 19.46c-.8225 0-1.6018-.1832-2.2995-.5075L10.402 21.28c1.085.5355 2.3077.8412 3.598.8412.7537 0 1.4793-.1062 2.17-.2987.1213-.7502.5658-1.4397 1.2775-1.8515.7105-.4095 1.5318-.4503 2.24-.182 1.3837-1.3568 2.2832-3.2072 2.415-5.2675l-2.6658-.0385c-.245 2.7895-2.5842 4.977-5.4367 4.977ZM8.54 14c0-1.8468.91817-3.4778 2.3217-4.46833L9.49667 7.24383c-1.638 1.085-2.8525 2.76387-3.36117 4.70747.59033.4714.96833 1.2064.96833 2.03 0 .8214-.378 1.5389-.96833 2.0289.50867 1.9425 1.72317 3.6213 3.36117 4.7063l1.36503-2.2925C9.45817 17.465 8.54 15.8363 8.54 14Zm-4.06-1.869c-1.0325 0-1.869.8365-1.869 1.869s.8365 1.869 1.869 1.869S6.34783 15.0325 6.34783 14 5.5125 12.131 4.48 12.131ZM14 8.54c2.8525 0 5.1917 2.1875 5.4367 4.9758l2.6658-.0396c-.1318-2.0592-1.0325-3.90837-2.415-5.2687-.7105.27067-1.5318.22633-2.24-.17967-.7105-.41066-1.155-1.1025-1.2775-1.85616C15.477 5.985 14.7537 5.88 14 5.88c-1.295 0-2.5142.30333-3.598.84l1.2985 2.3275c.7-.3255 1.4793-.5075 2.2995-.5075Zm3.8255-1.16783c.8925.51566 2.037.21116 2.5538-.6825.5145-.8925.2112-2.037-.686-2.555-.8925-.51334-2.037-.20884-2.5538.68716-.5145.89134-.21 2.03467.686 2.55034Z"/>
</svg>
