<svg xmlns="http://www.w3.org/2000/svg" fill="none" viewBox="0 0 28 28">
  <path fill="#2A2238" d="M18.45 5c-.8868 0-1.6002.71613-1.6 1.6-.0002.88388.7132 1.6 1.6 1.6.8868 0 1.6126-.71612 1.6125-1.6.0002-.88387-.7257-1.6-1.6125-1.6Zm-4.7625 1.6c-.7992.05889-1.5657.25816-2.275.55L12.85 9.6c.3669-.11599.7483-.17968 1.15-.2.0786-.00396.1579 0 .2375 0 2.2029 0 4.0413 1.5415 4.5 3.6H21.6c-.2031-1.4964-.8626-2.8506-1.825-3.925-.3953.21163-.8452.325-1.325.325-1.5065 0-2.7432-1.17796-2.8125-2.6625-.4534-.08634-.9217-.1375-1.4-.1375-.0961 0-.1923-.0036-.2875 0-.031.00117-.0566-.00158-.0875 0-.0291.00149-.0585-.00179-.0875 0-.0281.00175-.0595-.00208-.0875 0Zm-4 1.55c-1.15267.8945-2.0318 2.1261-2.5 3.5375.73956.5046 1.225 1.3524 1.225 2.3125s-.48544 1.8079-1.225 2.3125c.46804 1.4117 1.34693 2.6439 2.5 3.5375l1.425-2.4625C10.1959 16.5467 9.625 15.3382 9.625 14c0-1.3377.572-2.5446 1.4875-3.3875L9.6875 8.15Zm-4.075 4.25c-.88681 0-1.61265.7161-1.6125 1.6-.00015.8839.72569 1.6 1.6125 1.6.88681 0 1.60015-.7161 1.6-1.6.00015-.8839-.71319-1.6-1.6-1.6Zm13.125 2.6c-.4587 2.0585-2.2971 3.6-4.5 3.6-.4877 0-.9473-.0734-1.3875-.2125l-1.4375 2.45c.8711.3584 1.8243.5625 2.825.5625.4783 0 .9466-.0512 1.4-.1375.0698-1.4222 1.2164-2.5726 2.6375-2.6625.0596-.0038.1144 0 .175 0 .4798 0 .9297.1134 1.325.325.9624-1.0744 1.6219-2.4286 1.825-3.925h-2.8625Zm-.2875 4.8c-.8868 0-1.6002.7161-1.6 1.6-.0002.8839.7132 1.6 1.6 1.6.8868 0 1.6126-.7161 1.6125-1.6.0002-.8839-.7257-1.6-1.6125-1.6Z"/>
  <path fill="#2A2238" d="M28 14c0 7.732-6.268 14-14 14-7.73199 0-14-6.268-14-14C0 6.26801 6.26801 0 14 0c7.732 0 14 6.26801 14 14ZM1.82066 14c0 6.7265 5.45288 12.1793 12.17934 12.1793 6.7265 0 12.1793-5.4528 12.1793-12.1793 0-6.72646-5.4528-12.17934-12.1793-12.17934C7.27354 1.82066 1.82066 7.27354 1.82066 14Z"/>
</svg>
