<svg xmlns="http://www.w3.org/2000/svg" fill="none" viewBox="0 0 22 23">
  <path fill="#2A2238" fill-rule="evenodd" d="M20.3732 21.5c-.3195-1.8769-1.2339-3.6292-2.6415-5-.6042-.5884-1.3203-.7611-2.4521-.7082-.505.0236-1.0274.0883-1.6314.163-.1011.0125-.2045.0253-.3106.0382-.7096.0866-1.5097.1753-2.3376.1753-.8279 0-1.62797-.0887-2.33764-.1753-.10602-.0129-.20944-.0257-.31058-.0382-.60395-.0747-1.12641-.1394-1.6314-.163-1.13178-.0529-1.8479.1198-2.45205.7082-1.40766 1.3708-2.32205 3.1231-2.64154 5H20.3732Zm1.5185 0c-.3321-2.2867-1.4172-4.4227-3.1135-6.0747-1.4739-1.4353-3.323-1.2061-5.3228-.9582-.7992.0991-1.6224.2012-2.4554.2012s-1.65621-.1021-2.45537-.2012c-1.9998-.2479-3.84891-.4771-5.3228.9582C1.52546 17.0773.440371 19.2133.108331 21.5.036587 21.9941 0 22.4952 0 23h22c0-.5048-.0366-1.0059-.1083-1.5Zm-10.2808-9.9073c2.9219 0 5.2222-2.29658 5.2222-5.04636S14.5328 1.5 11.6109 1.5 6.38867 3.79656 6.38867 6.54634 8.689 11.5927 11.6109 11.5927Zm0 1.5c3.7126 0 6.7222-2.9309 6.7222-6.54636C18.3331 2.9309 15.3235 0 11.6109 0 7.89831 0 4.88867 2.9309 4.88867 6.54634c0 3.61546 3.00964 6.54636 6.72223 6.54636Z" clip-rule="evenodd"/>
</svg>
