<svg xmlns="http://www.w3.org/2000/svg" fill="none" viewBox="0 0 28 24">
  <path fill="#2A2238" fill-rule="evenodd" d="M13.0397 1.32069c.5813.24077.9603.80798.9603 1.43714V21.4245c0 .6292-.379 1.1964-.9603 1.4372-.5812.2407-1.2503.1076-1.6952-.3372l-5.76661-5.7667H1.55556C.696446 16.7578 0 16.0614 0 15.2023V8.98006C0 8.12095.696446 7.4245 1.55556 7.4245h4.02233l5.76661-5.76661c.4449-.44489 1.114-.57798 1.6952-.3372Zm8.2043-.22909c.6075-.607484 1.5924-.607484 2.1999 0C26.2572 3.9049 28 7.79592 28 12.091c0 4.2952-1.7428 8.1862-4.5561 10.9995-.6075.6075-1.5924.6075-2.1999 0-.6075-.6075-.6075-1.5924 0-2.1999 2.2537-2.2537 3.6449-5.3627 3.6449-8.7996 0-3.43683-1.3912-6.54581-3.6449-8.79951-.6075-.60749-.6075-1.59241 0-2.19989Zm-4.3998 4.39978c.6075-.60749 1.5924-.60749 2.1999 0 .818.81803 1.4856 1.78821 1.9564 2.86575.5004 1.14543.7773 2.40937.7773 3.73387 0 2.5769-1.0464 4.9124-2.7337 6.5997-.6075.6075-1.5924.6075-2.1999 0-.6075-.6075-.6075-1.5924 0-2.1999 1.1277-1.1277 1.8225-2.6811 1.8225-4.3998 0-.8878-.185-1.7283-.5171-2.48827-.3131-.7167-.7582-1.3643-1.3054-1.91146-.6075-.60749-.6075-1.59241 0-2.19989Z" clip-rule="evenodd"/>
</svg>
