<svg xmlns="http://www.w3.org/2000/svg" fill="none" viewBox="0 0 28 24">
  <path fill="#2A2238" fill-rule="evenodd" d="M13.8068.125423c.6154.254933 1.0167.855511 1.0167 1.521687V21.4118c0 .6662-.4013 1.2668-1.0167 1.5217-.6155.2549-1.3239.114-1.795-.357L5.906 16.4706H1.64706C.737413 16.4706 0 15.7332 0 14.8236V8.23534c0-.90964.737413-1.64706 1.64706-1.64706H5.906L12.0118.48246c.4711-.4710552 1.1795-.61197 1.795-.357037Zm4.7934 6.945247c.6432-.64322 1.686-.64322 2.3293 0l2.1294 2.12947 2.1295-2.12947c.6432-.64322 1.6861-.64322 2.3293 0 .6432.64321.6432 1.68607 0 2.32929l-2.1295 2.12944 2.1295 2.1295c.6432.6432.6432 1.6861 0 2.3293s-1.6861.6432-2.3293 0l-2.1295-2.1295-2.1294 2.1295c-.6433.6432-1.6861.6432-2.3293 0-.6433-.6432-.6433-1.6861 0-2.3293l2.1294-2.1295-2.1294-2.12944c-.6433-.64322-.6433-1.68608 0-2.32929Z" clip-rule="evenodd"/>
</svg>
