<svg xmlns="http://www.w3.org/2000/svg" fill="none" viewBox="0 0 28 17">
  <path fill="#2A2238" d="M25.6667 16.3333h-7v-4.6666H15.54c-1.33 2.8233-4.2 4.6666-7.37333 4.6666C3.66333 16.3333 0 12.67 0 8.16667 0 3.66333 3.66333 0 8.16667 0 11.34 0 14.1983 1.84333 15.54 4.66667H28v7.00003h-2.3333v4.6666ZM21 14h2.3333V9.33333h2.3334V7H13.93l-.2683-.78167c-.8167-2.32166-3.0334-3.885-5.49503-3.885-3.22 0-5.83334 2.61334-5.83334 5.83334C2.33333 11.3867 4.94667 14 8.16667 14c2.46163 0 4.67833-1.5633 5.49503-3.885l.2683-.78167H21V14ZM8.16667 11.6667c-1.925 0-3.5-1.575-3.5-3.50003 0-1.925 1.575-3.5 3.5-3.5 1.92503 0 3.50003 1.575 3.50003 3.5 0 1.92503-1.575 3.50003-3.50003 3.50003Zm0-4.6667C7.525 7 7 7.525 7 8.16667c0 .64166.525 1.16666 1.16667 1.16666.64166 0 1.16666-.525 1.16666-1.16666C9.33333 7.525 8.80833 7 8.16667 7Z"/>
</svg>
