<svg xmlns="http://www.w3.org/2000/svg" fill="none" viewBox="0 0 32 32">
  <path fill="#2A2238" d="M16 14.6667c-1.4667 0-2.6667 1.2-2.6667 2.6666C13.3333 18.8 14.5333 20 16 20c1.4667 0 2.6667-1.2 2.6667-2.6667 0-1.4666-1.2-2.6666-2.6667-2.6666Zm8 2.6666c0-4.4133-3.5867-7.99997-8-7.99997S8 12.92 8 17.3333c0 2.96 1.61333 5.5334 4 6.92l1.3333-2.32c-1.5866-.9333-2.6666-2.6266-2.6666-4.6C10.6667 14.3867 13.0533 12 16 12c2.9467 0 5.3333 2.3867 5.3333 5.3333 0 1.9734-1.08 3.6667-2.6666 4.6L20 24.2533c2.3867-1.3866 4-3.96 4-6.92ZM16 4C8.64 4 2.66667 9.97333 2.66667 17.3333c0 4.9334 2.68 9.2267 6.65333 11.5334l1.3333-2.3067c-3.1733-1.8533-5.31997-5.28-5.31997-9.2267C5.33333 11.44 10.1067 6.66667 16 6.66667S26.6667 11.44 26.6667 17.3333c0 3.9467-2.1467 7.3734-5.3334 9.2267l1.3334 2.3067c3.9866-2.3067 6.6666-6.6 6.6666-11.5334C29.3333 9.97333 23.36 4 16 4Z"/>
</svg>
