<svg xmlns="http://www.w3.org/2000/svg" fill="none" viewBox="0 0 24 24">
  <path fill="#2A2238" d="M12.006 19.012h-.02c-.062 0-6.265-.012-7.83-.437-.86057-.2318-1.53265-.9043-1.764-1.765-.28142-1.5876-.41731-3.1977-.406-4.81-.00727-1.615.13231-3.22729.417-4.817.23771-.86149.90683-1.53705 1.766-1.783 1.522-.4 7.554-.4 7.81-.4H12c.063 0 6.282.012 7.831.437.8588.23301 1.5295.9041 1.762 1.763.2904 1.59354.4267 3.2113.407 4.831.007 1.613-.1329 3.2233-.418 4.811-.2343.8596-.9068 1.5306-1.767 1.763-1.52.403-7.553.407-7.809.407Zm-2-10.007-.005 6 5.212-3-5.207-3Z"/>
</svg>
