<svg xmlns="http://www.w3.org/2000/svg" fill="none" viewBox="0 0 16 16">
  <path fill="#2A2238" fill-rule="evenodd" d="M6 2c.10276.00004.20301.03175.2871.09079.0841.05905.14796.14257.1829.23921L10 12.036l1.53-4.208c.0353-.09626.0993-.17936.1833-.23803.0841-.05867.1842-.09008.2867-.08997h3.5c.1326 0 .2598.05268.3536.14645C15.9473 7.74021 16 7.86739 16 8c0 .13261-.0527.25979-.1464.35355-.0938.09377-.221.14645-.3536.14645h-3.15l-1.88 5.17c-.035.0965-.0989.1799-.183.2389-.0841.0589-.1843.0905-.287.0905-.10269 0-.20288-.0316-.28697-.0905-.08409-.059-.148-.1424-.18303-.2389L6 3.964 4.47 8.171c-.0351.09645-.09904.17976-.18312.23862C4.2028 8.46847 4.10264 8.50003 4 8.5H.5c-.132608 0-.259785-.05268-.353553-.14645C.0526784 8.25979 0 8.13261 0 8c0-.13261.0526784-.25979.146447-.35355C.240215 7.55268.367392 7.5.5 7.5h3.15l1.88-5.17c.03494-.09664.0988-.18016.1829-.23921C5.79699 2.03175 5.89724 2.00004 6 2Z" clip-rule="evenodd"/>
</svg>
