<svg xmlns="http://www.w3.org/2000/svg" fill="none" viewBox="0 0 28 28">
  <mask id="a" fill="#fff">
    <path fill-rule="evenodd" d="M14 28c7.732 0 14-6.268 14-14 0-7.73199-6.268-14-14-14C6.26801 0 0 6.26801 0 14c0 7.732 6.26801 14 14 14Zm10.5303-14.5303-4.7729-4.773c-.2929-.29289-.7678-.29289-1.0607 0-.2929.29289-.2929.76777 0 1.06066L22.1893 13.25H4c-.41421 0-.75.3358-.75.75s.33579.75.75.75h18.1893l-3.4926 3.4926c-.2929.2929-.2929.7678 0 1.0607.2929.2929.7678.2929 1.0607 0l4.7729-4.773c.2929-.2929.2929-.7677 0-1.0606Z" clip-rule="evenodd"/>
  </mask>
  <path fill="#2A2238" fill-rule="evenodd" d="M14 28c7.732 0 14-6.268 14-14 0-7.73199-6.268-14-14-14C6.26801 0 0 6.26801 0 14c0 7.732 6.26801 14 14 14Zm10.5303-14.5303-4.7729-4.773c-.2929-.29289-.7678-.29289-1.0607 0-.2929.29289-.2929.76777 0 1.06066L22.1893 13.25H4c-.41421 0-.75.3358-.75.75s.33579.75.75.75h18.1893l-3.4926 3.4926c-.2929.2929-.2929.7678 0 1.0607.2929.2929.7678.2929 1.0607 0l4.7729-4.773c.2929-.2929.2929-.7677 0-1.0606Z" clip-rule="evenodd"/>
  <path fill="#2A2238" d="m19.7574 8.6967-1.0607 1.06066 1.0607-1.06066Zm4.7729 4.773 1.0607-1.0607-1.0607 1.0607Zm-5.8336-3.71234 1.0607-1.06066-1.0607 1.06066ZM22.1893 13.25v1.5h3.6214L23.25 12.1893 22.1893 13.25Zm0 1.5 1.0607 1.0607 2.5607-2.5607h-3.6214v1.5Zm-3.4926 3.4926 1.0607 1.0607-1.0607-1.0607Zm1.0607 1.0607-1.0607-1.0607 1.0607 1.0607Zm4.7729-4.773 1.0607 1.0607-1.0607-1.0607ZM26.5 14c0 6.9036-5.5964 12.5-12.5 12.5v3c8.5604 0 15.5-6.9396 15.5-15.5h-3ZM14 1.5c6.9036 0 12.5 5.59644 12.5 12.5h3c0-8.56041-6.9396-15.5-15.5-15.5v3ZM1.5 14C1.5 7.09644 7.09644 1.5 14 1.5v-3C5.43959-1.5-1.5 5.43959-1.5 14h3ZM14 26.5C7.09644 26.5 1.5 20.9036 1.5 14h-3c0 8.5604 6.93959 15.5 15.5 15.5v-3Zm4.6967-16.74264 4.773 4.77294 2.1213-2.1213-4.773-4.77296-2.1213 2.12132Zm1.0607 0c-.2929.29284-.7678.29294-1.0607 0l2.1213-2.12132c-.8787-.87868-2.3033-.87868-3.182 0l2.1214 2.12132Zm0-1.06066c.2929.29289.2929.76777 0 1.06066L17.636 7.63604c-.8786.87868-.8786 2.3033 0 3.18196l2.1214-2.1213Zm3.4926 3.4926-3.4926-3.4926-2.1214 2.1213 3.4927 3.4927 2.1213-2.1214ZM4 14.75h18.1893v-3H4v3Zm.75-.75c0 .4142-.33579.75-.75.75v-3c-1.24264 0-2.25 1.0074-2.25 2.25h3ZM4 13.25c.41421 0 .75.3358.75.75h-3c0 1.2426 1.00736 2.25 2.25 2.25v-3Zm18.1893 0H4v3h18.1893v-3Zm-2.4319 6.0533 3.4926-3.4926-2.1213-2.1214-3.4927 3.4927 2.1214 2.1213Zm0-1.0607c.2928.2929.2929.7678 0 1.0607L17.636 17.182c-.8786.8787-.8786 2.3033 0 3.182l2.1214-2.1214Zm-1.0607 0c.2929-.2929.7678-.2928 1.0607 0L17.636 20.364c.8787.8786 2.3033.8786 3.182 0l-2.1213-2.1214Zm4.773-4.7729-4.773 4.7729 2.1213 2.1214 4.773-4.773-2.1213-2.1213Zm0 1.0606c-.2929-.2929-.2929-.7677 0-1.0606l2.1213 2.1213c.8787-.8787.8787-2.3033 0-3.182l-2.1213 2.1213Z" mask="url(#a)"/>
</svg>
