<svg xmlns="http://www.w3.org/2000/svg" fill="none" viewBox="0 0 28 28">
  <path fill="#2A2238" fill-rule="evenodd" d="M0 14C0 6.26801 6.26801 0 14 0c7.732 0 14 6.26801 14 14 0 7.732-6.268 14-14 14-7.73199 0-14-6.268-14-14Zm8.05-.6062 11.4-6.58181c.4667-.26943 1.05.06736 1.05.60622V20.5818c0 .5389-.5833.8756-1.05.6062l-11.4-6.5818c-.14514-.0838-.24514-.2067-.3-.3443V20c0 .4142-.33579.75-.75.75s-.75-.3358-.75-.75V7c0-.41421.33579-.75.75-.75s.75.33579.75.75v6.7381c.05486-.1376.15486-.2605.3-.3443Z" clip-rule="evenodd"/>
</svg>
