<svg xmlns="http://www.w3.org/2000/svg" fill="none" viewBox="0 0 29 25">
  <path fill="#2A2238" fill-rule="evenodd" d="M20.7271 24.7725c.232 0 .4545-.0922.6186-.2563.1641-.1641.2563-.3866.2563-.6187V3.26141l5.5051 5.50681c.1642.16429.3871.25659.6194.25659.2323 0 .4552-.0923.6195-.25659.1642-.16429.2565-.38711.2565-.61945 0-.23234-.0923-.45516-.2565-.61945L21.3465.529871c-.0813-.081479-.1778-.146124-.2841-.190232-.1063-.044108-.2203-.066812-.3353-.066812-.1151 0-.2291.022704-.3354.066812-.1063.044108-.2028.108753-.2841.190232L13.1082 7.52932c-.1643.16429-.2566.38711-.2566.61945 0 .23234.0923.45516.2566.61945.1642.16429.3871.25659.6194.25659.2323 0 .4552-.0923.6195-.25659l5.505-5.50681V23.8975c0 .2321.0922.4546.2563.6187.1641.1641.3866.2563.6187.2563ZM8.47802.274391c.23205 0 .45459.09218.61867.256261.16408.164082.25626.386624.25626.618668V21.7854l5.50505-5.5068c.1643-.1643.3871-.2566.6195-.2566.2323 0 .4551.0923.6194.2566.1643.1643.2566.3871.2566.6195 0 .2323-.0923.4551-.2566.6194L9.09748 24.517c-.08128.0815-.17783.1461-.28412.1902-.1063.0441-.22025.0668-.33534.0668-.11508 0-.22903-.0227-.33533-.0668-.10629-.0441-.20284-.1087-.28412-.1902L.859124 17.5175c-.164289-.1643-.256585-.3871-.256585-.6194 0-.2324.092296-.4552.256585-.6195.164286-.1643.387116-.2566.619456-.2566.23233 0 .45516.0923.61945.2566l5.50506 5.5068V1.14932c0-.232044.09218-.454586.25626-.618668.16409-.164081.38663-.256261.61867-.256261Z" clip-rule="evenodd"/>
</svg>
