<svg xmlns="http://www.w3.org/2000/svg" fill="none" viewBox="0 0 28 28">
  <path fill="#2A2238" fill-rule="evenodd" d="M20.7324 21.3196c0 .3963-.3213.7175-.7175.7175H7.57744c-.39628 0-.71754-.3212-.71754-.7175 0-.3963.32126-.7176.71754-.7176h5.45426L6.77616 9.76714c-.53395-.92483.13349-2.08087 1.20139-2.08087H20.5715c1.0679 0 1.7353 1.15604 1.2014 2.08087L15.5173 20.602h4.4976c.3962 0 .7175.3213.7175.7176Zm-6.4579-1.4351 6.2141-10.76315H8.06041L14.2745 19.8845Z" clip-rule="evenodd"/>
  <path fill="#2A2238" d="M14 28C6.26801 28-.00000137 21.732-.00000137 14-.00000137 6.26801 6.26801 0 14 0c7.732 0 14 6.26801 14 14 0 7.732-6.268 14-14 14Zm0-26.15823C7.28519 1.84177 1.84176 7.28519 1.84176 14c0 6.7148 5.44343 12.1582 12.15824 12.1582 6.7148 0 12.1582-5.4434 12.1582-12.1582 0-6.71481-5.4434-12.15823-12.1582-12.15823Z"/>
</svg>
