<svg xmlns="http://www.w3.org/2000/svg" fill="none" viewBox="0 0 28 28">
  <path fill="#2A2238" fill-rule="evenodd" d="M14 0c7.732 0 14 6.26801 14 14 0 7.732-6.268 14-14 14-7.73199 0-14-6.268-14-14C0 6.26801 6.26801 0 14 0Zm.6062 8.05 6.5818 11.4c.2694.4667-.0673 1.05-.6062 1.05H7.41821c-.53886 0-.87565-.5833-.60622-1.05l6.58181-11.4c.0838-.14514.2067-.24514.3443-.3H8c-.41421 0-.75-.33579-.75-.75s.33579-.75.75-.75h13c.4142 0 .75.33579.75.75s-.3358.75-.75.75h-6.7381c.1376.05486.2605.15486.3443.3Z" clip-rule="evenodd"/>
</svg>
