<svg xmlns="http://www.w3.org/2000/svg" fill="none" viewBox="0 0 28 28">
  <path fill="#2A2238" fill-rule="evenodd" d="M28 14c0 7.732-6.268 14-14 14-7.73199 0-14-6.268-14-14C0 6.26801 6.26801 0 14 0c7.732 0 14 6.26801 14 14Zm-8.05.6062L8.55 21.188c-.46667.2694-1.05-.0673-1.05-.6062V7.41821c0-.53886.58333-.87565 1.05-.60622l11.4 6.58181c.1451.0838.2451.2067.3.3443V8c0-.41421.3358-.75.75-.75s.75.33579.75.75v13c0 .4142-.3358.75-.75.75s-.75-.3358-.75-.75v-6.7381c-.0549.1376-.1549.2605-.3.3443Z" clip-rule="evenodd"/>
</svg>
