<svg xmlns="http://www.w3.org/2000/svg" fill="none" viewBox="0 0 25 24">
  <path fill="#2A2238" fill-rule="evenodd" d="M.240315 23.7797c.141097.1411.332441.2203.531952.2203.199512 0 .390853-.0792.531953-.2203l6.16373-6.1637v4.1653c0 .1996.07927.3909.22037.532.14111.1411.33249.2204.53204.2204.19955 0 .39093-.0793.53203-.2204s.22038-.3324.22038-.532v-5.9816c0-.1996-.07928-.391-.22038-.5321s-.33248-.2203-.53203-.2203H2.23871c-.19955 0-.39093.0792-.53203.2203-.14111.1411-.22038.3325-.22038.5321 0 .1995.07927.3909.22038.532.1411.1411.33248.2204.53203.2204h4.16533L.240315 22.7158c-.1410553.1411-.2202955.3324-.2202955.532 0 .1995.0792402.3908.2202955.5319ZM23.7997.220295C23.6586.0792402 23.4673 0 23.2678 0c-.1995 0-.3909.0792402-.532.220295L16.5721 6.38403V2.21869c0-.19955-.0793-.39093-.2204-.53203-.1411-.14111-.3325-.22038-.532-.22038-.1996 0-.3909.07927-.5321.22038-.1411.1411-.2203.33248-.2203.53203v5.98165c0 .19955.0792.39093.2203.53203.1412.14111.3325.22038.5321.22038h5.9816c.1996 0 .391-.07927.5321-.22038.1411-.1411.2203-.33248.2203-.53203s-.0792-.39093-.2203-.53203c-.1411-.14111-.3325-.22038-.5321-.22038H17.636l6.1637-6.16373c.1411-.1411.2203-.332441.2203-.531952 0-.199512-.0792-.390856-.2203-.531953Z" clip-rule="evenodd"/>
</svg>
