<svg xmlns="http://www.w3.org/2000/svg" fill="none" viewBox="0 0 28 28">
  <path fill="#2A2238" fill-rule="evenodd" d="M21.3196 7.26761c.3963 0 .7175.32125.7175.71754V20.4226c0 .3962-.3212.7175-.7175.7175-.3963 0-.7176-.3213-.7176-.7175v-5.4543L9.76714 21.2238c-.92483.534-2.08087-.1334-2.08087-1.2014V7.42853c0-1.0679 1.15604-1.73534 2.08087-1.20139L20.602 12.4827V7.98515c0-.39629.3213-.71754.7176-.71754Zm-1.4351 6.45789L9.12135 7.51139V19.9396l10.76315-6.2141Z" clip-rule="evenodd"/>
  <path fill="#2A2238" d="M28 14c0 7.732-6.268 14-14 14-7.73199 0-14-6.268-14-14C0 6.26801 6.26801 0 14 0c7.732 0 14 6.26801 14 14ZM1.84177 14c0 6.7148 5.44342 12.1582 12.15823 12.1582 6.7148 0 12.1582-5.4434 12.1582-12.1582 0-6.71481-5.4434-12.15823-12.1582-12.15823C7.28519 1.84177 1.84177 7.28519 1.84177 14Z"/>
</svg>
