<svg xmlns="http://www.w3.org/2000/svg" fill="none" viewBox="0 0 26 29">
  <path fill="#2A2238" fill-rule="evenodd" d="M.827881 14.3423c0-.2321.092187-.4546.256279-.6187.1641-.1641.38666-.2563.61872-.2563H24.4529c.232 0 .4546.0922.6187.2563.1641.1641.2563.3866.2563.6187 0 .232-.0922.4546-.2563.6187-.1641.1641-.3867.2563-.6187.2563H1.70288c-.23206 0-.45462-.0922-.61872-.2563-.164092-.1641-.256279-.3867-.256279-.6187ZM13.0779.342285c.232 0 .4546.092187.6187.256282.1641.164094.2563.386654.2563.618723v6.63775l2.0055-2.00726c.1643-.1643.3871-.2566.6195-.2566.2323 0 .4552.0923.6195.2566.1643.16431.2566.38715.2566.61951 0 .23235-.0923.45519-.2566.6195l-3.5 3.50001c-.0813.0815-.1779.1461-.2842.1902s-.2202.0668-.3353.0668c-.1151 0-.2291-.0227-.3354-.0668-.1063-.0441-.2028-.1087-.2841-.1902L8.95838 7.08679c-.1643-.16431-.2566-.38715-.2566-.6195 0-.23236.0923-.4552.2566-.61951.1643-.1643.38714-.2566.6195-.2566.23236 0 .45522.0923.61952.2566l2.0055 2.00726V1.21729c0-.232069.0922-.454629.2563-.618723.1641-.164095.3866-.256282.6187-.256282Zm-.875 20.487215-2.0055 2.0073c-.1643.1643-.38716.2566-.61952.2566-.23236 0-.4552-.0923-.6195-.2566-.1643-.1643-.2566-.3872-.2566-.6195 0-.2324.0923-.4552.2566-.6195l3.50002-3.5c.0813-.0815.1778-.1461.2841-.1903.1063-.0441.2203-.0668.3354-.0668.1151 0 .229.0227.3353.0668.1063.0442.2029.1088.2842.1903l3.5 3.5c.1643.1643.2566.3871.2566.6195 0 .2323-.0923.4552-.2566.6195-.1643.1643-.3872.2566-.6195.2566-.2324 0-.4552-.0923-.6195-.2566l-2.0055-2.0073v6.6378c0 .2321-.0922.4546-.2563.6187-.1641.1641-.3867.2563-.6187.2563-.2321 0-.4546-.0922-.6187-.2563-.1641-.1641-.2563-.3866-.2563-.6187v-6.6378Z" clip-rule="evenodd"/>
</svg>
