<svg xmlns="http://www.w3.org/2000/svg" fill="none" viewBox="0 0 24 23">
  <path fill="#2A2238" fill-rule="evenodd" d="M8.38798 14.632c-.13521-.1351-.31856-.2111-.50975-.2111-.19118 0-.37454.076-.50975.2111l-5.90645 5.9065V16.547c0-.1912-.07597-.3746-.21118-.5098-.13522-.1352-.318605-.2112-.509827-.2112s-.374612.076-.509827.2112c-.1352139.1352-.2111765.3186-.2111765.5098v5.732c0 .1912.0759626.3746.2111765.5098.135215.1352.318605.2112.509827.2112H6.473c.19122 0 .37461-.076.50982-.2112.13522-.1352.21118-.3186.21118-.5098 0-.1912-.07596-.3746-.21118-.5098-.13521-.1352-.3186-.2112-.50982-.2112H2.48152l5.90646-5.9065c.13517-.1352.2111-.3185.2111-.5097 0-.1912-.07593-.3746-.2111-.5098Zm6.26412 0c.1352-.1351.3185-.2111.5097-.2111.1912 0 .3745.076.5098.2111l5.9064 5.9065V16.547c0-.1912.076-.3746.2112-.5098.1352-.1352.3186-.2112.5098-.2112.1912 0 .3746.076.5098.2112.1353.1352.2112.3186.2112.5098v5.732c0 .1912-.0759.3746-.2112.5098-.1352.1352-.3186.2112-.5098.2112h-5.732c-.1912 0-.3746-.076-.5098-.2112-.1352-.1352-.2112-.3186-.2112-.5098 0-.1912.076-.3746.2112-.5098.1352-.1352.3186-.2112.5098-.2112h3.9915l-5.9064-5.9065c-.1352-.1352-.2111-.3185-.2111-.5097 0-.1912.0759-.3746.2111-.5098Zm0-6.26404c.1352.13517.3185.2111.5097.2111.1912 0 .3745-.07593.5098-.2111L21.578 2.4615v3.99148c0 .19122.076.37461.2112.50982.1352.13522.3186.21118.5098.21118.1912 0 .3746-.07596.5098-.21118.1353-.13521.2112-.3186.2112-.50982V.721003c0-.191222-.0759-.374612-.2112-.509826C22.6736.0759626 22.4902 0 22.299 0h-5.732c-.1912 0-.3746.0759626-.5098.211177-.1352.135214-.2112.318604-.2112.509826s.076.374617.2112.509827c.1352.13521.3186.21118.5098.21118h3.9915l-5.9064 5.90645c-.1352.13521-.2111.31857-.2111.50975 0 .19119.0759.37454.2111.50975Zm-6.26412 0c-.13521.13517-.31856.2111-.50975.2111-.19118 0-.37454-.07593-.50975-.2111L1.46203 2.4615v3.99148c0 .19122-.07597.37461-.21118.50982-.13522.13522-.318605.21118-.509827.21118S.366411 7.09802.231196 6.9628c-.1352139-.13521-.2111765-.3186-.2111765-.50982V.721003c0-.191222.0759626-.374612.2111765-.509826C.366411.0759626.549801 0 .741023 0H6.473c.19122 0 .37461.0759626.50982.211177.13522.135214.21118.318604.21118.509826s-.07596.374617-.21118.509827c-.13521.13521-.3186.21118-.50982.21118H2.48152l5.90646 5.90645c.13517.13521.2111.31857.2111.50975 0 .19119-.07593.37454-.2111.50975Z" clip-rule="evenodd"/>
</svg>
