<svg xmlns="http://www.w3.org/2000/svg" fill="none" viewBox="0 0 29 23">
  <path fill="#2A2238" fill-rule="evenodd" d="M7.04014 5.45135c1.66383-2.01583 4.18226-3.29864 6.99826-3.29864 2.0912.00026 4.1182.72269 5.7382 2.04513 1.62 1.32245 2.7336 3.16376 3.1525 5.21261h1.8453c-.349-2.05675-1.2815-3.96997-2.6864-5.5121-1.405-1.54213-3.2233-2.64827-5.2387-3.186863-2.0154-.538595-4.1432-.486974-6.1301.148723-1.98694.6357-3.74948 1.82872-5.07799 3.43716-.08041.09125-.14166.19774-.18009.31314-.03843.11539-.05327.23734-.04363.35858.00964.12125.04356.23931.09975.34719.05619.10787.13349.20334.22732.28074.09382.07739.20225.13513.31884.16978.11658.03465.23895.0455.35981.03192.12087-.01359.23777-.05135.34375-.11102.10598-.05968.19888-.14005.27318-.23635ZM3.30242 13.0394H.491769c-.086192-.0001-.170591-.0246-.243314-.0709-.072723-.0463-.130759-.1123-.1673122-.1904-.0365536-.078-.0501114-.1649-.039086-.2504.0110254-.0854.0461777-.166.1013402-.2322L3.71057 8.0134c.04258-.05105.09585-.09212.15605-.12031.0602-.02818.12585-.04279.19233-.04279.06647 0 .13212.01461.19232.04279.0602.02819.11347.06926.15605.12031l3.56717 4.2821c.05517.0662.09032.1468.10134.2322.01103.0855-.00253.1724-.03908.2504-.03656.0781-.09459.1441-.16731.1904-.07273.0463-.15713.0708-.24332.0709H5.1477c.3435 1.6776 1.15462 3.2239 2.33966 4.46 1.18505 1.2363 2.69564 2.112 4.35734 2.526 1.6617.414 3.4066.3495 5.0331-.1861 1.6265-.5357 3.0684-1.5205 4.1589-2.8409.0743-.0963.1672-.1767.2732-.2363.1059-.0597.2228-.0975.3437-.1111.1209-.0135.2432-.0027.3598.032.1166.0346.225.0923.3189.1697.0938.0774.1711.1729.2273.2808s.0901.2259.0997.3472c.0097.1212-.0052.2432-.0436.3586-.0384.1153-.0997.2218-.1801.3131-1.3285 1.6084-3.091 2.8015-5.078 3.4371-1.9869.6357-4.1146.6874-6.1301.1488-2.0154-.5386-3.83372-1.6448-5.23866-3.1869-1.40494-1.5421-2.33738-3.4553-2.68642-5.512ZM27.5849 9.41051h-7.1344c-.0862.00003-.1706.02462-.2433.07089-.0727.04626-.1307.11229-.1673.19035-.0365.07805-.0501.16491-.0391.25039.0111.08546.0462.16606.1014.23226l3.5671 4.2821c.0426.051.0959.0921.1561.1203.0602.0282.1258.0428.1923.0428s.1321-.0146.1923-.0428c.0602-.0282.1135-.0693.1561-.1203l3.5672-4.2821c.0551-.0662.0903-.1468.1013-.23226.011-.08548-.0025-.17234-.0391-.25039-.0365-.07806-.0946-.14409-.1673-.19035-.0727-.04627-.1571-.07086-.2433-.07089Z" clip-rule="evenodd"/>
</svg>
