<svg xmlns="http://www.w3.org/2000/svg" fill="none" viewBox="0 0 29 25">
  <path fill="#2A2238" d="M.618896 3.57076c0-.94702.376205-1.85526 1.045854-2.52491C2.3344.376205 3.24263 3.2e-7 4.18966 3.2e-7H16.8302C17.3453-.0002172 17.8545.111049 18.3226.326159c.4681.215111.8842.528972 1.2196.920041l8.6466 10.0892c.2775.3236.4301.7359.4301 1.1623 0 .4263-.1526.8386-.4301 1.1623l-8.6449 10.0856c-.3352.3919-.7514.7066-1.2199.9223-.4684.2158-.9781.3275-1.4938.3274H4.18966c-.94703 0-1.85526-.3762-2.52491-1.0458-.669649-.6697-1.045854-1.5779-1.045854-2.5249V3.57076ZM18.212 8.66624c.083-.083.1489-.18153.1938-.28997.0449-.10845.068-.22467.068-.34205 0-.11738-.0231-.23361-.068-.34205-.0449-.10845-.1108-.20698-.1938-.28998-.083-.083-.1815-.14884-.2899-.19375-.1085-.04492-.2247-.06804-.3421-.06804s-.2336.02312-.342.06804c-.1085.04491-.207.11075-.29.19375l-3.8314 3.83321-3.83146-3.83321c-.083-.083-.18153-.14884-.28998-.19375-.10844-.04492-.22467-.06804-.34205-.06804-.11737 0-.2336.02312-.34205.06804-.10844.04491-.20697.11075-.28997.19375-.083.083-.14884.18153-.19376.28998-.04492.10844-.06804.22467-.06804.34205 0 .11738.02312.2336.06804.34205.04492.10844.11076.20697.19376.28997l3.83321 3.83146-3.83321 3.8314c-.16763.1676-.2618.395-.2618.632 0 .2371.09417.4644.2618.632.16762.1677.39497.2618.63202.2618.23706 0 .46441-.0941.63203-.2618l3.83146-3.8332 3.8314 3.8332c.1676.1677.395.2618.632.2618.2371 0 .4644-.0941.632-.2618.1677-.1676.2618-.3949.2618-.632 0-.237-.0941-.4644-.2618-.632l-3.8332-3.8314 3.8332-3.83146Z"/>
</svg>
