<svg xmlns="http://www.w3.org/2000/svg" fill="none" viewBox="0 0 28 28">
  <path fill="#2A2238" fill-rule="evenodd" d="M0 14C0 6.26801 6.26801 0 14 0c7.732 0 14 6.26801 14 14 0 7.732-6.268 14-14 14-7.73199 0-14-6.268-14-14Zm13.05-.6062 6.9-3.98373c.4667-.26943 1.05.06735 1.05.60623v7.9674c0 .5389-.5833.8757-1.05.6062l-6.9-3.9837c-.0173-.01-.034-.0205-.05-.0316v3.4091c0 .5389-.5833.8757-1.05.6062l-6.9-3.9837c-.46667-.2694-.46667-.943 0-1.2124l6.9-3.98373c.4667-.26943 1.05.06735 1.05.60623v3.4091c.016-.0111.0327-.0216.05-.0316Z" clip-rule="evenodd"/>
</svg>
