<svg xmlns="http://www.w3.org/2000/svg" fill="none" viewBox="0 0 29 26">
  <path fill="#2A2238" fill-rule="evenodd" d="M27.7791 1.38814C27.1095.71849 26.2012.342285 25.2542.342285H12.6137c-.5155.000224-1.0248.112046-1.4929.327781-.4682.215735-.8841.530264-1.21911.921984L1.25509 11.6759c-.277561.3236-.430139.7359-.430139 1.1623 0 .4263.152578.8386.430139 1.1623l8.6466 10.0909c.33541.3911.75141.705 1.21951.9201.4682.2151.9773.3263 1.4925.3261h12.6405c.947 0 1.8553-.3762 2.5249-1.0458.6696-.6697 1.0458-1.5779 1.0458-2.5249V3.91305c0-.94703-.3762-1.85526-1.0458-2.52491Zm-15.9124.90323c.2343-.10787.4891-.16372.747-.1637h12.6405c.4735 0 .9276.1881 1.2624.52292.3349.33483.523.78895.523 1.26246V21.7669c0 .4735-.1881.9276-.523 1.2624-.3348.3348-.7889.5229-1.2624.5229H12.6137c-.2576-.0002-.5121-.0562-.746-.164-.2339-.1079-.4417-.2651-.6091-.4608L2.61019 12.84 11.2568 2.75255c.1676-.19597.3757-.35331.6099-.46118Zm-.8272 5.74304c.045-.10845.111-.20696.1941-.28988h-.0018c.1674-.16736.3944-.26137.6311-.26137.2368 0 .4638.09401.6312.26137l3.8332 3.83317 3.8314-3.83317c.1676-.16739.3949-.26133.6318-.26117.2369.00017.464.09444.6314.26206.1674.16762.2613.39487.2611.63176-.0001.23689-.0944.46401-.262.6314L17.5896 12.84l3.8296 3.8314c.1676.1674.2619.3945.2621.6314.0001.2369-.0938.4642-.2612.6318-.1674.1676-.3945.2619-.6314.262-.2369.0002-.4641-.0937-.6318-.2611l-3.8314-3.8332-3.8332 3.8332c-.1676.1674-.3949.2613-.6318.2611-.1173 0-.2334-.0232-.3417-.0682-.1084-.0449-.2068-.1108-.2897-.1938-.0828-.083-.1486-.1815-.1934-.2899-.0448-.1084-.0678-.2246-.0677-.3419.0001-.2369.0944-.464.262-.6314l3.8332-3.8314-3.8296-3.83142c-.0831-.08293-.1491-.18144-.1941-.28989-.045-.10845-.0682-.22472-.0682-.34214s.0232-.23369.0682-.34214Z" clip-rule="evenodd"/>
</svg>
