<svg xmlns="http://www.w3.org/2000/svg" fill="none" viewBox="0 0 24 27">
  <path fill="#2A2238" fill-rule="evenodd" d="M15.1002 3.08771c-.7619-.76187-1.7952-1.18988-2.8727-1.18988-1.0774 0-2.1107.42801-2.87258 1.18988-.76187.76186-1.18988 1.79517-1.18988 2.87262v.8125H16.29v-.8125c0-1.07745-.428-2.11076-1.1898-2.87262Zm2.8148 2.87262v.8125h5.6875V23.0228c0 .862-.3424 1.6886-.9519 2.2981-.6095.6095-1.4361.9519-2.2981.9519H4.10254c-.86195 0-1.6886-.3424-2.2981-.9519-.60949-.6095-.951901-1.4361-.951901-2.2981V6.77283H6.54004v-.8125c0-1.50842.59922-2.95506 1.66583-4.02167C9.27248.872044 10.7191.272827 12.2275.272827c1.5085 0 2.9551.599217 4.0217 1.665833 1.0666 1.06661 1.6658 2.51325 1.6658 4.02167Zm4.0625 17.06247V8.39783H2.47754V23.0228c0 .431.1712.8443.47595 1.1491.30475.3047.71807.4759 1.14905.4759H20.3525c.431 0 .8443-.1712 1.1491-.4759.3047-.3048.4759-.7181.4759-1.1491ZM9.4787 13.3335c-.09871.0409-.18837.101-.26385.1766-.07566.0755-.1357.1652-.17666.2639-.04096.0987-.06204.2045-.06204.3114 0 .1069.02108.2127.06204.3114.04096.0987.101.1884.17666.2638l1.86385 1.8623-1.86385 1.8622c-.15256.1526-.23827.3595-.23827.5753 0 .2158.08571.4227.23827.5752.15257.1526.35949.2383.57525.2383.2158 0 .4227-.0857.5753-.2383l1.8622-1.8638 1.8623 1.8638c.1525.1526.3594.2383.5752.2383.2158 0 .4227-.0857.5753-.2383.1525-.1525.2382-.3594.2382-.5752 0-.2158-.0857-.4227-.2382-.5753l-1.8639-1.8622 1.8639-1.8623c.1525-.1525.2382-.3594.2382-.5752 0-.2158-.0857-.4227-.2382-.5753-.1526-.1525-.3595-.2382-.5753-.2382-.2158 0-.4227.0857-.5752.2382l-1.8623 1.8639-1.8622-1.8639c-.0755-.0756-.1652-.1357-.2639-.1766-.0987-.041-.20453-.0621-.3114-.0621-.10687 0-.21269.0211-.3114.0621Z" clip-rule="evenodd"/>
</svg>
