<svg xmlns="http://www.w3.org/2000/svg" fill="none" viewBox="0 0 24 27">
  <path fill="#2A2238" fill-rule="evenodd" d="M14.8502 3.08771c-.7619-.76187-1.7952-1.18988-2.8727-1.18988-1.0774 0-2.11072.42801-2.87258 1.18988-.76187.76186-1.18988 1.79517-1.18988 2.87262v.8125H16.04v-.8125c0-1.07745-.428-2.11076-1.1898-2.87262Zm2.8148 2.87262v.8125h5.6875V23.0228c0 .862-.3424 1.6886-.9519 2.2981-.6095.6095-1.4361.9519-2.2981.9519H3.85254c-.86195 0-1.6886-.3424-2.2981-.9519-.609491-.6095-.951901-1.4361-.951901-2.2981V6.77283H6.29004v-.8125c0-1.50842.59922-2.95506 1.66583-4.02167C9.02248.872044 10.4691.272827 11.9775.272827c1.5085 0 2.9551.599217 4.0217 1.665833 1.0666 1.06661 1.6658 2.51325 1.6658 4.02167Zm3.5866 18.21157c.3047-.3048.4759-.7181.4759-1.1491V8.39783H2.22754V23.0228c0 .431.1712.8443.47595 1.1491.30475.3047.71807.4759 1.14905.4759H20.1025c.431 0 .8443-.1712 1.1491-.4759ZM8.15302 15.9483c-.15238.1524-.23798.359-.23798.5745 0 .2155.0856.4222.23798.5746.15237.1523.35903.2379.57452.2379h6.49996c.2155 0 .4222-.0856.5746-.2379.1523-.1524.2379-.3591.2379-.5746 0-.2155-.0856-.4221-.2379-.5745-.1524-.1524-.3591-.238-.5746-.238H8.72754c-.21549 0-.42215.0856-.57452.238Z" clip-rule="evenodd"/>
</svg>
