<svg xmlns="http://www.w3.org/2000/svg" fill="none" viewBox="0 0 24 26">
  <path fill="#2A2238" fill-rule="evenodd" d="M15.835 5.6875c0-1.07744-.4281-2.11075-1.1899-2.87262-.7619-.76187-1.7952-1.18988-2.8726-1.18988-1.0775 0-2.11079.42801-2.87266 1.18988S7.70996 4.61006 7.70996 5.6875V6.5H15.835v-.8125Zm1.625 0V6.5h5.6875v16.25c0 .862-.3425 1.6886-.9519 2.2981-.6095.6095-1.4362.9519-2.2981.9519H3.64746c-.86195 0-1.6886-.3424-2.2981-.9519C.739871 24.4386.397461 23.612.397461 22.75V6.5H6.08496v-.8125c0-1.50842.59922-2.95506 1.66583-4.02167C8.8174.599217 10.264 0 11.7725 0c1.5084 0 2.955.599217 4.0216 1.66583C16.8607 2.73244 17.46 4.17908 17.46 5.6875ZM21.5225 22.75V8.125H2.02246V22.75c0 .431.17121.8443.47595 1.149.30475.3048.71807.476 1.14905.476H19.8975c.4309 0 .8443-.1712 1.149-.476.3048-.3047.476-.718.476-1.149Zm-9.75-9.7614c2.704-2.7803 9.4656 2.0849 0 8.3395-9.46566-6.2562-2.70404-11.1198 0-8.3395Z" clip-rule="evenodd"/>
</svg>
