<svg xmlns="http://www.w3.org/2000/svg" fill="none" viewBox="0 0 24 26">
  <path fill="#2A2238" d="M12.2725 1.625c1.0774 0 2.1107.42801 2.8726 1.18988.7618.76187 1.1899 1.79518 1.1899 2.87262V6.5H8.20996v-.8125c0-1.07744.42801-2.11075 1.18988-2.87262C10.1617 2.05301 11.195 1.625 12.2725 1.625ZM17.96 6.5v-.8125c0-1.50842-.5993-2.95506-1.6659-4.02167C15.2275.599217 13.7809 0 12.2725 0 10.764 0 9.3174.599217 8.25079 1.66583 7.18418 2.73244 6.58496 4.17908 6.58496 5.6875V6.5H.897461v16.25c0 .862.342409 1.6886.951899 2.2981.6095.6095 1.43615.9519 2.2981.9519H20.3975c.8619 0 1.6886-.3424 2.2981-.9519.6094-.6095.9519-1.4361.9519-2.2981V6.5H17.96Z"/>
</svg>
