<svg xmlns="http://www.w3.org/2000/svg" fill="none" viewBox="0 0 19 29">
  <path fill="#2A2238" fill-rule="evenodd" d="M9.27161 18.0914c4.27199-.8497 7.11099-4.4515 7.11099-8.86032 0-1.88597-.7492-3.69468-2.0827-5.02826-1.3336-1.33358-3.1423-2.08278-5.02829-2.08278-1.88597 0-3.69469.7492-5.02827 2.08278C2.90977 5.5364 2.16057 7.34511 2.16057 9.23108c0 4.40882 2.83908 8.01062 7.11104 8.86032Zm8.88879-8.86032c0 5.04352-3.1804 9.29232-8.0355 10.49052l.4338.8658c.0528.1056.0615.2279.0242.3399-.0374.112-.1177.2046-.2233.2574-.1056.0528-.2279.0615-.3399.0242-.11203-.0374-.20463-.1177-.25743-.2233l-.01423-.0302c.01423.1955.03556.3591.06578.5155.096.48.28618.8676.74488 1.7831.512 1.0276.4178 2.0445.1351 2.896-.2791.8338-.7502 1.5413-1.04531 1.9822l-.00711.0125c-.03245.0485-.07415.0902-.12271.1226-.04856.0325-.10305.0551-.16033.0664-.05728.0114-.11625.0114-.17353 0-.05728-.0114-.11175-.0339-.16031-.0664-.04856-.0324-.09025-.0741-.1227-.1227-.03244-.0486-.05501-.103-.0664-.1603-.01139-.0573-.01138-.1163.00001-.1735.0114-.0573.03397-.1118.06642-.1604.29866-.448.71111-1.0666.94755-1.7831.23642-.704.28982-1.4648-.08711-2.215l-.02312-.0498c-.42666-.8533-.67554-1.3476-.79643-1.9591-.04981-.2641-.0807-.5315-.09244-.8l-.07111.1422c-.02588.0527-.06191.0997-.10603.1383-.04412.0387-.09546.0682-.15105.0869-.05558.0187-.11433.0262-.17284.0221-.05851-.0041-.11563-.0197-.16807-.046-.05244-.0262-.09916-.0626-.13746-.1071-.03831-.0444-.06744-.0959-.08572-.1517-.01829-.0557-.02536-.1145-.02081-.173.00455-.0585.02064-.1155.04732-.1677l.43377-.8658C3.56322 18.5234.382812 14.2746.382812 9.23108c0-2.35746.936498-4.61836 2.603468-6.28533C4.65325 1.27878 6.91415.342285 9.27161.342285c2.35749 0 4.61839.936495 6.28529 2.603465 1.667 1.66697 2.6035 3.92787 2.6035 6.28533ZM5.82631 8.35109c.15845-.61825.48016-1.18255.93146-1.63385.4513-.4513 1.0156-.773 1.63384-.93146.47644-.12089.88-.50844.88-.9991s-.40178-.89599-.88533-.81599c-1.09296.18497-2.10123.70557-2.8849 1.48956-.78367.78399-1.30386 1.79247-1.48838 2.8855-.08178.48355.32355.88533.81421.88533s.87821-.40355.9991-.87999Z" clip-rule="evenodd"/>
</svg>
