<svg xmlns="http://www.w3.org/2000/svg" fill="none" viewBox="0 0 22 29">
  <path fill="#2A2238" fill-rule="evenodd" d="M12.0331 19.7553c19.417-13.40098 4.96-23.65702-.8711-17.66055-5.83294-5.99647-20.28989 4.25957-.8711 17.66055l-.41604.832c-.02615.0523-.04174.1092-.04589.1675-.00414.0583.00324.1169.02173.1724.03734.112.11766.2046.2233.2574.1056.0528.2279.0615.3399.0242.112-.0374.2046-.1177.2574-.2233l.0711-.1422c.016.3022.0427.56.0907.8.1209.6115.3698 1.1058.7964 1.9591l.0231.0498c.3769.7502.3236 1.5111.0889 2.2151-.24.7147-.6506 1.3351-.9493 1.7831-.0655.0981-.0894.2182-.0664.3339.023.1157.091.2175.1891.283.098.0656.2181.0894.3338.0664.1157-.023.2175-.091.2831-.1891l.0071-.0124c.2951-.4409.7662-1.1484 1.0453-1.9822.2845-.8516.3769-1.8685-.1351-2.896-.4587-.9156-.6489-1.3014-.7449-1.7849-.0324-.1698-.0544-.3414-.0658-.5138l.0142.0302c.0529.1056.1455.1859.2575.2233.112.0373.2343.0286.3399-.0242.1056-.0528.1859-.1454.2232-.2574.0374-.112.0287-.2343-.0241-.3399l-.4178-.832h.0018ZM8.89708 2.59786C6.8224 1.51341 3.91928 2.34542 2.7566 4.61565c-.42133.82311-.64 1.92001-.35911 3.2889.09778.48001.83023.35023.93689-.12622.50667-2.2329 2.09246-4.37691 5.31381-4.49424.416-.01422.61867-.49423.24889-.68623Z" clip-rule="evenodd"/>
</svg>
