<svg xmlns="http://www.w3.org/2000/svg" fill="none" viewBox="0 0 22 29">
  <path fill="#2A2238" fill-rule="evenodd" d="M10.8268 4.64479 9.55221 3.3346C7.54338 1.27065 3.78702 1.9533 2.4235 4.61457c-.62221 1.21774-.80176 3.03459.41955 5.44343 1.1573 2.2897 3.57502 5.0754 7.98375 8.1367 4.4071-3.0631 6.8248-5.8488 7.9839-8.1367 1.2213-2.40884 1.0435-4.22569.4195-5.44166-1.3635-2.66304-5.1199-3.34569-7.1287-1.28174l-1.2747 1.31019ZM9.95576 19.7555C-9.20821 6.52919 4.62256-3.63056 10.594 1.86619c.08.07289.1582.14933.2346.22933.0765-.08.1547-.15644.2347-.22933 5.9732-5.49675 19.7986 4.66477.6346 17.88931l.4178.832c.0262.0523.0417.1092.0459.1676.0041.0583-.0032.1168-.0217.1723-.0185.0555-.0478.1067-.0861.1509-.0383.0442-.0849.0804-.1372.1065-.0523.0262-.1092.0418-.1675.0459-.0584.0042-.1169-.0032-.1724-.0217-.0555-.0185-.1067-.0477-.1509-.086-.0442-.0384-.0804-.085-.1065-.1373l-.0142-.0302c.0142.1955.0355.3591.0657.5155.096.48.2863.8676.7449 1.7831.512 1.0275.4178 2.0444.1351 2.8959-.2791.8338-.7502 1.5413-1.0453 1.9822l-.0071.0125c-.0325.0485-.0742.0902-.1227.1226-.0486.0325-.1031.0551-.1603.0664-.0573.0114-.1163.0114-.1736 0-.0572-.0114-.1117-.0339-.1603-.0664-.0485-.0324-.0902-.0741-.1227-.1227-.0324-.0486-.055-.103-.0664-.1603-.0114-.0573-.0114-.1163 0-.1735.0114-.0573.034-.1118.0665-.1604.2986-.4479.7111-1.0666.9475-1.783.2364-.704.2898-1.4649-.0871-2.2151l-.0231-.0498c-.4267-.8533-.6756-1.3475-.7965-1.959-.0498-.2641-.0807-.5315-.0924-.8l-.0711.1422c-.0259.0527-.0619.0997-.106.1383-.0442.0387-.0955.0682-.1511.0869-.0556.0187-.1143.0262-.17281.0221-.05851-.0041-.11563-.0197-.16807-.046s-.09916-.0626-.13746-.1071c-.03831-.0444-.06744-.0959-.08572-.1517-.01829-.0557-.02535-.1145-.0208-.173.00455-.0585.02062-.1155.04731-.1677l.41777-.832h-.00356ZM7.29449 4.0048c-1.15375-.31999-2.63638.14756-3.28881 1.41864-.23288.45865-.43554 1.22485-.14221 2.37327.11199.43377.73598.35199.86575-.07644.37333-1.23908 1.11464-2.57238 2.41594-3.00793.38577-.12977.54043-.59909.14933-.70754Z" clip-rule="evenodd"/>
</svg>
