<svg xmlns="http://www.w3.org/2000/svg" fill="none" viewBox="0 0 28 28">
  <path fill="#2A2238" d="M4 2.8c0-.74261.31607-1.4548.87868-1.979899C5.44129.294999 6.20435 0 7 0h2c.79565 0 1.5587.294999 2.1213.820101C11.6839 1.3452 12 2.05739 12 2.8v4.66667h4V2.8c0-.74261.3161-1.4548.8787-1.979899C17.4413.294999 18.2044 0 19 0h2c.7956 0 1.5587.294999 2.1213.820101C23.6839 1.3452 24 2.05739 24 2.8v4.4464c0 .17319.0516.34296.1491.49032s.237.26649.4029.34408l1.79.8344c.4984.23265.9174.59024 1.2103 1.0327.2928.4425.4479.9523.4477 1.4724V25.2c0 .7426-.3161 1.4548-.8787 1.9799C26.5587 27.705 25.7956 28 25 28h-6c-.7956 0-1.5587-.295-2.1213-.8201C16.3161 26.6548 16 25.9426 16 25.2v-5.6c-.0002-.1226.0254-.2441.0755-.3575.0501-.1134.1237-.2165.2165-.3033L18 17.3469v-1.4802c0-.2476-.1054-.485-.2929-.66-.1875-.175-.4419-.2734-.7071-.2734h-6c-.2652 0-.5196.0984-.7071.2734s-.2929.4124-.2929.66v1.4802l1.708 1.5923c.0928.0868.1664.1899.2165.3033.0501.1134.0757.2349.0755.3575v5.6c0 .7426-.3161 1.4548-.8787 1.9799C10.5587 27.705 9.79565 28 9 28H3c-.79565 0-1.55871-.295-2.12132-.8201C.316071 26.6548 0 25.9426 0 25.2V11.4203C.00001883 10.9.155345 10.39.448556 9.94755.741768 9.50507 1.16127 9.14759 1.66 8.9152l1.788-.8344c.16589-.07759.30539-.19672.40287-.34408.09749-.14736.14912-.31713.14913-.49032V2.8Zm3-.93333c-.26522 0-.51957.09833-.70711.27336C6.10536 2.31507 6 2.55246 6 2.8v.93333h4V2.8c0-.24754-.10536-.48493-.29289-.65997C9.51957 1.965 9.26522 1.86667 9 1.86667H7ZM10 5.6H6v1.6464c-.00002.52027-.15535 1.03024-.44856 1.47272S4.83873 9.51908 4.34 9.75147l-1.788.83443c-.16589.0776-.30539.1967-.40287.3441-.09749.1473-.14912.3171-.14913.4903V22.4h8v-2.4136l-1.708-1.5923c-.0928-.0868-.16636-.1899-.21646-.3032-.05011-.1134-.07577-.2349-.07554-.3576v-1.8666c0-.7426.31607-1.4548.87868-1.9799.56261-.5251 1.32572-.8201 2.12132-.8201h6c.7956 0 1.5587.295 2.1213.8201.5626.5251.8787 1.2373.8787 1.9799v1.8666c.0002.1227-.0254.2442-.0755.3576-.0501.1133-.1237.2164-.2165.3032L18 19.9864V22.4h8V11.4203c0-.1732-.0516-.343-.1491-.4903-.0975-.1474-.237-.2665-.4029-.3441l-1.79-.83443c-.4984-.23265-.9174-.59024-1.2103-1.0327-.2928-.44246-.4479-.9523-.4477-1.47237V5.6h-4v2.8c0 .24754-.1054.48493-.2929.65997-.1875.17503-.4419.27336-.7071.27336h-6c-.2652 0-.5196-.09833-.7071-.27336C10.1054 8.88493 10 8.64754 10 8.4V5.6Zm8-1.86667h4V2.8c0-.24754-.1054-.48493-.2929-.65997-.1875-.17503-.4419-.27336-.7071-.27336h-2c-.2652 0-.5196.09833-.7071.27336C18.1054 2.31507 18 2.55246 18 2.8v.93333Zm8 20.53337h-8V25.2c0 .2475.1054.4849.2929.66.1875.175.4419.2733.7071.2733h6c.2652 0 .5196-.0983.7071-.2733.1875-.1751.2929-.4125.2929-.66v-.9333Zm-16 0H2V25.2c0 .2475.10536.4849.29289.66.18754.175.44189.2733.70711.2733h6c.26522 0 .51957-.0983.70711-.2733.18753-.1751.29289-.4125.29289-.66v-.9333Z"/>
</svg>
