<svg xmlns="http://www.w3.org/2000/svg" fill="none" viewBox="0 0 28 28">
  <path fill="#2A2238" fill-rule="evenodd" d="M12.6088.600118c.1783-.18941.3937-.340404.6329-.44363C13.481.053262 13.739 0 13.9997 0c.2608 0 .5188.053262.758.156488.2393.103226.4547.25422.6329.44363L27.4798 13.4346c1.1432 1.2095.2782 3.1906-1.3908 3.1906h-5.4207v1.8958c0 .5028-.2007.985-.558 1.3406-.3573.3555-.842.5552-1.3473.5552H9.23643c-.50532 0-.98995-.1997-1.34726-.5552-.35732-.3556-.55806-.8378-.55806-1.3406v-1.8958H1.90858c-1.665246 0-2.53026-1.9811-1.39088-3.1925L12.6088.600118ZM26.0909 14.7295 13.9997 1.89684 1.90858 14.7295h5.42253c.50532 0 .98995.1997 1.34727.5552.35731.3556.55805.8378.55805 1.3405v1.8958H18.763v-1.8958c0-.5027.2008-.9849.5581-1.3405.3573-.3555.8419-.5552 1.3472-.5552h5.4226ZM7.33111 24.2084c0-.5028.20074-.985.55806-1.3405.35731-.3555.84194-.5553 1.34726-.5553H18.763c.5053 0 .99.1998 1.3473.5553.3573.3555.558.8377.558 1.3405v1.8958c0 .5028-.2007.985-.558 1.3405-.3573.3556-.842.5553-1.3473.5553H9.23643c-.50532 0-.98995-.1997-1.34726-.5553-.35732-.3555-.55806-.8377-.55806-1.3405v-1.8958Zm11.43189 0H9.23643v1.8958H18.763v-1.8958Z" clip-rule="evenodd"/>
</svg>
