<svg xmlns="http://www.w3.org/2000/svg" fill="none" viewBox="0 0 19 20">
  <path fill="#2A2238" d="M3.77344 17.2102c.24062 0 .47031.0656.66719.1804.06015.0328.11484.0766.16953.1149 1.42187.9515 3.12265 1.5094 4.93828 1.5094 5.04216.0164 9.13276-4.2383 9.13276-9.49927 0-4.58828-3.1226-8.41641-7.2679-9.313286C10.8063.0710936 10.1883 0 9.54297 0 4.49531 0 .295313 4.09063.295313 9.35157c0 .83673.251564 1.96333.421095 2.58123.169531.618.393752 1.2305.453902 1.3891.06016.1586.09297.3336.09297.5086 0 .1969-.03828.3828-.10937.5523L.0546875 17.4836S0 17.6149 0 17.6969c0 .2406.191406.4375.4375.4375.054687 0 .147657-.0274.147657-.0274l3.188283-.8968Z"/>
</svg>
