<svg xmlns="http://www.w3.org/2000/svg" fill="none" viewBox="0 0 28 28">
  <path fill="#2A2238" fill-rule="evenodd" d="M28 14c0 7.732-6.268 14-14 14-7.73199 0-14-6.268-14-14C0 6.26801 6.26801 0 14 0c7.732 0 14 6.26801 14 14ZM14 4.25c.4142 0 .75.33579.75.75v8.5c0 .022-.0009.0438-.0028.0654l6.989 4.0351c.3587.2071.4816.6658.2745 1.0245-.2071.3587-.6658.4816-1.0245.2745l-7.3612-4.25c-.3181-.1837-.4508-.5652-.3323-.8994-.0276-.0782-.0427-.1624-.0427-.2501V5c0-.41421.3358-.75.75-.75Z" clip-rule="evenodd"/>
</svg>
