<svg xmlns="http://www.w3.org/2000/svg" fill="none" viewBox="0 0 28 28">
  <path fill="#2A2238" d="M7.26788 20.5558c.1091.0387.20995.1.29681.1803.08685.0803.15799.178.20935.2876.05137.1096.08195.2289.09.3511.00805.1222-.0066.2449-.04309.3611l-.87511 2.7965c-.07967.2256-.23833.4096-.44267.5134-.20433.1037-.43844.119-.65317.0428-.21473-.0763-.39337-.2382-.49842-.4517-.10505-.2136-.12833-.4622-.06495-.6937l.87511-2.7964c.07313-.2346.23074-.4287.43818-.5395.20743-.1108.4477-.1294.66796-.0515Zm10.50132 0c.1091.0387.21.1.2968.1803.0869.0803.158.178.2094.2876.0513.1096.0819.2289.09.3511.008.1222-.0066.2449-.0431.3611l-.8751 2.7965c-.0797.2256-.2384.4096-.4427.5134-.2043.1037-.4384.119-.6532.0428-.2147-.0763-.3933-.2382-.4984-.4517-.105-.2136-.1283-.4622-.0649-.6937l.8751-2.7964c.0731-.2346.2307-.4287.4381-.5395.2075-.1108.4477-.1294.668-.0515Zm-6.1258 2.7965c.1091.0387.21.1.2968.1803.0869.0803.158.178.2094.2876.0514.1096.0819.2289.09.3511.008.1222-.0066.2449-.0431.3611l-.8751 2.7964c-.0797.2257-.2383.4097-.4427.5134-.2043.1037-.4384.1191-.6531.0428-.2148-.0762-.39342-.2381-.49847-.4517-.10504-.2135-.12832-.4621-.06495-.6936l.87512-2.7965c.0731-.2346.2307-.4286.4382-.5394.2074-.1109.4477-.1294.6679-.0515Zm10.5014 0c.109.0387.2099.1.2968.1803.0868.0803.158.178.2093.2876.0514.1096.082.2289.09.3511.0081.1222-.0066.2449-.0431.3611l-.8751 2.7964c-.0329.1204-.0884.2325-.1629.3295-.0746.097-.1668.177-.271.2352-.1043.0582-.2185.0934-.3359.1035-.1173.0101-.2354-.0052-.347-.0448-.1117-.0397-.2147-.1029-.3029-.186-.0882-.083-.1598-.1842-.2104-.2974-.0506-.1132-.0793-.2361-.0843-.3614-.005-.1252.0138-.2503.0552-.3677l.8751-2.7965c.0731-.2346.2308-.4286.4382-.5394.2074-.1109.4477-.1294.668-.0515Zm1.3074-15.84302c-.3635-1.95164-1.3036-3.72824-2.6828-5.07005C19.3902 1.09742 17.6442.26079 15.7866.0516563 13.9291-.157478 12.0574.271858 10.4453 1.27689 8.83325 2.28192 7.56528 3.80993 6.82682 5.63751c-.82813-.10162-1.66703-.02213-2.46532.23361-.7983.25574-1.53919.68235-2.17732 1.2537-.63812.57135-1.16006 1.27542-1.533846 2.06911-.373787.79369-.5915611 1.66027-.6399883 2.54677-.0484271.8864.0735116 1.7741.3583503 2.6086.284839.8345.726584 1.5983 1.298194 2.2447.5716.6463 1.26104 1.1616 2.0261 1.5142.76505.3527 1.58963.5353 2.42325.5367H22.7433c1.3321.0016 2.615-.5362 3.5888-1.5044.9738-.9682 1.5657-2.2945 1.6559-3.7102.0901-1.4157-.3283-2.815-1.1705-3.91438-.8422-1.09939-2.0452-1.8167-3.3653-2.00664Zm-8.5849-5.64329c1.7222-.00038 3.384.67539 4.6678 1.89809 1.2838 1.2227 2.0995 2.90654 2.2911 4.72956.0238.22905.1264.44059.288.5938.1616.15321.3708.23722.5871.23582h.042c.9284 0 1.8188.39284 2.4752 1.09214.6565.6992 1.0253 1.6476 1.0253 2.6365 0 .9889-.3688 1.9373-1.0253 2.6365-.6564.6993-1.5468 1.0921-2.4752 1.0921H6.11624c-.61945-.0003-1.23178-.1407-1.79647-.412-.56469-.2712-1.06888-.667-1.47922-1.1613-.41034-.4943-.71747-1.0758-.90107-1.706-.1836-.6302-.2395-1.2947-.16399-1.9496s.28071-1.2853.60202-1.84942c.32131-.56413.75141-1.04915 1.26184-1.42299.51044-.37384 1.08957-.62798 1.6991-.7456.60953-.11761 1.23556-.09603 1.83667.06332.21445.05697.4412.0254.6347-.08838.1935-.11377.33941-.30133.40843-.52498.46255-1.48927 1.354-2.78536 2.54765-3.70407 1.1937-.91871 2.6288-1.4133 4.1014-1.41349Z"/>
</svg>
