<svg xmlns="http://www.w3.org/2000/svg" fill="none" viewBox="0 0 21 28">
  <mask id="a" fill="#fff">
    <path fill-rule="evenodd" d="M10.4237.0208304C8.67393.558527 1.49328 11.3769.449119 17.4426-.613307 23.6144 5.27937 27.9308 10.4237 27.9992V28c.0206 0 .0412-.0001.0619-.0002.0206.0001.0413.0002.0619.0002v-.0008c5.1443-.0684 11.037-4.3848 9.9745-10.5566C19.4779 11.3769 12.2972.558527 10.5475.0208304V0c-.0196 0-.0403.00191666-.0619.00571378C10.4639.00191666 10.4433 0 10.4237 0v.0208304Z" clip-rule="evenodd"/>
  </mask>
  <path fill="#2A2238" d="m.449119 17.4426 1.478261.2545-1.478261-.2545ZM10.4237.0208304l.4406 1.4338296 1.0594-.32555V.0208304h-1.5Zm0 27.9783696h1.5V26.519l-1.4801-.0197-.0199 1.4999Zm0 .0008H8.92367v1.5h1.50003V28Zm.0619-.0002.01-1.5h-.02l.01 1.5Zm.0619.0002v1.5h1.5V28h-1.5Zm0-.0008-.02-1.4999-1.48002.0197v1.4802h1.50002Zm9.9745-10.5566 1.4783-.2544-1.4783.2544ZM10.5475.0208304H9.04748V1.12911l1.05942.32555.4406-1.4338296ZM10.5475 0h1.5v-1.5h-1.5V0Zm-.0619.00571378L10.2264 1.48315l.2592.04547.2592-.04547-.2592-1.47743622ZM10.4237 0v-1.5H8.92367V0h1.50003ZM1.92738 17.6971c.47128-2.7378 2.39773-6.7554 4.52641-10.2596 1.04833-1.7257 2.10805-3.26517 2.99718-4.39099.44645-.56529.83123-1.00251 1.13533-1.30105.1523-.14952.2657-.24571.3408-.30132.0925-.06841.0639-.02844-.0628.01052L9.98305-1.413c-.34547.10617-.63515.29368-.84065.445772-.22279.164895-.44413.362194-.65765.571796-.42755.4196979-.89899.963277-1.3881 1.582602-.98199 1.2434-2.11077 2.88846-3.20684 4.69278C1.72969 9.43584-.45627 13.8603-1.02914 17.1882l2.95652.5089Zm8.51622 8.8022c-2.19349-.0292-4.59518-.9777-6.30891-2.584-1.68258-1.5771-2.63843-3.7138-2.20731-6.2182l-2.95652-.5089c-.63131 3.6674.827967 6.7748 3.1122 8.9159 2.25307 2.1119 5.36987 3.3557 8.32064 3.3949l.0399-2.9997Zm-1.51993 1.4999V28h3.00003v-.0008H8.92367ZM10.4237 29.5c.0239 0 .0479-.0001.0719-.0002l-.02-3c-.0173.0001-.0346.0002-.0519.0002v3Zm.1238-3c-.0173 0-.0346-.0001-.0519-.0002l-.02 3c.024.0001.0479.0002.0719.0002v-3Zm-1.50002 1.4992V28h3.00002v-.0008H9.04748Zm1.51992 1.4998c2.9508-.0392 6.0676-1.283 8.3207-3.3949 2.2842-2.1411 3.7435-5.2485 3.1122-8.9159l-2.9565.5089c.4311 2.5044-.5248 4.6411-2.2073 6.2182-1.7138 1.6063-4.1155 2.5548-6.309 2.584l.0399 2.9997Zm11.4329-12.3108c-.5729-3.3279-2.7588-7.75236-4.919-11.30825-1.096-1.80432-2.2248-3.44938-3.2068-4.69278-.4891-.619325-.9605-1.162904-1.3881-1.582602-.2135-.209602-.4349-.406901-.6577-.571796-.2054-.152092-.4951-.339602-.8406-.445772l-.8812 2.86766c-.12679-.03896-.15532-.07893-.0629-.01052.0751.05561.1885.1518.3408.30132.3042.29854.6889.73576 1.1354 1.30105.8891 1.12582 1.9488 2.66529 2.9972 4.39099 2.1286 3.5042 4.0551 7.5218 4.5264 10.2596l2.9565-.5089ZM9.04748 0v.0208304h3.00002V0H9.04748Zm1.69732 1.48315c-.0531.00931-.1197.01685-.1973.01685v-3c-.1169 0-.2248.01138-.3211.02827l.5184 2.95488Zm0-2.95488c-.0964-.01689-.2042-.02827-.3211-.02827v3c-.0777 0-.1443-.00754-.1973-.01685l.5184-2.95488ZM8.92367 0v.0208304h3.00003V0H8.92367Z" mask="url(#a)"/>
</svg>
