<svg xmlns="http://www.w3.org/2000/svg" fill="none" viewBox="0 0 29 29">
  <path fill="#2A2238" fill-rule="evenodd" d="M24.6985 4.89952c5.4673 5.46738 5.4673 14.33168 0 19.79898-5.4674 5.4673-14.3317 5.4673-19.79901 0-5.467335-5.4673-5.467335-14.3316 0-19.79898 5.46731-5.467344 14.33161-5.467344 19.79901 0ZM8.61181 20.9862c-.2929-.2929-.2929-.7678 0-1.0607l5.12649-5.1265-4.41939-4.4194c-.29289-.2929-.29289-.76777 0-1.06067.2929-.29289.76779-.29289 1.06069 0l4.4194 4.41947 4.4194-4.41947c.2929-.29289.7678-.29289 1.0607 0 .2929.2929.2929.76777 0 1.06067l-4.4195 4.4194 5.1266 5.1265c.2929.2929.2929.7678 0 1.0607-.2929.2929-.7678.2929-1.0607 0l-5.1265-5.1265-5.12653 5.1265c-.2929.2929-.76777.2929-1.06066 0Z" clip-rule="evenodd"/>
</svg>
