<svg xmlns="http://www.w3.org/2000/svg" fill="none" viewBox="0 0 28 28">
  <path fill="#2A2238" d="M5.33831 22.662c-2.29732-2.2974-3.58794-5.4132-3.58794-8.6621 0-3.2489 1.29062-6.36474 3.58794-8.66206S10.7515 1.7499 14.0004 1.7499c3.2489 0 6.3647 1.29062 8.662 3.58794 2.2973 2.29732 3.588 5.41316 3.588 8.66206s-1.2907 6.3647-3.588 8.6621c-2.2973 2.2973-5.4131 3.5879-8.662 3.5879-3.2489 0-6.36477-1.2906-8.66209-3.5879Zm-1.23744 1.2374c2.62551 2.6255 6.18643 4.1005 9.89953 4.1005 3.713 0 7.274-1.475 9.8995-4.1005 2.6255-2.6255 4.1005-6.1865 4.1005-9.8995s-1.475-7.27398-4.1005-9.89949C21.2744 1.4749 17.7134-.00009783 14.0004-.00009783c-3.7131 0-7.27402 1.47499783-9.89953 4.10050783C1.47536 6.72592.00036703 10.2869.00036703 13.9999S1.47536 21.2739 4.10087 23.8994Z"/>
  <path fill="#2A2238" d="M22.3011 13.9999c.0001-.1151-.0224-.2291-.0664-.3354-.044-.1064-.1085-.203-.1899-.2844-.0814-.0814-.178-.1459-.2844-.1899-.1063-.044-.2203-.0665-.3354-.0664H6.57575c-.11506 0-.22898.0227-.33528.0667-.10629.044-.20287.1086-.28422.1899-.08136.0814-.14589.1779-.18992.2842-.04403.1063-.06669.2203-.06669.3353 0 .2324.0923.4552.25661.6195.08135.0814.17793.1459.28422.1899.1063.0441.22022.0667.33528.0667H21.425c.1151.0002.2291-.0224.3354-.0664.1064-.044.203-.1085.2844-.1899.0814-.0813.1459-.178.1899-.2843.044-.1064.0665-.2204.0664-.3355Z"/>
</svg>
