<svg xmlns="http://www.w3.org/2000/svg" fill="none" viewBox="0 0 28 28">
  <path fill="#2A2238" fill-rule="evenodd" d="M23.8995 23.8995c5.4673-5.4673 5.4673-14.33165 0-19.79899s-14.33166-5.46735-19.799 0c-5.46733 5.46734-5.46733 14.33169 0 19.79899 5.46734 5.4673 14.3317 5.4673 19.799 0Zm-16.08668-4.773c-.2929.2929-.2929.7678 0 1.0607.29289.2929.76776.2929 1.06066 0L19.4801 9.58058c.2929-.29289.2929-.76776 0-1.06066-.2929-.29289-.7678-.29289-1.0607 0L7.81282 19.1265ZM12 10.5c0 .8284-.6716 1.5-1.5 1.5-.82847 0-1.50004-.6716-1.50004-1.5 0-.82843.67157-1.5 1.50004-1.5.8284 0 1.5.67157 1.5 1.5Zm5.5 8.5c.8284 0 1.5-.6716 1.5-1.5s-.6716-1.5-1.5-1.5c-.8285 0-1.5.6716-1.5 1.5s.6715 1.5 1.5 1.5Z" clip-rule="evenodd"/>
</svg>
