<svg xmlns="http://www.w3.org/2000/svg" fill="none" viewBox="0 0 29 28">
  <path fill="#2A2238" fill-rule="evenodd" d="M14.6667 26.25c-3.2489 0-6.36469-1.2906-8.66201-3.5879C3.70737 20.3647 2.41675 17.2489 2.41675 14c0-3.2489 1.29062-6.36474 3.58794-8.66206S11.4178 1.75 14.6667 1.75c3.2489 0 6.3648 1.29062 8.6621 3.58794C25.6261 7.63526 26.9167 10.7511 26.9167 14s-1.2906 6.3647-3.5879 8.6621c-2.2973 2.2973-5.4132 3.5879-8.6621 3.5879Zm0 1.75c3.7131 0 7.274-1.475 9.8995-4.1005C27.1918 21.274 28.6667 17.713 28.6667 14s-1.4749-7.27398-4.1005-9.89949C21.9407 1.475 18.3798 0 14.6667 0c-3.713 0-7.27394 1.475-9.89945 4.10051C2.14174 6.72602.666748 10.287.666748 14s1.474992 7.274 4.100502 9.8995C7.39276 26.525 10.9537 28 14.6667 28Zm0-4.375c-2.5527 0-5.00082-1.0141-6.80585-2.8191-1.80504-1.805-2.8191-4.2532-2.8191-6.8059 0-2.5527 1.01406-5.00087 2.8191-6.8059C9.66588 5.38906 12.114 4.375 14.6667 4.375c2.5528 0 5.0009 1.01406 6.806 2.8191 1.805 1.80503 2.819 4.2532 2.819 6.8059 0 2.5527-1.014 5.0009-2.819 6.8059-1.8051 1.805-4.2532 2.8191-6.806 2.8191Zm0 .875c1.3789 0 2.7443-.2716 4.0182-.7993 1.2739-.5276 2.4315-1.3011 3.4065-2.2761.975-.975 1.7484-2.1325 2.2761-3.4064.5277-1.2739.7992-2.6393.7992-4.0182 0-1.3789-.2715-2.7443-.7992-4.01818-.5277-1.27392-1.3011-2.43143-2.2761-3.40644-.975-.97502-2.1326-1.74844-3.4065-2.27612C17.411 3.77159 16.0456 3.5 14.6667 3.5c-2.7847 0-5.45544 1.10625-7.42457 3.07538C5.27299 8.54451 4.16675 11.2152 4.16675 14c0 2.7848 1.10624 5.4555 3.07538 7.4246C9.21126 23.3938 11.882 24.5 14.6667 24.5Zm-2.7028-9.8175H9.66675v-1.134h2.00785c-.238-.854-.4655-1.7173-.4655-2.6215 0-2.42083 1.8001-3.927 4.697-3.927.8759.00571 1.7418.18659 2.5468.532v1.52717c-.7723-.34623-1.6072-.53084-2.4535-.5425-1.7885 0-3.01.924-3.01 2.41033 0 .924.217 1.778.434 2.6215h4.1172v1.134h-3.8384c.1144.5122.196 1.0348.196 1.5773 0 1.456-.3616 2.5305-1.3241 3.143v.1505h6.426V21H9.76008v-1.4163c1.56212-.3209 2.42082-1.617 2.42082-3.2329 0-.5728-.0828-1.1258-.217-1.6683Z" clip-rule="evenodd"/>
</svg>
