<svg xmlns="http://www.w3.org/2000/svg" fill="none" viewBox="0 0 22 28">
  <path fill="#2A2238" d="M21.6226 24.5V7.875L13.7476 0H4.12256c-.92826 0-1.8185.368749-2.47488 1.02513C.991307 1.6815.622559 2.57174.622559 3.5v21c0 .9283.368748 1.8185 1.025121 2.4749C2.30406 27.6313 3.1943 28 4.12256 28H18.1226c.9282 0 1.8185-.3687 2.4748-1.0251.6564-.6564 1.0252-1.5466 1.0252-2.4749Zm-7.875-19.25c0 .69619.2765 1.36387.7688 1.85616.4923.49228 1.16.76884 1.8562.76884h3.5V24.5c0 .4641-.1844.9092-.5126 1.2374-.3282.3282-.7733.5126-1.2374.5126H4.12256c-.46413 0-.90925-.1844-1.23744-.5126-.32819-.3282-.51256-.7733-.51256-1.2374v-21c0-.46413.18437-.90925.51256-1.23744.32819-.32819.77331-.51256 1.23744-.51256h9.62504v3.5Z"/>
</svg>
