<svg xmlns="http://www.w3.org/2000/svg" fill="none" viewBox="0 0 23 29">
  <path fill="#2A2238" fill-rule="evenodd" d="M22.0834 8.24049V19.7239h-1.7667V8.33401L16 8.29046c-.7028 0-1.003-.00303-1.5-.5-.497-.49698-.3666-.79718-.3666-1.5V2.05713H4c-.46855 0-.66868-.09804-1 .23328-.33132.33131-.34999.5315-.34999 1.00005V19.7239H.883336V3.29046c0-.9371-.045967-1.83742.616664-2.500055.66263-.662631 1.0629-.499948 2-.499948h10.6334l7.95 7.950033ZM0 21.2255h2.82668c.51056 0 .94163.106 1.2932.3163.3551.2067.62717.4876.81267.8427s.27913.7543.27913 1.196-.0954.8409-.28266 1.196c-.18727.3516-.45934.6307-.81974.8374-.39674.2137-.84277.3192-1.2932.3057H1.39567v2.3709H0v-7.065Zm3.63935 3.0281c.10522-.2084.15683-.4397.15016-.6731 0-.3993-.10953-.7067-.32683-.9204-.2173-.2156-.5194-.3216-.9063-.3216H1.39214v2.484h1.166c.22877.0063.45561-.0434.66074-.1449.17953-.0959.32604-.2437.42047-.424Zm2.3002-3.0281h2.82668c.51057 0 .94164.106 1.29317.3163.3551.2067.6272.4876.8127.8427.1873.3551.2791.7543.2791 1.196s-.0936.8409-.2826 1.196c-.1873.3516-.4594.6307-.8198.8374-.3967.2137-.84274.3192-1.29317.3057H7.33699v2.3709H5.94132v-7.065h-.00177Zm3.63935 3.0281c.10522-.2084.15683-.4397.15017-.6731 0-.3993-.10954-.7067-.32684-.9204-.2173-.2156-.5194-.3216-.9063-.3216H7.33169v2.484H8.4977c.22877.0064.45563-.0434.66073-.1449.17954-.0959.32605-.2437.42047-.424Zm5.0386 4.0369v-5.8954h2.0087v-1.1696h-5.4149v1.1696h2.0034v5.8954h1.4028Zm6.7062-7.065h1.5777l-2.2508 3.5457 2.2154 3.5193h-1.6041l-1.5017-2.4999h-.0618l-1.507 2.4999h-1.5211l2.1907-3.5617-2.1695-3.5033h1.6448l1.4699 2.5423h.0618l1.4557-2.5423Z" clip-rule="evenodd"/>
</svg>
