<svg xmlns="http://www.w3.org/2000/svg" fill="none" viewBox="0 0 25 29">
  <path fill="#2A2238" fill-rule="evenodd" d="m24.0174 25.3585-.0107-17.12844L16.1351.358502H6.51432C6.14725.358505 5.83603.353232 5.56846.3487 4.3804.328572 4.05287.323024 3.51738.858512c-.54356.543558-.5307 1.216038-.5103 2.282848.00423.22086.00877.45861.00877.71561V19.6001h1.74924V3.85697c0-.46392 0-1.25689.24158-1.49847.25955-.25955.90059-.25487 1.36416-.25148.05014.00037.09821.00072.14349.00072h9.62078v4.25078c0 .10708-.0023.20508-.0045.29604-.012.50015-.0189.78761.3975 1.20396.492.49207.8041.5 1.5.5h4.2293V25.2189c0 .4639 0 .7599-.24 1-.3281.328-.5361.3781-1 .3781H18.759v1.7493l2.2584.0122h.0665c.905.0004 1.7931.0008 2.4335-.6396.5475-.5475.5294-1.1788.5084-1.9119-.0041-.1455-.0084-.2949-.0084-.4485ZM6.14017 27.3692c-.1208-.2479-.18838-.5184-.19839-.794h1.33808c.02429.1366.07643.2667.15316.3822.07673.1156.17642.2141.29287.2895.13261.0903.27915.1583.43378.2011.16966.0472.35507.07.55972.07.28686 0 .52824-.0402.72239-.1225.17838-.0666.3334-.184.44603-.3375.10017-.15.15209-.327.14869-.5073.0051-.1095-.0164-.2185-.06268-.3179-.04631-.0993-.11604-.1859-.20321-.2523-.1784-.1399-.44777-.2519-.80984-.3376l-1.08096-.2519c-.36207-.0804-.67691-.2063-.94278-.3725-.26586-.1697-.47226-.3813-.61569-.6419-.14343-.2589-.21339-.565-.21339-.9166 0-.4268.11019-.7993.33233-1.1177.22214-.3166.52824-.5632.92179-.7364.39355-.1749.84483-.2623 1.35732-.2623.46884-.0134.9348.0774 1.36431.2658.3512.1553.6535.4032.8746.7172.2068.2908.328.6338.3498.99H9.99625c-.02994-.166-.10224-.3214-.20989-.4513-.11499-.1395-.26285-.2483-.43029-.3166-.18191-.0787-.39705-.1189-.64717-.1189-.37781 0-.67692.0892-.89556.2658-.21514.175-.32358.3988-.32358.6717-.00164.1008.02028.2005.06401.2913.04373.0908.10806.1702.18786.2317.20881.1555.4506.2608.70665.3078l1.0862.2519c.34649.0724.68022.1962.99002.3673.2696.1471.4958.3624.6559.6245.1557.2623.2344.5877.2344.9795 0 .4338-.1085.8168-.3271 1.1474-.2151.3288-.53.586-.9428.7696-.41102.1837-.91127.2764-1.50247.2764-.44428 0-.83084-.0525-1.16317-.1592-.33058-.1049-.60869-.2519-.83608-.4408-.21087-.1777-.38222-.3976-.50301-.6455ZM1.58821 23.46c-.11895.3026-.17842.6734-.17842 1.1072v.8676c-.01.3735.05053.7456.17842 1.0967.10115.2761.28346.5151.52298.6856.24934.1589.54057.2393.83609.2309.24256.0057.48298-.0465.7014-.1522.19488-.1005.35919-.2515.47576-.4372.11908-.1919.1899-.4098.2064-.635h1.33633v.133c-.01686.4226-.154.8315-.39531 1.1789-.23788.3393-.55972.6017-.96202.7941-.40404.1906-.86056.2868-1.37306.2868-.62968 0-1.16142-.1259-1.5987-.3795-.43728-.2554-.771363-.621-1.000498-1.095C.111944 26.6662 0 26.0977 0 25.4348v-.8711c0-.6629.115442-1.2331.342829-1.7124.230884-.4775.563218-.8466 1.000501-1.1054.43903-.2606.97076-.3901 1.59345-.3901.36034-.0032.71865.0541 1.05997.1697.31346.1012.60404.2628.85532.4757.24529.2093.44441.4672.58473.7575.14031.2902.21876.6065.23037.9287v.1259H4.32909c-.01604-.2356-.08799-.4641-.2099-.6664-.11411-.1922-.27864-.3494-.47576-.4548-.20115-.1136-.43378-.1696-.69615-.1696-.29509-.0082-.58543.0755-.83084.2396-.24077.1757-.42448.4185-.52823.6979Zm10.27089 3.9006c-.1161-.2464-.1821-.5133-.1942-.7854h1.3364c.0242.1366.0764.2667.1531.3822.0767.1156.1764.2141.2929.2895.1224.0857.2693.1521.4373.1994.1661.0489.3515.0717.5579.0717.2869 0 .5265-.0402.7224-.1225.1784-.0666.3334-.184.446-.3375.1-.1501.1519-.327.1487-.5073.005-.1096-.0168-.2188-.0634-.3181s-.1167-.1859-.2042-.2521c-.1767-.1399-.4478-.2519-.8098-.3376l-1.081-.2501c-.3332-.0705-.652-.1971-.9428-.3743-.2565-.1576-.4679-.3787-.6139-.6419-.1488-.2822-.2229-.5977-.2152-.9166 0-.4268.1102-.7993.3324-1.1177.2221-.3166.53-.5632.9218-.7381.3935-.1749.8465-.2606 1.359-.2606.5318 0 .9865.0874 1.3626.2658.3796.1784.6717.4181.8746.7172.2099.2973.327.6279.3498.99h-1.3119c-.0299-.166-.1022-.3214-.2099-.4513-.1149-.1395-.2628-.2483-.4302-.3166-.2053-.0836-.4256-.1241-.6472-.1189-.3778 0-.6769.0874-.8956.2658-.1025.079-.185.1809-.2409.2975-.0559.1167-.0836.2449-.0809.3742 0 .2117.0822.3848.2501.5247.209.1549.4508.2596.7067.3061l1.0862.2502c.3795.0874.7101.2099.99.369.2798.1575.4985.3674.6559.6262.1574.2589.2361.586.2361.9795 0 .4321-.1102.8151-.3288 1.1475-.2328.3422-.5605.6091-.9428.7678-.4093.1837-.9095.2764-1.5007.2764-.4443 0-.8326-.0525-1.1632-.1574-.3046-.0914-.5886-.2411-.8361-.4408-.2135-.1803-.3864-.4039-.5072-.6559Z" clip-rule="evenodd"/>
</svg>
