<svg xmlns="http://www.w3.org/2000/svg" fill="none" viewBox="0 0 28 28">
  <path fill="#2A2238" d="M27.47 12.7522 15.2443.528264c-.1674-.167475-.3662-.300328-.5849-.390969C14.4406.0466534 14.2062 0 13.9694 0c-.2368 0-.4713.0466534-.69.137295-.2188.090641-.4175.223494-.5849.390969L10.1569 3.06581l3.2201 3.22006c.3798-.12967.7883-.14995 1.1791-.05854.3907.0914.7479.29082 1.0307.57548.2829.28467.48.64311.5689 1.03443.0889.39132.0659.79975-.0662 1.17867l3.1028 3.10459c.4591-.1617.9595-.1622 1.4189-.0014.4593.1607.8503.4731 1.1084.8857.2582.4125.3681.9007.3118 1.3841-.0564.4834-.2757.9332-.6218 1.2754-.3504.3525-.8123.5725-1.3068.6222-.4945.0498-.991-.0736-1.4046-.3492-.4137-.2756-.7188-.6863-.8632-1.1619-.1445-.4756-.1194-.9866.0711-1.4457l-2.8928-2.8945v7.6179c.4397.2176.7915.5794.9968 1.025.2053.4456.2517.9481.1314 1.4238-.1203.4757-.3999.8957-.7924 1.1902-.3924.2944-.8739.4455-1.3642.428-.4903-.0175-.9598-.2025-1.3303-.5242-.3704-.3218-.6194-.7607-.7054-1.2437-.0861-.4831-.004-.981.2326-1.4108.2366-.4298.6133-.7656 1.0674-.9513v-7.6879c-.262-.1074-.5001-.2655-.7007-.46536-.2006-.19983-.3597-.43739-.468-.69898-.1083-.26159-.1638-.54204-.1633-.82518.0006-.28314.0572-.56338.1665-.82454L8.91091 4.31358.528264 12.6962c-.167475.1674-.300328.3662-.390969.5849C.0466534 13.4999 0 13.7343 0 13.9711c0 .2368.0466534.4713.137295.69.090641.2188.223494.4175.390969.5849L12.754 27.4717c.1674.1675.3661.3004.5849.391.2187.0906.4532.1373.69.1373.2368 0 .4712-.0467.69-.1373.2187-.0906.4175-.2235.5849-.391l12.1679-12.1679c.3378-.3383.5276-.7969.5276-1.2749 0-.4781-.1898-.9366-.5276-1.2749"/>
</svg>
