<svg xmlns="http://www.w3.org/2000/svg" fill="none" viewBox="0 0 26 28">
  <path fill="#2A2238" d="M12.92 0C5.78707 0 0 5.93511 0 13.2632v10.3157C0 26.0216 1.92454 28 4.30666 28h.30665c2.20914 0 4-1.7909 4-4v-3.85c0-2.2092-1.79086-4-4-4H2.87335v-2.8868c0-5.69963 4.49507-10.31583 10.04665-10.31583 5.5515 0 10.0466 4.60947 10.0466 10.31583V16.15h-1.74c-2.2091 0-4 1.7908-4 4v3.8433c0 2.2091 1.7909 4 4 4h.3067c2.3821 0 4.3066-1.9717 4.3066-4.4211v-10.309C25.8399 5.93511 20.0529 0 12.92 0Z"/>
</svg>
