<svg xmlns="http://www.w3.org/2000/svg" fill="none" viewBox="0 0 24 22">
  <path fill="#2A2238" d="M17.25.0625h-.0547c-2.1711 0-4.0906 1.14844-5.1953 2.84375C10.8953 1.21094 8.97578.0625 6.80469.0625H6.75C3.36484.0953125.625 2.84609.625 6.24219c0 2.02343.88594 4.89451 2.61406 7.25701C6.53125 18 12 21.9375 12 21.9375S17.4688 18 20.7609 13.4992c1.7282-2.3625 2.6141-5.23358 2.6141-7.25701 0-3.3961-2.7398-6.1468775-6.125-6.17969Zm2.275 12.5344c-2.3297 3.1883-5.8789 6.1304-7.525 7.4156-1.6461-1.2852-5.19531-4.2328-7.525-7.4211-1.60234-2.1875-2.31875-4.76328-2.31875-6.34921 0-1.23594.48125-2.39532 1.34531-3.27032.86953-.875 2.02344-1.36171 3.25938-1.37265h.04922c.78203 0 1.55859.20234 2.24765.59062.66719.37735 1.24689.91329 1.66249 1.5586.2844.43203.7656.69453 1.2852.69453.5195 0 1.0008-.2625 1.2851-.69453.4211-.64531.9953-1.18125 1.6625-1.5586.6891-.38828 1.4657-.59062 2.2477-.59062h.0492c1.2305.01094 2.3898.49765 3.2594 1.37265.8695.875 1.3453 2.03985 1.3453 3.27032-.0109 1.58593-.7274 4.16171-2.3297 6.35471Z"/>
</svg>
