<svg xmlns="http://www.w3.org/2000/svg" fill="none" viewBox="0 0 29 29">
  <path fill="#2A2238" d="M14.625.625c-7.73365 0-14 6.26635-14 14 0 7.7337 6.26635 14 14 14 7.7337 0 14-6.2663 14-14 0-7.73365-6.2663-14-14-14Zm6.0913 15.0769h-5.0144v5.0144c0 .5924-.4846 1.077-1.0769 1.077-.2962 0-.5654-.1212-.7606-.3164-.1952-.1952-.3163-.4644-.3163-.7606v-5.0144H8.53365c-.29615 0-.56538-.1211-.76057-.3163-.1952-.1952-.31635-.4644-.31635-.7606 0-.5923.48462-1.0769 1.07692-1.0769h5.01445V8.53365c0-.5923.4846-1.07692 1.0769-1.07692s1.0769.48462 1.0769 1.07692v5.01445h5.0144c.5924 0 1.077.4846 1.077 1.0769s-.4846 1.0769-1.077 1.0769Z"/>
</svg>
