<svg xmlns="http://www.w3.org/2000/svg" fill="none" viewBox="0 0 28 28">
  <path fill="#2A2238" d="M6.70384 10.951c-.5048.5048-.5048 1.3327 0 1.8375l6.44136 6.4211c.4913.4914 1.2856.5048 1.7904.0404l6.3471-6.3269c.2558-.2558.3836-.5856.3836-.9221 0-.3298-.1278-.6664-.3769-.9154-.5048-.5048-1.3259-.5116-1.8375 0L14 16.4567l-5.45866-5.5125c-.5048-.5048-1.32596-.5048-1.8375.0068Z"/>
  <path fill="#2A2238" d="M0 14c0 7.7337 6.26635 14 14 14 7.7337 0 14-6.2663 14-14C28 6.26634 21.7337-.00000143 14-.00000143 6.26635-.00000143 0 6.26634 0 14Zm22.3731-8.37308C24.6144 7.86154 25.8462 10.8365 25.8462 14s-1.2318 6.1385-3.4731 8.3731c-2.2346 2.2413-5.2096 3.4731-8.3731 3.4731-3.1635 0-6.13846-1.2318-8.37308-3.4731C3.38558 20.1385 2.15385 17.1635 2.15385 14c0-3.1635 1.23173-6.13846 3.47307-8.37308C7.86154 3.38558 10.8365 2.15384 14 2.15384s6.1385 1.23174 8.3731 3.47308Z"/>
</svg>
