<svg xmlns="http://www.w3.org/2000/svg" fill="none" viewBox="0 0 28 28">
  <path fill="#2A2238" fill-rule="evenodd" d="M26.7273 0C27.4302 0 28 .569819 28 1.27273V26.7273C28 27.4302 27.4302 28 26.7273 28s-1.2728-.5698-1.2728-1.2727V1.27273C25.4545.569819 26.0244 0 26.7273 0ZM1.27273.00000114C1.97564.00000106 2.54545.56982 2.54545 1.27273l.00001 25.45457c0 .7029-.56982 1.2727-1.27273 1.2727-.702909 0-1.27272886-.5698-1.27272886-1.2727L0 1.27273C0 .569821.569819.00000114 1.27273.00000114ZM11.5405 6.8291c.6718-2.51945 4.2472-2.51945 4.919 0l3.8612 14.4793c.1811.6792-.2227 1.3766-.9019 1.5577-.6791.1811-1.3765-.2226-1.5576-.9018l-1.0208-3.8279h-5.6808l-1.0208 3.8279c-.18107.6792-.87847 1.0829-1.55764.9018-.67918-.1811-1.08294-.8785-.90182-1.5577L11.5405 6.8291Zm.2979 8.7618h4.3232L14 7.48497l-2.1616 8.10593Z" clip-rule="evenodd"/>
</svg>
