<svg xmlns="http://www.w3.org/2000/svg" fill="none" viewBox="0 0 17 27">
  <path fill="#2A2238" fill-rule="evenodd" d="M8.74946 26.6234c.09713-.1475.19647-.2994.29776-.4555.09694-.1493.19567-.3023.29599-.4589C12.424 20.9004 17 12.782 17 8.5 17 3.80558 13.4706 0 8.5 0 3.52944 0 0 3.80558 0 8.5c0 4.2835 4.99569 12.4064 8.14939 17.2143.10197.1555.20202.3075.29991.4558.10251.1552.20265.3065.30016.4533Zm-.00804-1.8308c-1.42354-2.1826-3.16179-4.9592-4.63577-7.7231-.89019-1.6692-1.67431-3.3159-2.2337-4.8116C1.30613 10.745 1 9.46325 1 8.5 1 4.33635 4.103 1 8.5 1S16 4.33635 16 8.5c0 .97766-.2841 2.2691-.8062 3.7819-.5169 1.4975-1.2431 3.145-2.0726 4.8128-1.3714 2.7574-3.0035 5.5269-4.37978 7.6979ZM8.49997 12C10.7091 12 12.5 10.2091 12.5 8c0-2.20914-1.7909-4-4.00003-4-2.20914 0-4 1.79086-4 4 0 2.2091 1.79086 4 4 4ZM14.5 8c0 3.3137-2.6863 6-6.00003 6-3.31371 0-6-2.6863-6-6 0-3.31371 2.68629-6 6-6C11.8137 2 14.5 4.68629 14.5 8Z" clip-rule="evenodd"/>
</svg>
