<svg xmlns="http://www.w3.org/2000/svg" fill="none" viewBox="0 0 28 25">
  <path fill="#2A2238" d="M22.75 2.625c0-.69619.2766-1.36387.7688-1.856155C24.0111.276562 24.6788 0 25.375 0c.6962 0 1.3639.276562 1.8562.768845C27.7234 1.26113 28 1.92881 28 2.625v19.25c0 .6962-.2766 1.3639-.7688 1.8562-.4923.4922-1.16.7688-1.8562.7688-.6962 0-1.3639-.2766-1.8562-.7688-.4922-.4923-.7688-1.16-.7688-1.8562v-.3745c-3.7835-2.1717-7.8575-3.2252-12.096-3.6452l.7088 4.7459c.0475.2529.0388.5131-.0256.7622-.0645.2491-.1831.4809-.3473.6789-.1643.198-.3702.3574-.6031.4667-.2329.1094-.48702.1661-.7443.166h-.959c-.34016 0-.67294-.0992-.95764-.2854-.28469-.1861-.50896-.4512-.64536-.7628L3.843 17.5192c-.11783-.0019-.23566-.0036-.3535-.0052-.92686-.0092-1.81279-.3832-2.46592-1.0409C.370458 15.8154.00271573 14.9269 0 14v-3.5c.00312337-.92699.370247-1.81566 1.02229-2.47457.65203-.65891 1.5368-1.03534 2.46371-1.04818 1.44904-.01965 2.89766-.06341 4.34525-.13125C13.1565 6.5765 18.5902 5.36025 22.75 2.99775V2.625Zm1.75 0v19.25c0 .2321.0922.4546.2563.6187.1641.1641.3866.2563.6187.2563.2321 0 .4546-.0922.6187-.2563.1641-.1641.2563-.3866.2563-.6187V2.625c0-.23206-.0922-.45462-.2563-.61872-.1641-.16409-.3866-.25628-.6187-.25628-.2321 0-.4546.09219-.6187.25628-.1641.1641-.2563.38666-.2563.61872Zm-1.75 2.3625c-4.102 2.10875-9.1158 3.2235-14 3.55775V15.953c.315.0175.62825.0385.93975.063 4.49405.3308 8.91275 1.302 13.06025 3.4878V4.9875ZM7 15.8637V8.63625c-1.16165.04251-2.32371.07284-3.486.091-.46765.00549-.91446.1943-1.24435.52582-.32988.33152-.51647.77923-.51965 1.24693V14c0 .9625.784 1.7535 1.7605 1.7657 1.16363.0135 2.32695.0462 3.4895.098ZM5.85025 17.57 8.666 22.8847l.0175.042h.959l-.0035-.0245-.77525-5.1904c-1.00385-.0606-2.00843-.1084-3.0135-.1436v.0018Z"/>
</svg>
