<svg xmlns="http://www.w3.org/2000/svg" fill="none" viewBox="0 0 28 28">
  <path fill="#2A2238" d="M13.0585.2c0-.1104572-.0895-.2-.2-.2H.199999C.0895425 0 0 .0895431 0 .2v12.1825c0 .1105.089543.2.2.2h12.6585c.1105 0 .2-.0895.2-.2V.2ZM28 .2c0-.1104572-.0895-.2-.2-.2H15.1415c-.1105 0-.2.0895431-.2.2v12.1825c0 .1105.0895.2.2.2H27.8c.1105 0 .2-.0895.2-.2V.2ZM13.0585 14.5693c0-.1105-.0895-.2-.2-.2H.199999c-.1104565 0-.199999.0895-.199999.2V27.8c0 .1105.089543.2.2.2h12.6585c.1105 0 .2-.0895.2-.2V14.5693Zm14.9415 0c0-.1105-.0895-.2-.2-.2H15.1415c-.1105 0-.2.0895-.2.2V27.8c0 .1105.0895.2.2.2H27.8c.1105 0 .2-.0895.2-.2V14.5693Z"/>
</svg>
