<svg xmlns="http://www.w3.org/2000/svg" fill="none" viewBox="0 0 21 22">
  <path fill="#2A2238" d="M18.2236 21.052c.5858.5858 1.5356.5858 2.1213 0 .5858-.5857.5858-1.5355 0-2.1213l-8.1317-8.1317 8.1317-8.13175c.5858-.58574.5858-1.53553 0-2.121317-.5858-.585789-1.5355-.5857459-2.1213 0L10.0919 8.67766 2.66726 1.25304c-.58579-.585789-1.53557-.585746-2.121319 0-.585745.58574-.5857882 1.53553 0 2.12132L7.97056 10.799.545941 18.2236c-.585745.5857-.5857882 1.5355 0 2.1213.585789.5858 1.535579.5858 2.121319 0l7.42464-7.4246 8.1317 8.1317Z"/>
</svg>
