<svg xmlns="http://www.w3.org/2000/svg" fill="none" viewBox="0 0 28 28">
  <path fill="#2A2238" fill-rule="evenodd" d="M14 1.78723C7.25508 1.78723 1.78723 7.25508 1.78723 14c0 6.7449 5.46785 12.2128 12.21277 12.2128 6.7449 0 12.2128-5.4679 12.2128-12.2128 0-6.74492-5.4679-12.21277-12.2128-12.21277ZM0 14C0 6.26801 6.26801 0 14 0c7.732 0 14 6.26801 14 14 0 7.732-6.268 14-14 14-7.73199 0-14-6.268-14-14Zm11.617-5.65957c.4936 0 .8936.40008.8936.89361V18.766c0 .4935-.4.8936-.8936.8936-.4935 0-.8936-.4001-.8936-.8936V9.23404c0-.49353.4001-.89361.8936-.89361Zm4.766 0c.4935 0 .8936.40008.8936.89361V18.766c0 .4935-.4001.8936-.8936.8936-.4936 0-.8936-.4001-.8936-.8936V9.23404c0-.49353.4-.89361.8936-.89361Z" clip-rule="evenodd"/>
</svg>
