<svg xmlns="http://www.w3.org/2000/svg" fill="none" viewBox="0 0 28 21">
  <path fill="#2A2238" d="M12.25 21s-1.75 0-1.75-1.75 1.75-7 8.75-7 8.75 4.25 8.75 7v.9509c0 .4418-.3582.7991-.8.7991H12.25Zm7-10.5c1.3924 0 2.7277-.55312 3.7123-1.53769C23.9469 7.97774 24.5 6.64239 24.5 5.25c0-1.39239-.5531-2.72774-1.5377-3.71231C21.9777.553124 20.6424 0 19.25 0c-1.3924 0-2.7277.553124-3.7123 1.53769C14.5531 2.52226 14 3.85761 14 5.25c0 1.39239.5531 2.72774 1.5377 3.71231C16.5223 9.94688 17.8576 10.5 19.25 10.5Z"/>
  <path fill="#2A2238" fill-rule="evenodd" d="M9.128 21c-.25943-.5463-.38881-1.1453-.378-1.75 0-2.3712 1.19-4.8125 3.388-6.51-1.0971-.338-2.24009-.5033-3.388-.49-7 0-8.75 3.8405-8.75 7v.9509C0 20.6427.358172 21 .8 21h8.328Z" clip-rule="evenodd"/>
  <path fill="#2A2238" d="M7.875 10.5c1.16032 0 2.2731-.4609 3.0936-1.28141.8205-.82047 1.2814-1.93327 1.2814-3.09359 0-1.16032-.4609-2.27312-1.2814-3.09359C10.1481 2.21094 9.03532 1.75 7.875 1.75c-1.16032 0-2.27312.46094-3.09359 1.28141C3.96094 3.85188 3.5 4.96468 3.5 6.125c0 1.16032.46094 2.27312 1.28141 3.09359C5.60188 10.0391 6.71468 10.5 7.875 10.5Z"/>
</svg>
