<svg xmlns="http://www.w3.org/2000/svg" fill="none" viewBox="0 0 28 28">
  <path fill="#2A2238" fill-rule="evenodd" d="M14 1.78723C7.25508 1.78723 1.78723 7.25508 1.78723 14c0 6.7449 5.46785 12.2128 12.21277 12.2128 6.7449 0 12.2128-5.4679 12.2128-12.2128 0-6.74492-5.4679-12.21277-12.2128-12.21277ZM0 14C0 6.26801 6.26801 0 14 0c7.732 0 14 6.26801 14 14 0 7.732-6.268 14-14 14-7.73199 0-14-6.268-14-14Zm11.1954-5.55384c.2905-.1555.6431-.13846.9173.04435l7.1489 4.76599c.2486.1657.398.4447.398.7435 0 .2988-.1494.5778-.398.7435l-7.1489 4.766c-.2742.1828-.6268.1998-.9173.0443-.2906-.1555-.472-.4583-.472-.7878V9.23404c0-.32956.1814-.63237.472-.78788Zm1.3152 2.45764v6.1924L17.155 14l-4.6444-3.0962Z" clip-rule="evenodd"/>
</svg>
