<svg xmlns="http://www.w3.org/2000/svg" fill="none" viewBox="0 0 22 18">
  <path fill="#2A2238" fill-rule="evenodd" d="M11 .25c.4142 0 .75.335786.75.75v10.1893l3.4926-3.4926c.2929-.29289.7678-.29289 1.0607 0 .2929.29289.2929.76777 0 1.06066l-4.773 4.77294c-.2929.2929-.7677.2929-1.0606 0l-4.773-4.77294c-.29289-.29289-.29289-.76777 0-1.06066s.76777-.29289 1.06066 0L10.25 11.1893V1c0-.414214.3358-.75.75-.75ZM.25 16.697V7h1.5v9.0694c.0502.004.10392.008.1612.0119.53077.0368 1.29938.068 2.23399.0932 1.86585.0503 4.35858.0755 6.85481.0755 2.4962 0 4.989-.0252 6.8548-.0755.9346-.0252 1.7032-.0564 2.234-.0932.0573-.0039.111-.0079.1612-.0119V7h1.5v9.697c0 .418-.3118.6195-.3619.6514-.0922.0587-.1799.088-.2216.1011-.0941.0294-.196.0475-.2792.0601-.1773.0267-.4166.0489-.6949.0682-.5629.0389-1.3568.0708-2.2972.0962-1.8842.0507-4.3914.076-6.8952.076-2.50377 0-5.01104-.0253-6.89519-.076-.94039-.0254-1.73428-.0573-2.29726-.0962-.27828-.0193-.51753-.0415-.69481-.0682-.08323-.0126-.185188-.0307-.279272-.0601-.041625-.0131-.129375-.0424-.221556-.1011C.56175 17.3165.25 17.115.25 16.697Z" clip-rule="evenodd"/>
</svg>
