<svg xmlns="http://www.w3.org/2000/svg" fill="none" viewBox="0 0 26 28">
  <path fill="#2A2238" d="M21.1203 19.8395c-1.0596 0-2.0488.3517-2.7552 1.0552L8.26421 15.0556c.07072-.3518.14145-.6335.14145-.9852 0-.3518-.07073-.6335-.14145-.9852l9.96019-5.76837c.7767.7035 1.7659 1.12535 2.8959 1.12535 2.3308 0 4.2381-1.89964 4.2381-4.22112C25.3584 1.8997 23.4511 0 21.1203 0c-2.331 0-4.2383 1.8997-4.2383 4.22112 0 .35178.0704.6335.1415.98522L7.06364 10.9747c-.77706-.7035-1.76591-1.12533-2.89614-1.12533C1.83664 9.84937 0 11.749 0 14.0705c0 2.3214 1.90697 4.2211 4.23816 4.2211 1.13023 0 2.11908-.4219 2.89614-1.1254l10.0305 5.8391c-.071.281-.1414.5627-.1414.9144 0 2.2515 1.8363 4.0803 4.0968 4.0803 2.2604 0 4.0967-1.8288 4.0967-4.0803.0001-2.2514-1.8362-4.0802-4.0966-4.0802Z"/>
</svg>
