<svg xmlns="http://www.w3.org/2000/svg" fill="none" viewBox="0 0 28 28">
  <path fill="#2A2238" d="M3 0C2.20435 0 1.44129.316071.87868.87868.316071 1.44129 0 2.20435 0 3v22c0 .7956.316071 1.5587.87868 2.1213C1.44129 27.6839 2.20435 28 3 28h12.172c.7954-.0007 1.5579-.3172 2.12-.88l9.83-9.828c.562-.5624.8778-1.3249.878-2.12V3c0-.79565-.3161-1.55871-.8787-2.12132C26.5587.316071 25.7956 0 25 0H3Zm12 17c0-.5304.2107-1.0391.5858-1.4142S16.4696 15 17 15h8.792c.099-.0002.1959.0291.2783.084.0823.0549.1466.1331.1845.2245.0379.0915.0478.1922.0284.2893-.0193.0971-.0671.1863-.1372.2562L15.854 26.146c-.0699.0701-.1591.1179-.2562.1372-.0971.0194-.1978.0095-.2893-.0284-.0914-.0379-.1696-.1022-.2245-.1845-.0549-.0824-.0842-.1793-.084-.2783V17Z"/>
</svg>
