<svg xmlns="http://www.w3.org/2000/svg" fill="none" viewBox="0 0 31 28">
  <path fill="#2A2238" fill-rule="evenodd" d="M.84541 6.4h2.69412c.16568 0 .3-.13431.3-.3V2.8c0-.22091.17908-.4.4-.4h9.08237c.2181 0 .3955.17463.3999.39172V25.2083c-.0044.2171-.1818.3917-.3999.3917H9.1807c-.22091 0-.4.1791-.4.4v1.6c0 .2209.17909.4.4.4h12.3764c.2209 0 .4-.1791.4-.4V26c0-.2209-.1791-.4-.4-.4h-4.1412c-.2181 0-.3955-.1746-.3999-.3917V2.79172c.0044-.21709.1818-.39172.3999-.39172h9.0824c.2209 0 .4.17909.4.4v3.3c0 .16569.1343.3.3.3h2.6941c.1657 0 .3-.13431.3-.3V.3c0-.165685-.1343-.3-.3-.3H.845409C.679724 0 .54541.134315.54541.3v5.8c0 .16569.134315.3.3.3Z" clip-rule="evenodd"/>
</svg>
