<svg xmlns="http://www.w3.org/2000/svg" fill="none" viewBox="0 0 23 28">
  <path stroke="#2A2238" stroke-width="1.5" d="m12.0446 27.1901-.0006.0002c-1.2114.3029-2.3821-.6113-2.46837-1.8536-.12982-1.8945-.41501-3.6908-.80178-4.8083l-.00068-.002c-.25951-.7432-.94571-1.9921-1.99972-3.1703l-.00031-.0003c-1.05339-1.1761-2.46181-2.271-4.15841-2.7346l-.00063-.0001C1.61966 14.3502.75 13.5306.75 12.4663V5.3417c0-1.0627.8638-1.89563 1.90796-2.00605 2.06157-.21792 3.05424-.81834 3.99407-1.39267l.08386-.05067.01054-.00637.01033-.00671c.49242-.32003 1.01923-.58372 1.57052-.7861C8.93974.882082 9.68156.75 10.687.75h6.234c1.3892 0 2.3263.69597 2.7929 1.51606v.00002l.004.00684c.2217.38036.3418.81142.3485 1.25161-.0005.19893-.0298.39575-.0926.57367l-.1361.38579.2506.32334c.3241.41801.578.88588.752 1.38534.1683.50538.2216 1.06122.028 1.50459l-.1438.32922.1664.31837c.0956.18276.1719.37494.2277.57346l.0006.0019c.1155.40673.1727.86389.1727 1.32149 0 .4536-.0571.9131-.1719 1.3168-.0532.1818-.1186.3598-.1983.5218l-.1962.3992.2562.3636c.243.345.3994.7434.4558 1.1616.0564.4183.0113.8439-.1316 1.241l-.0027.0075c-.3041.8741-1.001 1.5783-1.6663 1.8006-1.3633.4538-2.9443.4527-4.176.3404l-.0019-.0001c-.27-.024-.5208-.0527-.7461-.0858l-1.0925-.1607.2533 1.0748c.7998 3.3927.2693 6.2768-.1031 7.6604-.0835.2907-.243.554-.4619.7628-.2201.2099-.4924.357-.7885.4262l-.0001-.0001-.0106.0027-.4649.1157Z"/>
</svg>
