<svg xmlns="http://www.w3.org/2000/svg" fill="none" viewBox="0 0 28 28">
  <path fill="#2A2238" fill-rule="evenodd" d="M11.3749 20.9998c1.2639 0 2.5155-.249 3.6833-.7327 1.1677-.4837 2.2287-1.1927 3.1225-2.0864.8937-.8938 1.6027-1.9548 2.0864-3.1225.4837-1.1678.7327-2.4194.7327-3.6833 0-1.264-.249-2.51557-.7327-3.68332-.4837-1.16774-1.1927-2.22878-2.0864-3.12254-.8938-.89375-1.9548-1.60271-3.1225-2.08641-1.1678-.4837-2.4194-.73265-3.6833-.73265-2.55271 0-5.00084 1.01405-6.80586 2.81906-1.80501 1.80502-2.81906 4.25315-2.81906 6.80586 0 2.5526 1.01405 5.0008 2.81906 6.8058 1.80502 1.805 4.25315 2.8191 6.80586 2.8191Zm11.3748-9.6249c0 2.4335-.7798 4.7867-2.2011 6.7254.0713.0531.1384.1115.2009.1747l6.7374 6.7374c.3282.3284.5124.7737.5122 1.2379-.0001.4642-.1847.9093-.5131 1.2375-.3283.3281-.7736.5124-1.2378.5122-.4642-.0002-.9094-.1847-1.2375-.5131l-6.7374-6.7374c-.0627-.0644-.1184-.1306-.1707-.2001.4877-.3588.9454-.7553 1.3691-1.1853l-.0536.054c-2.1332 2.1332-5.0264 3.3316-8.0432 3.3316-3.01684 0-5.91008-1.1984-8.04328-3.3316C1.19842 17.2849 0 14.3917 0 11.3749c0-3.01684 1.19842-5.91008 3.33162-8.04328C5.46482 1.19842 8.35806 0 11.3749 0c3.0168 0 5.91 1.19842 8.0432 3.33162 2.1332 2.1332 3.3316 5.02644 3.3316 8.04328Zm-4.6471 9.1745-.0008.0006v-.0018l.0008.0012Zm-6.109-15.04318c-.1641-.1641-.3867-.25628-.6187-.25628-.2321 0-.4547.09218-.6187.25628-.1641.16409-.2563.38665-.2563.61871v4.37497H6.12493c-.23206 0-.45462.0922-.61871.2563-.1641.164-.25628.3866-.25628.6187 0 .232.09218.4546.25628.6187.16409.1641.38665.2563.61871.2563h4.37497v4.3749c0 .2321.0922.4546.2563.6187.164.1641.3866.2563.6187.2563.232 0 .4546-.0922.6187-.2563.1641-.1641.2563-.3866.2563-.6187v-4.3749h4.3749c.2321 0 .4546-.0922.6187-.2563.1641-.1641.2563-.3867.2563-.6187 0-.2321-.0922-.4547-.2563-.6187-.1641-.1641-.3866-.2563-.6187-.2563h-4.3749V6.12493c0-.23206-.0922-.45462-.2563-.61871Z" clip-rule="evenodd"/>
</svg>
