<svg width="24" height="24" viewBox="0 0 24 24" fill="none" xmlns="http://www.w3.org/2000/svg">
<path d="M9.09435 21.006C8.46557 20.9719 7.87389 20.6977 7.44135 20.24C6.92395 19.7422 6.46223 19.1897 6.06435 18.592C5.44284 17.702 4.95155 16.7279 4.60535 15.699C4.21321 14.5922 4.00676 13.4282 3.99435 12.254C3.96421 11.1019 4.24986 9.96346 4.82035 8.96202C5.23792 8.24012 5.83353 7.63728 6.55035 7.21102C7.25923 6.78659 8.06816 6.55813 8.89435 6.54902C9.51717 6.58587 10.1292 6.72823 10.7043 6.97002C11.1629 7.17178 11.6455 7.31362 12.1403 7.39202C12.6864 7.27763 13.2199 7.11017 13.7333 6.89202C14.341 6.65474 14.9844 6.52187 15.6363 6.49902C15.7233 6.49902 15.8093 6.49902 15.8923 6.50902C17.3219 6.55048 18.6515 7.25221 19.4923 8.40902C18.1553 9.12387 17.3344 10.5303 17.3693 12.046C17.3561 13.1956 17.8355 14.2959 18.6863 15.069C19.0693 15.4339 19.5151 15.7262 20.0023 15.932C19.9023 16.232 19.7873 16.522 19.6653 16.814C19.388 17.4593 19.0459 18.0748 18.6443 18.651C18.2652 19.2282 17.8239 19.7621 17.3283 20.243C16.876 20.6919 16.273 20.9567 15.6363 20.986C15.0967 20.9621 14.5666 20.8355 14.0743 20.613C13.5436 20.3818 12.9731 20.2551 12.3943 20.24C11.7992 20.2517 11.2119 20.3777 10.6643 20.611C10.1914 20.8244 9.6861 20.9572 9.16935 21.004L9.09435 21.006ZM12.2443 6.49902C12.1693 6.49902 12.0943 6.49902 12.0193 6.49002C12.0036 6.37099 11.9952 6.25109 11.9943 6.13102C12.0271 5.13216 12.4174 4.17826 13.0943 3.44302C13.4727 3.0206 13.9312 2.67762 14.4433 2.43402C14.9212 2.18802 15.4435 2.04012 15.9793 1.99902C15.9943 2.13002 15.9943 2.25802 15.9943 2.38002C15.9802 3.36317 15.6108 4.308 14.9543 5.04002C14.3109 5.9028 13.3189 6.43689 12.2443 6.49902Z" fill="#2A2238"/>
</svg>
