<svg width="23" height="28" viewBox="0 0 23 28" fill="none" xmlns="http://www.w3.org/2000/svg">
<path d="M10.0414 2.38404C10.2857 2.00342 10.1831 1.48881 9.81337 1.24031L8.16401 0.13169C7.8014 -0.112051 7.31754 -0.0079264 7.07795 0.36537L5.03566 3.54763L8.22987 5.20668L10.0414 2.38404Z" fill="#2A2238"/>
<path d="M12.8479 7.60522L14.3431 5.27537C14.5873 4.89475 14.4847 4.38014 14.115 4.13164L12.4657 3.02302C12.103 2.77927 11.6192 2.8834 11.3796 3.2567L9.65364 5.94611L12.8479 7.60522Z" fill="#2A2238"/>
<path d="M14.6524 12.4008L13.2062 11.7331C12.7589 11.5266 12.5984 10.9515 12.8698 10.5284L15.681 6.14794C15.9206 5.77464 16.4045 5.67051 16.7671 5.91426L18.0768 6.79467C18.4465 7.04317 18.5491 7.55778 18.3049 7.9384L15.6302 12.1062C15.4168 12.4386 15.0039 12.563 14.6524 12.4008Z" fill="#2A2238"/>
<path d="M22.0393 9.45779L20.7295 8.57743C20.3669 8.33369 19.8831 8.43782 19.6435 8.81111L17.2451 12.5482C16.9736 12.9713 17.1342 13.5464 17.5815 13.7529L19.0277 14.4206C19.3792 14.5828 19.7921 14.4585 20.0055 14.126L22.2673 10.6015C22.5116 10.221 22.409 9.70634 22.0393 9.45779Z" fill="#2A2238"/>
<path d="M18.3858 15.9199C18.6907 16.0607 19.0144 16.1321 19.3477 16.1321C20.0111 16.1321 20.634 15.8453 21.0781 15.3509V17.7519C21.0781 19.3738 20.3024 20.8793 19.0033 21.7789C18.7102 21.9819 18.5121 22.1196 18.5121 22.1196C18.293 22.2718 18.1615 22.5275 18.1615 22.8014V27.1797C18.1615 27.6327 17.808 28 17.3719 28H5.42896C4.91525 28 4.53826 27.4985 4.66287 26.9807L6.10692 20.9806C6.16419 20.7426 6.11592 20.4904 5.97536 20.2933L0.155123 12.1312C-0.0431367 11.8532 -0.0521388 11.4758 0.132644 11.1879L3.76623 5.52596C3.98713 5.18176 4.42023 5.06226 4.77643 5.24727L11.1649 8.56543C11.5897 8.78609 11.7323 9.34363 11.4688 9.75417L10.9857 10.507C10.8392 10.7352 10.5926 10.8723 10.3286 10.8723H5.34083C4.89204 10.8723 4.53068 11.2612 4.55206 11.7323C4.57206 12.1735 4.93794 12.5129 5.36315 12.5129H8.74146L12.402 20.1179C12.5921 20.513 13.048 20.7011 13.4368 20.5223C13.8519 20.3315 14.0252 19.8219 13.8245 19.4049L10.5072 12.5129H11.0062L18.3858 15.9199Z" fill="#2A2238"/>
</svg>
