<svg width="24" height="28" viewBox="0 0 24 28" fill="none" xmlns="http://www.w3.org/2000/svg">
<path d="M1.97306 1.41081C2.47158 0.5384 3.39934 0 4.40414 0H18.7792C19.784 0 20.7118 0.538401 21.2103 1.41081L22.8103 4.21081C23.7174 5.79828 22.8783 7.71549 21.2846 8.25345C21.2904 8.36726 21.2893 8.48274 21.281 8.59949L20.081 25.3995C19.9763 26.8647 18.7571 28 17.2881 28H5.89524C4.42625 28 3.20701 26.8647 3.10235 25.3995L1.90235 8.59949C1.89401 8.48274 1.89294 8.36725 1.89872 8.25344C0.305075 7.71547 -0.534064 5.79827 0.373057 4.21081L1.97306 1.41081ZM4.69524 8.4L4.99524 12.6H18.1881L18.4881 8.4H4.69524ZM5.59524 21L5.89524 25.2H17.2881L17.5881 21H5.59524ZM20.3792 5.6L18.7792 2.8L4.40414 2.8L2.80414 5.6H20.3792Z" fill="#2A2238"/>
</svg>
