<svg width="24" height="24" viewBox="0 0 24 24" fill="none" xmlns="http://www.w3.org/2000/svg">
<path d="M8.94455 22.0001C7.27964 22.013 5.78825 20.9726 5.22556 19.4056C4.66286 17.8386 5.1517 16.0871 6.44455 15.038C5.52755 14.2958 4.99478 13.1792 4.99478 11.9995C4.99478 10.8198 5.52755 9.7032 6.44455 8.96102C5.15128 7.91226 4.66215 6.16065 5.22496 4.59358C5.78776 3.02651 7.27954 1.98634 8.94455 1.99989H15.0546C16.7196 1.98634 18.2113 3.02651 18.7741 4.59358C19.3369 6.16065 18.8478 7.91226 17.5546 8.96102C18.8474 10.0101 19.3362 11.7616 18.7735 13.3286C18.2108 14.8956 16.7195 15.936 15.0546 15.923C14.2855 15.924 13.533 15.7001 12.8896 15.279V18.079C12.8802 20.25 11.1156 22.0039 8.94455 22.0001ZM8.92255 15.924C7.73809 15.9427 6.79125 16.9148 6.80367 18.0993C6.81609 19.2839 7.78311 20.2359 8.96771 20.2298C10.1523 20.2236 11.1094 19.2616 11.1096 18.077V15.924H8.92155H8.92255ZM15.0556 9.84702C13.8679 9.85309 12.9095 10.8197 12.9135 12.0073C12.9176 13.1949 13.8826 14.155 15.0702 14.153C16.2578 14.151 17.2196 13.1877 17.2196 12C17.2151 10.8081 16.2465 9.84481 15.0546 9.84702H15.0556ZM8.94555 9.84699C8.17636 9.84291 7.4634 10.2495 7.07525 10.9136C6.68709 11.5776 6.68271 12.3984 7.06375 13.0666C7.44479 13.7348 8.15336 14.1489 8.92255 14.153H11.1096V9.84699H8.94555ZM12.8896 3.77002V8.07704H15.0536C16.2111 8.08242 17.1661 7.17244 17.2166 6.01602V6.45102V5.92302C17.2116 4.7325 16.2451 3.77002 15.0546 3.77002H12.8896ZM8.94355 3.77002C8.17436 3.77002 7.46359 4.18038 7.079 4.84652C6.6944 5.51266 6.6944 6.33338 7.079 6.99952C7.46359 7.66566 8.17436 8.07602 8.94355 8.07602H11.1096V3.77002H8.94355Z" fill="#2A2238"/>
</svg>
