<svg width="24" height="24" viewBox="0 0 24 24" fill="none" xmlns="http://www.w3.org/2000/svg">
<path d="M11.9557 10.356V13.807H16.7477C16.3017 16 14.4347 17.26 11.9557 17.26C9.06826 17.2202 6.74838 14.8682 6.74838 11.9805C6.74838 9.09275 9.06826 6.74072 11.9557 6.70098C13.1559 6.69954 14.3192 7.11605 15.2457 7.87898L17.8457 5.27898C14.8633 2.65705 10.5077 2.31981 7.15727 4.45142C3.80683 6.58303 2.26674 10.6712 3.37797 14.4836C4.48919 18.296 7.98467 20.9164 11.9557 20.914C16.4227 20.914 20.4847 17.665 20.4847 11.98C20.4778 11.4326 20.4108 10.8877 20.2847 10.355L11.9557 10.356Z" fill="#2A2238"/>
</svg>
