<svg width="24" height="24" viewBox="0 0 24 24" fill="none" xmlns="http://www.w3.org/2000/svg">
<path d="M19.3618 20.993H4.63781C3.73766 20.9919 3.00836 20.2622 3.00781 19.362V4.638C3.00891 3.73823 3.73805 3.0091 4.63781 3.008H19.3608C20.2609 3.00909 20.9906 3.7379 20.9928 4.638V19.362C20.9917 20.2623 20.2621 20.9919 19.3618 20.993ZM6.67281 9.67L6.28481 11.1H7.56281L6.73681 14.466C6.67611 14.7322 6.64261 15.004 6.63681 15.277C6.59033 15.7164 6.74758 16.1529 7.06359 16.4617C7.37961 16.7705 7.81961 16.9176 8.25781 16.861C9.18758 16.8207 10.0228 16.2804 10.4408 15.449L10.1138 16.749H11.9248L12.9578 12.608C13.2178 11.548 13.7298 11.008 14.4768 11.008C14.7422 10.9882 15.003 11.086 15.1899 11.2754C15.3768 11.4649 15.4711 11.7269 15.4478 11.992C15.4505 12.1889 15.4218 12.3851 15.3628 12.573L14.8348 14.479C14.7587 14.7429 14.7203 15.0163 14.7208 15.291C14.6922 15.7297 14.8602 16.1585 15.1792 16.4611C15.4982 16.7636 15.9352 16.9087 16.3718 16.857C17.4018 16.857 18.1198 16.157 18.5088 14.776L17.8018 14.503C17.5258 15.292 17.2318 15.676 16.9018 15.676C16.6608 15.676 16.5338 15.509 16.5338 15.192C16.5406 15.0257 16.5658 14.8607 16.6088 14.7L17.1288 12.842C17.2467 12.4597 17.3074 12.0621 17.3088 11.662C17.3683 11.1304 17.2009 10.5984 16.8479 10.1965C16.4948 9.79471 15.9886 9.56035 15.4538 9.551C14.4056 9.69414 13.5006 10.3569 13.0478 11.313L13.4078 9.696H10.6198L10.2288 11.096H11.5228L10.7228 14.284C10.4435 15.0672 9.7264 15.6103 8.89681 15.667C8.866 15.6675 8.8352 15.6651 8.80481 15.66C8.56181 15.603 8.42081 15.51 8.42081 15.208C8.42648 14.9584 8.46343 14.7104 8.53081 14.47L9.74681 9.67H6.67281ZM9.01781 6.508C8.62839 6.508 8.26855 6.71575 8.07384 7.053C7.87914 7.39024 7.87914 7.80575 8.07384 8.143C8.26855 8.48024 8.62839 8.688 9.01781 8.688V8.663C9.30936 8.66536 9.59004 8.55251 9.79881 8.349C10.0035 8.14689 10.1178 7.87064 10.1158 7.583C10.1081 6.98351 9.61733 6.50299 9.01781 6.508Z" fill="#2A2238"/>
</svg>
