<svg width="29" height="28" viewBox="0 0 29 28" fill="none" xmlns="http://www.w3.org/2000/svg">
<path d="M12.2487 27.997H4.0834C2.47288 27.9954 1.16768 26.6902 1.16614 25.0797V11.5013C0.0227662 10.6899 -0.333224 9.1517 0.337434 7.9205C1.59729 5.66956 2.88234 3.45082 4.14639 1.32447C4.65337 0.49436 5.55908 -0.00846075 6.53172 0.000107786C7.12458 0.00613085 7.70126 0.194287 8.18353 0.539156L8.21712 0.560154C8.79386 0.896115 14.3652 4.21233 18.8433 6.87622L22.8174 9.23915L22.9994 9.34694C26.1043 11.1821 26.8028 11.5993 26.842 11.6259C27.9849 12.4351 28.3365 13.9745 27.6581 15.1997C26.422 17.4072 25.1384 19.626 23.8491 21.7957C23.3487 22.6168 22.459 23.1205 21.4974 23.1269C21.309 23.127 21.1211 23.1059 20.9375 23.064C20.7751 23.1605 19.8792 23.7359 18.7439 24.4638C16.7239 25.7586 13.9635 27.5294 13.6443 27.6932C13.2137 27.9148 12.7324 28.0196 12.2487 27.997ZM3.49967 15.4404V25.0797C3.49967 25.4021 3.76101 25.6635 4.0834 25.6635H9.43498C7.40102 22.2296 5.40485 18.7888 3.49967 15.4404ZM5.40065 14.0406C5.96058 15.0023 12.0023 25.4241 12.0527 25.4941C12.1323 25.5975 12.2554 25.658 12.3858 25.6579C12.4547 25.6579 12.5224 25.6411 12.5832 25.6089C12.7722 25.5025 18.4541 21.8517 18.5101 21.8153C18.0706 21.5563 14.8902 19.6609 11.5221 17.655L5.37265 13.9986L5.38245 14.014L5.39645 14.0378V14.0462L5.40065 14.0406ZM6.06417 2.65991C4.9331 4.4797 2.4022 8.99838 2.3686 9.08097C2.28561 9.27926 2.35923 9.50845 2.54218 9.62131C2.72836 9.73189 21.2356 20.7584 21.412 20.7864C21.4344 20.7881 21.4568 20.7881 21.4792 20.7864C21.6313 20.7869 21.7726 20.7078 21.8515 20.5778C22.991 18.6643 25.6157 14.0588 25.6227 14.0448C25.7038 13.8457 25.6299 13.6171 25.4477 13.5031C25.27 13.3967 6.79769 2.41914 6.6787 2.36734C6.62463 2.34457 6.56659 2.33268 6.50792 2.33235C6.36051 2.33315 6.22331 2.40779 6.14256 2.53113L6.13276 2.54792L6.12157 2.56472L6.10477 2.59272V2.59972L6.08377 2.63331L6.06277 2.65991H6.06417ZM7.95815 10.345C6.67107 10.3442 5.62794 9.30091 5.62743 8.01382C5.62692 6.72673 6.66921 5.68257 7.9563 5.68076C9.24338 5.67896 10.2886 6.72021 10.2917 8.00729C10.2901 9.29543 9.24629 10.3393 7.95815 10.3408V10.345Z" fill="#2A2238"/>
</svg>
