<svg width="28" height="28" viewBox="0 0 28 28" fill="none" xmlns="http://www.w3.org/2000/svg">
<path d="M14 28C6.26801 28 0 21.732 0 14C0 6.26801 6.26801 0 14 0C21.732 0 28 6.26801 28 14C27.9915 21.7285 21.7285 27.9915 14 28ZM14 2.8C7.81441 2.8 2.8 7.81441 2.8 14C2.8 20.1856 7.81441 25.2 14 25.2C20.1856 25.2 25.2 20.1856 25.2 14C25.1931 7.81729 20.1827 2.80694 14 2.8ZM11.2 22.4C11.1804 22.4 11.004 22.393 9.8 22.393H8.4V22.3594C8.4 22.344 8.4 22.3244 8.4 22.3006C8.4 22.2544 8.4 22.1914 8.4098 22.1144C8.4252 21.9058 8.449 21.707 8.4826 21.5096C8.58745 20.8723 8.78558 20.2538 9.0706 19.6742C9.45976 18.8739 10.0539 18.1909 10.7926 17.6946L10.8122 17.682L10.8346 17.6652L10.8556 17.654H10.864H10.8738H10.8808H10.8906L10.906 17.6442C11.8367 17.0758 12.9096 16.7831 14 16.8C15.1334 16.7699 16.25 17.0795 17.206 17.689C17.944 18.186 18.538 18.8688 18.928 19.6686C19.2141 20.2477 19.4118 20.8663 19.5146 21.504C19.5594 21.7672 19.579 21.9786 19.5874 22.1088C19.5874 22.1704 19.5958 22.232 19.5972 22.295C19.5972 22.3188 19.5972 22.3384 19.5972 22.3538V22.3818C19.5972 22.3818 19.5412 22.3818 18.1972 22.3818C16.9288 22.3818 16.7972 22.3818 16.7972 22.3818C16.7972 22.3818 16.7972 22.3412 16.7972 22.2992C16.7972 22.2222 16.779 22.1032 16.7538 21.9548C16.6951 21.592 16.5838 21.2397 16.4234 20.909C16.25 20.5455 15.984 20.234 15.652 20.006C15.1531 19.7115 14.5786 19.5703 14 19.6C13.42 19.5745 12.8454 19.7206 12.348 20.02C12.0165 20.2485 11.7505 20.5598 11.5766 20.923C11.4165 21.2538 11.3052 21.6061 11.2462 21.9688C11.2263 22.0828 11.2123 22.1978 11.2042 22.3132C11.2042 22.3524 11.2042 22.3804 11.2042 22.3944H11.2V22.4ZM9.1 14C7.9402 14 7 13.0598 7 11.9C7 10.7402 7.9402 9.8 9.1 9.8C10.2598 9.8 11.2 10.7402 11.2 11.9C11.2 13.0598 10.2598 14 9.1 14ZM18.8902 13.9804C17.7358 13.9804 16.8 13.0446 16.8 11.8902C16.8 10.7358 17.7358 9.8 18.8902 9.8C20.0446 9.8 20.9804 10.7358 20.9804 11.8902C20.9789 13.0439 20.0439 13.9789 18.8902 13.9804Z" fill="#2A2238"/>
</svg>
