<svg width="24" height="24" viewBox="0 0 24 24" fill="none" xmlns="http://www.w3.org/2000/svg">
<path d="M12.0005 21H11.9495C11.8005 20.9888 11.6588 20.9311 11.5445 20.835C11.5131 20.8084 11.4843 20.7789 11.4585 20.747L2.16846 9.673C2.09602 9.59022 2.04487 9.49102 2.01946 9.384C2.01946 9.371 2.01346 9.358 2.01046 9.345C1.98213 9.17748 2.01782 9.00543 2.11046 8.863L2.12946 8.835L5.75946 3.7C5.77246 3.68 5.78546 3.662 5.80046 3.646C5.90664 3.51982 6.05397 3.43518 6.21646 3.407C6.24426 3.40276 6.27233 3.40042 6.30046 3.4L11.9505 3H12.0005H12.0495L17.7005 3.4C17.7317 3.40177 17.7628 3.40578 17.7935 3.412C17.9718 3.44519 18.1302 3.54629 18.2355 3.694L21.8725 8.838C21.88 8.84797 21.887 8.85831 21.8935 8.869C21.9767 8.99649 22.0144 9.14838 22.0005 9.3C21.9962 9.33886 21.9889 9.37732 21.9785 9.415C21.9511 9.51087 21.9026 9.59938 21.8365 9.674L12.5435 20.746C12.528 20.7654 12.5113 20.7838 12.4935 20.801C12.4351 20.8577 12.3674 20.9041 12.2935 20.938C12.2328 20.9654 12.1684 20.9839 12.1025 20.993C12.0687 20.9977 12.0346 21 12.0005 21ZM7.94646 9.911L12.0005 18.663L16.0545 9.911H7.94646ZM17.5865 9.911L14.8245 15.874L19.8245 9.911H17.5865ZM4.17346 9.911L9.17346 15.874L6.41446 9.911H4.17346ZM18.1685 5.994L17.9085 8.545H19.9705L18.1685 5.994ZM12.0005 4.869L8.87246 8.545H15.1285L12.0005 4.869ZM5.83246 5.994L4.03046 8.545H6.09246L5.83246 5.994ZM13.4775 4.471L16.5515 8.084L16.9005 4.711L13.4775 4.471ZM10.5215 4.471L7.10046 4.711L7.44546 8.084L10.5215 4.471Z" fill="#2A2238"/>
</svg>
