<svg width="22" height="28" viewBox="0 0 22 28" fill="none" xmlns="http://www.w3.org/2000/svg">
<path d="M7.53919 19.9532C11.6508 21.6844 17.0541 19.375 19.9542 14.501C23.0247 9.34072 22.1263 3.25982 17.9478 0.918941C13.7692 -1.42194 7.89274 0.863654 4.82229 6.02395C2.27748 10.3008 2.45889 15.2101 4.97454 18.0983L0 26.4587L2.75126 28L7.53919 19.9532ZM17.24 12.9805C16.6194 14.0234 15.9045 14.8638 15.1471 15.5213V3.1737C15.5942 3.2526 16.0029 3.39424 16.3569 3.59257C18.4961 4.79094 19.7862 8.70119 17.24 12.9805ZM10.3818 17.4232V4.41843C11.4368 3.68746 12.5387 3.28017 13.5587 3.14854V16.615C12.4681 17.1902 11.3638 17.4427 10.3818 17.4232ZM8.79339 17.1125C8.66304 17.059 8.53823 16.9989 8.41956 16.9324C6.28041 15.734 4.99028 11.8238 7.53652 7.54449C7.92304 6.89488 8.34618 6.32382 8.79339 5.82661V17.1125Z" fill="#2A2238"/>
</svg>
