<svg width="28" height="28" viewBox="0 0 28 28" fill="none" xmlns="http://www.w3.org/2000/svg">
<path d="M12.3908 6.43153C12.5395 6.11514 12.7037 5.80112 12.8836 5.49069L12.9214 5.42589L12.9428 5.38961C13.2606 4.85266 13.6119 4.35053 13.9902 3.88567C15.4613 2.07813 17.3426 0.834019 19.2677 0.297565C19.2746 0.295646 19.2815 0.293736 19.2884 0.291836C21.1126 -0.211613 22.9752 -0.079392 24.5645 0.811174L24.6086 0.836114C28.312 2.95072 29.1051 8.41958 26.3782 13.0614C23.9688 17.1627 19.6166 19.248 16.0732 18.2333L20.9999 26.6152L18.558 28L14.0011 20.2472L9.44662 27.9999L6.99993 26.6116L13.0567 16.3016C11.8054 14.8464 11.2035 12.8217 11.3121 10.6457C11.381 9.26628 11.7354 7.82602 12.3908 6.43153ZM22.1033 2.86825V13.9505C22.7679 13.3616 23.396 12.6106 23.9429 11.6796C26.2153 7.81149 25.0492 4.30504 23.1756 3.24194C22.8632 3.0647 22.5009 2.93815 22.1033 2.86825ZM20.6907 14.9435V2.85011C19.7849 2.97151 18.8047 3.34118 17.8655 4.00547V15.6818C18.7369 15.6966 19.7194 15.4668 20.6907 14.9435ZM15.0655 14.2757C15.2747 14.5621 15.5103 14.807 15.7642 15.0045C15.8806 15.0949 16.0007 15.1754 16.124 15.2453C16.1909 15.2833 16.2602 15.319 16.3317 15.3523C16.3657 15.3682 16.4002 15.3835 16.4352 15.3982L16.4529 15.4056V5.28383C16.0635 5.72586 15.6946 6.23239 15.3567 6.80765L15.3354 6.84401L15.3038 6.89866C15.2195 7.04544 15.1401 7.19168 15.0655 7.33726C13.6035 10.1904 13.9797 12.79 15.0655 14.2757Z" fill="#2A2238"/>
<path d="M10.3914 4.20821C9.37151 3.41481 8.28824 2.98243 7.29501 2.84936V14.8995C7.9941 15.2763 8.69902 15.5005 9.36385 15.5907C9.48079 15.8661 9.6099 16.1363 9.75132 16.4003L8.63298 18.304C5.97261 17.7976 3.31375 15.9129 1.61856 13.0289C-1.10665 8.39245 -0.309348 2.92888 3.39938 0.82565C5.97834 -0.636884 9.28601 -0.089418 11.9782 1.93882C11.431 2.5832 10.9367 3.27636 10.5072 4.00761C10.468 4.07423 10.4294 4.1411 10.3914 4.20821ZM4.05417 11.6476C4.5987 12.574 5.22378 13.3216 5.88517 13.908V2.86768C5.48957 2.93736 5.12901 3.06329 4.81823 3.23954C2.9516 4.29811 1.78768 7.79164 4.05417 11.6476Z" fill="#2A2238"/>
</svg>
