<svg xmlns="http://www.w3.org/2000/svg" fill="none" viewBox="0 0 32 32">
  <path fill="#00005B" d="M2 12.1333c0-3.54697 0-5.32047.69029-6.67524.6072-1.19169 1.57608-2.16057 2.76777-2.76777C6.81283 2 8.58633 2 12.1333 2h7.7334c3.547 0 5.3205 0 6.6752.69029 1.1917.6072 2.1606 1.57608 2.7678 2.76777C30 6.81283 30 8.58633 30 12.1333v7.7334c0 3.547 0 5.3205-.6903 6.6752-.6072 1.1917-1.5761 2.1606-2.7678 2.7678C25.1872 30 23.4137 30 19.8667 30h-7.7334c-3.54697 0-5.32047 0-6.67524-.6903-1.19169-.6072-2.16057-1.5761-2.76777-2.7678C2 25.1872 2 23.4137 2 19.8667v-7.7334Z"/>
  <path fill="#99F" d="M8 21.7957V9.20796c0-.08563.0351-.13456.11701-.13456C9.32624 9.0734 10.5349 9 11.7445 9c1.9626 0 4.0878.68403 4.8327 2.7769.1755.5138.2691 1.0398.2691 1.5903 0 1.052-.234 1.9205-.7021 2.6056-1.3074 1.9136-3.5736 1.8839-5.605 1.8839v3.9267c.0159.1163-.0813.1713-.1755.1713H8.14042c-.09361 0-.14042-.0489-.14042-.159Zm2.5509-10.3613v4.1102c.8055.0602 1.6483.0667 2.4222-.1957.8544-.2512 1.3223-1.005 1.3223-1.9083.0238-.7697-.3877-1.5083-1.0882-1.786-.7646-.3241-1.8309-.3435-2.6563-.2202Zm7.8816.7775h2.0536c.1132.0011.2149.0828.2448.197.1505.3493.1691.7706.1696 1.1477.3522-.4287.7768-.7858 1.2528-1.0537.5105-.3019 1.0892-.455 1.6756-.4431.0974-.0146.1835.0755.1696.1772v2.3831c0 .0921-.063.1379-.1884.1379-.8692-.0627-2.2224.152-2.854.8666v6.1964c0 .1182-.0502.1773-.1507.1773h-2.2033c-.1082.0162-.2037-.0856-.1884-.197v-6.7282c0-.9015.0187-1.8302-.113-2.7233-.0203-.0822.0549-.1586.1318-.1379Z"/>
</svg>
