<svg xmlns="http://www.w3.org/2000/svg" fill="none" viewBox="0 0 32 32">
  <path fill="#013301" d="M2 12.1333c0-3.54697 0-5.32047.69029-6.67524.6072-1.19169 1.57608-2.16057 2.76777-2.76777C6.81283 2 8.58633 2 12.1333 2h7.7334c3.547 0 5.3205 0 6.6752.69029 1.1917.6072 2.1606 1.57608 2.7678 2.76777C30 6.81283 30 8.58633 30 12.1333v7.7334c0 3.547 0 5.3205-.6903 6.6752-.6072 1.1917-1.5761 2.1606-2.7678 2.7678C25.1872 30 23.4137 30 19.8667 30h-7.7334c-3.54697 0-5.32047 0-6.67524-.6903-1.19169-.6072-2.16057-1.5761-2.76777-2.7678C2 25.1872 2 23.4137 2 19.8667v-7.7334Z"/>
  <path fill="#3F6" d="M14.7893 19.5638h-4.3389l-.88281 2.8181c-.02451.1045-.12074.1785-.22541.1734H7.14454c-.12532 0-.16915-.0706-.13148-.2119l3.75664-11.0508c.0376-.1155.0751-.2285.1127-.3763.0492-.2571.0743-.5183.0752-.7802-.0108-.0774.056-.14596.1314-.1349h2.9866c.0875 0 .1375.0321.1502.0963l4.2639 12.2651c.0375.1286-.0001.1928-.1127.1927h-2.4419c-.0856.0097-.1674-.049-.1878-.1349l-.958-2.8566Zm-3.6627-2.3761h2.9678c-.4876-1.6662-1.0379-3.3104-1.4839-4.9896-.5054 1.7418-.9721 3.3572-1.4839 4.9896Zm8.6026-4.2051h2.0475c.1129.001.2142.081.2441.1927.1501.3417.1685.7537.1691 1.1226.3511-.4193.7745-.7687 1.249-1.0306.509-.2954 1.086-.4451 1.6707-.4335.097-.0142.1829.0739.1691.1734v2.331c0 .09-.0629.1349-.1879.1349-.8666-.0613-2.2158.1487-2.8455.8477v6.0611c0 .1156-.0501.1734-.1502.1734h-2.1968c-.1079.0158-.2031-.0838-.1879-.1927v-6.5813c0-.8818.0187-1.7902-.1126-2.6638-.0203-.0804.0548-.1552.1314-.1349Z"/>
</svg>
