<svg xmlns="http://www.w3.org/2000/svg" fill="none" viewBox="0 0 32 32">
  <path fill="#470137" d="M2 12.1333c0-3.54697 0-5.32047.69029-6.67524.6072-1.19169 1.57608-2.16057 2.76777-2.76777C6.81283 2 8.58633 2 12.1333 2h7.7334c3.547 0 5.3205 0 6.6752.69029 1.1917.6072 2.1606 1.57608 2.7678 2.76777C30 6.81283 30 8.58633 30 12.1333v7.7334c0 3.547 0 5.3205-.6903 6.6752-.6072 1.1917-1.5761 2.1606-2.7678 2.7678C25.1872 30 23.4137 30 19.8667 30h-7.7334c-3.54697 0-5.32047 0-6.67524-.6903-1.19169-.6072-2.16057-1.5761-2.76777-2.7678C2 25.1872 2 23.4137 2 19.8667v-7.7334Z"/>
  <path fill="#FF61F6" d="m16.6465 10.2338-3.4937 5.9144 3.7378 6.2803c.0777.1424 0 .1739-.1126.1739h-2.6672c-.1879 0-.3194-.0068-.3945-.1353-.2507-.5009-.5011-.9986-.7514-1.4931-.2506-.4943-.5167-.9984-.7982-1.5123-.2818-.5135-.5604-1.0336-.8359-1.5604-.2506.5138-.5293 1.0275-.7983 1.5412-.2694.5138-.5355 1.0243-.79829 1.5315-.26295.5075-.53218 1.0116-.80766 1.5123-.05019.1156-.13797.1275-.26302.1275H6.09026c-.10111 0-.11331-.076-.05634-.166l3.62515-6.107-3.53127-6.1263c-.06414-.0874-.00894-.1805.09394-.1734h2.64841c.11468-.0064.21603.0368.28176.1349.22541.5138.47585 1.0276.75132 1.5412.27527.5138.55397 1.0212.83587 1.5219.2818.5009.5604 1.0082.7983 1.522.2503-.5265.5039-1.0402.7607-1.5412.2566-.5009.5195-1.005.7889-1.5123.2692-.5072.529-1.0113.7795-1.5123.0333-.1099.1129-.1656.2254-.1542h2.4606c.094 0 .1328.1283.094.1927Zm5.3906 12.6187c-1.6565.0259-3.3916-.6562-4.2638-2.1673-.4258-.7255-.6387-1.6341-.6386-2.726-.0071-.8842.2132-1.7547.6386-2.5237 1.0977-1.9622 3.3091-2.6974 5.4096-2.5044V9.13586c0-.08971.0376-.13485.1127-.13485h2.3667c.0647-.00948.1219.04922.1127.11557V20.5022c0 .4697.0466.9378.0752 1.4063.0046.08-.0417.1592-.1128.1927-1.1693.5002-2.4346.7455-3.7003.7513Zm1.1458-2.3889v-5.2593c-1.7156-.4766-3.3812.8301-3.381 2.6393-.0407 1.8705 1.5717 3.1628 3.381 2.62Z"/>
</svg>
