<svg xmlns="http://www.w3.org/2000/svg" fill="none" viewBox="0 0 32 32">
  <path fill="#001E36" d="M2 12.1333c0-3.54697 0-5.32047.69029-6.67524.6072-1.19169 1.57608-2.16057 2.76777-2.76777C6.81283 2 8.58633 2 12.1333 2h7.7334c3.547 0 5.3205 0 6.6752.69029 1.1917.6072 2.1606 1.57608 2.7678 2.76777C30 6.81283 30 8.58633 30 12.1333v7.7334c0 3.547 0 5.3205-.6903 6.6752-.6072 1.1917-1.5761 2.1606-2.7678 2.7678C25.1872 30 23.4137 30 19.8667 30h-7.7334c-3.54697 0-5.32047 0-6.67524-.6903-1.19169-.6072-2.16057-1.5761-2.76777-2.7678C2 25.1872 2 23.4137 2 19.8667v-7.7334Z"/>
  <path fill="#31A8FF" d="M8 22.5162V10.2034c0-.0837.035-.1316.11667-.1316C9.3223 10.0718 10.5274 10 11.7333 10c1.9569 0 4.0757.6691 4.8184 2.7162.175.5026.2683 1.0171.2683 1.5556 0 1.0291-.2333 1.8786-.7 2.5487-1.3036 1.8718-3.563 1.8427-5.5883 1.8427v3.8411c.0158.1137-.0811.1675-.175.1675H8.14c-.09333 0-.14-.0479-.14-.1556Zm2.5433-10.135v4.0205c.8031.0588 1.6434.0652 2.415-.1914.8519-.2458 1.3184-.9831 1.3184-1.8667.0236-.7529-.3866-1.4753-1.085-1.747-.7623-.317-1.8255-.336-2.6484-.2154Zm13.5534 3.2262c-.353-.1861-.729-.3222-1.1177-.4046-.4994-.1175-2.4692-.5291-2.47.5009.0175.575.9303.8567 1.3336 1.021 1.4159.4861 3.0181 1.355 2.9866 3.1017.0433 2.1744-2.0635 3.0437-3.8694 3.0439-.9401.0097-1.9195-.1359-2.7799-.5395-.0822-.0435-.135-.1364-.1315-.2312V20.019c-.0093-.0834.0803-.1563.1503-.0963.843.5098 1.8422.7574 2.8175.7706.4305 0 1.2837-.0417 1.2773-.6743 0-.607-1.0207-.8861-1.4276-1.0403-.5898-.2105-1.149-.5022-1.6623-.8669-.7174-.5117-1.1674-1.3321-1.1552-2.2347-.0042-2.0474 1.9351-2.9664 3.6816-2.9668.8164-.0068 1.6932.0537 2.4532.3853.1093.0321.1319.1473.1315.2504v1.9458c.0069.1208-.1272.1619-.218.1156Z"/>
</svg>
