<svg xmlns="http://www.w3.org/2000/svg" fill="none" viewBox="0 0 32 32">
  <path fill="#FF5A5F" d="M16 2C8.27812 2 2 8.27812 2 16c0 7.7219 6.27812 14 14 14 7.7219 0 14-6.2781 14-14 0-7.72188-6.2781-14-14-14Z"/>
  <path fill="#fff" d="M16.0003 19.6867c-.9178-1.1545-1.4577-2.1666-1.6377-3.0325-.18-.7036-.108-1.2628.1979-1.6777.324-.4871.8099-.7216 1.4398-.7216s1.1159.2345 1.4398.7216c.306.4149.3779.9741.198 1.6777-.198.884-.7379 1.8942-1.6378 3.0325Zm5.0248 2.6699c-1.5297.6675-3.0433-.3969-4.3391-1.8401 2.1435-2.6897 2.5394-4.7823 1.6198-6.1371-.5399-.7757-1.3138-1.1546-2.3055-1.1546-1.9977 0-3.0973 1.6958-2.6654 3.6639.252 1.0644.9179 2.2749 1.9797 3.6278-.7964.8847-1.8413 1.8882-3.0955 2.0025-1.8177.2706-3.24129-1.4973-2.59339-3.3212l4.60909-9.56473c.3934-.71904.8789-1.33495 1.7637-1.33495.6479 0 1.1518.37884 1.3678.68551l5.005 10.21417c.4904 1.2342-.1315 2.633-1.3462 3.1588Zm2.3217-3.5196-4.2851-8.93333C18.2518 8.244 17.6759 7.25 16.0003 7.25c-1.6557 0-2.3594 1.15455-3.0793 2.65367L8.65386 18.837c-.91785 2.5274.97185 4.7463 3.25934 4.7463.144 0 .2869-.018.4319-.018 1.1878-.1443 2.4134-.902 3.6552-2.2568 1.2418 1.353 2.4674 2.1125 3.6553 2.2568.145 0 .2879.018.4319.018 2.2874.0018 4.1771-2.2189 3.2593-4.7463Z"/>
</svg>
