<svg xmlns="http://www.w3.org/2000/svg" fill="none" viewBox="0 0 32 32">
  <path fill="#333" d="M16 2C8.27812 2 2 8.27812 2 16c0 7.7219 6.27812 14 14 14 7.7219 0 14-6.2781 14-14 0-7.72188-6.2781-14-14-14Z"/>
  <path fill="#fff" fill-rule="evenodd" d="M20.8099 18.038c-.0411-.059-.0825-.1167-.1237-.1741-.3349-.4668-.654-.9118-.654-1.8036v-3.3247c0-.1156.0006-.2304.0013-.3443.0073-1.2747.0139-2.43793-.9054-3.32779C18.3397 8.27737 17.0301 8 16.0286 8c-1.9588 0-4.144.75761-4.6022 3.2681-.0485.2667.1382.4062.3076.4455l1.9945.2238c.1868-.0098.3217-.2002.3578-.3919.1711-.8651.8697-1.2807 1.6547-1.2807.4233 0 .9041.1605 1.1546.5543.2584.3926.2543.9168.2506 1.3856-.0004.0546-.0008.1084-.0008.1612v.2787c-.1851.0215-.379.0418-.5787.0627-1.0878.1141-2.3482.2462-3.2921.6753-1.2887.5788-2.1937 1.7565-2.1937 3.4875 0 2.2184 1.3466 3.3274 3.0804 3.3274 1.4631 0 2.2638-.3581 3.3926-1.5513.0564.0847.107.1628.1548.2364.2692.4152.445.6861 1.025 1.1865.1531.0847.3557.0815.4914-.046.411-.379 1.1573-1.0514 1.578-1.417.1681-.1432.1383-.3746.0068-.5681Zm-4.0495-.9588c-.3267.602-.8471.9703-1.4253.9703-.7884 0-1.2513-.6242-1.2513-1.5477 0-1.818 1.5734-2.148 3.0612-2.148 0 .1088.001.2182.0019.3278.0073.823.0148 1.6623-.3865 2.3976Z" clip-rule="evenodd"/>
  <path fill="#fff" d="M23.2699 21.6659C21.2997 23.1894 18.4425 24 15.9818 24c-3.4473 0-6.55254-1.3355-8.90222-3.5588-.1843-.1748-.0198-.4135.20163-.2778 2.53545 1.5463 5.67039 2.4771 8.90809 2.4771 2.1845 0 4.5853-.4747 6.7943-1.4573.3332-.1477.6125.2307.2863.4827Z"/>
  <path fill="#fff" d="M21.7891 20.6047c.6343-.0803 2.0488-.258 2.3006.0798.2522.3375-.2774 1.7254-.5161 2.351l-.0017.0045c-.0718.1887.0826.264.2453.121 1.0573-.9264 1.3305-2.8682 1.1138-3.1496-.2149-.2775-2.0633-.5178-3.1912.3125-.1734.1288-.1437.3043.0493.2808Z"/>
</svg>
