<svg xmlns="http://www.w3.org/2000/svg" fill="none" viewBox="0 0 32 32">
  <path fill="#87C527" fill-rule="evenodd" d="M12.5915 3.88444C13.6002 3.32107 14.7626 3 16 3s2.3998.32107 3.4085.88444l.7379-.73799c.1953-.19527.5119-.19527.7072 0 .1952.19526.1952.51184 0 .7071l-.5924.5924C21.9266 5.72558 23 7.73743 23 10H9c0-2.26257 1.0734-4.27442 2.7388-5.55405l-.5924-.5924c-.1952-.19526-.1952-.51184 0-.7071.1953-.19527.5119-.19527.7072 0l.7379.73799ZM14 7c0 .55228-.4477 1-1 1s-1-.44772-1-1 .4477-1 1-1 1 .44772 1 1Zm5 1c.5523 0 1-.44772 1-1s-.4477-1-1-1-1 .44772-1 1 .4477 1 1 1Z" clip-rule="evenodd"/>
  <path fill="#87C527" d="M5 12.5c0-.8284.67157-1.5 1.5-1.5s1.5.6716 1.5 1.5v6c0 .8284-.67157 1.5-1.5 1.5S5 19.3284 5 18.5v-6ZM12 24v3.5c0 .8284.6716 1.5 1.5 1.5s1.5-.6716 1.5-1.5V24h2v3.5c0 .8284.6716 1.5 1.5 1.5s1.5-.6716 1.5-1.5V24h1c1.1046 0 2-.8954 2-2V11H9v11c0 1.1046.89543 2 2 2h1Zm12-11.5c0-.8284.6716-1.5 1.5-1.5s1.5.6716 1.5 1.5v6c0 .8284-.6716 1.5-1.5 1.5s-1.5-.6716-1.5-1.5v-6Z"/>
</svg>
