<svg xmlns="http://www.w3.org/2000/svg" fill="none" viewBox="0 0 70 48">
  <rect width="69" height="47" x=".5" y=".5" fill="#fff" stroke="#D9D9D9" rx="5.5"/>
  <path fill="#000" fill-rule="evenodd" d="M19.1601 16.6863c-.5875.7038-1.5276 1.2589-2.4677 1.1796-.1175-.9516.3428-1.9627.8813-2.5872.5876-.7236 1.6158-1.239 2.4482-1.2787.0979.9913-.284 1.9627-.8618 2.6863Zm.8519 1.3679c-.8282-.0482-1.5839.2522-2.1943.4948-.3928.1561-.7254.2883-.9785.2883-.284 0-.6303-.1392-1.0192-.2956-.5096-.2049-1.0922-.4392-1.7031-.428-1.4003.0198-2.7027.8228-3.4176 2.1015-1.46886 2.5574-.3819 6.3441 1.038 8.4257.6953 1.0309 1.5277 2.1609 2.6244 2.1213.4825-.0184.8296-.1675 1.1888-.3218.4136-.1776.8432-.3622 1.514-.3622.6475 0 1.0583.1797 1.4527.3523.3749.164.735.3215 1.2696.3119 1.1359-.0199 1.8508-1.0309 2.546-2.0618.7503-1.1065 1.0801-2.1863 1.1301-2.3502l.0059-.019c-.0012-.0012-.0105-.0055-.0269-.013-.2508-.1163-2.1679-1.0047-2.1862-3.387-.0185-1.9996 1.5205-3.0127 1.7628-3.1722.0147-.0097.0247-.0162.0292-.0196-.9793-1.4671-2.5069-1.6257-3.0357-1.6654Zm7.8635 12.5791V15.1796h5.7286c2.9574 0 5.0236 2.0618 5.0236 5.0752 0 3.0135-2.1054 5.0951-5.1019 5.0951h-3.2805v5.2834h-2.3698Zm2.3696-13.4315h2.7321c2.0564 0 3.2315 1.1102 3.2315 3.063 0 1.9527-1.1751 3.0729-3.2413 3.0729h-2.7223v-6.1359ZM46.452 28.7797c-.6267 1.2093-2.0075 1.9726-3.4959 1.9726-2.2034 0-3.7408-1.3283-3.7408-3.3306 0-1.9826 1.4885-3.1225 4.2402-3.291l2.9573-.1785v-.8524c0-1.2589-.8128-1.9429-2.262-1.9429-1.1947 0-2.0663.6245-2.2425 1.5761h-2.1348c.0685-2.0023 1.9291-3.4595 4.4458-3.4595 2.7125 0 4.4752 1.4373 4.4752 3.6677v7.6921H46.501v-1.8536h-.049Zm-2.8596.1388c-1.2632 0-2.0662-.6146-2.0662-1.5563 0-.9714.7736-1.5365 2.2523-1.6257l2.6342-.1685v.8723c0 1.4473-1.2143 2.4782-2.8203 2.4782Zm12.3778 2.3195c-.9498 2.7062-2.0368 3.5983-4.3478 3.5983-.1763 0-.7639-.0198-.901-.0595v-1.8536c.1469.0198.5093.0396.6953.0396 1.0478 0 1.6354-.4461 1.9977-1.6058l.2154-.684-4.0149-11.2508h2.4775l2.7909 9.1295h.0489l2.7909-9.1295h2.409L55.9702 31.238Z" clip-rule="evenodd"/>
</svg>
