<svg xmlns="http://www.w3.org/2000/svg" fill="none" viewBox="0 0 32 32">
  <path fill="url(#a)" fill-rule="evenodd" d="M11.1186 14.0842c-.1451-.1899-.3787-.2901-.6161-.2643-.2375.0258-.4441.1739-.54501.3906L4.07422 25.9816c-.10897.2182-.09732.4772.03079.6846.12811.2075.35442.3338.59811.3338h8.19218c.268.0062.5146-.1463.6289-.389 1.7671-3.6542.6961-9.2104-2.4056-12.5268Z" clip-rule="evenodd"/>
  <path fill="#2684FF" fill-rule="evenodd" d="M15.4339 3.37762c-2.9824 4.59207-3.3266 10.41678-.9059 15.32858l3.9496 7.9046c.119.2384.3625.389.6288.389h8.1907c.2437 0 .47-.1263.5981-.3337.1281-.2075.1398-.4665.0308-.6846 0 0-11.0192-22.05661-11.2961-22.6083-.1118-.22914-.3446-.37414-.5994-.3732-.2548.00095-.4866.14765-.5966.37762Z" clip-rule="evenodd"/>
  <defs>
    <linearGradient id="a" x1="14.3428" x2="6.09079" y1="15.9009" y2="24.759" gradientUnits="userSpaceOnUse">
      <stop stop-color="#0052CC"/>
      <stop offset=".923" stop-color="#2684FF"/>
    </linearGradient>
  </defs>
</svg>
