<svg xmlns="http://www.w3.org/2000/svg" fill="none" viewBox="0 0 48 48">
  <circle cx="24" cy="24" r="20" fill="#1769FF"/>
  <path fill="#fff" d="M18.9811 16c.6915 0 1.3303.0527 1.9165.2107.5861.1054 1.0669.3228 1.495.5862.4281.2634.7442.6388.9615 1.1196.2108.4808.3227 1.0669.3227 1.7058 0 .7442-.158 1.383-.5334 1.8638-.3227.4807-.8496.9088-1.495 1.225.9088.2634 1.6003.7442 2.0218 1.383.4215.6388.6916 1.4357.6916 2.3446 0 .7442-.1581 1.383-.4281 1.9165-.2635.5334-.6915 1.0142-1.1723 1.3303-.4808.3228-1.0669.5862-1.7058.7442-.6388.1581-1.2776.2635-1.9165.2635L12 30.7064V16h6.9811Zm-.4281 5.9668c.5861 0 1.0669-.158 1.4357-.428.3688-.2701.5335-.7443.5335-1.3304 0-.3227-.0527-.6388-.1581-.8496-.1054-.2107-.2634-.3754-.4808-.5334-.2107-.1054-.428-.2108-.6915-.2635-.2634-.0527-.5334-.0527-.8496-.0527h-3.0888v3.4642c0-.0066 3.2996-.0066 3.2996-.0066Zm.1581 6.2896c.3227 0 .6388-.0527.9088-.1054.2634-.0527.5335-.158.7442-.3227.2108-.1646.3754-.3227.5335-.5861.1054-.2635.2107-.5862.2107-.9616 0-.7442-.2107-1.2776-.6388-1.653-.4281-.3228-1.0142-.4808-1.7058-.4808h-3.5103v4.103h3.4577v.0066Zm10.2869-.0528c.4281.4281 1.0669.6389 1.9165.6389.5862 0 1.1196-.1581 1.5477-.4281.4281-.3227.6915-.6388.7969-.9616h2.608c-.428 1.2777-1.0669 2.1866-1.9165 2.7727-.8495.5335-1.8638.8496-3.0888.8496-.8495 0-1.6003-.1581-2.2919-.4281-.6915-.2634-1.2249-.6388-1.7057-1.1723-.4808-.4808-.8496-1.0669-1.0669-1.7584-.2635-.6915-.3754-1.4358-.3754-2.2919 0-.7969.1053-1.5477.3754-2.2392.27-.6916.6388-1.2777 1.1196-1.8112.4808-.4807 1.0669-.9088 1.7057-1.1723.6916-.2634 1.3831-.428 2.2392-.428.9089 0 1.7058.158 2.3973.5334.6915.3754 1.225.7969 1.6531 1.4357.4281.5862.7442 1.2777.9615 2.0219.1054.7442.1581 1.495.1054 2.3446h-7.7253c0 .8694.3161 1.6663.7442 2.0943Zm3.3588-5.598c-.3753-.3754-.9615-.5861-1.653-.5861-.4808 0-.8496.1053-1.1723.2634-.3227.1581-.5335.3754-.7442.5861-.2108.2108-.3227.4808-.3754.7443-.0527.2634-.1054.4807-.1054.6915h4.7946c-.1054-.7903-.3754-1.3238-.7443-1.6992Zm-4.6891-5.5914h5.9668v1.4357h-5.9668v-1.4357Z"/>
</svg>
