<svg xmlns="http://www.w3.org/2000/svg" fill="none" viewBox="0 0 28 32">
  <path fill="#F70" d="M13.6466 31.9999c2.5248 0 4.5715-2.0467 4.5715-4.5714 0-2.5247-2.0467-4.5714-4.5715-4.5714-2.5247 0-4.5714 2.0467-4.5714 4.5714 0 2.5247 2.0467 4.5714 4.5714 4.5714Z"/>
  <path fill="url(#a)" fill-rule="evenodd" d="M21.1892 6.17181c-1.324-1.32398-2.8223-2.22715-4.4948-2.7095v-.41469c0-.84157-.2976-1.55991-.8926-2.154994C15.2066.297542 14.4883 0 13.6467 0c-.8415 0-1.5599.297542-2.155.892626-.595.595084-.8926 1.313424-.8926 2.154994v.41469c-1.67258.48235-3.17086 1.38552-4.49484 2.7095C4.02147 8.2546 2.98007 10.7688 2.98007 13.7143v8.2286L.491411 24.9292c-.189259.2272-.307196.4873-.35381.7805-.02907.2932.019093.5737.144487.8415.125395.2676.312826.4808.562294.6394.249468.1586.522018.238.817648.238H25.6314c.2956 0 .5682-.0794.8177-.238.2495-.1586.4369-.3718.5623-.6394.1254-.2678.1692-.5483.1313-.8415-.0379-.2932-.1515-.5533-.3407-.7805l-2.4886-2.9863v-8.2286c0-2.9455-1.0414-5.4597-3.1242-7.54249Z" clip-rule="evenodd"/>
  <defs>
    <radialGradient id="a" cx="0" cy="0" r="1" gradientTransform="matrix(12.58806 17.14284 -16.88644 12.39979 9.12995 7.54174)" gradientUnits="userSpaceOnUse">
      <stop stop-color="#FADF73"/>
      <stop offset=".457142" stop-color="#FFD500"/>
      <stop offset="1" stop-color="#FC9900"/>
    </radialGradient>
  </defs>
</svg>
