<svg xmlns="http://www.w3.org/2000/svg" fill="none" viewBox="0 0 32 32">
  <path fill="#2684FF" d="M2.9087 3.00008c-.26502-.00353-.518.11414-.69106.32144-.17306.20731-.24849.48303-.20606.7532L5.81987 27.9484c.09795.6031.60106 1.0465 1.19318 1.0515H25.283c.4444.0059.826-.3251.8971-.7782l3.8083-24.14235c.0425-.27017-.033-.54589-.206-.7532-.1731-.2073-.4261-.32497-.6911-.32144L2.9087 3.00008ZM18.9448 20.2546h-5.8313l-1.5789-8.5184h8.8232l-1.413 8.5184Z"/>
  <path fill="url(#a)" fill-rule="evenodd" d="M28.7778 11.7363h-8.4196l-1.4129 8.5184H13.114l-6.88548 8.4397c.21823.1948.49648.3032.78498.3057h18.2744c.4445.0059.8261-.3251.8972-.7782l2.5927-16.4856Z" clip-rule="evenodd"/>
  <defs>
    <linearGradient id="a" x1="30.7245" x2="20.5764" y1="14.1218" y2="28.0753" gradientUnits="userSpaceOnUse">
      <stop offset=".18" stop-color="#0052CC"/>
      <stop offset="1" stop-color="#2684FF"/>
    </linearGradient>
  </defs>
</svg>
