<svg xmlns="http://www.w3.org/2000/svg" fill="none" viewBox="0 0 70 48">
  <rect width="69" height="47" x=".5" y=".5" fill="#fff" stroke="#D9D9D9" rx="5.5"/>
  <path fill="#F7931A" fill-rule="evenodd" d="M51.2538 24.1292c0 8.9079-7.2209 16.1292-16.1283 16.1292-8.9075 0-16.1284-7.2213-16.1284-16.1292C18.9971 15.2213 26.218 8 35.1255 8c8.9074 0 16.1283 7.2213 16.1283 16.1292Zm-12.2536-5.9926c2.2436.7705 3.8847 1.9241 3.5627 4.0711-.2338 1.5722-1.1086 2.3326-2.2708 2.5988 1.5945.827 2.138 2.3964 1.633 4.294-.9587 2.7309-3.2377 2.9608-6.2689 2.39l-.736 2.9356-1.7768-.4417.7259-2.8962c-.4606-.114-.9314-.236-1.4164-.3661l-.7289 2.9104-1.7748-.4417.735-2.9417-3.5789-.8995.8829-2.027s1.31.3459 1.2918.3207c.5032.124.7269-.2027.815-.4195l1.9945-7.9678c.0222-.3762-.1084-.8501-.8282-1.0296.0273-.0192-1.2908-.3197-1.2908-.3197l.4728-1.8909 3.5839.8845.729-2.9084 1.7758.4417-.7138 2.8509c.4779.1079.9578.2178 1.4245.3338l.7087-2.8328 1.7768.4417-.728 2.9094Zm-4.2514 4.8516c1.2103.3209 3.844 1.0192 4.3031-.8117.4683-1.8732-2.0904-2.4389-3.3432-2.7159h-.0002c-.1419-.0314-.2671-.0591-.3692-.0845l-.8848 3.5356c.0843.0208.1833.0471.2943.0765Zm-1.3713 5.6925c1.4496.3819 4.6201 1.217 5.1246-.8004.5164-2.0628-2.5576-2.7498-4.0575-3.0851l-.0005-.0001c-.1674-.0374-.3151-.0704-.4361-.1005l-.976 3.8967c.0991.0245.2152.0551.3451.0893l.0004.0001Z" clip-rule="evenodd"/>
</svg>
