<svg xmlns="http://www.w3.org/2000/svg" fill="none" viewBox="0 0 32 32">
  <path fill="#1D1D1D" d="M30 16c0 7.728-6.265 14-14 14S2 23.728 2 16C2 8.265 8.265 2 16 2s14 6.265 14 14Z"/>
  <path fill="#fff" d="m8.95479 8-.9774 4h3.36071c.897 0 1.6789-.6246 1.8964-1.5149C13.543 9.22278 12.6098 8 11.3381 8H8.95479Zm-.9774 6L7 18h3.3607c.897 0 1.6789-.6246 1.8964-1.5149C12.5656 15.2228 11.6325 14 10.3607 14H7.97739Zm5.86441 4 .9774-4h2.3833c1.2717 0 2.2048 1.2228 1.8964 2.4851-.2175.8903-.9994 1.5149-1.8964 1.5149h-3.3607Zm0 2-.9774 4h3.3607c.897 0 1.6789-.6246 1.8964-1.5149C18.43 21.2228 17.4968 20 16.2251 20h-2.3833Zm9.2251 2h-3.3608l.9774-4h2.3834c1.2717 0 2.2048 1.2228 1.8964 2.4851-.2176.8903-.9995 1.5149-1.8964 1.5149Zm-1.406-10-.9774 4h3.3607c.897 0 1.6789-.6246 1.8965-1.5149C26.2491 13.2228 25.316 12 24.0442 12h-2.3833Zm-6.8417 0 .9774-4h2.3833c1.2717 0 2.2048 1.22278 1.8964 2.4851-.2175.8903-.9994 1.5149-1.8964 1.5149h-3.3607Z"/>
</svg>
