<svg xmlns="http://www.w3.org/2000/svg" fill="none" viewBox="0 0 25 32">
  <path fill="#AA75CB" d="m9.73779 18.8436 3.21311 1.8551-6.52481 11.3014-1.87276-4.1767 5.18446-8.9798Z"/>
  <path fill="#73488D" d="m9.73779 18.8436-3.21312-1.8551-6.52482508 11.3014L4.55333 27.8234l5.18446-8.9798Zm4.58401 0-3.2131 1.8551 6.5248 11.3014 1.8727-4.1767-5.1844-8.9798Z"/>
  <path fill="#AA75CB" d="m14.3218 18.8436 3.2131-1.8551 6.5248 11.3014-4.5535-.4665-5.1844-8.9798Z"/>
  <circle cx="12.0246" cy="11.0622" r="11.0622" fill="#DC9E42"/>
  <circle cx="12.0247" cy="11.0621" r="8.63501" fill="#734C12"/>
  <mask id="a" width="19" height="18" x="3" y="3" maskUnits="userSpaceOnUse" style="mask-type:alpha">
    <circle cx="12.4857" cy="11.984" r="8.65511" fill="#C28B37"/>
  </mask>
  <g mask="url(#a)">
    <circle cx="12.0247" cy="11.0622" r="8.65511" fill="#A36D1D"/>
  </g>
  <path fill="url(#b)" d="m12.0713 5.04102 1.867 3.73406 3.7341.46675-2.5641 2.87527.6971 4.1261-3.7341-1.867-3.73406 1.867.70325-4.1261-2.57028-2.87527 3.73409-.46675 1.867-3.73406Z"/>
  <defs>
    <linearGradient id="b" x1="12.0713" x2="12.0713" y1="5.04102" y2="16.2432" gradientUnits="userSpaceOnUse">
      <stop stop-color="#FCFF80"/>
      <stop offset=".401042" stop-color="#FDE870"/>
      <stop offset="1" stop-color="#FFC759"/>
    </linearGradient>
  </defs>
</svg>
