<svg xmlns="http://www.w3.org/2000/svg" fill="none" viewBox="0 0 30 32">
  <path fill="#02B9FC" d="M8.72727 0H7.27273C6.4694 0 5.81818.651222 5.81818 1.45455v4.36363c0 .80333.65122 1.45455 1.45455 1.45455h1.45454c.80333 0 1.45453-.65122 1.45453-1.45455V1.45455C10.1818.651222 9.5306 0 8.72727 0ZM21.8182 0h-1.4546c-.8033 0-1.4545.651222-1.4545 1.45455v4.36363c0 .80333.6512 1.45455 1.4545 1.45455h1.4546c.8033 0 1.4545-.65122 1.4545-1.45455V1.45455C23.2727.651222 22.6215 0 21.8182 0Z"/>
  <path fill="#02B9FC" d="M0 11.6364h29.0909V5.81818c0-1.60664-1.3024-2.90909-2.9091-2.90909H2.90909C1.30245 2.90909 0 4.21154 0 5.81818v5.81822Z"/>
  <path fill="url(#a)" fill-rule="evenodd" d="M2.90909 32C1.30245 32 0 30.6976 0 29.0909V11.6364h29.0909v17.4545c0 1.6067-1.3024 2.9091-2.9091 2.9091H2.90909Zm7.47081-12.8927 3.6364 3.6364 6.5454-6.5455c.7273-.7273 2.1818.7274 1.4546 1.4546-.1549.1548-.5893.6064-1.1809 1.2214-2.1868 2.2732-6.5207 6.7786-6.8191 6.7786-.2845 0-2.5995-2.4574-4.04452-3.9913-.4806-.5101-.86497-.9182-1.04641-1.0996-.72698-.7272.72735-2.1818 1.45453-1.4546Z" clip-rule="evenodd"/>
  <defs>
    <linearGradient id="a" x1="14.5455" x2="14.5455" y1="11.6364" y2="32" gradientUnits="userSpaceOnUse">
      <stop stop-color="#05D2FE"/>
      <stop offset="1" stop-color="#02B9FC"/>
    </linearGradient>
  </defs>
</svg>
