<svg xmlns="http://www.w3.org/2000/svg" fill="none" viewBox="0 0 32 31">
  <path fill="#FF4D00" d="M10.3147 30.9442c1.6277 0 2.9471-1.3195 2.9471-2.9471S11.9424 25.05 10.3147 25.05c-1.62758 0-2.94702 1.3195-2.94702 2.9471s1.31944 2.9471 2.94702 2.9471Zm16.2085 0c1.6277 0 2.9471-1.3195 2.9471-2.9471S28.1509 25.05 26.5232 25.05c-1.6276 0-2.947 1.3195-2.947 2.9471s1.3194 2.9471 2.947 2.9471Z"/>
  <path fill="url(#a)" fill-rule="evenodd" d="M30.526 5.89412H7.44717l-.83806-3.61296C6.45421 1.61335 6.1084 1.0662 5.57167.63972 5.03494.21324 4.42381 0 3.73827 0H1.47353C.659722 0 0 .659722 0 1.47353c0 .8138.659722 1.47353 1.47353 1.47353h2.26474l.68359 2.94706h-.00127L8.21564 22.4326c.0768.3347.24951.609.51814.823.26862.2139.57464.3209.91805.3209H26.8066c.3375 0 .6393-.1037.9055-.3111.2662-.2073.4406-.4746.5233-.8019l3.7193-14.73521c.0556-.22027.06-.44155.0133-.66386-.0468-.22231-.14-.42307-.2796-.60229-.1396-.17921-.3114-.31869-.5156-.41842-.204-.09973-.4196-.1496-.6468-.1496Z" clip-rule="evenodd"/>
  <path fill="#fff" fill-opacity=".6" fill-rule="evenodd" d="M8.95667 10.7179c-.01383-.0569-.02422-.1145-.04163-.1726v-.1752c0-.40687.14386-.75418.43159-1.04191.28772-.28772.63504-.43158 1.04197-.43158.3399 0 .6435.10504.9107.31513.2672.21009.4409.48029.5212.81066l2.136 8.7946.0002.0005c.0138.0569.0242.1145.0311.1726.007.0582.0105.1166.0105.1752 0 .4069-.1439.7542-.4316 1.0419-.2877.2877-.635.4316-1.0419.4316-.34 0-.6435-.105-.9108-.3151-.2672-.2101-.4409-.4803-.5211-.8106l-2.13623-8.7952Zm8.68383-.6589c-.0802-.33036-.254-.60056-.5212-.81065s-.5708-.31514-.9107-.31514c-.4069 0-.7542.14386-1.042.43159-.2877.28772-.4315.63504-.4315 1.0419 0 .0586.0034.117.0104.1752.007.0581.0174.1157.0312.1726l2.1362 8.7952c.0802.3303.2539.6005.5212.8106.2672.2101.5708.3151.9107.3151.4069 0 .7542-.1439 1.0419-.4316.2877-.2877.4316-.635.4316-1.0419 0-.0586-.0035-.117-.0104-.1752-.007-.0581-.0174-.1157-.0312-.1726l-.0001-.0005-2.1361-8.7946Z" clip-rule="evenodd" style="mix-blend-mode:hard-light"/>
  <defs>
    <linearGradient id="a" x1="0" x2="19.7144" y1="0" y2="29.6608" gradientUnits="userSpaceOnUse">
      <stop stop-color="#FFB300"/>
      <stop offset="1" stop-color="#FF4900"/>
    </linearGradient>
  </defs>
</svg>
