<svg xmlns="http://www.w3.org/2000/svg" fill="none" viewBox="0 0 32 32">
  <path fill="#EF3F36" d="M16.0005 2.00394s8.2522-.36899 12.6273 7.89608H15.2983s-2.5155-.08079-4.6643 2.96008c-.6173 1.2763-1.2808 2.591-.5362 5.1821-1.07263-1.8107-5.69448-9.82974-5.69448-9.82974s3.26-5.88177 11.59708-6.20852h.0001Z"/>
  <path fill="#FCD900" d="M28.1994 22.986s-3.8079 7.3078-13.175 6.9465c1.1574-1.9952 6.6666-11.502 6.6666-11.502s1.331-2.1297-.2392-5.5049c-.7987-1.1725-1.6127-2.3988-4.2361-3.05236 2.1104-.01911 11.3888 0 11.3888 0s3.476 5.75486-.4051 13.11276Z"/>
  <path fill="#61BC5B" d="M3.85931 23.0433s-4.448302-6.9389.55164-14.84262C5.56452 10.1959 11.0737 19.7027 11.0737 19.7027s1.1883 2.2143 4.9035 2.5448c1.416-.1038 2.8897-.1922 4.7725-2.1258-1.038 1.8299-5.6946 9.8259-5.6946 9.8259s-6.74376.123-11.1959-6.9043h.00011Z"/>
  <path fill="#5AB055" d="m15.0205 30.0013 1.875-7.796s2.0602-.1616 3.7887-2.0491c-1.0727 1.88-5.6637 9.8451-5.6637 9.8451Z"/>
  <path fill="#fff" d="M9.71973 16.089c0-3.4367 2.79707-6.22377 6.24607-6.22377 3.449 0 6.2461 2.78707 6.2461 6.22377s-2.7971 6.2237-6.2461 6.2237c-3.449-.0038-6.24607-2.787-6.24607-6.2237Z"/>
  <path fill="url(#a)" d="M10.7656 16.0892c0-2.86 2.3265-5.182 5.2007-5.182 2.8703 0 5.2006 2.3182 5.2006 5.182 0 2.8602-2.3263 5.1822-5.2006 5.1822-2.8704 0-5.2007-2.322-5.2007-5.1822Z"/>
  <path fill="#EACA05" d="m28.6007 9.87673-7.7199 2.25657s-1.1651-1.7031-3.6689-2.25657c2.1721-.01158 11.3888 0 11.3888 0Z"/>
  <path fill="#DF3A32" d="M9.94735 17.7577c-1.08422-1.8722-5.54403-9.5453-5.54403-9.5453l5.71758 5.6357s-.58649 1.2033-.36649 2.9254l.19283.9842h.00011Z"/>
  <defs>
    <linearGradient id="a" x1="15.9661" x2="15.9661" y1="10.9804" y2="20.9594" gradientUnits="userSpaceOnUse">
      <stop stop-color="#86BBE5"/>
      <stop offset="1" stop-color="#1072BA"/>
    </linearGradient>
  </defs>
</svg>
