<svg xmlns="http://www.w3.org/2000/svg" fill="none" viewBox="0 0 32 31">
  <path fill="url(#a)" d="M11.6364 23.2727c6.4266 0 11.6363-5.2097 11.6363-11.6363C23.2727 5.20978 18.063 0 11.6364 0 5.20978 0 0 5.20978 0 11.6364c0 6.4266 5.20978 11.6363 11.6364 11.6363Z"/>
  <path fill="url(#b)" fill-rule="evenodd" d="M17.4546 23.2727c0-.119-.0029-.2379-.0087-.3568-.0059-.1189-.0146-.2376-.0263-.356-.0117-.1185-.0262-.2366-.0437-.3543-.0174-.1177-.0378-.235-.061-.3517-.0232-.1168-.0493-.2328-.0782-.3483-.0289-.1155-.0607-.2301-.0952-.344-.0346-.1139-.0719-.2269-.112-.339-.0401-.112-.0829-.2231-.1285-.333-.0455-.11-.0937-.2188-.1446-.3264-.0509-.1076-.1044-.2138-.1605-.3188-.0561-.105-.1148-.2085-.176-.3106-.0612-.1021-.1248-.2026-.1909-.3016-.0662-.099-.1347-.1962-.2056-.2918-.0709-.0956-.1441-.1894-.2196-.2814-.0755-.0921-.1532-.1822-.2332-.2703-.0799-.0882-.1619-.1744-.2461-.2586-.0842-.0841-.1703-.1662-.2585-.2461-.0882-.0799-.1783-.1577-.2703-.2332-.092-.0755-.1858-.1487-.2814-.2196-.0956-.0709-.1929-.1394-.2919-.2055-.099-.0662-.1995-.1298-.3016-.191-.1021-.0612-.2056-.1198-.3106-.1759-.1049-.0562-.2112-.1097-.3188-.1605-.1076-.0509-.2164-.0991-.3263-.1447-.11-.0455-.221-.0884-.3331-.1285s-.225-.0774-.3389-.1119c-.1139-.0346-.2286-.0663-.3441-.0952-.1154-.029-.2315-.055-.3483-.0783-.1167-.0232-.2339-.0435-.3517-.061-.1177-.0174-.2358-.032-.3542-.0437-.1185-.0116-.2372-.0204-.356-.0262-.1189-.0059-.2379-.0088-.3569-.0088s-.23797.0029-.35685.0088c-.11888.0058-.23754.0146-.356.0262-.11845.0117-.23654.0263-.35427.0437-.11774.0175-.23498.0378-.35171.061-.11674.0233-.23284.0493-.34829.0783-.11546.0289-.23014.0606-.34403.0952-.1139.0345-.22688.0718-.33895.1119-.11207.0401-.22309.083-.33305.1285-.10996.0456-.21874.0938-.32634.1447-.10759.0508-.21387.1043-.31884.1605-.10497.0561-.2085.1147-.31059.1759-.10209.0612-.20262.1248-.30158.191-.09897.0661-.19625.1346-.29186.2055-.0956.0709-.1894.1441-.28141.2196-.092.0755-.1821.1533-.2703.2332-.08818.0799-.17435.162-.25851.2461-.08417.0842-.16622.1704-.24615.2586-.07993.0881-.15764.1782-.23315.2703-.07551.092-.14872.1858-.21962.2814-.07091.0956-.13942.1928-.20554.2918-.06613.099-.12979.1995-.19098.3016-.06119.1021-.11984.2056-.17595.3106-.0561.105-.1096.2112-.16049.3188-.05089.1076-.09911.2164-.14466.3264-.04555.1099-.08837.221-.12847.333-.04009.1121-.07742.2251-.11197.339-.03455.1139-.06628.2285-.09521.344-.02892.1155-.05499.2315-.07821.3483-.02322.1167-.04356.234-.06102.3517-.01747.1177-.03203.2358-.0437.3543-.01167.1184-.02042.2371-.02626.356-.00584.1189-.00876.2378-.00876.3568s.00292.238.00876.3569c.00584.1189.01459.2375.02626.356.01167.1184.02623.2365.0437.3543.01746.1177.0378.2349.06102.3517.02322.1167.04929.2328.07821.3483.02893.1154.06066.2301.09521.344.03455.1139.07188.2269.11197.3389.0401.1121.08292.2231.12847.3331.04555.1099.09377.2187.14466.3263.05089.1076.10439.2139.16049.3189.05611.1049.11476.2085.17595.3105.06119.1021.12485.2027.19098.3016.06612.099.13463.1963.20554.2919.0709.0956.14411.1894.21962.2814.07551.092.15322.1821.23315.2703.07993.0882.16198.1744.24615.2585.08416.0842.17033.1662.25851.2462.0882.0799.1783.1576.2703.2331.09201.0755.18581.1487.28141.2196.09561.0709.19289.1394.29186.2056.09896.0661.19949.1298.30158.1909.10209.0612.20562.1199.31059.176.10497.0561.21125.1096.31884.1605.1076.0509.21638.0991.32634.1447.10996.0455.22098.0883.33305.1284.11207.0401.22505.0774.33895.112.11389.0345.22857.0663.34403.0952.11545.0289.23155.055.34829.0782.11673.0232.23397.0436.35171.061.11773.0175.23582.0321.35427.0437.11846.0117.23712.0205.356.0263.11888.0058.23785.0088.35685.0088h11.6364v-7.2728h-4.3637Z" clip-rule="evenodd"/>
  <path fill="url(#c)" d="M21.8185 30.5455c5.6233 0 10.1819-4.5585 10.1819-10.1818s-4.5586-10.1818-10.1819-10.1818c-5.6232 0-10.1818 4.5585-10.1818 10.1818s4.5586 10.1818 10.1818 10.1818Z"/>
  <defs>
    <radialGradient id="a" cx="0" cy="0" r="1" gradientTransform="rotate(58.625 -1.64892166 11.39634064) scale(17.2183)" gradientUnits="userSpaceOnUse">
      <stop stop-color="#FFDB00"/>
      <stop offset="1" stop-color="#FB0"/>
    </radialGradient>
    <radialGradient id="b" cx="0" cy="0" r="1" gradientTransform="matrix(8.57434 8.21518 -10.67972 11.14664 6.30062 19.374)" gradientUnits="userSpaceOnUse">
      <stop stop-color="#EFFCFF"/>
      <stop offset=".999999" stop-color="#A5F2FF"/>
    </radialGradient>
    <radialGradient id="c" cx="0" cy="0" r="1" gradientTransform="rotate(73.544 -1.04432061 18.51960207) scale(16.9656)" gradientUnits="userSpaceOnUse">
      <stop stop-color="#fff"/>
      <stop offset="1" stop-color="#AEF1FD"/>
    </radialGradient>
  </defs>
</svg>
