<svg xmlns="http://www.w3.org/2000/svg" fill="none" viewBox="0 0 32 32">
  <circle cx="16" cy="16" r="14" fill="#000"/>
  <path fill="#fff" fill-rule="evenodd" d="M15.4453 6.16795c.3359-.22393.7735-.22393 1.1094 0l9 5.99995c.2782.1855.4453.4977.4453.8321v6c0 .3344-.1671.6466-.4453.8321l-9 6c-.3359.2239-.7735.2239-1.1094 0l-9-6C6.1671 19.6466 6 19.3344 6 19v-6c0-.3344.1671-.6466.4453-.8321l9-5.99995ZM8 14.8685 9.69722 16 8 17.1315v-2.263ZM8.80278 19 15 23.1315v-3.5963l-3.5-2.3334L8.80278 19Zm4.50002-3L16 17.7982 18.6972 16 16 14.2018 13.3028 16ZM17 12.4648l3.5 2.3333L23.1972 13 17 8.86852v3.59628Zm-2-3.59628v3.59628l-3.5 2.3333L8.80278 13 15 8.86852Zm9 5.99998L22.3028 16 24 17.1315v-2.263ZM23.1972 19 20.5 17.2019 17 19.5352v3.5963L23.1972 19Z" clip-rule="evenodd"/>
</svg>
