<svg xmlns="http://www.w3.org/2000/svg" fill="none" viewBox="0 0 32 32">
  <path fill="#7F3A86" d="M27.6947 22.9999c.1883-.3382.3053-.7192.3053-1.0614V10.0613c0-.34217-.1169-.72312-.3053-1.0613L16 16l11.6947 6.9999Z"/>
  <path fill="#662579" d="m17.0395 29.7433 9.9216-5.9386c.2858-.1711.5456-.4665.7339-.8047l-11.6947-7-11.69464 7c.18832.3382.44816.6337.73389.8047l9.92155 5.9386c.5715.3422 1.5069.3422 2.0784 0Z"/>
  <path fill="#9A5196" d="M27.6947 8.99996c-.1883-.33826-.4482-.63367-.7339-.80475l-9.9216-5.93859c-.5715-.34216-1.5069-.34216-2.0784 0L5.03922 8.19521C4.46761 8.53729 4 9.37709 4 10.0613v11.8773c0 .3421.11694.7232.30533 1.0614L16 16l11.6947-7.00004Z"/>
  <path fill="#fff" d="M16.0385 24C11.6061 24 8 20.4112 8 16s3.6061-8 8.0385-8c2.8073 0 5.4289 1.47569 6.8805 3.8618l-3.4425 2.0647C18.7492 12.736 17.4399 12 16.0385 12c-2.2163 0-4.0192 1.7944-4.0192 4s1.8029 4 4.0192 4c1.3977 0 2.7036-.7319 3.4322-1.9168l3.4498 2.0527C21.4692 22.5234 18.8467 24 16.0385 24Z"/>
  <path fill="#fff" fill-rule="evenodd" d="M25.0001 13v.9974h-2.0002V13h-.9998v.9974H21V15h1.0001v1.9948H21V18h1.0001v1h.9998L23 18h2.0001v1h.9998v-1H27v-1h-1.0001v-2H27v-1.0026h-1.0001V13h-.9998Zm0 4v-2h-2.0002v1.9948L25.0001 17Z" clip-rule="evenodd"/>
</svg>
