<svg xmlns="http://www.w3.org/2000/svg" fill="none" viewBox="0 0 32 32">
  <path fill="#473333" d="M16 32c8.8366 0 16-7.1634 16-16 0-8.83656-7.1634-16-16-16C7.16344 0 0 7.16344 0 16c0 8.8366 7.16344 16 16 16Z"/>
  <path fill="#EE4F07" d="M16.0003 23.2727c4.0166 0 7.2727-3.2561 7.2727-7.2727s-3.2561-7.27271-7.2727-7.27271c-4.0167 0-7.27276 3.25611-7.27276 7.27271s3.25606 7.2727 7.27276 7.2727Z"/>
  <path fill="#fff" d="M15.9999 18.9091c1.6067 0 2.9091-1.3024 2.9091-2.9091 0-1.6066-1.3024-2.9091-2.9091-2.9091-1.6066 0-2.9091 1.3025-2.9091 2.9091 0 1.6067 1.3025 2.9091 2.9091 2.9091Z"/>
</svg>
