<svg xmlns="http://www.w3.org/2000/svg" fill="none" viewBox="0 0 32 32">
  <path fill="#fff" d="M2 11.6c0-3.36031 0-5.04047.65396-6.32394.57524-1.12898 1.49312-2.04686 2.6221-2.6221C6.55953 2 8.23969 2 11.6 2h8.8c3.3603 0 5.0405 0 6.3239.65396 1.129.57524 2.0469 1.49312 2.6221 2.6221C30 6.55953 30 8.23969 30 11.6v8.8c0 3.3603 0 5.0405-.654 6.3239-.5752 1.129-1.4931 2.0469-2.6221 2.6221C25.4405 30 23.7603 30 20.4 30h-8.8c-3.36031 0-5.04047 0-6.32394-.654-1.12898-.5752-2.04686-1.4931-2.6221-2.6221C2 25.4405 2 23.7603 2 20.4v-8.8Z"/>
  <path fill="#5865F2" d="M23.6361 9.33998C22.212 8.71399 20.6892 8.25903 19.0973 8c-.1955.33209-.4239.77875-.5814 1.13408-1.6923-.2391-3.369-.2391-5.0302 0-.1574-.35533-.3911-.80199-.5883-1.13408-1.5937.25903-3.11813.71565-4.54222 1.3433-2.87242 4.078-3.65109 8.0548-3.26176 11.9751 1.90514 1.3367 3.75145 2.1486 5.56658 2.6799.4482-.5794.8479-1.1954 1.1923-1.8447-.6559-.2341-1.284-.523-1.8775-.8585.1575-.1095.3115-.2241.4603-.342 3.62 1.5907 7.553 1.5907 11.1298 0 .1505.1179.3045.2325.4602.342-.5952.3371-1.2251.626-1.8809.8602.3443.6476.7423 1.2652 1.1922 1.8447 1.8169-.5313 3.6649-1.3433 5.5701-2.6816.4568-4.5446-.7804-8.4849-3.2704-11.97842ZM12.3454 18.9075c-1.0867 0-1.9778-.9532-1.9778-2.1138 0-1.1606.8721-2.1154 1.9778-2.1154 1.1057 0 1.9968.9531 1.9778 2.1154.0018 1.1606-.8721 2.1138-1.9778 2.1138Zm7.3091 0c-1.0867 0-1.9778-.9532-1.9778-2.1138 0-1.1606.8721-2.1154 1.9778-2.1154 1.1057 0 1.9969.9531 1.9778 2.1154 0 1.1606-.8721 2.1138-1.9778 2.1138Z"/>
</svg>
