<svg xmlns="http://www.w3.org/2000/svg" fill="none" viewBox="0 0 32 32">
  <circle cx="16" cy="16" r="14" fill="#1794D4"/>
  <path fill="#fff" d="M18 7h-2v2h2V7Zm-8 3h2v2h-2v-2Zm-3.99845 6.9414C6.17244 19.8427 7.90027 24 14 24c6.8 0 9.8333-5 10.5-7.5.8333 0 2.7-.5 3.5-2.5-.5-.5-2.5-.5-3.5 0 0-.8-.5-2.5-1.5-3-.6667.6667-1.7 2.4-.5 4-.5 1-1.8333 1-2.5 1H6.9429c-.52948 0-.97249.4128-.94135.9414ZM9 13H7v2h2v-2Z"/>
  <path fill="#fff" d="M10 13h2v2h-2v-2Zm5 0h-2v2h2v-2Zm1 0h2v2h-2v-2Zm5 0h-2v2h2v-2Zm-6-3h-2v2h2v-2Zm1 0h2v2h-2v-2Z"/>
</svg>
