<svg xmlns="http://www.w3.org/2000/svg" fill="none" viewBox="0 0 32 32">
  <path fill="#E84C88" fill-rule="evenodd" d="M30 16c0 7.732-6.268 14-14 14-7.73199 0-14-6.268-14-14C2 8.26801 8.26801 2 16 2c7.732 0 14 6.26801 14 14Zm-9.076 10.9465C19.4216 27.6234 17.7548 28 16 28c-2.8969 0-5.5541-1.0265-7.6276-2.7357 2.157-3.6196 5.6265-6.364 9.7506-7.5782 1.1846 2.972 2.1264 6.067 2.801 9.2604Zm1.8247-1.0226c-.6646-2.9888-1.5557-5.8921-2.6542-8.6912.9145-.153 1.8538-.2327 2.8117-.2327 1.7304 0 3.3985.2596 4.9683.7415-.4938 3.3967-2.4104 6.3322-5.1258 8.1824Zm5.2475-10.2306c-1.6204-.4519-3.3277-.6933-5.09-.6933-1.2284 0-2.4295.1172-3.5926.3409-.3034-.7001-.6199-1.3932-.9493-2.0789 2.6181-1.1621 5.0377-2.6902 7.1934-4.5191 1.4749 1.9395 2.373 4.3416 2.4385 6.9504Zm-3.7776-8.43717c-2.0239 1.70969-4.2949 3.13537-6.7519 4.21597-1.297-2.48024-2.765-4.85677-4.3883-7.11394C14.0136 4.12421 14.9923 4 16 4c3.1801 0 6.0713 1.23702 8.2186 3.25613ZM11.1025 5.04161C7.57974 6.6184 4.95607 9.844 4.2131 13.7368c.68268.0502 1.37236.0757 2.06817.0757 3.26791 0 6.40383-.5633 9.31613-1.5983-1.3228-2.50707-2.8268-4.90373-4.4949-7.17259ZM4.00305 15.7267C4.00102 15.8176 4 15.9087 4 16c0 2.992 1.09504 5.7283 2.90621 7.8299 2.38582-3.7806 6.07579-6.6579 10.43909-7.9988-.2694-.6118-.5493-1.218-.8393-1.8184-3.1892 1.1644-6.63302 1.7998-10.22473 1.7998-.76634 0-1.5261-.0289-2.27822-.0858Z" clip-rule="evenodd"/>
</svg>
