<svg xmlns="http://www.w3.org/2000/svg" fill="none" viewBox="0 0 32 32">
  <path fill="#137AD4" d="M10.1836 13.436h9.9144c0-3.51987-1.5359-5.91964-5.7237-5.91964C9.42537 7.51634 4.3926 10.7381 2 14.7553 2.74111 7.78266 7.74053 2.15332 15.2673 2.15332c6.4513 0 12.5636 4.93253 12.5636 13.13198v3.1173H10.2364c0 4.243 3.7013 5.9241 7.5778 5.9241 4.7175 0 7.639-2.1199 7.639-2.1199V28.15s-3.298 2.0033-8.5547 2.0033c-6.8313 0-11.65333-4.8957-11.65333-10.9836 0-4.7786 2.89047-8.5938 6.89413-10.16805-1.9489 2.14035-1.9558 4.43435-1.9558 4.43435h.0001Z"/>
</svg>
