<svg xmlns="http://www.w3.org/2000/svg" fill="none" viewBox="0 0 32 32">
  <path fill="#000" d="M16 2C8.26945 2 2 8.26945 2 16c0 7.7305 6.26945 14 14 14 7.7305 0 14-6.2695 14-14 0-7.73055-6.2695-14-14-14Zm-.0255 1.33509h.0026c.0076.00099.0153.00099.0229 0 5.7884 0 10.6705 3.88436 12.18 9.18531-1.2981 2.6689-3.1219 5.0481-5.362 6.9949-1.078.9329-2.2565 1.7602-3.5509 2.3443-1.2956.5829-2.7186.9151-4.1326.8349-1.0097-.0604-1.9949-.335-2.8903-.8056 2.452-1.3451 4.6413-3.1214 6.4629-5.2436 1.2167-1.4204 2.2794-3.0418 2.6918-4.8784.21-.9189.2418-1.88363.0509-2.8089-.1862-.93453-.6261-1.79976-1.2714-2.50091-.6448-.67242-1.4613-1.15567-2.3609-1.39745-.8944-.23811-1.8309-.27204-2.7402-.09928-1.8111.33219-3.4275 1.38219-4.7155 2.68291C8.08745 9.93418 6.68364 13.1669 6.942 16.3933c.12982 1.6125.66691 3.1958 1.59345 4.5232.182.261.38437.5066.59437.7433-1.27534.4411-2.59084.7561-3.92764.9406-1.17289-1.9169-1.81434-4.1115-1.85844-6.3584-.0441-2.2468.51073-4.4649 1.6075-6.42633C6.048 7.85422 7.64716 6.22009 9.58445 5.08117c1.93725-1.13892 4.14285-1.74159 6.39005-1.74608Zm.0891 2.57091c.0051-.00127.0204.00255.0153.00127.8807 0 1.7653.26855 2.464.798.6283.48604 1.1008 1.14521 1.3593 1.89637.2595.75516.343 1.55966.2443 2.35196-.182 1.582-.98 3.0393-1.951 4.3184-1.7233 2.2629-4.0168 4.0765-6.566 5.3455-.2419.1209-.4913.238-.7408.3487-.5326-.4726-.98404-1.0294-1.33634-1.6482-.75091-1.3287-.99781-2.9069-.85272-4.4316.14763-1.526.66945-2.9986 1.37706-4.3655.8184-1.58326 1.9295-3.07745 3.4771-3.93272.7667-.43419 1.6301-.66918 2.5111-.68345l-.0013.00127Zm12.5109 8.6673c.0535.4671.0904.9405.0904 1.4216 0 6.9962-5.6662 12.6675-12.6636 12.6675-1.8404.0006-3.6586-.4011-5.3273-1.1772-1.66867-.7761-3.14747-1.9077-4.33273-3.3156 1.38351-.3245 2.73409-.7761 4.03453-1.3491.5867.4404 1.2307.807 1.918 1.0691 2.0237.7764 4.3171.6619 6.3586-.0445 2.0401-.7064 3.8449-1.9715 5.4167-3.4427 1.8021-1.6912 3.323-3.6589 4.5054-5.8291Z"/>
</svg>
