<svg xmlns="http://www.w3.org/2000/svg" fill="none" viewBox="0 0 32 32">
  <path fill="url(#a)" d="M2 11.9556c0-3.48482 0-5.2272.67818-6.55821.59655-1.17078 1.54843-2.12266 2.71921-2.71921C6.7284 2 8.47078 2 11.9556 2h8.0888c3.4848 0 5.2272 0 6.5582.67818 1.1708.59655 2.1227 1.54843 2.7192 2.71921C30 6.7284 30 8.47078 30 11.9556v8.0888c0 3.4848 0 5.2272-.6782 6.5582-.5965 1.1708-1.5484 2.1227-2.7192 2.7192C25.2716 30 23.5292 30 20.0444 30h-8.0888c-3.48482 0-5.2272 0-6.55821-.6782-1.17078-.5965-2.12266-1.5484-2.71921-2.7192C2 25.2716 2 23.5292 2 20.0444v-8.0888Z"/>
  <path fill="#fff" d="M6.31141 11.512C6 12.1044 6 12.8799 6 14.4308v3.1384c0 1.5509 0 2.3264.31141 2.9188.27392.521.71101.9447 1.24862 1.2102C8.1712 22 8.97128 22 10.5714 22h4.8254c1.6002 0 2.4003 0 3.0114-.3018.5376-.2655.9747-.6892 1.2486-1.2102.3115-.5924.3115-1.3679.3115-2.9188v-3.1384c0-1.5509 0-2.3264-.3115-2.9188-.2739-.521-.711-.9447-1.2486-1.2102C17.7971 10 16.997 10 15.3968 10h-4.8254c-1.60012 0-2.4002 0-3.01137.3018-.53761.2655-.9747.6892-1.24862 1.2102Zm14.74589 1.8883 3.1178-2.5331c.7231-.5875 1.8249-.0892 1.8249.8253v8.6409c0 .9101-1.0926 1.4099-1.8175.8313l-3.1167-2.4878c-.2929-.2338-.4626-.5823-.4626-.95v-3.3834c0-.364.1662-.7094.4541-.9432Z"/>
  <defs>
    <linearGradient id="a" x1="16" x2="16" y1="2" y2="30" gradientUnits="userSpaceOnUse">
      <stop stop-color="#61F677"/>
      <stop offset="1" stop-color="#10BC2B"/>
    </linearGradient>
  </defs>
</svg>
