<svg xmlns="http://www.w3.org/2000/svg" fill="none" viewBox="0 0 32 32">
  <path fill="url(#a)" d="M28.9905 10.7265c-.6089-1.4691-1.8432-3.05511-2.8121-3.55611.7886 1.54976 1.2448 3.10421 1.4192 4.26401 0 0 0 .0082.0029.0234-1.5849-3.96003-4.2728-5.55715-6.4678-9.03373-.1114-.17538-.2222-.35076-.3307-.53841-.0613-.10581-.1109-.20169-.154-.2923-.091-.17579-.1613-.36157-.2094-.55361.0004-.00912-.0027-.01806-.0085-.02508-.0058-.00702-.014-.01162-.023-.01292-.0086-.002334-.0177-.002334-.0263 0-.0023.00106-.0045.00244-.0064.00409-.0035 0-.007.0041-.0105.00526l.0058-.0076c-3.5214 2.06713-4.7161 5.89096-4.8257 7.80434-1.4072.09644-2.7527.61574-3.861 1.49016-.1158-.0982-.2369-.1899-.3628-.2748-.3194-1.1205-.3329-2.30637-.0391-3.43389-1.44019.65766-2.56015 1.69532-3.37446 2.61372h-.00641c-.5559-.70561-.51682-3.03288-.48532-3.51868-.00642-.0304-.41415.21221-.46665.24904-.49053.35071-.94906.74432-1.37021 1.17621-.47925.48695-.91709 1.01316-1.30896 1.57314-.90157 1.28049-1.54095 2.72736-1.88119 4.25706-.00641.0304-.01225.0619-.01866.0929-.02625.1234-.12133.7424-.13825.8769v.031c-.12395.6397-.20115 1.2876-.23099 1.9385v.0719C2 23.7097 8.27646 30 16.0182 30c6.9339 0 12.6906-5.0451 13.8182-11.672.0233-.1795.0425-.3607.0635-.542.2789-2.4097-.0309-4.9421-.9094-7.0595ZM12.8327 21.7239c.0654.031.1272.0655.1943.0958l.0093.0059c-.0671-.0327-.1353-.0666-.203-.1017h-.0006Zm14.769-10.2597v-.0134.0152-.0018Z"/>
  <path fill="url(#b)" d="M28.9907 10.7265c-.6089-1.46909-1.8432-3.05509-2.8121-3.55609.7886 1.54976 1.2448 3.10419 1.4192 4.26399v.0287c1.323 3.5941.602 7.249-.4363 9.4821-1.6065 3.455-5.4954 6.9964-11.5835 6.824-6.57219-.1871-12.36625-5.0807-13.4483-11.485-.19716-1.0107 0-1.5234.09916-2.3436-.12074.6319-.16683.8149-.22691 1.9385v.0719C2.00195 23.7098 8.27842 30 16.0202 30c6.9338 0 12.6906-5.0451 13.8181-11.672.0233-.1795.0426-.3607.0636-.5419.2771-2.4097-.0327-4.9422-.9112-7.0596Z"/>
  <path fill="url(#c)" d="M28.9907 10.7265c-.6089-1.46909-1.8432-3.05509-2.8121-3.55609.7886 1.54976 1.2448 3.10419 1.4192 4.26399v.0287c1.323 3.5941.602 7.249-.4363 9.4821-1.6065 3.455-5.4954 6.9964-11.5835 6.824-6.57219-.1871-12.36625-5.0807-13.4483-11.485-.19716-1.0107 0-1.5234.09916-2.3436-.12074.6319-.16683.8149-.22691 1.9385v.0719C2.00195 23.7098 8.27842 30 16.0202 30c6.9338 0 12.6906-5.0451 13.8181-11.672.0233-.1795.0426-.3607.0636-.5419.2771-2.4097-.0327-4.9422-.9112-7.0596Z"/>
  <path fill="url(#d)" d="M22.1776 12.3773c.0309.0216.0583.0432.0875.0649-.3518-.6261-.7902-1.1992-1.302-1.7024-4.3573-4.36688-1.1421-9.46922-.6002-9.72878l.0058-.0076c-3.5214 2.06712-4.7161 5.89096-4.8257 7.80434.1633-.01111.326-.02514.4923-.02514 2.6278 0 4.9167 1.44858 6.1423 3.59468Z"/>
  <path fill="url(#e)" d="M16.0446 13.2499c-.0227.3507-1.2547 1.555-1.6857 1.555-3.9864 0-4.63331 2.4167-4.63331 2.4167.17499 2.0356 1.59011 3.7116 3.30211 4.5984.0782.0404.1569.0766.2334.1129.137.0584.2747.1169.4118.1689.5871.2076 1.2019.3258 1.824.3508 6.9869.3285 8.3414-8.3726 3.2986-10.8992 1.2909-.2251 2.6314.2958 3.3798.8225-1.225-2.146-3.5145-3.59465-6.1423-3.59465-.1663 0-.329.01403-.4924.02514-1.4061.09764-2.7503.61751-3.8574 1.49191.2141.1818.4556.4238.9636.9254.9532.9424 3.3926 1.9122 3.3978 2.0262Z"/>
  <path fill="url(#f)" d="M16.0446 13.2499c-.0227.3507-1.2547 1.555-1.6857 1.555-3.9864 0-4.63331 2.4167-4.63331 2.4167.17499 2.0356 1.59011 3.7116 3.30211 4.5984.0782.0404.1569.0766.2334.1129.137.0584.2747.1169.4118.1689.5871.2076 1.2019.3258 1.824.3508 6.9869.3285 8.3414-8.3726 3.2986-10.8992 1.2909-.2251 2.6314.2958 3.3798.8225-1.225-2.146-3.5145-3.59465-6.1423-3.59465-.1663 0-.329.01403-.4924.02514-1.4061.09764-2.7503.61751-3.8574 1.49191.2141.1818.4556.4238.9636.9254.9532.9424 3.3926 1.9122 3.3978 2.0262Z"/>
  <path fill="url(#g)" d="M11.0311 9.83093c.1137.07366.2071.13563.2916.19237-.3193-1.12055-.3328-2.30642-.039-3.43394-1.44025.65766-2.56021 1.69532-3.37452 2.61372.06591-.00176 2.09932-.03859 3.12192.62785Z"/>
  <path fill="url(#h)" d="M2.1297 16.284c1.08205 6.4043 6.87611 11.2979 13.453 11.485 6.088.1724 9.9747-3.369 11.5834-6.824 1.0383-2.2337 1.7593-5.888.4364-9.4821v-.0269c0 .0035 0 .0082.0029.0234.497 3.2544-1.1544 6.4071-3.7362 8.5392-.0026.0059-.0051.012-.0075.0181-5.0311 4.1056-9.8452 2.4769-10.8199 1.8122-.0677-.0327-.1359-.0666-.2036-.1017-2.9335-1.403-4.14504-4.0834-3.88547-6.3803-2.47617 0-3.32081-2.094-3.32081-2.094s2.2236-1.5889 5.15418-.2069c2.7142 1.2802 5.2632.2075 5.2632.2069-.0052-.114-2.4446-1.0867-3.396-2.0262-.5081-.5016-.7496-.7436-.9637-.9254-.1158-.0982-.2369-.1899-.3628-.2748-.0834-.05841-.175-.11687-.2916-.19229-1.0226-.66643-3.05602-.6296-3.1231-.62785h-.00642c-.5559-.7056-.51682-3.03288-.48532-3.51867-.00641-.0304-.41415.2122-.46665.24903-.49053.35071-.94906.74432-1.3702 1.17621-.47925.48695-.91709 1.01316-1.30896 1.57314-.90157 1.2805-1.54095 2.72733-1.88119 4.25703-.01108.0269-.50982 2.2092-.26366 3.3409Z"/>
  <path fill="url(#i)" d="M20.9634 10.7399c.5118.5032.9501 1.0763 1.3019 1.7024.073.0548.143.1134.21.1753 3.1779 2.9324 1.5155 7.0836 1.3889 7.3817 2.5818-2.132 4.2331-5.2847 3.7361-8.5392-1.5848-3.96233-4.2727-5.55945-6.4678-9.03603-.1114-.17538-.2222-.35076-.3307-.53841-.0612-.10581-.1108-.20169-.154-.2923-.0909-.17579-.1612-.36157-.2094-.55361.0004-.00912-.0026-.01806-.0084-.02508-.0059-.00702-.0141-.01162-.0231-.01292-.0086-.002334-.0176-.002334-.0262 0-.0024.00106-.0045.00244-.0065.00409-.0035 0-.007.0041-.0105.00526-.5424.25956-3.7577 5.36191.5997 9.7288Z"/>
  <path fill="url(#j)" d="M22.4743 12.6146c-.067-.062-.1371-.1205-.21-.1754-.0286-.0216-.0583-.0432-.0875-.0649-.7484-.5261-2.0888-1.0476-3.3797-.8225 5.0422 2.5266 3.6883 11.2277-3.2986 10.8992-.6221-.025-1.2369-.1432-1.8241-.3508-.137-.0514-.2747-.1081-.4118-.1689-.0793-.0363-.1581-.0725-.2333-.1128l.0093.0058c.9747.6665 5.7888 2.2951 10.8199-1.8122 0 0 .0029-.0076.0076-.0182.1248-.2928 1.7873-4.444-1.3918-7.3793Z"/>
  <path fill="url(#k)" d="M9.72532 17.2215s.64688-2.4167 4.63328-2.4167c.4311 0 1.663-1.2054 1.6858-1.555.0227-.3496-2.5491 1.0733-5.2633-.207-2.93055-1.382-5.15415.207-5.15415.207s.84464 2.094 3.32081 2.094c-.25957 2.2969.95197 4.9749 3.88544 6.3803.0654.0309.1272.0654.1943.0958-1.7121-.885-3.12543-2.5628-3.30218-4.5984Z"/>
  <path fill="url(#l)" d="M28.9905 10.7265c-.6089-1.4691-1.8432-3.05511-2.8121-3.55611.7886 1.54976 1.2448 3.10421 1.4192 4.26401 0 0 0 .0082.0029.0234-1.5849-3.96003-4.2728-5.55715-6.4678-9.03373-.1114-.17538-.2222-.35076-.3307-.53841-.0613-.10581-.1109-.20169-.154-.2923-.091-.17579-.1613-.36157-.2094-.55361.0004-.00912-.0027-.01806-.0085-.02508-.0058-.00702-.014-.01162-.023-.01292-.0086-.002334-.0177-.002334-.0263 0-.0023.00106-.0045.00244-.0064.00409-.0035 0-.007.0041-.0105.00526l.0058-.0076c-3.5214 2.06713-4.7161 5.89096-4.8257 7.80434.1633-.01111.3261-.02513.4923-.02513 2.6278 0 4.9168 1.44859 6.1423 3.59469-.7484-.5262-2.0888-1.0476-3.3797-.8225 5.0421 2.5266 3.6883 11.2277-3.2987 10.8991-.622-.025-1.2369-.1432-1.824-.3507-.1371-.0515-.2747-.1082-.4118-.169-.0793-.0362-.1581-.0725-.2333-.1128l.0093.0058c-.0677-.0327-.1359-.0666-.2036-.1017.0653.031.1272.0655.1943.0959-1.7156-.8868-3.12894-2.5646-3.30568-4.6002 0 0 .64688-2.4167 4.63328-2.4167.4311 0 1.663-1.2054 1.6858-1.555-.0053-.114-2.4447-1.0868-3.3961-2.0262-.5081-.5016-.7496-.7436-.9636-.9254-.1159-.0982-.237-.1899-.3629-.2748-.3193-1.1205-.3328-2.30637-.039-3.43389-1.44024.65766-2.5602 1.69532-3.37451 2.61372h-.00641c-.5559-.70561-.51682-3.03288-.48532-3.51868-.00642-.0304-.41415.21221-.46665.24904-.49053.35071-.94906.74432-1.37021 1.17621-.47925.48695-.91709 1.01316-1.30896 1.57314-.90157 1.28049-1.54095 2.72736-1.88119 4.25706-.00641.0304-.01225.0619-.01866.0929-.02625.1234-.14525.7512-.16158.8857 0 .0105 0-.01 0 0-.10922.6487-.17915 1.3035-.20941 1.9607v.0719C2 23.7097 8.27646 30 16.0182 30c6.9339 0 12.6906-5.0451 13.8182-11.672.0233-.1795.0425-.3607.0635-.542.2789-2.4097-.0309-4.9421-.9094-7.0595Zm-1.3906.7214v.0152-.0152Z"/>
  <defs>
    <radialGradient id="b" cx="0" cy="0" r="1" gradientTransform="matrix(29.2246 0 0 29.2888 26.0596 4.21879)" gradientUnits="userSpaceOnUse">
      <stop offset=".13" stop-color="#FFBD4F"/>
      <stop offset=".19" stop-color="#FFAC31"/>
      <stop offset=".25" stop-color="#FF9D17"/>
      <stop offset=".28" stop-color="#FF980E"/>
      <stop offset=".4" stop-color="#FF563B"/>
      <stop offset=".47" stop-color="#FF3750"/>
      <stop offset=".71" stop-color="#F5156C"/>
      <stop offset=".78" stop-color="#EB0878"/>
      <stop offset=".86" stop-color="#E50080"/>
    </radialGradient>
    <radialGradient id="c" cx="0" cy="0" r="1" gradientTransform="matrix(29.2246 0 0 29.2888 15.3809 16.1925)" gradientUnits="userSpaceOnUse">
      <stop offset=".3" stop-color="#960E18"/>
      <stop offset=".35" stop-color="#B11927" stop-opacity=".74"/>
      <stop offset=".43" stop-color="#DB293D" stop-opacity=".34"/>
      <stop offset=".5" stop-color="#F5334B" stop-opacity=".09"/>
      <stop offset=".53" stop-color="#FF3750" stop-opacity="0"/>
    </radialGradient>
    <radialGradient id="d" cx="0" cy="0" r="1" gradientTransform="matrix(21.172 0 0 21.2184 18.904 -2.42815)" gradientUnits="userSpaceOnUse">
      <stop offset=".13" stop-color="#FFF44F"/>
      <stop offset=".25" stop-color="#FFDC3E"/>
      <stop offset=".51" stop-color="#FF9D12"/>
      <stop offset=".53" stop-color="#FF980E"/>
    </radialGradient>
    <radialGradient id="e" cx="0" cy="0" r="1" gradientTransform="matrix(13.915 0 0 13.9455 12.1487 23.8433)" gradientUnits="userSpaceOnUse">
      <stop offset=".35" stop-color="#3A8EE6"/>
      <stop offset=".47" stop-color="#5C79F0"/>
      <stop offset=".67" stop-color="#9059FF"/>
      <stop offset="1" stop-color="#C139E6"/>
    </radialGradient>
    <radialGradient id="f" cx="0" cy="0" r="1" gradientTransform="matrix(7.15643 -1.77455 2.08872 8.42342 15.8005 12.7119)" gradientUnits="userSpaceOnUse">
      <stop offset=".21" stop-color="#9059FF" stop-opacity="0"/>
      <stop offset=".28" stop-color="#8C4FF3" stop-opacity=".06"/>
      <stop offset=".75" stop-color="#7716A8" stop-opacity=".45"/>
      <stop offset=".97" stop-color="#6E008B" stop-opacity=".6"/>
    </radialGradient>
    <radialGradient id="g" cx="0" cy="0" r="1" gradientTransform="matrix(10.0108 0 0 10.0328 15.011 3.02041)" gradientUnits="userSpaceOnUse">
      <stop stop-color="#FFE226"/>
      <stop offset=".12" stop-color="#FFDB27"/>
      <stop offset=".3" stop-color="#FFC82A"/>
      <stop offset=".5" stop-color="#FFA930"/>
      <stop offset=".73" stop-color="#FF7E37"/>
      <stop offset=".79" stop-color="#FF7139"/>
    </radialGradient>
    <radialGradient id="h" cx="0" cy="0" r="1" gradientTransform="matrix(42.7109 0 0 42.8046 22.8805 -3.34313)" gradientUnits="userSpaceOnUse">
      <stop offset=".11" stop-color="#FFF44F"/>
      <stop offset=".46" stop-color="#FF980E"/>
      <stop offset=".62" stop-color="#FF5634"/>
      <stop offset=".72" stop-color="#FF3647"/>
      <stop offset=".9" stop-color="#E31587"/>
    </radialGradient>
    <radialGradient id="i" cx="0" cy="0" r="1" gradientTransform="matrix(3.1287 31.04233 -20.3512 2.05116 18.7517 1.33374)" gradientUnits="userSpaceOnUse">
      <stop stop-color="#FFF44F"/>
      <stop offset=".06" stop-color="#FFE847"/>
      <stop offset=".17" stop-color="#FFC830"/>
      <stop offset=".3" stop-color="#FF980E"/>
      <stop offset=".36" stop-color="#FF8B16"/>
      <stop offset=".45" stop-color="#FF672A"/>
      <stop offset=".57" stop-color="#FF3647"/>
      <stop offset=".74" stop-color="#E31587"/>
    </radialGradient>
    <radialGradient id="j" cx="0" cy="0" r="1" gradientTransform="matrix(26.6644 0 0 26.723 14.7757 6.73593)" gradientUnits="userSpaceOnUse">
      <stop offset=".14" stop-color="#FFF44F"/>
      <stop offset=".48" stop-color="#FF980E"/>
      <stop offset=".59" stop-color="#FF5634"/>
      <stop offset=".66" stop-color="#FF3647"/>
      <stop offset=".9" stop-color="#E31587"/>
    </radialGradient>
    <radialGradient id="k" cx="0" cy="0" r="1" gradientTransform="matrix(29.1844 0 0 29.2484 21.8145 8.30059)" gradientUnits="userSpaceOnUse">
      <stop offset=".09" stop-color="#FFF44F"/>
      <stop offset=".23" stop-color="#FFE141"/>
      <stop offset=".51" stop-color="#FFAF1E"/>
      <stop offset=".63" stop-color="#FF980E"/>
    </radialGradient>
    <linearGradient id="a" x1="27.135" x2="3.81392" y1="5.49261" y2="27.9437" gradientUnits="userSpaceOnUse">
      <stop offset=".05" stop-color="#FFF44F"/>
      <stop offset=".11" stop-color="#FFE847"/>
      <stop offset=".22" stop-color="#FFC830"/>
      <stop offset=".37" stop-color="#FF980E"/>
      <stop offset=".4" stop-color="#FF8B16"/>
      <stop offset=".46" stop-color="#FF672A"/>
      <stop offset=".53" stop-color="#FF3647"/>
      <stop offset=".7" stop-color="#E31587"/>
    </linearGradient>
    <linearGradient id="l" x1="26.855" x2="7.01043" y1="5.37218" y2="25.1739" gradientUnits="userSpaceOnUse">
      <stop offset=".17" stop-color="#FFF44F" stop-opacity=".8"/>
      <stop offset=".27" stop-color="#FFF44F" stop-opacity=".63"/>
      <stop offset=".49" stop-color="#FFF44F" stop-opacity=".22"/>
      <stop offset=".6" stop-color="#FFF44F" stop-opacity="0"/>
    </linearGradient>
  </defs>
</svg>
