<svg xmlns="http://www.w3.org/2000/svg" fill="none" viewBox="0 0 32 25">
  <path fill="url(#a)" fill-rule="evenodd" d="M2.90909 0h8.37431c1.1573 0 2.2672.459739 3.0856 1.27808l.3529.35293c.8183.81834 1.9283 1.27808 3.0855 1.27808h5.4653c.8034 0 1.489.28401 2.057.85206.568.56803.8521 1.25372.8521 2.05703V21.8182c0 .8033-.2841 1.489-.8521 2.057-.568.568-1.2536.8521-2.057.8521H2.90909c-.80333 0-1.489-.2841-2.057038-.8521C.284017 23.3072 0 22.6215 0 21.8182V2.90909c0-.80333.284017-1.489.852052-2.057038C1.42009.284017 2.10576 0 2.90909 0Z" clip-rule="evenodd"/>
  <path fill="url(#b)" fill-rule="evenodd" d="M5.81818 21.8182V8.72727c0-.80332.28402-1.489.85206-2.05704.56803-.56803 1.25371-.85205 2.05703-.85205H29.0909c.8033 0 1.489.28402 2.057.85205.5681.56804.8521 1.25372.8521 2.05704V21.8182c0 .8033-.284 1.489-.8521 2.057-.568.568-1.2537.8521-2.057.8521H2.90909c.80332 0 1.48901-.2841 2.05703-.8521.56805-.568.85206-1.2537.85206-2.057Z" clip-rule="evenodd"/>
  <defs>
    <linearGradient id="a" x1="16" x2="16" y1="0" y2="16.3543" gradientUnits="userSpaceOnUse">
      <stop stop-color="#FBA200"/>
      <stop offset="1" stop-color="#FF7300"/>
    </linearGradient>
    <linearGradient id="b" x1="17.4545" x2="17.4545" y1="5.81818" y2="24.7273" gradientUnits="userSpaceOnUse">
      <stop stop-color="#FAC227"/>
      <stop offset="1" stop-color="#FAA627"/>
    </linearGradient>
  </defs>
</svg>
