<svg xmlns="http://www.w3.org/2000/svg" fill="none" viewBox="0 0 32 32">
  <path fill="#fff" d="M2 11.9556c0-3.48482 0-5.2272.67818-6.55821.59655-1.17078 1.54843-2.12266 2.71921-2.71921C6.7284 2 8.47078 2 11.9556 2h8.0888c3.4848 0 5.2272 0 6.5582.67818 1.1708.59655 2.1227 1.54843 2.7192 2.71921C30 6.7284 30 8.47078 30 11.9556v8.0888c0 3.4848 0 5.2272-.6782 6.5582-.5965 1.1708-1.5484 2.1227-2.7192 2.7192C25.2716 30 23.5292 30 20.0444 30h-8.0888c-3.48482 0-5.2272 0-6.55821-.6782-1.17078-.5965-2.12266-1.5484-2.71921-2.7192C2 25.2716 2 23.5292 2 20.0444v-8.0888Z"/>
  <path fill="#1967D2" d="M24.4925 6h-3.2513v4.7112h4.7575V7.32845c.0013 0-.2351-1.19997-1.5062-1.32845Zm-3.2503 19.978v.0218l4.7575-4.7112h-.0427l-4.7148 4.6894Z"/>
  <path fill="#FBBC05" d="M25.9993 21.2883v-.0422l-.0423.0422h.0423Z"/>
  <path fill="#FBBC05" d="M25.9997 10.7114h-4.7575v10.5351h4.7575V10.7114Z"/>
  <path fill="#EA4335" d="M25.957 21.2886h-4.7148v4.6894l4.7148-4.6894Zm-4.7148-.0003h4.7148l.0427-.0422h-4.7575v.0422Z"/>
  <path fill="#34A853" d="M21.2305 25.9895h.0115v-.0115l-.0115.0115Z"/>
  <path fill="#34A853" d="M10.6504 21.2461v4.7434H21.231l.0117-4.7434H10.6504Z"/>
  <path fill="#34A853" d="M21.242 21.2885v-.0424l-.0115 4.7434.0115-.0116v-4.6894Z"/>
  <path fill="#188038" d="M6 21.2461v3.298c.04263 1.0702 1.20002 1.4454 1.20002 1.4454h3.45028v-4.7434H6Z"/>
  <path fill="#4285F4" d="M10.6503 10.7112h10.5922V6H7.33437S6.08525 6.12848 6 7.45564V21.2464h4.6503V10.7112Z"/>
  <path fill="#4285F4" d="M14.1155 19.114c-.2423 0-.476-.0316-.701-.0947-.2193-.0631-.4212-.1578-.6058-.2841-.1847-.132-.3491-.2955-.4934-.4906-.1384-.1951-.2452-.4218-.3202-.6801l1.0645-.4217c.075.2869.202.505.3808.6542.1789.1434.4039.2152.6751.2152.1212 0 .2366-.0173.3462-.0517.1096-.0402.2048-.0947.2856-.1635.0808-.0689.1442-.1492.1904-.2411.0519-.0975.0779-.2066.0779-.3271 0-.2525-.0952-.4504-.2856-.5939-.1846-.1435-.4414-.2152-.7703-.2152h-.5106v-1.0244h.4674c.1153 0 .2279-.0143.3375-.043.1096-.0287.2048-.0717.2856-.1291.0865-.0631.1529-.1406.199-.2324.052-.0976.0779-.2095.0779-.3357 0-.1952-.0692-.353-.2077-.4735-.1385-.1262-.326-.1894-.5625-.1894-.2539 0-.4501.0689-.5885.2066-.1328.132-.2251.2812-.277.4477l-1.0386-.4218c.052-.1435.1299-.2898.2337-.439.1039-.155.2337-.2927.3895-.4132.1615-.1263.3491-.2267.5625-.3013.2135-.0803.4587-.1205.7357-.1205.2827 0 .5395.0402.7702.1205.2366.0803.4385.1922.6059.3357.1673.1377.2971.3042.3894.4993.0923.1893.1385.3959.1385.6197 0 .1722-.0231.3271-.0692.4649-.0404.1377-.0952.2611-.1645.3701-.0692.109-.15.2037-.2423.2841-.0865.0746-.176.1348-.2683.1807v.0689c.277.109.5049.2841.6837.5251.1847.241.277.5452.277.9124 0 .2583-.0491.4964-.1472.7145-.098.2123-.2394.3988-.424.5595-.1789.1607-.3953.2841-.6491.3702-.2539.0918-.5366.1377-.8482.1377Zm4.1352-.1377V14.414l-1.0472.439-.4154-.9554 1.7396-.8092h.8568v5.8879h-1.1338Z"/>
</svg>
