<svg xmlns="http://www.w3.org/2000/svg" fill="none" viewBox="0 0 48 48">
  <circle cx="24" cy="24" r="20" fill="#181717"/>
  <path fill="#fff" d="M6.81348 34.235c2.43463 4.0788 6.28042 7.2176 10.86372 8.7434 1.0007.183 1.3653-.4346 1.3653-.965 0-.2196-.0037-.6076-.0086-1.1268-.0057-.6014-.0131-1.3787-.0184-2.2742-5.5631 1.2082-6.7368-2.6814-6.7368-2.6814-.9098-2.3095-2.2211-2.9246-2.2211-2.9246-1.8159-1.2413.1375-1.2168.1375-1.2168 2.0074.1425 3.0633 2.0615 3.0633 2.0615 1.784 3.056 4.6816 2.1732 5.821 1.6624.1817-1.2928.6973-2.1744 1.2695-2.6741-4.4409-.5046-9.1102-2.2211-9.1102-9.8849 0-2.183.7797-3.9682 2.059-5.3666-.2063-.5059-.8926-2.5391.1952-5.293 0 0 1.6796-.5378 5.5005 2.0504 1.5949-.4432 3.3064-.6655 5.0069-.6728 1.698.0073 3.4096.2296 5.0069.6728 3.8184-2.5882 5.4944-2.0504 5.4944-2.0504 1.0915 2.7539.4051 4.7871.1989 5.293 1.2818 1.3984 2.0565 3.1836 2.0565 5.3666 0 7.6835-4.6766 9.3741-9.1323 9.8689.7183.6176 1.358 1.838 1.358 3.7043 0 1.7875-.011 3.3445-.0183 4.3758-.0036.5108-.0063.8927-.0063 1.1099 0 .5353.3597 1.1578 1.3751.9626 3.6512-1.2188 6.8339-3.4606 9.2071-6.3857C35.8734 41.1108 30.274 44 23.9997 44c-7.3054 0-13.6959-3.9168-17.18622-9.765Z"/>
</svg>
