<svg xmlns="http://www.w3.org/2000/svg" fill="none" viewBox="0 0 32 32">
  <path fill="#fff" d="M2 11.9556c0-3.48482 0-5.2272.67818-6.55821.59655-1.17078 1.54843-2.12266 2.71921-2.71921C6.7284 2 8.47078 2 11.9556 2h8.0888c3.4848 0 5.2272 0 6.5582.67818 1.1708.59655 2.1227 1.54843 2.7192 2.71921C30 6.7284 30 8.47078 30 11.9556v8.0888c0 3.4848 0 5.2272-.6782 6.5582-.5965 1.1708-1.5484 2.1227-2.7192 2.7192C25.2716 30 23.5292 30 20.0444 30h-8.0888c-3.48482 0-5.2272 0-6.55821-.6782-1.17078-.5965-2.12266-1.5484-2.71921-2.7192C2 25.2716 2 23.5292 2 20.0444v-8.0888Z"/>
  <path fill="#EA4335" d="m22.0515 8.52295-5.9871 4.67245-6.12397-4.67245v.00126l.0074.00632v6.54267l6.04757 4.7734 6.0561-4.5891V8.52295Z"/>
  <path fill="#FBBC05" d="m23.6231 7.38639-1.5723 1.13653v6.73458l4.9475-3.7985V9.17074s-.6005-3.26816-3.3752-1.78435Z"/>
  <path fill="#34A853" d="M22.0508 15.2575v8.7349h3.792s1.0791-.1111 1.1567-1.3411V11.459l-4.9487 3.7985Z"/>
  <path fill="#C5221F" d="M9.94811 24.0001v-8.9269l-.00768-.0063.00768 8.9332ZM9.94014 8.52404 8.37646 7.39382C5.60179 5.91001 5 9.17692 5 9.17692v2.28818l4.94014 3.6016V8.52404Z"/>
  <path fill="#C5221F" d="M9.94043 8.52441v6.54269l.00768.0063V8.53073l-.00768-.00632Z"/>
  <path fill="#4285F4" d="M5 11.4668v11.1923c.07646 1.2313 1.15673 1.3412 1.15673 1.3412h3.79204l-.00863-8.9332L5 11.4668Z"/>
</svg>
