<svg xmlns="http://www.w3.org/2000/svg" fill="none" viewBox="0 0 32 32">
  <path fill="#000" fill-rule="evenodd" d="M9.92295 19.1596c.18695 1.609.45385 2.824 1.03435 4.2567.5802 1.4322 1.86 3.347 3.4212 4.4865 1.5612 1.139 4.1077 2.203 5.8292 2.0888 1.7214-.1139 2.4886-.75 3.2805-1.5557.7914-.8057 2.5711-3.258 3.1914-5.5481.6207-2.2896.2335-3.0932-.266-3.7576-.4991-.6644-1.6253-1.1154-3.1623-.998-1.537.1175-3.1974 1.071-3.2919 1.859-.1461 1.218 2.1222 1.3863 1.7549 2.4562-.1476.4309-.6974.7779-2.1569.7338-1.4595-.0436-3.0571-.7525-3.4285-1.8786-.3714-1.1261-.2091-2.1607.5796-2.7068 3.3308-2.3058 4.4422-4.2052 4.6607-5.069.2185-.8638-.1234-1.8764-.9876-2.6528-1.8557-1.66708-5.5876-.92203-7.3973.3604-2.6859 1.9039-3.42205 4.8224-3.06135 7.9252ZM14.305 3.41756c-.3107.7008-.7203 2.16431-.3071 3.37145.4134 1.20715 1.9772 2.57385 3.6971 2.25494 1.7197-.31912 1.667-3.0034 1.3299-4.16799-.305-1.0529-1.8399-2.78554-2.9121-2.86979-1.0722-.08425-1.4968.71016-1.8078 1.41139ZM9.25489 7.55853C10.2618 9.03182 11.8365 9.26202 12.6359 8.9897c.7993-.27253.4538-2.49769-.0277-3.51974-.6016-1.2765-2.0043-1.39373-2.82062-.9778-.81628.4155-1.53938 1.59307-.53269 3.06637ZM6.66963 8.61207c-1.06409.36742-.75673 2.57133-.14094 3.44673.61558.8755 2.45632 1.3608 3.16572.5711.70959-.7898-.17392-2.3516-.60037-2.85685-.42646-.50571-1.36032-1.5284-2.42441-1.16098Zm-1.5805 5.50983c.30179-.6887 1.69145-.62 2.73391-.0204 1.31383.7559 1.36716 2.6521.59266 2.9614-.62629.2502-1.73622.0883-2.42933-.4608-.69312-.5491-1.19903-1.7918-.89724-2.4802Z" clip-rule="evenodd"/>
</svg>
