<svg xmlns="http://www.w3.org/2000/svg" fill="none" viewBox="0 0 32 32">
  <path fill="#00ACD7" fill-rule="evenodd" d="M18.1177 14.0442c-.3769.1055-.7591.2124-1.2015.3326-.2161.0612-.2653.0751-.4664-.1694-.2412-.288-.4181-.4743-.7559-.6438-1.0132-.5252-1.9943-.3727-2.911.2542-1.0936.7454-1.6565 1.8466-1.6404 3.2189.016 1.3554.9006 2.4736 2.1712 2.6599 1.0936.1525 2.0103-.2541 2.734-1.1181.1447-.1863.2735-.3898.4343-.6269h-3.104c-.3378 0-.4182-.2202-.3056-.5083.2091-.5252.5951-1.4061.8202-1.8466.0483-.1017.1609-.2711.4021-.2711h5.1755c.2325-.776.6097-1.5092 1.1129-2.203 1.1741-1.6265 2.5894-2.4736 4.5032-2.8293 1.6405-.305 3.1844-.1356 4.5836.864 1.2706.9149 2.0586 2.1516 2.2677 3.7781.2734 2.2871-.3538 4.1508-1.8495 5.7433-1.0615 1.1351-2.3642 1.8467-3.8599 2.1686-.2853.0556-.5706.082-.8514.108-.1465.0136-.2918.027-.4352.0445-1.4636-.0339-2.7984-.4744-3.9243-1.4909-.7917-.721-1.337-1.607-1.6081-2.6384-.1881.4002-.413.7834-.6756 1.148-1.158 1.6095-2.6698 2.6091-4.5836 2.8802-1.5762.2202-3.0397-.1017-4.32634-1.1182-1.19013-.9488-1.86561-2.2025-2.04252-3.7611-.20908-1.8467.30557-3.507 1.36704-4.964 1.14192-1.5756 2.65372-2.5752 4.50322-2.931 1.5118-.288 2.9592-.1016 4.262.8302.8523.5929 1.4635 1.4062 1.8656 2.3888.0965.1525.0321.2372-.1609.288-.5636.1508-1.0278.2807-1.5004.4128Zm10.6404 1.9298c.0032.0569.0065.1169.0112.1812-.0804 1.457-.772 2.5413-2.0425 3.2359-.8524.4574-1.737.5083-2.6215.1017-1.158-.5422-1.7692-1.8806-1.4797-3.2021.3539-1.5925 1.3188-2.5921 2.8145-2.9479 1.5279-.3727 2.9915.576 3.281 2.2533.0227.12.0294.2399.037.3779Z" clip-rule="evenodd"/>
  <path fill="#00ACD7" d="M2.44461 13.8517c-.03217.0508-.01609.0847.04824.0847l4.78975.017c.04825 0 .12866-.0509.16083-.1017l.27341-.4405c.03216-.0508.01608-.1016-.04825-.1016H2.95926c-.06433 0-.14475.0339-.17691.0847l-.33774.4574ZM.0160829 15.4103c-.0321658.0508-.0160829.0847.0482487.0847l6.5749484-.0169c.06433 0 .12866-.0339.14474-.1017l.12867-.4066c.01608-.0508-.01609-.1016-.08042-.1016H.530735c-.064331 0-.144746.0338-.176912.0847l-.3377401.4574ZM3.90813 16.9521c-.03217.0508-.01609.1016.04825.1016l2.47381.017c.04824 0 .11258-.0508.11258-.1186l.03216-.4066c0-.0678-.03216-.1186-.0965-.1186H4.29412c-.06434 0-.12867.0508-.16083.1016l-.22516.4236Z"/>
</svg>
