<svg xmlns="http://www.w3.org/2000/svg" fill="none" viewBox="0 0 25 32">
  <path fill="#CE4444" d="m9.73795 18.8436 3.21315 1.8551L6.42625 32l-1.87276-4.1767 5.18446-8.9797Z"/>
  <path fill="#983535" d="m9.73795 18.8436-3.21312-1.8551L0 28.2898l4.55349-.4665 5.18446-8.9797Zm4.58405 0-3.2132 1.8551L17.6337 32l1.8727-4.1767-5.1844-8.9797Z"/>
  <path fill="#CE4444" d="m14.322 18.8436 3.2131-1.8551 6.5248 11.3013-4.5535-.4665-5.1844-8.9797Z"/>
  <path fill="url(#a)" d="M22.9936 11.0622c0 6.1094-4.9527 11.0621-11.0622 11.0621-6.10946 0-11.062151-4.9527-11.062151-11.0621C.869249 4.9527 5.82194 0 11.9314 0c6.1095 0 11.0622 4.9527 11.0622 11.0622Z"/>
  <path fill="#A88300" d="M20.5665 11.0621c0 4.769-3.8661 8.6351-8.635 8.6351-4.76903 0-8.63505-3.8661-8.63505-8.6351 0-4.76895 3.86602-8.63497 8.63505-8.63497 4.7689 0 8.635 3.86602 8.635 8.63497Z"/>
  <path fill="#C28B37" d="M21.0477 11.984c0 4.7801-3.875 8.6551-8.6551 8.6551-4.78009 0-8.65512-3.875-8.65512-8.6551 0-4.78011 3.87503-8.65513 8.65512-8.65513 4.7801 0 8.6551 3.87502 8.6551 8.65513Z"/>
  <path fill="#C09525" d="M20.5868 11.0621c0 4.7801-3.875 8.6551-8.6551 8.6551-4.78011 0-8.65514-3.875-8.65514-8.6551 0-4.78005 3.87503-8.65508 8.65514-8.65508 4.7801 0 8.6551 3.87503 8.6551 8.65508Z"/>
  <path fill="url(#b)" d="m11.9781 5.04096 1.867 3.73406 3.7341.46676-2.5641 2.87522.6971 4.1261-3.7341-1.867-3.73406 1.867.70325-4.1261-2.57028-2.87522 3.73409-.46676 1.867-3.73406Z"/>
  <defs>
    <linearGradient id="a" x1="11.1804" x2="12.6813" y1="4.03192" y2="31.965" gradientUnits="userSpaceOnUse">
      <stop stop-color="#FFC600"/>
      <stop offset="1" stop-color="#FFDE69"/>
    </linearGradient>
    <linearGradient id="b" x1="11.9783" x2="11.9783" y1="5.04096" y2="16.2431" gradientUnits="userSpaceOnUse">
      <stop stop-color="#FFFCDD"/>
      <stop offset="1" stop-color="#FFE896"/>
    </linearGradient>
  </defs>
</svg>
