<svg xmlns="http://www.w3.org/2000/svg" fill="none" viewBox="0 0 32 32">
  <path fill="#fff" d="M2 11.9556c0-3.48482 0-5.2272.67818-6.55821.59655-1.17078 1.54843-2.12266 2.71921-2.71921C6.7284 2 8.47078 2 11.9556 2h8.0888c3.4848 0 5.2272 0 6.5582.67818 1.1708.59655 2.1227 1.54843 2.7192 2.71921C30 6.7284 30 8.47078 30 11.9556v8.0888c0 3.4848 0 5.2272-.6782 6.5582-.5965 1.1708-1.5484 2.1227-2.7192 2.7192C25.2716 30 23.5292 30 20.0444 30h-8.0888c-3.48482 0-5.2272 0-6.55821-.6782-1.17078-.5965-2.12266-1.5484-2.71921-2.7192C2 25.2716 2 23.5292 2 20.0444v-8.0888Z"/>
  <path fill="#FBBC05" d="M5 23.5601c0 .7956.64998 1.44 1.45081 1.44h.02085C5.65857 25.0001 5 24.3557 5 23.5601ZM17.4678 12.4v3.7596l5.0686-4.0884V8.43999C22.5364 7.6444 21.8864 7 21.0856 7H10.1045l-.0098 5.4h7.3731Z"/>
  <path fill="#34A853" d="M17.4671 19.9207h-7.3853l-.0086 5.0796H21.085c.802 0 1.4508-.6444 1.4508-1.44v-3.2784l-5.0687-4.1208v3.7596Z"/>
  <path fill="#EA4335" d="M10.1042 7 5 12.4h5.0956l.0086-5.4Z"/>
  <path fill="#1967D2" d="M5 19.9204V23.56c0 .7956.65857 1.44 1.47166 1.44h3.60194l.0085-5.0796H5Z"/>
  <path fill="#4285F4" d="M10.0956 12.3999H5v7.5204h5.0821l.0135-7.5204Z"/>
  <path fill="#34A853" d="M26.9926 22.2796V9.9197c-.2858-1.64039-2.0849.24-2.0849.24l-2.3706 1.9116v8.2091l3.3934 2.7588c1.2252.1608 1.0621-.7596 1.0621-.7596Z"/>
  <path fill="#188038" d="m17.4678 16.1594 5.0699 4.122v-8.2091l-5.0699 4.0871Z"/>
</svg>
