<svg xmlns="http://www.w3.org/2000/svg" fill="none" viewBox="0 0 70 48">
  <rect width="69" height="47" x=".5" y=".5" fill="#fff" stroke="#D9D9D9" rx="5.5"/>
  <path fill="#3C4043" fill-rule="evenodd" d="M33.0603 31.5161v-6.042h3.1183c1.2778 0 2.3564-.4281 3.2356-1.2726l.211-.214c1.6061-1.7484 1.5006-4.472-.211-6.0895-.8558-.8564-2.0281-1.3202-3.2356-1.2964h-5.0057v14.9145h1.8874Zm.0002-7.8736v-5.2093h3.1657c.6801 0 1.325.2616 1.8057.7374 1.0201.999 1.0435 2.6641.0586 3.6988-.4807.5115-1.1608.7969-1.8643.7731h-3.1657Zm15.3688-1.5342c-.8089-.7493-1.9108-1.1299-3.3059-1.1299-1.7936 0-3.1418.666-4.0328 1.9862l1.6647 1.0585c.6096-.9039 1.442-1.3558 2.4971-1.3558.6682 0 1.3129.2498 1.817.7017.4924.4282.7738 1.0466.7738 1.7008v.44c-.7269-.4043-1.6413-.6184-2.7667-.6184-1.313 0-2.3681.3092-3.1535.9396-.7855.6303-1.184 1.4629-1.184 2.5214-.0235.9634.3868 1.8792 1.1137 2.4976.7385.6661 1.6764.9991 2.7783.9991 1.3013 0 2.3329-.5828 3.1184-1.7484h.082v1.4154h1.8054v-6.2917c0-1.3202-.3986-2.3668-1.2075-3.1161Zm-5.1227 7.5286c-.3869-.2855-.6214-.7493-.6214-1.2488 0-.559.258-1.0229.7621-1.3916.5159-.3687 1.1608-.559 1.9229-.559 1.0553-.0119 1.876.226 2.4623.7017 0 .8088-.3166 1.5105-.938 2.1052-.5628.5709-1.3249.892-2.1222.892-.5277.0119-1.0436-.1665-1.4657-.4995Zm10.3864 6.363 6.3071-14.6885h-2.0516l-2.919 7.3264h-.0352l-2.9894-7.3264h-2.0515l4.1382 9.5505-2.3446 5.138h1.946Z" clip-rule="evenodd"/>
  <path fill="#4285F4" d="M26.544 24.1659c0-.5828-.0469-1.1656-.1406-1.7365h-7.96v3.2945h4.5603c-.1876 1.0586-.7972 2.0101-1.6882 2.6047v2.1409h2.7198c1.5943-1.4867 2.5087-3.687 2.5087-6.3036Z"/>
  <path fill="#34A853" d="M18.4442 32.539c2.2743 0 4.1969-.7612 5.5919-2.0695l-2.7197-2.1408c-.762.5233-1.735.8206-2.8722.8206-2.2039 0-4.0679-1.5105-4.7361-3.5324h-2.8019v2.2122c1.4303 2.8902 4.3493 4.7099 7.538 4.7099Z"/>
  <path fill="#FBBC04" d="M13.708 25.6169c-.3517-1.0585-.3517-2.2121 0-3.2826V20.134h-2.8022c-1.20772 2.4144-1.20772 5.2689 0 7.6832l2.8022-2.2003Z"/>
  <path fill="#EA4335" d="M18.4442 18.8019c1.2075-.0238 2.3681.4401 3.2356 1.2845l2.415-2.4501c-1.5358-1.451-3.5521-2.2478-5.6506-2.224-3.1887 0-6.1077 1.8316-7.538 4.7217l2.8019 2.2122c.6682-2.0338 2.5322-3.5443 4.7361-3.5443Z"/>
</svg>
