<svg xmlns="http://www.w3.org/2000/svg" fill="none" viewBox="0 0 32 32">
  <path fill="#4285F4" d="M30.0014 16.3109c0-1.1511-.0953-1.9911-.3016-2.8622H16.2871v5.1955h7.873c-.1587 1.2912-1.0159 3.2356-2.9207 4.5422l-.0267.174 4.2409 3.2196.2938.0287c2.6984-2.4422 4.254-6.0356 4.254-10.2978Z"/>
  <path fill="#34A853" d="M16.2863 29.9998c3.8571 0 7.0951-1.2445 9.4603-3.3912l-4.508-3.4223c-1.2063.8245-2.8254 1.4-4.9523 1.4-3.7777 0-6.98405-2.4422-8.12701-5.8177l-.16753.0139-4.40968 3.3445-.05767.1571c2.34918 4.5733 7.17459 7.7157 12.76189 7.7157Z"/>
  <path fill="#FBBC05" d="M8.15964 18.769c-.30158-.8711-.47612-1.8045-.47612-2.7689 0-.9645.17454-1.8978.46025-2.7689l-.00799-.1856-4.46495-3.39814-.14608.0681c-.96821 1.89784-1.52377 4.02894-1.52377 6.28454 0 2.2555.55556 4.3866 1.52377 6.2844l4.63489-3.5155Z"/>
  <path fill="#EB4335" d="M16.2864 7.4133c2.6825 0 4.492 1.13555 5.5238 2.0845L25.8419 5.64C23.3658 3.38445 20.1435 2 16.2864 2 10.699 2 5.8736 5.1422 3.52441 9.71549l4.61904 3.51561c1.15884-3.37555 4.36515-5.8178 8.14295-5.8178Z"/>
</svg>
