<svg xmlns="http://www.w3.org/2000/svg" fill="none" viewBox="0 0 32 28">
  <path fill="url(#a)" fill-rule="evenodd" d="M18.2627 26.9922 29.2549 16C31.085 14.1699 32 11.9607 32 9.37258c0-2.58816-.915-4.7973-2.7451-6.62741C27.4247.915055 25.2155 0 22.6274 0 20.0392 0 17.8301.915055 16 2.74517 14.1699.915055 11.9607 0 9.37258 0c-2.58816 0-4.7973.915055-6.62741 2.74517C.915056 4.57528 0 6.78442 0 9.37258 0 11.9607.915056 14.1699 2.74517 16L13.7373 26.9922c1.2496 1.2496 3.2758 1.2496 4.5254 0Z" clip-rule="evenodd"/>
  <defs>
    <radialGradient id="a" cx="0" cy="0" r="1" gradientTransform="matrix(9.40002 16.20004 -17.72017 10.28207 8.07998 9.66157)" gradientUnits="userSpaceOnUse">
      <stop stop-color="#FA0"/>
      <stop offset="1" stop-color="#F05206"/>
    </radialGradient>
  </defs>
</svg>
