<svg xmlns="http://www.w3.org/2000/svg" fill="none" viewBox="0 0 29 32">
  <path fill="url(#a)" d="M0 28.8496C0 30.5896 1.41049 32 3.15041 32H25.2032c1.74 0 3.1505-1.4104 3.1505-3.1504V13.0282c0-.8956-.3812-1.7489-1.0483-2.3465L16.2789.803877c-1.1964-1.071836-3.0077-1.071836-4.2042 0L1.0483 10.6817C.381205 11.2793 0 12.1326 0 13.0282v15.8214Z"/>
  <path fill="#fff" fill-opacity=".48" d="M9.45122 32h9.45118V20.9736c0-.87-.7052-1.5752-1.5752-1.5752h-6.3008c-.8699 0-1.57518.7052-1.57518 1.5752V32Z"/>
  <defs>
    <linearGradient id="a" x1="14.1768" x2="14.1768" y1="32" y2="0" gradientUnits="userSpaceOnUse">
      <stop stop-color="#E84909"/>
      <stop offset="1" stop-color="#FF6200"/>
    </linearGradient>
  </defs>
</svg>
