<svg xmlns="http://www.w3.org/2000/svg" fill="none" viewBox="0 0 32 32">
  <path fill="url(#a)" d="M25.6 0H6.4C2.86538 0 0 2.86538 0 6.4v19.2C0 29.1346 2.86538 32 6.4 32h19.2c3.5346 0 6.4-2.8654 6.4-6.4V6.4C32 2.86538 29.1346 0 25.6 0Z"/>
  <path fill="#fff" d="M5.9577 24.8845C5.42578 25.9483 6.19937 27.2 7.38878 27.2H18.2111c1.1894 0 1.963-1.2517 1.4311-2.3155L14.231 14.0622c-.5896-1.1793-2.2725-1.1793-2.8622 0L5.9577 24.8845Z"/>
  <path fill="#fff" fill-opacity=".6" d="M15.5577 24.8845c-.5319 1.0638.2417 2.3155 1.4311 2.3155h7.6223c1.1894 0 1.963-1.2517 1.4311-2.3155l-3.8112-7.6223c-.5896-1.1793-2.2725-1.1793-2.8622 0l-3.8111 7.6223Z"/>
  <path fill="#fff" d="M24.0002 11.2c1.7673 0 3.2-1.43274 3.2-3.20005 0-1.76731-1.4327-3.2-3.2-3.2s-3.2 1.43269-3.2 3.2c0 1.76731 1.4327 3.20005 3.2 3.20005Z"/>
  <defs>
    <linearGradient id="a" x1="16" x2="16" y1="0" y2="32" gradientUnits="userSpaceOnUse">
      <stop stop-color="#00E676"/>
      <stop offset="1" stop-color="#00C853"/>
    </linearGradient>
  </defs>
</svg>
