<svg xmlns="http://www.w3.org/2000/svg" fill="none" viewBox="0 0 32 32">
  <rect width="28" height="28" x="2" y="2" fill="url(#a)" rx="6"/>
  <rect width="28" height="28" x="2" y="2" fill="url(#b)" rx="6"/>
  <rect width="28" height="28" x="2" y="2" fill="url(#c)" rx="6"/>
  <path fill="#fff" d="M23 10.5c0 .8284-.6716 1.5-1.5 1.5s-1.5-.6716-1.5-1.5c0-.82843.6716-1.5 1.5-1.5s1.5.67157 1.5 1.5Z"/>
  <path fill="#fff" fill-rule="evenodd" d="M16 21c2.7614 0 5-2.2386 5-5s-2.2386-5-5-5-5 2.2386-5 5 2.2386 5 5 5Zm0-2c1.6569 0 3-1.3431 3-3s-1.3431-3-3-3-3 1.3431-3 3 1.3431 3 3 3Z" clip-rule="evenodd"/>
  <path fill="#fff" fill-rule="evenodd" d="M6 15.6c0-3.3603 0-5.0405.65396-6.32394.57524-1.12898 1.49312-2.04686 2.6221-2.6221C10.5595 6 12.2397 6 15.6 6h.8c3.3603 0 5.0405 0 6.3239.65396 1.129.57524 2.0469 1.49312 2.6221 2.6221C26 10.5595 26 12.2397 26 15.6v.8c0 3.3603 0 5.0405-.654 6.3239-.5752 1.129-1.4931 2.0469-2.6221 2.6221C21.4405 26 19.7603 26 16.4 26h-.8c-3.3603 0-5.0405 0-6.32394-.654-1.12898-.5752-2.04686-1.4931-2.6221-2.6221C6 21.4405 6 19.7603 6 16.4v-.8ZM15.6 8h.8c1.7132 0 2.8777.00156 3.7779.0751.8769.07164 1.3253.20149 1.6381.36087.7526.3835 1.3645.99542 1.748 1.74803.1594.3128.2893.7612.3609 1.6381.0735.9002.0751 2.0647.0751 3.7779v.8c0 1.7132-.0016 2.8777-.0751 3.7779-.0716.8769-.2015 1.3253-.3609 1.6381-.3835.7526-.9954 1.3645-1.748 1.748-.3128.1594-.7612.2893-1.6381.3609-.9002.0735-2.0647.0751-3.7779.0751h-.8c-1.7132 0-2.8777-.0016-3.7779-.0751-.8769-.0716-1.3253-.2015-1.6381-.3609-.75261-.3835-1.36453-.9954-1.74803-1.748-.15938-.3128-.28923-.7612-.36087-1.6381C8.00156 19.2777 8 18.1132 8 16.4v-.8c0-1.7132.00156-2.8777.0751-3.7779.07164-.8769.20149-1.3253.36087-1.6381.3835-.75261.99542-1.36453 1.74803-1.74803.3128-.15938.7612-.28923 1.6381-.36087C12.7223 8.00156 13.8868 8 15.6 8Z" clip-rule="evenodd"/>
  <defs>
    <radialGradient id="a" cx="0" cy="0" r="1" gradientTransform="matrix(14.50002 -20.99999 20.99999 14.50002 12 23)" gradientUnits="userSpaceOnUse">
      <stop stop-color="#B13589"/>
      <stop offset=".79309" stop-color="#C62F94"/>
      <stop offset="1" stop-color="#8A3AC8"/>
    </radialGradient>
    <radialGradient id="b" cx="0" cy="0" r="1" gradientTransform="matrix(9.49998 -20.49996 20.49996 9.49998 11 31)" gradientUnits="userSpaceOnUse">
      <stop stop-color="#E0E8B7"/>
      <stop offset=".444662" stop-color="#FB8A2E"/>
      <stop offset=".71474" stop-color="#E2425C"/>
      <stop offset="1" stop-color="#E2425C" stop-opacity="0"/>
    </radialGradient>
    <radialGradient id="c" cx="0" cy="0" r="1" gradientTransform="matrix(38.50003 -5.5 1.1764 8.23476 .500002 3)" gradientUnits="userSpaceOnUse">
      <stop offset=".156701" stop-color="#406ADC"/>
      <stop offset=".467799" stop-color="#6A45BE"/>
      <stop offset="1" stop-color="#6A45BE" stop-opacity="0"/>
    </radialGradient>
  </defs>
</svg>
