<svg xmlns="http://www.w3.org/2000/svg" fill="none" viewBox="0 0 48 48">
  <circle cx="24" cy="24" r="20" fill="#C13584"/>
  <path fill="#fff" d="M24 14.1622c3.2041 0 3.5837.0122 4.849.0699 1.17.0534 1.8054.2489 2.2283.4132.5601.2177.9598.4777 1.3797.8976.42.42.68.8197.8977 1.3798.1643.4229.3598 1.0583.4132 2.2282.0577 1.2654.0699 1.6449.0699 4.849 0 3.2042-.0122 3.5837-.0699 4.8491-.0534 1.17-.2489 1.8053-.4132 2.2282-.2177.5601-.4777.9599-.8976 1.3798-.42.4199-.8197.6799-1.3798.8976-.4229.1644-1.0583.3598-2.2283.4132-1.2651.0577-1.6446.07-4.849.07s-3.5838-.0123-4.849-.07c-1.17-.0534-1.8054-.2488-2.2283-.4132-.5601-.2177-.9598-.4777-1.3797-.8976-.4199-.4199-.68-.8197-.8977-1.3798-.1643-.4229-.3598-1.0582-.4132-2.2282-.0577-1.2654-.0699-1.6449-.0699-4.8491 0-3.2041.0122-3.5836.0699-4.849.0534-1.1699.2489-1.8053.4132-2.2282.2177-.5601.4777-.9598.8977-1.3797.4199-.42.8196-.68 1.3797-.8977.4229-.1643 1.0583-.3598 2.2283-.4132 1.2653-.0577 1.6449-.0699 4.849-.0699ZM24 12c-3.259 0-3.6677.0138-4.9476.0722-1.2772.0583-2.1496.2611-2.9129.5578-.7891.3066-1.4583.7169-2.1254 1.3841-.6672.6671-1.0775 1.3363-1.3841 2.1254-.2967.7633-.4995 1.6356-.5578 2.9129C12.0138 20.3323 12 20.741 12 23.9999c0 3.2591.0138 3.6677.0722 4.9476.0583 1.2773.2611 2.1496.5578 2.9129.3066.7891.7169 1.4583 1.3841 2.1255.6671.6671 1.3363 1.0774 2.1254 1.384.7633.2967 1.6357.4995 2.9129.5578 1.2799.0584 1.6886.0722 4.9476.0722 3.259 0 3.6677-.0138 4.9476-.0722 1.2772-.0583 2.1496-.2611 2.9129-.5578.7891-.3066 1.4583-.7169 2.1254-1.384.6671-.6672 1.0775-1.3364 1.3841-2.1255.2967-.7633.4995-1.6356.5578-2.9129.0584-1.2799.0722-1.6885.0722-4.9476 0-3.2589-.0138-3.6676-.0722-4.9475-.0583-1.2773-.2611-2.1496-.5578-2.9129-.3066-.7891-.717-1.4583-1.3841-2.1254-.6671-.6672-1.3363-1.0775-2.1254-1.3841-.7633-.2967-1.6357-.4995-2.9129-.5578C27.6677 12.0138 27.259 12 24 12Z"/>
  <path fill="#fff" d="M24.0059 17.8433c-3.4033 0-6.1621 2.7588-6.1621 6.1621 0 3.4033 2.7588 6.1621 6.1621 6.1621 3.4033 0 6.1622-2.7588 6.1622-6.1621 0-3.4033-2.7589-6.1621-6.1622-6.1621Zm0 10.1621c-2.2091 0-4-1.7909-4-4 0-2.2091 1.7909-4 4-4 2.2092 0 4 1.7909 4 4 0 2.2091-1.7908 4-4 4Zm7.8448-10.4091c0 .7952-.6447 1.44-1.44 1.44-.7953 0-1.44-.6448-1.44-1.44 0-.7953.6447-1.4401 1.44-1.4401.7953 0 1.44.6448 1.44 1.4401Z"/>
</svg>
