<svg xmlns="http://www.w3.org/2000/svg" fill="none" viewBox="0 0 32 32">
  <path fill="#283544" d="M30 16c0 7.728-6.265 14-14 14S2 23.728 2 16C2 8.265 8.265 2 16 2s14 6.265 14 14Z"/>
  <path fill="#fff" d="M7.08597 20.8394h1.52909v-7.0951H7.08597v7.0951Zm.76148-8.0255c.47285 0 .85358-.4016.85358-.9036 0-.5154-.38073-.9103-.85358-.9103C7.38074 11 7 11.3949 7 11.9103c0 .502.38074.9036.84745.9036Zm6.11025-1.7938c-2.5854 0-4.20657 1.921-4.20657 4.9933C9.75113 19.0857 11.3723 21 13.9577 21c2.5791 0 4.2003-1.9143 4.2003-4.9866 0-3.0723-1.6212-4.9933-4.2003-4.9933Zm0 1.4725c1.5782 0 2.5853 1.3655 2.5853 3.5208 0 2.1486-1.0071 3.514-2.5853 3.514-1.5844 0-2.5854-1.3654-2.5854-3.514 0-2.1553 1.001-3.5208 2.5854-3.5208Zm5.1031 5.6292C19.1283 19.9023 20.467 21 22.5058 21 24.649 21 26 19.8487 26 18.0147c0-1.4391-.7615-2.249-2.5608-2.6974l-1.0194-.2544c-1.0869-.2811-1.5352-.6559-1.5352-1.2985 0-.8032.6755-1.3387 1.6765-1.3387 1.0132 0 1.7072.5422 1.7809 1.4458h1.5106c-.0368-1.7001-1.3264-2.8514-3.2792-2.8514-1.9283 0-3.2977 1.1579-3.2977 2.8715 0 1.3788.7738 2.2356 2.4072 2.6439l1.1484.2945c1.1176.2878 1.5721.6894 1.5721 1.3855 0 .8032-.7431 1.3789-1.8116 1.3789-1.0808 0-1.8976-.5824-1.9958-1.4726h-1.5352Z"/>
</svg>
