<svg xmlns="http://www.w3.org/2000/svg" fill="none" viewBox="0 0 32 32">
  <path fill="#E76F00" d="M16.0497 8.44062C22.6378 3.32607 19.2566 0 19.2566 0c.5032 5.28738-5.4436 6.53583-7.0377 10.1692-1.0877 2.4793.7449 4.6501 3.8286 7.3862-.2726-.606-.6931-1.1948-1.1187-1.7909-1.4519-2.0332-2.9643-4.1513 1.1209-7.32388Z"/>
  <path fill="#E76F00" d="M17.1015 18.677s1.982-1.5991.4124-3.3762c-5.3208-6.02894 5.8194-8.76497 5.8194-8.76497-6.8016 3.27667-5.7862 5.22157-4.0766 7.58437 1.8304 2.5336-2.1552 4.5568-2.1552 4.5568Z"/>
  <path fill="#5382A1" d="M22.937 23.4456c6.1053-3.1198 3.2825-6.1178 1.3122-5.7139-.483.0988-.6983.1845-.6983.1845s.1793-.2762.5217-.3958c3.8979-1.3475 6.8956 3.9745-1.2583 6.0824 0 .0001.0945-.083.1227-.1572Zm-12.704-3.9487c-3.81988-.5016 2.0945-1.883 2.0945-1.883s-2.2968-.1523-5.12158 1.1904c-3.34015 1.5889 8.26218 2.3115 14.26808.7582.6244-.4193 1.4874-.7827 1.4874-.7827s-2.4577.4316-4.9053.6347c-2.9949.2467-6.2102.2948-7.8231.0824Zm1.4534 2.9789c-2.13016-.2166-.7354-1.2319-.7354-1.2319-5.51202 1.799 3.0668 3.8391 10.7689 1.6243-.8187-.2838-1.3393-.8029-1.3393-.8029-3.7643.7128-5.9396.69-8.6942.4105Zm.9281 3.2233c-2.1285-.2406-.885-.9517-.885-.9517-5.00356 1.3748 3.0434 4.2151 9.4138 1.5303-1.0434-.399-1.7905-.8596-1.7905-.8596-2.8417.5288-4.1597.5703-6.7383.281Z"/>
  <path fill="#5382A1" d="M25.9387 27.3388s.9202.7456-1.0135 1.3224c-3.6771 1.0954-15.30427 1.4262-18.53426.0437-1.1611-.4967 1.01629-1.186 1.70121-1.3307.71431-.1523 1.12251-.1239 1.12251-.1239-1.29126-.8945-8.346171 1.7564-3.58355 2.5156 12.98839 2.0713 23.67659-.9328 20.30759-2.4271Z"/>
  <path fill="#5382A1" d="M28 28.9679c-.2131 2.7268-9.2123 3.3004-15.0726 2.9315-3.82308-.2411-4.58928-.8436-4.60049-.8524 3.65899.5932 9.82799.7012 14.82989-.2245C27.5903 30.0016 28 28.9679 28 28.9679Z"/>
</svg>
