<svg xmlns="http://www.w3.org/2000/svg" fill="none" viewBox="0 0 32 32">
  <path fill="#247CE6" d="m27.0631 25.1427 4.9371-13.12-14.9485-3.33715-1.9658 5.57715 11.9772 10.88Z"/>
  <path fill="url(#a)" d="m31.9999 25.6455-7.5429 6.3543-15.04001-3.8857 4.02281-7.3143 18.5601 4.8457Z"/>
  <path fill="url(#b)" d="M4.43473 15.9086.594727 4.93714 17.5547 0l-1.3714 14.1714-11.74857 1.7372Z"/>
  <path fill="url(#c)" d="m27.9314 18.5143-4.7543-8.1372.0915-.0457L17.5543 0 0 18.9714V32l31.9086-6.3543-3.9772-7.1314Z"/>
  <path fill="#000" d="M6.12598 6.12549H25.8745V25.8741H6.12598V6.12549Z"/>
  <path fill="#fff" d="M7.95508 22.1714h7.40572v1.2343H7.95508v-1.2343ZM11.1999 8.68555h1.6457l3.4743 8.18285h-1.8743l-.7314-1.8286h-3.4286l-.73144 1.8286H7.72559l3.47431-8.18285Zm1.8743 4.75425-1.0972-2.6514-1.0971 2.6514h2.1943Zm2.7891-.5943c0-2.3772 1.7828-4.29716 4.2971-4.29716 1.5543 0 2.4686.50286 3.2457 1.28l-1.1428 1.32576c-.64-.5943-1.28-.9143-2.1029-.9143-1.3714 0-2.3771 1.1428-2.3771 2.56 0 1.4171.96 2.6057 2.3771 2.6057.96 0 1.5086-.3657 2.1486-.96l1.1429 1.1428c-.8686.9143-1.7829 1.4629-3.3829 1.4629-2.4229 0-4.2057-1.8743-4.2057-4.2057Z"/>
  <defs>
    <linearGradient id="a" x1="9.42476" x2="31.9999" y1="26.4021" y2="26.4021" gradientUnits="userSpaceOnUse">
      <stop offset=".194" stop-color="#00DAF0"/>
      <stop offset=".903" stop-color="#247CE6"/>
    </linearGradient>
    <linearGradient id="b" x1=".582841" x2="17.5593" y1="7.96114" y2="7.96114" gradientUnits="userSpaceOnUse">
      <stop offset=".194" stop-color="#00DAF0"/>
      <stop offset=".903" stop-color="#247CE6"/>
    </linearGradient>
    <linearGradient id="c" x1="20.9719" x2="5.11863" y1="33.0158" y2="10.891" gradientUnits="userSpaceOnUse">
      <stop offset=".091" stop-color="#1DDF93"/>
      <stop offset=".484" stop-color="#00DAF0"/>
      <stop offset=".903" stop-color="#247CE6"/>
    </linearGradient>
  </defs>
</svg>
