<svg xmlns="http://www.w3.org/2000/svg" fill="none" viewBox="0 0 32 32">
  <g clip-path="url(#a)">
    <path fill="url(#b)" d="M8.09095 24.9598.365234 18.8341l3.839996-7.1315 11.01717 4.2972-7.13145 8.96Z"/>
    <path fill="url(#c)" d="M32.0003 8.54864 31.406 27.0629l-12.2972 4.9372-7.4057-4.7543 10.8343-11.2457-4.7543-10.37717 4.2515-5.12 9.9657 8.04571Z"/>
    <path fill="url(#d)" d="M32.0003 8.54864 22.2632 20.0686l-4.48-14.44567 4.2514-5.12 9.9657 8.04571Z"/>
    <path fill="url(#e)" d="M15.4057 26.56 2.56 31.2229 4.61714 24l2.69715-8.8686L0 12.6629 4.61714 0 14.6743 1.23429l9.8743 11.29141L15.4057 26.56Z"/>
    <path fill="#000" d="M6.2627 6.17139h19.7486V25.92H6.2627V6.17139Z"/>
    <path fill="#fff" d="M8.0918 22.2173h7.4057v1.2343H8.0918v-1.2343ZM13.4395 10.24V8.73145H9.3252V10.24h1.1886v5.1657H9.3252v1.5086h4.1143v-1.5086h-1.1429V10.24h1.1429Zm3.9317 6.8114c-.64 0-1.1886-.1371-1.6-.3657-.4115-.2285-.7772-.5485-1.0515-.8685l1.1429-1.28c.2286.2742.4571.4571.6857.5942.2286.1372.5029.2286.7771.2286.32 0 .5943-.0914.8229-.32.1829-.2286.2743-.5486.2743-1.0514V8.73145h1.8286V14.08c0 .5029-.0458.9143-.1829 1.28s-.32.64-.5943.9143c-.2286.2286-.5486.4571-.9143.5486-.3657.1371-.7314.2285-1.1885.2285Z"/>
  </g>
  <defs>
    <linearGradient id="b" x1=".360663" x2="15.2301" y1="18.3262" y2="18.3262" gradientUnits="userSpaceOnUse">
      <stop offset=".258" stop-color="#F97A12"/>
      <stop offset=".459" stop-color="#B07B58"/>
      <stop offset=".724" stop-color="#577BAE"/>
      <stop offset=".91" stop-color="#1E7CE5"/>
      <stop offset="1" stop-color="#087CFA"/>
    </linearGradient>
    <linearGradient id="c" x1="11.7795" x2="36.3084" y1="11.3738" y2="24.9464" gradientUnits="userSpaceOnUse">
      <stop stop-color="#F97A12"/>
      <stop offset=".072" stop-color="#CB7A3E"/>
      <stop offset=".154" stop-color="#9E7B6A"/>
      <stop offset=".242" stop-color="#757B91"/>
      <stop offset=".334" stop-color="#537BB1"/>
      <stop offset=".432" stop-color="#387CCC"/>
      <stop offset=".538" stop-color="#237CE0"/>
      <stop offset=".655" stop-color="#147CEF"/>
      <stop offset=".792" stop-color="#0B7CF7"/>
      <stop offset="1" stop-color="#087CFA"/>
    </linearGradient>
    <linearGradient id="d" x1="28.9046" x2="22.0758" y1="19.6184" y2="-.785756" gradientUnits="userSpaceOnUse">
      <stop stop-color="#FE315D"/>
      <stop offset=".078" stop-color="#CB417E"/>
      <stop offset=".16" stop-color="#9E4E9B"/>
      <stop offset=".247" stop-color="#755BB4"/>
      <stop offset=".339" stop-color="#5365CA"/>
      <stop offset=".436" stop-color="#386DDB"/>
      <stop offset=".541" stop-color="#2374E9"/>
      <stop offset=".658" stop-color="#1478F3"/>
      <stop offset=".794" stop-color="#0B7BF8"/>
      <stop offset="1" stop-color="#087CFA"/>
    </linearGradient>
    <linearGradient id="e" x1="4.90057" x2="25.3824" y1="7.53051" y2="41.408" gradientUnits="userSpaceOnUse">
      <stop stop-color="#FE315D"/>
      <stop offset=".04" stop-color="#F63462"/>
      <stop offset=".104" stop-color="#DF3A71"/>
      <stop offset=".167" stop-color="#C24383"/>
      <stop offset=".291" stop-color="#AD4A91"/>
      <stop offset=".55" stop-color="#755BB4"/>
      <stop offset=".917" stop-color="#1D76ED"/>
      <stop offset="1" stop-color="#087CFA"/>
    </linearGradient>
    <clipPath id="a">
      <path fill="#fff" d="M0 0h32v32H0z"/>
    </clipPath>
  </defs>
</svg>
