<svg xmlns="http://www.w3.org/2000/svg" fill="none" viewBox="0 0 32 32">
  <g clip-path="url(#a)">
    <path fill="url(#b)" d="m18.1029 6.94857-1.5086-4.57143L5.44 0 0 6.17143l17.0057 8.68567 1.0972-7.90853Z"/>
    <path fill="url(#c)" d="m12.8 18.9257-.32-9.5086L0 6.17139 3.06286 24.5028 12.8 24.4114v-5.4857Z"/>
    <path fill="url(#d)" d="m10.1025 18.7428.5943-7.5429 9.0515-9.27998 8.0914 1.46286 4.16 10.37712-4.3429 4.2972-7.0857-1.1429-4.3886 4.6171-6.08-2.7885Z"/>
    <path fill="url(#e)" d="M19.7485 1.91992 6.76562 13.4399l2.51429 14.8114 10.78859 3.7486 11.9314-7.1314L19.7485 1.91992Z"/>
    <path fill="#000" d="M6.12598 6.12549H25.8745V25.8741H6.12598V6.12549Z"/>
    <path fill="#fff" d="M8 22.1714h7.4057v1.2343H8v-1.2343ZM7.90918 8.68555h3.33712c1.9657 0 3.1543 1.14285 3.1543 2.83425v.0457c0 1.92-1.4628 2.88-3.3371 2.88H9.69204v2.4686H7.90918V8.68555Zm3.24572 4.11425c.9143 0 1.4171-.5485 1.4171-1.2343v-.0457c0-.8228-.5485-1.2343-1.4628-1.2343H9.73775v2.5143h1.41715Zm3.7025 2.9257 1.0515-1.28c.7314.5943 1.5085 1.0057 2.4685 1.0057.7315 0 1.1886-.2743 1.1886-.7771v-.0458c0-.4571-.2743-.6857-1.6457-1.0514-1.6457-.4114-2.7429-.8686-2.7429-2.5143v-.0457c0-1.50856 1.1886-2.46856 2.88-2.46856 1.1886 0 2.24.36571 3.0629 1.05143l-.96 1.37143c-.7314-.5029-1.4629-.8229-2.1486-.8229s-1.0514.32-1.0514.7315v.0457c0 .5486.3657.7314 1.7828 1.0971 1.6458.4572 2.6058 1.0515 2.6058 2.4686v.0457c0 1.6457-1.2343 2.56-3.0172 2.56-1.2343-.0457-2.4686-.5028-3.4743-1.3714Z"/>
  </g>
  <defs>
    <linearGradient id="b" x1=".255085" x2="13.6901" y1="21.4153" y2="3.66903" gradientUnits="userSpaceOnUse">
      <stop offset=".016" stop-color="#765AF8"/>
      <stop offset=".382" stop-color="#B345F1"/>
      <stop offset=".758" stop-color="#FA3293"/>
      <stop offset=".941" stop-color="#FF318C"/>
    </linearGradient>
    <linearGradient id="c" x1="1.248" x2="14.6615" y1="22.1161" y2="4.39813" gradientUnits="userSpaceOnUse">
      <stop offset=".016" stop-color="#765AF8"/>
      <stop offset=".382" stop-color="#B345F1"/>
      <stop offset=".758" stop-color="#FA3293"/>
      <stop offset=".941" stop-color="#FF318C"/>
    </linearGradient>
    <linearGradient id="d" x1="23.2486" x2="15.6678" y1="21.2136" y2="3.22186" gradientUnits="userSpaceOnUse">
      <stop offset=".183" stop-color="#765AF8"/>
      <stop offset=".238" stop-color="#8655F6"/>
      <stop offset=".345" stop-color="#9F4CF3"/>
      <stop offset=".443" stop-color="#AE47F2"/>
      <stop offset=".522" stop-color="#B345F1"/>
    </linearGradient>
    <linearGradient id="e" x1="28.9215" x2="11.2904" y1="26.212" y2="12.5787" gradientUnits="userSpaceOnUse">
      <stop offset=".016" stop-color="#765AF8"/>
      <stop offset=".382" stop-color="#B345F1"/>
    </linearGradient>
    <clipPath id="a">
      <path fill="#fff" d="M0 0h32v32H0z"/>
    </clipPath>
  </defs>
</svg>
