<svg xmlns="http://www.w3.org/2000/svg" fill="none" viewBox="0 0 32 32">
  <g clip-path="url(#a)">
    <path fill="url(#b)" d="m22.4456 5.02881 9.3258 7.81719-3.3372 6.8114-5.6686-1.5543h-4.8457l4.5257-13.07429Z"/>
    <path fill="url(#c)" d="M13.0286 10.1029 11.2 19.6571l-.1829 3.2915-4.52567 1.9657L0 25.6 1.96571 4.89143 13.6686 0l7.2228 4.75429-7.8628 5.34861Z"/>
    <path fill="url(#d)" d="m13.0286 10.103.8685 18.4686-2.9257 3.4286L0 25.6002l9.00571-13.44 4.02289-2.0572Z"/>
    <path fill="url(#e)" d="M25.0969 8.73143H13.9883L23.8169 0l1.28 8.73143Z"/>
    <path fill="url(#f)" d="m32.0001 28.6171-9.7829 3.3372-12.98282-3.6572 3.79432-18.1942 1.5085-1.37147L22.4458 8l-.7314 7.9543 6.3085-2.4229 3.9772 15.0857Z"/>
    <path fill="#000" d="M6.12598 6.12549H25.8745V25.8741H6.12598V6.12549Z"/>
    <path fill="#fff" d="M8 22.1714h7.4057v1.2343H8v-1.2343ZM7.95508 8.73145h3.29142c1.9657 0 3.1543 1.14285 3.1543 2.83425 0 1.8743-1.4629 2.9257-3.2914 2.9257H9.73794v2.4229H7.95508V8.73145Zm3.20002 4.11425c.9143 0 1.4171-.5943 1.4171-1.28 0-.8228-.5486-1.2343-1.4628-1.2343H9.73794v2.5143h1.41716Zm3.9767 0c0-2.3315 1.7372-4.25146 4.2515-4.25146 1.5543 0 2.4685.50286 3.2457 1.28L21.4861 11.2c-.64-.5943-1.28-.9143-2.1028-.9143-1.3715 0-2.3772 1.1428-2.3772 2.56 0 1.4171.96 2.5143 2.3772 2.5143.9143 0 1.5085-.3658 2.1485-.96l1.1429 1.1428c-.8229.9143-1.7829 1.4629-3.3371 1.4629-2.4229.0457-4.2058-1.8286-4.2058-4.16Z"/>
  </g>
  <defs>
    <linearGradient id="b" x1="11.4276" x2="30.4712" y1="12.3641" y2="12.3641" gradientUnits="userSpaceOnUse">
      <stop stop-color="#21D789"/>
      <stop offset="1" stop-color="#07C3F2"/>
    </linearGradient>
    <linearGradient id="c" x1="-11.227" x2="27.9863" y1="27.0085" y2="-1.93875" gradientUnits="userSpaceOnUse">
      <stop offset=".011" stop-color="#FCF84A"/>
      <stop offset=".112" stop-color="#A7EB62"/>
      <stop offset=".206" stop-color="#5FE077"/>
      <stop offset=".273" stop-color="#32DA84"/>
      <stop offset=".306" stop-color="#21D789"/>
      <stop offset=".577" stop-color="#21D789"/>
      <stop offset=".597" stop-color="#21D789"/>
      <stop offset=".686" stop-color="#20D68C"/>
      <stop offset=".763" stop-color="#1ED497"/>
      <stop offset=".835" stop-color="#19D1A9"/>
      <stop offset=".904" stop-color="#13CCC2"/>
      <stop offset=".971" stop-color="#0BC6E1"/>
      <stop offset="1" stop-color="#07C3F2"/>
    </linearGradient>
    <linearGradient id="d" x1="4.26514" x2="10.8055" y1="35.4991" y2="14.9762" gradientUnits="userSpaceOnUse">
      <stop stop-color="#21D789"/>
      <stop offset=".164" stop-color="#24D788"/>
      <stop offset=".305" stop-color="#2FD886"/>
      <stop offset=".437" stop-color="#41DA82"/>
      <stop offset=".564" stop-color="#5ADC7D"/>
      <stop offset=".688" stop-color="#7AE077"/>
      <stop offset=".809" stop-color="#A1E36E"/>
      <stop offset=".925" stop-color="#CFE865"/>
      <stop offset="1" stop-color="#F1EB5E"/>
    </linearGradient>
    <linearGradient id="e" x1="12.9254" x2="27.1581" y1="17.6562" y2="-1.47932" gradientUnits="userSpaceOnUse">
      <stop stop-color="#21D789"/>
      <stop offset=".061" stop-color="#24D788"/>
      <stop offset=".113" stop-color="#2FD886"/>
      <stop offset=".162" stop-color="#41DA82"/>
      <stop offset=".209" stop-color="#5ADD7D"/>
      <stop offset=".255" stop-color="#79E077"/>
      <stop offset=".258" stop-color="#7CE076"/>
      <stop offset=".499" stop-color="#8CE173"/>
      <stop offset=".925" stop-color="#B2E56B"/>
    </linearGradient>
    <linearGradient id="f" x1="34.6922" x2="6.01518" y1="20.0914" y2="19.8258" gradientUnits="userSpaceOnUse">
      <stop offset=".387" stop-color="#FCF84A"/>
      <stop offset=".536" stop-color="#ECF451"/>
      <stop offset=".826" stop-color="#C2E964"/>
      <stop offset=".925" stop-color="#B2E56B"/>
    </linearGradient>
    <clipPath id="a">
      <path fill="#fff" d="M0 0h32v32H0z"/>
    </clipPath>
  </defs>
</svg>
