<svg xmlns="http://www.w3.org/2000/svg" fill="none" viewBox="0 0 32 32">
  <path fill="#2684FF" d="M29.6647 15.2165 17.2075 3.1679 16 2l-9.37731 9.0697-4.28743 4.1468c-.44701.4329-.44701 1.1341 0 1.567l8.56724 8.2862L16 30l9.3773-9.0697.1452-.1404 4.1422-4.0064c.4471-.4329.4471-1.1341 0-1.567ZM16 20.1394 11.7202 16 16 11.8606 20.2798 16 16 20.1394Z"/>
  <path fill="url(#a)" fill-rule="evenodd" d="M15.9999 11.8606c-2.802-2.71053-2.8157-7.10066-.0305-9.8274l-9.36588 9.0549 5.09748 4.9303 4.2989-4.1578Z" clip-rule="evenodd"/>
  <path fill="url(#b)" fill-rule="evenodd" d="M20.2912 15.9888 16 20.1392c1.3525 1.3074 2.1124 3.081 2.1124 4.9303 0 1.8494-.7599 3.623-2.1124 4.9304l9.3888-9.0808-5.0976-4.9303Z" clip-rule="evenodd"/>
  <defs>
    <linearGradient id="a" x1="15.2357" x2="8.09646" y1="7.67312" y2="10.7902" gradientUnits="userSpaceOnUse">
      <stop offset=".18" stop-color="#0052CC"/>
      <stop offset="1" stop-color="#2684FF"/>
    </linearGradient>
    <linearGradient id="b" x1="16.8177" x2="23.9441" y1="24.2786" y2="21.1836" gradientUnits="userSpaceOnUse">
      <stop offset=".18" stop-color="#0052CC"/>
      <stop offset="1" stop-color="#2684FF"/>
    </linearGradient>
  </defs>
</svg>
