<svg xmlns="http://www.w3.org/2000/svg" fill="none" viewBox="0 0 32 32">
  <circle cx="16" cy="16" r="14" fill="#0769AD"/>
  <path fill="#78CFF5" d="M22.6573 13.4211c1.257 0 2.4079-.4192 3.2977-1.1145-.9238 1.2172-2.4543 2.013-4.1861 2.013-2.8212 0-5.1082-2.1119-5.1082-4.71704 0-1.44446.7031-2.73729 1.8105-3.60256-.5811.76568-.9221 1.6981-.9221 2.70407 0 2.60513 2.287 4.71703 5.1082 4.71703Z"/>
  <path fill="#78CFF5" d="M25.9064 16.6586c-1.3552 1.063-3.1096 1.7042-5.0259 1.7042-4.2931 0-7.7734-3.2181-7.7734-7.1879 0-1.53968.5236-2.96631 1.415-4.13596-1.6808 1.31848-2.7476 3.28586-2.7476 5.48366 0 3.9698 3.4803 7.188 7.7734 7.188 2.6281 0 4.9515-1.2059 6.3585-3.052Z"/>
  <path fill="#78CFF5" d="M26 20.7701c-1.9311 1.8428-4.6063 2.9837-7.5625 2.9837-5.8878 0-10.66072-4.5255-10.66072-10.108 0-1.769.47925-3.4318 1.32135-4.87813C7.18322 10.595 6 13.1125 6 15.892 6 21.4745 10.7729 26 16.6607 26c4.022 0 7.5239-2.1119 9.3393-5.2299Z"/>
</svg>
