<svg xmlns="http://www.w3.org/2000/svg" fill="none" viewBox="0 0 32 32">
  <path fill="#FFCA28" d="M2 2h28v28H2z"/>
  <path fill="#3E3E3E" d="m19 25.2879 2.0615-1.3642c.1616.5076 1.1847 1.7131 2.477 1.7131 1.2923 0 1.8923-.7058 1.8923-1.1738 0-1.2752-1.3196-1.7248-1.9534-1.9407-.1034-.0352-.1884-.0642-.2466-.0895-.0299-.013-.075-.0303-.1329-.0524-.7049-.2693-3.3056-1.2629-3.3056-4.1431 0-3.1723 3.0615-3.5371 3.7539-3.5371.4529 0 2.6307.0555 3.7153 2.0937l-2 1.3959c-.4384-.8883-1.1669-1.1817-1.6153-1.1817-1.1077 0-1.3385.812-1.3385 1.1817 0 1.0372 1.2035 1.5021 2.2196 1.8946.2659.1027.5189.2004.7342.3022C26.3692 20.91 28 21.7666 28 24.463c0 1.3506-1.1328 3.5372-3.9846 3.5372-3.8308 0-4.8462-2.2999-5.0154-2.7123Zm-10 .2708 2.1487-1.3634c.1683.5073.8226 1.4427 1.7718 1.4427.9493 0 1.4352-.975 1.4352-1.4427v-9.1951h2.6425v9.1951c.0428 1.2683-.6606 3.8049-3.765 3.8049-2.8542 0-4.04078-1.6963-4.2332-2.4415Z"/>
</svg>
