<svg xmlns="http://www.w3.org/2000/svg" fill="none" viewBox="0 0 48 48">
  <circle cx="24" cy="24" r="20" fill="#1196CC"/>
  <path fill="#fff" fill-rule="evenodd" d="M32.5314 16H15.262c-.697 0-1.262.565-1.262 1.262v11.6426c0 1.3939 1.13 2.524 2.524 2.524h11.9175c1.394 0 2.524-1.1301 2.524-2.524v-1.6459h1.5659c3.0202 0 5.4686-2.4484 5.4686-5.4686v-.3215C38 18.4484 35.5516 16 32.5314 16Zm-1.5659 8.3398v-5.4209h1.4275c1.497 0 2.7104 1.2135 2.7104 2.7104 0 1.497-1.2134 2.7105-2.7104 2.7105h-1.4275Zm-6.0506-4.9111c-1.4581 0-2.3821.5704-2.772 1.7112-.3899-1.1408-1.3139-1.7112-2.7721-1.7112-2.1871 0-2.998 2.7211-1.8515 4.5.7643 1.186 2.3055 2.686 4.6236 4.5 2.318-1.814 3.8592-3.314 4.6235-4.5 1.1465-1.7789.3357-4.5-1.8515-4.5Z" clip-rule="evenodd"/>
</svg>
