<svg xmlns="http://www.w3.org/2000/svg" fill="none" viewBox="0 0 48 48">
  <circle cx="24" cy="24" r="20" fill="#0077B5"/>
  <path fill="#fff" fill-rule="evenodd" d="M18.7747 14.2839c0 1.2451-.948 2.2527-2.4305 2.2527-1.4248 0-2.3729-1.0076-2.3435-2.2527C13.9713 12.9783 14.9193 12 16.3726 12c1.4541 0 2.3737.9783 2.4021 2.2839Zm-4.6548 18.5352V18.3162h4.5072v14.5019h-4.5072v.001Zm8.1194-9.8745c0-1.8089-.0596-3.3511-.1192-4.6264h3.915l.2081 1.9868h.089c.5932-.9196 2.0757-2.3123 4.4779-2.3123 2.9651 0 5.1894 1.9575 5.1894 6.2263v8.602h-4.5073v-8.0372c0-1.8694-.6518-3.1439-2.2829-3.1439-1.246 0-1.9869.86-2.283 1.6898-.1192.2971-.1779.7115-.1779 1.1277v8.3636h-4.5073v-9.8764h-.0018Z" clip-rule="evenodd"/>
</svg>
