<svg xmlns="http://www.w3.org/2000/svg" fill="none" viewBox="0 0 32 32">
  <path fill="#000" d="m5.3055 19.4875-.00459-5.5588V12.264H2V3l13.9198.06783 4.3544.0096c5.2111 0 9.7246 4.07466 9.7246 9.45607v16.41H15.0302c-5.20649 0-9.7247-4.0795-9.7247-9.4561v.0001Z" opacity=".26"/>
  <path fill="url(#a)" d="M27.9993 24.6522V12.7214c0-3.98587-3.3819-7.21699-7.5546-7.21699h-4.3311V5.4948L4.40039 5.44189v4.35308h1.79805c1.25513 0 1.47683.89553 1.47683 2.13503l.00929 7.6959c0 3.9859 3.38194 7.2169 7.55004 7.2169h10.2911c1.3192 0 2.4738-.8635 2.4738-2.1908l-.0002.0002Z"/>
  <path fill="url(#b)" d="M26.9781 25.6597c-2.6318-1.8745-4.4957-4.0277-6.0658-6.8782-3.0951-5.9095-2.3714-8.84308-10.0358-9.53479-2.21184 0-3.68407-.50599-6.01224-.50599v.83799s.92002.48269 1.72871.48269c1.20592 0 1.41514.8646 1.41514 2.0555l.00766 7.3761c0 3.8298 3.25433 6.9336 7.25903 6.9336h9.8827c.7255 0 1.3771-.2955 1.8206-.7669Z" opacity=".175"/>
  <path fill="#000" fill-opacity=".08" d="M17.8188 9.97637c-.9391 0-1.7735.36043-2.444 1.06033-.6701.6998-1.0219 1.5731-1.0219 2.5589v4.9827h2.1865v-4.9828c0-.3778.1192-.6732.3803-.9458.2618-.2733.5392-.3971.8991-.3971.3676 0 .6407.1232.9032.3971.2609.2725.3803.568.3803.9458v4.9827h2.1865v-4.9827c0-.3778.1192-.6732.3802-.9458.2625-.274.5356-.3971.9032-.3971.3601 0 .6373.1238.8991.3971.261.2725.3803.568.3803.9458l.0119 5.8219c0 1.242-1.1443 2.2887-2.6143 2.2887l-7.0508-.0286c-1.1344 0-2.1034-1.1414-2.1034-2.608V8.10596h-2.0677V19.4912c0 1.208.4277 2.2674 1.2596 3.124.7112.7254 1.5663 1.1547 2.5272 1.2609v.041h7.851c1.2063 0 2.2662-.4637 3.1214-1.3634h.0039c.7272-.7722 1.1523-1.6976 1.2556-2.739l-.0079-6.2191c0-.9858-.3518-1.8591-1.0219-2.5589-.6705-.6999-1.5049-1.06033-2.444-1.06033-.9219 0-1.7285.35433-2.3806 1.00303-.6503-.6477-1.4514-1.00303-2.3728-1.00303Z"/>
  <path fill="#fff" d="M17.6443 10.0359c-.9392 0-1.7737.3604-2.4442 1.0604-.6701.6997-1.0219 1.5731-1.0219 2.5588v4.9827h2.1865v-4.9827c0-.3777.1192-.6731.3803-.9457.2618-.2733.5392-.3971.8993-.3971.3674 0 .6407.1232.903.3971.2611.2725.3803.568.3803.9457v4.9827h2.1866v-4.9827c0-.3777.1192-.6731.3803-.9457.2624-.274.5355-.3971.9031-.3971.3601 0 .6373.1238.8992.3971.2611.2725.3803.568.3803.9457l.0119 5.822c0 1.242-1.1444 2.2887-2.6144 2.2887l-7.051-.0287c-1.1344 0-2.1033-1.1413-2.1033-2.6079V8.16553H9.85254V19.5508c0 1.208.42766 2.2673 1.25966 3.1239.7111.7255 1.5664 1.1957 2.5272 1.302h7.8511c1.2064 0 2.2664-.4637 3.1215-1.3634h.0039c.7273-.7723 1.1523-1.6976 1.2557-2.7391l-.0079-6.2191c0-.9857-.3518-1.8592-1.022-2.5588-.6705-.7-1.505-1.0604-2.4441-1.0604-.9217 0-1.7284.3543-2.3806 1.0031-.6504-.6478-1.4514-1.0031-2.3727-1.0031Z"/>
  <path fill="#fff" d="M15.1667 28.4949c-4.9704 0-9.2835-3.8945-9.2835-9.027l-.00437-6.2321v-1.5892H2.72754V3.72852l17.44496.07381c4.9747 0 9.2833 3.88983 9.2833 9.02697v15.6656H15.1667Zm12.2646-4.2023V12.8293c0-3.82968-3.2494-6.93408-7.2587-6.93408L4.75691 5.83508v3.71891h1.26071c.85593 0 1.88588.83131 1.88588 2.05131l.00896 7.858c0 3.8298 3.24944 6.9342 7.25414 6.9342h9.8878c1.2676 0 2.3769-.8298 2.3769-2.1049Z"/>
  <defs>
    <linearGradient id="a" x1="6.65269" x2="19.3466" y1="8.17265" y2="21.6399" gradientUnits="userSpaceOnUse">
      <stop stop-color="#C7F994"/>
      <stop offset="1" stop-color="#87CF3E"/>
    </linearGradient>
    <linearGradient id="b" x1="9.24523" x2="17.1539" y1="24.6117" y2="12.614" gradientUnits="userSpaceOnUse">
      <stop stop-color="#3D3D3D"/>
      <stop offset="1" stop-opacity=".114"/>
    </linearGradient>
  </defs>
</svg>
