<svg xmlns="http://www.w3.org/2000/svg" fill="none" viewBox="0 0 32 32">
  <path fill="#FDDD4C" d="M16 2C8.27812 2 2 8.27812 2 16c0 7.7219 6.27812 14 14 14 7.7219 0 14-6.2781 14-14 0-7.72188-6.2781-14-14-14Z"/>
  <path fill="#000" d="M9.86884 19.6502c-.30612-.4635.46386-1.1649.15066-1.7539-.18053-.3396-.47561-.5513-.82998-.5957-.34011-.0427-.69047.0818-.91379.3251-.35258.3837-.40741.906-.33921 1.0908.02496.0677.06419.0862.09227.0902.19204.0253.3001-.4676.3664-.5703.18332-.2829.59957-.3685.88704-.1826.54508.3526.07244.9224.11322 1.4036.03968.4686.33164.657.59374.6768.25501.0096.43331-.132.47831-.2354.1079-.2469-.3468.1327-.59866-.2486Zm11.38886-4.2544c-.143-.0197-.2992-.0193-.4618 0-.1234-.1557-.234-.4079-.2964-.7022-.111-.5236-.0994-.9029.2104-.9522.3098-.0492.4595.2676.5705.7912.0745.352.0602.6754-.0227.8632Zm-3.3931.3116c.0123.1185.0166.2385.0131.349.2998.0176.5121.1599.5686.2503.029.0466.0174.077.0081.091-.0311.0483-.0976.0409-.2369.0252-.1217-.0136-.2527-.0256-.3889-.0194-.0741.2273-.2938.2486-.4482.0805-.1078.0328-.3196.1681-.3828.0211-.0005-.0729.0758-.179.2139-.2726-.0943-.1799-.1575-.3724-.1948-.5718-.1958.0353-.372.0901-.5101.1331-.0648.0202-.3213.1361-.3514.0055-.0201-.0902.1203-.2389.2688-.3463.1658-.1177.3498-.2014.5406-.2497-.0041-.284.0683-.4822.2747-.515.2558-.0407.4144.1563.5241.521.3092.0859.618.2989.7543.5191.053.0854.0633.1514.0289.1862-.0857.0888-.5604-.1687-.682-.2072Zm2.0331 1.2764c.1961.095.4119.0576.4823-.0836.0704-.1413-.0316-.3327-.2278-.4277-.1961-.095-.4118-.0576-.4823.0836-.0704.1412.0317.3326.2278.4277Zm.9655-.7014c.0035-.216.1359-.3885.2951-.3859.1591.0031.2852.18.2817.3956-.0036.2156-.136.3881-.2951.3854-.1592-.0026-.2853-.1795-.2817-.3951Z"/>
  <path fill="#000" fill-rule="evenodd" d="M25.1785 18.9281c.0031.0111-.0013-.0045 0 0 .3196 0 .8215.3626.8215 1.2386 0 .8717-.3664 1.859-.4529 2.0782-1.3198 3.1222-4.4699 4.8602-8.2223 4.7502-3.4982-.1025-6.4816-1.9246-7.78718-4.895-.78942.0009-1.60336-.3419-2.22206-.8831-.65213-.5702-1.05419-1.3081-1.13264-2.0777-.06107-.5992.01337-1.1567.2037-1.6429l-.73325-.6134C2.29777 14.0864 12.7929 2.57165 16.1494 5.46156c.0169.01452 1.142 1.10395 1.1447 1.10659 1.6184-.6783 5.9548-1.96975 5.9596 1.03664.0018.99836-.6427 2.16259-1.6755 3.21901 1.1936 1.0926.8788 2.6447 1.0689 4.0687l.4145.1135c.7903.2187 1.3524.5104 1.6275.7955.275.2847.4114.5606.4609.884.0463.2609.0401.7216-.3085 1.2368.1255.3324.2401.6638.337 1.0058Zm-15.70016 2.362c.11723.0026.23357-.0049.34768-.0242 1.22628-.2064 1.54718-1.5211 1.34528-2.8121-.2282-1.4577-1.22716-1.9716-1.90514-2.0081-.18855-.0097-.36373.007-.50815.0356-1.21021.2407-1.89354 1.2571-1.75893 2.5771.12169 1.1946 1.34572 2.2017 2.47926 2.2317Zm-2.74091-4.4506c.40608-.5821 1.06979-1.0032 1.82311-1.148.9588-2.5405 2.55996-4.8813 4.67906-6.49216 1.5726-1.29491 3.2686-2.22375 3.2686-2.22375s-.9133-1.04543-1.1892-1.12243c-1.697-.45232-5.36193 2.04247-7.70211 5.33894-.94677 1.3336-2.30229 3.6955-1.65417 4.9104.07979.1505.53222.5372.77471.737Zm13.75807 3.8671c.0026.0273-.0143.0555-.0388.0656 0 0-1.3636.6261-3.5295-.0352.0779.6492.8652.8952 1.4153.9843 2.6838.4558 5.193-1.0591 5.7577-1.4406.097-.0655-.0012.1029-.0187.1276-.6914.8804-2.5501 1.8999-4.9683 1.8995-1.0547-.0005-2.1088-.367-2.4958-.9306-.6004-.8743-.0298-2.1507.9709-2.0179 1.6915.1886 3.4256.0469 4.9915-.6705 1.3653-.6257 1.881-1.3138 1.8035-1.8713-.1203-.864-1.4012-.9991-2.0487-1.2091-.2817-.092-.4208-.1655-.4524-.6886-.0138-.2284-.054-1.0252-.0687-1.3548-.0258-.5768-.0963-1.3657-.5919-1.6913-.1293-.085-.2728-.1259-.4239-.1338-.1205-.0058-.192.0108-.2304.0197-.0086.002-.0156.0036-.021.0045-.2677.0449-.4317.1803-.6251.34-.0111.0092-.0224.0185-.0337.0278-.6183.5087-1.1403.5918-1.7211.5672-.1809-.0076-.3673-.0256-.564-.0447-.1809-.0175-.3704-.0359-.5722-.0477l-.2465-.0141c-.9726-.0493-2.0157.7797-2.1891 1.9571-.1937 1.3143.5409 2.1193 1.0186 2.6428.1181.1294.2205.2415.2893.34.0441.0594.0954.143.0954.2226 0 .0951-.0625.1703-.1235.2345-.9923 1.0072-1.3096 2.6075-.9356 3.9411.0468.1663.106.3256.176.4778.8773 2.0236 3.599 2.9661 6.2574 2.1089 1.8632-.6007 3.5094-2.0524 3.8446-4.055.0798-.5218-.0374-.7233-.197-.8206-.1689-.1025-.3713-.0669-.3713-.0669s-.0923-.6234-.3535-1.1901c-.7751.6036-1.7727 1.0278-2.5323 1.2429-1.2169.3447-2.5315.4788-3.789.3163-.5101-.0659-.8528-.1102-.9997.3609 1.6774.6063 3.4528.3467 3.4528.3467.0343-.0035.0651.0211.0687.055ZM15.656 8.94062c-.9174.46332-1.9417 1.28828-2.7735 2.23738-.0294.0339.0143.0805.0504.0546.7185-.5161 1.7036-.9957 2.9941-1.30638 1.4455-.34804 2.8372-.20196 3.6872-.00968.0428.00968.0695-.06292.0317-.08404-.5617-.31108-1.4238-.52228-2.0353-.52668-.0299-.00044-.0468-.03476-.029-.05852.1056-.14036.2505-.27896.3829-.37928.0294-.02288.0116-.06995-.0259-.06776-.7607.04612-2.4984.83843-2.4921.8096.0445-.2112.1849-.49016.2576-.6204.0174-.0308-.0165-.06468-.0481-.04884Z" clip-rule="evenodd"/>
</svg>
