<svg xmlns="http://www.w3.org/2000/svg" fill="none" viewBox="0 0 32 32">
  <path fill="url(#a)" d="M2 11.6c0-3.36031 0-5.04047.65396-6.32394.57524-1.12898 1.49312-2.04686 2.6221-2.6221C6.55953 2 8.23969 2 11.6 2h8.8c3.3603 0 5.0405 0 6.3239.65396 1.129.57524 2.0469 1.49312 2.6221 2.6221C30 6.55953 30 8.23969 30 11.6v8.8c0 3.3603 0 5.0405-.654 6.3239-.5752 1.129-1.4931 2.0469-2.6221 2.6221C25.4405 30 23.7603 30 20.4 30h-8.8c-3.36031 0-5.04047 0-6.32394-.654-1.12898-.5752-2.04686-1.4931-2.6221-2.6221C2 25.4405 2 23.7603 2 20.4v-8.8Z"/>
  <path fill="#fff" d="M16 23c4.9706 0 9-3.3579 9-7.5S20.9706 8 16 8s-9 3.3579-9 7.5c0 2.6255 1.61889 4.9359 4.0702 6.2758-.0821.6669-.3287 1.5569-1.0702 2.2242 1.4021-.2524 2.5211-.7595 3.3571-1.3286C14.1928 22.885 15.0803 23 16 23Z"/>
  <defs>
    <linearGradient id="a" x1="16" x2="16" y1="2" y2="30" gradientUnits="userSpaceOnUse">
      <stop stop-color="#5AF575"/>
      <stop offset="1" stop-color="#13BD2C"/>
    </linearGradient>
  </defs>
</svg>
