<svg xmlns="http://www.w3.org/2000/svg" fill="none" viewBox="0 0 32 32">
  <rect width="24" height="28" x="8" y="2" fill="#2FB776" rx="2"/>
  <path fill="url(#a)" d="M8 23h24v5c0 1.1046-.8954 2-2 2H10c-1.10457 0-2-.8954-2-2v-5Z"/>
  <path fill="#229C5B" d="M20 16h12v7H20z"/>
  <path fill="#27AE68" d="M20 9h12v7H20z"/>
  <path fill="#1D854F" d="M8 4c0-1.10457.89543-2 2-2h10v7H8V4Z"/>
  <path fill="#197B43" d="M8 9h12v7H8z"/>
  <path fill="#1B5B38" d="M8 16h12v7H8z"/>
  <path fill="#000" fill-opacity=".3" d="M8 12c0-1.6569 1.34315-3 3-3h6c1.6569 0 3 1.3431 3 3v12c0 1.6569-1.3431 3-3 3H8V12Z"/>
  <rect width="18" height="18" y="7" fill="url(#b)" rx="2"/>
  <path fill="#fff" d="m13 21-2.8179-5.1 2.6942-4.9H10.677l-1.66325 3.1286L7.37801 11H5.10997l2.7079 4.9L5 21h2.19931l1.7732-3.3143L10.732 21H13Z"/>
  <defs>
    <linearGradient id="a" x1="8" x2="32" y1="26.5" y2="26.5" gradientUnits="userSpaceOnUse">
      <stop stop-color="#163C27"/>
      <stop offset="1" stop-color="#2A6043"/>
    </linearGradient>
    <linearGradient id="b" x1="0" x2="18" y1="16" y2="16" gradientUnits="userSpaceOnUse">
      <stop stop-color="#185A30"/>
      <stop offset="1" stop-color="#176F3D"/>
    </linearGradient>
  </defs>
</svg>
