<svg xmlns="http://www.w3.org/2000/svg" fill="none" viewBox="0 0 32 32">
  <rect width="20" height="28" x="10" y="2" fill="#1066B5" rx="2"/>
  <rect width="20" height="28" x="10" y="2" fill="url(#a)" rx="2"/>
  <path fill="#32A9E7" d="M10 5h10v10H10z"/>
  <path fill="#167EB4" d="M10 15h10v10H10z"/>
  <path fill="#32A9E7" d="M20 15h10v10H20z"/>
  <path fill="#58D9FD" d="M20 5h10v10H20z"/>
  <mask id="c" width="24" height="16" x="8" y="14" maskUnits="userSpaceOnUse" style="mask-type:alpha">
    <path fill="url(#b)" d="M8 14h22c1.1046 0 2 .8954 2 2v12c0 1.1046-.8954 2-2 2H10c-1.10457 0-2-.8954-2-2V14Z"/>
  </mask>
  <g mask="url(#c)">
    <path fill="#135298" d="M32 14v4h-2v-4h2Z"/>
    <path fill="url(#d)" d="M32 30V16L7 30h25Z"/>
    <path fill="url(#e)" d="M8 30V16l25 14H8Z"/>
  </g>
  <path fill="#000" fill-opacity=".3" d="M8 12c0-1.6569 1.34315-3 3-3h6c1.6569 0 3 1.3431 3 3v12c0 1.6569-1.3431 3-3 3H8V12Z"/>
  <rect width="18" height="18" y="7" fill="url(#f)" rx="2"/>
  <path fill="#fff" d="M14 16.0693v-.1663C14 13.0222 11.9272 11 9.01582 11 6.08861 11 4 13.036 4 15.9307v.1663C4 18.9778 6.07278 21 9 21c2.9114 0 5-2.036 5-4.9307Zm-2.3576.0277c0 1.9113-1.0759 3.0609-2.62658 3.0609-1.55063 0-2.6424-1.1773-2.6424-3.0886v-.1663c0-1.9113 1.07595-3.0609 2.62658-3.0609 1.5348 0 2.6424 1.1773 2.6424 3.0886v.1663Z"/>
  <defs>
    <linearGradient id="a" x1="10" x2="30" y1="16" y2="16" gradientUnits="userSpaceOnUse">
      <stop stop-color="#064484"/>
      <stop offset="1" stop-color="#0F65B5"/>
    </linearGradient>
    <linearGradient id="b" x1="8" x2="32" y1="26.7692" y2="26.7692" gradientUnits="userSpaceOnUse">
      <stop stop-color="#1B366F"/>
      <stop offset="1" stop-color="#2657B0"/>
    </linearGradient>
    <linearGradient id="d" x1="32" x2="8" y1="23" y2="23" gradientUnits="userSpaceOnUse">
      <stop stop-color="#44DCFD"/>
      <stop offset=".453125" stop-color="#259ED0"/>
    </linearGradient>
    <linearGradient id="e" x1="8" x2="32" y1="23" y2="23" gradientUnits="userSpaceOnUse">
      <stop stop-color="#259ED0"/>
      <stop offset="1" stop-color="#44DCFD"/>
    </linearGradient>
    <linearGradient id="f" x1="0" x2="18" y1="16" y2="16" gradientUnits="userSpaceOnUse">
      <stop stop-color="#064484"/>
      <stop offset="1" stop-color="#0F65B5"/>
    </linearGradient>
  </defs>
</svg>
