<svg xmlns="http://www.w3.org/2000/svg" fill="none" viewBox="0 0 32 32">
  <path fill="#5D29A1" d="M8 23h24v5c0 1.1046-.8954 2-2 2H10c-1.10457 0-2-.8954-2-2v-5Z"/>
  <path fill="#7F32CC" d="M8 16h24v7H8z"/>
  <path fill="#9A40D6" d="M8 9h24v7H8z"/>
  <path fill="url(#a)" d="M10 2c-1.10457 0-2 .89543-2 2v24c0 1.1046.89543 2 2 2h14V9h8V4c0-1.10457-.8954-2-2-2H10Z"/>
  <path fill="#000" fill-opacity=".3" d="M8 12c0-1.6569 1.34315-3 3-3h6c1.6569 0 3 1.3431 3 3v12c0 1.6569-1.3431 3-3 3H8V12Z"/>
  <rect width="18" height="18" y="7" fill="url(#b)" rx="2"/>
  <path fill="#fff" d="M13 21V11h-2.1107v5.8286L6.9631 11H5v10h2.08118v-6.0429L11.155 21H13Z"/>
  <defs>
    <linearGradient id="a" x1="8" x2="24.5" y1="16" y2="16" gradientUnits="userSpaceOnUse">
      <stop stop-color="#8C42AC"/>
      <stop offset="1" stop-color="#C36DEF"/>
    </linearGradient>
    <linearGradient id="b" x1="0" x2="19" y1="16" y2="16" gradientUnits="userSpaceOnUse">
      <stop stop-color="#44176C"/>
      <stop offset="1" stop-color="#621F9C"/>
    </linearGradient>
  </defs>
</svg>
