<svg xmlns="http://www.w3.org/2000/svg" fill="none" viewBox="0 0 32 32">
  <circle cx="15.5" cy="11.5" r="9.5" fill="url(#a)"/>
  <circle cx="24" cy="17" r="8" fill="url(#b)"/>
  <mask id="c" width="13" height="24" x="10" y="6" maskUnits="userSpaceOnUse" style="mask-type:alpha">
    <path fill="#C4C4C4" d="M23 23.5c0 3.5899-2.9101 6.5-6.5 6.5S10 27.0899 10 23.5V6h13v17.5Z"/>
  </mask>
  <g mask="url(#c)">
    <circle cx="16.5" cy="23.5" r="6.5" fill="url(#d)"/>
    <path fill="#000" fill-opacity=".3" d="M7 12c0-1.6569 1.34315-3 3-3h7c1.6569 0 3 1.3431 3 3v12c0 1.6569-1.3431 3-3 3H7V12Z"/>
  </g>
  <rect width="18" height="18" y="7" fill="url(#e)" rx="2"/>
  <path fill="#fff" d="M13 18.1229c0-1.5503-1.0398-2.2346-3.20335-3.0307-1.69392-.6285-2.09644-.8101-2.09644-1.4106 0-.5168.50314-.866 1.35849-.866.87212 0 1.6939.2933 2.6164.7961l.9392-1.662C11.6247 11.3352 10.4507 11 9.02516 11c-2.1803 0-3.74004 1.1173-3.74004 2.8212 0 1.7458 1.24109 2.3045 3.32075 3.0447 1.66033.5866 1.97903.8799 1.97903 1.3967 0 .6145-.587.9218-1.50943.9218-1.09015 0-2.04612-.3771-3.00209-.9917L5 19.7849C6.174 20.595 7.63312 21 9.12579 21 11.3732 21 13 19.9385 13 18.1229Z"/>
  <defs>
    <linearGradient id="a" x1="6" x2="26.5833" y1="11.5" y2="11.5" gradientUnits="userSpaceOnUse">
      <stop stop-color="#103A3B"/>
      <stop offset="1" stop-color="#116B6E"/>
    </linearGradient>
    <linearGradient id="b" x1="18" x2="32" y1="13" y2="21" gradientUnits="userSpaceOnUse">
      <stop stop-color="#1D9097"/>
      <stop offset="1" stop-color="#29BBC2"/>
    </linearGradient>
    <linearGradient id="d" x1="12" x2="23" y1="21.5" y2="26.5" gradientUnits="userSpaceOnUse">
      <stop stop-color="#28A6B5"/>
      <stop offset="1" stop-color="#31D6EC"/>
    </linearGradient>
    <linearGradient id="e" x1="0" x2="19.5" y1="16" y2="16" gradientUnits="userSpaceOnUse">
      <stop stop-color="#105557"/>
      <stop offset="1" stop-color="#116B6E"/>
    </linearGradient>
  </defs>
</svg>
