<svg xmlns="http://www.w3.org/2000/svg" fill="none" viewBox="0 0 32 32">
  <rect width="24" height="28" x="8" y="2" fill="url(#a)" rx="2"/>
  <path fill="url(#b)" d="M8 23h24v5c0 1.1046-.8954 2-2 2H10c-1.10457 0-2-.8954-2-2v-5Z"/>
  <path fill="url(#c)" d="M8 16h24v7H8z"/>
  <path fill="url(#d)" d="M8 9h24v7H8z"/>
  <path fill="#000" fill-opacity=".3" d="M8 12c0-1.6569 1.34315-3 3-3h6c1.6569 0 3 1.3431 3 3v12c0 1.6569-1.3431 3-3 3H8V12Z"/>
  <rect width="18" height="18" y="7" fill="url(#e)" rx="2"/>
  <path fill="#fff" d="M15 11.0142h-1.9477l-1.5294 6.5248L9.84967 11H8.20261l-1.68627 6.539L5 11.0142H3L5.60131 21H7.3268L9 14.6879 10.6732 21h1.7255L15 11.0142Z"/>
  <defs>
    <linearGradient id="a" x1="8" x2="32" y1="6.66667" y2="6.66667" gradientUnits="userSpaceOnUse">
      <stop stop-color="#2B78B1"/>
      <stop offset="1" stop-color="#338ACD"/>
    </linearGradient>
    <linearGradient id="b" x1="8" x2="32" y1="27.375" y2="27.375" gradientUnits="userSpaceOnUse">
      <stop stop-color="#1B366F"/>
      <stop offset="1" stop-color="#2657B0"/>
    </linearGradient>
    <linearGradient id="c" x1="18.5" x2="32" y1="20" y2="20" gradientUnits="userSpaceOnUse">
      <stop stop-color="#20478B"/>
      <stop offset="1" stop-color="#2D6FD1"/>
    </linearGradient>
    <linearGradient id="d" x1="18.5" x2="32" y1="13" y2="13" gradientUnits="userSpaceOnUse">
      <stop stop-color="#215295"/>
      <stop offset="1" stop-color="#2E84D3"/>
    </linearGradient>
    <linearGradient id="e" x1="3e-8" x2="19" y1="17" y2="17" gradientUnits="userSpaceOnUse">
      <stop stop-color="#223E74"/>
      <stop offset="1" stop-color="#215091"/>
    </linearGradient>
  </defs>
</svg>
