<svg xmlns="http://www.w3.org/2000/svg" fill="none" viewBox="0 0 32 32">
  <path fill="url(#a)" d="M16 32c8.8366 0 16-7.1634 16-16 0-8.83656-7.1634-16-16-16C7.16344 0 0 7.16344 0 16c0 8.8366 7.16344 16 16 16Z"/>
  <path fill="#fff" d="M12.9924 10.9685c-.9555.3186-1.7053 1.0684-2.0238 2.0239L7.45498 23.5331c-.20845.6254.38654 1.2204 1.01192 1.0119l10.5407-3.5136c.9555-.3185 1.7053-1.0683 2.0239-2.0238L24.545 8.46691c.2085-.62541-.3865-1.22039-1.0119-1.01192L12.9924 10.9685Z"/>
  <path fill="#158EFF" d="M16 19.2c1.7673 0 3.2-1.4327 3.2-3.2s-1.4327-3.2-3.2-3.2-3.2 1.4327-3.2 3.2 1.4327 3.2 3.2 3.2Z"/>
  <defs>
    <radialGradient id="a" cx="0" cy="0" r="1" gradientTransform="rotate(90.168 8.04685 8.02333194) scale(32.0001)" gradientUnits="userSpaceOnUse">
      <stop stop-color="#38B9FF"/>
      <stop offset="1" stop-color="#0073FF"/>
    </radialGradient>
  </defs>
</svg>
