<svg xmlns="http://www.w3.org/2000/svg" fill="none" viewBox="0 0 32 32">
  <path fill="#8CC84B" d="M17.1725 2.29872c-.7098-.39919-1.6352-.3974-2.3456 0-3.558 1.96355-7.11608 3.92769-10.67474 5.89034-.69247.36429-1.15952 1.10792-1.15207 1.87974v11.864c-.005.7869.48613 1.5377 1.19646 1.897 1.02216.5438 2.01525 1.1428 3.05589 1.6504 1.20207.5907 2.70599.7213 3.92276.1053.9877-.5105 1.4264-1.646 1.4251-2.6895.008-3.9154.0013-7.8309.0031-11.7464.0235-.174-.1072-.36-.297-.3558-.4547-.0072-.91-.0042-1.3647-.0012-.1718-.0162-.3395.1265-.3265.2992-.0061 3.8902.0012 7.7816-.0037 11.6724.0099.5382-.3537 1.0554-.87237 1.2372-1.19793.4199-4.61715-1.8002-4.61715-1.8002-.12548-.0581-.20516-.1942-.19286-.3294 0-3.9142.00061-7.8285 0-11.7421-.01725-.15779.08-.2999.2249-.36432C8.70033 7.8134 12.2448 5.85654 15.7911 3.90336c.1232-.08221.2949-.08196.4178.0006 3.5463 1.95258 7.0914 3.90765 10.6383 5.85972.1454.06432.2385.20882.2237.36602-.0006 3.9136.0012 7.8279-.0012 11.7416.0105.1385-.0611.2727-.1904.3335-3.5132 1.9414-7.0664 3.8202-10.5478 5.818-.1519.0871-.324.1858-.4942.0898-.9155-.5064-1.8199-1.0325-2.7324-1.5438-.0992-.0619-.2255-.0885-.329-.0192-.4091.2156-.7939.3902-1.2637.5762-.6598.2612-.5544.368.0407.7147 1.0671.6039 2.136 1.2054 3.2031 1.8099.7025.4384 1.6464.4696 2.3715.0645 3.5586-1.9611 7.1161-3.9245 10.6754-5.8856.7084-.3613 1.202-1.1091 1.197-1.8966V10.0688c.0069-.75616-.4423-1.48653-1.1139-1.85621-3.5704-1.97312-7.1425-3.94195-10.7135-5.91387Z"/>
  <path fill="#8CC84B" d="M22.5419 11.2062c-1.3967-.7472-3.0583-.787-4.6104-.6893-1.1213.1108-2.3006.4202-3.1175 1.224-.8379.808-1.0203 2.1128-.6223 3.1676.2852.7454 1.0031 1.2301 1.7455 1.4865.9563.3376 1.9607.442 2.9654.5464.9164.0952 1.8331.1905 2.7139.4628.3598.1192.7788.3016.889.6931.1018.4636-.0098 1.0025-.3862 1.3246-1.1956.9463-4.5214.8013-5.7027.0565-.4776-.3173-.6834-.879-.7671-1.4143-.0093-.1668-.1436-.3198-.3247-.3071-.4535-.0054-.907-.0042-1.3605-.0006-.1582-.0133-.3227.0993-.3314.2608-.0932 2.4517 2.1585 3.5205 4.271 3.7558 1.2069.115 2.4403.1084 3.6288-.1506.8934-.2034 1.7892-.578 2.4042-1.2661.7584-.8363.9075-2.0814.5674-3.1231-.26-.7773-1.0031-1.2759-1.7627-1.5324-1.033-.3542-2.2572-.5446-3.1928-.6337-1.3599-.1295-2.9759-.0766-3.3608-.9702-.1535-.4679-.0229-1.0489.4071-1.3367 1.1377-.7717 3.4532-.6692 4.6314-.0927.541.2709.8545.8273.9839 1.389.024.165.135.3372.326.33.4504.009.9008.0024 1.3511.003.1547.0108.3241-.0765.3543-.2349-.0191-1.174-.6186-2.3758-1.6999-2.9484Z"/>
</svg>
