<svg xmlns="http://www.w3.org/2000/svg" fill="none" viewBox="0 0 32 32">
  <path fill="#fff" fill-rule="evenodd" d="m5.716 29.2178-3.43936-4.2847C1.44913 23.9023 1 22.6346 1 21.3299V5.81499c0-1.95435 1.56359-3.57602 3.58071-3.71374L20.5321 1.01218c1.1589-.079118 2.3107.22891 3.2627.87252l5.6044 3.78921C30.4025 6.35219 31 7.46099 31 8.64426V26.2832c0 1.9126-1.5374 3.4961-3.5124 3.6177L9.78333 30.9907c-1.576.097-3.09934-.567-4.06733-1.7729Z" clip-rule="evenodd"/>
  <path fill="#000" d="M11.2481 13.5787v-.2031c0-.5149.4124-.9419.9439-.9774l3.8713-.2585 5.3537 7.8838v-6.9194l-1.378-.1837v-.0964c0-.521.4218-.9508.9601-.9784l3.5225-.1804v.5069c0 .2379-.177.4415-.4195.4825l-.8477.1434v11.2057l-1.0638.3658c-.8888.3057-1.8782-.0215-2.387-.7892l-5.1975-7.8431v7.4858l1.5997.3061-.0222.1484c-.0699.4648-.4712.8164-.9566.838l-3.9789.1771c-.0526-.4999.322-.947.8388-1.0013l.5234-.055v-9.9811l-1.3622-.0765Z"/>
  <path fill="#000" fill-rule="evenodd" d="M20.6749 2.96678 4.72347 4.05585c-.95548.06524-1.69613.8334-1.69613 1.75914V21.3299c0 .8698.29942 1.7149.85109 2.4022l3.43937 4.2846c.55608.6927 1.43119 1.0742 2.33655 1.0185l17.70425-1.0898c.9074-.0559 1.6138-.7835 1.6138-1.6622V8.64426c0-.54367-.2745-1.05311-.7355-1.36475l-5.6044-3.78922c-.5712-.38616-1.2623-.57098-1.9576-.52351ZM5.51447 6.057c-.22186-.16426-.11627-.50645.16243-.52644l15.1053-1.08345c.4813-.03452.9595.09801 1.3487.37377l3.0308 2.14725c.115.08152.0611.2575-.0814.26525l-15.99643.86998c-.4841.02633-.96194-.11589-1.34686-.40086L5.51447 6.057Zm2.8191 4.7737c0-.5197.41984-.94893.9567-.97817L26.203 8.93145c.5233-.02849.9637.37389.9637.88037V25.0853c0 .5187-.4183.9475-.9541.978l-16.80572.9562c-.58228.0332-1.07331-.4143-1.07331-.978V10.8307Z" clip-rule="evenodd"/>
</svg>
