<svg xmlns="http://www.w3.org/2000/svg" fill="none" viewBox="0 0 32 32">
  <g clip-path="url(#a)">
    <path fill="#1A1A1A" d="m21.1655 13.5067 1.7799-.639-4.1007 3.1265-1.5781.4851 3.8989-2.9726Z"/>
    <path fill="#8C8C8C" d="m32 16.7758-1.0007.5195-13.7327-.8161 1.5781-.4851L32 16.7758Z"/>
    <path fill="#1A1A1A" d="m30.9815 18.3731-22.07818.7476 1.78158-.6386 19.9892-.6769.3074.5679Z"/>
    <path fill="#8C8C8C" d="m8.90332 19.1209 1.78158-.6386 3.9038-2.972-1.5786.4841-4.10678 3.1265Z"/>
    <path fill="#1A1A1A" d="m14.5889 15.5098-1.5786.4841L0 15.2123l1.0002-.5189 13.5887.8164Z"/>
    <path fill="#EEE" d="m1.29688 14.1875-.312505.5313 13.593725.7968L10.6562 18.5l20.0313-.7031.2969-.5157-13.7032-.8124 3.875-2.9688-19.85932.6875Z"/>
    <path fill="#8C8C8C" d="m1.01843 13.6152.30728.5679-.32551.5105L0 15.2126l1.01843-1.5974Z"/>
    <path fill="url(#b)" d="m1.01855 13.6152.30729.5679 19.83976-.6764 1.78-.639"/>
    <path fill="#1A1A1A" d="m30.9817 18.3731-.3074-.5679.3251-.5098L32 16.7759"/>
    <path fill="url(#c)" d="M27.8158 18.2419c-.3165 1.8012-1.024 3.5564-2.143 5.1269-3.928 5.5137-11.4604 6.6937-16.79075 2.6306-3.44068-2.6227-5.13572-6.7988-4.84882-10.913l-.5832.3332c-.17686 4.1817 1.59823 8.3754 5.10051 11.045 5.58746 4.259 13.45476 3.0265 17.57206-2.753 1.1482-1.6116 1.8835-3.4065 2.2257-5.2494l-.5325-.2203Z"/>
    <path fill="url(#d)" d="M28.5619 16.5716c.174-4.1787-1.6013-8.36837-5.1012-11.03614-5.5871-4.25912-13.4544-3.02661-17.57184 2.75291C4.7434 9.89624 4.00881 11.6865 3.66553 13.5249l.51572.3166c.30932-1.8304 1.02137-3.6156 2.15755-5.21022 3.9279-5.51366 11.4603-6.69383 16.7905-2.63064 3.4621 2.63907 5.1569 6.85086 4.8433 10.98976l.5893-.4188Z"/>
    <path fill="url(#e)" d="M27.0413 18.309c-.6768 3.4412-2.8406 6.5304-6.1247 8.1761-5.5889 2.801-12.3391.3762-15.04701-5.405-.87928-1.8771-1.22585-3.881-1.10165-5.8271l-.73628-.1539c-.15171 2.1076.21433 4.282 1.16754 6.317 2.88704 6.1637 10.0836 8.7489 16.0423 5.7625 3.5718-1.7899 5.9006-5.1814 6.5715-8.9389l-.7717.0693Z"/>
    <path fill="url(#f)" d="M27.9733 16.9903c.1685-2.1352-.1944-4.3423-1.161-6.4058-2.8869-6.16372-10.0836-8.74881-16.0424-5.76249-3.59719 1.80264-5.93351 5.22989-6.58533 9.01939l.7459.0623c.62838-3.5257 2.81299-6.70858 6.16423-8.38813 5.5893-2.80104 12.3393-.37629 15.0471 5.40493.9018 1.9252 1.2432 3.9836 1.0914 5.9764l.7401.0934Z"/>
    <path fill="url(#g)" d="M27.2357 16.898c.0219-.2963.0331-.5957.0331-.8979 0-6.42411-5.0526-11.65049-11.2633-11.65049-5.5201 0-10.12548 4.12901-11.08118 9.55809l.6611-.4481C6.69838 8.57465 10.9479 4.92757 16.0055 4.92757c5.9025 0 10.7045 4.96721 10.7045 11.07253 0 .2181-.0062.4361-.0184.6537l.5441.2442Z"/>
    <path fill="url(#h)" d="M26.4236 18.5513c-1.1167 4.8797-5.3639 8.5214-10.4178 8.5214-5.9023 0-10.70438-4.9672-10.70438-11.0725 0-.1767.00408-.3524.01201-.5271l-.54777-.2211c-.0153.2491-.02296.4986-.02298.7482 0 6.4242 5.05261 11.6505 11.26312 11.6505 5.4478 0 10.0045-4.0213 11.0418-9.3447l-.624.2453Z"/>
  </g>
  <defs>
    <linearGradient id="b" x1="1.01855" x2="22.9456" y1="13.5254" y2="13.5254" gradientUnits="userSpaceOnUse">
      <stop stop-color="#8C8C8C"/>
      <stop offset="1" stop-color="#4D4D4D"/>
    </linearGradient>
    <linearGradient id="c" x1="3.43803" x2="28.3484" y1="22.0433" y2="22.0433" gradientUnits="userSpaceOnUse">
      <stop offset=".006" stop-color="#1A1A1A"/>
      <stop offset=".01" stop-color="#282828"/>
      <stop offset=".029" stop-color="#5D5D5D"/>
      <stop offset=".046" stop-color="#888"/>
      <stop offset=".062" stop-color="#A6A6A6"/>
      <stop offset=".075" stop-color="#B9B9B9"/>
      <stop offset=".084" stop-color="#BFBFBF"/>
      <stop offset=".143" stop-color="#999"/>
      <stop offset=".208" stop-color="#777"/>
      <stop offset=".28" stop-color="#5A5A5A"/>
      <stop offset=".359" stop-color="#424242"/>
      <stop offset=".449" stop-color="#303030"/>
      <stop offset=".556" stop-color="#232323"/>
      <stop offset=".696" stop-color="#1C1C1C"/>
      <stop offset="1" stop-color="#1A1A1A"/>
    </linearGradient>
    <linearGradient id="d" x1="3.66541" x2="28.5736" y1="9.9952" y2="9.9952" gradientUnits="userSpaceOnUse">
      <stop stop-color="#E0E0E0"/>
      <stop offset=".116" stop-color="#DBDBDB"/>
      <stop offset=".26" stop-color="#CCC"/>
      <stop offset=".42" stop-color="#B2B2B2"/>
      <stop offset=".59" stop-color="#8F8F8F"/>
      <stop offset=".767" stop-color="#626262"/>
      <stop offset=".843" stop-color="#4D4D4D"/>
      <stop offset="1" stop-color="#1A1A1A"/>
    </linearGradient>
    <linearGradient id="e" x1="3.99849" x2="27.8129" y1="21.7598" y2="21.7598" gradientUnits="userSpaceOnUse">
      <stop stop-color="#ECECEC"/>
      <stop offset=".001" stop-color="#DBDBDB"/>
      <stop offset=".002" stop-color="#D0D0D0"/>
      <stop offset=".003" stop-color="#C9C9C9"/>
      <stop offset=".006" stop-color="#C7C7C7"/>
      <stop offset=".179" stop-color="#C9C9C9"/>
      <stop offset=".28" stop-color="#D2D2D2"/>
      <stop offset=".362" stop-color="#E0E0E0"/>
      <stop offset=".434" stop-color="#F4F4F4"/>
      <stop offset=".466" stop-color="#fff"/>
      <stop offset=".642" stop-color="#FDFDFD"/>
      <stop offset=".734" stop-color="#F5F5F5"/>
      <stop offset=".807" stop-color="#E7E7E7"/>
      <stop offset=".869" stop-color="#D4D4D4"/>
      <stop offset=".925" stop-color="#BCBCBC"/>
      <stop offset=".976" stop-color="#9D9D9D"/>
      <stop offset="1" stop-color="#8C8C8C"/>
    </linearGradient>
    <linearGradient id="f" x1="7.10602" x2="28.2391" y1="6.52452" y2="16.4229" gradientUnits="userSpaceOnUse">
      <stop offset=".006" stop-color="#C7C7C7"/>
      <stop offset=".025" stop-color="#D2D2D2"/>
      <stop offset=".055" stop-color="#DDD"/>
      <stop offset=".09" stop-color="#E0E0E0"/>
      <stop offset=".098" stop-color="#E9E9E9"/>
      <stop offset=".117" stop-color="#F6F6F6"/>
      <stop offset=".142" stop-color="#FDFDFD"/>
      <stop offset=".197" stop-color="#fff"/>
      <stop offset=".714" stop-color="#8C8C8C"/>
      <stop offset="1" stop-color="#8C8C8C"/>
    </linearGradient>
    <linearGradient id="g" x1="27.2688" x2="4.92432" y1="10.6238" y2="10.6238" gradientUnits="userSpaceOnUse">
      <stop stop-color="#E0E0E0"/>
      <stop offset=".001" stop-color="#E0E0E0"/>
      <stop offset=".006" stop-color="#E0E0E0"/>
      <stop offset=".183" stop-color="#C2C2C2"/>
      <stop offset=".57" stop-color="#757575"/>
      <stop offset="1" stop-color="#1A1A1A"/>
    </linearGradient>
    <linearGradient id="h" x1="27.0476" x2="4.74268" y1="21.4512" y2="21.4512" gradientUnits="userSpaceOnUse">
      <stop stop-color="#1A1A1A"/>
      <stop offset=".017" stop-color="#303030"/>
      <stop offset=".061" stop-color="#656565"/>
      <stop offset=".104" stop-color="#929292"/>
      <stop offset=".146" stop-color="#B4B4B4"/>
      <stop offset=".185" stop-color="#CCC"/>
      <stop offset=".221" stop-color="#DBDBDB"/>
      <stop offset=".25" stop-color="#E0E0E0"/>
      <stop offset=".36" stop-color="#DDD"/>
      <stop offset=".467" stop-color="#D1D1D1"/>
      <stop offset=".572" stop-color="#BDBDBD"/>
      <stop offset=".677" stop-color="#A2A2A2"/>
      <stop offset=".781" stop-color="#7E7E7E"/>
      <stop offset=".885" stop-color="#535353"/>
      <stop offset=".987" stop-color="#212121"/>
      <stop offset="1" stop-color="#1A1A1A"/>
    </linearGradient>
    <clipPath id="a">
      <path fill="#fff" d="M0 0h32v32H0z"/>
    </clipPath>
  </defs>
</svg>
