<svg xmlns="http://www.w3.org/2000/svg" fill="none" viewBox="0 0 48 48">
  <circle cx="24" cy="24" r="20" fill="#0070BA"/>
  <path fill="#fff" fill-opacity=".6" d="M32.3305 18.0977c-.0223.1423-.0477.2879-.0763.4374-.9838 5.051-4.3496 6.7959-8.6482 6.7959h-2.1887c-.5257 0-.9687.3817-1.0506.9003l-1.1206 7.1068-.3173 2.0146c-.0533.3403.2091.6473.5527.6473h3.8819c.4597 0 .8502-.334.9226-.7873l.0381-.1973.7309-4.6382.0469-.2545c.0716-.4549.4629-.7889.9226-.7889h.5806c3.761 0 6.7052-1.527 7.5657-5.9458.3595-1.8459.1734-3.3872-.7778-4.4712-.2879-.3268-.645-.598-1.0625-.8191Z"/>
  <path fill="#fff" fill-opacity=".8" d="M31.3009 17.6871c-.1503-.0437-.3054-.0835-.4645-.1193-.1598-.035-.3237-.066-.4923-.093-.5901-.0955-1.2367-.1408-1.9294-.1408h-5.8471c-.1439 0-.2807.0326-.4032.0914-.2696.1297-.47.385-.5185.6975l-1.2439 7.8784-.0358.2298c.0819-.5185.5249-.9003 1.0506-.9003h2.1887c4.2986 0 7.6644-1.7457 8.6482-6.7959.0294-.1495.0541-.2951.0763-.4374-.2489-.132-.5185-.245-.8088-.3412-.0716-.0239-.1455-.0469-.2203-.0692Z"/>
  <path fill="#fff" d="M21.6461 18.1231c.0485-.3126.2489-.5679.5185-.6967.1233-.0589.2593-.0915.4032-.0915h5.8471c.6928 0 1.3393.0454 1.9295.1408.1686.027.3324.0581.4923.093.159.0358.3141.0756.4644.1193.0748.0223.1487.0454.2211.0684.2903.0963.5599.21.8088.3412.2927-1.8666-.0023-3.1375-1.0116-4.2883C30.2068 12.5424 28.1986 12 25.629 12h-7.46c-.5249 0-.9727.3817-1.0538.9011l-3.1073 19.6958c-.0612.3897.2394.7412.6323.7412h4.6056l1.1564-7.3367 1.2439-7.8783Z"/>
</svg>
