<svg xmlns="http://www.w3.org/2000/svg" fill="none" viewBox="0 0 34 32">
  <path fill="url(#a)" d="M1.02744 7.27271c-.179045 3.11659.38792 6.21539 1.64525 9.29649 1.25733 3.081 3.09401 5.8296 5.51004 8.2456 2.41607 2.416 5.16457 4.2527 8.24557 5.51 3.0812 1.2574 6.1799 1.807 9.2966 1.6486l-.112-7.0382c-4.7056 0-8.7222-1.6637-12.0496-4.9911-3.3273-3.3274-4.99105-7.3439-4.99105-12.04953l-7.54481-.62186Z"/>
  <path fill="url(#b)" d="M25.7298 31.9999c4.0166 0 7.2727-3.2561 7.2727-7.2727s-3.2561-7.2727-7.2727-7.2727c-4.0167 0-7.2728 3.2561-7.2728 7.2727s3.2561 7.2727 7.2728 7.2727Z"/>
  <path fill="url(#c)" d="M8.27468 14.5455c4.01662 0 7.27272-3.2562 7.27272-7.27277C15.5474 3.25611 12.2913 0 8.27468 0S1.00195 3.25611 1.00195 7.27273c0 4.01657 3.25611 7.27277 7.27273 7.27277Z"/>
  <defs>
    <radialGradient id="b" cx="0" cy="0" r="1" gradientTransform="rotate(78.477 -.91338468 24.63485838) scale(11.6255)" gradientUnits="userSpaceOnUse">
      <stop stop-color="#00EE7A"/>
      <stop offset="1" stop-color="#00C853"/>
    </radialGradient>
    <radialGradient id="c" cx="0" cy="0" r="1" gradientTransform="rotate(78.477 1.04506603 5.22126809) scale(11.6255)" gradientUnits="userSpaceOnUse">
      <stop stop-color="#00EE7A"/>
      <stop offset="1" stop-color="#00C853"/>
    </radialGradient>
    <linearGradient id="a" x1="13.36" x2="13.36" y1="7.27271" y2="31.9999" gradientUnits="userSpaceOnUse">
      <stop stop-color="#00EE7A"/>
      <stop offset="1" stop-color="#00C853"/>
    </linearGradient>
  </defs>
</svg>
