<svg xmlns="http://www.w3.org/2000/svg" fill="none" viewBox="0 0 32 32">
  <circle cx="16" cy="16" r="14" fill="#8892BF"/>
  <path fill="#fff" d="M14.4392 10h1.68l-.4748 2.5242h1.5096c.8279.0177 1.4446.2027 1.8505.5551.4139.3523.5357 1.0221.3653 2.0088l-.8157 4.4008h-1.7044l.7791-4.2026c.0811-.4406.0568-.7533-.073-.9383-.1298-.185-.4098-.2775-.84-.2775l-1.3514-.0132-.9983 5.4316h-1.68L14.4392 10Z"/>
  <path fill="#fff" fill-rule="evenodd" d="M6.74092 12.5243h3.26268c.9576.0087 1.6516.3084 2.0818.8986.4302.5903.5722 1.3964.4261 2.4185-.0567.4671-.1826.9251-.3774 1.3745-.1867.4493-.4463.8545-.7791 1.2158-.4059.4581-.8401.7488-1.3027.8723-.46261.1234-.94154.185-1.43655.185H7.15484L6.69222 22H5l1.74092-9.4757Zm.69393 5.4713.72802-3.9515h.24592c.08936 0 .18261-.0045.28001-.0132.64937-.0088 1.18894.0573 1.6192.1982.4382.1409.5843.674.4382 1.5991-.1784 1.1014-.5276 1.7445-1.04694 1.9295-.51936.1763-1.16873.2599-1.94788.2511h-.17044c-.0487 0-.09739-.0045-.14609-.0132Zm17.00165-5.4713h-3.2627L19.4329 22h1.6922l.4627-2.511h1.4609c.495 0 .9739-.0616 1.4365-.185.4627-.1235.8968-.4142 1.3027-.8723.3328-.3613.5924-.7665.7791-1.2158.1948-.4494.3207-.9074.3774-1.3745.1461-1.0221.0042-1.8282-.4261-2.4185-.4302-.5902-1.1241-.8899-2.0818-.8986Zm-1.8407 1.5198-.728 3.9515c.0487.0087.0974.0132.1461.0132h.1704c.7792.0088 1.4285-.0748 1.9479-.2511.5193-.185.8685-.8281 1.047-1.9295.1461-.9251 0-1.4582-.4383-1.5991-.4302-.1409-.9698-.207-1.6192-.1982-.0974.0087-.1906.0132-.28.0132h-.2459Z" clip-rule="evenodd"/>
</svg>
