<svg xmlns="http://www.w3.org/2000/svg" fill="none" viewBox="0 0 32 32">
  <circle cx="16" cy="16" r="14" fill="#fff"/>
  <path fill="#BB0F23" d="M16 30c7.732 0 14-6.268 14-14 0-7.73199-6.268-14-14-14C8.26801 2 2 8.26801 2 16c0 5.6801 3.38269 10.5702 8.2435 12.7655.0065-.1514.0138-.2903.0201-.4094.0086-.1623.0152-.2879.0152-.3585 0-.4207.2861-2.5072.2861-2.5072l1.75-7.1851c-.2692-.4375-.4711-1.363-.4711-2.0697 0-3.2645 1.8173-3.9712 2.9278-3.9712 1.4135 0 1.7332 1.5313 1.7332 2.6587 0 .5963-.3093 1.5297-.6276 2.4903-.3374 1.018-.6849 2.0665-.6849 2.7765 0 1.3798 1.363 2.0697 2.3053 2.0697 2.4904 0 4.7788-3.1298 4.7788-6.2596s-1.4639-6.91588-6.2596-6.91588c-4.7956 0-6.94949 3.65148-6.94949 6.44468 0 1.8846.70673 3.2645 1.06009 3.5.101.0898.2726.3669.1514.7572-.1211.3904-.3421 1.2621-.43745 1.6491-.01122.0897-.11779.2423-.45433.1346-.42067-.1346-3.09615-1.8173-3.09615-6.0409 0-4.2235 3.3149-9.13698 9.72593-9.13698 6.4111 0 9.6923 4.30768 9.6923 9.60818s-4.2908 8.6827-7.5553 8.6827c-2.6115 0-3.6346-1.1667-3.8197-1.75l-.9928 3.786c-.2344.6281-.6717 1.757-1.2109 2.7396C13.3594 29.8111 14.6576 30 16 30Z"/>
</svg>
