<svg xmlns="http://www.w3.org/2000/svg" fill="none" viewBox="0 0 32 32">
  <path fill="#0070D1" d="M.69116 21.9548c-1.197636.8387-.975884 2.2836 1.75653 3.1871 2.73242.9036 5.90834 1.0904 8.70281.5871-.0798 0 .1597 0 0 0v-2.8516L8.43588 23.8c-1.03796.3355-2.07591.4194-3.11386.1677-.79842-.2516-.63874-.7548.31937-1.1742l5.50911-2.0129v-3.1032l-7.66485 2.7678c-.95811.3354-1.91622.8387-2.79449 1.5096ZM19.2146 9.37419v8.13551c3.2735 1.6774 5.8285 0 5.8285-4.3613 0-4.44517-1.517-6.45808-5.9083-8.05163C16.8193 4.25806 14.4241 3.50323 12.0288 3v24.2387L17.6178 29V8.61935c0-.92258 0-1.59354.6387-1.34193.8783.25161.9581 1.17419.9581 2.09677ZM29.5941 20.0258c-2.3154-.8387-4.7905-1.1742-7.1858-.9226-1.3304.0874-2.5789.4837-3.8324.9226v3.271l5.1897-2.0129c1.038-.3355 2.0759-.4194 3.1139-.1678.7984.2516.6387.7549-.3194 1.1742l-7.9842 3.1032v3.1871l11.0182-4.2774c.7984-.3355 1.517-.7548 2.1558-1.4258.5589-.8387.3193-2.0129-2.1558-2.8516Z"/>
</svg>
