<svg xmlns="http://www.w3.org/2000/svg" fill="none" viewBox="0 0 32 32">
  <path fill="#53C1DE" d="M18.6789 15.9759c0-1.4344-1.1993-2.5974-2.6789-2.5974-1.4794 0-2.6789 1.163-2.6789 2.5974 0 1.4346 1.1995 2.5975 2.6789 2.5975 1.4796 0 2.6789-1.1629 2.6789-2.5975Z"/>
  <path fill="#53C1DE" fill-rule="evenodd" d="M24.7004 11.1537c.5657-2.22892 1.2768-6.36222-1.23-7.76354-2.4951-1.39521-5.742 1.27827-7.4565 2.88302-1.7095-1.58876-5.0476-4.25081-7.55227-2.84504C5.96751 4.82803 6.73664 8.8928 7.3149 11.1357 4.98831 11.7764 1 13.1564 1 15.9759c0 2.8115 3.98416 4.3129 6.29698 4.953-.5804 2.2553-1.31102 6.262 1.18629 7.6588 2.51403 1.4055 5.84173-1.1932 7.57213-2.8155 1.7255 1.6142 4.9412 4.2299 7.4368 2.8292 2.5034-1.4051 1.8514-5.483 1.2731-7.7389C27.0073 20.221 31 18.7523 31 15.9759c0-2.7924-4.0097-4.1836-6.2996-4.8222Zm-.2842 8.5133c-.3797-1.1654-.8922-2.4047-1.5191-3.6849.5984-1.25 1.091-2.4733 1.4601-3.6312 1.6787.4719 5.3613 1.5504 5.3613 3.625 0 2.0941-3.5339 3.1828-5.3023 3.6911ZM22.85 27.526c-1.862 1.045-4.6279-1.4564-5.9022-2.6451.8454-.8965 1.6902-1.9387 2.5147-3.096 1.4504-.1247 2.8205-.3287 4.0631-.6072.407 1.5957 1.1946 5.2986-.6756 6.3483Zm-13.72638-.0149c-1.86219-1.0411-1.01104-4.6165-.58405-6.2778 1.22877.2636 2.58903.4532 4.04283.5675.8299 1.1324 1.6992 2.1733 2.5752 3.0849-1.0823 1.0151-4.1631 3.6713-6.03398 2.6254ZM2.28149 15.9759c0-2.1019 3.66058-3.1726 5.37755-3.6433.37547 1.1839.86791 2.4218 1.46219 3.6736-.60198 1.2704-1.10146 2.5279-1.48038 3.7258-1.63716-.4544-5.35936-1.6529-5.35936-3.7561ZM9.1037 4.50354c1.8698-1.04938 4.771 1.50629 6.0122 2.65659-.8715.90741-1.7328 1.94047-2.5556 3.06637-1.4109.1268-2.76155.3304-4.00321.6032-.46584-1.80899-1.32117-5.27791.54661-6.32616Zm11.2756 7.07356c.9572.1171 1.8743.2729 2.7354.4635-.2585.8034-.5807 1.6435-.9602 2.5047-.5501-1.012-1.1406-2.0037-1.7752-2.9682Zm-4.365-3.529c.5911.62087 1.1831 1.3142 1.7655 2.0664-1.1813-.0542-2.3645-.0544-3.5458-.0008.5829-.74522 1.18-1.43752 1.7803-2.0656Zm-6.1578 6.4963c-.37321-.8582-.69252-1.702-.95328-2.5169.85596-.1857 1.76878-.3375 2.71978-.4527-.6364.9624-1.2259 1.9537-1.7665 2.9696Zm1.7938 5.9213c-.9824-.1063-1.90904-.2504-2.76474-.431.26488-.8292.59122-1.6912.9724-2.5679.54804 1.0265 1.14654 2.0274 1.79234 2.9989Zm4.3995 3.5258c-.6074-.6355-1.2133-1.3384-1.805-2.0944 1.188.0452 2.3783.0453 3.5662-.0061-.5842.7698-1.1741 1.4737-1.7612 2.1005Zm6.1169-6.5693c.401.8862.739 1.7435 1.0075 2.5587-.8699.1925-1.809.3475-2.7985.4626.6393-.9828 1.2392-1.9899 1.791-3.0213Zm-3.4194 3.1719c-1.8172.1259-3.6457.1245-5.4635.0103-1.0329-1.4629-1.9524-3.0014-2.7461-4.5986.7899-1.5939 1.7027-3.1294 2.7307-4.59 1.8191-.1333 3.6494-.1337 5.4685.0008 1.0192 1.4605 1.9306 2.992 2.7388 4.5715-.7986 1.5931-1.7162 3.1317-2.7284 4.606Zm4.083-16.1275c1.8703 1.04594 1.0378 4.76066.6292 6.376-1.2446-.2785-2.5962-.4857-4.0112-.6145-.8244-1.13806-1.6785-2.17292-2.5359-3.06861 1.2571-1.17508 4.0657-3.7286 5.9179-2.69289Z" clip-rule="evenodd"/>
</svg>
