<svg xmlns="http://www.w3.org/2000/svg" fill="none" viewBox="0 0 32 32">
  <path fill="#FC471E" d="M16 2C8.27812 2 2 8.27812 2 16c0 7.7219 6.27812 14 14 14 7.7219 0 14-6.2781 14-14 0-7.72188-6.2781-14-14-14Z"/>
  <path fill="#fff" fill-rule="evenodd" d="M20.0193 8.90951c-.0127.08033-.0193.16275-.0193.24675 0 .84804.6716 1.53554 1.5 1.53554s1.5-.6875 1.5-1.53554c0-.84807-.6716-1.53556-1.5-1.53556-.3691 0-.7071.1365-.9685.36289L16.6362 7l-1.4079 5.7651c-1.8729.1262-3.5573.7068-4.828 1.5834-.3608-.3622-.85506-.5856-1.4003-.5856-1.10457 0-2 .9167-2 2.0474 0 .787.43366 1.4702 1.06967 1.8129-.04595.2442-.06967.4934-.06967.7464C8 21.4792 11.5817 24 16 24s8-2.5208 8-5.6304c0-.253-.0237-.5022-.0697-.7464.636-.3427 1.0697-1.0259 1.0697-1.8129 0-1.1307-.8954-2.0474-2-2.0474-.5452 0-1.0395.2234-1.4003.5856-1.3844-.955-3.2598-1.5588-5.335-1.6062l1.0991-4.50087 2.6555.66808ZM12.5 18.8815c.8284 0 1.5-.6875 1.5-1.5356 0-.8481-.6716-1.5356-1.5-1.5356s-1.5.6875-1.5 1.5356c0 .8481.6716 1.5356 1.5 1.5356Zm7 0c.8284 0 1.5-.6875 1.5-1.5356 0-.8481-.6716-1.5356-1.5-1.5356s-1.5.6875-1.5 1.5356c0 .8481.6716 1.5356 1.5 1.5356Zm-6.7227 1.6215c-.2297-.1568-.5401-.0933-.6933.1419-.1532.2353-.0911.5531.1386.7099 1.0881.7425 2.4328 1.1138 3.7774 1.1138 1.3446 0 2.6893-.3713 3.7773-1.1138.2298-.1568.2919-.4746.1387-.7099-.1532-.2352-.4636-.2987-.6934-.1419-.9201.6279-2.0713.9419-3.2226.9419-.6827 0-1.3655-.1104-2-.3312-.4354-.1516-.8482-.3552-1.2227-.6107Z" clip-rule="evenodd"/>
</svg>
