<svg xmlns="http://www.w3.org/2000/svg" fill="none" viewBox="0 0 32 32">
  <path fill="#764ABC" d="M21.7868 21.556c1.1071-.1127 1.947-1.051 1.9088-2.1771-.0381-1.1259-.9926-2.0267-2.1379-2.0267h-.0763c-1.1836.0375-2.0997 1.0134-2.0615 2.1769.0382.563.2672 1.0509.6108 1.3887-1.298 2.5148-3.2832 4.3539-6.2609 5.8928-2.0234 1.0509-4.123 1.4263-6.22265 1.1636-1.71797-.2252-3.05414-.9758-3.89414-2.2146-1.22157-1.8391-1.33606-3.8284-.30528-5.8176.72539-1.4263 1.87055-2.4773 2.59594-3.0028-.15269-.4879-.3818-1.3136-.49629-1.9141-5.5355844 3.941-4.962889 9.2708-3.28312 11.7855 1.25976 1.8767 3.81761 3.0403 6.64265 3.0403.76348 0 1.52699-.0752 2.29059-.2627 4.8866-.9384 8.5897-3.791 10.6893-8.0322Zm6.7191-4.6542c-2.9014-3.3405-7.1772-5.1796-12.0638-5.1796h-.6107c-.3436-.6756-1.069-1.1261-1.8707-1.1261h-.0764c-1.1834.0376-2.0995 1.0134-2.0614 2.177.0382 1.126.9925 2.0268 2.1378 2.0268h.0763c.8399-.0375 1.5653-.563 1.8707-1.2762h.6871c2.9015 0 5.6501.8257 8.1317 2.4397 1.9087 1.2386 3.2831 2.8526 4.0466 4.8043.649 1.5764.6108 3.1153-.0764 4.429-1.0689 1.9892-2.8631 3.0777-5.2301 3.0777-1.5271 0-2.9777-.4504-3.7413-.7882-.4199.3753-1.1835.9758-1.718 1.3513 1.6417.7506 3.3214 1.1635 4.9248 1.1635 3.6649 0 6.3755-1.9894 7.4063-3.9786 1.107-2.177 1.0306-5.9303-1.8325-9.1206ZM9.1123 22.1939c.03821 1.126.9926 2.0267 2.1379 2.0267h.0764c1.1834-.0374 2.0996-1.0133 2.0614-2.1768-.0381-1.1261-.9926-2.0268-2.1378-2.0268h-.0763c-.0764 0-.191 0-.2672.0374-1.5653-2.5522-2.21428-5.3296-1.98518-8.3323.15258-2.25204.91617-4.20382 2.25238-5.8178 1.107-1.38875 3.2449-2.06434 4.6957-2.10178 4.0466-.07512 5.7644 4.87927 5.879 6.86858.4963.1126 1.3362.3754 1.9089.5631-.4582-6.08038-4.2758-9.23322-7.9406-9.23322-3.436 0-6.6046 2.43969-7.86448 6.04289-1.75605 4.80423-.61078 9.42083 1.52707 13.06163-.19078.2627-.30539.6756-.26719 1.0885v-.0001Z"/>
</svg>
