<svg xmlns="http://www.w3.org/2000/svg" fill="none" viewBox="0 0 32 32">
  <path fill="url(#a)" fill-rule="evenodd" d="M22.5941 19.8407 8.8916 27.9998l17.7422-1.2073 1.3665-17.93996-5.4062 10.98816Z" clip-rule="evenodd"/>
  <path fill="url(#b)" fill-rule="evenodd" d="m26.6631 26.7806-1.525-10.5545-4.1537 5.5001 5.6787 5.0544Z" clip-rule="evenodd"/>
  <path fill="url(#c)" fill-rule="evenodd" d="m26.6836 26.7803-11.1719-.8794-6.56053 2.076 17.73243-1.1966Z" clip-rule="evenodd"/>
  <path fill="url(#d)" fill-rule="evenodd" d="m8.96674 27.9796 2.79086-9.1686-6.14139 1.3169 3.35053 7.8517Z" clip-rule="evenodd"/>
  <path fill="url(#e)" fill-rule="evenodd" d="m27.4176 11.8117-6.947-5.68963-1.9345 6.27153 8.8815-.5819Z" clip-rule="evenodd"/>
  <path fill="url(#f)" fill-rule="evenodd" d="m24.1684 4.09336-4.0858 2.26419-2.5777-2.29456 6.6635.03037Z" clip-rule="evenodd"/>
  <path fill="url(#g)" fill-rule="evenodd" d="m4 23.2031 1.7116-3.1302-1.38454-3.7291L4 23.2031Z" clip-rule="evenodd"/>
  <path fill="#fff" fill-rule="evenodd" d="m4.23535 16.2259 1.39303 3.9624 6.05302-1.3618 6.9106-6.4403 1.9502-6.21189L17.4714 4l-5.2208 1.95931C10.6057 7.49347 7.41387 10.529 7.29879 10.5861c-.11386.0583-2.1077 3.8372-3.06344 5.6398Z" clip-rule="evenodd"/>
  <path fill="url(#h)" d="m11.7227 18.7882 6.8693-6.4019.0031-.0098 2.3881 9.3801-9.2605-2.9684Z"/>
  <path fill="url(#i)" fill-rule="evenodd" d="M9.12619 9.10774C12.6911 5.56325 17.2869 3.46911 19.0506 5.2535c1.7626 1.78439-.1066 6.1209-3.6715 9.6641-3.565 3.5433-8.10382 5.7529-9.8663 3.9685-1.76369-1.7832.04846-6.2351 3.61339-9.77836Z" clip-rule="evenodd"/>
  <path fill="url(#j)" fill-rule="evenodd" d="m8.9668 27.9755 2.7691-9.1977 9.1964 2.9627c-3.3251 3.1266-7.0233 5.7698-11.9655 6.235Z" clip-rule="evenodd"/>
  <path fill="url(#k)" fill-rule="evenodd" d="m18.6035 12.3679 2.3609 9.3775c2.7776-2.9287 5.2705-6.0772 6.4914-9.9715l-8.8523.594Z" clip-rule="evenodd"/>
  <path fill="url(#l)" fill-rule="evenodd" d="M27.4317 11.8217c.9448-2.85941 1.1628-6.96145-3.2925-7.72307l-3.6558 2.02491 6.9483 5.69816Z" clip-rule="evenodd"/>
  <path fill="#9E1209" fill-rule="evenodd" d="M4 23.162c.13082 4.7192 3.52617 4.7895 4.97249 4.8309l-3.34083-7.824L4 23.162Z" clip-rule="evenodd"/>
  <path fill="url(#m)" fill-rule="evenodd" d="M18.6172 12.3826c2.1343 1.3155 6.4359 3.9575 6.5231 4.0061.1355.0765 1.8545-2.9068 2.2446-4.5928l-8.7677.5867Z" clip-rule="evenodd"/>
  <path fill="url(#n)" fill-rule="evenodd" d="m11.7324 18.7778 3.7018 7.1619c2.1889-1.1904 3.9029-2.6408 5.4728-4.1944l-9.1746-2.9675Z" clip-rule="evenodd"/>
  <path fill="url(#o)" fill-rule="evenodd" d="m5.61728 20.1783-.52451 6.263c.98966 1.3556 2.35119 1.4734 3.77934 1.3678-1.03326-2.5788-3.09736-7.7352-3.25483-7.6308Z" clip-rule="evenodd"/>
  <path fill="url(#p)" fill-rule="evenodd" d="m20.4619 6.1393 7.354 1.03492c-.3925-1.66778-1.5978-2.744-3.6522-3.08047L20.4619 6.1393Z" clip-rule="evenodd"/>
  <defs>
    <linearGradient id="a" x1="25.0863" x2="20.0019" y1="30.1825" y2="21.2307" gradientUnits="userSpaceOnUse">
      <stop stop-color="#FB7655"/>
      <stop offset=".41" stop-color="#E42B1E"/>
      <stop offset=".99" stop-color="#900"/>
      <stop offset="1" stop-color="#900"/>
    </linearGradient>
    <linearGradient id="b" x1="27.6086" x2="21.0723" y1="22.6528" y2="18.2786" gradientUnits="userSpaceOnUse">
      <stop stop-color="#871101"/>
      <stop offset=".99" stop-color="#911209"/>
      <stop offset="1" stop-color="#911209"/>
    </linearGradient>
    <linearGradient id="c" x1="22.3878" x2="15.8517" y1="30.4542" y2="26.0802" gradientUnits="userSpaceOnUse">
      <stop stop-color="#871101"/>
      <stop offset=".99" stop-color="#911209"/>
      <stop offset="1" stop-color="#911209"/>
    </linearGradient>
    <linearGradient id="d" x1="8.68769" x2="9.70472" y1="19.4743" y2="26.0657" gradientUnits="userSpaceOnUse">
      <stop stop-color="#fff"/>
      <stop offset=".23" stop-color="#E57252"/>
      <stop offset=".46" stop-color="#DE3B20"/>
      <stop offset=".99" stop-color="#A60003"/>
      <stop offset="1" stop-color="#A60003"/>
    </linearGradient>
    <linearGradient id="e" x1="21.8192" x2="22.9409" y1="7.10002" y2="11.9204" gradientUnits="userSpaceOnUse">
      <stop stop-color="#fff"/>
      <stop offset=".18" stop-color="#E46342"/>
      <stop offset=".4" stop-color="#C82410"/>
      <stop offset=".99" stop-color="#A80D00"/>
      <stop offset="1" stop-color="#A80D00"/>
    </linearGradient>
    <linearGradient id="f" x1="18.4117" x2="23.2251" y1="5.40177" y2="3.00175" gradientUnits="userSpaceOnUse">
      <stop stop-color="#fff"/>
      <stop offset=".54" stop-color="#C81F11"/>
      <stop offset=".99" stop-color="#BF0905"/>
      <stop offset="1" stop-color="#BF0905"/>
    </linearGradient>
    <linearGradient id="g" x1="4.47282" x2="4.87073" y1="17.7935" y2="21.7663" gradientUnits="userSpaceOnUse">
      <stop stop-color="#fff"/>
      <stop offset=".31" stop-color="#DE4024"/>
      <stop offset=".99" stop-color="#BF190B"/>
      <stop offset="1" stop-color="#BF190B"/>
    </linearGradient>
    <linearGradient id="h" x1="15.6452" x2="16.02" y1="13.3187" y2="20.0464" gradientUnits="userSpaceOnUse">
      <stop stop-color="#fff"/>
      <stop offset=".23" stop-color="#E4714E"/>
      <stop offset=".56" stop-color="#BE1A0D"/>
      <stop offset=".99" stop-color="#A80D00"/>
      <stop offset="1" stop-color="#A80D00"/>
    </linearGradient>
    <linearGradient id="i" x1="1.75216" x2="20.4078" y1="22.8404" y2="3.71053" gradientUnits="userSpaceOnUse">
      <stop stop-color="#BD0012"/>
      <stop offset=".07" stop-color="#fff"/>
      <stop offset=".17" stop-color="#fff"/>
      <stop offset=".27" stop-color="#C82F1C"/>
      <stop offset=".33" stop-color="#820C01"/>
      <stop offset=".46" stop-color="#A31601"/>
      <stop offset=".72" stop-color="#B31301"/>
      <stop offset=".99" stop-color="#E82609"/>
      <stop offset="1" stop-color="#E82609"/>
    </linearGradient>
    <linearGradient id="j" x1="16.0015" x2="10.3965" y1="24.7752" y2="23.3957" gradientUnits="userSpaceOnUse">
      <stop stop-color="#8C0C01"/>
      <stop offset=".54" stop-color="#990C00"/>
      <stop offset=".99" stop-color="#A80D0E"/>
      <stop offset="1" stop-color="#A80D0E"/>
    </linearGradient>
    <linearGradient id="k" x1="25.6251" x2="20.635" y1="18.0314" y2="13.5714" gradientUnits="userSpaceOnUse">
      <stop stop-color="#7E110B"/>
      <stop offset=".99" stop-color="#9E0C00"/>
      <stop offset="1" stop-color="#9E0C00"/>
    </linearGradient>
    <linearGradient id="l" x1="27.4539" x2="24.9671" y1="9.82314" y2="7.17189" gradientUnits="userSpaceOnUse">
      <stop stop-color="#79130D"/>
      <stop offset=".99" stop-color="#9E120B"/>
      <stop offset="1" stop-color="#9E120B"/>
    </linearGradient>
    <linearGradient id="o" x1="7.23075" x2="5.19975" y1="27.9701" y2="21.0987" gradientUnits="userSpaceOnUse">
      <stop stop-color="#8B2114"/>
      <stop offset=".43" stop-color="#9E100A"/>
      <stop offset=".99" stop-color="#B3100C"/>
      <stop offset="1" stop-color="#B3100C"/>
    </linearGradient>
    <linearGradient id="p" x1="22.7321" x2="27.2663" y1="5.19037" y2="7.18628" gradientUnits="userSpaceOnUse">
      <stop stop-color="#B31000"/>
      <stop offset=".44" stop-color="#910F08"/>
      <stop offset=".99" stop-color="#791C12"/>
      <stop offset="1" stop-color="#791C12"/>
    </linearGradient>
    <radialGradient id="m" cx="0" cy="0" r="1" gradientTransform="matrix(6.09995 0 0 6.11692 21.4229 13.6432)" gradientUnits="userSpaceOnUse">
      <stop stop-color="#A80D00"/>
      <stop offset=".99" stop-color="#7E0E08"/>
      <stop offset="1" stop-color="#7E0E08"/>
    </radialGradient>
    <radialGradient id="n" cx="0" cy="0" r="1" gradientTransform="matrix(8.10906 0 0 8.13164 12.9755 21.7042)" gradientUnits="userSpaceOnUse">
      <stop stop-color="#A30C00"/>
      <stop offset=".99" stop-color="#800E08"/>
      <stop offset="1" stop-color="#800E08"/>
    </radialGradient>
  </defs>
</svg>
