<svg xmlns="http://www.w3.org/2000/svg" fill="none" viewBox="0 0 32 32">
  <path fill="url(#a)" d="M16 30c7.732 0 14-6.268 14-14 0-7.73199-6.268-14-14-14C8.26801 2 2 8.26801 2 16c0 7.732 6.26801 14 14 14Z"/>
  <path fill="url(#b)" d="M15.9998 28.9498c7.1521 0 12.95-5.7979 12.95-12.95 0-7.15208-5.7979-12.95-12.95-12.95-7.15208 0-12.95 5.79792-12.95 12.95 0 7.1521 5.79792 12.95 12.95 12.95Z"/>
  <path fill="#F3F3F3" d="M16.0215 6.20007c-.0875 0-.1641-.0656-.1641-.1531V3.76101c0-.0875.0766-.1531.1641-.1531s.164.0656.164.1531v2.28596c-.0109.0875-.0765.1531-.164.1531Z"/>
  <path fill="#fff" d="M16.0217 6.21071c-.0985 0-.175-.07655-.175-.16404V3.76073c0-.0875.0765-.16405.175-.16405.0984 0 .175.07655.175.16405v2.28594c0 .08749-.0875.16404-.175.16404Zm0-2.59224c-.0766 0-.1531.06571-.1531.14226v2.28594c0 .07654.0656.14225.1531.14225.0765 0 .1531-.06571.1531-.14225V3.76073c-.0109-.07655-.0766-.14226-.1531-.14226Z"/>
  <path fill="#F3F3F3" d="M17.116 4.97506c-.0875-.01095-.1531-.07655-.1531-.16405l.0765-1.01728c.0109-.08739.0875-.1531.175-.14215.0875.01096.1531.07667.1531.16417l-.0765 1.01716c-.011.0875-.0875.1531-.175.14226v-.00011Z"/>
  <path fill="#fff" d="M17.1152 4.98604c-.0984-.01095-.164-.0875-.164-.175l.0765-1.01727c.011-.08738.0875-.16393.186-.15309.0983.01095.164.08761.164.175l-.0765 1.01726c-.011.09845-.0875.16405-.186.1531Zm.0985-1.32346c-.0766 0-.1532.05476-.1532.13131l-.0766 1.01726c0 .07644.0548.14215.1423.15299.0765 0 .1531-.05465.1531-.1312l.0765-1.01726c0-.07655-.0656-.14215-.1422-.1531h.0001Z"/>
  <path fill="#F3F3F3" d="M17.9354 6.39705c-.0876-.02191-.1422-.09845-.1313-.18596l.4484-2.24227c.022-.08738.0985-.14214.186-.12024.0875.0219.1421.09845.1312.18595l-.4484 2.24227c-.011.07644-.0985.1312-.186.12025h.0001Z"/>
  <path fill="#fff" d="M17.9366 6.40759c-.0986-.0219-.1532-.1094-.1422-.1969l.4484-2.24224c.0219-.08739.1094-.1531.2077-.1312.0984.02191.1532.10941.1422.19691l-.4484 2.24224c-.0219.08739-.1094.14214-.2077.13119Zm.5139-2.54843c-.0765-.01096-.1531.03274-.175.1094l-.4483 2.24224c-.0109.07644.0327.15299.1202.175.0766.01084.1531-.03297.175-.10951l.4484-2.24213c.011-.0875-.0437-.1531-.1203-.175Z"/>
  <path fill="#F3F3F3" d="M19.2479 5.41239c-.0208-.00502-.0405-.0141-.0578-.02672-.0173-.01261-.032-.02852-.0432-.04681-.0111-.01828-.0186-.03859-.0219-.05976-.0033-.02117-.0024-.04279.0026-.06361l.2735-.98429c.0218-.0875.1093-.13131.1968-.10941.0875.02191.1423.10941.1204.19691l-.2735.9844c-.0219.08739-.1094.13119-.1969.10929Z"/>
  <path fill="#fff" d="M19.248 5.42327c-.0875-.0219-.1531-.12035-.1202-.20774l.2734-.9845c.0218-.08739.1202-.14215.2077-.12024.0875.0219.1531.12035.1203.20774l-.2734.9845c-.0219.08739-.1094.14215-.2077.12024h-.0001Zm.3609-1.27963c-.0765-.0219-.164.0219-.1859.09845l-.2733.98428c-.0219.07655.0217.15321.1092.175.0766.0219.1641-.02179.186-.09834l.2734-.9845c.0109-.07644-.0328-.15299-.1094-.175v.00011Z"/>
  <path fill="#F3F3F3" d="M19.7845 6.95474c-.0875-.03286-.1202-.13131-.0875-.20786l.875-2.11094c.0327-.07654.1313-.12035.2077-.07654.0876.03274.1205.1313.0876.20774l-.8749 2.11094c-.0328.07666-.1313.12035-.2078.07666h-.0001Z"/>
  <path fill="#fff" d="M19.7842 6.96591c-.042-.01602-.076-.04805-.0944-.08906-.0185-.04102-.0199-.08768-.004-.12975l.875-2.11097c.0328-.0875.1313-.12035.2297-.0875.0421.01602.076.04804.0945.08906.0184.04102.0199.08767.004.12975l-.875 2.11097c-.0438.0875-.1423.13119-.2298.0875Zm.9954-2.39537c-.0766-.03275-.1641 0-.1969.07654l-.875 2.11097c-.0328.07655.0109.1531.0875.18595.0765.03274.164 0 .1969-.07655l.875-2.11096c.0219-.06571-.011-.15321-.0875-.18595Z"/>
  <path fill="#F3F3F3" d="M21.2612 6.25462c-.0766-.04381-.1095-.13131-.0766-.20786l.4593-.90772c.0437-.07666.1312-.10951.2188-.06571.0765.04381.1093.13131.0765.20774l-.4594.90784c-.0437.07654-.1312.10951-.2187.06571h.0001Z"/>
  <path fill="#fff" d="M21.261 6.26565c-.0876-.04381-.1204-.14226-.0767-.22976l.4594-.90773c.0437-.08762.1423-.12036.2297-.07666.0875.0438.1203.14225.0765.22975l-.4593.90774c-.0438.0875-.1422.12035-.2297.07655l.0001.00011Zm.6015-1.19225c-.0766-.03274-.1641-.01095-.1969.0656l-.4594.90784c-.0327.0656 0 .1531.0656.19691.0766.03274.1641.01095.1969-.0656l.4594-.90785c.0328-.0656 0-.15309-.0656-.1969Z"/>
  <path fill="#F3F3F3" d="M21.4794 7.87365c-.0765-.05465-.0984-.1531-.0438-.2187l1.2688-1.89227c.0437-.07655.1423-.0875.2187-.04369.0767.05464.0985.1531.0438.21869l-1.2688 1.89227c-.0437.07655-.1421.09846-.2187.0437Z"/>
  <path fill="#fff" d="M21.4793 7.88417c-.0765-.05464-.0984-.16404-.0546-.24059l1.2687-1.89222c.0546-.07654.1531-.09845.2406-.04369.0765.05464.0984.16404.0547.24059l-1.2688 1.89222c-.0546.07655-.164.09834-.2406.04369Zm1.4437-2.1546c-.0655-.0438-.164-.03285-.2077.03274l-1.2688 1.89222c-.0437.06548-.0219.1531.0438.19679.0656.0438.164.03285.2077-.03274l1.2688-1.88127c.0437-.0656.0219-.16405-.0438-.20774Z"/>
  <path fill="#F3F3F3" d="M23.0764 7.46861c-.0655-.05475-.0874-.15321-.0327-.2188l.6343-.79845c.0546-.06549.1531-.07655.2187-.0218.0657.05465.0875.1531.0327.2187l-.6342.79845c-.0547.0656-.1531.07655-.2187.0219h-.0001Z"/>
  <path fill="#fff" d="M23.066 7.47962c-.0766-.05476-.0875-.16417-.0327-.24072l.6342-.79836c.0547-.07666.1641-.08762.2406-.0219.0765.05464.0875.16405.0327.2406l-.6342.79847c-.0547.07655-.1641.08751-.2406.02191Zm.8202-1.03919c-.0655-.05465-.1531-.0437-.2077.0219l-.6344.79847c-.0437.0656-.0327.1531.0327.20775.0657.05476.1532.04381.2079-.02179l.6343-.79847c.0439-.0656.0328-.16406-.0327-.20775l-.0001-.00011Z"/>
  <path fill="#F3F3F3" d="M22.9672 9.10953c-.0656-.06559-.0656-.16404 0-.2188l1.6186-1.60771c.0657-.0656.164-.05476.2188 0 .0546.05464.0656.16404 0 .21869l-1.6077 1.60782c-.0657.0656-.1641.0656-.2297 0Z"/>
  <path fill="#fff" d="M22.9565 9.12037c-.0316-.03209-.0493-.07529-.0493-.1203 0-.045.0177-.0882.0493-.12029l1.6187-1.60785c.0321-.03158.0753-.04927.1203-.04927.0451 0 .0883.01769.1204.04927.0315.0321.0492.0753.0492.1203s-.0177.08821-.0492.1203l-1.6188 1.60773c-.0321.03154-.0753.04922-.1203.04922-.0451 0-.0883-.01768-.1203-.04922v.00011Zm1.8484-1.83748c-.0546-.05476-.1531-.05476-.2077 0l-1.6188 1.60773c-.0548.05475-.0548.1532 0 .20785.0546.05476.1531.05476.2077 0l1.6188-1.60773c.0547-.05476.0547-.14226 0-.20785Z"/>
  <path fill="#F3F3F3" d="M24.6081 9.0218c-.0547-.06559-.0547-.16404.0109-.2188l.7765-.65617c.0656-.05464.1641-.04381.2188.0219.0546.0656.0546.16404-.0109.21869l-.7765.65628c-.0657.05465-.1642.04369-.2188-.0219Z"/>
  <path fill="#fff" d="M24.5968 9.03273c-.0656-.07655-.0546-.18595.0109-.24059l.7765-.6563c.0656-.0656.175-.05465.2406.0219.0657.07655.0548.18595-.0108.24059l-.7766.6563c-.0655.06549-.175.05465-.2405-.0219h-.0001Zm1.0062-.86404c-.0547-.0656-.1422-.0656-.2077-.0219l-.7766.6563c-.0546.05464-.0656.14214-.011.20774.0547.06559.1423.06559.2078.0219l.7766-.6563c.0656-.05464.0656-.14214.0109-.20774Z"/>
  <path fill="#F3F3F3" d="M24.17 10.5967c-.0547-.0765-.0328-.175.0438-.2188l1.903-1.26868c.0765-.04381.175-.02191.2187.0438.0547.07655.0328.17501-.0437.2187l-1.903 1.26868c-.0657.0438-.1642.0219-.2188-.0437Z"/>
  <path fill="#fff" d="M24.1592 10.5968c-.0546-.0766-.0327-.186.0439-.2406l1.903-1.26881c.0766-.05464.186-.03274.2406.05476.0548.07655.0328.18595-.0437.24048L24.4 10.6515c-.0767.0548-.186.0329-.2408-.0546v-.0001Zm2.1656-1.43275c-.0437-.06571-.1312-.08761-.1968-.0438l-1.9032 1.26865c-.0654.0438-.0875.1313-.0327.2079.0437.0656.1312.0875.1969.0438l1.9031-1.26881c.0656-.05464.0765-.14225.0327-.20774Z"/>
  <path fill="#F3F3F3" d="M25.7997 10.8265c-.0438-.0767-.0219-.175.0546-.2188l.886-.5031c.0765-.0438.175-.011.2187.0655.0438.0766.0219.175-.0547.2188l-.8859.5032c-.0766.0437-.175.0109-.2188-.0657l.0001.0001Z"/>
  <path fill="#fff" d="M25.7889 10.8374c-.0438-.0875-.0219-.186.0547-.2297l.8859-.5031c.0766-.0438.186-.011.2297.0655.0438.0876.0219.186-.0546.2297l-.886.5033c-.0766.0437-.186.0108-.2297-.0657Zm1.1593-.6563c-.0437-.0765-.1312-.0984-.1967-.0547l-.886.5032c-.0656.0437-.0875.1312-.0548.1968.0438.0766.1313.0985.1969.0548l.886-.5033c.0656-.0327.0875-.1202.0546-.1968Z"/>
  <path fill="#F3F3F3" d="M25.0671 12.2813c-.0327-.0875 0-.175.0875-.2078l2.111-.8749c.0765-.0329.175.0108.2077.0873.0329.0875 0 .175-.0875.2078l-2.1108.875c-.0767.0328-.175 0-.2079-.0874Z"/>
  <path fill="#fff" d="M25.0564 12.2923c-.0327-.0874 0-.1859.0875-.2297l2.1109-.8749c.0421-.0159.0887-.0144.1297.004.041.0185.073.0524.089.0944.0329.0875 0 .186-.0875.2297l-2.1108.8749c-.0421.0159-.0887.0145-.1297-.0039-.041-.0185-.0731-.0524-.0891-.0944v-.0001Zm2.3953-.9952c-.0328-.0766-.1203-.1094-.1859-.0875l-2.111.8749c-.0765.0328-.1094.1204-.0765.1969.0327.0766.1202.1094.1859.0875l2.1109-.8749c.0766-.0328.1095-.1204.0766-.1969Z"/>
  <path fill="#F3F3F3" d="M26.6095 12.8283c-.0327-.0877.0109-.175.0984-.2079l.9624-.3173c.0766-.0327.175.0219.1969.0985.0328.0875-.0109.175-.0984.2078l-.9624.3173c-.0766.0327-.1641-.0109-.1969-.0986v.0002Z"/>
  <path fill="#fff" d="M26.5986 12.839c-.0327-.0875.011-.1859.1095-.2187l.9623-.3172c.0875-.0328.186.0219.2188.1095.0327.0874-.0109.1858-.1095.2187l-.9623.3172c-.0875.0218-.1859-.022-.2188-.1095Zm1.2687-.4155c-.0219-.0766-.1094-.1204-.1859-.0985l-.9624.3172c-.0766.0218-.1094.1093-.0875.186.0219.0765.1094.1202.1859.0983l.9624-.3171c.0766-.0328.1094-.1094.0875-.186v.0001Z"/>
  <path fill="#F3F3F3" d="M25.625 14.1296c-.0219-.0875.0327-.175.1202-.1859l2.2421-.4375c.0874-.0219.164.0437.1858.1312.0219.0875-.0327.175-.1202.1859l-2.2421.4375c-.0875.0109-.175-.0437-.186-.1312h.0002Z"/>
  <path fill="#fff" d="M25.6029 14.1296c-.0219-.0985.0437-.186.1312-.2079l2.2422-.4375c.0875-.0219.175.0438.1968.1423.0219.0983-.0437.1858-.1312.2077l-2.2422.4376c-.0874.0219-.175-.0437-.1968-.1423v.0001Zm2.5484-.4923c-.0109-.0765-.0875-.1312-.164-.1202l-2.2423.4375c-.0765.0109-.1312.0983-.1094.175.011.0766.0875.1312.1642.1203l2.2421-.4376c.0766-.0219.1312-.0984.1094-.175Z"/>
  <path fill="#F3F3F3" d="M27.0248 14.9719c-.0109-.0875.0437-.1641.1312-.1751l1.0062-.1203c.0875-.0109.1642.0547.175.1422.011.0876-.0437.1641-.1312.1751l-1.0063.1202c-.0765.011-.164-.0546-.175-.1421h.0001Z"/>
  <path fill="#fff" d="M27.0139 14.9721c-.011-.0984.0546-.1859.1421-.1969l1.0062-.1202c.0875-.011.175.0546.1859.1531.011.0984-.0546.1859-.1421.1969l-1.0063.1202c-.0874.011-.175-.0546-.1858-.1531Zm1.3233-.1531c-.0109-.0765-.0874-.1422-.1641-.1313l-1.0061.1204c-.0766.0109-.1313.0875-.1204.164.011.0766.0875.1423.1641.1313l1.0062-.1203c.0766-.011.1312-.0875.1204-.1641h-.0001Z"/>
  <path fill="#F3F3F3" d="M25.8008 16.0327c0-.0875.0655-.164.1531-.164h2.2859c.0875 0 .1531.0765.1531.164 0 .0875-.0656.164-.1531.164h-2.2859c-.0875 0-.1531-.0765-.1531-.164Z"/>
  <path fill="#fff" d="M25.7891 16.0329c0-.0984.0765-.175.164-.175h2.286c.0875 0 .164.0766.164.175 0 .0984-.0765.175-.164.175h-2.286c-.0875 0-.164-.0766-.164-.175Zm2.5921.011c0-.0766-.0656-.1531-.1423-.1531h-2.2857c-.0765 0-.1422.0654-.1422.1531 0 .0765.0657.153.1422.153h2.286c.0765-.0109.1421-.0765.1421-.153h-.0001Z"/>
  <path fill="#F3F3F3" d="M27.0138 17.1375c.0108-.0875.0765-.1531.164-.1531l1.0172.0765c.0874.011.153.0875.1421.175-.0109.0875-.0766.1531-.1641.1531l-1.0171-.0765c-.0765-.011-.1422-.0875-.1422-.175h.0001Z"/>
  <path fill="#fff" d="M27.0029 17.1377c.011-.0985.0875-.1641.175-.1641l1.0174.0766c.0874.0109.164.0875.153.1859-.0108.0985-.0875.1641-.175.1641l-1.0173-.0766c-.0875-.0109-.1531-.0984-.1531-.1859Zm1.3346.0984c.0108-.0765-.0548-.1531-.1314-.1531l-1.0173-.0765c-.0765 0-.1422.0546-.1531.1422-.0109.0765.0547.153.1313.153l1.0173.0766c.0765 0 .1422-.0655.1532-.1422Z"/>
  <path fill="#F3F3F3" d="M25.603 17.9358c.0219-.0875.0984-.1422.1859-.1312l2.2422.4485c.0875.0218.1422.0983.1203.1858-.0219.0875-.0984.1423-.1859.1313l-2.2423-.4484c-.0765-.011-.1312-.0985-.1202-.186Z"/>
  <path fill="#fff" d="M25.5922 17.9361c.0219-.0985.1094-.1531.1969-.1423l2.2423.4486c.0875.0217.1531.1092.1312.2077-.0218.0984-.1093.1532-.1968.1422l-2.2424-.4484c-.0875-.0219-.1421-.1094-.1312-.2077v-.0001Zm2.5486.514c.011-.0766-.0327-.1531-.1094-.175l-2.2424-.4484c-.0764-.0108-.1531.0328-.175.1203-.0108.0766.0329.1531.1095.175l2.2423.4484c.0875.011.1531-.0438.175-.1203Z"/>
  <path fill="#F3F3F3" d="M26.5877 19.2484c.005-.0209.0141-.0405.0267-.0578.0126-.0173.0285-.032.0468-.0431.0182-.0112.0385-.0187.0597-.022.0212-.0033.0428-.0024.0636.0026l.9844.2734c.0875.0219.1312.1095.1094.1969-.005.0208-.0141.0405-.0267.0578-.0126.0173-.0285.032-.0468.0432-.0183.0112-.0386.0186-.0598.022-.0212.0033-.0428.0024-.0636-.0027l-.9844-.2734c-.0875-.0219-.1312-.1094-.1094-.1969h.0001Z"/>
  <path fill="#fff" d="M26.577 19.2485c.0219-.0875.1204-.1531.2079-.1203l.9844.2733c.0875.0219.1422.1204.1203.2079-.0219.0875-.1203.153-.2078.1203l-.9844-.2734c-.0875-.0219-.1423-.1094-.1203-.2077l-.0001-.0001Zm1.2798.3609c.0219-.0766-.0219-.1641-.0985-.186l-.9844-.2734c-.0765-.0219-.1531.0219-.175.1094-.0218.0766.0219.164.0985.1859l.9844.2735c.0765.0109.1531-.0328.175-.1094Z"/>
  <path fill="#F3F3F3" d="M25.0457 19.7733c.0327-.0875.1313-.1203.2077-.0875l2.111.875c.0766.0327.1203.1313.0875.2077-.0328.0876-.1313.1204-.2078.0876l-2.1109-.8749c-.0875-.0328-.1204-.1313-.0875-.2078v-.0001Z"/>
  <path fill="#fff" d="M25.0339 19.7627c.0161-.042.0481-.076.0891-.0944.041-.0185.0877-.0199.1297-.004l2.1109.875c.0875.0329.1203.1313.0875.2298-.016.042-.048.076-.089.0944-.0411.0185-.0877.0199-.1298.004l-2.1109-.875c-.0875-.0438-.1202-.1423-.0875-.2298Zm2.3953.9954c.0328-.0765 0-.164-.0765-.1969l-2.1109-.875c-.0766-.0328-.1531.0109-.186.0875-.0327.0765 0 .164.0766.1969l2.1109.875c.0765.0219.164-.0109.1859-.0875Z"/>
  <path fill="#F3F3F3" d="M25.7559 21.2499c.0438-.0766.1312-.1094.2078-.0766l.9077.4595c.0765.0327.1094.1312.0657.2187-.0438.0765-.1313.1095-.2078.0765l-.9077-.4593c-.0766-.0438-.1095-.1423-.0657-.2188Z"/>
  <path fill="#fff" d="M25.7449 21.2389c.0438-.0875.1422-.1203.2297-.0766l.9078.4595c.0875.0438.1203.1422.0765.2296-.0437.0875-.1422.1204-.2296.0766l-.9078-.4593c-.0876-.0328-.1203-.1423-.0766-.2298Zm1.1813.6015c.0327-.0765.0108-.164-.0657-.1967l-.9078-.4595c-.0657-.0327-.1531 0-.1969.0656-.0327.0766-.0109.1641.0656.1969l.9078.4595c.0766.0327.1641.0109.197-.0658Z"/>
  <path fill="#F3F3F3" d="M24.1485 21.4579c.0548-.0765.1423-.0984.2188-.0438l1.9032 1.2688c.0765.0437.0875.1423.0438.2187-.0548.0767-.1423.0985-.2189.0438l-1.9031-1.2688c-.0765-.0546-.0984-.1531-.0438-.2187Z"/>
  <path fill="#fff" d="M24.1369 21.4471c.0548-.0766.1642-.0985.2407-.0547l1.9032 1.2687c.0766.0547.0985.1531.0437.2406-.0547.0767-.1641.0985-.2405.0548l-1.9033-1.2688c-.0875-.0547-.0984-.1641-.0438-.2406Zm2.1549 1.4437c.0436-.0655.0327-.1641-.0328-.2078l-1.9033-1.2688c-.0656-.0437-.1531-.0218-.1969.0438-.0437.0656-.0327.1641.0328.2078l1.9032 1.2688c.0656.0438.1531.0219.197-.0437v-.0001Z"/>
  <path fill="#F3F3F3" d="M24.5536 23.0438c.0546-.0657.1531-.0875.2187-.0327l.7985.6233c.0656.0547.0765.1531.0219.2188-.0547.0655-.1531.0875-.2189.0328l-.7984-.6235c-.0655-.0547-.0766-.1531-.0218-.2187Z"/>
  <path fill="#fff" d="M24.542 23.0328c.0546-.0766.164-.0875.2406-.0327l.7984.6233c.0765.0547.0875.1641.0327.2406-.0546.0767-.164.0875-.2404.0329l-.7986-.6235c-.0765-.0546-.0873-.1641-.0327-.2406Zm1.05.8204c.0546-.0657.0436-.1532-.022-.2079l-.7984-.6235c-.0656-.0437-.1531-.0327-.2077.0328-.0548.0657-.0438.1532.0218.2078l.7984.6235c.0656.0438.1531.0328.2077-.0327h.0002Z"/>
  <path fill="#F3F3F3" d="M22.9238 22.9345c.0657-.0656.1642-.0656.2188 0l1.6187 1.6077c.0658.0657.0548.1641 0 .2188-.0654.0656-.164.0656-.2187 0l-1.6188-1.6077c-.0546-.0548-.0546-.1642 0-.2188Z"/>
  <path fill="#fff" d="M22.9236 22.9233c.0321-.0316.0754-.0493.1204-.0493s.0882.0177.1203.0493l1.6188 1.6077c.0316.0321.0493.0753.0493.1204 0 .045-.0177.0882-.0493.1203-.0321.0316-.0753.0492-.1203.0492s-.0882-.0176-.1203-.0492l-1.6189-1.6077c-.0765-.0657-.0765-.175 0-.2407Zm1.8376 1.8265c.0548-.0546.0548-.1531 0-.2077l-1.6188-1.6078c-.0546-.0547-.1531-.0547-.2077 0-.0548.0546-.0548.153 0 .2077l1.6187 1.6078c.0547.0657.1423.0657.2078 0Z"/>
  <path fill="#F3F3F3" d="M23.0217 24.5641c.0657-.0546.1641-.0546.2188.011l.6673.7656c.0546.0657.0437.1642-.022.2188-.0655.0546-.1641.0546-.2187-.011l-.6673-.7656c-.0546-.0546-.0437-.1531.0219-.2188Z"/>
  <path fill="#fff" d="M23.0108 24.564c.0766-.0654.175-.0546.2405.011l.6672.7656c.0656.0657.0547.175-.0219.2407-.0765.0656-.175.0546-.2406-.011l-.6672-.7656c-.0547-.0765-.0547-.1859.0219-.2407h.0001Zm.875.9954c.0655-.0547.0655-.1423.0218-.2078l-.6673-.7657c-.0546-.0546-.1421-.0656-.2077-.0109-.0656.0547-.0656.1422-.0219.2077l.6672.7657c.0547.0656.1423.0656.2078.011h.0001Z"/>
  <path fill="#F3F3F3" d="M21.4465 24.1485c.0765-.0546.175-.0327.2188.0438l1.2687 1.8921c.0438.0766.0219.175-.0437.2188-.0766.0547-.175.0328-.2188-.0438l-1.2688-1.8922c-.0438-.0764-.0219-.175.0437-.2187h.0001Z"/>
  <path fill="#fff" d="M21.4467 24.1373c.0766-.0547.186-.0328.2406.0438l1.2687 1.8921c.0547.0764.0327.1858-.0546.2405-.0767.0547-.186.0328-.2407-.0437l-1.2686-1.8921c-.0547-.0874-.0328-.1859.0546-.2405v-.0001Zm1.4437 2.1546c.0656-.0438.0875-.1313.0437-.1969l-1.2686-1.8921c-.0438-.0655-.1313-.0766-.2077-.0328-.0657.0437-.0876.1312-.0438.1969l1.2686 1.892c.0438.0547.1422.0766.2077.0328l.0001.0001Z"/>
  <path fill="#F3F3F3" d="M21.2171 25.7674c.0765-.0437.175-.0218.2187.0547l.5032.886c.0437.0765.0108.175-.0657.2187-.0766.0438-.175.0219-.2187-.0547l-.5031-.8859c-.0328-.0766-.0109-.175.0655-.2187l.0001-.0001Z"/>
  <path fill="#fff" d="M21.2174 25.7562c.0875-.0438.1859-.0219.2296.0547l.5031.886c.0438.0766.0219.186-.0654.2297-.0877.0438-.1861.0219-.2298-.0547l-.5031-.886c-.0438-.0766-.0219-.175.0655-.2297h.0001Zm.6562 1.1595c.0657-.0438.0984-.1313.0547-.1969l-.5031-.886c-.0438-.0656-.1313-.0875-.1969-.0548-.0657.0438-.0984.1313-.0547.1969l.5032.8861c.0327.0656.1312.0984.1968.0546v.0001Z"/>
  <path fill="#F3F3F3" d="M19.7625 25.0454c.0875-.0328.175 0 .2079.0765l.8859 2.1109c.0328.0766-.0109.175-.0875.2077-.0765.0329-.175 0-.2077-.0765l-.886-2.1108c-.0328-.0767.0109-.175.0874-.2078Z"/>
  <path fill="#fff" d="M19.7626 25.0344c.0875-.0327.1859 0 .2297.0875l.8859 2.111c.0159.042.0144.0887-.004.1297-.0185.0409-.0524.073-.0944.089-.0875.0328-.186 0-.2297-.0875l-.8859-2.1109c-.0328-.0766.011-.175.0984-.2188Zm.9953 2.3954c.0765-.0329.1094-.1204.0765-.186l-.8859-2.1109c-.0327-.0766-.1202-.1094-.1968-.0766-.0765.0328-.1095.1203-.0765.186l.8858 2.1109c.0438.0766.1203.1093.1969.0766Z"/>
  <path fill="#F3F3F3" d="M19.2264 26.5983c.0876-.0328.175.0109.2078.0984l.3173.9625c.0327.0766-.0219.175-.0984.1969-.0875.0328-.175-.0109-.2078-.0984l-.3172-.9625c-.0328-.0766.0109-.1641.0984-.1969h-.0001Z"/>
  <path fill="#fff" d="M19.2156 26.5876c.0421-.0159.0887-.0144.1297.004.041.0185.073.0524.089.0944l.3173.9625c.0328.0875-.0219.1859-.1095.2188-.0421.0158-.0887.0144-.1297-.0041-.041-.0184-.073-.0524-.089-.0944l-.3172-.9624c-.0219-.0875.0219-.186.1094-.2188Zm.4266 1.2577c.0766-.0218.1203-.1093.0985-.1859l-.3173-.9624c-.0218-.0766-.1093-.1094-.1859-.0875-.0767.0219-.1204.1094-.0985.1859l.3172.9625c.0056.0185.015.0357.0277.0504.0126.0147.0282.0265.0458.0348.0175.0083.0366.0127.056.0131.0194.0004.0386-.0033.0565-.0108v-.0001Z"/>
  <path fill="#F3F3F3" d="M17.9355 25.603c.0874-.0219.1751.0327.1859.1202l.4595 2.2424c.0219.0873-.0438.164-.1314.1858-.0874.0219-.175-.0327-.1858-.1202l-.4596-2.2424c-.0108-.0765.0438-.164.1313-.1859l.0001.0001Z"/>
  <path fill="#fff" d="M17.936 25.5921c.0983-.0218.1858.0438.2077.1313l.4593 2.2425c.0219.0874-.0438.1858-.1313.1968-.0984.0219-.1859-.0437-.2077-.1312l-.4594-2.2425c-.0218-.0875.0329-.175.1312-.1968l.0002-.0001Zm.5138 2.5487c.0767-.0109.1313-.0875.1204-.175l-.4594-2.2424c-.0108-.0765-.0983-.1312-.175-.1094-.0765.011-.1311.0875-.1202.175l.4594 2.2425c.0217.0765.0983.1202.1749.1094l-.0001-.0001Z"/>
  <path fill="#F3F3F3" d="M17.1043 27.0248c.0875-.0109.164.0438.1859.1313l.1312 1.0062c.011.0875-.0546.164-.1423.175-.0873.0109-.1639-.0437-.1858-.1312l-.1312-1.0063c-.0109-.0875.0547-.164.1422-.175Z"/>
  <path fill="#fff" d="M17.1046 27.0139c.0985-.0109.186.0547.1969.1422l.1313 1.0063c.011.0875-.0547.175-.1532.1859-.0985.011-.186-.0546-.197-.1422l-.1312-1.0063c-.011-.0875.0547-.175.1532-.1859Zm.1641 1.3125c.0766-.0108.1423-.0875.1313-.164l-.1313-1.0063c-.011-.0765-.0876-.1313-.1641-.1203-.0766.0109-.1424.0875-.1314.164l.1314 1.0064c.0109.0765.0875.1312.1641.1202Z"/>
  <path fill="#F3F3F3" d="M15.9785 25.7998c.0875 0 .164.0657.164.1532v2.2859c0 .0875-.0765.1532-.164.1532-.0875 0-.164-.0657-.164-.1532V25.953c.0109-.0875.0765-.1532.164-.1532Z"/>
  <path fill="#fff" d="M15.9777 25.7891c.0985 0 .175.0765.175.164v2.286c0 .0875-.0765.164-.175.164-.0984 0-.175-.0765-.175-.164v-2.2859c0-.0875.0875-.1641.175-.1641Zm0 2.5922c.0766 0 .1531-.0656.1531-.1422v-2.2859c0-.0766-.0656-.1422-.1531-.1422-.0765 0-.1531.0656-.1531.1422v2.2859c.0109.0766.0766.1422.1531.1422Z"/>
  <path fill="#F3F3F3" d="M14.8844 27.0251c.0875.011.1531.0766.1531.1641l-.0766 1.0172c-.0108.0875-.0875.1531-.175.1423-.0875-.0111-.1531-.0767-.1531-.1642l.0766-1.0172c.0109-.0874.0875-.1531.175-.1422Z"/>
  <path fill="#fff" d="M14.8846 27.0139c.0984.0109.164.0875.164.175l-.0765 1.0173c-.011.0875-.0875.164-.186.1531-.0983-.011-.164-.0875-.164-.175l.0765-1.0173c.011-.0984.0875-.164.186-.1531Zm-.0985 1.3235c.0766 0 .1532-.0547.1532-.1312l.0766-1.0173c0-.0766-.0548-.1422-.1423-.1531-.0765 0-.1531.0546-.1531.1313l-.0765 1.0172c0 .0765.0656.1422.1422.1531h-.0001Z"/>
  <path fill="#F3F3F3" d="M14.0635 25.603c.0875.0218.1421.0983.1312.1858l-.4484 2.2425c-.0219.0875-.0985.1422-.186.1202-.0875-.0218-.1421-.0983-.1312-.1859l.4485-2.2424c.0109-.0765.0984-.1312.1859-.1202Z"/>
  <path fill="#fff" d="M14.0639 25.5921c.0984.0219.1531.1095.1422.1969l-.4485 2.2424c-.0219.0875-.1094.1531-.2077.1312-.0985-.0219-.1532-.1094-.1423-.1969l.4485-2.2423c.0219-.0875.1094-.1422.2077-.1312l.0001-.0001Zm-.514 2.5486c.0765.0109.1531-.0328.175-.1093l.4483-2.2424c.011-.0765-.0327-.1531-.1202-.175-.0766-.0108-.1531.0329-.175.1095l-.4485 2.2422c-.0109.0875.0437.1532.1204.175Z"/>
  <path fill="#F3F3F3" d="M12.7522 26.5876c.0876.0219.1422.1094.1203.1969l-.2734.9843c-.0218.0874-.1093.1311-.1968.1093-.0209-.005-.0405-.014-.0578-.0266-.0174-.0127-.032-.0286-.0432-.0468-.0112-.0183-.0187-.0386-.022-.0598-.0033-.0212-.0024-.0428.0026-.0636l.2735-.9843c.0219-.0875.1094-.1312.1969-.1094h-.0001Z"/>
  <path fill="#fff" d="M12.7515 26.5767c.0876.0218.1532.1203.1203.2078l-.2734.9843c-.0218.0875-.1203.1423-.2078.1203-.0875-.0218-.1531-.1203-.1203-.2078l.2734-.9843c.0219-.0875.1094-.1423.2078-.1204v.0001Zm-.3609 1.2796c.0766.0219.1641-.0219.186-.0984l.2733-.9844c.0219-.0765-.0218-.1531-.1093-.175-.0765-.0219-.164.0219-.1859.0985l-.2735.9843c-.0109.0766.0328.1531.1094.175Z"/>
  <path fill="#F3F3F3" d="M12.2159 25.0452c.0875.0328.1203.1312.0875.2078l-.8749 2.1109c-.0328.0767-.1313.1204-.2078.0767-.0766-.0438-.1204-.1313-.0876-.2078l.875-2.111c.0327-.0766.1313-.1204.2077-.0766h.0001Z"/>
  <path fill="#fff" d="M12.2153 25.0342c.042.016.076.0481.0945.0891.0184.041.0198.0877.004.1297l-.8751 2.1108c-.0328.0875-.1313.1204-.2297.0875-.042-.016-.076-.048-.0944-.089-.0185-.041-.0199-.0876-.0041-.1296l.875-2.111c.0439-.0875.1423-.1312.2298-.0875Zm-.9954 2.3954c.0766.0327.1641 0 .1969-.0766l.8751-2.1109c.0327-.0766-.011-.1532-.0875-.186-.0766-.0327-.1641 0-.197.0766l-.875 2.1109c-.0219.0656.011.1531.0875.186Z"/>
  <path fill="#F3F3F3" d="M10.7397 25.7457c.0765.0437.1093.1312.0765.2077l-.4594.9077c-.0438.0765-.1313.1094-.2188.0656-.0765-.0437-.1093-.1312-.0765-.2077l.4595-.9076c.0437-.0767.1312-.1095.2187-.0657Z"/>
  <path fill="#fff" d="M10.7396 25.7346c.0875.0437.1203.1422.0766.2296l-.4594.9078c-.0438.0875-.1423.1204-.2297.0766-.0875-.0437-.1203-.1423-.0765-.2297l.4593-.9076c.0438-.0877.1422-.1204.2297-.0767Zm-.6015 1.1922c.0765.0327.164.0108.1968-.0657l.4594-.9077c.0327-.0657 0-.1532-.0656-.1969-.0766-.0327-.1641-.0109-.1969.0656l-.4594.9077c-.0328.0657 0 .1532.0657.1969v.0001Z"/>
  <path fill="#F3F3F3" d="M10.5198 24.1267c.0765.0546.0984.1531.0438.2187l-1.26881 1.8924c-.04369.0764-.14226.0874-.21869.0437-.07655-.0548-.09845-.1531-.04381-.2189l1.26881-1.8924c.0437-.0764.1421-.0983.2187-.0437v.0002Z"/>
  <path fill="#fff" d="M10.52 24.1158c.0765.0547.0984.1642.0546.2407l-1.2687 1.8923c-.05465.0764-.15311.0983-.24061.0437-.07655-.0548-.09845-.1641-.05476-.2407l1.26887-1.8922c.0546-.0766.164-.0985.2406-.0438Zm-1.44376 2.1548c.06549.0437.16406.0327.20775-.0328l1.26881-1.8923c.0437-.0655.0219-.153-.0438-.1969-.0656-.0437-.164-.0327-.2077.0328l-1.26886 1.8813c-.0437.0657-.02191.1641.0438.2078v.0001Z"/>
  <path fill="#F3F3F3" d="M8.92307 24.5311c.06571.0547.0875.1531.03286.2187l-.63439.7984c-.05465.0656-.1531.0766-.21869.0219-.0656-.0546-.0875-.1531-.03275-.2188l.63428-.7984c.05465-.0655.1531-.0765.21869-.0218Z"/>
  <path fill="#fff" d="M8.93452 24.5202c.07655.0546.08751.164.03275.2406l-.6343.7984c-.05465.0766-.16405.0875-.2406.0219-.07655-.0547-.08751-.164-.03275-.2407l.6343-.7983c.05465-.0767.16405-.0875.2406-.0219Zm-.82025 1.039c.06548.0547.1531.0439.20774-.0219l.63442-.7984c.0438-.0655.03274-.1531-.03275-.2078-.06571-.0548-.15321-.0438-.20785.0219l-.63442.7984c-.04369.0657-.03274.164.03275.2078h.00011Z"/>
  <path fill="#F3F3F3" d="M9.03301 22.8906c.0656.0655.0656.164 0 .2187L7.41437 24.717c-.06571.0657-.16404.0548-.2188 0-.05464-.0546-.06559-.164 0-.2187l1.60769-1.6077c.06571-.0657.16416-.0657.22975 0Z"/>
  <path fill="#fff" d="M9.04327 22.8798c.03151.0321.04917.0753.04917.1202 0 .045-.01766.0882-.04917.1203l-1.61875 1.608c-.03209.0315-.07527.0492-.12024.0492-.04497 0-.08815-.0177-.12024-.0492-.03158-.0321-.04927-.0753-.04927-.1204 0-.045.01769-.0882.04927-.1203l1.61864-1.6078c.0321-.0316.0753-.0492.1203-.0492s.0882.0176.12029.0492Zm-1.84839 1.8374c.05464.0547.15309.0547.20774 0l1.61875-1.6079c.05476-.0546.05476-.1531 0-.2077-.05464-.0548-.15309-.0548-.20773 0l-1.61876 1.6078c-.05464.0546-.05464.1422 0 .2077v.0001Z"/>
  <path fill="#F3F3F3" d="M7.39172 22.9784c.05464.0654.05464.164-.01095.2187l-.77655.6563c-.0656.0547-.16405.0437-.21881-.0219-.05464-.0657-.05464-.164.01095-.2188l.77655-.6562c.06571-.0548.16405-.0439.21881.0219Z"/>
  <path fill="#fff" d="M7.40332 22.9672c.06559.0766.05464.1859-.01096.2407l-.77655.6561c-.0656.0657-.175.0548-.2406-.0218-.06571-.0766-.05476-.1859.01084-.2407l.77667-.6561c.06548-.0656.175-.0546.24048.0219l.00012-.0001Zm-1.00632.8641c.05476.0656.14226.0656.20775.0219l.77666-.6563c.05465-.0546.0656-.1422.01095-.2077-.05475-.0657-.14225-.0657-.20774-.0219l-.77666.6562c-.0656.0546-.0656.1422-.01096.2077v.0001Z"/>
  <path fill="#F3F3F3" d="M7.82979 21.4029c.05465.0766.03275.175-.0438.2188L5.8829 22.8904c-.07654.0437-.17499.0218-.21869-.0438-.05476-.0765-.03285-.175.0437-.2188l1.90319-1.2686c.06571-.0437.16405-.0219.21881.0437h-.00012Z"/>
  <path fill="#fff" d="M7.84089 21.4033c.05465.0766.03275.1859-.0438.2407l-1.90306 1.2686c-.07655.0548-.18595.0328-.24059-.0546-.05476-.0765-.03274-.1859.04369-.2406l1.90317-1.2688c.07655-.0546.18584-.0327.24048.0547h.00011Zm-2.16555 1.4328c.0437.0656.13119.0875.19679.0438l1.90306-1.2688c.0657-.0437.08749-.1312.03285-.2077-.04369-.0657-.13119-.0875-.1969-.0438l-1.90306 1.2688c-.06559.0546-.07654.1421-.03274.2077Z"/>
  <path fill="#F3F3F3" d="M6.20019 21.1736c.04381.0765.02191.175-.05464.2188l-.88597.503c-.07655.0437-.175.011-.21869-.0656-.04381-.0765-.02191-.1749.05464-.2188l.88597-.503c.07654-.0438.175-.0109.2188.0656h-.00011Z"/>
  <path fill="#fff" d="M6.21123 21.1624c.04369.0875.02179.1859-.05476.2297l-.88594.503c-.07655.0437-.18595.011-.22964-.0655-.04381-.0875-.02191-.186.05464-.2298l.88594-.503c.07655-.0438.18595-.011.22964.0656h.00012Zm-1.15951.6562c.04381.0765.13131.0984.1969.0546l.88595-.503c.06559-.0438.08749-.1313.05475-.1969-.0438-.0765-.1313-.0984-.1969-.0546l-.88594.503c-.06559.0328-.0875.1204-.05464.1969h-.00012Z"/>
  <path fill="#F3F3F3" d="M6.93236 19.7186c.03275.0875 0 .175-.0875.2077l-2.11095.8751c-.07655.0328-.175-.0109-.20774-.0875-.03285-.0875 0-.175.0875-.2078l2.11095-.875c.07655-.0327.175 0 .20774.0875Z"/>
  <path fill="#fff" d="M6.94332 19.708c.03274.0875 0 .186-.0875.2296l-2.11096.875c-.04206.0159-.08869.0144-.12968-.004-.04098-.0185-.07299-.0524-.08901-.0944-.03285-.0875 0-.186.0875-.2297l2.11095-.8749c.04206-.0159.08869-.0144.12968.004.04099.0185.073.0524.08902.0944Zm-2.39536.9952c.03286.0767.12036.1096.18595.0875l2.11095-.875c.07655-.0327.10941-.1202.07655-.1967-.03274-.0766-.12024-.1094-.18595-.0875l-2.11095.875c-.07655.0327-.10929.1202-.07655.1969v-.0002Z"/>
  <path fill="#F3F3F3" d="M5.3908 19.1718c.03274.0875-.01095.175-.09846.2078l-.9625.3172c-.07655.0327-.175-.0219-.19691-.0984-.03274-.0875.01096-.175.09846-.2078l.9625-.3172c.07655-.0328.16405.0109.19691.0984Z"/>
  <path fill="#fff" d="M5.40093 19.1609c.03286.0875-.01084.1859-.10929.2188l-.96249.3172c-.08749.0327-.18595-.0219-.2188-.1094-.03274-.0876.01095-.186.10952-.2188l.96237-.3173c.0875-.0218.18595.0219.2188.1096l-.00011-.0001Zm-1.26856.4157c.0219.0766.1094.1204.18595.0985l.96248-.3173c.07655-.0218.10941-.1093.0875-.1859-.0219-.0765-.1094-.1203-.18595-.0984l-.96248.3173c-.07655.0327-.10941.1093-.0875.1858Z"/>
  <path fill="#F3F3F3" d="M6.37554 17.8705c.02179.0875-.03286.175-.12036.1859l-2.24224.4375c-.0875.0219-.16405-.0438-.18584-.1313-.0219-.0875.03274-.175.12024-.186l2.24225-.4374c.0875-.0109.175.0438.18584.1313h.00011Z"/>
  <path fill="#fff" d="M6.39676 17.8705c.0219.0984-.04369.1859-.13119.2077l-2.24226.4375c-.0875.0219-.175-.0437-.19679-.1421-.02191-.0985.04369-.186.13119-.2078l2.24226-.4375c.08739-.0219.175.0437.19679.1422Zm-2.54845.4922c.01095.0765.0875.1312.16405.1203l2.24225-.4375c.07655-.011.1312-.0985.10941-.175-.01095-.0766-.0875-.1313-.16416-.1204l-2.24215.4375c-.07655.0219-.13119.0985-.1094.175v.0001Z"/>
  <path fill="#F3F3F3" d="M4.97502 17.0283c.01084.0874-.0438.164-.1313.175l-1.0062.1203c-.08761.0109-.16416-.0547-.175-.1423-.01095-.0874.0437-.164.1312-.1751l1.0063-.1202c.07655-.011.16405.0546.175.1423Z"/>
  <path fill="#fff" d="M4.98599 17.0284c.01084.0983-.05476.1858-.14226.1968l-1.00619.1203c-.08761.011-.175-.0546-.18595-.1531-.01096-.0984.05464-.1859.14214-.1968l1.00631-.1204c.08739-.0109.175.0548.18584.1531l.00011.0001Zm-1.32356.1531c.01095.0765.08761.1422.16416.1312l1.00619-.1203c.07655-.0109.13131-.0875.12036-.164-.01096-.0766-.0875-.1422-.16405-.1313l-1.00631.1204c-.07655.0109-.13119.0874-.12035.164Z"/>
  <path fill="#F3F3F3" d="M6.19944 15.9673c0 .0876-.06548.1641-.1531.1641H3.76052c-.0875 0-.1531-.0765-.1531-.164 0-.0875.0656-.1642.1531-.1642h2.28594c.0875 0 .1532.0767.1532.1642l-.00022-.0001Z"/>
  <path fill="#fff" d="M6.21073 15.967c0 .0985-.07666.175-.16416.175H3.76073c-.0875 0-.16405-.0766-.16405-.175 0-.0984.07655-.175.16405-.175h2.28595c.0875 0 .16405.0766.16405.175Zm-2.59226-.0109c0 .0766.0656.1531.14226.1531h2.28584c.07655 0 .14225-.0656.14225-.1531 0-.0765-.0657-.1532-.14225-.1532H3.76073c-.07655.011-.14215.0767-.14215.1532h-.00011Z"/>
  <path fill="#E2E2E2" d="M4.98589 14.8624c-.01107.0875-.07667.1531-.16417.1531l-1.01727-.0766c-.08739-.0109-.15298-.0875-.14214-.175.01095-.0875.07666-.1531.16416-.1531l1.01716.0766c.07655.0109.14226.0875.14226.175Z"/>
  <path fill="#fff" d="M4.99667 14.8626c-.01095.0984-.0875.164-.175.164l-1.01725-.0765c-.08739-.011-.16393-.0875-.15298-.186.01084-.0983.0875-.164.175-.164l1.01714.0765c.0875.011.15309.0985.15309.186Zm-1.33439-.0985c-.01084.0766.05475.1533.1313.1533l1.01725.0765c.07644 0 .14215-.0548.1531-.1423.01095-.0765-.05476-.1531-.1313-.1531l-1.01726-.0765c-.07643 0-.14214.0656-.15309.1423v-.0002Z"/>
  <path fill="#F3F3F3" d="M6.39703 14.0641c-.0219.0875-.09845.1422-.18595.1313l-2.24215-.4594c-.08749-.0219-.14225-.0984-.12035-.1859.0219-.0875.09845-.1423.18595-.1312l2.24226.4484c.07655.0218.13119.1093.12024.1968Z"/>
  <path fill="#fff" d="M6.40749 14.0638c-.02191.0985-.10941.1532-.19691.1423l-2.24213-.4485c-.0875-.0219-.15309-.1094-.13119-.2077.02179-.0986.10929-.1532.19679-.1423l2.24224.4485c.0875.0219.14215.1094.1312.2077Zm-2.54844-.514c-.01095.0765.03274.1531.1094.175l2.24225.4484c.07654.011.15309-.0327.17499-.1203.01084-.0766-.03285-.1531-.10951-.175l-2.24202-.4484c-.0875-.0109-.1531.0437-.175.1203h-.00011Z"/>
  <path fill="#F3F3F3" d="M5.41248 12.7518c-.00502.0208-.0141.0404-.02672.0578-.01261.0173-.02852.0319-.04681.0431-.01829.0112-.0386.0186-.05977.0219-.02117.0033-.04278.0025-.06361-.0026l-.98441-.2734c-.0875-.0219-.1312-.1094-.10941-.1969.00502-.0209.0141-.0405.02672-.0578.01262-.0173.02852-.032.04681-.0432.01829-.0111.0386-.0186.05977-.0219.02117-.0033.04278-.0024.06361.0026l.98441.2735c.0875.0218.1312.1093.10941.1968v.0001Z"/>
  <path fill="#fff" d="M5.4238 12.7516c-.02179.0874-.12024.1531-.20775.1202l-.98442-.2734c-.0875-.0219-.14226-.1203-.12035-.2077.0219-.0876.12035-.1532.20785-.1204l.98443.2735c.0875.0219.14226.1094.12024.2077v.0001Zm-1.27967-.3611c-.0219.0766.0219.1641.09845.1859l.98443.2734c.07655.0219.15309-.0219.175-.1094.02179-.0765-.02191-.164-.09845-.1858l-.98443-.2734c-.07655-.011-.1531.0327-.175.1094v-.0001Z"/>
  <path fill="#F3F3F3" d="M6.95441 12.2267c-.03274.0874-.13131.1202-.20774.0874l-2.11107-.875c-.07655-.0328-.12024-.1312-.0875-.2078.03286-.0875.13131-.1203.20786-.0875l2.11095.875c.0875.0328.12035.1312.0875.2078v.0001Z"/>
  <path fill="#fff" d="M6.96586 12.2377c-.01602.042-.04804.0759-.08906.0944-.04102.0184-.08767.0199-.12975.004l-2.11097-.875c-.0875-.0327-.12024-.1312-.0875-.2296.01602-.0421.04805-.076.08906-.0945.04102-.0184.08768-.0199.12975-.004l2.11097.875c.0875.0437.12024.1423.0875.2297Zm-2.39537-.9953c-.03274.0766 0 .1641.07655.1968l2.11096.875c.07655.0329.1531-.011.18595-.0875.03275-.0765 0-.164-.07654-.1968l-2.11097-.875c-.07655-.0219-.16405.011-.18595.0875Z"/>
  <path fill="#F3F3F3" d="M6.24379 10.7499c-.0437.0766-.1312.1094-.20775.0766l-.90785-.4594c-.07655-.0328-.1094-.1313-.0656-.2188.0437-.0765.1312-.1094.20774-.0765l.90775.4594c.07666.0437.10951.1423.06571.2187Z"/>
  <path fill="#fff" d="M6.25485 10.7611c-.04381.0875-.14226.1204-.22976.0766l-.90774-.4594c-.0875-.0437-.12035-.1422-.07654-.2297.04369-.0875.14225-.1204.22964-.0765l.90774.4594c.08761.0327.12035.1422.07666.2296Zm-1.1813-.6015c-.03274.0765-.01084.164.06571.1969l.90773.4594c.06571.0327.15321 0 .19691-.0657.03274-.0766.01095-.1641-.0656-.1969l-.91891-.4592c-.0656-.0328-.1531-.011-.18595.0656l.00011-.0001Z"/>
  <path fill="#F3F3F3" d="M7.85114 10.542c-.05465.0767-.14215.0986-.2187.0438l-1.8923-1.25769c-.07644-.04381-.08739-.14226-.04369-.21881.0438-.07655.14226-.09845.21881-.04381L7.8184 10.3343c.06559.0438.0875.1423.03274.2077Z"/>
  <path fill="#fff" d="M7.86214 10.5531c-.05464.0767-.16404.0985-.24048.0548L5.72942 9.33905c-.07655-.05464-.09845-.15309-.04381-.24048.05476-.07666.16416-.09857.24071-.05476l1.89213 1.26869c.0875.0548.09845.1641.04369.2406ZM5.70751 9.10941c-.04369.06559-.03274.16405.03275.20774l1.90319 1.26895c.0656.0438.1531.0219.1969-.0437.0437-.0657.03275-.1642-.03274-.2079L5.9043 9.06571c-.06559-.0438-.15309-.0219-.1969.0437h.00011Z"/>
  <path fill="#F3F3F3" d="M7.44709 8.95617c-.05465.0656-.1531.0875-.2187.03274l-.79846-.62332c-.0656-.05476-.07655-.1532-.02191-.2188.05465-.0656.1531-.0875.21881-.03274l.79835.62332c.06571.05476.07667.15309.02191.2188Z"/>
  <path fill="#fff" d="M7.45756 8.96737c-.05464.07666-.16404.08761-.24059.03285l-.79843-.62333c-.07655-.05464-.0875-.16404-.03275-.24048.05465-.07666.16405-.08761.24048-.03285l.79844.62333c.07666.05475.08761.16404.03285.2407v-.00022Zm-1.04998-.82023c-.05464.06559-.04369.15309.02191.20774l.79843.62355c.0656.04369.15309.03274.20774-.03285.05476-.0656.0438-.1531-.02179-.20774l-.79844-.62356c-.06559-.04369-.1532-.03274-.20773.03286h-.00012Z"/>
  <path fill="#F3F3F3" d="M9.07611 9.06562c-.06548.06571-.16405.06571-.2187 0L7.22784 7.45786c-.0656-.06559-.05476-.16405 0-.21881.0656-.06548.16405-.06548.2187 0l1.61885 1.60787c.0656.05465.0656.16405.01095.21881l-.00023-.00011Z"/>
  <path fill="#fff" d="M9.07664 9.0766c-.03209.03151-.07527.04916-.12025.04916-.04497 0-.08815-.01765-.12024-.04916l-1.6189-1.60796c-.03158-.0321-.04928-.07532-.04928-.12035s.0177-.08826.04928-.12036c.03209-.03154.07529-.04922.12029-.04922.04501 0 .08821.01768.1203.04922l1.6188 1.60785c.07654.06559.07654.17499 0 .24059v.00023ZM7.23938 7.24984c-.05476.05475-.05476.1532 0 .20774l1.61868 1.60784c.05475.05476.15309.05476.20774 0 .05475-.05465.05475-.1531 0-.20774L7.44712 7.239c-.05465-.05465-.14226-.05465-.20774.01095v-.00011Z"/>
  <path fill="#F3F3F3" d="M8.97859 7.43593c-.0656.05475-.16405.05475-.21881-.01096l-.66724-.76559c-.05453-.0656-.0437-.16405.02201-.2187.06549-.05475.16405-.05475.21869.01084l.66725.76571c.05464.05465.04369.1531-.0219.2187Z"/>
  <path fill="#fff" d="M8.989 7.43581c-.07655.0656-.175.05476-.24071-.01095l-.66714-.7656c-.0656-.0656-.05465-.175.0219-.2406.07655-.06571.175-.05476.2406.01095l.66726.76549c.05464.07666.05464.18607-.02191.24071Zm-.875-.99525c-.06571.05465-.06571.14215-.0219.20775l.66726.7656c.05464.05476.14214.06571.20774.01095.0656-.05465.0656-.14226.0219-.20774l-.66725-.76572c-.05465-.06548-.14226-.06548-.20775-.01084Z"/>
  <path fill="#F3F3F3" d="M10.5535 7.85158c-.0766.05465-.175.03275-.2188-.0438L9.05502 5.91553c-.0438-.07654-.0219-.175.04369-.21869.07655-.05464.175-.03274.21881.04381l1.26868 1.89213c.0548.07655.0329.175-.0327.21869v.00011Z"/>
  <path fill="#fff" d="M10.5528 7.86264c-.0766.05475-.186.03274-.2407-.0437L9.04345 5.92667c-.05464-.07655-.03274-.18584.05464-.24048.07655-.05476.18595-.03286.2407.04369l1.26861 1.89216c.0547.0875.0328.18595-.0546.2406ZM9.10893 5.70798c-.06559.04369-.08749.13119-.04369.1969l1.26866 1.89216c.0438.0656.1313.07655.2077.03274.0657-.04369.0876-.13119.0438-.19679L9.31689 5.75167c-.0438-.06548-.14225-.0875-.20773-.04369h-.00023Z"/>
  <path fill="#F3F3F3" d="M10.7824 6.23295c-.0765.04369-.1749.0219-.2186-.05465l-.5032-.88595c-.0437-.07655-.011-.175.0657-.2188.0765-.0437.175-.02191.2187.05475l.503.88584c.0329.07655.011.175-.0654.21881h-.0002Z"/>
  <path fill="#fff" d="M10.783 6.24391c-.0875.04369-.186.0219-.2296-.05476l-.5033-.88584c-.0436-.07667-.0217-.18596.0658-.22976.0875-.0437.1859-.02191.2296.05475l.5031.88585c.0438.07655.0219.175-.0655.22976h-.0001Zm-.6562-1.15941c-.0657.04369-.0984.13119-.0547.1969l.5032.88596c.0436.06548.1311.0875.1967.05465.0658-.0437.0985-.13131.0548-.19691l-.5032-.88596c-.0327-.06548-.1312-.09845-.1968-.05464Z"/>
  <path fill="#F3F3F3" d="M12.2374 6.95449c-.0873.03275-.1749 0-.2077-.07654l-.8859-2.11107c-.0327-.07655.011-.175.0875-.20785.0875-.03275.175 0 .2077.07654l.8859 2.11096c.0329.07655-.0108.175-.0875.20774v.00022Z"/>
  <path fill="#fff" d="M12.2379 6.96583c-.0874.03274-.1858 0-.2297-.08762l-.8859-2.11082c-.0159-.04208-.0145-.08873.004-.12975.0184-.04101.0524-.07304.0944-.08906.0875-.03274.186 0 .2298.0875l.8858 2.11094c.0329.07655-.0108.175-.0983.21881h-.0001Zm-.9953-2.39534c-.0765.03274-.1094.12035-.0765.18595l.8858 2.11082c.0328.07655.1203.10929.1968.07655.0766-.03274.1096-.12035.0766-.18595l-.8859-2.11094c-.0438-.07655-.1203-.1094-.1969-.07655l.0001.00012Z"/>
  <path fill="#F3F3F3" d="M12.7729 5.40162c-.0875.03274-.175-.01107-.2077-.09845l-.3172-.9626c-.0328-.07655.0219-.175.0984-.19679.0765-.0219.175.01095.2077.09845l.3173.96249c.0327.07655-.011.16404-.0985.19679v.00011Z"/>
  <path fill="#fff" d="M12.7848 5.41263c-.042.01586-.0887.0144-.1297-.00405-.0409-.01846-.073-.0524-.089-.0944l-.3172-.9625c-.0328-.0875.0219-.18584.1095-.21869.042-.01585.0887-.0144.1297.00406.041.01845.073.05239.089.09439l.3171.9625c.0219.0875-.0219.18595-.1094.21869Zm-.4265-1.25774c-.0766.02179-.1204.10929-.0985.18584l.3173.96261c.0218.07655.1093.10929.1859.08739.0766-.02179.1203-.10929.0984-.18584l-.3172-.96261c-.0056-.01857-.015-.03575-.0276-.05044-.0127-.01468-.0283-.02654-.0458-.03479-.0176-.00826-.0367-.01272-.056-.01311-.0194-.0004-.0387.0033-.0565.01084v.00011Z"/>
  <path fill="#F3F3F3" d="M14.0636 6.39702c-.0875.02191-.175-.03274-.1859-.12035l-.4594-2.24213c-.0219-.0875.0438-.16405.1312-.18595.0876-.02191.175.03274.1859.12035l.4595 2.24224c.0109.07644-.0438.16394-.1313.18584Z"/>
  <path fill="#fff" d="M14.0641 6.4081c-.0985.0219-.186-.04381-.2079-.13131l-.4594-2.24215c-.0219-.0875.0438-.18595.1313-.1969.0985-.0219.186.04381.2078.13131l.4595 2.24226c.0218.08738-.0329.175-.1313.19679ZM13.55 3.85964c-.0766.01096-.1313.0875-.1203.175l.4594 2.24226c.0109.07644.0983.1312.175.10929.0765-.01095.1312-.0875.1202-.175l-.4594-2.24225c-.0218-.07644-.0983-.12025-.175-.1093h.0001Z"/>
  <path fill="#F3F3F3" d="M14.8955 4.97504c-.0875.01095-.1641-.0437-.186-.1312l-.1312-1.00632c-.0109-.0875.0547-.16405.1423-.175.0874-.01095.1639.04381.1858.13131l.1312 1.0062c.011.08751-.0546.16406-.1421.17501Z"/>
  <path fill="#fff" d="M14.8957 4.98597c-.0985.01096-.186-.05464-.1969-.14225l-.1312-1.0062c-.011-.0875.0546-.175.1531-.18596.0984-.01084.1859.05476.1969.14226l.1312 1.0062c.0109.0875-.0547.175-.1531.18595Zm-.1641-1.3125c-.0765.01095-.1422.0875-.1313.16405l.1313 1.00631c.011.07655.0875.13119.1641.12024.0765-.01084.1422-.0875.1313-.16405l-.1313-1.0062c-.011-.07655-.0875-.1313-.1641-.12035Z"/>
  <path fill="url(#c)" fill-opacity=".2" d="M16.077 28.9391c7.152 0 12.95-5.798 12.95-12.95 0-7.15213-5.798-12.95004-12.95-12.95004-7.15213 0-12.95005 5.79791-12.95005 12.95004 0 7.152 5.79792 12.95 12.95005 12.95Z"/>
  <path fill="#000" fill-opacity=".05" d="m25.0454 7.7749-10.4453 6.6938h-.011v.0108l-.0109.011-6.51863 10.7517 9.58123-7.711.0109-.0108v-.011l7.3938-9.73438-.0001-.00012Z"/>
  <path fill="#CD151E" d="m24.8484 7.15137-10.325 7.33903 3.0625 3.0406 7.2625-10.37963Z"/>
  <path fill="#FA5153" d="m14.5342 14.4686 1.5422 1.5202 8.7718-8.83743-10.314 7.31723Z"/>
  <path fill="#ACACAC" d="m14.534 14.4689 3.0625 3.0404-10.32502 7.3392L14.534 14.4688v.0001Z"/>
  <path fill="#EEE" d="m7.27148 24.8485 8.80462-8.8594-1.5422-1.5203-7.26242 10.3797Z"/>
  <defs>
    <linearGradient id="a" x1="16" x2="16" y1="30" y2="2" gradientUnits="userSpaceOnUse">
      <stop offset=".25" stop-color="#DBDBDA"/>
      <stop offset="1" stop-color="#fff"/>
    </linearGradient>
    <linearGradient id="c" x1="15.8309" x2="9.78662" y1="12.2861" y2="23.1302" gradientUnits="userSpaceOnUse">
      <stop stop-opacity="0"/>
      <stop offset="1"/>
    </linearGradient>
    <radialGradient id="b" cx="0" cy="0" r="1" gradientTransform="translate(17.8193 13.1552) scale(15.8073)" gradientUnits="userSpaceOnUse">
      <stop stop-color="#2ABCE1"/>
      <stop offset=".11363" stop-color="#2ABBE1"/>
      <stop offset="1" stop-color="#3375F8"/>
    </radialGradient>
  </defs>
</svg>
