<svg xmlns="http://www.w3.org/2000/svg" fill="none" viewBox="0 0 21 32">
  <path fill="#020202" d="M11.6366 1.45447H8.72754v5.81818h2.90906V1.45447Z"/>
  <path fill="#444" fill-rule="evenodd" d="M8.72701 0H7.27246v2.90909h6.02474l3.2502 2.59178 1.8137-2.27447L14.3151 0H8.72701Z" clip-rule="evenodd"/>
  <path fill="#6BD2F4" d="M11.6361 5.81812H8.72701c-.80333 0-1.45455.65122-1.45455 1.45454v2.90914c0 .8033.65122 1.4545 1.45455 1.4545h2.90909c.8033 0 1.4545-.6512 1.4545-1.4545V7.27266c0-.80332-.6512-1.45454-1.4545-1.45454Z"/>
  <g filter="url(#a)">
    <path fill="url(#b)" d="M0 27.6364C0 30.0464 1.95367 32 4.36364 32H16c2.41 0 4.3636-1.9536 4.3636-4.3636V16c0-4.0166-3.2561-7.27271-7.2727-7.27271H7.27273C3.25612 8.72729 0 11.9834 0 16v11.6364Z"/>
  </g>
  <path fill="url(#c)" fill-rule="evenodd" d="M2.90918 17.7786c.84156-.192 1.82201-.324 2.90909-.324 3.63636 0 5.23633 1.4545 8.72723 1.4545 1.0187 0 1.9884-.0594 2.9091-.1783v6.7238c0 2.0083-1.628 3.6364-3.6363 3.6364H6.54554c-2.0083 0-3.63636-1.6281-3.63636-3.6364v-7.676Z" clip-rule="evenodd"/>
  <path fill="url(#d)" d="M7.27282 13.8182c0-1.205-.97684-2.1818-2.18182-2.1818-1.20499 0-2.18182.9768-2.18182 2.1818v13.0909c0 1.205.97683 2.1818 2.18182 2.1818 1.20498 0 2.18182-.9768 2.18182-2.1818V13.8182Z"/>
  <path fill="#fff" fill-opacity=".3" d="M10.1821 29.091c.8033 0 1.4545-.6512 1.4545-1.4546 0-.8033-.6512-1.4545-1.4545-1.4545-.80334 0-1.45456.6512-1.45456 1.4545 0 .8034.65122 1.4546 1.45456 1.4546Zm3.6364-4.3637c1.205 0 2.1819-.9768 2.1819-2.1818s-.9769-2.1819-2.1819-2.1819c-1.2049 0-2.1818.9769-2.1818 2.1819s.9769 2.1818 2.1818 2.1818Z"/>
  <defs>
    <linearGradient id="c" x1="10.1819" x2="10.1819" y1="17.4546" y2="29.091" gradientUnits="userSpaceOnUse">
      <stop stop-color="#05D2FE"/>
      <stop offset="1" stop-color="#02B9FC"/>
    </linearGradient>
    <linearGradient id="d" x1="5.091" x2="5.091" y1="11.6364" y2="29.0909" gradientUnits="userSpaceOnUse">
      <stop stop-color="#fff"/>
      <stop offset="1" stop-color="#fff" stop-opacity="0"/>
    </linearGradient>
    <radialGradient id="b" cx="0" cy="0" r="1" gradientTransform="matrix(14.01283 14.87833 -24.34709 22.93078 6.35079 17.1217)" gradientUnits="userSpaceOnUse">
      <stop stop-color="#E7FCFE"/>
      <stop offset="1" stop-color="#7DDCF5"/>
    </radialGradient>
    <filter id="a" width="20.3638" height="23.2727" x="0" y="8.72729" color-interpolation-filters="sRGB" filterUnits="userSpaceOnUse">
      <feFlood flood-opacity="0" result="BackgroundImageFix"/>
      <feBlend in="SourceGraphic" in2="BackgroundImageFix" result="shape"/>
      <feColorMatrix in="SourceAlpha" result="hardAlpha" values="0 0 0 0 0 0 0 0 0 0 0 0 0 0 0 0 0 0 127 0"/>
      <feOffset/>
      <feGaussianBlur stdDeviation="1"/>
      <feComposite in2="hardAlpha" k2="-1" k3="1" operator="arithmetic"/>
      <feColorMatrix values="0 0 0 0 0.462745 0 0 0 0 0.839216 0 0 0 0 0.960784 0 0 0 1 0"/>
      <feBlend in2="shape" result="effect1_innerShadow_103_1631"/>
    </filter>
  </defs>
</svg>
