<svg xmlns="http://www.w3.org/2000/svg" fill="none" viewBox="0 0 32 32">
  <ellipse cx="10.5" cy="10" fill="#184AA9" rx="8.5" ry="8"/>
  <circle cx="22" cy="22" r="8" fill="#2173F0"/>
  <circle cx="16" cy="16" r="13" fill="url(#a)"/>
  <path fill="#fff" d="M16.0688 9c2.1134 0 4.9312 1 4.2267 2.3333-.9628 1.8224-2.8178 0-4.2267 0-1.409 0-2.1134.6667-2.1134 1.3334 0 .6666.3522 1.3333 2.1134 2C17.8299 15.3333 21 16.3333 21 19c0 2.6667-2.4656 4-5.6357 4-2.8398 0-4.9312-1.3333-4.2268-2.6667.8102-1.5333 2.8179.3334 4.2268.3334s2.8179-.3334 2.8179-1.6667c0-1.3333-2.1135-1.6667-3.5224-2.3333-1.7612-.8334-3.5223-1.6667-3.5223-4C11.1375 10.3333 13.9554 9 16.0688 9Z"/>
  <defs>
    <linearGradient id="a" x1="5.88889" x2="25.3889" y1="8.05556" y2="24.3056" gradientUnits="userSpaceOnUse">
      <stop stop-color="#297AC0"/>
      <stop offset="1" stop-color="#48B0F9"/>
    </linearGradient>
  </defs>
</svg>
