<svg xmlns="http://www.w3.org/2000/svg" fill="none" viewBox="0 0 32 32">
  <path fill="#2EB67D" d="M26.5002 14.9996c1.3806 0 2.4998-1.1192 2.4998-2.4998S27.8807 10 26.5001 10C25.1194 10 24 11.1193 24 12.5v2.4996h2.5002Zm-7.0002 0c1.3807 0 2.5-1.1193 2.5-2.5V5.5C22 4.11929 20.8807 3 19.5 3S17 4.11929 17 5.5v6.9996c0 1.3807 1.1193 2.5 2.5 2.5Z"/>
  <path fill="#E01E5A" d="M5.49979 17.0004C4.11919 17.0004 3 18.1196 3 19.5002S4.1193 22 5.49989 22C6.8806 22 8 20.8807 8 19.5v-2.4996H5.49979Zm7.00021 0c-1.3807 0-2.5 1.1193-2.5 2.5V26.5c0 1.3807 1.1193 2.5 2.5 2.5s2.5-1.1193 2.5-2.5v-6.9996c0-1.3807-1.1193-2.5-2.5-2.5Z"/>
  <path fill="#ECB22E" d="M17.0004 26.5002c0 1.3806 1.1192 2.4998 2.4998 2.4998S22 27.8807 22 26.5001C22 25.1194 20.8807 24 19.5 24h-2.4996v2.5002Zm0-7.0002c0 1.3807 1.1193 2.5 2.5 2.5H26.5c1.3807 0 2.5-1.1193 2.5-2.5S27.8807 17 26.5 17h-6.9996c-1.3807 0-2.5 1.1193-2.5 2.5Z"/>
  <path fill="#36C5F0" d="M14.9996 5.49979C14.9996 4.11919 13.8804 3 12.4998 3S10 4.1193 10 5.49989C10 6.88061 11.1193 8 12.5 8h2.4996V5.49979Zm0 7.00021c0-1.3807-1.1193-2.5-2.5-2.5H5.5C4.11929 10 3 11.1193 3 12.5S4.11929 15 5.5 15h6.9996c1.3807 0 2.5-1.1193 2.5-2.5Z"/>
</svg>
