<svg xmlns="http://www.w3.org/2000/svg" fill="none" viewBox="0 0 32 32">
  <circle cx="16" cy="16" r="14" fill="#FFFA37"/>
  <path fill="#000" fill-rule="evenodd" d="M21.0255 8.18551C20.0601 6.96879 18.4673 6 16.0118 6c-2.1027.02071-6.30802 1.18445-6.30802 5.6738 0 .6556.0519 1.5337.09725 2.1803-.05345-.0155-.11915-.0446-.22328-.0945l-.01447-.0069c-.18413-.0884-.4641-.2229-.85348-.2229-.39335 0-.77369.1541-1.05605.3826-.28066.227-.52042.5761-.52042.9981 0 .5279.29708.8783.64445 1.103.30854.1996.6976.3271 1.00559.428l.03045.0099c.32967.1082.57128.1906.73787.2944.12967.0809.14935.132.15179.1806-.00169.0069-.00566.0218-.01429.046-.01778.05-.04735.1175-.09057.2019-.08622.1684-.21195.3755-.36151.5963-.30172.4455-.66994.9024-.94499 1.167-.2713.261-.7165.5853-1.18196.8435-.23083.128-.45656.2341-.65849.307-.20845.0752-.3612.1039-.45559.1039-.07472 0-.13939.0153-.16761.0224-.03967.0099-.08073.023-.12134.0383-.08056.0302-.17657.0756-.27167.1396-.18169.1223-.43546.3689-.43546.7579 0 .203.04766.3749.13005.524.07212.1305.16482.2296.21818.2866l.00792.0084.01476.0159c.29344.3157.77917.5354 1.25071.6861.40517.1295.85818.226 1.2996.2839.00623.0285.01275.0591.01988.0927l.0023.0109c.02779.131.0646.3046.11881.4647.05115.151.14378.3743.33343.5334.24153.2025.55744.223.76356.2222.22127-.0009.47961-.0321.72474-.0616l.02087-.0025c.34489-.0416.70579-.0845 1.07949-.0845.682 0 1.1192.2849 1.8051.7533l.0046.0032c.2376.1623.5036.3439.806.5226 1.0122.5981 1.8346.593 2.3007.59.0308-.0002.0599-.0003.0875-.0003.0276 0 .057.0001.0879.0003.4669.003 1.3112.0084 2.3239-.59.3024-.1787.5684-.3603.8059-.5226l.0047-.0032c.6859-.4684 1.1231-.7533 1.8051-.7533.3737 0 .7346.0429 1.0795.0845l.0209.0025c.2451.0295.5034.0607.7247.0616.2061.0008.522-.0197.7636-.2222.1896-.1591.2822-.3824.3334-.5334.0542-.16.091-.3336.1188-.4647l.0023-.0109c.0071-.0336.0136-.0642.0199-.0927.4414-.0579.8944-.1544 1.2996-.2839.4715-.1507.9573-.3705 1.2507-.6862l.0148-.0158.0078-.0084c.0534-.057.1461-.1561.2182-.2866.0824-.1491.1301-.321.1301-.524 0-.389-.2538-.6356-.4355-.7579-.0951-.064-.1911-.1094-.2716-.1396-.0406-.0153-.0817-.0284-.1214-.0383-.0282-.0071-.0929-.0224-.1676-.0224-.0944 0-.2471-.0287-.4556-.1039-.2019-.0729-.4276-.179-.6585-.307-.4654-.2582-.9106-.5825-1.1819-.8435-.2751-.2646-.6433-.7215-.945-1.167-.1496-.2208-.2753-.4279-.3615-.5963-.0432-.0844-.0728-.1519-.0906-.2019-.0086-.0242-.0126-.0391-.0143-.046.0025-.0486.0221-.0997.1518-.1806.1666-.1038.4082-.1862.7379-.2944l.0304-.0099c.308-.1009.6971-.2284 1.0056-.428.3474-.2247.6445-.5751.6445-1.103 0-.422-.2398-.7711-.5205-.9981-.2823-.2285-.6627-.3826-1.056-.3826-.3894 0-.6693.1345-.8535.2229l-.0144.0069c-.1042.0499-.1699.079-.2233.0945.0453-.6466.0972-1.5247.0972-2.1803 0-.8901-.3236-2.29476-1.2707-3.48829Zm-9.2423.58723c-.801 1.00275-1.0755 2.19346-1.0755 2.90106 0 .6561.0556 1.5675.1025 2.2211.0156.217-.0289.4701-.2185.6709-.1919.2033-.4529.2693-.68609.2693-.33672 0-.59281-.1232-.75663-.202l-.01902-.0091c-.18278-.0877-.27888-.1284-.42016-.1284-.12852 0-.28543.0552-.40986.1559-.12612.102-.16269.2019-.16269.259 0 .1164.04293.1996.20069.3016.18633.1205.45182.2111.79985.3253l.0303.0099c.28903.0947.64702.212.92951.3881.3171.1976.6101.5153.6101 1.0047 0 .1283-.0355.2518-.0688.3453-.0361.1015-.0849.2087-.1397.3156-.1096.2142-.2579.4561-.4209.6968-.32347.4776-.7346.994-1.0763 1.3227-.34545.3323-.86497.7058-1.39041.9973-.26463.1467-.54091.2783-.80731.3745-.23847.086-.49548.1534-.74204.164-.00614.0026-.01293.0057-.02004.0092-.01137.0058-.022.0119-.03128.0182l-.00474.0033c.00093.0066.00199.0115.00288.015.00197.0077.00431.0132.00746.0189.00967.0175.02491.037.08658.1031l.01618.0173c.1111.1196.38488.2747.81887.4134.41333.1321.90208.2275 1.36386.2713.23104.0219.3642.1663.42056.2441.05802.08.0912.1646.11059.2207.03751.1086.06584.2424.08819.3479l.00339.016c.03051.1438.0572.2668.09201.3695.0123.0364.02365.064.03342.0843.02203.0026.05582.005.10476.0048.21233-.0009.42491-.0325.63529-.0579.33658-.0406.75308-.0908 1.19408-.0908 1.0228 0 1.6977.4612 2.3497.9067l.0366.025c.2412.1647.483.3296.7549.4903.7662.4528 1.3492.4495 1.7752.4471.0299-.0001.0591-.0003.0875-.0003.0282 0 .0572.0002.0871.0003.4306.0023 1.0332.0056 1.7992-.4471.2719-.1607.5137-.3256.7549-.4903l.0366-.025c.652-.4455 1.3269-.9067 2.3497-.9067.441 0 .8575.0502 1.1941.0908l.0101.0012c.2722.0328.4714.056.6252.0567.0489.0002.0827-.0022.1047-.0048.0098-.0203.0211-.0479.0335-.0843.0348-.1027.0614-.2257.092-.3695l.0034-.016c.0223-.1056.0506-.2393.0881-.3479.0194-.0561.0526-.1407.1106-.2207.0564-.0778.1896-.2222.4206-.2441.4618-.0438.9505-.1392 1.3638-.2713.434-.1387.7078-.2938.8189-.4133l.0162-.0174c.0616-.0661.0769-.0856.0866-.1031.0031-.0057.0055-.0112.0074-.0189.0009-.0035.002-.0084.0029-.015l-.0047-.0033c-.0093-.0063-.0199-.0124-.0313-.0182-.0071-.0036-.0139-.0066-.02-.0092-.2466-.0106-.5036-.078-.7421-.164-.2664-.0962-.5427-.2278-.8073-.3745-.5254-.2915-1.0449-.665-1.3904-.9973-.3417-.3287-.7528-.8451-1.0763-1.3227-.163-.2407-.3113-.4826-.4209-.6968-.0548-.1069-.1036-.2141-.1397-.3156-.0333-.0935-.0688-.217-.0688-.3453 0-.4894.293-.8071.6101-1.0047.2825-.1761.6405-.2934.9295-.3881l.0303-.0099c.348-.1142.6135-.2048.7999-.3253.1577-.102.2006-.1852.2006-.3016 0-.0571-.0365-.157-.1626-.259-.1245-.1007-.2814-.1559-.4099-.1559-.1413 0-.2374.0407-.4202.1284l-.019.0091c-.1638.0788-.4199.202-.7566.202-.2332 0-.4942-.066-.6861-.2693-.1896-.2008-.2341-.4539-.2185-.6709.0469-.6536.1025-1.565.1025-2.2211 0-.7095-.2696-1.90028-1.0648-2.90231-.7767-.97885-2.0752-1.80574-4.2157-1.80574-2.1408 0-3.4458.82713-4.2286 1.80699Z" clip-rule="evenodd"/>
  <path fill="#fff" fill-rule="evenodd" d="M11.7829 8.77281c-.8011 1.00275-1.0755 2.19339-1.0755 2.90099 0 .6561.0556 1.5676.1025 2.2212.0155.217-.029.47-.2185.6709-.1919.2033-.4529.2693-.68611.2693-.33671 0-.5928-.1232-.75663-.202l-.01902-.0092c-.18278-.0876-.27887-.1284-.42015-.1284-.12852 0-.28544.0553-.40986.1559-.12613.1021-.16269.202-.16269.2591 0 .1164.04293.1995.20069.3016.18632.1205.45181.2111.79985.3252l.0303.01c.28902.0947.64701.2119.92952.388.3171.1977.6101.5154.6101 1.0048 0 .1283-.0355.2518-.0688.3453-.0361.1015-.085.2087-.1397.3156-.1096.2142-.2579.4561-.421.6968-.32339.4775-.73451.9939-1.07622 1.3227-.34545.3323-.86496.7058-1.39041.9972-.26463.1468-.5409.2784-.80731.3745-.23847.0861-.49548.1535-.74204.164-.00614.0026-.01293.0057-.02004.0093-.01137.0057-.022.0119-.03127.0181l-.00475.0033c.00093.0067.00199.0116.00288.0151.00197.0077.00431.0132.00747.0189.00966.0175.02491.037.08658.1031l.01618.0173c.11109.1195.38488.2746.81886.4134.41333.1321.90209.2275 1.36386.2713.23104.0219.36421.1663.42057.244.05801.0801.09119.1647.11058.2208.03751.1086.06584.2423.08819.3478l.0034.0161c.03051.1438.05719.2667.092.3695.0123.0363.02366.064.03343.0843.02203.0025.05581.0049.10475.0047.21233-.0008.42491-.0325.63529-.0578.3366-.0406.7531-.0908 1.1941-.0908 1.0228 0 1.6977.4612 2.3496.9066l.0366.025c.2413.1648.4831.3297.755.4904.7662.4528 1.3492.4495 1.7751.4471.03-.0002.0592-.0003.0876-.0003.0282 0 .0572.0001.0871.0003.4306.0023 1.0331.0056 1.7992-.4471.2719-.1607.5137-.3256.7549-.4904l.0366-.025c.652-.4454 1.3269-.9066 2.3497-.9066.441 0 .8575.0502 1.1941.0908l.0101.0012c.2722.0328.4714.056.6252.0566.0489.0002.0827-.0022.1047-.0047.0098-.0203.0211-.048.0334-.0843.0348-.1028.0615-.2257.092-.3695l.0034-.0161c.0224-.1055.0507-.2392.0882-.3478.0194-.0562.0526-.1407.1106-.2208.0564-.0778.1895-.2221.4206-.244.4618-.0438.9505-.1392 1.3638-.2713.434-.1388.7078-.2938.8189-.4134l.0162-.0173c.0616-.0661.0769-.0856.0866-.1031.0031-.0057.0055-.0112.0074-.0189.0009-.0035.002-.0084.0029-.0151l-.0047-.0033c-.0093-.0062-.0199-.0124-.0313-.0181-.0071-.0036-.0139-.0067-.0201-.0093-.2465-.0105-.5035-.0779-.742-.164-.2664-.0961-.5427-.2277-.8073-.3745-.5255-.2914-1.045-.6649-1.3904-.9972-.3417-.3288-.7528-.8452-1.0763-1.3227-.163-.2407-.3113-.4826-.421-.6968-.0547-.1069-.1035-.2141-.1397-.3156-.0332-.0935-.0687-.217-.0687-.3453 0-.4894.293-.8071.6101-1.0048.2825-.1761.6405-.2933.9295-.388l.0303-.01c.348-.1141.6135-.2047.7998-.3252.1578-.1021.2007-.1852.2007-.3016 0-.0571-.0365-.157-.1627-.2591-.1244-.1006-.2813-.1559-.4098-.1559-.1413 0-.2374.0408-.4202.1284l-.019.0092c-.1638.0788-.4199.202-.7566.202-.2332 0-.4942-.066-.6861-.2693-.1896-.2009-.2341-.4539-.2185-.6709.0469-.6536.1025-1.5651.1025-2.2212 0-.7094-.2696-1.9002-1.0648-2.90223-.7767-.97886-2.0752-1.80575-4.2158-1.80575-2.1408 0-3.4457.82714-4.2285 1.80699Z" clip-rule="evenodd"/>
</svg>
