<svg xmlns="http://www.w3.org/2000/svg" fill="none" viewBox="0 0 48 48">
  <circle cx="24" cy="24" r="20" fill="#F80"/>
  <path fill="#fff" fill-rule="evenodd" d="M13.16 26.8651c.05 0 .092-.0407.0993-.0974l.2673-2.1079-.2673-2.1553c-.008-.0573-.0493-.0967-.0993-.0967-.0514 0-.0934.0407-.0994.0974l-.2366 2.1546.2366 2.1073c.0067.0573.048.098.0994.098Zm-.8873-.8013c.0486 0 .0886-.0387.096-.0934l.208-1.3106-.208-1.3333c-.0074-.0553-.0467-.0933-.096-.0933-.05 0-.09.0386-.0967.094L12 24.6605l.176 1.3099c.0067.0554.0467.0934.0967.0934Zm1.9499-3.9606c-.0073-.068-.0573-.1173-.12-.1173-.0633 0-.1147.0493-.1207.1173 0 .0007-.224 2.5573-.224 2.5573l.224 2.4632c.006.0694.0574.118.1207.118.0627 0 .1127-.0487.12-.1173l.2553-2.4639-.2553-2.5573Zm.8307 5.2372c.0733 0 .134-.0587.1406-.1373l.24-2.5413-.24-2.6286c-.0066-.078-.0673-.138-.1406-.138-.0747 0-.1347.0593-.1407.1387l-.2113 2.6279.2113 2.5413c.006.0786.066.1373.1407.1373Zm.9579.042c.086 0 .1554-.068.162-.1587l-.0006.0007.2273-2.5626-.2273-2.4386c-.006-.0893-.0754-.158-.1614-.158s-.1546.0687-.1606.1593l-.1994 2.4373.1994 2.5626c.0053.09.0746.158.1606.158Zm1.36-2.7199-.2113-3.9659c-.006-.1007-.0854-.18-.1814-.18-.0973 0-.1773.0793-.1813.18l-.1873 3.9659.1873 2.5625c.0047.1.0847.1794.1813.1794.0967 0 .176-.0787.1814-.18v.0013l.2113-2.5632Zm.58 2.7459c.108 0 .1973-.088.2026-.2v.002l.198-2.5473-.198-4.8732c-.0053-.112-.0946-.2-.2026-.2-.1087 0-.1974.088-.202.2 0 .0007-.176 4.8732-.176 4.8732l.176 2.5459c.0046.1114.0933.1994.202.1994Zm.9813-8.2451c-.1213 0-.2187.0973-.2227.2213l-.1633 5.2785.1633 2.5206c.004.1227.1014.22.2227.22.12 0 .2173-.0973.2226-.2213v.002l.1834-2.5213-.1834-5.2785c-.0046-.124-.1026-.2213-.2226-.2213Zm.9893 8.2451c.132 0 .2393-.1053.2433-.2413v.0013l.17-2.5046-.17-5.4572c-.004-.136-.1113-.242-.2433-.242-.1327 0-.2393.106-.2427.242l-.152 5.4572.152 2.5046c.0027.1347.11.24.2427.24Zm.9973-.0027c.1433 0 .26-.1147.2633-.2626v.0026l.1567-2.4826-.1567-5.3178c-.0033-.1467-.12-.262-.2633-.262-.1447 0-.2613.1153-.264.2626l-.1387 5.3172.1387 2.4813c.0027.1466.1193.2613.264.2613Zm1.4313-2.7412-.1433-5.1239c-.0034-.1587-.128-.2827-.284-.2827-.156 0-.2814.1247-.2847.2827l-.126 5.1239.126 2.4652c.0033.1567.128.2813.2847.2813.1553 0 .2806-.1246.284-.2826v.0013l.1433-2.4652Zm.586 2.7512c.164 0 .3013-.136.3033-.3033v.002l.1287-2.4493-.1287-6.0971c-.002-.1674-.1393-.304-.3033-.304-.166 0-.3027.1366-.3047.304l-.1153 6.0951c0 .0047.1153 2.4513.1153 2.4513.002.1653.1387.3013.3047.3013Zm1.0079-9.7237c-.178 0-.3233.1453-.3253.324l-.1333 6.6498.1333 2.4133c.002.1766.148.3213.3253.3213.176 0 .322-.1454.324-.3233v.002l.1447-2.4133-.1447-6.6505c-.002-.1787-.148-.3233-.324-.3233Zm.922 9.7257c.0074.0007 8.1291.0053 8.1818.0053C34.678 27.423 36 26.1011 36 24.4705c0-1.6307-1.3213-2.952-2.9519-2.952-.404 0-.79.082-1.1413.2287C31.6721 19.0866 29.4409 17 26.7196 17c-.666 0-1.3146.1313-1.8879.3527-.2234.0866-.282.1753-.284.3473v9.3691c.002.1806.1413.3306.3186.3486Z" clip-rule="evenodd"/>
</svg>
