<svg xmlns="http://www.w3.org/2000/svg" fill="none" viewBox="0 0 32 32">
  <path fill="#F48024" d="M16 2C8.27812 2 2 8.27812 2 16c0 7.7219 6.27812 14 14 14 7.7219 0 14-6.2781 14-14 0-7.72188-6.2781-14-14-14Z"/>
  <path fill="#fff" d="m19.5405 18.3626-7.4323-1.0743.2576-1.6278 7.2679 1.3976-.0932 1.3045Zm.1315-1.732-6.5772-3.0694.6029-1.3154 6.5772 3.0694-.6029 1.3154Zm.877-1.6443-5.5907-4.6589.9318-1.09618 5.5907 4.65888-.9318 1.0962ZM17.37 7.80615l1.151-.87695 4.33 5.8099-1.151.877-4.33-5.80995Zm2.1924 12.71595H11.889v-1.6443h7.6734v1.6443Z"/>
  <path fill="#fff" d="M20.6586 17.2334v4.3848h-9.8659v-4.3848H9.14844v6.0291H22.3029v-6.0291h-1.6443Z"/>
</svg>
