<svg xmlns="http://www.w3.org/2000/svg" fill="none" viewBox="0 0 32 32">
  <circle cx="16" cy="16" r="14" fill="#4B4B4B"/>
  <path fill="url(#a)" fill-rule="evenodd" d="M23.9978 16.0579c0-.2344-.18-.3696-.4009-.3024L8.40089 20.3934C8.17956 20.461 8 20.7061 8 20.9401v4.7402c0 .2344.17956.37.40089.3024l15.19601-4.6375c.2209-.0676.4009-.3127.4009-.5471v-4.7402Z" clip-rule="evenodd"/>
  <path fill="#FF9800" fill-rule="evenodd" d="M8 15.9092c0 .2344.17956.4795.40089.5471l15.19821 4.6384c.2213.0676.4009-.068.4009-.302v-4.7406c0-.234-.1796-.4791-.4009-.5467L8.40089 10.867C8.17956 10.7994 8 10.9346 8 11.169v4.7402Z" clip-rule="evenodd"/>
  <path fill="#FF9800" fill-rule="evenodd" d="M23.9978 6.31981c0-.23442-.18-.37002-.4009-.30243L8.40089 10.6549C8.17956 10.7225 8 10.9676 8 11.202v4.7402c0 .2344.17956.3696.40089.3024l15.19601-4.6379c.2209-.0676.4009-.3127.4009-.5467V6.31981Z" clip-rule="evenodd"/>
  <defs>
    <linearGradient id="a" x1="16.8175" x2="18.5031" y1="22.8745" y2="18.5899" gradientUnits="userSpaceOnUse">
      <stop stop-color="#FF9700"/>
      <stop offset=".53" stop-color="#F48E00"/>
      <stop offset="1" stop-color="#D06F00"/>
    </linearGradient>
  </defs>
</svg>
