<svg xmlns="http://www.w3.org/2000/svg" fill="none" viewBox="0 0 32 32">
  <path fill="url(#a)" d="M22.1356 25.2715c-3.3006 1.8985-7.8389 2.0936-12.40481.1451C6.03387 23.8505 2.96639 21.109 1 17.9767c.94387.7831 2.04503 1.4098 3.22484 1.9577C8.9401 22.135 13.6544 21.9843 16.972 19.94c-4.7194-3.6026-8.73574-8.3074-11.7245-12.14453-.62951-.6266-1.10145-1.4098-1.57338-2.11463C7.29225 8.97014 13.0343 13.1207 15.0789 14.296 10.7535 9.75321 6.8991 4.1147 7.0561 4.27103 13.8993 11.163 20.2707 15.079 20.2707 15.079c.2108.1184.3735.2169.5043.305.1379-.3493.2588-.712.3607-1.088 1.1011-3.9942-.157-8.537-2.9103-12.296 6.3708 3.83752 10.1467 11.0425 8.5731 17.0732-.041.1627-.0856.3233-.1337.481 3.1458 3.9161 2.336 8.1342 1.9428 7.3511-1.7066-3.3252-4.8658-2.3084-6.472-1.6338Z"/>
  <defs>
    <linearGradient id="a" x1="15.0103" x2="15.0103" y1="2" y2="27.0013" gradientUnits="userSpaceOnUse">
      <stop stop-color="#F88A36"/>
      <stop offset="1" stop-color="#FD2020"/>
    </linearGradient>
  </defs>
</svg>
