<svg xmlns="http://www.w3.org/2000/svg" fill="none" viewBox="0 0 31 32">
  <path fill="#5FC424" d="M24.7273 1.45455H10.1818c-3.21328 0-5.81816 2.60488-5.81816 5.81818V24.7273c0 3.2133 2.60488 5.8182 5.81816 5.8182h14.5455c3.2133 0 5.8182-2.6049 5.8182-5.8182V7.27273c0-3.2133-2.6049-5.81818-5.8182-5.81818Z"/>
  <path fill="url(#a)" d="M21.8182 0H5.81818C2.60489 0 0 2.60489 0 5.81818V26.1818C0 29.3951 2.60489 32 5.81818 32H21.8182c3.2133 0 5.8182-2.6049 5.8182-5.8182V5.81818C27.6364 2.60489 25.0315 0 21.8182 0Z"/>
  <path fill="#fff" fill-opacity=".6" d="M4.36364 17.4545 8 15.2727l3.6364 2.1818V6.54545c0-1.20498-.9769-2.18181-2.18186-2.18181H6.54545c-1.20498 0-2.18181.97683-2.18181 2.18181V17.4545Z"/>
  <defs>
    <linearGradient id="a" x1="15.2727" x2="15.2727" y1="0" y2="32" gradientUnits="userSpaceOnUse">
      <stop stop-color="#A2E458"/>
      <stop offset="1" stop-color="#50CD06"/>
    </linearGradient>
  </defs>
</svg>
