<svg xmlns="http://www.w3.org/2000/svg" fill="none" viewBox="0 0 32 32">
  <path fill="url(#a)" d="M19 13.9032c0-.4988.4044-.9032.9032-.9032h11.1936c.4988 0 .9032.4044.9032.9032V20.5c0 3.5899-2.9101 6.5-6.5 6.5S19 24.0899 19 20.5v-6.5968Z"/>
  <path fill="url(#b)" d="M9 12.2258C9 11.5488 9.54881 11 10.2258 11h13.5484c.677 0 1.2258.5488 1.2258 1.2258V22c0 4.4183-3.5817 8-8 8s-8-3.5817-8-8v-9.7742Z"/>
  <circle cx="27" cy="8" r="3" fill="#34439E"/>
  <circle cx="27" cy="8" r="3" fill="url(#c)"/>
  <circle cx="18" cy="6" r="4" fill="url(#d)"/>
  <mask id="g" width="16" height="30" x="9" y="0" maskUnits="userSpaceOnUse" style="mask-type:alpha">
    <path fill="url(#e)" d="M17 10c2.7615 0 5-2.23853 5-5s-2.2385-5-5-5-5 2.23853-5 5 2.2385 5 5 5Z"/>
    <path fill="url(#f)" d="M10.2258 11C9.54883 11 9 11.5488 9 12.2258V22c0 4.4183 3.5817 8 8 8s8-3.5817 8-8v-9.7742C25 11.5488 24.4512 11 23.7742 11H10.2258Z"/>
  </mask>
  <g mask="url(#g)">
    <path fill="#000" fill-opacity=".3" d="M7 12c0-1.6569 1.34315-3 3-3h7c1.6569 0 3 1.3431 3 3v12c0 1.6569-1.3431 3-3 3H7V12Z"/>
  </g>
  <rect width="18" height="18" y="7" fill="url(#h)" rx="2"/>
  <path fill="#fff" d="M13 11H5v1.8347h2.99494V21h2.01016v-8.1653H13V11Z"/>
  <defs>
    <linearGradient id="a" x1="19" x2="32.1591" y1="13.7368" y2="22.3355" gradientUnits="userSpaceOnUse">
      <stop stop-color="#364088"/>
      <stop offset="1" stop-color="#6E7EE1"/>
    </linearGradient>
    <linearGradient id="b" x1="9" x2="25" y1="19.4038" y2="19.4038" gradientUnits="userSpaceOnUse">
      <stop stop-color="#515FC4"/>
      <stop offset="1" stop-color="#7084EA"/>
    </linearGradient>
    <linearGradient id="c" x1="24" x2="29.7963" y1="5.31579" y2="9.39469" gradientUnits="userSpaceOnUse">
      <stop stop-color="#364088"/>
      <stop offset="1" stop-color="#6E7EE1"/>
    </linearGradient>
    <linearGradient id="d" x1="15.1429" x2="20.2857" y1="3.14286" y2="9.14286" gradientUnits="userSpaceOnUse">
      <stop stop-color="#4858AE"/>
      <stop offset="1" stop-color="#4E60CE"/>
    </linearGradient>
    <linearGradient id="e" x1="13.4286" x2="19.8571" y1="1.42857" y2="8.92857" gradientUnits="userSpaceOnUse">
      <stop stop-color="#4858AE"/>
      <stop offset="1" stop-color="#4E60CE"/>
    </linearGradient>
    <linearGradient id="f" x1="13.4286" x2="19.8571" y1="1.42857" y2="8.92857" gradientUnits="userSpaceOnUse">
      <stop stop-color="#4858AE"/>
      <stop offset="1" stop-color="#4E60CE"/>
    </linearGradient>
    <linearGradient id="h" x1="-5e-8" x2="18" y1="16" y2="16" gradientUnits="userSpaceOnUse">
      <stop stop-color="#2A3887"/>
      <stop offset="1" stop-color="#4C56B9"/>
    </linearGradient>
  </defs>
</svg>
