<svg xmlns="http://www.w3.org/2000/svg" fill="none" viewBox="0 0 32 32">
  <g filter="url(#a)">
    <path fill="url(#b)" d="M20 4.00012 9.4728 14.5273c-.94302.943-1.47278 2.222-1.47283 3.5556l.00002 1.6392c.00001 1.048-.32747 2.0698-.93658 2.9226l-3.14252 4.3995c-.21082.2951-.17736.6994.07911.9559.25647.2565.66077.2899.95591.0791l4.39952-3.1425c.85277-.6091 1.87457-.9366 2.92267-.9366h1.6391c1.3336 0 2.6126-.5298 3.5556-1.4728L28 12.0001c2.2091-2.20912 2.2091-5.79084 0-7.99998-2.2091-2.20914-5.7909-2.20914-8 0Z"/>
  </g>
  <path fill="url(#c)" fill-rule="evenodd" d="m19.5557 4.44446-.8889.88889 2.2222 2.22222c.2455.24546.6434.24546.8889 0 .2454-.24546.2454-.64343 0-.88889l-2.2222-2.22222Zm-3.5556 3.55556 2.2222 2.22218c.2455.2455.6435.2455.8889 0 .2455-.24542.2455-.64339 0-.88885L16.889 7.11113l-.8889.88889Zm-1.7778 1.77776-.8888.88892 2.2222 2.2222c.2454.2454.6434.2454.8889 0 .2454-.2455.2454-.6434 0-.8889l-2.2223-2.22222Zm-3.5555 3.55552 2.2222 2.2223c.2455.2454.6434.2454.8889 0 .2455-.2455.2455-.6435 0-.8889l-2.2222-2.2223-.8889.8889Z" clip-rule="evenodd"/>
  <path fill="url(#d)" d="M25.3331 7.55562c.2455-.24546.2455-.64343 0-.88889-.2454-.24546-.6434-.24546-.8889 0L12.8887 18.2223c-.2455.2454-.2455.6434 0 .8889.2454.2454.6434.2454.8889 0L25.3331 7.55562Z"/>
  <path fill="url(#e)" fill-rule="evenodd" d="M10.1468 24.4737c-.81043-.9348-1.68638-1.8107-2.62117-2.6212-.1292.2762-.28389.5415-.46292.7921L3.9202 27.0441c-.21081.2952-.17735.6995.07912.9559.25647.2565.66077.29.9559.0791l4.39952-3.1425c.25063-.179.51586-.3337.79206-.4629Z" clip-rule="evenodd"/>
  <defs>
    <radialGradient id="b" cx="0" cy="0" r="1" gradientTransform="matrix(-23.95778 24.91583 -8.30525 -7.9859 21.288 6.93591)" gradientUnits="userSpaceOnUse">
      <stop stop-color="#fff"/>
      <stop offset="1" stop-color="#AEF1FD"/>
    </radialGradient>
    <radialGradient id="e" cx="0" cy="0" r="1" gradientTransform="matrix(-3.44428 5.5557 -2.98195 -1.84867 8.01294 23.162)" gradientUnits="userSpaceOnUse">
      <stop stop-color="#FE6100"/>
      <stop offset="1" stop-color="#E94A09"/>
    </radialGradient>
    <linearGradient id="c" x1="26.7873" x2="12.2944" y1="4.87375" y2="-2.82483" gradientUnits="userSpaceOnUse">
      <stop stop-color="#64CCF3"/>
      <stop offset="1" stop-color="#64CCF3" stop-opacity="0"/>
    </linearGradient>
    <linearGradient id="d" x1="30.9271" x2="26.6099" y1="2.73746" y2="-.993105" gradientUnits="userSpaceOnUse">
      <stop stop-color="#64CCF3"/>
      <stop offset="1" stop-color="#64CCF3" stop-opacity="0"/>
    </linearGradient>
    <filter id="a" width="28.874" height="25.8741" x="2.78271" y="2.34326" color-interpolation-filters="sRGB" filterUnits="userSpaceOnUse">
      <feFlood flood-opacity="0" result="BackgroundImageFix"/>
      <feBlend in="SourceGraphic" in2="BackgroundImageFix" result="shape"/>
      <feColorMatrix in="SourceAlpha" result="hardAlpha" values="0 0 0 0 0 0 0 0 0 0 0 0 0 0 0 0 0 0 127 0"/>
      <feOffset dx="-1"/>
      <feGaussianBlur stdDeviation=".5"/>
      <feComposite in2="hardAlpha" k2="-1" k3="1" operator="arithmetic"/>
      <feColorMatrix values="0 0 0 0 0.419608 0 0 0 0 0.823529 0 0 0 0 0.956863 0 0 0 1 0"/>
      <feBlend in2="shape" result="effect1_innerShadow_103_1650"/>
      <feColorMatrix in="SourceAlpha" result="hardAlpha" values="0 0 0 0 0 0 0 0 0 0 0 0 0 0 0 0 0 0 127 0"/>
      <feOffset/>
      <feGaussianBlur stdDeviation="1"/>
      <feComposite in2="hardAlpha" k2="-1" k3="1" operator="arithmetic"/>
      <feColorMatrix values="0 0 0 0 0.419608 0 0 0 0 0.823529 0 0 0 0 0.956863 0 0 0 1 0"/>
      <feBlend in2="effect1_innerShadow_103_1650" result="effect2_innerShadow_103_1650"/>
      <feColorMatrix in="SourceAlpha" result="hardAlpha" values="0 0 0 0 0 0 0 0 0 0 0 0 0 0 0 0 0 0 127 0"/>
      <feOffset dx="2"/>
      <feGaussianBlur stdDeviation="1"/>
      <feComposite in2="hardAlpha" k2="-1" k3="1" operator="arithmetic"/>
      <feColorMatrix values="0 0 0 0 1 0 0 0 0 1 0 0 0 0 1 0 0 0 1 0"/>
      <feBlend in2="effect2_innerShadow_103_1650" result="effect3_innerShadow_103_1650"/>
    </filter>
  </defs>
</svg>
