<svg xmlns="http://www.w3.org/2000/svg" fill="none" viewBox="0 0 32 32">
  <path fill="#59316B" d="M2 16C2 8.26801 8.26801 2 16 2c7.732 0 14 6.26801 14 14 0 7.732-6.268 14-14 14-7.73199 0-14-6.268-14-14Z"/>
  <path fill="#ABCD03" d="m17.0341 5.64229-.5712 2.3251C17.272 6.32521 18.5572 5.0895 20.0329 4c-1.079 1.28452-2.0626 2.56916-2.6656 3.85369 1.0155-1.46347 2.38-2.2764 3.919-2.813-2.0468 1.86993-3.6715 3.87646-4.9091 5.89271l-.9836-.439c.1743-1.60975.7678-3.25851 1.6405-4.85211Z"/>
  <path fill="#FFFCDB" d="m14.4073 10.0669 1.8723.796c0 .4879-.0387 1.976.259 2.415 3.1139 4.1098 2.59 12.348-.6307 12.5593-4.9046 0-6.77509-3.4145-6.77509-6.5528 0-2.8618 3.34769-4.7642 5.34699-6.4552.5077-.4553.4196-1.4615-.0725-2.7623Z"/>
  <path fill="#fff" d="m16.2803 10.8345.6747.3527c-.0634.4552.0317 1.4635.4759 1.7235 1.9675 1.252 3.8238 2.6179 4.5537 3.9837 2.6022 4.8131-1.8246 9.2682-5.6484 8.8455 2.0785-1.5773 2.6814-4.813 1.904-8.3415-.3173-1.3822-.8093-2.6342-1.682-4.0488-.3781-.6944-.2461-1.5556-.2779-2.5151Z"/>
  <path fill="#000" d="m15.9552 10.7157 1.3962.1951c-.4125 1.3984.8093 2.3739 1.2059 2.6017.8885.5041 1.7453 1.0244 2.4276 1.6585C22.2702 16.3742 23 18.0653 23 19.8539c0 1.7723-.7934 3.4796-2.1261 4.6178-1.2535 1.0732-2.9829 1.5285-4.6648 1.5285-1.0472 0-1.9833-.0487-2.9987-.3903-2.3164-.7967-4.04595-2.8292-4.18873-5.2683-.12698-1.9025.28556-3.3496 1.72953-4.8618.7456-.7967 2.253-1.7073 3.2844-2.439.5078-.3578 1.0472-1.366.0158-3.2683l.2063-.16264 1.5285 1.04914-1.2904-.545c.111.1626.4125.8943.4761 1.1057.1428.6016.0793 1.1871-.0477 1.4471-.6504 1.2033-1.7611 1.5285-2.5702 2.2114-1.4281 1.2032-2.98299 2.1626-2.80849 5.4634.07935 1.6259 1.31699 3.6097 3.17319 4.5366 1.0473.5204 2.2532.7317 3.4749.7967 1.0947.0488 3.1891-.6179 4.3315-1.5935 1.2217-1.0405 1.904-2.6178 1.904-4.2275 0-1.6261-.6347-3.1708-1.8247-4.2603-.6823-.6341-1.8087-1.3983-2.5068-1.8049-.6981-.4065-1.5708-1.5447-1.2853-2.6341l-.8571-.4389Z"/>
  <path fill="#000" d="M15.5267 13.1221c-.1428.748-.3015 2.0975-.9361 2.6016-.2698.1951-.5396.3903-.8251.5853-1.1424.7969-2.2849 1.5447-2.8083 3.4634-.1111.4066-.0158.8456.0794 1.2521.2856 1.1707 1.0947 2.439 1.7294 3.187 0 .0325.127.1139.127.1464.5236.6342.6823.813 2.6655 1.2682l-.0476.2277c-1.19-.3251-2.1736-.6178-2.7925-1.3496 0-.0162-.1111-.1301-.1111-.1301-.6664-.7806-1.4757-2.0813-1.777-3.3008-.1111-.4879-.2062-.8618-.0794-1.366.5394-1.9836 1.7136-2.7642 2.9036-3.5934.2698-.1788.5871-.3416.8409-.5529.4918-.3739.7614-1.5122 1.0313-2.4389Z"/>
  <path fill="#000" d="M16.0344 16.2114c.016.8456-.0646 1.2698.1416 1.8715.1269.3576.5556.8455.6826 1.3171.1745.6342.3645 1.3333.3485 1.7561 0 .4879-.0298 1.398-.236 2.3737-.1572.8062-.5197 1.4979-1.1291 1.8901-.6242-.1318-1.3572-.3566-1.7898-.7367-.8409-.7479-1.5857-1.9986-1.6809-3.0881-.0793-.8942.7287-2.2131 1.8552-2.8797.9519-.5691 1.1733-1.2177 1.3795-2.2584-.2855.9105-.5537 1.6739-1.4739 2.1616-1.3328.7155-2.0167 1.9164-1.9532 3.0546.0951 1.4634.667 2.455 1.7934 3.2518.476.3415 1.3652.7023 1.9206.7999v-.0744c.4211-.0808.9663-.7896 1.238-1.7486.238-.8618.3318-1.9647.3158-2.664-.0159-.4064-.1909-1.2868-.5083-2.0835-.1745-.439-.4425-.8779-.6171-1.1869-.1902-.3092-.1916-.9756-.2869-1.7561Z"/>
  <path fill="#000" d="M15.9395 19.3999c.0158.5691.2389 1.2983.334 2.0463.0795.5529.045 1.1083.0291 1.5962-.0157.5647-.1993 1.5765-.4502 2.0686-.2366-.1112-.3291-.238-.4829-.4428-.1903-.2764-.3195-.5529-.4465-.878-.0952-.244-.2064-.5232-.2541-.8483-.0635-.4878-.0457-1.2509.4937-2.0314.4125-.618.5071-.6649.6499-1.3804-.1906.6341-.3326.6988-.777 1.2353-.4917.5854-.5736 1.4476-.5736 2.1467 0 .2928.1139.6176.2251.9265.1269.3252.2358.6491.4103.8929.2623.3954.598.6202.7624.6623.001.0002.0025-.0003.0036 0 .0035.0008.0075.003.0109.0037v-.0186c.3078-.3518.4931-.7012.5554-1.053.0794-.4227.0976-.8464.1453-1.3505.0475-.4228.013-.9923-.0981-1.5775-.1585-.7318-.4262-1.4778-.5373-1.998Z"/>
  <path fill="#000" d="M15.9871 12.439c.0159.8454.0793 2.4228.3015 3.0406.0634.2113.6504 1.1382 1.0629 2.2601.2856.7805.3491 1.496.3967 1.7073.1904.9269-.0476 2.4878-.365 3.9675-.1586.7967-.6981 1.7886-1.3169 2.1789l-.1268.2276c.3491-.0163 1.2057-.878 1.5072-1.9512.5078-1.8211.714-2.6667.4761-4.683-.0317-.1952-.111-.8617-.4125-1.5772-.4443-1.0895-1.079-2.1301-1.1582-2.3416-.1429-.3413-.3333-1.821-.365-2.829Z"/>
  <path fill="#000" d="M16.2845 11.2827c-.047.8689-.0596 1.1889.0989 1.823.1745.6992 1.0632 1.7073 1.4281 2.8618.6981 2.2114.5236 5.1057.0158 7.3658-.1903.7966-1.0949 1.9513-1.9992 2.3251l.6664.1626c.3649-.0163 1.301-.9105 1.666-1.9349.5869-1.6098.6981-3.5284.46-5.5447-.0159-.1951-.3333-1.9349-.6346-2.6666-.4285-1.0894-1.1901-2.0651-1.2694-2.2763-.1426-.3578-.4561-1.1006-.432-2.1158Z"/>
  <path fill="#000" d="M15.7803 10.6714h.492005V25.675H15.7803z"/>
</svg>
