<svg xmlns="http://www.w3.org/2000/svg" fill="none" viewBox="0 0 48 48">
  <circle cx="24" cy="24" r="20" fill="#1DA1F2"/>
  <path fill="#fff" fill-rule="evenodd" d="M36 16.3086c-.8823.392-1.8319.656-2.8278.7752 1.0167-.6096 1.7975-1.5743 2.1646-2.7238-.9503.5647-2.0054.9735-3.1261 1.1951C31.3123 14.5984 30.0316 14 28.6165 14c-2.719 0-4.9237 2.2047-4.9237 4.9237 0 .3855.044.7615.128 1.1223-4.0925-.2048-7.7203-2.1655-10.1489-5.1445-.424.7272-.6664 1.5727-.6664 2.4751 0 1.7079.868 3.215 2.1903 4.0981-.808-.0256-1.5663-.2472-2.2311-.616v.0616c0 2.3863 1.6983 4.3757 3.9494 4.8293-.4128.112-.848.1728-1.2967.1728-.3176 0-.6264-.0312-.9272-.0888.6264 1.9559 2.4455 3.3798 4.5997 3.4198-1.6847 1.3199-3.8077 2.1078-6.1148 2.1078-.3984 0-.7903-.0232-1.1751-.0696 2.1791 1.3968 4.7669 2.2127 7.5475 2.2127 9.0562 0 14.0087-7.5027 14.0087-14.0087 0-.2136-.004-.4263-.0144-.6367.9631-.696 1.7982-1.5631 2.4582-2.5503Z" clip-rule="evenodd"/>
</svg>
