<svg xmlns="http://www.w3.org/2000/svg" fill="none" viewBox="0 0 32 32">
  <path fill="#BFC8D0" fill-rule="evenodd" d="M30 15.3785C30 6.20699 26.7692 2 16 2 5.23077 2 2 6.20699 2 15.3785c0 6.527 1.63629 10.5397 6.46154 12.311v3.0879c0 1.1367 1.42615 1.6558 2.16486.7882l2.49-2.9245c.8949.0774 1.8549.1158 2.8836.1158 10.7692 0 14-4.207 14-13.3784ZM13.7113 26.5316c.7138.0566 1.4759.0848 2.2887.0848 9.1124 0 11.8462-3.5339 11.8462-11.2379 0-7.70407-2.7338-11.23795-11.8462-11.23795-9.11243 0-11.84615 3.53388-11.84615 11.23795 0 5.4454 1.3658 8.8074 5.38461 10.3106v4.5748c0 .3988.50044.581.75964.2765l3.4132-4.0088Z" clip-rule="evenodd"/>
  <path fill="#9179EE" d="M16 25.8548c-.8234 0-1.5953-.0286-2.3185-.0863L10.224 29.845c-.26255.3096-.76945.1243-.76945-.2812v-4.6519C5.38354 23.3834 4 19.9647 4 14.4274 4 6.59346 6.76923 3 16 3c9.2308 0 12 3.59346 12 11.4274 0 7.8339-2.7692 11.4274-12 11.4274Z"/>
  <path fill="#fff" fill-rule="evenodd" d="M30 14.3785C30 5.20699 26.7692 1 16 1 5.23077 1 2 5.20699 2 14.3785c0 6.527 1.63629 10.5397 6.46154 12.311v3.0879c0 1.1367 1.42615 1.6558 2.16486.7882l2.49-2.9245c.8949.0774 1.8549.1158 2.8836.1158 10.7692 0 14-4.207 14-13.3784ZM13.7113 25.5316c.7138.0566 1.4759.0848 2.2887.0848 9.1124 0 11.8462-3.5339 11.8462-11.2379 0-7.70407-2.7338-11.23795-11.8462-11.23795-9.11243 0-11.84615 3.53388-11.84615 11.23795 0 5.4454 1.3658 8.8074 5.38461 10.3106v4.5748c0 .3988.50044.581.75964.2765l3.4132-4.0088Z" clip-rule="evenodd"/>
  <path fill="#fff" stroke="#fff" stroke-linecap="round" d="m11.5432 12.1345-.0406.0225-.0358.0296c-.2766.2288-.6912.8568-.328 1.6331.3026.6468.9769 1.9677 2.1617 2.9629 1.1587.9734 2.396 1.4969 3.2087 1.6683l.0511.0108h.0466c.0022.0002.0071.0007.015.0019.0193.0027.0426.0067.0793.0131l.0862-.4925-.0862.4925c.0063.0011.0128.0023.0196.0035.2501.0442.8496.1502 1.3521-.3505.3225-.3214.6169-.6565.7436-.8072.089-.0812.3791-.2494.7461-.1253.695.2349 1.5213.7649 1.9207 1.0336.3092.2082 1.0091.7096 1.3246.9374l.0003.0002c.0262.0189.0877.0809.1209.167.0266.0688.0409.1634-.023.3003-.1186.2538-.4795.7383-.9683 1.1621-.4977.4316-1.0156.7022-1.4306.7022.0015 0 0-.0002-.0047-.0008-.0185-.0025-.0872-.0118-.2233-.0424-.153-.0343-.3597-.0882-.6123-.1642-.5047-.1519-1.1819-.3886-1.964-.7251-1.5654-.6734-3.5361-1.7398-5.3811-3.3103-1.1605-.9878-2.2554-2.3536-3.108-3.6321-.85973-1.2893-1.43484-2.4319-1.59136-2.9596l-.01096-.037-.01648-.0348c-.03897-.0823-.09388-.2582-.09498-.4577-.00107-.19267.04723-.37677.17463-.52943.42002-.50335.86473-.99798 1.84584-1.47262.09139-.04421.23455-.08319.37526-.08546.14425-.00232.21945.03351.24945.05986.3754.32916.9573.91022 1.3493 1.40678.2026.25651.4473.58237.6513.86547.102.1416.1919.27.2604.3721.0343.0512.0617.0935.0819.1261.0138.0224.0212.0355.0243.0411.0017.0057.0094.0299.0162.074.0085.0555.0125.1238.0068.1952-.0119.146-.0599.2633-.1462.3424-.293.2683-.6902.5167-.846.603Zm4.7334-5.61837c.0003-.00028.0006-.00056.0009-.00086.0072-.00675.0219-.01527.0451-.01527 3.9919 0 7.1758 3.03785 7.1774 6.723-.0006.0009-.0017.0021-.0033.0037-.0072.0067-.022.0152-.0451.0152-.0231 0-.0379-.0085-.0451-.0152-.0016-.0016-.0026-.0028-.0033-.0037-.0016-3.72354-3.2-6.69074-7.0806-6.69074-.0232 0-.0379-.00852-.0451-.01527-.0003-.0003-.0006-.00059-.0009-.00086Zm.0009 4.12987c-.0003-.0003-.0006-.0006-.0009-.0008l.0009-.0009c.0072-.0067.0219-.0153.0451-.0153 1.569 0 2.7887 1.1892 2.7903 2.594-.0006.0009-.0017.0021-.0033.0037-.0072.0067-.0219.0152-.0451.0152-.0231 0-.0379-.0085-.0451-.0152-.0016-.0016-.0026-.0028-.0033-.0037-.0016-1.4431-1.2358-2.5617-2.6935-2.5617-.0232 0-.0379-.0085-.0451-.0153Zm0-2.0645c-.0003-.00029-.0006-.00058-.0009-.00085.0003-.00028.0006-.00057.0009-.00086.0072-.00675.0219-.01527.0451-.01527 2.7805 0 4.9822 2.11348 4.9839 4.65848-.0007.0009-.0017.0021-.0033.0037-.0072.0067-.022.0152-.0451.0152-.0232 0-.038-.0085-.0451-.0152-.0016-.0016-.0027-.0028-.0033-.0037-.0016-2.5833-2.218-4.62623-4.8871-4.62623-.0232 0-.0379-.00852-.0451-.01527Z"/>
</svg>
