<svg xmlns="http://www.w3.org/2000/svg" fill="none" viewBox="0 0 32 32">
  <path fill="#5FC424" fill-rule="evenodd" d="M14.5455 0c-.8034 0-1.4546.651222-1.4546 1.45455 0 .80331.6512 1.45454 1.4546 1.45454v4.36364c0 .80331.6512 1.45454 1.4545 1.45454.8033 0 1.4545-.65123 1.4545-1.45454V2.90909c.8034 0 1.4546-.65123 1.4546-1.45454C18.9091.651222 18.2579 0 17.4545 0h-2.909ZM8.72727 16c0-.8033-.65123-1.4545-1.45454-1.4545H2.90909c0-.8034-.65123-1.4546-1.45454-1.4546C.651223 13.0909 0 13.7421 0 14.5455v2.909c0 .8034.651223 1.4546 1.45455 1.4546.80331 0 1.45454-.6512 1.45454-1.4546h4.36364c.80331 0 1.45454-.6512 1.45454-1.4545ZM32 14.5455c0-.8034-.6512-1.4546-1.4545-1.4546-.8034 0-1.4546.6512-1.4546 1.4546h-4.3636c-.8034 0-1.4546.6512-1.4546 1.4545 0 .8033.6512 1.4545 1.4546 1.4545h4.3636c0 .8034.6512 1.4546 1.4546 1.4546.8033 0 1.4545-.6512 1.4545-1.4546v-2.909Zm-16 8.7272c-.8033 0-1.4545.6512-1.4545 1.4546v4.3636c-.8034 0-1.4546.6512-1.4546 1.4546 0 .8033.6512 1.4545 1.4546 1.4545h2.909c.8034 0 1.4546-.6512 1.4546-1.4545 0-.8034-.6512-1.4546-1.4546-1.4546v-4.3636c0-.8034-.6512-1.4546-1.4545-1.4546Z" clip-rule="evenodd"/>
  <path fill="url(#a)" fill-rule="evenodd" d="M8.86491 6.80783 6.74325 4.68617c.56801-.56804.568-1.48899-.00003-2.05702-.56803-.56803-1.48899-.56804-2.05703 0L2.62915 4.68618c-.56803.56805-.56803 1.48901 0 2.05705.56804.56803 1.48901.56803 2.05705-.00003l2.12168 2.12168c-.39337.50677-.74244 1.0424-1.04722 1.60692-.30477.5645-.56111 1.1502-.76902 1.7571-.2079.6069-.36454 1.2268-.46992 1.8596-.10538.6328-.15808 1.27-.15808 1.9115s.0527 1.2787.15808 1.9115.26202 1.2526.46992 1.8595c.20791.6069.46424 1.1926.76901 1.7571s.65384 1.1002 1.0472 1.607l-2.12163 2.1216c-.56805-.568-1.48896-.568-2.05698 0-.56803.5681-.56804 1.489 0 2.0571l2.05704 2.057c.56804.568 1.489.568 2.05704 0 .56803-.5681.56803-1.489 0-2.057l-.00007-.0001 2.12163-2.1216c.50677.3934 1.04241.7425 1.60692 1.0472.5645.3048 1.1502.5612 1.7571.7691.6069.2079 1.2268.3645 1.8596.4699.6328.1053 1.27.158 1.9115.158.6416 0 1.2787-.0527 1.9114-.158.6329-.1054 1.2527-.262 1.8597-.4699.6069-.2079 1.1926-.4643 1.7571-.7691.5645-.3047 1.1002-.6538 1.6069-1.0472l2.1216 2.1216c-.5681.5681-.5681 1.489 0 2.0571.568.568 1.4891.568 2.0571 0l2.057-2.0571c.568-.568.568-1.489 0-2.057-.568-.568-1.489-.568-2.057 0l-2.1216-2.1216c.3933-.5068.7423-1.0424 1.0471-1.6069.3048-.5645.5611-1.1503.769-1.7572.2079-.6069.3646-1.2267.47-1.8595s.1581-1.27.1581-1.9115c0-.6416-.0527-1.2787-.1581-1.9115-.1054-.6329-.2621-1.2527-.47-1.8596-.2079-.6069-.4642-1.1926-.769-1.7571-.3048-.56454-.6538-1.10018-1.0471-1.60695l2.1214-2.12155.0002.00006c.568.56805 1.489.56805 2.057 0 .568-.56803.568-1.489 0-2.05703l-2.057-2.05704c-.5682-.56804-1.4891-.56804-2.0571 0-.5681.56801-.5681 1.48894-.0001 2.05698L23.135 6.80781c-.5068-.39336-1.0424-.74243-1.6068-1.0472-.5645-.30477-1.1502-.56111-1.7571-.769-.607-.2079-1.2268-.36455-1.8597-.46994-.6327-.10537-1.2698-.15806-1.9114-.15806-.6415 0-1.2787.05269-1.9115.15808-.6328.10538-1.2527.26202-1.8596.46992-.6069.2079-1.1926.46424-1.7571.76902-.56448.30477-1.10012.65384-1.60689 1.0472Z" clip-rule="evenodd"/>
  <path fill="url(#b)" d="M13.8185 14.5455c1.205 0 2.1819-.9768 2.1819-2.1818s-.9769-2.1818-2.1819-2.1818c-1.2049 0-2.1818.9768-2.1818 2.1818s.9769 2.1818 2.1818 2.1818Z"/>
  <path fill="url(#c)" d="M17.4545 21.8182c1.6066 0 2.9091-1.3025 2.9091-2.9091 0-1.6067-1.3025-2.9091-2.9091-2.9091s-2.9091 1.3024-2.9091 2.9091c0 1.6066 1.3025 2.9091 2.9091 2.9091Z"/>
  <defs>
    <linearGradient id="b" x1="13.8185" x2="13.8185" y1="10.1819" y2="14.5455" gradientUnits="userSpaceOnUse">
      <stop stop-color="#50CD06"/>
      <stop offset="1" stop-color="#A2E458"/>
    </linearGradient>
    <linearGradient id="c" x1="17.4545" x2="17.4545" y1="16" y2="21.8182" gradientUnits="userSpaceOnUse">
      <stop stop-color="#50CD06"/>
      <stop offset="1" stop-color="#A2E458"/>
    </linearGradient>
    <radialGradient id="a" cx="0" cy="0" r="1" gradientTransform="rotate(68.106 1.12114157 16.48606114) scale(19.6314)" gradientUnits="userSpaceOnUse">
      <stop stop-color="#BDFF74"/>
      <stop offset=".315385" stop-color="#87DC3D"/>
      <stop offset="1" stop-color="#51CD07"/>
    </radialGradient>
  </defs>
</svg>
