<svg xmlns="http://www.w3.org/2000/svg" fill="none" viewBox="0 0 48 48">
  <circle cx="24" cy="24" r="20" fill="#FF6122"/>
  <path fill="#fff" fill-rule="evenodd" d="M28.1004 20.6128c1.0716-1.4724 2.9418-3.8724 4.9388-4.7098 1.6462-.6903 3.3621.0338 2.8774 1.9325-.1901.7445-1.1402 1.7577-1.8038 2.7486-1.1439 1.7083-2.3118 3.8771-3.2638 5.8406-.6648 1.3713-1.1466 2.5189-2.1043 3.3927-2.3506 2.1445-5.8935.2434-5.6259-4.9244-1.317 1.6507-2.0847 5.2619-3.7793 6.9429-.6291.6242-2.0562 1.3156-3.4356.9448-3.6682-.9859-4.3222-7.5653-3.6934-12.4543.2614-2.0322.9484-3.9533 2.3191-4.4663 1.002-.375 2.4131-.1063 3.0062.4295 1.2019 1.0857.8781 3.4671.8589 5.2823.6331-.8421 1.4928-2.4735 2.5768-3.7362.9752-1.1362 2.2396-2.4878 3.5215-2.7486 3.135-.6378 4.0627 2.3306 3.6074 5.5257Z" clip-rule="evenodd"/>
</svg>
