<svg xmlns="http://www.w3.org/2000/svg" fill="none" viewBox="0 0 32 32">
  <path fill="#BFC8D0" fill-rule="evenodd" d="M16 31c7.732 0 14-6.268 14-14 0-7.73199-6.268-14-14-14C8.26801 3 2 9.26801 2 17c0 2.5109.661 4.8674 1.81847 6.905L2 31l7.31486-1.6962C11.3014 30.3854 13.5789 31 16 31Zm0-2.1538c6.5425 0 11.8462-5.3037 11.8462-11.8462 0-6.5424-5.3037-11.84615-11.8462-11.84615C9.45755 5.15385 4.15385 10.4576 4.15385 17c0 2.5261.79065 4.8675 2.13799 6.7902l-1.06107 3.979 4.04916-1.0123C11.1894 28.0746 13.5046 28.8462 16 28.8462Z" clip-rule="evenodd"/>
  <path fill="url(#a)" d="M28 16c0 6.6274-5.3726 12-12 12-2.5278 0-4.8731-.7816-6.80734-2.1163l-4.10175 1.0254 1.07485-4.0307C4.80092 20.9307 4 18.5589 4 16 4 9.37258 9.37258 4 16 4c6.6274 0 12 5.37258 12 12Z"/>
  <path fill="#fff" fill-rule="evenodd" d="M16 30c7.732 0 14-6.268 14-14 0-7.73199-6.268-14-14-14C8.26801 2 2 8.26801 2 16c0 2.5109.661 4.8674 1.81847 6.905L2 30l7.31486-1.6962C11.3014 29.3854 13.5789 30 16 30Zm0-2.1538c6.5425 0 11.8462-5.3037 11.8462-11.8462 0-6.54245-5.3037-11.84615-11.8462-11.84615C9.45755 4.15385 4.15385 9.45755 4.15385 16c0 2.5261.79065 4.8675 2.13799 6.7902l-1.06107 3.979 4.04916-1.0123C11.1894 27.0746 13.5046 27.8462 16 27.8462Z" clip-rule="evenodd"/>
  <path fill="#fff" d="M12.5 9.49989c-.3328-.66858-.8435-.60939-1.3593-.60939-.9219 0-2.35945 1.10428-2.35945 3.1595 0 1.6843.7422 3.528 3.24315 6.2861 2.4136 2.6618 5.585 4.0387 8.2178 3.9918 2.6328-.0468 3.1745-2.3125 3.1745-3.0776 0-.3391-.2105-.5083-.3554-.5543-.8972-.4306-2.552-1.2329-2.9285-1.3836-.3765-.1507-.5731.0532-.6953.1641-.3414.3253-1.0182 1.2843-1.25 1.5-.2317.2157-.5772.1065-.721.025-.5291-.2123-1.9636-.8504-3.107-1.9589-1.4142-1.3708-1.4972-1.8425-1.7636-2.2623-.2131-.3359-.0567-.5419.0213-.632.3047-.3515.7254-.8943.9141-1.164.1886-.2698.0389-.6793-.051-.9343-.3865-1.097-.714-2.0153-.9803-2.55011Z"/>
  <defs>
    <linearGradient id="a" x1="26.5" x2="4" y1="7" y2="28" gradientUnits="userSpaceOnUse">
      <stop stop-color="#5BD066"/>
      <stop offset="1" stop-color="#27B43E"/>
    </linearGradient>
  </defs>
</svg>
