<svg xmlns="http://www.w3.org/2000/svg" fill="none" viewBox="0 0 32 22">
  <path fill="url(#a)" fill-rule="evenodd" d="M32 6.21865c-2.1359-1.96111-4.5625-3.47956-7.28-4.55536C21.9191.554429 19.0125 0 16 0c-3.0124 0-5.9191.554429-8.72004 1.66329C4.56255 2.73909 2.13589 4.25754 0 6.21865l2.79503 2.79501c1.74859-1.57784 3.72801-2.80428 5.93826-3.6793C11.0674 4.4103 13.4896 3.94828 16 3.94828c2.5104 0 4.9326.46202 7.2668 1.38608 2.2102.87501 4.1896 2.10145 5.9381 3.67931L32 6.21865Zm-5.5916 5.59165c-1.3604-1.1957-2.892-2.13069-4.595-2.80487C19.9461 8.26619 18.0083 7.89657 16 7.89657c-2.0083 0-3.9461.36962-5.8134 1.10886-1.70291.67418-3.23458 1.60917-4.59496 2.80487l2.79984 2.7999c.97031-.8159 2.05312-1.4605 3.24852-1.9337 1.4005-.5544 2.8538-.8317 4.36-.8317 1.5062 0 2.9596.2773 4.36.8317 1.1953.4732 2.2782 1.1178 3.2486 1.9337l2.7998-2.7999Zm-14.8402 5.9766 3.9176 3.9175c.2839.284.7445.284 1.0285 0l3.9176-3.9175c-.5621-.634-1.2294-1.1248-2.0021-1.4724-.7726-.3475-1.5825-.5213-2.4298-.5213-.8473 0-1.6571.1738-2.4298.5213-.7726.3476-1.4399.8384-2.002 1.4724Z" clip-rule="evenodd"/>
  <defs>
    <radialGradient id="a" cx="0" cy="0" r="1" gradientTransform="matrix(-.09365 22.2187 -32.00002 -.13488 16.0937 0)" gradientUnits="userSpaceOnUse">
      <stop stop-color="#38B9FF"/>
      <stop offset="1" stop-color="#0073FF"/>
    </radialGradient>
  </defs>
</svg>
