<svg xmlns="http://www.w3.org/2000/svg" fill="none" viewBox="0 0 32 32">
  <circle cx="16" cy="16" r="14" fill="#028CB0"/>
  <path fill="#fff" d="M6.45538 16c0 3.7823 2.2 7.04 5.38152 8.5885L7.28462 12.1162C6.73798 13.338 6.45541 14.6615 6.45538 16ZM16 25.5446c1.1085 0 2.1746-.1946 3.1731-.5415l-.0677-.1269-2.9362-8.0385-2.86 8.3177c.8462.2538 1.7516.3892 2.6908.3892Zm1.3115-14.0208 3.4523 10.2639.9562-3.1815c.4062-1.32.7192-2.2677.7192-3.0885 0-1.1846-.423-1.9969-.7784-2.6231-.4908-.7954-.9393-1.4638-.9393-2.2423 0-.87999.66-1.6923 1.6077-1.6923h.1185C20.689 7.34546 18.3874 6.45141 16 6.45538c-1.5808-.00029-3.1368.39239-4.5282 1.14271-1.3913.75033-2.57434 1.83476-3.44257 3.15571l.60923.017c.99846 0 2.53844-.127 2.53844-.127.5246-.0253.5839.7277.0677.787 0 0-.5161.0677-1.1.093l3.4862 10.34 2.09-6.2615-1.4893-4.0785c-.3335-.0184-.6665-.0466-.9984-.0846-.5162-.0338-.4569-.8207.0592-.7954 0 0 1.5739.127 2.5131.127.9984 0 2.5384-.127 2.5384-.127.5162-.0253.5839.7277.0677.787 0 0-.5161.0592-1.1.093ZM20.7977 24.25c1.4439-.8396 2.6422-2.0434 3.4752-3.4911.833-1.4477 1.2715-3.0886 1.2717-4.7589 0-1.6585-.4231-3.2154-1.1677-4.5777.1512 1.4988-.0757 3.0116-.66 4.4L20.7977 24.25ZM16 27c-2.9174 0-5.7153-1.1589-7.77817-3.2218C6.15893 21.7153 5 18.9174 5 16c0-2.9174 1.15893-5.7153 3.22183-7.77817C10.2847 6.15893 13.0826 5 16 5c2.9174 0 5.7153 1.15893 7.7782 3.22183C25.8411 10.2847 27 13.0826 27 16c0 2.9174-1.1589 5.7153-3.2218 7.7782S18.9174 27 16 27Z"/>
</svg>
