<svg xmlns="http://www.w3.org/2000/svg" fill="none" viewBox="0 0 32 32">
  <circle cx="16" cy="16" r="14" fill="url(#a)" opacity=".852"/>
  <path fill="url(#b)" d="M6.75137 26.5333c-.0191-.014-.03867-.0317-.05825-.0532-.36239-.3297-.95267-.8497-1.5695-1.6357-.53272-1.1555-.23075-3.0964 1.08024-5.8369 1.84971-3.8666 4.80924-7.7924 6.02264-9.185-.3452-.38518-1.4146-1.43997-2.92991-2.57773-1.51529-1.13776-2.61921-1.2543-3.00395-1.18516.35515-.38518 1.18382-1.11109 1.87932-1.59997 2.15454-1.06665 6.13614.73579 7.84284 1.76293v7.06653c-4.3506 3.3481-8.37556 8.5184-9.18944 10.5331-.62118 1.5378-.37561 2.3906-.13224 2.6579.02013.0183.03957.036.05825.0532Z"/>
  <path fill="url(#c)" d="M6.75137 26.5331c-.0191-.014-.03867-.0317-.05826-.0532-.36239-.3297-.95266-.8497-1.56949-1.6357-.53272-1.1555-.23075-3.0965 1.08024-5.8369 2.14747-4.489 6.02264-9.18503 6.02264-9.18503s.692 1.71823 2.2623 4.69603c-4.0444 3.5851-6.84957 7.2889-7.66344 9.3037-.62118 1.5378-.37562 2.3906-.13225 2.6579.02014.0183.03957.036.05826.0532Z"/>
  <path fill="url(#d)" d="M25.2779 26.5333c.0191-.014.0387-.0317.0583-.0532.3624-.3297.9526-.8497 1.5695-1.6357.5327-1.1555.2307-3.0964-1.0803-5.8369-1.8497-3.8666-4.8092-7.7924-6.0226-9.185.3452-.38518 1.4146-1.43997 2.9299-2.57773 1.5153-1.13776 2.6192-1.2543 3.004-1.18516-.3552-.38518-1.1839-1.11109-1.8794-1.59997-2.1545-1.06665-6.1361.73579-7.8428 1.76293v7.06653c4.3506 3.3481 8.3756 8.5184 9.1894 10.5331.6212 1.5378.3757 2.3906.1323 2.6579-.0202.0183-.0396.036-.0583.0532Z"/>
  <path fill="url(#e)" d="M25.2779 26.5331c.0191-.014.0387-.0317.0583-.0532.3624-.3297.9526-.8497 1.5695-1.6357.5327-1.1555.2307-3.0965-1.0803-5.8369-2.1474-4.489-6.0226-9.18503-6.0226-9.18503s-.692 1.71823-2.2623 4.69603c4.0444 3.5851 6.8496 7.2889 7.6634 9.3037.6212 1.5378.3757 2.3906.1323 2.6579-.0201.0183-.0396.036-.0583.0532Z"/>
  <defs>
    <linearGradient id="b" x1="12.9925" x2="13.2296" y1="4.72589" y2="12.7852" gradientUnits="userSpaceOnUse">
      <stop stop-color="#008B00"/>
      <stop offset="1" stop-color="#6CC329"/>
    </linearGradient>
    <linearGradient id="c" x1="10.1481" x2="12.874" y1="12.6667" y2="16.4" gradientUnits="userSpaceOnUse">
      <stop stop-color="#008C00"/>
      <stop offset="1" stop-color="#48BF21"/>
    </linearGradient>
    <linearGradient id="d" x1="19.0368" x2="18.7997" y1="4.72589" y2="12.7852" gradientUnits="userSpaceOnUse">
      <stop stop-color="#008B00"/>
      <stop offset="1" stop-color="#6CC329"/>
    </linearGradient>
    <linearGradient id="e" x1="21.8812" x2="19.1553" y1="12.6667" y2="16.4" gradientUnits="userSpaceOnUse">
      <stop stop-color="#008C00"/>
      <stop offset="1" stop-color="#48BF21"/>
    </linearGradient>
    <radialGradient id="a" cx="0" cy="0" r="1" gradientTransform="matrix(-.01482 15.5 -15.5 -.01482 16 14.5)" gradientUnits="userSpaceOnUse">
      <stop stop-color="#FAFAFA"/>
      <stop offset=".499976" stop-color="#EFEFEF"/>
      <stop offset=".828794" stop-color="#C0BEC0"/>
      <stop offset="1" stop-color="#879288"/>
    </radialGradient>
  </defs>
</svg>
