<svg xmlns="http://www.w3.org/2000/svg" fill="none" viewBox="0 0 32 32">
  <path fill="#4087FC" d="M2 11.6c0-3.36031 0-5.04047.65396-6.32394.57524-1.12898 1.49312-2.04686 2.6221-2.6221C6.55953 2 8.23969 2 11.6 2h8.8c3.3603 0 5.0405 0 6.3239.65396 1.129.57524 2.0469 1.49312 2.6221 2.6221C30 6.55953 30 8.23969 30 11.6v8.8c0 3.3603 0 5.0405-.654 6.3239-.5752 1.129-1.4931 2.0469-2.6221 2.6221C25.4405 30 23.7603 30 20.4 30h-8.8c-3.36031 0-5.04047 0-6.32394-.654-1.12898-.5752-2.04686-1.4931-2.6221-2.6221C2 25.4405 2 23.7603 2 20.4v-8.8Z"/>
  <path fill="#fff" d="M8.26667 10C7.56711 10 7 10.6396 7 11.4286v6.9285C7 20.369 8.44612 22 10.23 22l7.5033-.0714C18.4329 21.9286 19 21.289 19 20.5v-7c0-2.0119-1.7161-3.5-3.5-3.5H8.26667Zm12.44553 2.7276C20.2596 13.1752 20 13.8211 20 14.5v2.8993c0 .6789.2596 1.3249.7122 1.7724l2.8166 2.4808c.5731.5666 1.4712.1076 1.4712-.752v-9.7653c0-.8597-.8981-1.31866-1.4712-.752l-2.8166 2.3444Z"/>
</svg>
