<svg width="28" height="28" viewBox="0 0 28 28" fill="none" xmlns="http://www.w3.org/2000/svg">
<path fill-rule="evenodd" clip-rule="evenodd" d="M0 14C0 6.26801 6.26801 0 14 0C21.732 0 28 6.26801 28 14C28 21.732 21.732 28 14 28C6.26801 28 0 21.732 0 14ZM8.05 13.3938L19.45 6.81199C19.9167 6.54256 20.5 6.87935 20.5 7.41821V20.5818C20.5 21.1207 19.9167 21.4574 19.45 21.188L8.05 14.6062C7.90486 14.5224 7.80486 14.3995 7.75 14.2619V20C7.75 20.4142 7.41421 20.75 7 20.75C6.58579 20.75 6.25 20.4142 6.25 20V7C6.25 6.58579 6.58579 6.25 7 6.25C7.41421 6.25 7.75 6.58579 7.75 7V13.7381C7.80486 13.6005 7.90486 13.4776 8.05 13.3938Z" fill="#2A2238"/>
</svg>
