<svg width="28" height="28" viewBox="0 0 28 28" fill="none" xmlns="http://www.w3.org/2000/svg">
<mask id="path-1-inside-1_11_272" fill="white">
<path fill-rule="evenodd" clip-rule="evenodd" d="M28 14C28 6.26801 21.732 0 14 0C6.26801 0 0 6.26801 0 14C0 21.732 6.26801 28 14 28C21.732 28 28 21.732 28 14ZM13.4697 3.46967L8.6967 8.24264C8.40381 8.53553 8.40381 9.01041 8.6967 9.3033C8.98959 9.59619 9.46447 9.59619 9.75736 9.3033L13.25 5.81066V24C13.25 24.4142 13.5858 24.75 14 24.75C14.4142 24.75 14.75 24.4142 14.75 24V5.81066L18.2426 9.3033C18.5355 9.59619 19.0104 9.59619 19.3033 9.3033C19.5962 9.01041 19.5962 8.53553 19.3033 8.24264L14.5303 3.46967C14.2374 3.17678 13.7626 3.17678 13.4697 3.46967Z"/>
</mask>
<path fill-rule="evenodd" clip-rule="evenodd" d="M28 14C28 6.26801 21.732 0 14 0C6.26801 0 0 6.26801 0 14C0 21.732 6.26801 28 14 28C21.732 28 28 21.732 28 14ZM13.4697 3.46967L8.6967 8.24264C8.40381 8.53553 8.40381 9.01041 8.6967 9.3033C8.98959 9.59619 9.46447 9.59619 9.75736 9.3033L13.25 5.81066V24C13.25 24.4142 13.5858 24.75 14 24.75C14.4142 24.75 14.75 24.4142 14.75 24V5.81066L18.2426 9.3033C18.5355 9.59619 19.0104 9.59619 19.3033 9.3033C19.5962 9.01041 19.5962 8.53553 19.3033 8.24264L14.5303 3.46967C14.2374 3.17678 13.7626 3.17678 13.4697 3.46967Z" fill="#2A2238"/>
<path d="M9.75736 9.3033L10.818 10.364L10.818 10.364L9.75736 9.3033ZM13.25 5.81066H14.75V2.18934L12.1893 4.75L13.25 5.81066ZM14.75 5.81066L15.8107 4.75L13.25 2.18934V5.81066H14.75ZM18.2426 9.3033L19.3033 8.24264L19.3033 8.24264L18.2426 9.3033ZM19.3033 8.24264L18.2426 9.3033L18.2426 9.3033L19.3033 8.24264ZM14 1.5C20.9036 1.5 26.5 7.09644 26.5 14H29.5C29.5 5.43959 22.5604 -1.5 14 -1.5V1.5ZM1.5 14C1.5 7.09644 7.09644 1.5 14 1.5V-1.5C5.43959 -1.5 -1.5 5.43959 -1.5 14H1.5ZM14 26.5C7.09644 26.5 1.5 20.9036 1.5 14H-1.5C-1.5 22.5604 5.43959 29.5 14 29.5V26.5ZM26.5 14C26.5 20.9036 20.9036 26.5 14 26.5V29.5C22.5604 29.5 29.5 22.5604 29.5 14H26.5ZM9.75736 9.3033L14.5303 4.53033L12.409 2.40901L7.63604 7.18198L9.75736 9.3033ZM9.75736 8.24264C10.0503 8.53553 10.0503 9.01041 9.75736 9.3033L7.63604 7.18198C6.75736 8.06066 6.75736 9.48528 7.63604 10.364L9.75736 8.24264ZM8.6967 8.24264C8.98959 7.94975 9.46447 7.94975 9.75736 8.24264L7.63604 10.364C8.51472 11.2426 9.93934 11.2426 10.818 10.364L8.6967 8.24264ZM12.1893 4.75L8.6967 8.24264L10.818 10.364L14.3107 6.87132L12.1893 4.75ZM14.75 24V5.81066H11.75V24H14.75ZM14 23.25C14.4142 23.25 14.75 23.5858 14.75 24H11.75C11.75 25.2426 12.7574 26.25 14 26.25V23.25ZM13.25 24C13.25 23.5858 13.5858 23.25 14 23.25V26.25C15.2426 26.25 16.25 25.2426 16.25 24H13.25ZM13.25 5.81066V24H16.25V5.81066H13.25ZM19.3033 8.24264L15.8107 4.75L13.6893 6.87132L17.182 10.364L19.3033 8.24264ZM18.2426 8.24264C18.5355 7.94975 19.0104 7.94975 19.3033 8.24264L17.182 10.364C18.0607 11.2426 19.4853 11.2426 20.364 10.364L18.2426 8.24264ZM18.2426 9.3033C17.9497 9.01041 17.9497 8.53553 18.2426 8.24264L20.364 10.364C21.2426 9.48528 21.2426 8.06066 20.364 7.18198L18.2426 9.3033ZM13.4697 4.53033L18.2426 9.3033L20.364 7.18198L15.591 2.40901L13.4697 4.53033ZM14.5303 4.53033C14.2374 4.82322 13.7626 4.82322 13.4697 4.53033L15.591 2.40901C14.7123 1.53033 13.2877 1.53033 12.409 2.40901L14.5303 4.53033Z" fill="#2A2238" mask="url(#path-1-inside-1_11_272)"/>
</svg>
