<svg width="20" height="28" viewBox="0 0 20 28" fill="none" xmlns="http://www.w3.org/2000/svg">
<path fill-rule="evenodd" clip-rule="evenodd" d="M10.7273 1.5H8.78788C8.54813 1.5 8.34779 1.66874 8.29915 1.89394H11.216C11.1674 1.66874 10.967 1.5 10.7273 1.5ZM12.7245 1.89394C12.6694 0.838676 11.7963 0 10.7273 0H8.78788C7.71889 0 6.84578 0.838677 6.79064 1.89394C6.78881 1.92906 6.78788 1.96442 6.78788 2V2.54545H3C1.34315 2.54545 0 3.8886 0 5.54545V6.13636V7.63636H1.5H1.69697V8.28788V25C1.69697 26.6569 3.04012 28 4.69697 28H14.8182C16.475 28 17.8182 26.6569 17.8182 25V8.28788V7.63636H18.0152H19.5152V6.13636V5.54545C19.5152 3.8886 18.172 2.54545 16.5152 2.54545H12.7273V2C12.7273 1.96442 12.7263 1.92906 12.7245 1.89394ZM3 4.04545H16.5152C17.3436 4.04545 18.0152 4.71703 18.0152 5.54545V6.13636H1.5V5.54545C1.5 4.71703 2.17157 4.04545 3 4.04545ZM3.19697 8.28788H16.3182V25C16.3182 25.8284 15.6466 26.5 14.8182 26.5H4.69697C3.86854 26.5 3.19697 25.8284 3.19697 25V8.28788ZM5.09091 10.1818V23.7576H6.59091V10.1818H5.09091ZM9.33333 23.7576V10.1818H10.8333V23.7576H9.33333ZM13.5758 10.1818V23.7576H15.0758V10.1818H13.5758Z" fill="#2A2238"/>
</svg>
