<svg width="17" height="27" viewBox="0 0 17 27" fill="none" xmlns="http://www.w3.org/2000/svg">
<path fill-rule="evenodd" clip-rule="evenodd" d="M8.74945 26.6234C5.67896 21.9986 0 13.0671 0 8.5C0 3.80557 3.52942 0 8.5 0C13.4706 0 17 3.80557 17 8.5C17 13.0671 11.7943 21.9986 8.74945 26.6234ZM13.5 8C13.5 10.7614 11.2614 13 8.5 13C5.73853 13 3.5 10.7614 3.5 8C3.5 5.23857 5.73853 3 8.5 3C11.2614 3 13.5 5.23857 13.5 8ZM11.5 8C11.5 9.65686 10.1569 11 8.5 11C6.84314 11 5.5 9.65686 5.5 8C5.5 6.34314 6.84314 5 8.5 5C10.1569 5 11.5 6.34314 11.5 8Z" fill="#2A2238"/>
</svg>
