<svg width="28" height="23" viewBox="0 0 28 23" fill="none" xmlns="http://www.w3.org/2000/svg">
<path d="M19.0909 3.54545V3.5C19.0909 2.11929 17.9716 1 16.5909 1H11.4091C10.0283 1 8.90906 2.11929 8.90906 3.5V3.54545" stroke="#2A2238" stroke-width="1.5"/>
<rect x="0.75" y="4.29547" width="26.5" height="17.5909" rx="2.25" stroke="#2A2238" stroke-width="1.5"/>
<line x1="20.4773" y1="4.01135" x2="20.4773" y2="22.1728" stroke="#2A2238" stroke-width="1.5"/>
<line x1="7.20459" y1="3.62216" x2="7.20459" y2="22.179" stroke="#2A2238" stroke-width="1.5"/>
<rect x="10.1819" y="13.7273" width="7.63636" height="3.81818" rx="0.6" fill="#2A2238"/>
<path d="M21.6364 2.8727C21.6364 2.54133 21.905 2.27271 22.2364 2.27271H23.5818C23.9132 2.27271 24.1818 2.54133 24.1818 2.87271V3.54543H21.6364V2.8727Z" fill="#2A2238"/>
<path d="M3.81824 2.8727C3.81824 2.54133 4.08687 2.27271 4.41824 2.27271H5.76369C6.09506 2.27271 6.36369 2.54133 6.36369 2.87271V3.54543H3.81824V2.8727Z" fill="#2A2238"/>
<path d="M3.81824 2.8727C3.81824 2.54133 4.08687 2.27271 4.41824 2.27271H5.76369C6.09506 2.27271 6.36369 2.54133 6.36369 2.87271V3.54543H3.81824V2.8727Z" fill="#2A2238"/>
</svg>
