<svg width="28" height="28" viewBox="0 0 28 28" fill="none" xmlns="http://www.w3.org/2000/svg">
<mask id="path-1-inside-1_19_155" fill="white">
<path d="M21 20.5C21 18.7761 20.2625 17.1228 18.9497 15.9038C17.637 14.6848 15.8565 14 14 14C12.1435 14 10.363 14.6848 9.05025 15.9038C7.7375 17.1228 7 18.7761 7 20.5L14 20.5H21Z"/>
</mask>
<path d="M21 20.5C21 18.7761 20.2625 17.1228 18.9497 15.9038C17.637 14.6848 15.8565 14 14 14C12.1435 14 10.363 14.6848 9.05025 15.9038C7.7375 17.1228 7 18.7761 7 20.5L14 20.5H21Z" stroke="#2A2238" stroke-width="3" mask="url(#path-1-inside-1_19_155)"/>
<path d="M17.1944 9.08065C17.1944 10.9393 15.7329 12.4113 13.9722 12.4113C12.2115 12.4113 10.75 10.9393 10.75 9.08065C10.75 7.22201 12.2115 5.75 13.9722 5.75C15.7329 5.75 17.1944 7.22201 17.1944 9.08065Z" stroke="#2A2238" stroke-width="1.5"/>
<circle cx="14" cy="14" r="13.25" stroke="#2A2238" stroke-width="1.5"/>
</svg>
