<svg width="29" height="28" viewBox="0 0 29 28" fill="none" xmlns="http://www.w3.org/2000/svg">
<path fill-rule="evenodd" clip-rule="evenodd" d="M11.3752 0.256277C11.5393 0.0921856 11.7619 0 11.9939 0H17.2439C17.4759 0 17.6985 0.0921856 17.8626 0.256277C18.0267 0.420369 18.1188 0.642924 18.1188 0.874985C18.1188 1.10705 18.0267 1.3296 17.8626 1.49369C17.6985 1.65778 17.4759 1.74997 17.2439 1.74997H16.3689V3.62244C18.752 3.96644 20.9809 5.00503 22.7772 6.60847C24.5734 8.21191 25.8574 10.3091 26.4687 12.638C27.0799 14.967 26.9914 17.4244 26.2141 19.7033C25.4368 21.9822 24.0053 23.9815 22.0983 25.4516L23.15 26.505C23.3143 26.6691 23.4067 26.8917 23.4069 27.1239C23.407 27.3561 23.3149 27.5788 23.1509 27.7431C22.9868 27.9074 22.7642 27.9998 22.532 28C22.2998 28.0002 22.0771 27.9081 21.9128 27.744L20.6073 26.4385C18.7785 27.465 16.716 28.0026 14.6189 27.9995C12.5218 28.0026 10.4592 27.465 8.6305 26.4385L7.32502 27.744C7.16073 27.9081 6.93798 28.0002 6.70579 28C6.4736 27.9998 6.25099 27.9074 6.08692 27.7431C5.92285 27.5788 5.83077 27.3561 5.83094 27.1239C5.8311 26.8917 5.9235 26.6691 6.0878 26.505L7.14128 25.4516C5.23431 23.9817 3.80273 21.9825 3.02536 19.7037C2.24799 17.4249 2.1593 14.9676 2.77036 12.6387C3.38143 10.3098 4.66516 8.21261 6.4612 6.60906C8.25724 5.00551 10.4859 3.96671 12.8689 3.62244V1.74997H11.9939C11.7619 1.74997 11.5393 1.65778 11.3752 1.49369C11.2111 1.3296 11.119 1.10705 11.119 0.874985C11.119 0.642924 11.2111 0.420369 11.3752 0.256277ZM15.4274 5.28141C14.8892 5.24048 14.3486 5.24048 13.8104 5.28141C11.1038 5.49044 8.58332 6.73965 6.77786 8.76691C4.9724 10.7942 4.02228 13.4419 4.12688 16.1546C4.23147 18.8673 5.38264 21.434 7.33884 23.3162C9.29504 25.1985 11.9042 26.2499 14.6189 26.2499C17.3336 26.2499 19.9428 25.1985 21.899 23.3162C23.8552 21.434 25.0063 18.8673 25.1109 16.1546C25.2155 13.4419 24.2654 10.7942 22.4599 8.76691C20.6545 6.73965 18.134 5.49044 15.4274 5.28141ZM2.12411 9.42709C1.20188 8.6256 0.619141 7.44262 0.619141 6.12489C0.619101 5.23352 0.891342 4.3634 1.39942 3.631C1.90751 2.89861 2.62718 2.33888 3.46212 2.02676C4.29707 1.71463 5.20743 1.66499 6.07136 1.88448C6.93529 2.10398 7.71156 2.58213 8.29626 3.25494C5.63622 4.60548 3.47465 6.76704 2.12411 9.42709ZM20.9415 3.25494C21.743 2.33271 22.926 1.74997 24.2437 1.74997C25.1351 1.74993 26.0052 2.02217 26.7376 2.53025C27.47 3.03833 28.0297 3.75801 28.3419 4.59295C28.654 5.42789 28.7036 6.33826 28.4841 7.20219C28.2646 8.06611 27.7865 8.84238 27.1137 9.42709C25.7631 6.76704 23.6016 4.60548 20.9415 3.25494ZM15.2376 9.00612C15.4017 9.17022 15.4939 9.39277 15.4939 9.62483V15.7497C15.4939 15.9081 15.451 16.0636 15.3696 16.1995L12.7446 20.5744C12.6251 20.7735 12.4314 20.917 12.2061 20.9733C11.9808 21.0295 11.7424 20.994 11.5433 20.8745C11.3442 20.755 11.2007 20.5613 11.1444 20.336C11.0881 20.1107 11.1237 19.8723 11.2432 19.6732L13.7439 15.5082V9.62483C13.7439 9.39277 13.8361 9.17022 14.0002 9.00612C14.1642 8.84203 14.3868 8.74985 14.6189 8.74985C14.8509 8.74985 15.0735 8.84203 15.2376 9.00612Z" fill="#2A2238"/>
</svg>
