<svg width="29" height="28" viewBox="0 0 29 28" fill="none" xmlns="http://www.w3.org/2000/svg">
<path d="M10.5185 0.874985C10.5185 0.642924 10.6107 0.420369 10.7748 0.256277C10.9389 0.0921856 11.1615 0 11.3935 0L16.6434 0C16.8755 0 17.098 0.0921856 17.2621 0.256277C17.4262 0.420369 17.5184 0.642924 17.5184 0.874985C17.5184 1.10705 17.4262 1.3296 17.2621 1.49369C17.098 1.65778 16.8755 1.74997 16.6434 1.74997H15.7684V3.62244C18.1516 3.96644 20.3805 5.00503 22.1767 6.60847C23.973 8.21191 25.257 10.3091 25.8682 12.638C26.4795 14.967 26.391 17.4244 25.6137 19.7033C24.8364 21.9822 23.4048 23.9815 21.4978 25.4516L22.5496 26.505C22.7139 26.6691 22.8063 26.8917 22.8064 27.1239C22.8066 27.3561 22.7145 27.5788 22.5504 27.7431C22.3864 27.9074 22.1638 27.9998 21.9316 28C21.6994 28.0002 21.4766 27.9081 21.3123 27.744L20.0069 26.4385C18.1781 27.465 16.1156 28.0026 14.0185 27.9995C11.9213 28.0026 9.85882 27.465 8.03007 26.4385L6.72459 27.744C6.64324 27.8253 6.54668 27.8897 6.44043 27.9336C6.33419 27.9775 6.22033 28.0001 6.10536 28C5.99039 27.9999 5.87656 27.9772 5.77038 27.9331C5.66419 27.889 5.56773 27.8245 5.48649 27.7431C5.40525 27.6618 5.34083 27.5652 5.29691 27.459C5.25299 27.3527 5.23043 27.2389 5.23051 27.1239C5.23067 26.8917 5.32306 26.6691 5.48736 26.505L6.54085 25.4516C4.63388 23.9817 3.2023 21.9825 2.42493 19.7037C1.64756 17.4249 1.55887 14.9676 2.16993 12.6387C2.781 10.3098 4.06473 8.21261 5.86077 6.60906C7.6568 5.00551 9.88552 3.96671 12.2685 3.62244V1.74997H11.3935C11.1615 1.74997 10.9389 1.65778 10.7748 1.49369C10.6107 1.3296 10.5185 1.10705 10.5185 0.874985ZM14.8934 9.62483C14.8934 9.39277 14.8013 9.17022 14.6372 9.00613C14.4731 8.84203 14.2505 8.74985 14.0185 8.74985C13.7864 8.74985 13.5638 8.84203 13.3998 9.00613C13.2357 9.17022 13.1435 9.39277 13.1435 9.62483V15.5082L10.6428 19.6732C10.5233 19.8723 10.4877 20.1107 10.544 20.336C10.6003 20.5613 10.7438 20.755 10.9429 20.8745C11.142 20.994 11.3804 21.0295 11.6057 20.9733C11.831 20.917 12.0247 20.7735 12.1442 20.5744L14.7692 16.1995C14.8506 16.0636 14.8935 15.9081 14.8934 15.7497V9.62483ZM1.52368 9.42709C1.07089 9.03323 0.703978 8.55043 0.445751 8.00871C0.187524 7.467 0.0435086 6.87794 0.0226605 6.27819C0.00181238 5.67844 0.104578 5.08081 0.324565 4.52247C0.544553 3.96412 0.877059 3.45701 1.30141 3.03267C1.72575 2.60832 2.23286 2.27581 2.7912 2.05583C3.34955 1.83584 3.94718 1.73307 4.54693 1.75392C5.14668 1.77477 5.73573 1.91879 6.27745 2.17701C6.81917 2.43524 7.30197 2.80216 7.69583 3.25494C5.03578 4.60548 2.87422 6.76704 1.52368 9.42709ZM20.3411 3.25494C20.735 2.80216 21.2178 2.43524 21.7595 2.17701C22.3012 1.91879 22.8902 1.77477 23.49 1.75392C24.0898 1.73307 24.6874 1.83584 25.2457 2.05583C25.8041 2.27581 26.3112 2.60832 26.7355 3.03267C27.1599 3.45701 27.4924 3.96412 27.7124 4.52247C27.9324 5.08081 28.0351 5.67844 28.0143 6.27819C27.9934 6.87794 27.8494 7.467 27.5912 8.00871C27.333 8.55043 26.966 9.03323 26.5132 9.42709C25.1627 6.76704 23.0011 4.60548 20.3411 3.25494Z" fill="#2A2238"/>
</svg>
