<svg xmlns="http://www.w3.org/2000/svg" fill="none" viewBox="0 0 18 10">
  <path fill="#2A2238" d="M1 .5H.5v1H1v-1Zm16 1c.2761 0 .5-.22386.5-.5 0-.276142-.2239-.5-.5-.5v1Zm-16 0h16v-1H1v1Zm0 3H.5v1H1v-1Zm16 1c.2761 0 .5-.22386.5-.5s-.2239-.5-.5-.5v1Zm-16 0h16v-1H1v1Zm0 3H.5v1H1v-1Zm16 1c.2761 0 .5-.22386.5-.5s-.2239-.5-.5-.5v1Zm-16 0h16v-1H1v1Zm0-7H.5v1H1v-1Zm8 1c.27614 0 .5-.22386.5-.5s-.22386-.5-.5-.5v1Zm-8 0h8v-1H1v1Zm0 3H.5v1H1v-1Zm8 1c.27614 0 .5-.22386.5-.5s-.22386-.5-.5-.5v1Zm-8 0h8v-1H1v1Z"/>
</svg>
