<svg width="30" height="21" viewBox="0 0 30 21" fill="none" xmlns="http://www.w3.org/2000/svg">
<path fill-rule="evenodd" clip-rule="evenodd" d="M29 0.5C29.2761 0.5 29.5 0.723858 29.5 1V19.6667C29.5 19.9428 29.2761 20.1667 29 20.1667C28.7239 20.1667 28.5 19.9428 28.5 19.6667V1C28.5 0.723858 28.7239 0.5 29 0.5ZM0.5 6.6C0.5 6.32386 0.723858 6.1 1 6.1H25.7667V7.1H1C0.723858 7.1 0.5 6.87614 0.5 6.6ZM11.7 14.0667C11.7 13.7905 11.9239 13.5667 12.2 13.5667H25.7667V14.5667H12.2C11.9239 14.5667 11.7 14.3428 11.7 14.0667Z" fill="#2A2238"/>
</svg>
