<svg width="24" height="30" viewBox="0 0 24 30" fill="none" xmlns="http://www.w3.org/2000/svg">
<path fill-rule="evenodd" clip-rule="evenodd" d="M7.46154 0.5C7.73768 0.5 7.96154 0.723858 7.96154 1V9.11539H15.5769V1C15.5769 0.723858 15.8008 0.5 16.0769 0.5C16.3531 0.5 16.5769 0.723858 16.5769 1V9.11539H22.5385C22.8146 9.11539 23.0385 9.33924 23.0385 9.61539C23.0385 9.89153 22.8146 10.1154 22.5385 10.1154H16.5769V29C16.5769 29.2761 16.3531 29.5 16.0769 29.5C15.8008 29.5 15.5769 29.2761 15.5769 29V10.1154H7.96154V16.0769C7.96154 16.3531 7.73768 16.5769 7.46154 16.5769C7.1854 16.5769 6.96154 16.3531 6.96154 16.0769V10.1154H1C0.723858 10.1154 0.5 9.89153 0.5 9.61539C0.5 9.33924 0.723858 9.11539 1 9.11539H6.96154V1C6.96154 0.723858 7.1854 0.5 7.46154 0.5Z" fill="#2A2238"/>
</svg>
