<svg width="20" height="29" viewBox="0 0 20 29" fill="none" xmlns="http://www.w3.org/2000/svg">
<path fill-rule="evenodd" clip-rule="evenodd" d="M0 0.5C0 0.223858 0.223858 0 0.5 0H19.1667C19.4428 0 19.6667 0.223858 19.6667 0.5C19.6667 0.776142 19.4428 1 19.1667 1H0.5C0.223858 1 0 0.776142 0 0.5ZM6.6 3.73333V17.3C6.6 17.5761 6.37614 17.8 6.1 17.8C5.82386 17.8 5.6 17.5761 5.6 17.3V3.73333H6.6ZM14.0667 3.73333V28.5C14.0667 28.7761 13.8428 29 13.5667 29C13.2905 29 13.0667 28.7761 13.0667 28.5V3.73333H14.0667Z" fill="#2A2238"/>
</svg>
