<svg xmlns="http://www.w3.org/2000/svg" fill="none" viewBox="0 0 18 10">
  <path fill="#2A2238" d="M17 .5h.5v1H17v-1Zm-16 1C.723858 1.5.5 1.27614.5 1 .5.723858.723858.5 1 .5v1Zm16 0H1v-1h16v1Zm0 3h.5v1H17v-1Zm-16 1C.723858 5.5.5 5.27614.5 5s.223858-.5.5-.5v1Zm16 0H1v-1h16v1Zm0 3h.5v1H17v-1Zm-16 1C.723858 9.5.5 9.27614.5 9s.223858-.5.5-.5v1Zm16 0H1v-1h16v1Zm0-7h.5v1H17v-1Zm-8 1c-.27614 0-.5-.22386-.5-.5s.22386-.5.5-.5v1Zm8 0H9v-1h8v1Zm0 3h.5v1H17v-1Zm-8 1c-.27614 0-.5-.22386-.5-.5s.22386-.5.5-.5v1Zm8 0H9v-1h8v1Z"/>
</svg>
