<svg width="28" height="28" viewBox="0 0 28 28" fill="none" xmlns="http://www.w3.org/2000/svg">
<path d="M14 0C6.272 0 0 6.272 0 14C0 21.728 6.272 28 14 28H21V25.2H14C7.924 25.2 2.8 20.076 2.8 14C2.8 7.924 7.924 2.8 14 2.8C20.076 2.8 25.2 7.924 25.2 14V16.002C25.2 17.108 24.206 18.2 23.1 18.2C21.994 18.2 21 17.108 21 16.002V14C21 10.136 17.864 7 14 7C10.136 7 7 10.136 7 14C7 17.864 10.136 21 14 21C15.932 21 17.696 20.216 18.956 18.942C19.866 20.188 21.434 21 23.1 21C25.858 21 28 18.76 28 16.002V14C28 6.272 21.728 0 14 0ZM14 18.2C11.676 18.2 9.8 16.324 9.8 14C9.8 11.676 11.676 9.8 14 9.8C16.324 9.8 18.2 11.676 18.2 14C18.2 16.324 16.324 18.2 14 18.2Z" fill="#2A2238"/>
</svg>
