<svg width="27" height="27" viewBox="0 0 27 27" fill="none" xmlns="http://www.w3.org/2000/svg">
<path fill-rule="evenodd" clip-rule="evenodd" d="M25.0795 9.14978C26.0547 8.17459 26.6025 6.85195 26.6025 5.47283C26.6025 4.0937 26.0547 2.77106 25.0795 1.79587C24.1043 0.820683 22.7817 0.272827 21.4025 0.272827C20.0234 0.272827 18.7008 0.820683 17.7256 1.79587C16.7504 2.77106 16.2025 4.0937 16.2025 5.47283C16.2025 6.85195 16.7504 8.17459 17.7256 9.14978C18.7008 10.125 20.0234 10.6728 21.4025 10.6728C22.7817 10.6728 24.1043 10.125 25.0795 9.14978ZM4.11276 5.51638C5.25048 4.37866 6.79356 3.73949 8.40254 3.73949H12.7359C12.9657 3.73949 13.1862 3.64818 13.3487 3.48565C13.5112 3.32312 13.6025 3.10268 13.6025 2.87283C13.6025 2.64297 13.5112 2.42253 13.3487 2.26C13.1862 2.09747 12.9657 2.00616 12.7359 2.00616H8.40254C6.33385 2.00616 4.34989 2.82794 2.88711 4.29073C1.42432 5.75351 0.602539 7.73747 0.602539 9.80616V18.4728C0.602539 20.5415 1.42432 22.5255 2.88711 23.9883C4.34989 25.451 6.33385 26.2728 8.40254 26.2728H17.0692C19.1379 26.2728 21.1219 25.451 22.5846 23.9883C24.0474 22.5255 24.8692 20.5415 24.8692 18.4728V14.1395C24.8692 13.9096 24.7779 13.6892 24.6154 13.5267C24.4528 13.3641 24.2324 13.2728 24.0025 13.2728C23.7727 13.2728 23.5522 13.3641 23.3897 13.5267C23.2272 13.6892 23.1359 13.9096 23.1359 14.1395V18.4728C23.1359 20.0818 22.4967 21.6249 21.359 22.7626C20.2213 23.9003 18.6782 24.5395 17.0692 24.5395H8.40254C6.79356 24.5395 5.25048 23.9003 4.11276 22.7626C2.97504 21.6249 2.33587 20.0818 2.33587 18.4728V9.80616C2.33587 8.19718 2.97504 6.6541 4.11276 5.51638Z" fill="#2A2238"/>
</svg>
