<svg width="25" height="24" viewBox="0 0 25 24" fill="none" xmlns="http://www.w3.org/2000/svg">
<path fill-rule="evenodd" clip-rule="evenodd" d="M8.75181 15.2682C8.61072 15.1272 8.41939 15.0479 8.21989 15.0479C8.0204 15.0479 7.82907 15.1272 7.68798 15.2682L1.52472 21.4315V17.2665C1.52472 17.0669 1.44546 16.8756 1.30436 16.7345C1.16327 16.5934 0.971906 16.5141 0.772371 16.5141C0.572835 16.5141 0.381471 16.5934 0.240378 16.7345C0.0992849 16.8756 0.0200195 17.0669 0.0200195 17.2665V23.2476C0.0200195 23.4472 0.0992849 23.6385 0.240378 23.7796C0.381471 23.9207 0.572835 24 0.772371 24H6.75356C6.9531 24 7.14446 23.9207 7.28555 23.7796C7.42665 23.6385 7.50591 23.4472 7.50591 23.2476C7.50591 23.0481 7.42665 22.8567 7.28555 22.7157C7.14446 22.5746 6.9531 22.4953 6.75356 22.4953H2.58855L8.75181 16.332C8.89285 16.191 8.97208 15.9996 8.97208 15.8001C8.97208 15.6006 8.89285 15.4093 8.75181 15.2682ZM15.2882 8.73179C15.4293 8.87283 15.6206 8.95206 15.8201 8.95206C16.0196 8.95206 16.211 8.87283 16.3521 8.73179L22.5153 2.56853V6.73354C22.5153 6.93308 22.5946 7.12444 22.7357 7.26553C22.8768 7.40663 23.0681 7.48589 23.2677 7.48589C23.4672 7.48589 23.6586 7.40663 23.7997 7.26553C23.9408 7.12444 24.02 6.93308 24.02 6.73354V0.752351C24.02 0.552815 23.9408 0.361452 23.7997 0.220359C23.6586 0.0792653 23.4672 0 23.2677 0H17.2865C17.0869 2.97332e-09 16.8956 0.0792653 16.7545 0.220359C16.6134 0.361452 16.5341 0.552815 16.5341 0.752351C16.5341 0.951887 16.6134 1.14325 16.7545 1.28434C16.8956 1.42544 17.0869 1.5047 17.2865 1.5047H21.4515L15.2882 7.66796C15.1472 7.80905 15.068 8.00038 15.068 8.19987C15.068 8.39937 15.1472 8.5907 15.2882 8.73179Z" fill="#2A2238"/>
</svg>
