<svg width="24" height="24" viewBox="0 0 24 24" fill="none" xmlns="http://www.w3.org/2000/svg">
<path fill-rule="evenodd" clip-rule="evenodd" d="M11.5937 0.483963C11.6605 0.417036 11.7398 0.363937 11.8271 0.327707C11.9144 0.291476 12.008 0.272827 12.1025 0.272827C12.1971 0.272827 12.2907 0.291476 12.378 0.327707C12.4653 0.363937 12.5446 0.417036 12.6114 0.483963L15.486 3.35864C15.5529 3.42546 15.6059 3.50479 15.642 3.59209C15.6782 3.67939 15.6968 3.77296 15.6968 3.86746C15.6968 3.96196 15.6782 4.05553 15.642 4.14283C15.6059 4.23013 15.5529 4.30946 15.486 4.37628C15.4192 4.4431 15.3399 4.4961 15.2526 4.53226C15.1653 4.56843 15.0717 4.58704 14.9772 4.58704C14.8827 4.58704 14.7891 4.56843 14.7018 4.53226C14.6145 4.4961 14.5352 4.4431 14.4684 4.37628L12.8212 2.72765V8.17948C12.8212 8.37008 12.7455 8.55288 12.6107 8.68765C12.4759 8.82243 12.2931 8.89815 12.1025 8.89815C11.9119 8.89815 11.7291 8.82243 11.5944 8.68765C11.4596 8.55288 11.3839 8.37008 11.3839 8.17948V2.72765L9.73668 4.37628C9.60173 4.51123 9.4187 4.58704 9.22786 4.58704C9.03702 4.58704 8.85399 4.51123 8.71904 4.37628C8.58409 4.24133 8.50828 4.0583 8.50828 3.86746C8.50828 3.67662 8.58409 3.49359 8.71904 3.35864L11.5937 0.483963ZM12.1025 14.6475C12.2931 14.6475 12.4759 14.7232 12.6107 14.858C12.7455 14.9928 12.8212 15.1756 12.8212 15.3662V20.818L14.4684 19.1694C14.6033 19.0344 14.7864 18.9586 14.9772 18.9586C15.1681 18.9586 15.3511 19.0344 15.486 19.1694C15.621 19.3043 15.6968 19.4873 15.6968 19.6782C15.6968 19.869 15.621 20.0521 15.486 20.187L12.6114 23.0617C12.5446 23.1286 12.4653 23.1817 12.378 23.2179C12.2907 23.2542 12.1971 23.2728 12.1025 23.2728C12.008 23.2728 11.9144 23.2542 11.8271 23.2179C11.7398 23.1817 11.6605 23.1286 11.5937 23.0617L8.71904 20.187C8.65222 20.1202 8.59922 20.0409 8.56306 19.9536C8.52689 19.8663 8.50828 19.7727 8.50828 19.6782C8.50828 19.5837 8.52689 19.4901 8.56306 19.4028C8.59922 19.3155 8.65222 19.2362 8.71904 19.1694C8.85399 19.0344 9.03702 18.9586 9.22786 18.9586C9.32236 18.9586 9.41593 18.9772 9.50323 19.0134C9.59053 19.0496 9.66986 19.1026 9.73668 19.1694L11.3839 20.818V15.3662C11.3839 15.1756 11.4596 14.9928 11.5944 14.858C11.7291 14.7232 11.9119 14.6475 12.1025 14.6475ZM0.813675 12.2816C0.746748 12.2149 0.693649 12.1356 0.657418 12.0483C0.621188 11.961 0.602539 11.8674 0.602539 11.7728C0.602539 11.6783 0.621188 11.5847 0.657418 11.4974C0.693649 11.4101 0.746748 11.3308 0.813675 11.264L3.68835 8.38933C3.8233 8.25438 4.00633 8.17857 4.19717 8.17857C4.38802 8.17857 4.57104 8.25438 4.70599 8.38933C4.84094 8.52428 4.91675 8.7073 4.91675 8.89815C4.91675 9.08899 4.84094 9.27202 4.70599 9.40697L3.05736 11.0542H8.50919C8.69979 11.0542 8.88259 11.1299 9.01737 11.2647C9.15214 11.3994 9.22786 11.5822 9.22786 11.7728C9.22786 11.9634 9.15214 12.1462 9.01737 12.281C8.88259 12.4158 8.69979 12.4915 8.50919 12.4915H3.05736L4.70599 14.1387C4.84094 14.2736 4.91675 14.4567 4.91675 14.6475C4.91675 14.8383 4.84094 15.0214 4.70599 15.1563C4.57104 15.2913 4.38802 15.3671 4.19717 15.3671C4.00633 15.3671 3.8233 15.2913 3.68835 15.1563L0.813675 12.2816ZM14.9772 11.7728C14.9772 11.5822 15.0529 11.3994 15.1877 11.2647C15.3225 11.1299 15.5053 11.0542 15.6959 11.0542H21.1477L19.4991 9.40697C19.4323 9.34015 19.3793 9.26082 19.3431 9.17352C19.3069 9.08622 19.2883 8.99264 19.2883 8.89815C19.2883 8.80365 19.3069 8.71008 19.3431 8.62278C19.3793 8.53547 19.4323 8.45615 19.4991 8.38933C19.634 8.25438 19.8171 8.17857 20.0079 8.17857C20.1024 8.17857 20.196 8.19718 20.2833 8.23334C20.3706 8.26951 20.4499 8.32251 20.5167 8.38933L23.3914 11.264C23.4583 11.3308 23.5114 11.4101 23.5477 11.4974C23.5839 11.5847 23.6025 11.6783 23.6025 11.7728C23.6025 11.8674 23.5839 11.961 23.5477 12.0483C23.5114 12.1356 23.4583 12.2149 23.3914 12.2816L20.5167 15.1563C20.4499 15.2231 20.3706 15.2761 20.2833 15.3123C20.196 15.3485 20.1024 15.3671 20.0079 15.3671C19.9134 15.3671 19.8198 15.3485 19.7325 15.3123C19.6452 15.2761 19.5659 15.2231 19.4991 15.1563C19.4323 15.0895 19.3793 15.0102 19.3431 14.9229C19.3069 14.8356 19.2883 14.742 19.2883 14.6475C19.2883 14.553 19.3069 14.4594 19.3431 14.3721C19.3793 14.2848 19.4323 14.2055 19.4991 14.1387L21.1477 12.4915H15.6959C15.5053 12.4915 15.3225 12.4158 15.1877 12.281C15.0529 12.1462 14.9772 11.9634 14.9772 11.7728Z" fill="#2A2238"/>
</svg>
