<svg width="24" height="23" viewBox="0 0 24 23" fill="none" xmlns="http://www.w3.org/2000/svg">
<path fill-rule="evenodd" clip-rule="evenodd" d="M8.38798 14.632C8.25277 14.4969 8.06942 14.4209 7.87823 14.4209C7.68705 14.4209 7.50369 14.4969 7.36848 14.632L1.46203 20.5385V16.547C1.46203 16.3558 1.38606 16.1724 1.25085 16.0372C1.11563 15.902 0.932245 15.826 0.741023 15.826C0.549801 15.826 0.366411 15.902 0.231196 16.0372C0.0959821 16.1724 0.0200195 16.3558 0.0200195 16.547V22.279C0.0200195 22.4702 0.0959821 22.6536 0.231196 22.7888C0.366411 22.924 0.549801 23 0.741023 23H6.473C6.66422 23 6.84761 22.924 6.98282 22.7888C7.11804 22.6536 7.194 22.4702 7.194 22.279C7.194 22.0878 7.11804 21.9044 6.98282 21.7692C6.84761 21.634 6.66422 21.558 6.473 21.558H2.48152L8.38798 15.6515C8.52315 15.5163 8.59908 15.333 8.59908 15.1418C8.59908 14.9506 8.52315 14.7672 8.38798 14.632ZM14.6521 14.632C14.7873 14.4969 14.9706 14.4209 15.1618 14.4209C15.353 14.4209 15.5363 14.4969 15.6716 14.632L21.578 20.5385V16.547C21.578 16.3558 21.654 16.1724 21.7892 16.0372C21.9244 15.902 22.1078 15.826 22.299 15.826C22.4902 15.826 22.6736 15.902 22.8088 16.0372C22.9441 16.1724 23.02 16.3558 23.02 16.547V22.279C23.02 22.4702 22.9441 22.6536 22.8088 22.7888C22.6736 22.924 22.4902 23 22.299 23H16.567C16.3758 23 16.1924 22.924 16.0572 22.7888C15.922 22.6536 15.846 22.4702 15.846 22.279C15.846 22.0878 15.922 21.9044 16.0572 21.7692C16.1924 21.634 16.3758 21.558 16.567 21.558H20.5585L14.6521 15.6515C14.5169 15.5163 14.441 15.333 14.441 15.1418C14.441 14.9506 14.5169 14.7672 14.6521 14.632ZM14.6521 8.36796C14.7873 8.50313 14.9706 8.57906 15.1618 8.57906C15.353 8.57906 15.5363 8.50313 15.6716 8.36796L21.578 2.4615V6.45298C21.578 6.6442 21.654 6.82759 21.7892 6.9628C21.9244 7.09802 22.1078 7.17398 22.299 7.17398C22.4902 7.17398 22.6736 7.09802 22.8088 6.9628C22.9441 6.82759 23.02 6.6442 23.02 6.45298V0.721003C23.02 0.529781 22.9441 0.346391 22.8088 0.211177C22.6736 0.0759626 22.4902 0 22.299 0H16.567C16.3758 2.84943e-09 16.1924 0.0759626 16.0572 0.211177C15.922 0.346391 15.846 0.529781 15.846 0.721003C15.846 0.912225 15.922 1.09562 16.0572 1.23083C16.1924 1.36604 16.3758 1.44201 16.567 1.44201H20.5585L14.6521 7.34846C14.5169 7.48367 14.441 7.66703 14.441 7.85821C14.441 8.0494 14.5169 8.23275 14.6521 8.36796ZM8.38798 8.36796C8.25277 8.50313 8.06942 8.57906 7.87823 8.57906C7.68705 8.57906 7.50369 8.50313 7.36848 8.36796L1.46203 2.4615V6.45298C1.46203 6.6442 1.38606 6.82759 1.25085 6.9628C1.11563 7.09802 0.932245 7.17398 0.741023 7.17398C0.549801 7.17398 0.366411 7.09802 0.231196 6.9628C0.0959821 6.82759 0.0200195 6.6442 0.0200195 6.45298V0.721003C0.0200195 0.529781 0.0959821 0.346391 0.231196 0.211177C0.366411 0.0759626 0.549801 0 0.741023 0H6.473C6.66422 2.84943e-09 6.84761 0.0759626 6.98282 0.211177C7.11804 0.346391 7.194 0.529781 7.194 0.721003C7.194 0.912225 7.11804 1.09562 6.98282 1.23083C6.84761 1.36604 6.66422 1.44201 6.473 1.44201H2.48152L8.38798 7.34846C8.52315 7.48367 8.59908 7.66703 8.59908 7.85821C8.59908 8.0494 8.52315 8.23275 8.38798 8.36796Z" fill="#2A2238"/>
</svg>
