<svg width="27" height="29" viewBox="0 0 27 29" fill="none" xmlns="http://www.w3.org/2000/svg">
<path fill-rule="evenodd" clip-rule="evenodd" d="M1.30695 25.8305C0.585143 25.8305 0 25.2453 0 24.5235L0 1.86967C0 1.14786 0.585143 0.562721 1.30695 0.562721C2.02876 0.562721 2.61391 1.14786 2.61391 1.86967L2.61391 11.8042L22.3489 0.410194C24.0334 -0.562362 26.1391 0.653332 26.1391 2.59844L26.1391 25.5374C26.1391 27.4825 24.0334 28.6982 22.3489 27.7256L2.61391 16.3316L2.61391 24.5235C2.61391 25.2453 2.02876 25.8305 1.30695 25.8305ZM3.92086 14.0679L23.5251 25.3864L23.5251 2.74936L3.92086 14.0679Z" fill="#2A2238"/>
</svg>
