<svg width="26" height="29" viewBox="0 0 26 29" fill="none" xmlns="http://www.w3.org/2000/svg">
<path fill-rule="evenodd" clip-rule="evenodd" d="M0.604103 20.3973C0.604103 20.6294 0.696283 20.8519 0.860364 21.016C1.02445 21.1801 1.24699 21.2723 1.47903 21.2723H22.1152L16.6083 26.7773C16.4441 26.9416 16.3518 27.1645 16.3518 27.3968C16.3518 27.6291 16.4441 27.852 16.6083 28.0162C16.7726 28.1805 16.9955 28.2728 17.2278 28.2728C17.4601 28.2728 17.683 28.1805 17.8472 28.0162L24.8467 21.0168C24.9282 20.9355 24.9928 20.839 25.0369 20.7327C25.081 20.6264 25.1037 20.5124 25.1037 20.3973C25.1037 20.2823 25.081 20.1683 25.0369 20.062C24.9928 19.9557 24.9282 19.8592 24.8467 19.7779L17.8472 12.7784C17.683 12.6142 17.4601 12.5219 17.2278 12.5219C16.9955 12.5219 16.7726 12.6142 16.6083 12.7784C16.4441 12.9427 16.3518 13.1656 16.3518 13.3979C16.3518 13.6302 16.4441 13.8531 16.6083 14.0173L22.1152 19.5224H1.47903C1.24699 19.5224 1.02445 19.6146 0.860364 19.7787C0.696283 19.9428 0.604103 20.1653 0.604103 20.3973ZM25.1022 8.14831C25.1022 8.38036 25.01 8.6029 24.8459 8.76698C24.6818 8.93106 24.4593 9.02324 24.2272 9.02324H3.59112L9.09793 14.5283C9.17928 14.6097 9.24381 14.7062 9.28783 14.8125C9.33186 14.9188 9.35452 15.0327 9.35452 15.1478C9.35452 15.2628 9.33186 15.3767 9.28783 15.483C9.24381 15.5893 9.17928 15.6859 9.09793 15.7672C9.01659 15.8486 8.92001 15.9131 8.81373 15.9571C8.70744 16.0011 8.59352 16.0238 8.47848 16.0238C8.36344 16.0238 8.24952 16.0011 8.14324 15.9571C8.03695 15.9131 7.94038 15.8486 7.85903 15.7672L0.859583 8.76776C0.778104 8.68649 0.713459 8.58994 0.669351 8.48364C0.625243 8.37735 0.602539 8.2634 0.602539 8.14831C0.602539 8.03323 0.625243 7.91927 0.669351 7.81298C0.713459 7.70668 0.778104 7.61013 0.859583 7.52886L7.85903 0.529412C8.02332 0.365124 8.24614 0.272827 8.47848 0.272827C8.71082 0.272827 8.93364 0.365124 9.09793 0.529412C9.26222 0.693701 9.35452 0.916524 9.35452 1.14886C9.35452 1.3812 9.26222 1.60403 9.09793 1.76831L3.59112 7.27338H24.2272C24.4593 7.27338 24.6818 7.36556 24.8459 7.52964C25.01 7.69372 25.1022 7.91627 25.1022 8.14831Z" fill="#2A2238"/>
</svg>
