<svg width="25" height="29" viewBox="0 0 25 29" fill="none" xmlns="http://www.w3.org/2000/svg">
<path fill-rule="evenodd" clip-rule="evenodd" d="M12.5784 0.852449V8.87931C12.5784 8.97629 12.5507 9.07124 12.4987 9.15306C12.4466 9.23488 12.3723 9.30018 12.2845 9.34131C12.1967 9.38243 12.099 9.39769 12.0028 9.38528C11.9066 9.37288 11.816 9.33333 11.7415 9.27126L6.92371 5.25783C6.86627 5.20994 6.82007 5.15 6.78836 5.08227C6.75665 5.01454 6.74021 4.94067 6.74021 4.86588C6.74021 4.79109 6.75665 4.71722 6.78836 4.64949C6.82007 4.58176 6.86627 4.52182 6.92371 4.47393L11.7415 0.460496C11.816 0.398433 11.9066 0.358883 12.0028 0.346478C12.099 0.334073 12.1967 0.349327 12.2845 0.390454C12.3723 0.43158 12.4466 0.496877 12.4987 0.578697C12.5507 0.660517 12.5784 0.755474 12.5784 0.852449ZM18.6962 7.92612C16.9309 6.60306 14.7845 5.88751 12.5785 5.88666V3.84524C15.2258 3.84569 17.8018 4.70385 19.9205 6.29118C22.0392 7.8785 23.5866 10.1095 24.3309 12.6501C25.0752 15.1907 24.9763 17.904 24.0491 20.3837C23.1219 22.8634 21.4162 24.9759 19.1876 26.4048C16.9591 27.8337 14.3275 28.5022 11.6871 28.3099C9.04675 28.1177 6.53973 27.0752 4.54157 25.3386C2.54342 23.602 1.1617 21.2647 0.603381 18.6769C0.0450619 16.0891 0.340201 13.3901 1.44459 10.9841C1.5642 10.7493 1.77001 10.5698 2.01893 10.4833C2.26785 10.3967 2.5406 10.4098 2.78009 10.5198C3.01958 10.6298 3.20725 10.8281 3.30382 11.0733C3.40039 11.3185 3.39837 11.5916 3.2982 11.8354C2.37783 13.8402 2.13179 16.0894 2.59691 18.2458C3.06203 20.4023 4.21328 22.35 5.87824 23.7973C7.54319 25.2445 9.63222 26.1134 11.8324 26.2738C14.0326 26.4342 16.2256 25.8775 18.0828 24.687C19.9401 23.4965 21.3616 21.7363 22.1346 19.6701C22.9076 17.6039 22.9903 15.3429 22.3704 13.2257C21.7506 11.1086 20.4615 9.24918 18.6962 7.92612Z" fill="#2A2238"/>
</svg>
