<svg width="25" height="24" viewBox="0 0 25 24" fill="none" xmlns="http://www.w3.org/2000/svg">
<path fill-rule="evenodd" clip-rule="evenodd" d="M0.240315 23.7797C0.381412 23.9208 0.572756 24 0.772267 24C0.971779 24 1.16312 23.9208 1.30422 23.7797L7.46795 17.616V21.7813C7.46795 21.9809 7.54722 22.1722 7.68832 22.3133C7.82943 22.4544 8.02081 22.5337 8.22036 22.5337C8.41991 22.5337 8.61129 22.4544 8.75239 22.3133C8.89349 22.1722 8.97277 21.9809 8.97277 21.7813V15.7997C8.97277 15.6001 8.89349 15.4087 8.75239 15.2676C8.61129 15.1265 8.41991 15.0473 8.22036 15.0473H2.23871C2.03916 15.0473 1.84778 15.1265 1.70668 15.2676C1.56557 15.4087 1.4863 15.6001 1.4863 15.7997C1.4863 15.9992 1.56557 16.1906 1.70668 16.3317C1.84778 16.4728 2.03916 16.5521 2.23871 16.5521H6.40404L0.240315 22.7158C0.0992597 22.8569 0.0200195 23.0482 0.0200195 23.2478C0.0200195 23.4473 0.0992597 23.6386 0.240315 23.7797ZM23.7997 0.220295C23.6586 0.0792402 23.4673 0 23.2678 0C23.0683 0 22.8769 0.0792402 22.7358 0.220295L16.5721 6.38403V2.21869C16.5721 2.01914 16.4928 1.82776 16.3517 1.68666C16.2106 1.54555 16.0192 1.46628 15.8197 1.46628C15.6201 1.46628 15.4288 1.54555 15.2876 1.68666C15.1465 1.82776 15.0673 2.01914 15.0673 2.21869V8.20034C15.0673 8.39989 15.1465 8.59127 15.2876 8.73237C15.4288 8.87348 15.6201 8.95275 15.8197 8.95275H21.8013C22.0009 8.95275 22.1923 8.87348 22.3334 8.73237C22.4745 8.59127 22.5537 8.39989 22.5537 8.20034C22.5537 8.00079 22.4745 7.80941 22.3334 7.66831C22.1923 7.5272 22.0009 7.44793 21.8013 7.44793H17.636L23.7997 1.2842C23.9408 1.1431 24.02 0.951759 24.02 0.752248C24.02 0.552736 23.9408 0.361392 23.7997 0.220295Z" fill="#2A2238"/>
</svg>
