<svg width="25" height="29" viewBox="0 0 25 29" fill="none" xmlns="http://www.w3.org/2000/svg">
<path fill-rule="evenodd" clip-rule="evenodd" d="M12.3503 0.782991V8.80985C12.3503 8.90683 12.378 9.00179 12.43 9.08361C12.4821 9.16543 12.5564 9.23072 12.6442 9.27185C12.732 9.31297 12.8297 9.32823 12.9259 9.31582C13.0221 9.30342 13.1128 9.26387 13.1873 9.20181L18.005 5.18837C18.25 4.98423 18.25 4.60861 18.005 4.40447L13.1873 0.391038C13.1128 0.328975 13.0221 0.289425 12.9259 0.27702C12.8297 0.264615 12.732 0.279869 12.6442 0.320996C12.5564 0.362122 12.4821 0.427419 12.43 0.509239C12.378 0.591059 12.3503 0.686016 12.3503 0.782991ZM6.23248 7.85666C7.99775 6.5336 10.1441 5.81805 12.3502 5.8172V3.77579C9.70284 3.77624 7.12689 4.63439 5.0082 6.22172C2.8895 7.80904 1.34211 10.0401 0.597812 12.5807C-0.146486 15.1212 -0.0476253 17.8346 0.879585 20.3142C1.80679 22.7939 3.51244 24.9064 5.74103 26.3353C7.96963 27.7643 10.6012 28.4327 13.2416 28.2405C15.8819 28.0483 18.389 27.0058 20.3871 25.2692C22.3853 23.5326 23.767 21.1953 24.3253 18.6075C24.8836 16.0197 24.5885 13.3206 23.4841 10.9146C23.3645 10.6798 23.1587 10.5003 22.9098 10.4138C22.6608 10.3273 22.3881 10.3404 22.1486 10.4503C21.9091 10.5603 21.7214 10.7587 21.6249 11.0039C21.5283 11.2491 21.5303 11.5221 21.6305 11.7659C22.5508 13.7708 22.7969 16.0199 22.3318 18.1764C21.8667 20.3328 20.7154 22.2805 19.0504 23.7278C17.3855 25.1751 15.2965 26.044 13.0963 26.2044C10.896 26.3648 8.70309 25.808 6.84584 24.6175C4.9886 23.427 3.56703 21.6669 2.79408 19.6007C2.02113 17.5345 1.93839 15.2734 2.55825 13.1563C3.17812 11.0391 4.46722 9.17973 6.23248 7.85666Z" fill="#2A2238"/>
</svg>
