<svg width="26" height="29" viewBox="0 0 26 29" fill="none" xmlns="http://www.w3.org/2000/svg">
<path fill-rule="evenodd" clip-rule="evenodd" d="M0.827881 14.3423C0.827881 14.1102 0.920068 13.8877 1.08416 13.7236C1.24826 13.5595 1.47082 13.4673 1.70288 13.4673H24.4529C24.6849 13.4673 24.9075 13.5595 25.0716 13.7236C25.2357 13.8877 25.3279 14.1102 25.3279 14.3423C25.3279 14.5743 25.2357 14.7969 25.0716 14.961C24.9075 15.1251 24.6849 15.2173 24.4529 15.2173H1.70288C1.47082 15.2173 1.24826 15.1251 1.08416 14.961C0.920068 14.7969 0.827881 14.5743 0.827881 14.3423ZM13.0779 0.342285C13.3099 0.342285 13.5325 0.434472 13.6966 0.598567C13.8607 0.762661 13.9529 0.985221 13.9529 1.21729V7.85504L15.9584 5.84778C16.1227 5.68348 16.3455 5.59118 16.5779 5.59118C16.8102 5.59118 17.0331 5.68348 17.1974 5.84778C17.3617 6.01209 17.454 6.23493 17.454 6.46729C17.454 6.69964 17.3617 6.92248 17.1974 7.08679L13.6974 10.5868C13.6161 10.6683 13.5195 10.7329 13.4132 10.777C13.3069 10.8211 13.193 10.8438 13.0779 10.8438C12.9628 10.8438 12.8488 10.8211 12.7425 10.777C12.6362 10.7329 12.5397 10.6683 12.4584 10.5868L8.95838 7.08679C8.79408 6.92248 8.70178 6.69964 8.70178 6.46729C8.70178 6.23493 8.79408 6.01209 8.95838 5.84778C9.12268 5.68348 9.34552 5.59118 9.57788 5.59118C9.81024 5.59118 10.0331 5.68348 10.1974 5.84778L12.2029 7.85504V1.21729C12.2029 0.985221 12.2951 0.762661 12.4592 0.598567C12.6233 0.434472 12.8458 0.342285 13.0779 0.342285V0.342285ZM12.2029 20.8295L10.1974 22.8368C10.0331 23.0011 9.81024 23.0934 9.57788 23.0934C9.34552 23.0934 9.12268 23.0011 8.95838 22.8368C8.79408 22.6725 8.70178 22.4496 8.70178 22.2173C8.70178 21.9849 8.79408 21.7621 8.95838 21.5978L12.4584 18.0978C12.5397 18.0163 12.6362 17.9517 12.7425 17.9075C12.8488 17.8634 12.9628 17.8407 13.0779 17.8407C13.193 17.8407 13.3069 17.8634 13.4132 17.9075C13.5195 17.9517 13.6161 18.0163 13.6974 18.0978L17.1974 21.5978C17.3617 21.7621 17.454 21.9849 17.454 22.2173C17.454 22.4496 17.3617 22.6725 17.1974 22.8368C17.0331 23.0011 16.8102 23.0934 16.5779 23.0934C16.3455 23.0934 16.1227 23.0011 15.9584 22.8368L13.9529 20.8295V27.4673C13.9529 27.6994 13.8607 27.9219 13.6966 28.086C13.5325 28.2501 13.3099 28.3423 13.0779 28.3423C12.8458 28.3423 12.6233 28.2501 12.4592 28.086C12.2951 27.9219 12.2029 27.6994 12.2029 27.4673V20.8295Z" fill="#2A2238"/>
</svg>
