<svg width="23" height="25" viewBox="0 0 23 25" fill="none" xmlns="http://www.w3.org/2000/svg">
<path fill-rule="evenodd" clip-rule="evenodd" d="M0.147461 12.5C0.147461 12.2928 0.229762 12.0941 0.376258 11.9476C0.522755 11.8011 0.721446 11.7188 0.928624 11.7188H21.2389C21.446 11.7188 21.6447 11.8011 21.7912 11.9476C21.9377 12.0941 22.02 12.2928 22.02 12.5C22.02 12.7072 21.9377 12.9059 21.7912 13.0524C21.6447 13.1989 21.446 13.2812 21.2389 13.2812H0.928624C0.721446 13.2812 0.522755 13.1989 0.376258 13.0524C0.229762 12.9059 0.147461 12.7072 0.147461 12.5ZM10.5307 0.229496C10.6032 0.156749 10.6894 0.0990322 10.7843 0.0596515C10.8792 0.0202709 10.981 0 11.0837 0C11.1865 0 11.2882 0.0202709 11.3831 0.0596515C11.478 0.0990322 11.5642 0.156749 11.6368 0.229496L14.7615 3.35415C14.8341 3.42678 14.8917 3.513 14.931 3.60789C14.9703 3.70279 14.9905 3.8045 14.9905 3.90721C14.9905 4.00992 14.9703 4.11163 14.931 4.20653C14.8917 4.30142 14.8341 4.38764 14.7615 4.46027C14.6888 4.5329 14.6026 4.59052 14.5077 4.62982C14.4128 4.66913 14.3111 4.68936 14.2084 4.68936C14.1057 4.68936 14.004 4.66913 13.9091 4.62982C13.8142 4.59052 13.728 4.5329 13.6553 4.46027L11.8649 2.66829V8.59419C11.8649 8.80136 11.7826 9.00005 11.6361 9.14655C11.4896 9.29305 11.2909 9.37535 11.0837 9.37535C10.8766 9.37535 10.6779 9.29305 10.5314 9.14655C10.3849 9.00005 10.3026 8.80136 10.3026 8.59419V2.66829L8.51215 4.46027C8.36547 4.60695 8.16653 4.68936 7.95909 4.68936C7.75165 4.68936 7.55271 4.60695 7.40602 4.46027C7.25934 4.31359 7.17694 4.11465 7.17694 3.90721C7.17694 3.69977 7.25934 3.50083 7.40602 3.35415L10.5307 0.229496ZM11.0837 15.6247C11.2909 15.6247 11.4896 15.707 11.6361 15.8534C11.7826 15.9999 11.8649 16.1986 11.8649 16.4058V22.3317L13.6553 20.5397C13.802 20.393 14.0009 20.3106 14.2084 20.3106C14.4158 20.3106 14.6148 20.393 14.7615 20.5397C14.9081 20.6864 14.9905 20.8853 14.9905 21.0928C14.9905 21.3002 14.9081 21.4992 14.7615 21.6459L11.6368 24.7705C11.5642 24.8433 11.478 24.901 11.3831 24.9403C11.2882 24.9797 11.1865 25 11.0837 25C10.981 25 10.8792 24.9797 10.7843 24.9403C10.6894 24.901 10.6032 24.8433 10.5307 24.7705L7.40602 21.6459C7.3334 21.5732 7.27578 21.487 7.23648 21.3921C7.19717 21.2972 7.17694 21.1955 7.17694 21.0928C7.17694 20.9901 7.19717 20.8884 7.23648 20.7935C7.27578 20.6986 7.3334 20.6124 7.40602 20.5397C7.55271 20.393 7.75165 20.3106 7.95909 20.3106C8.0618 20.3106 8.16351 20.3309 8.2584 20.3702C8.3533 20.4095 8.43952 20.4671 8.51215 20.5397L10.3026 22.3317V16.4058C10.3026 16.1986 10.3849 15.9999 10.5314 15.8534C10.6779 15.707 10.8766 15.6247 11.0837 15.6247Z" fill="#2A2238"/>
</svg>
