<svg width="28" height="14" viewBox="0 0 28 14" fill="none" xmlns="http://www.w3.org/2000/svg">
<path d="M21.6364 12.0909H7C4.18727 12.0909 1.90909 9.81273 1.90909 7C1.90909 4.18727 4.18727 1.90909 7 1.90909H22.9091C24.6655 1.90909 26.0909 3.33455 26.0909 5.09091C26.0909 6.84727 24.6655 8.27273 22.9091 8.27273H9.54545C8.84545 8.27273 8.27273 7.7 8.27273 7C8.27273 6.3 8.84545 5.72727 9.54545 5.72727H21.6364V3.81818H9.54545C7.78909 3.81818 6.36364 5.24364 6.36364 7C6.36364 8.75636 7.78909 10.1818 9.54545 10.1818H22.9091C25.7218 10.1818 28 7.90364 28 5.09091C28 2.27818 25.7218 0 22.9091 0H7C3.13091 0 0 3.13091 0 7C0 10.8691 3.13091 14 7 14H21.6364V12.0909Z" fill="#2A2238"/>
</svg>
