<svg width="29" height="26" viewBox="0 0 29 26" fill="none" xmlns="http://www.w3.org/2000/svg">
<path fill-rule="evenodd" clip-rule="evenodd" d="M27.7791 1.38814C27.1095 0.71849 26.2012 0.342285 25.2542 0.342285H12.6137C12.0982 0.342509 11.5889 0.454331 11.1208 0.670066C10.6526 0.885801 10.2367 1.20033 9.90169 1.59205L1.25509 11.6759C0.977529 11.9995 0.824951 12.4118 0.824951 12.8382C0.824951 13.2645 0.977529 13.6768 1.25509 14.0005L9.90169 24.0914C10.2371 24.4825 10.6531 24.7964 11.1212 25.0115C11.5894 25.2266 12.0985 25.3378 12.6137 25.3376H25.2542C26.2012 25.3376 27.1095 24.9614 27.7791 24.2918C28.4487 23.6221 28.8249 22.7139 28.8249 21.7669V3.91305C28.8249 2.96602 28.4487 2.05779 27.7791 1.38814ZM11.8667 2.29137C12.101 2.1835 12.3558 2.12765 12.6137 2.12767H25.2542C25.7277 2.12767 26.1818 2.31577 26.5166 2.65059C26.8515 2.98542 27.0396 3.43954 27.0396 3.91305V21.7669C27.0396 22.2404 26.8515 22.6945 26.5166 23.0293C26.1818 23.3641 25.7277 23.5522 25.2542 23.5522H12.6137C12.3561 23.552 12.1016 23.496 11.8677 23.3882C11.6338 23.2803 11.426 23.1231 11.2586 22.9274L2.61019 12.84L11.2568 2.75255C11.4244 2.55658 11.6325 2.39924 11.8667 2.29137ZM11.0395 8.03441C11.0845 7.92596 11.1505 7.82745 11.2336 7.74453H11.2318C11.3992 7.57717 11.6262 7.48316 11.8629 7.48316C12.0997 7.48316 12.3267 7.57717 12.4941 7.74453L16.3273 11.5777L20.1587 7.74453C20.3263 7.57714 20.5536 7.4832 20.7905 7.48336C21.0274 7.48353 21.2545 7.5778 21.4219 7.74542C21.5893 7.91304 21.6832 8.14029 21.683 8.37718C21.6829 8.61407 21.5886 8.84119 21.421 9.00858L17.5896 12.84L21.4192 16.6714C21.5868 16.8388 21.6811 17.0659 21.6813 17.3028C21.6814 17.5397 21.5875 17.767 21.4201 17.9346C21.2527 18.1022 21.0256 18.1965 20.7887 18.1966C20.5518 18.1968 20.3246 18.1029 20.1569 17.9355L16.3255 14.1023L12.4923 17.9355C12.3247 18.1029 12.0974 18.1968 11.8605 18.1966C11.7432 18.1966 11.6271 18.1734 11.5188 18.1284C11.4104 18.0835 11.312 18.0176 11.2291 17.9346C11.1463 17.8516 11.0805 17.7531 11.0357 17.6447C10.9909 17.5363 10.9679 17.4201 10.968 17.3028C10.9681 17.0659 11.0624 16.8388 11.23 16.6714L15.0632 12.84L11.2336 9.00858C11.1505 8.92565 11.0845 8.82714 11.0395 8.71869C10.9945 8.61024 10.9713 8.49397 10.9713 8.37655C10.9713 8.25913 10.9945 8.14286 11.0395 8.03441Z" fill="#2A2238"/>
</svg>
