<svg width="29" height="25" viewBox="0 0 29 25" fill="none" xmlns="http://www.w3.org/2000/svg">
<path d="M0.618896 3.57076C0.618896 2.62374 0.995101 1.7155 1.66475 1.04585C2.3344 0.376205 3.24263 3.18282e-07 4.18966 3.18282e-07H16.8302C17.3453 -0.00021719 17.8545 0.111049 18.3226 0.326159C18.7907 0.54127 19.2068 0.855131 19.5422 1.2462L28.1888 11.3354C28.4663 11.659 28.6189 12.0713 28.6189 12.4977C28.6189 12.924 28.4663 13.3363 28.1888 13.66L19.5439 23.7456C19.2087 24.1375 18.7925 24.4522 18.324 24.6679C17.8556 24.8837 17.3459 24.9954 16.8302 24.9953H4.18966C3.24263 24.9953 2.3344 24.6191 1.66475 23.9495C0.995101 23.2798 0.618896 22.3716 0.618896 21.4246V3.57076ZM18.212 8.66624C18.295 8.58324 18.3609 8.48471 18.4058 8.37627C18.4507 8.26782 18.4738 8.1516 18.4738 8.03422C18.4738 7.91684 18.4507 7.80061 18.4058 7.69217C18.3609 7.58372 18.295 7.48519 18.212 7.40219C18.129 7.31919 18.0305 7.25335 17.9221 7.20844C17.8136 7.16352 17.6974 7.1404 17.58 7.1404C17.4626 7.1404 17.3464 7.16352 17.238 7.20844C17.1295 7.25335 17.031 7.31919 16.948 7.40219L13.1166 11.2354L9.28514 7.40219C9.20214 7.31919 9.10361 7.25335 8.99516 7.20844C8.88672 7.16352 8.77049 7.1404 8.65311 7.1404C8.53574 7.1404 8.41951 7.16352 8.31106 7.20844C8.20262 7.25335 8.10409 7.31919 8.02109 7.40219C7.93809 7.48519 7.87225 7.58372 7.82733 7.69217C7.78241 7.80061 7.75929 7.91684 7.75929 8.03422C7.75929 8.1516 7.78241 8.26782 7.82733 8.37627C7.87225 8.48471 7.93809 8.58324 8.02109 8.66624L11.8543 12.4977L8.02109 16.3291C7.85346 16.4967 7.75929 16.7241 7.75929 16.9611C7.75929 17.1982 7.85346 17.4255 8.02109 17.5931C8.18871 17.7608 8.41606 17.8549 8.65311 17.8549C8.89017 17.8549 9.11752 17.7608 9.28514 17.5931L13.1166 13.7599L16.948 17.5931C17.1156 17.7608 17.343 17.8549 17.58 17.8549C17.8171 17.8549 18.0444 17.7608 18.212 17.5931C18.3797 17.4255 18.4738 17.1982 18.4738 16.9611C18.4738 16.7241 18.3797 16.4967 18.212 16.3291L14.3788 12.4977L18.212 8.66624Z" fill="#2A2238"/>
</svg>
