<svg width="24" height="26" viewBox="0 0 24 26" fill="none" xmlns="http://www.w3.org/2000/svg">
<path d="M12.2725 1.625C13.3499 1.625 14.3832 2.05301 15.1451 2.81488C15.9069 3.57675 16.335 4.61006 16.335 5.6875V6.5H8.20996V5.6875C8.20996 4.61006 8.63797 3.57675 9.39984 2.81488C10.1617 2.05301 11.195 1.625 12.2725 1.625ZM17.96 6.5V5.6875C17.96 4.17908 17.3607 2.73244 16.2941 1.66583C15.2275 0.599217 13.7809 0 12.2725 0C10.764 0 9.3174 0.599217 8.25079 1.66583C7.18418 2.73244 6.58496 4.17908 6.58496 5.6875V6.5H0.897461V22.75C0.897461 23.612 1.23987 24.4386 1.84936 25.0481C2.45886 25.6576 3.28551 26 4.14746 26H20.3975C21.2594 26 22.0861 25.6576 22.6956 25.0481C23.305 24.4386 23.6475 23.612 23.6475 22.75V6.5H17.96Z" fill="#2A2238"/>
</svg>
