<svg width="23" height="26" viewBox="0 0 23 26" fill="none" xmlns="http://www.w3.org/2000/svg">
<path fill-rule="evenodd" clip-rule="evenodd" d="M15.585 5.6875C15.585 4.61006 15.1569 3.57675 14.3951 2.81488C13.6332 2.05301 12.5999 1.625 11.5225 1.625C10.445 1.625 9.41171 2.05301 8.64984 2.81488C7.88797 3.57675 7.45996 4.61006 7.45996 5.6875V6.5H15.585V5.6875ZM17.21 5.6875V6.5H22.8975V22.75C22.8975 23.612 22.555 24.4386 21.9456 25.0481C21.3361 25.6576 20.5094 26 19.6475 26H3.39746C2.53551 26 1.70886 25.6576 1.09936 25.0481C0.489871 24.4386 0.147461 23.612 0.147461 22.75V6.5H5.83496V5.6875C5.83496 4.17908 6.43418 2.73244 7.50079 1.66583C8.5674 0.599217 10.014 0 11.5225 0C13.0309 0 14.4775 0.599217 15.5441 1.66583C16.6107 2.73244 17.21 4.17908 17.21 5.6875ZM8.27246 15.4375C8.05697 15.4375 7.85031 15.5231 7.69794 15.6755C7.54556 15.8278 7.45996 16.0345 7.45996 16.25C7.45996 16.4655 7.54556 16.6722 7.69794 16.8245C7.85031 16.9769 8.05697 17.0625 8.27246 17.0625H14.7725C14.9879 17.0625 15.1946 16.9769 15.347 16.8245C15.4994 16.6722 15.585 16.4655 15.585 16.25C15.585 16.0345 15.4994 15.8278 15.347 15.6755C15.1946 15.5231 14.9879 15.4375 14.7725 15.4375H8.27246Z" fill="#2A2238"/>
</svg>
