<svg width="24" height="27" viewBox="0 0 24 27" fill="none" xmlns="http://www.w3.org/2000/svg">
<path fill-rule="evenodd" clip-rule="evenodd" d="M14.8502 3.08771C14.0883 2.32584 13.055 1.89783 11.9775 1.89783C10.9001 1.89783 9.86678 2.32584 9.10492 3.08771C8.34305 3.84957 7.91504 4.88288 7.91504 5.96033V6.77283H16.04V5.96033C16.04 4.88288 15.612 3.84957 14.8502 3.08771ZM17.665 5.96033V6.77283H23.3525V23.0228C23.3525 23.8848 23.0101 24.7114 22.4006 25.3209C21.7911 25.9304 20.9645 26.2728 20.1025 26.2728H3.85254C2.99059 26.2728 2.16394 25.9304 1.55444 25.3209C0.944949 24.7114 0.602539 23.8848 0.602539 23.0228V6.77283H6.29004V5.96033C6.29004 4.45191 6.88926 3.00527 7.95587 1.93866C9.02248 0.872044 10.4691 0.272827 11.9775 0.272827C13.486 0.272827 14.9326 0.872044 15.9992 1.93866C17.0658 3.00527 17.665 4.45191 17.665 5.96033ZM21.2516 24.1719C21.5563 23.8671 21.7275 23.4538 21.7275 23.0228V8.39783H2.22754V23.0228C2.22754 23.4538 2.39874 23.8671 2.70349 24.1719C3.00824 24.4766 3.42156 24.6478 3.85254 24.6478H20.1025C20.5335 24.6478 20.9468 24.4766 21.2516 24.1719ZM8.15302 15.9483C8.00064 16.1007 7.91504 16.3073 7.91504 16.5228C7.91504 16.7383 8.00064 16.945 8.15302 17.0974C8.30539 17.2497 8.51205 17.3353 8.72754 17.3353H15.2275C15.443 17.3353 15.6497 17.2497 15.8021 17.0974C15.9544 16.945 16.04 16.7383 16.04 16.5228C16.04 16.3073 15.9544 16.1007 15.8021 15.9483C15.6497 15.7959 15.443 15.7103 15.2275 15.7103H8.72754C8.51205 15.7103 8.30539 15.7959 8.15302 15.9483Z" fill="#2A2238"/>
</svg>
