<svg width="24" height="26" viewBox="0 0 24 26" fill="none" xmlns="http://www.w3.org/2000/svg">
<path d="M17.71 6.5V5.6875C17.71 4.17908 17.1107 2.73244 16.0441 1.66583C14.9775 0.599217 13.5309 0 12.0225 0C10.514 0 9.0674 0.599217 8.00079 1.66583C6.93418 2.73244 6.33496 4.17908 6.33496 5.6875V6.5H0.647461V22.75C0.647461 23.612 0.989871 24.4386 1.59936 25.0481C2.20886 25.6576 3.03551 26 3.89746 26H20.1475C21.0094 26 21.8361 25.6576 22.4456 25.0481C23.055 24.4386 23.3975 23.612 23.3975 22.75V6.5H17.71ZM12.0225 1.625C13.0999 1.625 14.1332 2.05301 14.8951 2.81488C15.6569 3.57675 16.085 4.61006 16.085 5.6875V6.5H7.95996V5.6875C7.95996 4.61006 8.38797 3.57675 9.14984 2.81488C9.91171 2.05301 10.945 1.625 12.0225 1.625ZM12.0225 12.9886C14.7265 10.2083 21.4881 15.0735 12.0225 21.3281C2.55684 15.0719 9.31846 10.2083 12.0225 12.9886Z" fill="#2A2238"/>
</svg>
