<svg width="23" height="27" viewBox="0 0 23 27" fill="none" xmlns="http://www.w3.org/2000/svg">
<path fill-rule="evenodd" clip-rule="evenodd" d="M15.54 5.96033C15.54 4.88288 15.112 3.84957 14.3502 3.08771C13.5883 2.32584 12.555 1.89783 11.4775 1.89783C10.4001 1.89783 9.36678 2.32584 8.60492 3.08771C7.84305 3.84957 7.41504 4.88288 7.41504 5.96033V6.77283H15.54V5.96033ZM17.165 5.96033V6.77283H22.8525V23.0228C22.8525 23.8848 22.5101 24.7114 21.9006 25.3209C21.2911 25.9304 20.4645 26.2728 19.6025 26.2728H3.35254C2.49059 26.2728 1.66394 25.9304 1.05444 25.3209C0.444949 24.7114 0.102539 23.8848 0.102539 23.0228V6.77283H5.79004V5.96033C5.79004 4.45191 6.38926 3.00527 7.45587 1.93866C8.52248 0.872044 9.96912 0.272827 11.4775 0.272827C12.986 0.272827 14.4326 0.872044 15.4992 1.93866C16.5658 3.00527 17.165 4.45191 17.165 5.96033ZM9.61529 13.5101C9.53975 13.4345 9.45006 13.3746 9.35136 13.3337C9.25266 13.2928 9.14687 13.2718 9.04004 13.2718C8.93321 13.2718 8.82742 13.2928 8.72872 13.3337C8.63001 13.3746 8.54033 13.4345 8.46479 13.5101C8.38925 13.5856 8.32932 13.6753 8.28844 13.774C8.24755 13.8727 8.22651 13.9785 8.22651 14.0853C8.22651 14.1922 8.24755 14.2979 8.28844 14.3967C8.32932 14.4954 8.38925 14.585 8.46479 14.6606L10.3287 16.5228L8.46479 18.3851C8.31222 18.5376 8.22651 18.7446 8.22651 18.9603C8.22651 19.1761 8.31222 19.383 8.46479 19.5356C8.61735 19.6881 8.82428 19.7739 9.04004 19.7739C9.2558 19.7739 9.46272 19.6881 9.61529 19.5356L11.4775 17.6717L13.3398 19.5356C13.4924 19.6881 13.6993 19.7739 13.915 19.7739C14.1308 19.7739 14.3377 19.6881 14.4903 19.5356C14.6429 19.383 14.7286 19.1761 14.7286 18.9603C14.7286 18.7446 14.6429 18.5376 14.4903 18.3851L12.6264 16.5228L14.4903 14.6606C14.6429 14.508 14.7286 14.3011 14.7286 14.0853C14.7286 13.8696 14.6429 13.6626 14.4903 13.5101C14.3377 13.3575 14.1308 13.2718 13.915 13.2718C13.6993 13.2718 13.4924 13.3575 13.3398 13.5101L11.4775 15.374L9.61529 13.5101Z" fill="#2A2238"/>
</svg>
