<svg width="23" height="29" viewBox="0 0 23 29" fill="none" xmlns="http://www.w3.org/2000/svg">
<path fill-rule="evenodd" clip-rule="evenodd" d="M12.3077 19.6858C31.7247 6.28486 17.2678 -3.97118 11.4366 2.02529C5.60372 -3.97118 -8.85324 6.28486 10.5655 19.6858L10.1495 20.5178C10.1234 20.5701 10.1078 20.627 10.1036 20.6854C10.0995 20.7437 10.1069 20.8023 10.1254 20.8577C10.1627 20.9697 10.243 21.0623 10.3486 21.1152C10.4542 21.168 10.5765 21.1767 10.6885 21.1393C10.8006 21.102 10.8932 21.0217 10.946 20.916L11.0171 20.7738C11.0331 21.076 11.0597 21.3338 11.1077 21.5738C11.2286 22.1854 11.4775 22.6796 11.9042 23.5329L11.9273 23.5827C12.3042 24.3329 12.2509 25.0938 12.0162 25.7978C11.7762 26.5125 11.3655 27.133 11.0669 27.581C11.0013 27.679 10.9774 27.7991 11.0004 27.9148C11.0234 28.0305 11.0914 28.1323 11.1895 28.1979C11.2876 28.2634 11.4077 28.2873 11.5234 28.2643C11.6391 28.2413 11.7409 28.1733 11.8064 28.0752L11.8135 28.0627C12.1086 27.6219 12.5798 26.9143 12.8589 26.0805C13.1433 25.229 13.2358 24.2121 12.7238 23.1845C12.2651 22.2689 12.0749 21.8832 11.9789 21.3996C11.9464 21.2298 11.9245 21.0583 11.9131 20.8858L11.9273 20.916C11.9801 21.0217 12.0727 21.102 12.1847 21.1393C12.2968 21.1767 12.419 21.168 12.5246 21.1152C12.6303 21.0623 12.7106 20.9697 12.7479 20.8577C12.7852 20.7457 12.7766 20.6234 12.7238 20.5178L12.306 19.6858H12.3077Z" fill="#2A2238"/>
</svg>
