<svg width="18" height="29" viewBox="0 0 18 29" fill="none" xmlns="http://www.w3.org/2000/svg">
<path fill-rule="evenodd" clip-rule="evenodd" d="M9.79216 19.7216C14.6472 18.5234 17.8276 14.2746 17.8276 9.23107C17.8276 6.87362 16.8911 4.61272 15.2242 2.94575C13.5572 1.27878 11.2963 0.342281 8.93884 0.342281C6.58139 0.342281 4.32049 1.27878 2.65352 2.94575C0.986544 4.61272 0.0500488 6.87362 0.0500488 9.23107C0.0500488 14.2746 3.23046 18.5234 8.08552 19.7216L7.65174 20.5874C7.6256 20.6397 7.61001 20.6966 7.60586 20.7549C7.60172 20.8133 7.6091 20.8718 7.62759 20.9273C7.66493 21.0393 7.74524 21.1319 7.85085 21.1847C7.95647 21.2375 8.07873 21.2462 8.19075 21.2089C8.30277 21.1715 8.39537 21.0912 8.44818 20.9856L8.51929 20.8434C8.53529 21.1456 8.56196 21.4034 8.60996 21.6434C8.73084 22.2549 8.97973 22.7491 9.40639 23.6025L9.4295 23.6523C9.80639 24.4025 9.75306 25.1633 9.51839 25.8673C9.27839 26.582 8.86773 27.2024 8.56907 27.6504C8.50353 27.7485 8.47964 27.8686 8.50264 27.9843C8.52564 28.1 8.59366 28.2018 8.69173 28.2673C8.7898 28.3328 8.90989 28.3567 9.02558 28.3337C9.14127 28.3107 9.24308 28.2427 9.30862 28.1446L9.31573 28.1322C9.61083 27.6913 10.0819 26.9838 10.361 26.15C10.6455 25.2985 10.7379 24.2816 10.2259 23.254C9.76728 22.3385 9.57706 21.9527 9.48106 21.4692C9.44864 21.2994 9.42667 21.1278 9.41528 20.9554L9.4295 20.9856C9.48231 21.0912 9.57491 21.1715 9.68693 21.2089C9.79895 21.2462 9.92122 21.2375 10.0268 21.1847C10.1324 21.1319 10.2128 21.0393 10.2501 20.9273C10.2874 20.8153 10.2787 20.693 10.2259 20.5874L9.79216 19.7216Z" fill="#2A2238"/>
</svg>
