<svg width="29" height="28" viewBox="0 0 29 28" fill="none" xmlns="http://www.w3.org/2000/svg">
<path fill-rule="evenodd" clip-rule="evenodd" d="M21.6483 1.70476C23.0456 1.70476 24.3857 2.25974 25.3739 3.24765C26.3618 4.23585 26.9168 5.57597 26.9168 6.9733C26.9168 8.37062 26.3618 9.71074 25.3739 10.6989L23.3943 12.7453L15.9096 5.26241L17.9226 3.24765C18.9108 2.25974 20.251 1.70476 21.6483 1.70476ZM14.6695 6.50605L22.1629 13.9995L14.6221 21.5404L7.13564 14.054L14.6695 6.50605ZM5.892 15.2941L13.3679 22.77L11.3303 24.7391L11.3197 24.7496C10.3218 25.6863 8.99869 26.1979 7.63024 26.1764C6.26179 26.1548 4.95542 25.6016 3.98754 24.634C3.01967 23.6664 2.46623 22.3601 2.44433 20.9917C2.42243 19.6232 2.93379 18.2999 3.87021 17.3018L5.892 15.2941ZM16.679 2.00576L5.27545 13.4304L5.27369 13.4339L2.63008 16.0547L2.62832 16.0582C1.33415 17.38 0.613455 19.1588 0.622645 21.0087C0.631836 22.8585 1.37017 24.6301 2.67742 25.939C3.98466 27.2478 5.75533 27.9883 7.60517 27.9998C9.455 28.0113 11.2347 27.2928 12.5581 26.0003L15.2333 23.4146L24.0266 14.6213L26.6211 11.9356C27.9136 10.6122 28.6321 8.83244 28.6206 6.98261C28.6091 5.13278 27.8686 3.3621 26.5598 2.05486C25.2509 0.747612 23.4793 0.00927765 21.6295 8.6838e-05C19.7796 -0.00910398 18.0008 0.711591 16.679 2.00576ZM10.5333 13.6623C10.4871 13.5553 10.4201 13.4584 10.3361 13.3775H10.3378C10.1729 13.2129 9.94933 13.1204 9.71627 13.1206C9.48321 13.1208 9.25976 13.2135 9.09507 13.3784C8.93039 13.5433 8.83796 13.7669 8.83813 14C8.83821 14.1154 8.86102 14.2296 8.90526 14.3362C8.94949 14.4428 9.01429 14.5396 9.09595 14.6212C9.17709 14.7049 9.2741 14.7717 9.38131 14.8176C9.48853 14.8634 9.60381 14.8875 9.72042 14.8884C9.83704 14.8892 9.95265 14.8668 10.0605 14.8225C10.1684 14.7782 10.2664 14.7128 10.3487 14.6303C10.431 14.5477 10.4961 14.4495 10.5401 14.3415C10.5841 14.2335 10.6062 14.1179 10.605 14.0013C10.6038 13.8846 10.5795 13.7694 10.5333 13.6623ZM13.0184 11.1789C12.9724 11.0717 12.9055 10.9748 12.8216 10.8938C12.656 10.7338 12.4341 10.6453 12.2038 10.6473C11.9735 10.6493 11.7533 10.7416 11.5904 10.9045C11.4276 11.0673 11.3352 11.2876 11.3332 11.5179C11.3312 11.7482 11.4197 11.97 11.5797 12.1357C11.6607 12.2195 11.7576 12.2864 11.8648 12.3325C11.972 12.3785 12.0872 12.4027 12.2038 12.4037C12.3204 12.4048 12.4361 12.3825 12.544 12.3384C12.652 12.2942 12.75 12.229 12.8325 12.1465C12.9149 12.0641 12.9802 11.966 13.0243 11.8581C13.0685 11.7501 13.0907 11.6345 13.0897 11.5179C13.0887 11.4013 13.0645 11.286 13.0184 11.1789ZM15.4974 8.69523C15.4533 8.58858 15.3887 8.49166 15.3071 8.41001H15.3054C15.1397 8.25002 14.9179 8.1615 14.6876 8.1635C14.4573 8.1655 14.237 8.25786 14.0742 8.4207C13.9113 8.58354 13.819 8.80383 13.817 9.03411C13.815 9.26439 13.9035 9.48624 14.0635 9.65189C14.145 9.73355 14.2419 9.79835 14.3484 9.84258C14.455 9.88682 14.5693 9.90963 14.6847 9.90971C14.8001 9.90979 14.9144 9.88715 15.021 9.84306C15.1277 9.79897 15.2246 9.73431 15.3062 9.65277C15.3879 9.57122 15.4527 9.4744 15.4969 9.36781C15.5412 9.26122 15.564 9.14697 15.5641 9.03157C15.5641 8.91617 15.5415 8.80188 15.4974 8.69523ZM15.4974 18.6321C15.4533 18.5254 15.3887 18.4285 15.3071 18.3468H15.3054C15.1397 18.1868 14.9179 18.0983 14.6876 18.1003C14.4573 18.1023 14.237 18.1947 14.0742 18.3575C13.9113 18.5204 13.819 18.7406 13.817 18.9709C13.815 19.2012 13.9035 19.4231 14.0635 19.5887C14.145 19.6704 14.2419 19.7352 14.3484 19.7794C14.455 19.8236 14.5693 19.8465 14.6847 19.8465C14.8001 19.8466 14.9144 19.824 15.021 19.7799C15.1277 19.7358 15.2246 19.6711 15.3062 19.5896C15.3879 19.508 15.4527 19.4112 15.4969 19.3046C15.5412 19.198 15.564 19.0838 15.5641 18.9684C15.5641 18.853 15.5415 18.7387 15.4974 18.6321ZM17.1688 17.3619C17.4019 17.3617 17.6253 17.269 17.79 17.1041C17.9547 16.9391 18.0471 16.7156 18.047 16.4825C18.0468 16.2494 17.954 16.026 17.7891 15.8613V15.8631C17.6235 15.7031 17.4016 15.6145 17.1713 15.6166C16.9411 15.6186 16.7208 15.7109 16.5579 15.8738C16.3951 16.0366 16.3027 16.2569 16.3007 16.4872C16.2987 16.7174 16.3873 16.9393 16.5472 17.1049C16.7122 17.2696 16.9357 17.3621 17.1688 17.3619ZM20.4701 13.6623C20.4239 13.5553 20.3569 13.4584 20.2729 13.3775H20.2747C20.1097 13.2129 19.8862 13.1204 19.6531 13.1206C19.42 13.1208 19.1966 13.2135 19.0319 13.3784C18.8672 13.5433 18.7748 13.7669 18.7749 14C18.775 14.1154 18.7978 14.2296 18.8421 14.3362C18.8863 14.4428 18.9511 14.5396 19.0328 14.6212C19.1139 14.7049 19.2109 14.7717 19.3181 14.8176C19.4253 14.8634 19.5406 14.8875 19.6572 14.8884C19.7739 14.8892 19.8895 14.8668 19.9973 14.8225C20.1052 14.7782 20.2032 14.7128 20.2855 14.6303C20.3679 14.5477 20.4329 14.4495 20.4769 14.3415C20.521 14.2335 20.543 14.1179 20.5418 14.0013C20.5407 13.8846 20.5163 13.7694 20.4701 13.6623ZM13.0123 16.1463C12.9681 16.0397 12.9033 15.9428 12.8216 15.8613V15.8631C12.656 15.7031 12.4341 15.6145 12.2038 15.6166C11.9735 15.6186 11.7533 15.7109 11.5904 15.8738C11.4276 16.0366 11.3352 16.2569 11.3332 16.4872C11.3312 16.7174 11.4197 16.9393 11.5797 17.1049C11.6614 17.1865 11.7583 17.2511 11.8649 17.2952C11.9716 17.3393 12.0859 17.362 12.2013 17.3619C12.3167 17.3618 12.4309 17.339 12.5375 17.2948C12.6441 17.2505 12.7409 17.1857 12.8225 17.1041C12.904 17.0224 12.9687 16.9255 13.0128 16.8188C13.0569 16.7122 13.0795 16.5979 13.0794 16.4825C13.0793 16.3671 13.0565 16.2528 13.0123 16.1463ZM15.4977 13.6628C15.4536 13.5561 15.3888 13.4592 15.3071 13.3775H15.3054C15.1404 13.2129 14.9169 13.1204 14.6838 13.1206C14.4507 13.1208 14.2273 13.2135 14.0626 13.3784C13.8979 13.5433 13.8055 13.7669 13.8057 14C13.8057 14.1154 13.8286 14.2296 13.8728 14.3362C13.917 14.4428 13.9818 14.5396 14.0635 14.6212C14.1451 14.7028 14.2421 14.7676 14.3488 14.8118C14.4555 14.856 14.5698 14.8787 14.6853 14.8787C14.8008 14.8787 14.9151 14.856 15.0218 14.8118C15.1285 14.7676 15.2255 14.7028 15.3071 14.6212C15.3888 14.5395 15.4536 14.4426 15.4977 14.3359C15.5419 14.2292 15.5647 14.1148 15.5647 13.9994C15.5647 13.8839 15.5419 13.7695 15.4977 13.6628ZM17.986 11.1789C17.9399 11.0717 17.873 10.9748 17.7891 10.8938C17.6235 10.7338 17.4016 10.6453 17.1713 10.6473C16.9411 10.6493 16.7208 10.7416 16.5579 10.9045C16.3951 11.0673 16.3027 11.2876 16.3007 11.5179C16.2987 11.7482 16.3873 11.97 16.5472 12.1357C16.6283 12.2195 16.7252 12.2864 16.8323 12.3325C16.9395 12.3785 17.0547 12.4027 17.1713 12.4037C17.288 12.4048 17.4036 12.3825 17.5116 12.3384C17.6195 12.2942 17.7176 12.229 17.8 12.1465C17.8825 12.0641 17.9477 11.966 17.9919 11.8581C18.036 11.7501 18.0582 11.6345 18.0572 11.5179C18.0562 11.4013 18.032 11.286 17.986 11.1789Z" fill="#2A2238"/>
</svg>
