<svg width="29" height="28" viewBox="0 0 29 28" fill="none" xmlns="http://www.w3.org/2000/svg">
<path d="M14.9971 0.14655C14.8535 0.0509859 14.6848 0 14.5123 0C14.3398 0 14.1712 0.0509859 14.0276 0.14655L0.902341 8.89669C0.746146 9.00084 0.627589 9.15247 0.564182 9.32917C0.500775 9.50587 0.495881 9.69828 0.550222 9.87798C0.604563 10.0577 0.715257 10.2151 0.865956 10.3271C1.01665 10.4391 1.19936 10.4996 1.3871 10.4997H4.6684V22.7499H3.13713C2.90506 22.7499 2.6825 22.8421 2.5184 23.0062C2.3543 23.1703 2.26211 23.3929 2.26211 23.6249C2.26211 23.857 2.3543 24.0796 2.5184 24.2437C2.6825 24.4078 2.90506 24.4999 3.13713 24.4999H25.8875C26.1196 24.4999 26.3421 24.4078 26.5062 24.2437C26.6703 24.0796 26.7625 23.857 26.7625 23.6249C26.7625 23.3929 26.6703 23.1703 26.5062 23.0062C26.3421 22.8421 26.1196 22.7499 25.8875 22.7499H24.3562V10.4997H27.6375C27.8253 10.4996 28.008 10.4391 28.1587 10.3271C28.3094 10.2151 28.4201 10.0577 28.4744 9.87798C28.5287 9.69828 28.5238 9.50587 28.4604 9.32917C28.397 9.15247 28.2785 9.00084 28.1223 8.89669L14.9971 0.14655ZM22.1687 10.4997V22.7499H19.9811V10.4997H22.1687ZM17.7936 10.4997V22.7499H15.6061V10.4997H17.7936ZM13.4185 10.4997V22.7499H11.231V10.4997H13.4185ZM9.04347 10.4997V22.7499H6.85594V10.4997H9.04347ZM14.5123 6.99966C14.0482 6.99966 13.603 6.81528 13.2749 6.48709C12.9467 6.1589 12.7623 5.71377 12.7623 5.24963C12.7623 4.7855 12.9467 4.34037 13.2749 4.01218C13.603 3.68398 14.0482 3.4996 14.5123 3.4996C14.9764 3.4996 15.4216 3.68398 15.7498 4.01218C16.078 4.34037 16.2623 4.7855 16.2623 5.24963C16.2623 5.71377 16.078 6.1589 15.7498 6.48709C15.4216 6.81528 14.9764 6.99966 14.5123 6.99966ZM1.3871 26.25C1.15503 26.25 0.932468 26.3422 0.768371 26.5063C0.604274 26.6704 0.512085 26.8929 0.512085 27.125C0.512085 27.3571 0.604274 27.5796 0.768371 27.7437C0.932468 27.9078 1.15503 28 1.3871 28H27.6375C27.8696 28 28.0922 27.9078 28.2563 27.7437C28.4203 27.5796 28.5125 27.3571 28.5125 27.125C28.5125 26.8929 28.4203 26.6704 28.2563 26.5063C28.0922 26.3422 27.8696 26.25 27.6375 26.25H1.3871Z" fill="#2A2238"/>
</svg>
