<svg width="29" height="27" viewBox="0 0 29 27" fill="none" xmlns="http://www.w3.org/2000/svg">
<path d="M10.9026 0.466751C11.0012 0.525798 11.0872 0.603693 11.1557 0.695987C11.2242 0.78828 11.2739 0.893164 11.3018 1.00465C11.3298 1.11613 11.3355 1.23203 11.3186 1.34572C11.3018 1.45941 11.2627 1.56867 11.2036 1.66725L6.74813 9.0925H22.9076L18.4504 1.66725C18.3311 1.46814 18.2958 1.2298 18.3522 1.00466C18.4087 0.779525 18.5523 0.586032 18.7514 0.466751C18.9505 0.34747 19.1888 0.312171 19.414 0.36862C19.6391 0.425068 19.8326 0.56864 19.9519 0.767751L24.9481 9.0925H27.9529C28.1849 9.0925 28.4075 9.18469 28.5716 9.34878C28.7357 9.51288 28.8279 9.73544 28.8279 9.9675V11.7175C28.8279 11.9496 28.7357 12.1721 28.5716 12.3362C28.4075 12.5003 28.1849 12.5925 27.9529 12.5925H1.70288C1.47082 12.5925 1.24826 12.5003 1.08416 12.3362C0.920068 12.1721 0.827881 11.9496 0.827881 11.7175V9.9675C0.827881 9.73544 0.920068 9.51288 1.08416 9.34878C1.24826 9.18469 1.47082 9.0925 1.70288 9.0925H4.70763L9.70038 0.767751C9.75943 0.669146 9.83732 0.583139 9.92962 0.514644C10.0219 0.446149 10.1268 0.396508 10.2383 0.368556C10.3498 0.340604 10.4657 0.33489 10.5793 0.351738C10.693 0.368587 10.8023 0.407668 10.9009 0.466751H10.9026ZM6.76738 24.8425L3.40788 12.5925H1.70288L5.14863 25.588C5.21774 25.8743 5.38113 26.129 5.61253 26.3112C5.84392 26.4934 6.12987 26.5925 6.42438 26.5925H23.2349C23.5297 26.5929 23.816 26.494 24.0478 26.3118C24.2795 26.1295 24.4432 25.8746 24.5124 25.588L27.9529 12.5925H26.3079L22.8866 24.8425H6.76913H6.76738Z" fill="#2A2238"/>
</svg>
