<svg width="29" height="27" viewBox="0 0 29 27" fill="none" xmlns="http://www.w3.org/2000/svg">
<path d="M9.70213 0.767695C9.82141 0.568584 10.0149 0.425012 10.24 0.368564C10.4652 0.312115 10.7035 0.347414 10.9026 0.466695C11.1017 0.585976 11.2453 0.779469 11.3018 1.00461C11.3582 1.22974 11.3229 1.46808 11.2036 1.6672L6.74813 9.09245H22.9076L18.4504 1.6672C18.3311 1.46808 18.2958 1.22974 18.3522 1.00461C18.4087 0.779469 18.5523 0.585976 18.7514 0.466695C18.9505 0.347414 19.1888 0.312115 19.414 0.368564C19.6391 0.425012 19.8326 0.568584 19.9519 0.767695L24.9481 9.09245H27.9529C28.1849 9.09245 28.4075 9.18463 28.5716 9.34873C28.7357 9.51282 28.8279 9.73538 28.8279 9.96745V13.4674C28.8279 13.6995 28.7357 13.9221 28.5716 14.0862C28.4075 14.2503 28.1849 14.3424 27.9529 14.3424H27.0779V23.0924C27.0779 24.0207 26.7091 24.9109 26.0528 25.5673C25.3964 26.2237 24.5061 26.5924 23.5779 26.5924H6.07788C5.14962 26.5924 4.25938 26.2237 3.60301 25.5673C2.94663 24.9109 2.57788 24.0207 2.57788 23.0924V14.3424H1.70288C1.47082 14.3424 1.24826 14.2503 1.08416 14.0862C0.920068 13.9221 0.827881 13.6995 0.827881 13.4674V9.96745C0.827881 9.73538 0.920068 9.51282 1.08416 9.34873C1.24826 9.18463 1.47082 9.09245 1.70288 9.09245H4.70763L9.70038 0.767695H9.70213ZM6.95288 16.9674C6.95288 16.7354 6.86069 16.5128 6.6966 16.3487C6.53251 16.1846 6.30995 16.0924 6.07788 16.0924C5.84582 16.0924 5.62326 16.1846 5.45916 16.3487C5.29507 16.5128 5.20288 16.7354 5.20288 16.9674V22.2174C5.20288 22.4495 5.29507 22.6721 5.45916 22.8362C5.62326 23.0003 5.84582 23.0924 6.07788 23.0924C6.30995 23.0924 6.53251 23.0003 6.6966 22.8362C6.86069 22.6721 6.95288 22.4495 6.95288 22.2174V16.9674ZM11.3279 16.9674C11.3279 16.7354 11.2357 16.5128 11.0716 16.3487C10.9075 16.1846 10.6849 16.0924 10.4529 16.0924C10.2208 16.0924 9.99826 16.1846 9.83416 16.3487C9.67007 16.5128 9.57788 16.7354 9.57788 16.9674V22.2174C9.57788 22.4495 9.67007 22.6721 9.83416 22.8362C9.99826 23.0003 10.2208 23.0924 10.4529 23.0924C10.6849 23.0924 10.9075 23.0003 11.0716 22.8362C11.2357 22.6721 11.3279 22.4495 11.3279 22.2174V16.9674ZM15.7029 16.9674C15.7029 16.7354 15.6107 16.5128 15.4466 16.3487C15.2825 16.1846 15.0599 16.0924 14.8279 16.0924C14.5958 16.0924 14.3733 16.1846 14.2092 16.3487C14.0451 16.5128 13.9529 16.7354 13.9529 16.9674V22.2174C13.9529 22.4495 14.0451 22.6721 14.2092 22.8362C14.3733 23.0003 14.5958 23.0924 14.8279 23.0924C15.0599 23.0924 15.2825 23.0003 15.4466 22.8362C15.6107 22.6721 15.7029 22.4495 15.7029 22.2174V16.9674ZM20.0779 16.9674C20.0779 16.7354 19.9857 16.5128 19.8216 16.3487C19.6575 16.1846 19.4349 16.0924 19.2029 16.0924C18.9708 16.0924 18.7483 16.1846 18.5842 16.3487C18.4201 16.5128 18.3279 16.7354 18.3279 16.9674V22.2174C18.3279 22.4495 18.4201 22.6721 18.5842 22.8362C18.7483 23.0003 18.9708 23.0924 19.2029 23.0924C19.4349 23.0924 19.6575 23.0003 19.8216 22.8362C19.9857 22.6721 20.0779 22.4495 20.0779 22.2174V16.9674ZM24.4529 16.9674C24.4529 16.7354 24.3607 16.5128 24.1966 16.3487C24.0325 16.1846 23.8099 16.0924 23.5779 16.0924C23.3458 16.0924 23.1233 16.1846 22.9592 16.3487C22.7951 16.5128 22.7029 16.7354 22.7029 16.9674V22.2174C22.7029 22.4495 22.7951 22.6721 22.9592 22.8362C23.1233 23.0003 23.3458 23.0924 23.5779 23.0924C23.8099 23.0924 24.0325 23.0003 24.1966 22.8362C24.3607 22.6721 24.4529 22.4495 24.4529 22.2174V16.9674Z" fill="#2A2238"/>
</svg>
