<svg width="29" height="27" viewBox="0 0 29 27" fill="none" xmlns="http://www.w3.org/2000/svg">
<path d="M10.9026 0.466751C11.0012 0.525798 11.0872 0.603693 11.1557 0.695987C11.2242 0.78828 11.2739 0.893164 11.3018 1.00465C11.3298 1.11613 11.3355 1.23203 11.3186 1.34572C11.3018 1.45941 11.2627 1.56867 11.2036 1.66725L6.74813 9.0925H22.9076L18.4504 1.66725C18.3311 1.46814 18.2958 1.2298 18.3522 1.00466C18.4087 0.779525 18.5523 0.586032 18.7514 0.466751C18.9505 0.34747 19.1888 0.312171 19.414 0.36862C19.6391 0.425068 19.8326 0.56864 19.9519 0.767751L24.9481 9.0925H27.0779C27.542 9.0925 27.9871 9.27688 28.3153 9.60506C28.6435 9.93325 28.8279 10.3784 28.8279 10.8425V12.5925C28.8279 13.0566 28.6435 13.5017 28.3153 13.8299C27.9871 14.1581 27.542 14.3425 27.0779 14.3425V22.2175C27.0779 23.3778 26.6169 24.4906 25.7965 25.3111C24.976 26.1316 23.8632 26.5925 22.7029 26.5925H6.95288C5.79256 26.5925 4.67976 26.1316 3.85929 25.3111C3.03882 24.4906 2.57788 23.3778 2.57788 22.2175V14.3425C2.11375 14.3425 1.66863 14.1581 1.34044 13.8299C1.01226 13.5017 0.827881 13.0566 0.827881 12.5925V10.8425C0.827881 10.3784 1.01226 9.93325 1.34044 9.60506C1.66863 9.27688 2.11375 9.0925 2.57788 9.0925H4.70763L9.70038 0.767751C9.75943 0.669146 9.83732 0.583139 9.92962 0.514644C10.0219 0.446149 10.1268 0.396508 10.2383 0.368556C10.3498 0.340604 10.4657 0.33489 10.5793 0.351738C10.693 0.368587 10.8023 0.407668 10.9009 0.466751H10.9026ZM4.32788 14.3425V22.2175C4.32788 22.9137 4.60444 23.5814 5.09673 24.0737C5.58901 24.5659 6.25669 24.8425 6.95288 24.8425H22.7029C23.3991 24.8425 24.0668 24.5659 24.559 24.0737C25.0513 23.5814 25.3279 22.9137 25.3279 22.2175V14.3425H4.32788ZM2.57788 10.8425V12.5925H27.0779V10.8425H2.57788ZM7.82788 16.0925C8.05995 16.0925 8.28251 16.1847 8.4466 16.3488C8.61069 16.5129 8.70288 16.7354 8.70288 16.9675V22.2175C8.70288 22.4496 8.61069 22.6721 8.4466 22.8362C8.28251 23.0003 8.05995 23.0925 7.82788 23.0925C7.59582 23.0925 7.37326 23.0003 7.20916 22.8362C7.04507 22.6721 6.95288 22.4496 6.95288 22.2175V16.9675C6.95288 16.7354 7.04507 16.5129 7.20916 16.3488C7.37326 16.1847 7.59582 16.0925 7.82788 16.0925ZM11.3279 16.0925C11.5599 16.0925 11.7825 16.1847 11.9466 16.3488C12.1107 16.5129 12.2029 16.7354 12.2029 16.9675V22.2175C12.2029 22.4496 12.1107 22.6721 11.9466 22.8362C11.7825 23.0003 11.5599 23.0925 11.3279 23.0925C11.0958 23.0925 10.8733 23.0003 10.7092 22.8362C10.5451 22.6721 10.4529 22.4496 10.4529 22.2175V16.9675C10.4529 16.7354 10.5451 16.5129 10.7092 16.3488C10.8733 16.1847 11.0958 16.0925 11.3279 16.0925ZM14.8279 16.0925C15.0599 16.0925 15.2825 16.1847 15.4466 16.3488C15.6107 16.5129 15.7029 16.7354 15.7029 16.9675V22.2175C15.7029 22.4496 15.6107 22.6721 15.4466 22.8362C15.2825 23.0003 15.0599 23.0925 14.8279 23.0925C14.5958 23.0925 14.3733 23.0003 14.2092 22.8362C14.0451 22.6721 13.9529 22.4496 13.9529 22.2175V16.9675C13.9529 16.7354 14.0451 16.5129 14.2092 16.3488C14.3733 16.1847 14.5958 16.0925 14.8279 16.0925ZM18.3279 16.0925C18.5599 16.0925 18.7825 16.1847 18.9466 16.3488C19.1107 16.5129 19.2029 16.7354 19.2029 16.9675V22.2175C19.2029 22.4496 19.1107 22.6721 18.9466 22.8362C18.7825 23.0003 18.5599 23.0925 18.3279 23.0925C18.0958 23.0925 17.8733 23.0003 17.7092 22.8362C17.5451 22.6721 17.4529 22.4496 17.4529 22.2175V16.9675C17.4529 16.7354 17.5451 16.5129 17.7092 16.3488C17.8733 16.1847 18.0958 16.0925 18.3279 16.0925ZM21.8279 16.0925C22.0599 16.0925 22.2825 16.1847 22.4466 16.3488C22.6107 16.5129 22.7029 16.7354 22.7029 16.9675V22.2175C22.7029 22.4496 22.6107 22.6721 22.4466 22.8362C22.2825 23.0003 22.0599 23.0925 21.8279 23.0925C21.5958 23.0925 21.3733 23.0003 21.2092 22.8362C21.0451 22.6721 20.9529 22.4496 20.9529 22.2175V16.9675C20.9529 16.7354 21.0451 16.5129 21.2092 16.3488C21.3733 16.1847 21.5958 16.0925 21.8279 16.0925Z" fill="#2A2238"/>
</svg>
