<svg width="28" height="28" viewBox="0 0 28 28" fill="none" xmlns="http://www.w3.org/2000/svg">
<path d="M14 0C6.272 0 0 6.272 0 14C0 21.728 6.272 28 14 28C21.728 28 28 21.728 28 14C28 6.272 21.728 0 14 0ZM4.522 8.05C5.74 9.268 6.58 10.836 6.874 12.6H2.898C3.108 10.948 3.682 9.408 4.522 8.05ZM2.898 15.4H6.874C6.58 17.164 5.74 18.732 4.522 19.95C3.682 18.592 3.108 17.052 2.898 15.4ZM12.6 25.102C10.178 24.794 7.994 23.702 6.314 22.106C8.134 20.37 9.38 18.032 9.702 15.4H12.6V25.102ZM12.6 12.6H9.702C9.366 9.968 8.134 7.616 6.3 5.88C7.994 4.284 10.178 3.206 12.6 2.898V12.6ZM25.102 12.6H21.126C21.42 10.836 22.26 9.268 23.478 8.05C24.318 9.408 24.892 10.948 25.102 12.6ZM15.4 2.898C17.822 3.206 20.006 4.284 21.7 5.88C19.866 7.616 18.634 9.968 18.298 12.6H15.4V2.898ZM15.4 25.102V15.4H18.298C18.634 18.032 19.866 20.37 21.686 22.106C20.006 23.702 17.822 24.794 15.4 25.102ZM23.478 19.95C22.26 18.746 21.434 17.164 21.126 15.4H25.102C24.892 17.052 24.318 18.592 23.478 19.95Z" fill="#2A2238"/>
</svg>
