<svg width="28" height="28" viewBox="0 0 28 28" fill="none" xmlns="http://www.w3.org/2000/svg">
<path d="M7 9.8C8.5464 9.8 9.8 8.5464 9.8 7C9.8 5.4536 8.5464 4.2 7 4.2C5.4536 4.2 4.2 5.4536 4.2 7C4.2 8.5464 5.4536 9.8 7 9.8Z" fill="#2A2238"/>
<path d="M25.2 15.4V3.962C25.2 1.778 23.422 0 21.238 0C20.188 0 19.18 0.42 18.438 1.162L16.688 2.912C16.464 2.842 16.226 2.8 15.974 2.8C15.414 2.8 14.896 2.968 14.462 3.248L18.326 7.112C18.606 6.678 18.774 6.16 18.774 5.6C18.774 5.348 18.732 5.124 18.676 4.886L20.426 3.136C20.636 2.926 20.93 2.8 21.238 2.8C21.882 2.8 22.4 3.318 22.4 3.962V15.4H12.81C12.39 15.106 12.012 14.77 11.662 14.392L9.702 12.222C9.436 11.928 9.1 11.69 8.736 11.522C8.302 11.312 7.826 11.2 7.336 11.2C5.6 11.214 4.2 12.614 4.2 14.35V15.4H0V23.8C0 25.34 1.26 26.6 2.8 26.6C2.8 27.37 3.43 28 4.2 28H23.8C24.57 28 25.2 27.37 25.2 26.6C26.74 26.6 28 25.34 28 23.8V15.4H25.2ZM25.2 23.8H2.8V18.2H25.2V23.8Z" fill="#2A2238"/>
</svg>
