<svg width="28" height="28" viewBox="0 0 28 28" fill="none" xmlns="http://www.w3.org/2000/svg">
<path d="M28 25.7784L25.7793 28L15.7542 17.978L17.9796 15.7564L28 25.7784ZM15.7371 0C11.7221 0 7.7071 1.52461 4.62582 4.5894L4.61025 4.60496C-1.53675 10.7501 -1.53675 20.7223 4.61025 26.8674L15.7371 15.7362L26.864 4.60496C23.7982 1.54017 19.7677 0 15.7371 0ZM4.87481 22.2002C3.72322 20.2711 3.10074 18.062 3.10074 15.744C3.10074 14.2971 3.34973 12.9125 3.81659 11.5902C4.11227 14.5616 5.20161 17.4864 7.03793 20.0533L4.87481 22.2002ZM9.29443 17.782C7.19355 14.5927 6.39989 10.7812 7.14687 7.15635C8.04946 6.96966 8.95206 6.87632 9.87022 6.87632C12.6714 6.87632 15.3947 7.73197 17.7757 9.30325L9.29443 17.782ZM11.582 3.82709C12.9048 3.36037 14.2898 3.11146 15.7371 3.11146C18.0559 3.11146 20.2657 3.73375 22.1954 4.88499L20.0322 7.04745C17.4645 5.21169 14.5544 4.12268 11.582 3.82709Z" fill="#2A2238"/>
</svg>
