<svg width="29" height="18" viewBox="0 0 29 18" fill="none" xmlns="http://www.w3.org/2000/svg">
<path d="M8.7921 0C9.59886 0 10.3444 0.0612512 11.0286 0.245004C11.7111 0.367506 12.2729 0.62301 12.7717 0.929265C13.2722 1.23727 13.6414 1.67478 13.8934 2.23654C14.1384 2.79655 14.2714 3.48081 14.2714 4.22632C14.2714 5.09434 14.0859 5.83985 13.6484 6.39986C13.2722 6.95987 12.6579 7.46038 11.9037 7.82963C12.9642 8.13764 13.7709 8.69765 14.2627 9.44316C14.7544 10.1887 15.0695 11.1179 15.0695 12.1785C15.0695 13.0465 14.8857 13.792 14.5707 14.415C14.2565 15.0421 13.7849 15.5769 13.2022 15.9673C12.6422 16.3435 11.9579 16.6498 11.2124 16.8353C10.4821 17.0281 9.73109 17.1316 8.97585 17.1433L0.647461 17.1555V0H8.7921ZM8.29334 6.96162C8.97585 6.96162 9.53586 6.77786 9.96812 6.46286C10.3986 6.14785 10.5894 5.59309 10.5894 4.91058C10.5894 4.53258 10.5281 4.16507 10.4056 3.91832C10.273 3.66823 10.0806 3.45481 9.84562 3.29706C9.59174 3.15863 9.32038 3.05503 9.03885 2.98905C8.73085 2.9278 8.41584 2.9278 8.04659 2.9278H4.44502V6.97037C4.44502 6.96162 8.29509 6.96162 8.29509 6.96162H8.29334ZM8.47709 14.2995C8.85335 14.2995 9.2226 14.2382 9.53761 14.177C9.84562 14.1157 10.1606 13.9915 10.4056 13.799C10.6506 13.6065 10.8431 13.4227 11.0286 13.1165C11.1511 12.8085 11.2736 12.4322 11.2736 11.9947C11.2736 11.1267 11.0286 10.5037 10.5281 10.0662C10.0294 9.68991 9.34511 9.50616 8.53834 9.50616H4.44502V14.2907H8.47884V14.2995H8.47709ZM20.4788 14.2382C20.9793 14.737 21.7231 14.9838 22.7153 14.9838C23.3978 14.9838 24.0209 14.7982 24.5214 14.4832C25.0201 14.107 25.3264 13.7377 25.4489 13.3632H28.4939C27.9934 14.8525 27.2479 15.913 26.2574 16.5973C25.2669 17.2185 24.0821 17.5878 22.6523 17.5878C21.7381 17.5919 20.8313 17.4226 19.98 17.089C19.2139 16.8042 18.5303 16.3341 17.9903 15.7205C17.4142 15.1484 16.9865 14.4444 16.7442 13.6695C16.438 12.8627 16.3067 11.9947 16.3067 10.9954C16.3067 10.0662 16.4292 9.1894 16.7442 8.38264C17.0592 7.57763 17.4897 6.89162 18.0515 6.27036C18.6115 5.71035 19.2958 5.20984 20.0413 4.90183C20.8726 4.57086 21.7593 4.40158 22.6541 4.40307C23.7146 4.40307 24.6439 4.58683 25.4506 5.02433C26.2556 5.46184 26.8804 5.95535 27.3792 6.70086C27.8779 7.38337 28.2472 8.19014 28.5009 9.0599C28.6234 9.92792 28.6847 10.8029 28.6234 11.7952H19.6108C19.6108 12.8102 19.9783 13.7377 20.4788 14.2382ZM24.3989 7.70713C23.9614 7.26962 23.2753 7.02287 22.4686 7.02287C21.9086 7.02287 21.4781 7.14537 21.1018 7.33087C20.7255 7.51463 20.4788 7.76838 20.2338 8.01338C20.005 8.25358 19.8528 8.5563 19.7963 8.88315C19.7333 9.18941 19.6738 9.44316 19.6738 9.68816H25.2669C25.1444 8.76765 24.8294 8.14464 24.3971 7.70713H24.3989ZM18.9265 1.18302H25.8881V2.8578H18.9265V1.18302Z" fill="#2A2238"/>
</svg>
