<svg xmlns="http://www.w3.org/2000/svg" fill="none" viewBox="0 0 20 28">
  <mask id="a" fill="#fff">
    <path d="M0 5.54545c0-1.65685 1.34315-3 3-3h13.5152c1.6568 0 3 1.34315 3 3v2.09091H0V5.54545Z"/>
    <path d="M6.78788 2c0-1.104568.89543-2 2-2h1.93942c1.1045 0 2 .89543 2 2v1.39394H6.78788V2Z"/>
    <path fill-rule="evenodd" d="M17.8182 6.78787H1.69702V25c0 1.6568 1.34315 3 3 3H14.8182c1.6569 0 3-1.3432 3-3V6.78787ZM5.09094 10.1818v13.5758h1.5V10.1818h-1.5Zm4.24243 13.5758V10.1818h1.50003v13.5758H9.33337Zm4.24243-13.5758v13.5758h1.5V10.1818h-1.5Z" clip-rule="evenodd"/>
  </mask>
  <path fill="#2A2238" d="M0 5.54545c0-1.65685 1.34315-3 3-3h13.5152c1.6568 0 3 1.34315 3 3v2.09091H0V5.54545Z"/>
  <path fill="#2A2238" fill-rule="evenodd" d="M17.8182 6.78787H1.69702V25c0 1.6568 1.34315 3 3 3H14.8182c1.6569 0 3-1.3432 3-3V6.78787ZM5.09094 10.1818v13.5758h1.5V10.1818h-1.5Zm4.24243 13.5758V10.1818h1.50003v13.5758H9.33337Zm4.24243-13.5758v13.5758h1.5V10.1818h-1.5Z" clip-rule="evenodd"/>
  <path fill="#2A2238" d="M19.5152 7.63636v1.5h1.5v-1.5h-1.5ZM0 7.63636h-1.5v1.5H0v-1.5Zm12.7273-4.24242v1.5h1.5v-1.5h-1.5Zm-5.93942 0h-1.5v1.5h1.5v-1.5ZM1.69702 6.78787v-1.5H.197021v1.5H1.69702Zm16.12118 0h1.5v-1.5h-1.5v1.5ZM5.09094 23.7576h-1.5v1.5h1.5v-1.5Zm0-13.5758V8.68182h-1.5v1.49998h1.5Zm1.5 13.5758v1.5h1.5v-1.5h-1.5Zm0-13.5758h1.5V8.68182h-1.5v1.49998Zm2.74243 0V8.68182h-1.5v1.49998h1.5Zm0 13.5758h-1.5v1.5h1.5v-1.5Zm1.50003-13.5758h1.5V8.68182h-1.5v1.49998Zm0 13.5758v1.5h1.5v-1.5h-1.5Zm2.7424 0h-1.5v1.5h1.5v-1.5Zm0-13.5758V8.68182h-1.5v1.49998h1.5Zm1.5 13.5758v1.5h1.5v-1.5h-1.5Zm0-13.5758h1.5V8.68182h-1.5v1.49998ZM3 4.04545h13.5152v-3H3v3Zm15.0152 1.5v2.09091h3V5.54545h-3Zm1.5.59091H0v3h19.5152v-3ZM1.5 7.63636V5.54545h-3v2.09091h3Zm15.0152-3.59091c.8284 0 1.5.67158 1.5 1.5h3c0-2.48528-2.0148-4.5-4.5-4.5v3ZM3 1.04545c-2.485281 0-4.5 2.01472-4.5 4.5h3c0-.82842.67157-1.5 1.5-1.5v-3ZM8.78788 1.5h1.93942v-3H8.78788v3Zm2.43942.5v1.39394h3V2h-3Zm1.5-.10606H6.78788v3h5.93942v-3Zm-4.43942 1.5V2h-3v1.39394h3ZM10.7273 1.5c.2761 0 .5.22386.5.5h3c0-1.9329977-1.567-3.5-3.5-3.5v3Zm-1.93942-3c-1.933 0-3.5 1.5670058-3.5 3.5h3c0-.27614.22386-.5.5-.5v-3ZM1.69702 8.28787H17.8182v-3H1.69702v3ZM3.19702 25V6.78787H.197021V25H3.19702Zm1.5 1.5c-.82843 0-1.5-.6716-1.5-1.5H.197021c0 2.4853 2.014719 4.5 4.499999 4.5v-3Zm10.12118 0H4.69702v3H14.8182v-3Zm1.5-1.5c0 .8284-.6715 1.5-1.5 1.5v3c2.4853 0 4.5-2.0147 4.5-4.5h-3Zm0-18.21213V25h3V6.78787h-3ZM6.59094 23.7576V10.1818h-3v13.5758h3Zm0-1.5h-1.5v3h1.5v-3Zm-1.5-12.0758v13.5758h3V10.1818h-3Zm0 1.5h1.5V8.68182h-1.5v2.99998Zm2.74243-1.5v13.5758h3.00003V10.1818H7.83337Zm3.00003-1.49998H9.33337v2.99998h1.50003V8.68182Zm1.5 15.07578V10.1818H9.33337v13.5758h3.00003Zm-3.00003 1.5h1.50003v-3H9.33337v3Zm5.74243-1.5V10.1818h-3v13.5758h3Zm0-1.5h-1.5v3h1.5v-3Zm-1.5-12.0758v13.5758h3V10.1818h-3Zm0 1.5h1.5V8.68182h-1.5v2.99998Z" mask="url(#a)"/>
</svg>
