<svg width="29" height="24" viewBox="0 0 29 24" fill="none" xmlns="http://www.w3.org/2000/svg">
<path d="M1.68205 0C1.37263 0 1.07588 0.122917 0.85709 0.341709C0.638297 0.560501 0.515381 0.857247 0.515381 1.16667C0.515381 1.47609 0.638297 1.77283 0.85709 1.99162C1.07588 2.21042 1.37263 2.33333 1.68205 2.33333H27.3487C27.6581 2.33333 27.9549 2.21042 28.1737 1.99162C28.3925 1.77283 28.5154 1.47609 28.5154 1.16667C28.5154 0.857247 28.3925 0.560501 28.1737 0.341709C27.9549 0.122917 27.6581 0 27.3487 0H1.68205ZM1.68205 7C1.37263 7 1.07588 7.12292 0.85709 7.34171C0.638297 7.5605 0.515381 7.85725 0.515381 8.16667C0.515381 8.47609 0.638297 8.77283 0.85709 8.99162C1.07588 9.21042 1.37263 9.33333 1.68205 9.33333H15.682C15.9915 9.33333 16.2882 9.21042 16.507 8.99162C16.7258 8.77283 16.8487 8.47609 16.8487 8.16667C16.8487 7.85725 16.7258 7.5605 16.507 7.34171C16.2882 7.12292 15.9915 7 15.682 7H1.68205ZM1.68205 14C1.37263 14 1.07588 14.1229 0.85709 14.3417C0.638297 14.5605 0.515381 14.8572 0.515381 15.1667C0.515381 15.4761 0.638297 15.7728 0.85709 15.9916C1.07588 16.2104 1.37263 16.3333 1.68205 16.3333H15.682C15.9915 16.3333 16.2882 16.2104 16.507 15.9916C16.7258 15.7728 16.8487 15.4761 16.8487 15.1667C16.8487 14.8572 16.7258 14.5605 16.507 14.3417C16.2882 14.1229 15.9915 14 15.682 14H1.68205ZM1.68205 21C1.37263 21 1.07588 21.1229 0.85709 21.3417C0.638297 21.5605 0.515381 21.8572 0.515381 22.1667C0.515381 22.4761 0.638297 22.7728 0.85709 22.9916C1.07588 23.2104 1.37263 23.3333 1.68205 23.3333H27.3487C27.6581 23.3333 27.9549 23.2104 28.1737 22.9916C28.3925 22.7728 28.5154 22.4761 28.5154 22.1667C28.5154 21.8572 28.3925 21.5605 28.1737 21.3417C27.9549 21.1229 27.6581 21 27.3487 21H1.68205ZM25.279 8.463C24.9416 8.23545 24.5952 8.0214 24.2407 7.82133L24.7307 7C25.0154 7.17267 25.3654 7.39667 25.7854 7.66967C26.2054 7.94267 26.602 8.27633 26.9754 8.66833C27.3394 9.051 27.6497 9.48733 27.904 9.97967C28.1607 10.4627 28.2867 11.0017 28.2867 11.5943C28.2867 12.4343 28.1187 13.111 27.7827 13.6313C27.4444 14.1423 26.8844 14.3967 26.1004 14.3967C25.5987 14.3967 25.2067 14.2333 24.9244 13.9043C24.6497 13.6108 24.4934 13.226 24.4857 12.824C24.4857 12.2873 24.649 11.8813 24.978 11.6083C25.2977 11.326 25.7387 11.1837 26.3057 11.1837H26.9614C26.9255 10.784 26.8288 10.3921 26.6744 10.0217C26.5267 9.70378 26.3281 9.41217 26.0864 9.15833C25.8456 8.89558 25.5746 8.66219 25.279 8.463ZM20.2204 8.463C19.8829 8.23545 19.5365 8.0214 19.182 7.82133L19.672 7C19.9567 7.17267 20.3067 7.39667 20.7267 7.66967C21.1467 7.94267 21.5434 8.27633 21.9167 8.66833C22.2807 9.051 22.591 9.48733 22.8454 9.97967C23.102 10.4627 23.228 11.0017 23.228 11.5943C23.228 12.4343 23.06 13.111 22.724 13.6313C22.3857 14.1423 21.8257 14.3967 21.0417 14.3967C20.54 14.3967 20.148 14.2333 19.8657 13.9043C19.591 13.6108 19.4347 13.226 19.427 12.824C19.427 12.2873 19.5904 11.8813 19.9194 11.6083C20.239 11.326 20.6824 11.1837 21.247 11.1837H21.9027C21.8678 10.7898 21.7758 10.4031 21.6297 10.0357C21.478 9.71316 21.2747 9.41759 21.0277 9.16067C20.7872 8.89628 20.5162 8.66131 20.2204 8.46067V8.463Z" fill="#2A2238"/>
</svg>
