<svg width="12" height="20" viewBox="0 0 12 20" fill="none" xmlns="http://www.w3.org/2000/svg">
<path d="M11.6763 13.4375L7.73429 10L11.6718 6.60268C11.9798 6.33482 12.0021 5.875 11.7209 5.58036L6.50661 0.160714C6.4084 0.0580356 6.26554 0 6.12269 0C5.85036 0 5.62715 0.21875 5.62715 0.482143V8.03571L1.77447 4.76339C1.45751 4.49554 0.979828 4.52679 0.698578 4.83036C0.408399 5.14286 0.439649 5.62946 0.770006 5.90625L5.62715 10L0.801256 14.058C0.475363 14.3304 0.439649 14.808 0.725363 15.125L0.738756 15.1384C1.02001 15.4509 1.51108 15.4821 1.83251 15.2054L5.62715 11.9196V19.5C5.62715 19.7768 5.85483 20 6.14054 20C6.2834 20 6.41733 19.942 6.51554 19.8438L11.7254 14.4643C12.0066 14.1696 11.9843 13.7098 11.6763 13.4375ZM7.25215 3.07589L10.0513 6.01786C10.087 6.05357 10.0825 6.11161 10.0423 6.14732L7.24322 8.51339C7.18519 8.5625 7.09143 8.52232 7.09143 8.44643V3.13839C7.0959 3.05357 7.19858 3.01786 7.25215 3.07589V3.07589ZM7.0959 16.8705V11.5893C7.0959 11.5134 7.18965 11.4732 7.24768 11.5223L10.0468 13.8884C10.087 13.9196 10.087 13.9777 10.0557 14.0179L7.25661 16.933C7.19858 16.9911 7.0959 16.9509 7.0959 16.8705V16.8705Z" fill="#2A2238"/>
</svg>
