<svg width="25" height="28" viewBox="0 0 25 28" fill="none" xmlns="http://www.w3.org/2000/svg">
<path d="M14.1522 0C15.4689 0 16.6857 0.0999697 17.8025 0.399878C18.9165 0.599817 19.8333 1.01683 20.6474 1.51668C21.4643 2.01938 22.0669 2.73345 22.4782 3.65031C22.8781 4.56432 23.0952 5.68112 23.0952 6.89789C23.0952 8.3146 22.7924 9.53137 22.0784 10.4454C21.4643 11.3594 20.4617 12.1763 19.2306 12.7789C20.9615 13.2816 22.2783 14.1957 23.0809 15.4124C23.8835 16.6292 24.3976 18.1459 24.3976 19.8768C24.3976 21.2935 24.0977 22.5103 23.5836 23.5271C23.0707 24.5506 22.3011 25.4235 21.35 26.0606C20.436 26.6747 19.3192 27.1745 18.1024 27.4773C16.9105 27.7921 15.6848 27.9609 14.4521 27.98L0.859131 28V0H14.1522ZM13.3382 11.3622C14.4521 11.3622 15.3661 11.0623 16.0716 10.5482C16.7743 10.0341 17.0856 9.12863 17.0856 8.01469C17.0856 7.39774 16.9856 6.79792 16.7857 6.39518C16.5693 5.98701 16.2553 5.63868 15.8717 5.38121C15.4573 5.15528 15.0144 4.98619 14.5549 4.87851C14.0522 4.77854 13.5381 4.77854 12.9354 4.77854H7.05723V11.3765C7.05723 11.3622 13.341 11.3622 13.341 11.3622H13.3382ZM13.6381 23.3386C14.2522 23.3386 14.8548 23.2386 15.369 23.1386C15.8717 23.0387 16.3858 22.8359 16.7857 22.5217C17.1856 22.2075 17.4998 21.9076 17.8025 21.4077C18.0025 20.905 18.2024 20.2909 18.2024 19.5769C18.2024 18.1602 17.8025 17.1433 16.9856 16.4293C16.1716 15.8152 15.0548 15.5153 13.738 15.5153H7.05723V23.3243H13.6409V23.3386H13.6381Z" fill="#2A2238"/>
</svg>
