<svg xmlns="http://www.w3.org/2000/svg" fill="none" viewBox="0 0 28 28">
  <path fill="#2A2238" d="M5.1625.7c.16301-.217343.37438-.393749.61738-.515248C6.02287.0632539 6.29082 0 6.5625 0h14.875c.2717 0 .5396.0632539.7826.184752.243.121499.4544.297905.6174.515248l4.9875 6.65c.1136.15146.175.33568.175.525V26.25c0 .4641-.1844.9092-.5126 1.2374-.3282.3282-.7733.5126-1.2374.5126H1.75c-.46413 0-.909248-.1844-1.237437-.5126C.184375 27.1592 0 26.7141 0 26.25V7.875c0-.18932.0614056-.37354.175-.525L5.1625.7Zm7.9625 1.05H6.5625L2.625 7h10.5V1.75Zm1.75 0V7h10.5l-3.9375-5.25H14.875Zm11.375 7H1.75v17.5h24.5V8.75Z"/>
</svg>
