<svg width="29" height="21" viewBox="0 0 29 21" fill="none" xmlns="http://www.w3.org/2000/svg">
<path d="M5.85007 1.49168C4.71242 2.62921 3.80999 3.97969 3.19429 5.466C2.5786 6.95231 2.2617 8.54535 2.2617 10.1541C2.2617 11.7629 2.5786 13.356 3.19429 14.8423C3.80999 16.3286 4.71242 17.6791 5.85007 18.8166C6.00946 18.9816 6.09765 19.2026 6.09566 19.4321C6.09366 19.6615 6.00164 19.8809 5.83941 20.0432C5.67718 20.2054 5.45772 20.2974 5.2283 20.2994C4.99888 20.3014 4.77785 20.2132 4.61282 20.0538C3.31273 18.7538 2.28144 17.2104 1.57784 15.5118C0.874228 13.8132 0.512085 11.9927 0.512085 10.1541C0.512085 8.31558 0.874228 6.49503 1.57784 4.79643C2.28144 3.09783 3.31273 1.55446 4.61282 0.254437C4.77785 0.0950492 4.99888 0.0068546 5.2283 0.0088482C5.45772 0.0108418 5.67718 0.102864 5.83941 0.265096C6.00164 0.427327 6.09366 0.646787 6.09566 0.876208C6.09765 1.10563 6.00946 1.32665 5.85007 1.49168ZM9.56355 5.20516C8.25126 6.51785 7.51405 8.298 7.51405 10.1541C7.51405 12.0103 8.25126 13.7904 9.56355 15.1031C9.6449 15.1845 9.70944 15.281 9.75346 15.3873C9.79749 15.4936 9.82015 15.6076 9.82015 15.7226C9.82015 15.8377 9.79749 15.9516 9.75346 16.0579C9.70944 16.1642 9.6449 16.2607 9.56355 16.3421C9.48219 16.4235 9.38561 16.488 9.27932 16.532C9.17303 16.576 9.0591 16.5987 8.94405 16.5987C8.829 16.5987 8.71508 16.576 8.60878 16.532C8.50249 16.488 8.40591 16.4235 8.32456 16.3421C7.5118 15.5296 6.86708 14.5649 6.42721 13.5031C5.98734 12.4414 5.76094 11.3034 5.76094 10.1541C5.76094 9.00488 5.98734 7.86688 6.42721 6.80514C6.86708 5.7434 7.5118 4.77871 8.32456 3.96617C8.48886 3.80187 8.71169 3.70956 8.94405 3.70956C9.17641 3.70956 9.39925 3.80187 9.56355 3.96617C9.72785 4.13047 9.82015 4.35331 9.82015 4.58566C9.82015 4.81802 9.72785 5.04086 9.56355 5.20516ZM19.4615 3.96617C19.5428 3.88468 19.6393 3.82003 19.7456 3.77592C19.8519 3.73181 19.9659 3.7091 20.081 3.7091C20.1961 3.7091 20.31 3.73181 20.4164 3.77592C20.5227 3.82003 20.6192 3.88468 20.7005 3.96617C21.5132 4.77871 22.158 5.7434 22.5978 6.80514C23.0377 7.86688 23.2641 9.00488 23.2641 10.1541C23.2641 11.3034 23.0377 12.4414 22.5978 13.5031C22.158 14.5649 21.5132 15.5296 20.7005 16.3421C20.6191 16.4235 20.5226 16.488 20.4163 16.532C20.31 16.576 20.196 16.5987 20.081 16.5987C19.9659 16.5987 19.852 16.576 19.7457 16.532C19.6394 16.488 19.5429 16.4235 19.4615 16.3421C19.3801 16.2607 19.3156 16.1642 19.2716 16.0579C19.2276 15.9516 19.2049 15.8377 19.2049 15.7226C19.2049 15.6076 19.2276 15.4936 19.2716 15.3873C19.3156 15.281 19.3801 15.1845 19.4615 15.1031C20.7738 13.7904 21.511 12.0103 21.511 10.1541C21.511 8.298 20.7738 6.51785 19.4615 5.20516C19.38 5.12388 19.3154 5.02732 19.2713 4.92102C19.2271 4.81472 19.2044 4.70076 19.2044 4.58566C19.2044 4.47057 19.2271 4.35661 19.2713 4.25031C19.3154 4.144 19.38 4.04745 19.4615 3.96617ZM23.175 0.256187C23.3391 0.0921506 23.5616 0 23.7936 0C24.0256 0 24.2481 0.0921506 24.4122 0.256187C27.0373 2.88163 28.5121 6.4423 28.5121 10.155C28.5121 13.8677 27.0373 17.4284 24.4122 20.0538C24.2472 20.2132 24.0262 20.3014 23.7968 20.2994C23.5673 20.2974 23.3479 20.2054 23.1856 20.0432C23.0234 19.8809 22.9314 19.6615 22.9294 19.4321C22.9274 19.2026 23.0156 18.9816 23.175 18.8166C24.3126 17.6791 25.2151 16.3286 25.8308 14.8423C26.4464 13.356 26.7633 11.7629 26.7633 10.1541C26.7633 8.54535 26.4464 6.95231 25.8308 5.466C25.2151 3.97969 24.3126 2.62921 23.175 1.49168C23.0109 1.32759 22.9188 1.10508 22.9188 0.873059C22.9188 0.641041 23.0109 0.418523 23.175 0.254437V0.256187ZM18.0125 10.1541C18.0125 11.0824 17.6438 11.9726 16.9874 12.629C16.331 13.2854 15.4408 13.6541 14.5125 13.6541C13.5843 13.6541 12.694 13.2854 12.0377 12.629C11.3813 11.9726 11.0125 11.0824 11.0125 10.1541C11.0125 9.22588 11.3813 8.33565 12.0377 7.67928C12.694 7.0229 13.5843 6.65415 14.5125 6.65415C15.4408 6.65415 16.331 7.0229 16.9874 7.67928C17.6438 8.33565 18.0125 9.22588 18.0125 10.1541Z" fill="#2A2238"/>
</svg>
