<svg width="32" height="32" viewBox="0 0 32 32" fill="none" xmlns="http://www.w3.org/2000/svg">
<path d="M9.33333 21.3333C10.0667 21.3333 10.6667 21.9333 10.6667 22.6667C10.6667 24.1333 9.46667 25.3333 8 25.3333C7.77333 25.3333 7.56 25.3067 7.33333 25.2667C7.74667 24.5333 8 23.6533 8 22.6667C8 21.9333 8.6 21.3333 9.33333 21.3333ZM24.8933 4C24.5467 4 24.2133 4.13333 23.9467 4.38667L12 16.3333L15.6667 20L27.6133 8.05333C28.1333 7.53333 28.1333 6.69333 27.6133 6.17333L25.8267 4.38667C25.56 4.12 25.2267 4 24.8933 4ZM9.33333 18.6667C7.12 18.6667 5.33333 20.4533 5.33333 22.6667C5.33333 24.4133 3.78667 25.3333 2.66667 25.3333C3.89333 26.96 5.98667 28 8 28C10.9467 28 13.3333 25.6133 13.3333 22.6667C13.3333 20.4533 11.5467 18.6667 9.33333 18.6667Z" fill="#2A2238"/>
</svg>
