<svg width="20" height="28" viewBox="0 0 20 28" fill="none" xmlns="http://www.w3.org/2000/svg">
<path d="M14 28H5.6V25.2H14V28ZM14 23.8H5.6L5.2878 21C5.11985 20.0738 4.84209 19.171 4.4604 18.3106C3.9648 17.6106 3.4482 17.0128 2.9484 16.429C1.11176 14.7074 0.0485117 12.3169 0 9.8C0 4.38761 4.38761 0 9.8 0C15.2124 0 19.6 4.38761 19.6 9.8C19.543 12.3015 18.488 14.6763 16.6698 16.3954L16.646 16.4234C16.1476 17.0072 15.6324 17.612 15.1466 18.305C14.7653 19.1677 14.4866 20.0722 14.3164 21L14 23.8ZM9.8 2.8C5.93593 2.80463 2.80463 5.93593 2.8 9.8C2.8 11.9616 3.7016 13.0102 5.0652 14.5992C5.5832 15.204 6.1712 15.8872 6.7452 16.6866C7.4418 18.0402 7.91773 19.4963 8.155 21H11.4464C11.6898 19.5007 12.1649 18.0483 12.8548 16.695C13.4148 15.8956 14.0014 15.2082 14.518 14.6034L14.539 14.5782C15.8998 12.9822 16.8 11.928 16.8 9.8C16.7954 5.93593 13.6641 2.80463 9.8 2.8Z" fill="#2A2238"/>
</svg>
