<svg width="22" height="28" viewBox="0 0 22 28" fill="none" xmlns="http://www.w3.org/2000/svg">
<path d="M0.622559 3.5C0.622559 2.57174 0.991307 1.6815 1.64768 1.02513C2.30406 0.368749 3.1943 0 4.12256 0L18.1226 0C19.0508 0 19.9411 0.368749 20.5974 1.02513C21.2538 1.6815 21.6226 2.57174 21.6226 3.5V24.5C21.6226 25.4283 21.2538 26.3185 20.5974 26.9749C19.9411 27.6313 19.0508 28 18.1226 28H4.12256C3.1943 28 2.30406 27.6313 1.64768 26.9749C0.991307 26.3185 0.622559 25.4283 0.622559 24.5V3.5ZM4.12256 4.375V7.875C4.12256 8.10706 4.21475 8.32962 4.37884 8.49372C4.54293 8.65781 4.76549 8.75 4.99756 8.75H17.2476C17.4796 8.75 17.7022 8.65781 17.8663 8.49372C18.0304 8.32962 18.1226 8.10706 18.1226 7.875V4.375C18.1226 4.14294 18.0304 3.92038 17.8663 3.75628C17.7022 3.59219 17.4796 3.5 17.2476 3.5H4.99756C4.76549 3.5 4.54293 3.59219 4.37884 3.75628C4.21475 3.92038 4.12256 4.14294 4.12256 4.375ZM4.12256 11.375V13.125C4.12256 13.3571 4.21475 13.5796 4.37884 13.7437C4.54293 13.9078 4.76549 14 4.99756 14H6.74756C6.97962 14 7.20218 13.9078 7.36628 13.7437C7.53037 13.5796 7.62256 13.3571 7.62256 13.125V11.375C7.62256 11.1429 7.53037 10.9204 7.36628 10.7563C7.20218 10.5922 6.97962 10.5 6.74756 10.5H4.99756C4.76549 10.5 4.54293 10.5922 4.37884 10.7563C4.21475 10.9204 4.12256 11.1429 4.12256 11.375ZM4.99756 15.75C4.76549 15.75 4.54293 15.8422 4.37884 16.0063C4.21475 16.1704 4.12256 16.3929 4.12256 16.625V18.375C4.12256 18.6071 4.21475 18.8296 4.37884 18.9937C4.54293 19.1578 4.76549 19.25 4.99756 19.25H6.74756C6.97962 19.25 7.20218 19.1578 7.36628 18.9937C7.53037 18.8296 7.62256 18.6071 7.62256 18.375V16.625C7.62256 16.3929 7.53037 16.1704 7.36628 16.0063C7.20218 15.8422 6.97962 15.75 6.74756 15.75H4.99756ZM4.12256 21.875V23.625C4.12256 23.8571 4.21475 24.0796 4.37884 24.2437C4.54293 24.4078 4.76549 24.5 4.99756 24.5H6.74756C6.97962 24.5 7.20218 24.4078 7.36628 24.2437C7.53037 24.0796 7.62256 23.8571 7.62256 23.625V21.875C7.62256 21.6429 7.53037 21.4204 7.36628 21.2563C7.20218 21.0922 6.97962 21 6.74756 21H4.99756C4.76549 21 4.54293 21.0922 4.37884 21.2563C4.21475 21.4204 4.12256 21.6429 4.12256 21.875ZM10.2476 10.5C10.0155 10.5 9.79293 10.5922 9.62884 10.7563C9.46475 10.9204 9.37256 11.1429 9.37256 11.375V13.125C9.37256 13.3571 9.46475 13.5796 9.62884 13.7437C9.79293 13.9078 10.0155 14 10.2476 14H11.9976C12.2296 14 12.4522 13.9078 12.6163 13.7437C12.7804 13.5796 12.8726 13.3571 12.8726 13.125V11.375C12.8726 11.1429 12.7804 10.9204 12.6163 10.7563C12.4522 10.5922 12.2296 10.5 11.9976 10.5H10.2476ZM9.37256 16.625V18.375C9.37256 18.6071 9.46475 18.8296 9.62884 18.9937C9.79293 19.1578 10.0155 19.25 10.2476 19.25H11.9976C12.2296 19.25 12.4522 19.1578 12.6163 18.9937C12.7804 18.8296 12.8726 18.6071 12.8726 18.375V16.625C12.8726 16.3929 12.7804 16.1704 12.6163 16.0063C12.4522 15.8422 12.2296 15.75 11.9976 15.75H10.2476C10.0155 15.75 9.79293 15.8422 9.62884 16.0063C9.46475 16.1704 9.37256 16.3929 9.37256 16.625ZM10.2476 21C10.0155 21 9.79293 21.0922 9.62884 21.2563C9.46475 21.4204 9.37256 21.6429 9.37256 21.875V23.625C9.37256 23.8571 9.46475 24.0796 9.62884 24.2437C9.79293 24.4078 10.0155 24.5 10.2476 24.5H11.9976C12.2296 24.5 12.4522 24.4078 12.6163 24.2437C12.7804 24.0796 12.8726 23.8571 12.8726 23.625V21.875C12.8726 21.6429 12.7804 21.4204 12.6163 21.2563C12.4522 21.0922 12.2296 21 11.9976 21H10.2476ZM14.6226 11.375V13.125C14.6226 13.3571 14.7147 13.5796 14.8788 13.7437C15.0429 13.9078 15.2655 14 15.4976 14H17.2476C17.4796 14 17.7022 13.9078 17.8663 13.7437C18.0304 13.5796 18.1226 13.3571 18.1226 13.125V11.375C18.1226 11.1429 18.0304 10.9204 17.8663 10.7563C17.7022 10.5922 17.4796 10.5 17.2476 10.5H15.4976C15.2655 10.5 15.0429 10.5922 14.8788 10.7563C14.7147 10.9204 14.6226 11.1429 14.6226 11.375ZM15.4976 15.75C15.2655 15.75 15.0429 15.8422 14.8788 16.0063C14.7147 16.1704 14.6226 16.3929 14.6226 16.625V23.625C14.6226 23.8571 14.7147 24.0796 14.8788 24.2437C15.0429 24.4078 15.2655 24.5 15.4976 24.5H17.2476C17.4796 24.5 17.7022 24.4078 17.8663 24.2437C18.0304 24.0796 18.1226 23.8571 18.1226 23.625V16.625C18.1226 16.3929 18.0304 16.1704 17.8663 16.0063C17.7022 15.8422 17.4796 15.75 17.2476 15.75H15.4976Z" fill="#2A2238"/>
</svg>
