<svg width="32" height="32" viewBox="0 0 32 32" fill="none" xmlns="http://www.w3.org/2000/svg">
<path d="M24.7867 14.0267C26.1867 14.7067 27.5067 15.56 28.7333 16.5733L27.3067 18C26.5333 17.3733 25.6933 16.8133 24.8 16.3067V14.0267H24.7867ZM7.2 14.0267V16.2933C6.33333 16.7867 5.49333 17.3467 4.70667 17.9867L3.28 16.56C4.49333 15.56 5.81333 14.72 7.2 14.0267ZM16 9.33333C9.94667 9.33333 4.45333 11.7067 0.386667 15.56C0.146667 15.8 0 16.1333 0 16.5067C0 16.88 0.146667 17.2133 0.386667 17.44L3.69333 20.7467C3.93333 20.9867 4.26667 21.1333 4.64 21.1333C5 21.1333 5.33333 21 5.57333 20.76C6.62667 19.7867 7.81333 18.9467 9.12 18.2933C9.56 18.08 9.86667 17.6133 9.86667 17.0933V12.96C11.8 12.3333 13.8667 12 16 12C18.1333 12 20.2 12.3333 22.12 12.9733V17.1067C22.12 17.64 22.4267 18.0933 22.8667 18.3067C24.1733 18.96 25.3733 19.7867 26.4267 20.7733C26.6667 21 27 21.1467 27.36 21.1467C27.7333 21.1467 28.0667 21 28.3067 20.76L31.6133 17.4533C31.8533 17.2133 32 16.88 32 16.5067C32 16.1333 31.8533 15.8 31.6133 15.56C27.5467 11.7067 22.0533 9.33333 16 9.33333Z" fill="#2A2238"/>
</svg>
