<svg width="32" height="32" viewBox="0 0 32 32" fill="none" xmlns="http://www.w3.org/2000/svg">
<path d="M26.6667 20.6C25 20.6 23.4 20.3333 21.9067 19.84C21.7733 19.8 21.6267 19.7733 21.4933 19.7733C21.1467 19.7733 20.8133 19.9067 20.5467 20.16L17.6133 23.0933C13.84 21.1733 10.7467 18.0933 8.82667 14.3067L11.76 11.36C12.1333 11.0133 12.24 10.4933 12.0933 10.0267C11.6 8.53333 11.3333 6.93333 11.3333 5.26667C11.3333 4.53333 10.7333 3.93333 10 3.93333H5.33333C4.6 3.93333 4 4.53333 4 5.26667C4 17.7867 14.1467 27.9333 26.6667 27.9333C27.4 27.9333 28 27.3333 28 26.6V21.9333C28 21.2 27.4 20.6 26.6667 20.6ZM6.70667 6.6H8.70667C8.8 7.77333 9 8.93333 9.30667 10.04L7.70667 11.6533C7.17333 10.04 6.82667 8.36 6.70667 6.6ZM25.3333 25.2267C23.5733 25.1067 21.8667 24.76 20.2667 24.2133L21.8667 22.6133C23 22.9333 24.16 23.1333 25.3333 23.2133V25.2267ZM24 7.93333V3.93333H21.3333V7.93333H17.3333V10.6H21.3333V14.6H24V10.6H28V7.93333H24Z" fill="#2A2238"/>
</svg>
