<svg xmlns="http://www.w3.org/2000/svg" fill="none" viewBox="0 0 28 21">
  <path fill="#2A2238" d="M18.375 11.375c0 1.1603-.4609 2.2731-1.2814 3.0936-.8205.8205-1.9333 1.2814-3.0936 1.2814-1.1603 0-2.2731-.4609-3.0936-1.2814-.8205-.8205-1.2814-1.9333-1.2814-3.0936 0-1.1603.4609-2.27312 1.2814-3.09359C11.7269 7.46094 12.8397 7 14 7c1.1603 0 2.2731.46094 3.0936 1.28141.8205.82047 1.2814 1.93329 1.2814 3.09359Z"/>
  <path fill="#2A2238" d="M3.5 3.5c-.92826 0-1.8185.36875-2.47487 1.02513C.368749 5.1815 0 6.07174 0 7v10.5c0 .9283.368749 1.8185 1.02513 2.4749C1.6815 20.6313 2.57174 21 3.5 21h21c.9283 0 1.8185-.3687 2.4749-1.0251C27.6313 19.3185 28 18.4283 28 17.5V7c0-.92826-.3687-1.8185-1.0251-2.47487C26.3185 3.86875 25.4283 3.5 24.5 3.5h-2.051c-.9282-.0002-1.8183-.36908-2.4745-1.0255l-1.449-1.449C17.8693.369077 16.9792.00019823 16.051 0h-4.102c-.9282.00019823-1.8183.369077-2.4745 1.0255l-1.449 1.449C7.36928 3.13092 6.47918 3.4998 5.551 3.5H3.5ZM4.375 7c-.23206 0-.45462-.09219-.61872-.25628C3.59219 6.57962 3.5 6.35706 3.5 6.125c0-.23206.09219-.45462.25628-.61872.1641-.16409.38666-.25628.61872-.25628.23206 0 .45462.09219.61872.25628.16409.1641.25628.38666.25628.61872 0 .23206-.09219.45462-.25628.61872C4.82962 6.90781 4.60706 7 4.375 7Zm15.75 4.375c0 1.6245-.6453 3.1824-1.794 4.331C17.1824 16.8547 15.6245 17.5 14 17.5c-1.6245 0-3.1824-.6453-4.33103-1.794C8.52031 14.5574 7.875 12.9995 7.875 11.375c0-1.62445.64531-3.18237 1.79397-4.33103C10.8176 5.89531 12.3755 5.25 14 5.25c1.6245 0 3.1824.64531 4.331 1.79397 1.1487 1.14866 1.794 2.70658 1.794 4.33103Z"/>
</svg>
