<svg width="28" height="24" viewBox="0 0 28 24" fill="none" xmlns="http://www.w3.org/2000/svg">
<path d="M25.4545 0.48999H2.54545C1.14545 0.48999 0 1.63544 0 3.03544V6.85363H2.54545V3.03544H25.4545V20.8536H16.5455V23.3991H25.4545C26.8545 23.3991 28 22.2536 28 20.8536V3.03544C28 1.63544 26.8545 0.48999 25.4545 0.48999ZM0 19.5809V23.3991H3.81818C3.81818 21.2864 2.11273 19.5809 0 19.5809ZM0 14.49V17.0354C3.51273 17.0354 6.36364 19.8864 6.36364 23.3991H8.90909C8.90909 18.4736 4.92545 14.49 0 14.49ZM0 9.39908V11.9445C6.32545 11.9445 11.4545 17.0736 11.4545 23.3991H14C14 15.6609 7.72545 9.39908 0 9.39908Z" fill="#2A2238"/>
</svg>
