<svg width="28" height="23" viewBox="0 0 28 23" fill="none" xmlns="http://www.w3.org/2000/svg">
<path d="M0 19.0909V22.9091H3.81818C3.81818 20.7964 2.11273 19.0909 0 19.0909ZM0 14V16.5455C3.51273 16.5455 6.36364 19.3964 6.36364 22.9091H8.90909C8.90909 17.9836 4.92545 14 0 14ZM0 8.90909V11.4545C6.32545 11.4545 11.4545 16.5836 11.4545 22.9091H14C14 15.1709 7.72545 8.90909 0 8.90909ZM25.4545 0H2.54545C1.14545 0 0 1.14545 0 2.54545V6.36364H2.54545V2.54545H25.4545V20.3636H16.5455V22.9091H25.4545C26.8545 22.9091 28 21.7636 28 20.3636V2.54545C28 1.14545 26.8545 0 25.4545 0ZM5.09091 5.09091V7.63636H20.3636V15.2727H16.5455V17.8182H22.9091V5.09091H5.09091Z" fill="#2A2238"/>
</svg>
