<svg width="28" height="28" viewBox="0 0 28 28" fill="none" xmlns="http://www.w3.org/2000/svg">
<path d="M16.2105 0V11.2H28C28 5.012 22.7242 0 16.2105 0ZM19.1579 8.4V3.276C21.6632 4.116 23.6526 6.006 24.5516 8.4H19.1579ZM6.54316 12.6L5.14316 9.8H0V12.6H3.27158C3.27158 12.6 6.05684 18.298 6.39579 18.788C4.77474 19.614 3.68421 21.238 3.68421 23.1C3.68421 25.802 5.9979 28 8.84211 28C11.4358 28 13.5874 26.18 13.9411 23.8H17.0063C17.36 26.18 19.5116 28 22.1053 28C24.9495 28 27.2632 25.802 27.2632 23.1C27.2632 21.644 26.5853 20.342 25.5242 19.446C27.0716 17.556 28 15.176 28 12.6H6.54316ZM8.84211 25.2C7.61895 25.2 6.63158 24.262 6.63158 23.1C6.63158 21.938 7.61895 21 8.84211 21C10.0653 21 11.0526 21.938 11.0526 23.1C11.0526 24.262 10.0653 25.2 8.84211 25.2ZM22.1053 25.2C20.8821 25.2 19.8947 24.262 19.8947 23.1C19.8947 21.938 20.8821 21 22.1053 21C23.3284 21 24.3158 21.938 24.3158 23.1C24.3158 24.262 23.3284 25.2 22.1053 25.2ZM23.1958 17.724L22.7684 18.242C22.5621 18.214 22.3263 18.2 22.1053 18.2C20.0568 18.2 18.2737 19.348 17.4484 21H13.4989C12.7621 19.544 11.2884 18.48 9.54947 18.242L8.90105 17.304C8.75368 17.066 8.4 16.338 7.91369 15.4H24.5516C24.2421 16.226 23.7853 17.01 23.1958 17.724Z" fill="#2A2238"/>
</svg>
