<svg width="28" height="28" viewBox="0 0 28 28" fill="none" xmlns="http://www.w3.org/2000/svg">
<path d="M14 6.125C14 5.89294 13.9078 5.67038 13.7437 5.50628C13.5796 5.34219 13.3571 5.25 13.125 5.25C12.8929 5.25 12.6704 5.34219 12.5063 5.50628C12.3422 5.67038 12.25 5.89294 12.25 6.125V15.75C12.25 15.9042 12.2909 16.0557 12.3683 16.1891C12.4458 16.3225 12.5571 16.433 12.691 16.5095L18.816 20.0095C19.017 20.1181 19.2525 20.1438 19.4722 20.0811C19.6919 20.0184 19.8784 19.8722 19.9917 19.6738C20.1051 19.4755 20.1364 19.2406 20.0789 19.0195C20.0214 18.7984 19.8796 18.6085 19.684 18.4905L14 15.2425V6.125Z" fill="#2A2238"/>
<path d="M14 28C17.713 28 21.274 26.525 23.8995 23.8995C26.525 21.274 28 17.713 28 14C28 10.287 26.525 6.72601 23.8995 4.10051C21.274 1.475 17.713 0 14 0C10.287 0 6.72601 1.475 4.10051 4.10051C1.475 6.72601 0 10.287 0 14C0 17.713 1.475 21.274 4.10051 23.8995C6.72601 26.525 10.287 28 14 28ZM26.25 14C26.25 17.2489 24.9594 20.3647 22.6621 22.6621C20.3647 24.9594 17.2489 26.25 14 26.25C10.7511 26.25 7.63526 24.9594 5.33794 22.6621C3.04062 20.3647 1.75 17.2489 1.75 14C1.75 10.7511 3.04062 7.63526 5.33794 5.33794C7.63526 3.04062 10.7511 1.75 14 1.75C17.2489 1.75 20.3647 3.04062 22.6621 5.33794C24.9594 7.63526 26.25 10.7511 26.25 14Z" fill="#2A2238"/>
</svg>
