<svg width="32" height="32" viewBox="0 0 32 32" fill="none" xmlns="http://www.w3.org/2000/svg">
<path d="M23.5467 7.21333L24.7733 8.44L21.1867 12.0267L19.96 10.8L23.5467 7.21333ZM23.56 4C23.2133 4 22.88 4.13333 22.6133 4.38667L18.4533 8.54667L15.88 6L14 7.88L15.8933 9.77333L4 21.6667V28H10.3333L22.2267 16.1067L24.12 18L26 16.12L23.44 13.56L27.6 9.4C28.1333 8.86667 28.1333 8.02667 27.6133 7.50667L24.4933 4.38667C24.2267 4.13333 23.8933 4 23.56 4ZM9.22667 25.3333L6.66667 22.7733L17.4133 12.0267L19.9733 14.5867L9.22667 25.3333Z" fill="#2A2238"/>
</svg>
