<svg width="32" height="32" viewBox="0 0 32 32" fill="none" xmlns="http://www.w3.org/2000/svg">
<path d="M16 29.3333C8.65333 29.3333 2.66667 23.3467 2.66667 16C2.66667 8.65333 8.65333 2.66667 16 2.66667C23.3467 2.66667 29.3333 8.05333 29.3333 14.6667C29.3333 19.08 25.7467 22.6667 21.3333 22.6667H18.9733C18.6 22.6667 18.3067 22.96 18.3067 23.3333C18.3067 23.4933 18.3733 23.64 18.48 23.7733C19.0267 24.4 19.3333 25.1867 19.3333 26C19.3333 27.84 17.84 29.3333 16 29.3333ZM16 5.33333C10.12 5.33333 5.33333 10.12 5.33333 16C5.33333 21.88 10.12 26.6667 16 26.6667C16.3733 26.6667 16.6667 26.3733 16.6667 26C16.6667 25.7867 16.56 25.6267 16.48 25.5333C15.9333 24.92 15.64 24.1333 15.64 23.3333C15.64 21.4933 17.1333 20 18.9733 20H21.3333C24.28 20 26.6667 17.6133 26.6667 14.6667C26.6667 9.52 21.88 5.33333 16 5.33333Z" fill="#2A2238"/>
<path d="M8.66667 17.3333C9.77124 17.3333 10.6667 16.4379 10.6667 15.3333C10.6667 14.2288 9.77124 13.3333 8.66667 13.3333C7.5621 13.3333 6.66667 14.2288 6.66667 15.3333C6.66667 16.4379 7.5621 17.3333 8.66667 17.3333Z" fill="#2A2238"/>
<path d="M12.6667 12C13.7712 12 14.6667 11.1046 14.6667 10C14.6667 8.89543 13.7712 8 12.6667 8C11.5621 8 10.6667 8.89543 10.6667 10C10.6667 11.1046 11.5621 12 12.6667 12Z" fill="#2A2238"/>
<path d="M19.3333 12C20.4379 12 21.3333 11.1046 21.3333 10C21.3333 8.89543 20.4379 8 19.3333 8C18.2288 8 17.3333 8.89543 17.3333 10C17.3333 11.1046 18.2288 12 19.3333 12Z" fill="#2A2238"/>
<path d="M23.3333 17.3333C24.4379 17.3333 25.3333 16.4379 25.3333 15.3333C25.3333 14.2288 24.4379 13.3333 23.3333 13.3333C22.2288 13.3333 21.3333 14.2288 21.3333 15.3333C21.3333 16.4379 22.2288 17.3333 23.3333 17.3333Z" fill="#2A2238"/>
</svg>
