<svg width="24" height="24" viewBox="0 0 24 24" fill="none" xmlns="http://www.w3.org/2000/svg">
<path d="M16.2856 17.7141C14.6458 17.7134 13.085 17.0092 11.9996 15.7801C10.2595 17.7527 7.39749 18.2824 5.06657 17.0635C2.73565 15.8445 1.53806 13.1917 2.16547 10.6372C2.79287 8.08266 5.08314 6.28651 7.71357 6.28606C8.61252 6.28392 9.49902 6.49611 10.2996 6.90506C9.67519 7.63713 9.19141 8.47824 8.87257 9.38606C7.71607 8.87383 6.36041 9.18301 5.54036 10.146C4.72032 11.109 4.63109 12.4966 5.32106 13.5567C6.01102 14.6169 7.31592 15.0971 8.5285 14.7372C9.74108 14.3773 10.5727 13.2629 10.5726 11.9981C10.5726 8.8423 13.1308 6.28406 16.2866 6.28406C19.4423 6.28406 22.0006 8.8423 22.0006 11.9981C22.0006 15.1538 19.4423 17.7121 16.2866 17.7121L16.2856 17.7141ZM13.4296 12.1001C13.457 13.6679 14.7431 14.9207 16.3111 14.9069C17.8792 14.8932 19.1431 13.6182 19.1431 12.0501C19.1431 10.4819 17.8792 9.20689 16.3111 9.19317C14.7431 9.17944 13.457 10.4322 13.4296 12.0001V12.1001Z" fill="#2A2238"/>
</svg>
