<svg width="29" height="30" viewBox="0 0 29 30" fill="none" xmlns="http://www.w3.org/2000/svg">
<path fill-rule="evenodd" clip-rule="evenodd" d="M2.8 1.75C2.54855 1.75 2.28918 1.86029 2.08468 2.08751C1.87783 2.31734 1.75 2.64447 1.75 3V24C1.75 25.1512 2.1623 26.2414 2.87549 27.0338C3.58634 27.8236 4.53247 28.25 5.5 28.25H19.9C20.7419 28.2502 21.5702 27.9278 22.2427 27.3178C22.9171 26.7061 23.3927 25.8421 23.5723 24.8645L23.6852 24.25H25.3C25.7901 24.25 26.2784 24.0344 26.6517 23.6196C27.0273 23.2022 27.25 22.6208 27.25 22V8C27.25 7.37925 27.0273 6.79777 26.6517 6.3804C26.2784 5.96565 25.7901 5.75 25.3 5.75H23.65V3C23.65 2.64447 23.5222 2.31734 23.3153 2.08751C23.1108 1.86029 22.8514 1.75 22.6 1.75H2.8ZM0.969737 1.08406C1.44037 0.561137 2.09667 0.25 2.8 0.25H22.6C23.3033 0.25 23.9596 0.561137 24.4303 1.08406C24.8985 1.60438 25.15 2.29467 25.15 3V4.25H25.3C26.242 4.25 27.1272 4.66649 27.7667 5.37696C28.4037 6.08481 28.75 7.02945 28.75 8V22C28.75 22.9705 28.4037 23.9152 27.7667 24.623C27.1272 25.3335 26.242 25.75 25.3 25.75H24.9021C24.5999 26.7871 24.0318 27.7201 23.2505 28.4288C22.3158 29.2766 21.1328 29.7502 19.9 29.75C19.8999 29.75 19.9001 29.75 19.9 29.75H5.5C4.08059 29.75 2.73753 29.1228 1.76055 28.0373C0.785914 26.9543 0.25 25.501 0.25 24V3C0.25 2.29467 0.501451 1.60438 0.969737 1.08406ZM23.65 6.25H25.3C25.7646 6.25 26.192 6.45578 26.4939 6.79117C26.7934 7.12395 26.95 7.55989 26.95 8V22C26.95 22.4401 26.7934 22.876 26.4939 23.2088C26.192 23.5442 25.7646 23.75 25.3 23.75H23.65V6.25ZM25.15 7.75V22.25H25.3C25.3128 22.25 25.3432 22.2451 25.3789 22.2054C25.417 22.1631 25.45 22.0903 25.45 22V8C25.45 7.90968 25.417 7.83691 25.3789 7.79462C25.3432 7.75493 25.3128 7.75 25.3 7.75H25.15Z" fill="#2A2238"/>
</svg>
