<svg width="28" height="28" viewBox="0 0 28 28" fill="none" xmlns="http://www.w3.org/2000/svg">
<path d="M3.48101 18.5147C1.47789 17.9901 0 16.1676 0 14C0 12.3096 0.898809 10.8291 2.2446 10.0103C2.75484 9.69988 3.11111 9.15281 3.11111 8.55556C3.11111 3.83045 6.94156 0 11.6667 0C13.4274 0 15.064 0.53191 16.4244 1.44381C17.0029 1.83159 17.7548 1.87169 18.4272 1.68996C18.7514 1.60232 19.0925 1.55556 19.4444 1.55556C21.5922 1.55556 23.3333 3.29667 23.3333 5.44444C23.3333 5.96981 23.6396 6.48221 24.1261 6.68061C26.3985 7.60737 28 9.83887 28 12.4444C28 14.8715 26.6104 16.974 24.5834 17.9998L23.5037 26.6374C23.4064 27.4158 22.7446 28 21.9601 28H6.03988C5.25538 28 4.59365 27.4158 4.49634 26.6374L3.48101 18.5147ZM6.22222 8.55556C6.22222 10.4056 5.14764 11.8858 3.8616 12.6682C3.40489 12.946 3.11111 13.4401 3.11111 14C3.11111 14.8591 3.80756 15.5556 4.66667 15.5556H21.7778C23.496 15.5556 24.8889 14.1627 24.8889 12.4444C24.8889 11.1466 24.0932 10.0271 22.9512 9.56135C21.1554 8.82894 20.2222 7.07779 20.2222 5.44444C20.2222 5.01489 19.874 4.66667 19.4444 4.66667C19.3691 4.66667 19.301 4.67653 19.239 4.69329C17.9778 5.03419 16.2293 5.05844 14.6921 4.02805C13.8281 3.4489 12.7916 3.11111 11.6667 3.11111C8.65978 3.11111 6.22222 5.54867 6.22222 8.55556ZM6.63532 18.6667L7.4131 24.8889H9.33333V18.6667H6.63532ZM15.5556 24.8889V18.6667H12.4444V24.8889H15.5556ZM18.6667 24.8889H20.5869L21.3647 18.6667H18.6667V24.8889Z" fill="#2A2238"/>
</svg>
