<svg width="19" height="29" viewBox="0 0 19 29" fill="none" xmlns="http://www.w3.org/2000/svg">
<path d="M0.550049 19.6308C0.816049 22.9698 3.45505 25.5703 8.18705 25.8783V28.3423H10.287V25.8608C15.187 25.5178 18.05 22.8998 18.05 19.0988C18.05 15.6443 15.859 13.8628 11.9425 12.9388L10.287 12.5468V5.83729C12.387 6.07529 13.724 7.22329 14.046 8.81229H17.728C17.462 5.59579 14.704 3.07929 10.287 2.80629V0.342285H8.18705V2.85878C4.00455 3.26828 1.15205 5.78479 1.15205 9.34429C1.15205 12.4943 3.27305 14.4963 6.79755 15.3188L8.18705 15.6618V22.7808C6.03455 22.4553 4.61005 21.2758 4.28805 19.6308H0.550049ZM8.16955 12.0498C6.10455 11.5703 4.98455 10.5938 4.98455 9.12379C4.98455 7.47878 6.19205 6.24679 8.18705 5.88629V12.0463H8.16955V12.0498ZM10.5916 16.2253C13.1011 16.8063 14.2595 17.7478 14.2595 19.4103C14.2595 21.3073 12.8175 22.6093 10.287 22.8473V16.1553L10.5916 16.2253Z" fill="#2A2238"/>
</svg>
