<svg width="19" height="28" viewBox="0 0 19 28" fill="none" xmlns="http://www.w3.org/2000/svg">
<path d="M0 15.365H4.59433C4.86267 16.45 5.02833 17.556 5.02833 18.7017C5.02833 21.9333 3.311 24.5257 0.186666 25.1673V28H18.6667V25.1067H5.81467V24.8057C7.73967 23.5807 8.463 21.4317 8.463 18.5197C8.463 17.4347 8.29967 16.3893 8.071 15.365H15.7477V13.097H7.51333C7.07933 11.41 6.64533 9.702 6.64533 7.854C6.64533 4.88133 9.08833 3.03333 12.6653 3.03333C14.3579 3.05666 16.0278 3.42589 17.5723 4.11833V1.064C15.9624 0.373179 14.2305 0.0114136 12.4787 0C6.685 0 3.08467 3.01233 3.08467 7.854C3.08467 9.66233 3.53967 11.389 4.01567 13.097H0V15.365Z" fill="#2A2238"/>
</svg>
