<svg width="28" height="28" viewBox="0 0 28 28" fill="none" xmlns="http://www.w3.org/2000/svg">
<path d="M1.71727 0L0 1.71727L1.21792 2.92301V17.4284C1.21792 18.7682 2.30187 19.8643 3.64158 19.8643H12.1792V22.3001H9.74337V24.736H19.4867V22.3001H17.0509V19.8643H18.147L25.4545 27.1718L27.1718 25.4545L1.71727 0ZM3.64158 17.4284V5.35885L15.7112 17.4284H3.64158ZM5.54154 0.377555L7.97738 2.8134H25.5763V17.4284H22.5924L25.0283 19.8643H25.5642C26.9039 19.8643 28 18.7682 28 17.4284V2.8134C28 1.47368 26.9039 0.377555 25.5642 0.377555H5.54154Z" fill="#2A2238"/>
</svg>
