<svg width="32" height="32" viewBox="0 0 32 32" fill="none" xmlns="http://www.w3.org/2000/svg">
<path d="M25.2267 8.01333C24.96 7.22667 24.2133 6.66667 23.3333 6.66667H8.66667C7.78667 6.66667 7.05333 7.22667 6.77333 8.01333L4 16V26.6667C4 27.4 4.6 28 5.33333 28H6.66667C7.4 28 8 27.4 8 26.6667V25.3333H24V26.6667C24 27.4 24.6 28 25.3333 28H26.6667C27.4 28 28 27.4 28 26.6667V16L25.2267 8.01333ZM9.13333 9.33333H22.8533L24.2933 13.48H7.69333L9.13333 9.33333ZM25.3333 22.6667H6.66667V16H25.3333V22.6667Z" fill="#2A2238"/>
<path d="M10 21.3333C11.1046 21.3333 12 20.4379 12 19.3333C12 18.2288 11.1046 17.3333 10 17.3333C8.89543 17.3333 8 18.2288 8 19.3333C8 20.4379 8.89543 21.3333 10 21.3333Z" fill="#2A2238"/>
<path d="M22 21.3333C23.1046 21.3333 24 20.4379 24 19.3333C24 18.2288 23.1046 17.3333 22 17.3333C20.8954 17.3333 20 18.2288 20 19.3333C20 20.4379 20.8954 21.3333 22 21.3333Z" fill="#2A2238"/>
</svg>
