<svg width="32" height="32" viewBox="0 0 32 32" fill="none" xmlns="http://www.w3.org/2000/svg">
<path d="M16 2.66667C10.6667 2.66667 5.33333 3.33333 5.33333 8V20.6667C5.33333 23.24 7.42667 25.3333 10 25.3333L8 27.3333V28H24V27.3333L22 25.3333C24.5733 25.3333 26.6667 23.24 26.6667 20.6667V8C26.6667 3.33333 21.8933 2.66667 16 2.66667ZM23.5467 6.66667H8.57333C9.38667 5.97333 11.32 5.33333 16 5.33333C20.9467 5.33333 22.8267 5.94667 23.5467 6.66667ZM14.6667 9.33333V13.3333H8V9.33333H14.6667ZM17.3333 9.33333H24V13.3333H17.3333V9.33333ZM22 22.6667H10C8.89333 22.6667 8 21.7733 8 20.6667V16H24V20.6667C24 21.7733 23.1067 22.6667 22 22.6667Z" fill="#2A2238"/>
<path d="M11.3333 21.3333C12.4379 21.3333 13.3333 20.4379 13.3333 19.3333C13.3333 18.2288 12.4379 17.3333 11.3333 17.3333C10.2288 17.3333 9.33333 18.2288 9.33333 19.3333C9.33333 20.4379 10.2288 21.3333 11.3333 21.3333Z" fill="#2A2238"/>
<path d="M20.6667 21.3333C21.7712 21.3333 22.6667 20.4379 22.6667 19.3333C22.6667 18.2288 21.7712 17.3333 20.6667 17.3333C19.5621 17.3333 18.6667 18.2288 18.6667 19.3333C18.6667 20.4379 19.5621 21.3333 20.6667 21.3333Z" fill="#2A2238"/>
</svg>
