<svg width="32" height="32" viewBox="0 0 32 32" fill="none" xmlns="http://www.w3.org/2000/svg">
<path d="M20.6667 7.33333C22.1333 7.33333 23.3333 6.13333 23.3333 4.66667C23.3333 3.2 22.1333 2 20.6667 2C19.2 2 18 3.2 18 4.66667C18 6.13333 19.2 7.33333 20.6667 7.33333ZM6.66667 16C2.93333 16 0 18.9333 0 22.6667C0 26.4 2.93333 29.3333 6.66667 29.3333C10.4 29.3333 13.3333 26.4 13.3333 22.6667C13.3333 18.9333 10.4 16 6.66667 16ZM6.66667 27.3333C4.13333 27.3333 2 25.2 2 22.6667C2 20.1333 4.13333 18 6.66667 18C9.2 18 11.3333 20.1333 11.3333 22.6667C11.3333 25.2 9.2 27.3333 6.66667 27.3333ZM14.4 14L17.6 10.8L18.6667 11.8667C20.4 13.6 22.6667 14.6667 25.4667 14.6667V12C23.4667 12 21.8667 11.2 20.6667 10L18.1333 7.46667C17.4667 6.93333 16.8 6.66667 16 6.66667C15.2 6.66667 14.5333 6.93333 14.1333 7.46667L10.4 11.2C9.86667 11.7333 9.6 12.4 9.6 13.0667C9.6 13.8667 9.86667 14.5333 10.4 14.9333L14.6667 18.6667V25.3333H17.3333V17.0667L14.4 14ZM25.3333 16C21.6 16 18.6667 18.9333 18.6667 22.6667C18.6667 26.4 21.6 29.3333 25.3333 29.3333C29.0667 29.3333 32 26.4 32 22.6667C32 18.9333 29.0667 16 25.3333 16ZM25.3333 27.3333C22.8 27.3333 20.6667 25.2 20.6667 22.6667C20.6667 20.1333 22.8 18 25.3333 18C27.8667 18 30 20.1333 30 22.6667C30 25.2 27.8667 27.3333 25.3333 27.3333Z" fill="#2A2238"/>
</svg>
