<svg width="32" height="32" viewBox="0 0 32 32" fill="none" xmlns="http://www.w3.org/2000/svg">
<path d="M18 7.33333C19.4667 7.33333 20.6667 6.13333 20.6667 4.66667C20.6667 3.2 19.4667 2 18 2C16.5333 2 15.3333 3.2 15.3333 4.66667C15.3333 6.13333 16.5333 7.33333 18 7.33333ZM13.0667 11.8667L9.33333 30.6667H12.1333L14.5333 20L17.3333 22.6667V30.6667H20V20.6667L17.2 18L18 14C19.7333 16 22.4 17.3333 25.3333 17.3333V14.6667C22.8 14.6667 20.6667 13.3333 19.6 11.4667L18.2667 9.33333C17.52 8.14667 16.0267 7.66667 14.7333 8.21333L8 11.0667V17.3333H10.6667V12.8L13.0667 11.8667Z" fill="#2A2238"/>
</svg>
