<svg width="32" height="32" viewBox="0 0 32 32" fill="none" xmlns="http://www.w3.org/2000/svg">
<path d="M11.3333 17.3333C12.44 17.3333 13.3333 18.2267 13.3333 19.3333C13.3333 20.44 12.44 21.3333 11.3333 21.3333C10.2267 21.3333 9.33333 20.44 9.33333 19.3333C9.33333 18.2267 10.2267 17.3333 11.3333 17.3333ZM26.3733 30.1467L24.1867 27.96C24.12 27.9733 24.0667 28 24 28H22.6667C21.9333 28 21.3333 27.4 21.3333 26.6667V25.3333H10.6667V26.6667C10.6667 27.4 10.0667 28 9.33333 28H8C7.26667 28 6.66667 27.4 6.66667 26.6667V24.2933C5.85333 23.56 5.33333 22.5067 5.33333 21.3333V9.10667L1.85333 5.62667L3.73333 3.74667L28.24 28.2533L26.3733 30.1467ZM8 11.7733V13.3333H9.56L8 11.7733ZM18.8933 22.6667L12.2267 16H8V21.3333C8 21.8267 8.28 22.16 8.45333 22.3067L8.84 22.6667H18.8933ZM16 5.33333C20.92 5.33333 22.8133 5.94667 23.5467 6.65333H10.4267L13.0933 9.32H24V13.3333H17.1067L19.7733 16H24V20.2267L26.4133 22.64C26.56 22.2267 26.6667 21.8 26.6667 21.3333V8C26.6667 3.33333 21.8933 2.66667 16 2.66667C12.64 2.66667 9.65333 2.88 7.70667 3.93333L9.74667 5.97333C10.8933 5.6 12.8 5.33333 16 5.33333Z" fill="#2A2238"/>
</svg>
