<svg width="32" height="32" viewBox="0 0 32 32" fill="none" xmlns="http://www.w3.org/2000/svg">
<path d="M17.9867 7.30667C19.4533 7.30667 20.6533 6.10667 20.6533 4.64C20.6533 3.17333 19.4533 1.97333 17.9867 1.97333C16.52 1.97333 15.32 3.17333 15.32 4.64C15.32 6.10667 16.52 7.30667 17.9867 7.30667ZM13.1867 25.84L14.52 19.9733L17.32 22.64V30.64H19.9867V20.64L17.1867 17.9733L17.9867 13.9733C19.72 15.9733 22.3867 17.3067 25.32 17.3067V14.64C22.7867 14.64 20.6533 13.3067 19.5867 11.44L18.2533 9.30667C17.72 8.50667 16.92 7.97333 15.9867 7.97333C15.5867 7.97333 15.32 8.10667 14.92 8.10667L7.98667 11.04V17.3067H10.6533V12.7733L13.0533 11.84L10.92 22.64L4.38667 21.3067L3.85333 23.9733L13.1867 25.84Z" fill="#2A2238"/>
</svg>
