<svg width="29" height="29" viewBox="0 0 29 29" fill="none" xmlns="http://www.w3.org/2000/svg">
<path d="M26.2001 23.6C26.2001 25.5882 24.5883 27.2 22.6001 27.2C20.6119 27.2 19.0001 25.5882 19.0001 23.6C19.0001 21.6118 20.6119 20 22.6001 20C24.5883 20 26.2001 21.6118 26.2001 23.6Z" fill="#2A2238"/>
<path d="M9.20011 7.6C9.20011 9.58823 7.58833 11.2 5.60011 11.2C3.61188 11.2 2.00011 9.58823 2.00011 7.6C2.00011 5.61178 3.61188 4 5.60011 4C7.58833 4 9.20011 5.61178 9.20011 7.6Z" fill="#2A2238"/>
<path d="M26.8701 0.707108C27.2607 0.316584 27.8938 0.316584 28.2844 0.707108C28.6749 1.09763 28.6749 1.7308 28.2844 2.12132L2.12141 28.2843C1.73089 28.6748 1.09772 28.6748 0.7072 28.2843C0.316676 27.8937 0.316676 27.2606 0.7072 26.8701L26.8701 0.707108Z" fill="#2A2238"/>
</svg>
