<svg width="24" height="26" viewBox="0 0 24 26" fill="none" xmlns="http://www.w3.org/2000/svg">
<path fill-rule="evenodd" clip-rule="evenodd" d="M9.3335 2C8.41302 2 7.66683 2.74619 7.66683 3.66667V17C7.66683 17.9205 8.41302 18.6667 9.3335 18.6667H20.0002C20.9206 18.6667 21.6668 17.9205 21.6668 17V8.21895C21.6668 8.13055 21.6317 8.04576 21.5692 7.98325L15.6836 2.09763C15.6211 2.03512 15.5363 2 15.4479 2H9.3335ZM5.66683 3.66667C5.66683 1.64162 7.30845 0 9.3335 0H15.4479C16.0667 0 16.6602 0.245834 17.0978 0.683417L22.9834 6.56904C23.421 7.00662 23.6668 7.60011 23.6668 8.21895V17C23.6668 19.025 22.0252 20.6667 20.0002 20.6667H18.3335V23C18.3335 24.6569 16.9904 26 15.3335 26H4.00016C1.97512 26 0.333496 24.3584 0.333496 22.3333V8.33333C0.333496 6.67648 1.67664 5.33333 3.3335 5.33333H5.66683V3.66667ZM5.66683 7.33333H3.3335C2.78121 7.33333 2.3335 7.78105 2.3335 8.33333V22.3333C2.3335 23.2538 3.07969 24 4.00016 24H15.3335C15.8858 24 16.3335 23.5523 16.3335 23V20.6667H9.3335C7.30845 20.6667 5.66683 19.025 5.66683 17V7.33333Z" fill="#2A2238"/>
</svg>
