<svg width="28" height="28" viewBox="0 0 28 28" fill="none" xmlns="http://www.w3.org/2000/svg">
<path d="M26.3333 18.6667C27.2533 18.6667 28 17.92 28 17C28 16.08 27.2533 15.3333 26.3333 15.3333H14.6667V14H23.6667C24.5867 14 25.3333 13.2533 25.3333 12.3333C25.3333 11.44 24.6267 10.7333 23.76 10.68L10.4933 10.6667L12.4667 7.2C12.5867 6.97333 12.6533 6.74667 12.6533 6.48C12.6533 6.13333 12.5333 5.81333 12.3067 5.54667L10.8267 4L1.25333 13.0667C0.453333 13.8133 0 14.8667 0 15.96V24C0 26.2133 1.78667 28 4 28H22.3333C23.2533 28 24 27.2533 24 26.3333C24 25.4133 23.2533 24.6667 22.3333 24.6667H14.6667V23.3333H25C25.92 23.3333 26.6667 22.5867 26.6667 21.6667C26.6667 20.7467 25.92 20 25 20H14.6667V18.6667H26.3333ZM12 25.3333H4C3.26667 25.3333 2.66667 24.7333 2.66667 24V16C2.66667 15.48 2.97333 15.1467 3.14667 15L8 10.4933V13.3333H12V25.3333ZM19.5333 3.81333L19.44 3.72C18.68 2.89333 18.3467 1.84 18.5467 0.786667L18.6667 0H16.1467L16.0667 0.573333C15.8 2.38667 16.4267 4.18667 17.8 5.53333L17.8933 5.61333C18.6533 6.44 18.9867 7.49333 18.7867 8.54667L18.64 9.33333H21.1867L21.2667 8.76C21.5467 6.94667 20.9067 5.14667 19.5333 3.81333ZM24.8667 3.81333L24.7733 3.72C24.0133 2.89333 23.68 1.84 23.88 0.786667L24 0H21.48L21.4 0.573333C21.1333 2.38667 21.76 4.18667 23.1333 5.53333L23.2267 5.61333C23.9867 6.44 24.32 7.49333 24.12 8.54667L23.9733 9.33333H26.52L26.6 8.76C26.88 6.94667 26.24 5.14667 24.8667 3.81333Z" fill="#2A2238"/>
</svg>
