<svg width="28" height="28" viewBox="0 0 28 28" fill="none" xmlns="http://www.w3.org/2000/svg">
<path d="M24.8889 3.11111V24.8889H3.11111V3.11111H24.8889ZM24.8889 0H3.11111C1.4 0 0 1.4 0 3.11111V24.8889C0 26.6 1.4 28 3.11111 28H24.8889C26.6 28 28 26.6 28 24.8889V3.11111C28 1.4 26.6 0 24.8889 0ZM10.8889 23.3333V17.1111H12.4444V13.2222C12.4444 11.5111 11.0444 10.1111 9.33333 10.1111H7.77778C6.06667 10.1111 4.66667 11.5111 4.66667 13.2222V17.1111H6.22222V23.3333H10.8889ZM8.55556 8.55556C9.62889 8.55556 10.5 7.68444 10.5 6.61111C10.5 5.53778 9.62889 4.66667 8.55556 4.66667C7.48222 4.66667 6.61111 5.53778 6.61111 6.61111C6.61111 7.68444 7.48222 8.55556 8.55556 8.55556ZM23.3333 12.4444L19.4444 6.22222L15.5556 12.4444H23.3333ZM15.5556 15.5556L19.4444 21.7778L23.3333 15.5556H15.5556Z" fill="#2A2238"/>
</svg>
