<svg width="28" height="28" viewBox="0 0 28 28" fill="none" xmlns="http://www.w3.org/2000/svg">
<path d="M5.33831 22.662C3.04099 20.3646 1.75037 17.2488 1.75037 13.9999C1.75037 10.751 3.04099 7.63516 5.33831 5.33784C7.63563 3.04052 10.7515 1.7499 14.0004 1.7499C17.2493 1.7499 20.3651 3.04052 22.6624 5.33784C24.9597 7.63516 26.2504 10.751 26.2504 13.9999C26.2504 17.2488 24.9597 20.3646 22.6624 22.662C20.3651 24.9593 17.2493 26.2499 14.0004 26.2499C10.7515 26.2499 7.63563 24.9593 5.33831 22.662ZM4.10087 23.8994C6.72638 26.5249 10.2873 27.9999 14.0004 27.9999C17.7134 27.9999 21.2744 26.5249 23.8999 23.8994C26.5254 21.2739 28.0004 17.7129 28.0004 13.9999C28.0004 10.2869 26.5254 6.72592 23.8999 4.10041C21.2744 1.4749 17.7134 -9.78311e-05 14.0004 -9.78311e-05C10.2873 -9.78311e-05 6.72638 1.4749 4.10087 4.10041C1.47536 6.72592 0.000367027 10.2869 0.000367027 13.9999C0.000367027 17.7129 1.47536 21.2739 4.10087 23.8994Z" fill="#2A2238"/>
<path d="M22.3011 13.9999C22.3012 13.8848 22.2787 13.7708 22.2347 13.6645C22.1907 13.5581 22.1262 13.4615 22.0448 13.3801C21.9634 13.2987 21.8668 13.2342 21.7604 13.1902C21.6541 13.1462 21.5401 13.1237 21.425 13.1238L6.57575 13.1238C6.46069 13.1238 6.34677 13.1465 6.24047 13.1905C6.13418 13.2345 6.0376 13.2991 5.95625 13.3804C5.87489 13.4618 5.81036 13.5583 5.76633 13.6646C5.7223 13.7709 5.69964 13.8849 5.69964 13.9999C5.69964 14.2323 5.79194 14.4551 5.95625 14.6194C6.0376 14.7008 6.13418 14.7653 6.24047 14.8093C6.34677 14.8534 6.46069 14.876 6.57575 14.876L21.425 14.876C21.5401 14.8762 21.6541 14.8536 21.7604 14.8096C21.8668 14.7656 21.9634 14.7011 22.0448 14.6197C22.1262 14.5384 22.1907 14.4417 22.2347 14.3354C22.2787 14.229 22.3012 14.115 22.3011 13.9999Z" fill="#2A2238"/>
</svg>
