<svg width="28" height="28" viewBox="0 0 28 28" fill="none" xmlns="http://www.w3.org/2000/svg">
<path d="M24.8889 3.11111V24.8889H3.11111V3.11111H24.8889ZM24.8889 0H3.11111C1.4 0 0 1.4 0 3.11111V24.8889C0 26.6 1.4 28 3.11111 28H24.8889C26.6 28 28 26.6 28 24.8889V3.11111C28 1.4 26.6 0 24.8889 0ZM21.7778 4.66667H16.6444L8.86667 18.6667H6.22222C4.93111 18.6667 3.88889 19.7089 3.88889 21C3.88889 22.2911 4.93111 23.3333 6.22222 23.3333H11.3556L19.1333 9.33333H21.7778C23.0689 9.33333 24.1111 8.29111 24.1111 7C24.1111 5.70889 23.0689 4.66667 21.7778 4.66667Z" fill="#2A2238"/>
</svg>
