<svg width="24" height="28" viewBox="0 0 24 28" fill="none" xmlns="http://www.w3.org/2000/svg">
<path d="M4.9 0C6.44 0 7.7 1.26 7.7 2.8C7.7 4.34 6.44 5.6 4.9 5.6C3.36 5.6 2.1 4.34 2.1 2.8C2.1 1.26 3.36 0 4.9 0ZM17.5 10.5C17.5 11.662 18.438 12.6 19.6 12.6C20.762 12.6 21.7 11.662 21.7 10.5C21.7 9.338 20.762 8.4 19.6 8.4C18.438 8.4 17.5 9.338 17.5 10.5ZM21.7 14H17.724C16.912 14.014 16.128 14.448 15.694 15.204L14.406 17.052L9.408 8.4C8.89 7.518 7.966 7.014 7.014 7H2.8C1.26 7 0 8.26 0 9.8V18.2H2.1V28H9.1V13.454L12.642 19.6H15.722L16.8 18.06V28H22.4V21H23.8V16.1C23.8 14.952 22.862 14 21.7 14Z" fill="#2A2238"/>
</svg>
