<svg width="29" height="28" viewBox="0 0 29 28" fill="none" xmlns="http://www.w3.org/2000/svg">
<path fill-rule="evenodd" clip-rule="evenodd" d="M14.6667 26.25C11.4178 26.25 8.30201 24.9594 6.00469 22.6621C3.70737 20.3647 2.41675 17.2489 2.41675 14C2.41675 10.7511 3.70737 7.63526 6.00469 5.33794C8.30201 3.04062 11.4178 1.75 14.6667 1.75C17.9156 1.75 21.0315 3.04062 23.3288 5.33794C25.6261 7.63526 26.9167 10.7511 26.9167 14C26.9167 17.2489 25.6261 20.3647 23.3288 22.6621C21.0315 24.9594 17.9156 26.25 14.6667 26.25ZM14.6667 28C18.3798 28 21.9407 26.525 24.5662 23.8995C27.1918 21.274 28.6667 17.713 28.6667 14C28.6667 10.287 27.1918 6.72602 24.5662 4.10051C21.9407 1.475 18.3798 0 14.6667 0C10.9537 0 7.39276 1.475 4.76725 4.10051C2.14174 6.72602 0.666748 10.287 0.666748 14C0.666748 17.713 2.14174 21.274 4.76725 23.8995C7.39276 26.525 10.9537 28 14.6667 28ZM14.6667 23.625C12.114 23.625 9.66588 22.6109 7.86085 20.8059C6.05581 19.0009 5.04175 16.5527 5.04175 14C5.04175 11.4473 6.05581 8.99913 7.86085 7.1941C9.66588 5.38906 12.114 4.375 14.6667 4.375C17.2195 4.375 19.6676 5.38906 21.4727 7.1941C23.2777 8.99913 24.2917 11.4473 24.2917 14C24.2917 16.5527 23.2777 19.0009 21.4727 20.8059C19.6676 22.6109 17.2195 23.625 14.6667 23.625ZM14.6667 24.5C16.0456 24.5 17.411 24.2284 18.6849 23.7007C19.9588 23.1731 21.1164 22.3996 22.0914 21.4246C23.0664 20.4496 23.8398 19.2921 24.3675 18.0182C24.8952 16.7443 25.1667 15.3789 25.1667 14C25.1667 12.6211 24.8952 11.2557 24.3675 9.98182C23.8398 8.7079 23.0664 7.55039 22.0914 6.57538C21.1164 5.60036 19.9588 4.82694 18.6849 4.29926C17.411 3.77159 16.0456 3.5 14.6667 3.5C11.882 3.5 9.21126 4.60625 7.24213 6.57538C5.27299 8.54451 4.16675 11.2152 4.16675 14C4.16675 16.7848 5.27299 19.4555 7.24213 21.4246C9.21126 23.3938 11.882 24.5 14.6667 24.5ZM11.9639 14.6825H9.66675V13.5485H11.6746C11.4366 12.6945 11.2091 11.8312 11.2091 10.927C11.2091 8.50617 13.0092 7 15.9061 7C16.782 7.00571 17.6479 7.18659 18.4529 7.532V9.05917C17.6806 8.71294 16.8457 8.52833 15.9994 8.51667C14.2109 8.51667 12.9894 9.44067 12.9894 10.927C12.9894 11.851 13.2064 12.705 13.4234 13.5485H17.5406V14.6825H13.7022C13.8166 15.1947 13.8982 15.7173 13.8982 16.2598C13.8982 17.7158 13.5366 18.7903 12.5741 19.4028V19.5533H19.0001V21H9.76008V19.5837C11.3222 19.2628 12.1809 17.9667 12.1809 16.3508C12.1809 15.778 12.0981 15.225 11.9639 14.6825Z" fill="#2A2238"/>
</svg>
