<svg width="28" height="28" viewBox="0 0 28 28" fill="none" xmlns="http://www.w3.org/2000/svg">
<path fill-rule="evenodd" clip-rule="evenodd" d="M17.1111 3.11111C16.252 3.11111 15.5556 2.41467 15.5556 1.55556C15.5556 0.696446 16.252 0 17.1111 0H26.4444C27.3036 0 28 0.696446 28 1.55556V10.8889C28 11.748 27.3036 12.4444 26.4444 12.4444C25.5853 12.4444 24.8889 11.748 24.8889 10.8889V5.311L11.9888 18.2111C11.3814 18.8185 10.3964 18.8185 9.78895 18.2111C9.18146 17.6036 9.18146 16.6186 9.78895 16.0112L22.689 3.11111H17.1111ZM4.66667 6.22222C3.80756 6.22222 3.11111 6.91867 3.11111 7.77778V23.3333C3.11111 24.1924 3.80756 24.8889 4.66667 24.8889H20.2222C21.0813 24.8889 21.7778 24.1924 21.7778 23.3333V17.1111C21.7778 16.252 22.4742 15.5556 23.3333 15.5556C24.1924 15.5556 24.8889 16.252 24.8889 17.1111V23.3333C24.8889 25.9107 22.7996 28 20.2222 28H4.66667C2.08934 28 0 25.9107 0 23.3333V7.77778C0 5.20045 2.08934 3.11111 4.66667 3.11111H10.8889C11.748 3.11111 12.4444 3.80756 12.4444 4.66667C12.4444 5.52578 11.748 6.22222 10.8889 6.22222H4.66667Z" fill="#2A2238"/>
</svg>
