<svg width="28" height="28" viewBox="0 0 28 28" fill="none" xmlns="http://www.w3.org/2000/svg">
<path d="M19.122 2.8C19.122 1.246 20.3376 0 21.8537 0C23.3698 0 24.5854 1.246 24.5854 2.8C24.5854 4.354 23.3698 5.6 21.8537 5.6C20.3376 5.6 19.122 4.354 19.122 2.8ZM24.5854 28V19.6H28L24.5307 8.918C24.1483 7.77 23.1102 7 21.9356 7H21.7717C20.5971 7 19.5454 7.77 19.1766 8.918L18.002 12.53C19.4771 13.37 20.4878 14.952 20.4878 16.8V28H24.5854ZM14.3415 13.3C15.4751 13.3 16.3902 12.362 16.3902 11.2C16.3902 10.038 15.4751 9.1 14.3415 9.1C13.2078 9.1 12.2927 10.038 12.2927 11.2C12.2927 12.362 13.2078 13.3 14.3415 13.3ZM4.78049 5.6C6.29659 5.6 7.5122 4.354 7.5122 2.8C7.5122 1.246 6.29659 0 4.78049 0C3.26439 0 2.04878 1.246 2.04878 2.8C2.04878 4.354 3.26439 5.6 4.78049 5.6ZM7.5122 28V18.2H9.56098V9.8C9.56098 8.26 8.33171 7 6.82927 7H2.73171C1.22927 7 0 8.26 0 9.8V18.2H2.04878V28H7.5122ZM16.3902 28V22.4H17.7561V16.8C17.7561 15.652 16.8273 14.7 15.7073 14.7H12.9756C11.8556 14.7 10.9268 15.652 10.9268 16.8V22.4H12.2927V28H16.3902Z" fill="#2A2238"/>
</svg>
