<svg width="32" height="28" viewBox="0 0 32 28" fill="none" xmlns="http://www.w3.org/2000/svg">
<path d="M31.5 14V10.5H28V5.25L22.75 0L19.25 3.5L15.75 0L12.25 3.5L8.75 0L3.5 5.25V10.5H0V14H3.5V17.5H0V21H3.5V28H28V21H31.5V17.5H28V14H31.5ZM22.75 4.9525L24.5 6.7025V10.5H21V6.7025L22.75 4.9525ZM15.75 4.9525L17.5 6.7025V10.5H14V6.7025L15.75 4.9525ZM14 17.5V14H17.5V17.5H14ZM17.5 21V24.5H14V21H17.5ZM7 6.7025L8.75 4.9525L10.5 6.7025V10.5H7V6.7025ZM7 14H10.5V17.5H7V14ZM7 21H10.5V24.5H7V21ZM24.5 24.5H21V21H24.5V24.5ZM24.5 17.5H21V14H24.5V17.5Z" fill="#2A2238"/>
</svg>
