<svg width="25" height="29" viewBox="0 0 25 29" fill="none" xmlns="http://www.w3.org/2000/svg">
<path fill-rule="evenodd" clip-rule="evenodd" d="M24.5 8.23371V25.3424C24.5 26.2707 24.6564 27.186 24 27.8424C23.3436 28.4988 21.9283 28.3587 21 28.3587V26.6087C21.4641 26.6087 22.1718 26.6706 22.5 26.3424C22.8282 26.0142 22.75 25.8065 22.75 25.3424V8.23371H18.5C17.8038 8.23371 17.4923 8.35099 17 7.85871C16.5077 7.36642 16.625 7.0549 16.625 6.35871V2.10871H6.66142C6.19729 2.10871 5.82819 2.03052 5.5 2.35871C5.17181 2.68689 5.25 3.04396 5.25 3.50809V19.6087H3.5V3.35871C3.5 2.43045 3.34362 1.51503 4 0.858655C4.65638 0.202278 5.52967 0.358706 6.45793 0.358706H16.625L24.5 8.23371ZM1.2355 28.0945V23.4395H1.302L2.968 27.2195H3.871L5.5265 23.4395H5.593V28.0945H6.84425V21.0962H5.44425L3.44925 25.6392H3.40375L1.40875 21.0962H0V28.0945H1.2355ZM10.4002 21.0962C9.94175 21.8557 9.4815 22.6135 9.01775 23.3712C8.554 24.1307 8.11825 24.8937 7.70875 25.6637V26.7977H11.0985V28.0945H12.3935V26.7977H13.251V25.6795H12.3935V21.0962H10.4002ZM8.96525 25.6812V25.6445C9.28025 25.0495 9.61275 24.4545 9.9645 23.8647C10.3197 23.2732 10.6733 22.6992 11.0268 22.1427H11.0968V25.6795H8.967L8.96525 25.6812ZM14.028 21.0962H16.828C17.3338 21.0962 17.7607 21.2012 18.109 21.4095C18.4607 21.6142 18.7302 21.8925 18.914 22.2442C19.0995 22.596 19.1905 22.9915 19.1905 23.429C19.1905 23.8665 19.0977 24.262 18.9105 24.6137C18.725 24.962 18.4555 25.2385 18.0985 25.4432C17.7055 25.6549 17.2637 25.7593 16.8175 25.746H15.4123V28.0945H14.0298V21.0962H14.028ZM17.633 24.0957C17.7372 23.8893 17.7884 23.6601 17.7817 23.429C17.7817 23.0335 17.6733 22.729 17.458 22.5172C17.2428 22.3037 16.9435 22.1987 16.5603 22.1987H15.407V24.6592H16.562C16.7886 24.6655 17.0133 24.6162 17.2165 24.5157C17.3943 24.4207 17.5395 24.2743 17.633 24.0957Z" fill="#2A2238"/>
</svg>
