<svg width="24" height="29" viewBox="0 0 24 29" fill="none" xmlns="http://www.w3.org/2000/svg">
<path fill-rule="evenodd" clip-rule="evenodd" d="M23.9188 25.2891L23.908 8.1606L16.0365 0.289045H6.41569C6.04861 0.289047 5.7374 0.283774 5.46982 0.279241C4.28177 0.259115 3.95424 0.253566 3.41875 0.789055C2.87519 1.33262 2.88805 2.0051 2.90845 3.07191C2.91267 3.29276 2.91722 3.53051 2.91722 3.78751V19.5306H4.66645V3.78751V3.78751C4.66646 3.32359 4.66646 2.53063 4.90804 2.28904C5.16759 2.02949 5.80862 2.03417 6.2722 2.03756C6.32234 2.03793 6.37041 2.03828 6.41569 2.03828H16.0365V6.28906C16.0365 6.39615 16.0341 6.49414 16.032 6.5851C16.02 7.08525 16.0131 7.37271 16.4294 7.78906C16.9215 8.28113 17.2336 8.28906 17.9294 8.28906H22.1588V25.1494C22.1588 25.6133 22.1588 25.9094 21.9188 26.1494C21.5907 26.4775 21.3827 26.5276 20.9188 26.5276H18.6603V28.2768L20.9188 28.289C20.9409 28.289 20.9631 28.2891 20.9853 28.2891C21.8902 28.2894 22.7783 28.2898 23.4188 27.6494C23.9662 27.1019 23.9482 26.4707 23.9272 25.7375C23.923 25.5921 23.9188 25.4426 23.9188 25.2891ZM2.27512 27.1388H5.40762V28.2711H0.901367V21.2728H5.40762V22.4068H2.27512V24.2006H5.22387V25.2611H2.27512V27.1388ZM10.3811 21.2728H11.9439L9.71437 24.7851L11.9089 28.2711H10.3199L8.83237 25.7948H8.77112L7.27837 28.2711H5.77162L7.93987 24.7431L5.79262 21.2728H7.42187L8.87787 23.7911H8.94087L10.3811 21.2728ZM13.7376 27.1388H16.8701V28.2711H12.3604V21.2728H16.8684V22.4068H13.7359V24.2006H16.6829V25.2611H13.7359V27.1388H13.7376Z" fill="#2A2238"/>
</svg>
