<svg width="25" height="29" viewBox="0 0 25 29" fill="none" xmlns="http://www.w3.org/2000/svg">
<path fill-rule="evenodd" clip-rule="evenodd" d="M24.5337 8.23357V25.3586C24.5337 26.2868 24.6901 27.2022 24.0337 27.8586C23.3773 28.5149 21.9619 28.3586 21.0337 28.3586H12.2837V26.6086H21.0337C21.4978 26.6086 22.2055 26.6868 22.5337 26.3586C22.8619 26.0304 22.7837 25.3227 22.7837 24.8586V8.35857H18.5337C17.8375 8.35857 17.526 8.35085 17.0337 7.85857C16.5414 7.36629 16.6587 7.05476 16.6587 6.35857V2.10857H6.53369C6.06956 2.10857 5.86188 2.03033 5.53369 2.35852C5.2055 2.68671 5.28369 2.89439 5.28369 3.35852V19.6086H3.53369V3.35852C3.53369 2.43026 3.37731 1.5149 4.03369 0.858521C4.69007 0.202143 5.60543 0.358521 6.53369 0.358521L16.6587 0.358571L24.5337 8.23357ZM0.0336914 21.0961H2.83369C3.33944 21.0961 3.76644 21.2011 4.11469 21.4093C4.46644 21.6141 4.73594 21.8923 4.91969 22.2441C5.10344 22.5958 5.19619 22.9913 5.19619 23.4288C5.19619 23.8663 5.10169 24.2618 4.91619 24.6136C4.73069 24.9618 4.46119 25.2383 4.10419 25.4431C3.7112 25.6548 3.26937 25.7592 2.82319 25.7458H1.41619V28.0943H0.0336914V21.0961ZM3.63869 24.0956C3.74292 23.8891 3.79404 23.66 3.78744 23.4288C3.78744 23.0316 3.67894 22.7288 3.46369 22.5171C3.24844 22.3036 2.94919 22.1986 2.56594 22.1986H1.41269V24.6591H2.56769C2.7943 24.6653 3.019 24.6161 3.22219 24.5156C3.40003 24.4205 3.54516 24.2742 3.63869 24.0956ZM8.82394 25.4081V28.0943H7.43619V25.4343L5.09119 21.0961H6.62419L8.11694 24.0641H8.17294L9.67094 21.0961H11.1672L8.82394 25.4081Z" fill="#2A2238"/>
</svg>
