<svg width="22" height="28" viewBox="0 0 22 28" fill="none" xmlns="http://www.w3.org/2000/svg">
<path d="M21.6226 24.5V7.875L13.7476 0H4.12256C3.1943 0 2.30406 0.368749 1.64768 1.02513C0.991307 1.6815 0.622559 2.57174 0.622559 3.5V24.5C0.622559 25.4283 0.991307 26.3185 1.64768 26.9749C2.30406 27.6313 3.1943 28 4.12256 28H18.1226C19.0508 28 19.9411 27.6313 20.5974 26.9749C21.2538 26.3185 21.6226 25.4283 21.6226 24.5ZM13.7476 5.25C13.7476 5.94619 14.0241 6.61387 14.5164 7.10616C15.0087 7.59844 15.6764 7.875 16.3726 7.875H19.8726V24.5C19.8726 24.9641 19.6882 25.4092 19.36 25.7374C19.0318 26.0656 18.5867 26.25 18.1226 26.25H4.12256C3.65843 26.25 3.21331 26.0656 2.88512 25.7374C2.55693 25.4092 2.37256 24.9641 2.37256 24.5V3.5C2.37256 3.03587 2.55693 2.59075 2.88512 2.26256C3.21331 1.93437 3.65843 1.75 4.12256 1.75H13.7476V5.25Z" fill="#2A2238"/>
</svg>
