<svg width="23" height="29" viewBox="0 0 23 29" fill="none" xmlns="http://www.w3.org/2000/svg">
<path fill-rule="evenodd" clip-rule="evenodd" d="M22.0834 8.24049V19.7239H20.3167V8.33401L16 8.29046C15.2972 8.29046 14.997 8.28743 14.5 7.79046C14.003 7.29348 14.1334 6.99328 14.1334 6.29046V2.05713H4C3.53145 2.05713 3.33132 1.95909 3 2.29041C2.66868 2.62172 2.65001 2.82191 2.65001 3.29046V19.7239H0.883336V3.29046C0.883336 2.35336 0.837369 1.45304 1.5 0.790405C2.16263 0.127774 2.5629 0.290457 3.5 0.290457H14.1334L22.0834 8.24049ZM0 21.2255H2.82668C3.33724 21.2255 3.76831 21.3315 4.11988 21.5418C4.47498 21.7485 4.74705 22.0294 4.93255 22.3845C5.11805 22.7396 5.21168 23.1388 5.21168 23.5805C5.21168 24.0222 5.11628 24.4214 4.92902 24.7765C4.74175 25.1281 4.46968 25.4072 4.10928 25.6139C3.71254 25.8276 3.26651 25.9331 2.81608 25.9196H1.39567V28.2905H0V21.2255ZM3.63935 24.2536C3.74457 24.0452 3.79618 23.8139 3.78951 23.5805C3.78951 23.1812 3.67998 22.8738 3.46268 22.6601C3.24538 22.4445 2.94328 22.3385 2.55638 22.3385H1.39214V24.8225H2.55814C2.78691 24.8288 3.01375 24.7791 3.21888 24.6776C3.39841 24.5817 3.54492 24.4339 3.63935 24.2536ZM5.93955 21.2255H8.76623C9.2768 21.2255 9.70787 21.3315 10.0594 21.5418C10.4145 21.7485 10.6866 22.0294 10.8721 22.3845C11.0594 22.7396 11.1512 23.1388 11.1512 23.5805C11.1512 24.0222 11.0576 24.4214 10.8686 24.7765C10.6813 25.1281 10.4092 25.4072 10.0488 25.6139C9.6521 25.8276 9.20606 25.9331 8.75563 25.9196H7.33699V28.2905H5.94132V21.2255H5.93955ZM9.5789 24.2536C9.68412 24.0452 9.73573 23.8139 9.72907 23.5805C9.72907 23.1812 9.61953 22.8738 9.40223 22.6601C9.18493 22.4445 8.88283 22.3385 8.49593 22.3385H7.33169V24.8225H8.4977C8.72647 24.8289 8.95333 24.7791 9.15843 24.6776C9.33797 24.5817 9.48448 24.4339 9.5789 24.2536ZM14.6175 28.2905V22.3951H16.6262V21.2255H11.2113V22.3951H13.2147V28.2905H14.6175ZM21.3237 21.2255H22.9014L20.6506 24.7712L22.866 28.2905H21.2619L19.7602 25.7906H19.6984L18.1914 28.2905H16.6703L18.861 24.7288L16.6915 21.2255H18.3363L19.8062 23.7678H19.868L21.3237 21.2255Z" fill="#2A2238"/>
</svg>
