<svg width="25" height="29" viewBox="0 0 25 29" fill="none" xmlns="http://www.w3.org/2000/svg">
<path fill-rule="evenodd" clip-rule="evenodd" d="M24.5 8.23358V25.3585C24.5 26.2868 24.6564 27.2023 24 27.8586C23.3436 28.515 21.9283 28.3586 21 28.3586H19.25V26.6086H21C21.4641 26.6086 22.1718 26.6867 22.5 26.3585C22.8282 26.0303 22.75 25.8227 22.75 25.3585V8.35858H18.5C17.8038 8.35858 17.4923 8.35087 17 7.85858C16.5077 7.3663 16.625 7.05478 16.625 6.35858V2.10858H6.55663C6.0925 2.10858 5.82819 2.0304 5.5 2.35858C5.17181 2.68677 5.25 2.89445 5.25 3.35858V19.6086H3.5V3.35858C3.5 2.43033 3.34362 1.51491 4 0.858533C4.65638 0.202156 5.62837 0.358584 6.55663 0.358584H16.625L24.5 8.23358ZM2.8 21.0961H0V28.0943H1.38425V25.7458H2.7895C3.29175 25.7458 3.71875 25.6461 4.0705 25.4431C4.42575 25.2383 4.697 24.9618 4.88075 24.6136C5.07148 24.2481 5.1683 23.841 5.1625 23.4288C5.1625 22.9913 5.06975 22.5958 4.886 22.2441C4.70323 21.8944 4.4238 21.6047 4.081 21.4093C3.731 21.1993 3.30575 21.0961 2.8 21.0961ZM3.75375 23.4288C3.76006 23.6594 3.70894 23.8879 3.605 24.0938C3.51175 24.2731 3.3666 24.4201 3.1885 24.5156C2.98478 24.6164 2.75944 24.6656 2.53225 24.6591H1.379V22.1986H2.534C2.9155 22.1986 3.21475 22.3036 3.43 22.5153C3.64525 22.7288 3.75375 23.0333 3.75375 23.4288ZM8.6835 21.0961H5.8835V28.0943H7.26775V25.7458H8.673C9.17525 25.7458 9.60225 25.6461 9.954 25.4431C10.3093 25.2383 10.5805 24.9618 10.7642 24.6136C10.9532 24.2618 11.046 23.8663 11.046 23.4288C11.046 22.9913 10.955 22.5958 10.7695 22.2441C10.5867 21.8944 10.3073 21.6047 9.9645 21.4093C9.6145 21.1993 9.18925 21.0961 8.6835 21.0961ZM9.63725 23.4288C9.64356 23.6594 9.59244 23.8879 9.4885 24.0938C9.39525 24.2731 9.2501 24.4201 9.072 24.5156C8.8683 24.6164 8.64295 24.6657 8.41575 24.6591H7.2625V22.1986H8.4175C8.799 22.1986 9.09825 22.3036 9.3135 22.5153C9.52875 22.7288 9.63725 23.0333 9.63725 23.4288ZM14.4795 22.2563V28.0943H13.09V22.2546H11.1055V21.0961H16.4692V22.2546H14.4795V22.2563Z" fill="#2A2238"/>
</svg>
