<svg width="26" height="29" viewBox="0 0 26 29" fill="none" xmlns="http://www.w3.org/2000/svg">
<path fill-rule="evenodd" clip-rule="evenodd" d="M25.4351 8.14783V25.7728C25.4351 26.7011 25.4351 27.2728 24.9351 27.7728C24.3656 28.3423 23.5805 28.3423 22.6522 28.3423L20.1851 28.2728V26.5228H22.6522C23.1163 26.5228 23.1983 26.5354 23.4351 26.2728C23.6851 25.9955 23.6851 25.7802 23.6851 25.3161V8.27283H19.4351C18.7389 8.27283 18.4273 8.26511 17.9351 7.77283C17.4428 7.28054 17.5601 6.85312 17.5601 6.15693V2.02283L7.3976 2.03708C6.93347 2.03708 6.67081 2.03708 6.43506 2.27283C6.18506 2.52283 6.18506 3.07298 6.18506 3.53711V19.5228H4.43506L4.39758 3.53711C4.39758 2.60885 4.24122 1.69345 4.8976 1.03708C5.55397 0.3807 6.46933 0.27286 7.39758 0.27286L17.5601 0.272827L25.4351 8.14783ZM3.73506 21.0103H0.935059V28.0086H2.31931V25.6601H3.72456C4.22681 25.6601 4.65381 25.5603 5.00556 25.3573C5.36081 25.1526 5.63206 24.8761 5.81581 24.5278C6.00654 24.1624 6.10336 23.7552 6.09756 23.3431C6.09756 22.9056 6.00481 22.5101 5.82106 22.1583C5.63829 21.8087 5.35886 21.5189 5.01606 21.3236C4.66606 21.1136 4.24081 21.0103 3.73506 21.0103ZM4.68881 23.3431C4.69512 23.5736 4.644 23.8022 4.54006 24.0081C4.44681 24.1874 4.30165 24.3343 4.12356 24.4298C3.91984 24.5306 3.6945 24.5799 3.46731 24.5733H2.31406V22.1128H3.46906C3.85056 22.1128 4.14981 22.2178 4.36506 22.4296C4.58031 22.6431 4.68881 22.9476 4.68881 23.3431ZM6.81856 21.0103V28.0086H9.37356C10.0753 28.0086 10.6581 27.8686 11.1201 27.5938C11.5876 27.3141 11.9527 26.8914 12.1613 26.3881C12.3888 25.8631 12.5043 25.2296 12.5043 24.4911C12.5043 23.7561 12.3906 23.1296 12.1613 22.6098C11.9551 22.1123 11.5935 21.6949 11.1306 21.4198C10.6686 21.1468 10.0823 21.0103 9.37181 21.0103H6.81856ZM8.20281 22.1391H9.18806C9.62206 22.1391 9.97556 22.2266 10.2538 22.4051C10.5426 22.594 10.7605 22.8734 10.8733 23.1996C11.0116 23.5513 11.0798 23.9906 11.0798 24.5173C11.0852 24.8664 11.0452 25.2146 10.9608 25.5533C10.8985 25.8205 10.7817 26.0719 10.6178 26.2918C10.4655 26.4881 10.2638 26.6403 10.0333 26.7328C9.76322 26.8339 9.47636 26.8826 9.18806 26.8763H8.20281V22.1391ZM14.7531 25.2243V28.0086H13.3706V21.0103H17.8296V22.1531H14.7531V24.1078H17.5636V25.2243H14.7531Z" fill="#2A2238"/>
</svg>
