<svg width="32" height="32" viewBox="0 0 32 32" fill="none" xmlns="http://www.w3.org/2000/svg">
<path d="M6.66667 20H4V25.3333C4 26.8 5.2 28 6.66667 28H12V25.3333H6.66667V20ZM6.66667 6.66667H12V4H6.66667C5.2 4 4 5.2 4 6.66667V12H6.66667V6.66667ZM25.3333 4H20V6.66667H25.3333V12H28V6.66667C28 5.2 26.8 4 25.3333 4ZM25.3333 25.3333H20V28H25.3333C26.8 28 28 26.8 28 25.3333V20H25.3333V25.3333ZM16 12C13.7867 12 12 13.7867 12 16C12 18.2133 13.7867 20 16 20C18.2133 20 20 18.2133 20 16C20 13.7867 18.2133 12 16 12Z" fill="#2A2238"/>
</svg>
