<svg width="18" height="28" viewBox="0 0 18 28" fill="none" xmlns="http://www.w3.org/2000/svg">
<path d="M2.94737 23.5789H17.6842V25.0526C17.6842 26.6737 16.3579 28 14.7368 28H5.89474C4.27368 28 2.94737 26.6737 2.94737 25.0526V23.5789ZM2.94737 22.1053H17.6842V14.7368H2.94737V22.1053ZM17.6842 0V8.84211L13.0421 7.86947C13.0274 7.86947 13.0274 7.88421 13.0126 7.89895C15.2968 8.81263 17.0211 10.8168 17.5368 13.2632H3.09474C3.59579 10.8168 5.33474 8.81263 7.61895 7.89895C7.13263 7.51579 6.73474 7.04421 6.44 6.49895L0 5.15789V3.68421L6.44 2.34316C7.17684 0.957895 8.63579 0 10.3158 0C11.3474 0 12.2905 0.368421 13.0421 0.972632L17.6842 0ZM11.7895 4.42105C11.7453 3.55158 11.1263 2.94737 10.3158 2.94737C9.50526 2.94737 8.84211 3.61053 8.84211 4.42105C8.84211 5.23158 9.50526 5.89474 10.3158 5.89474C11.1263 5.89474 11.7895 5.23158 11.7895 4.42105Z" fill="#2A2238"/>
</svg>
