<svg width="28" height="28" viewBox="0 0 28 28" fill="none" xmlns="http://www.w3.org/2000/svg">
<path d="M14 0C6.272 0 0 6.272 0 14C0 21.728 6.272 28 14 28C21.728 28 28 21.728 28 14C28 6.272 21.728 0 14 0ZM15.4 4.62L17.29 3.29C19.838 4.074 22.008 5.754 23.422 7.966L22.876 9.842L20.986 10.486L15.4 6.58V4.62ZM10.71 3.29L12.6 4.62V6.58L7.014 10.486L5.124 9.842L4.578 7.966C5.992 5.768 8.162 4.088 10.71 3.29ZM7.112 21.154L5.516 21.294C3.822 19.334 2.8 16.786 2.8 14C2.8 13.832 2.814 13.678 2.828 13.51L4.228 12.488L6.16 13.16L8.204 19.236L7.112 21.154ZM17.5 24.626C16.394 24.99 15.218 25.2 14 25.2C12.782 25.2 11.606 24.99 10.5 24.626L9.534 22.54L10.43 21H17.584L18.48 22.554L17.5 24.626ZM17.178 18.2H10.822L8.932 12.572L14 9.016L19.082 12.572L17.178 18.2ZM22.484 21.294L20.888 21.154L19.782 19.236L21.826 13.16L23.772 12.502L25.172 13.524C25.186 13.678 25.2 13.832 25.2 14C25.2 16.786 24.178 19.334 22.484 21.294Z" fill="#2A2238"/>
</svg>
