<svg width="32" height="32" viewBox="0 0 32 32" fill="none" xmlns="http://www.w3.org/2000/svg">
<path d="M26.36 9.64L26.3733 9.62667L21.4133 4.66667L20 6.08L22.8133 8.89333C21.56 9.37333 20.6667 10.5733 20.6667 12C20.6667 13.84 22.16 15.3333 24 15.3333C24.48 15.3333 24.92 15.2267 25.3333 15.0533V24.6667C25.3333 25.4 24.7333 26 24 26C23.2667 26 22.6667 25.4 22.6667 24.6667V18.6667C22.6667 17.2 21.4667 16 20 16H18.6667V6.66667C18.6667 5.2 17.4667 4 16 4H8C6.53333 4 5.33333 5.2 5.33333 6.66667V28H18.6667V18H20.6667V24.6667C20.6667 26.5067 22.16 28 24 28C25.84 28 27.3333 26.5067 27.3333 24.6667V12C27.3333 11.08 26.96 10.24 26.36 9.64ZM16 14.6667V25.3333H8V6.66667H16V14.6667ZM24 13.3333C23.2667 13.3333 22.6667 12.7333 22.6667 12C22.6667 11.2667 23.2667 10.6667 24 10.6667C24.7333 10.6667 25.3333 11.2667 25.3333 12C25.3333 12.7333 24.7333 13.3333 24 13.3333ZM13.3333 8L8 18H10.6667V24L16 14.6667H13.3333V8Z" fill="#2A2238"/>
</svg>
