<svg width="29" height="29" viewBox="0 0 29 29" fill="none" xmlns="http://www.w3.org/2000/svg">
<path fill-rule="evenodd" clip-rule="evenodd" d="M4.64051 3.42814C5.11941 0.533277 8.64581 -0.60525 10.7056 1.46996L14.25 5.04084L17.7944 1.46996C19.8542 -0.60525 23.3806 0.533277 23.8595 3.42814L24.1937 5.44845H24.6686C26.6466 5.44845 28.25 7.06388 28.25 9.05662V12.9928C28.25 13.9088 27.7177 14.6994 26.9477 15.068V24.8014C26.9477 26.7941 25.3442 28.4095 23.3663 28.4095H5.13372C3.15577 28.4095 1.55233 26.7941 1.55233 24.8014V15.068C0.782343 14.6994 0.25 13.9088 0.25 12.9928V9.05662C0.25 7.06388 1.85345 5.44845 3.8314 5.44845H4.30629L4.64051 3.42814ZM6.28673 5.44845H11.8919L9.32429 2.86161C8.38801 1.91833 6.7851 2.43585 6.56742 3.75169L6.28673 5.44845ZM13.2733 7.41654V13.3208H2.52907C2.34926 13.3208 2.20349 13.174 2.20349 12.9928V9.05662C2.20349 8.15083 2.93233 7.41654 3.8314 7.41654H13.2733ZM15.2267 13.3208V7.41654H24.6686C25.5677 7.41654 26.2965 8.15083 26.2965 9.05662V12.9928C26.2965 13.174 26.1507 13.3208 25.9709 13.3208H15.2267ZM13.2733 15.2889H3.50581V24.8014C3.50581 25.7072 4.23465 26.4415 5.13372 26.4415H13.2733V15.2889ZM15.2267 26.4415V15.2889H24.9942V24.8014C24.9942 25.7072 24.2653 26.4415 23.3663 26.4415H15.2267ZM16.6081 5.44845H22.2133L21.9326 3.75169C21.7149 2.43585 20.112 1.91833 19.1757 2.86161L16.6081 5.44845Z" fill="#383B41"/>
</svg>
