<svg width="28" height="28" viewBox="0 0 28 28" fill="none" xmlns="http://www.w3.org/2000/svg">
<path d="M13.9883 2.33333C7.54833 2.33333 2.33333 7.56 2.33333 14C2.33333 20.44 7.54833 25.6667 13.9883 25.6667C20.44 25.6667 25.6667 20.44 25.6667 14C25.6667 7.56 20.44 2.33333 13.9883 2.33333ZM22.0733 9.33333H18.6317C18.2583 7.875 17.7217 6.475 17.0217 5.18C19.1683 5.915 20.9533 7.40833 22.0733 9.33333ZM14 4.71333C14.9683 6.11333 15.7267 7.665 16.2283 9.33333H11.7717C12.2733 7.665 13.0317 6.11333 14 4.71333ZM4.97 16.3333C4.78333 15.5867 4.66667 14.805 4.66667 14C4.66667 13.195 4.78333 12.4133 4.97 11.6667H8.91333C8.82 12.4367 8.75 13.2067 8.75 14C8.75 14.7933 8.82 15.5633 8.91333 16.3333H4.97ZM5.92667 18.6667H9.36833C9.74167 20.125 10.2783 21.525 10.9783 22.82C8.83167 22.085 7.04667 20.6033 5.92667 18.6667ZM9.36833 9.33333H5.92667C7.04667 7.39667 8.83167 5.915 10.9783 5.18C10.2783 6.475 9.74167 7.875 9.36833 9.33333ZM14 23.2867C13.0317 21.8867 12.2733 20.335 11.7717 18.6667H16.2283C15.7267 20.335 14.9683 21.8867 14 23.2867ZM16.73 16.3333H11.27C11.165 15.5633 11.0833 14.7933 11.0833 14C11.0833 13.2067 11.165 12.425 11.27 11.6667H16.73C16.835 12.425 16.9167 13.2067 16.9167 14C16.9167 14.7933 16.835 15.5633 16.73 16.3333ZM17.0217 22.82C17.7217 21.525 18.2583 20.125 18.6317 18.6667H22.0733C20.9533 20.5917 19.1683 22.085 17.0217 22.82ZM19.0867 16.3333C19.18 15.5633 19.25 14.7933 19.25 14C19.25 13.2067 19.18 12.4367 19.0867 11.6667H23.03C23.2167 12.4133 23.3333 13.195 23.3333 14C23.3333 14.805 23.2167 15.5867 23.03 16.3333H19.0867Z" fill="#2A2238"/>
</svg>
