<svg width="28" height="28" viewBox="0 0 28 28" fill="none" xmlns="http://www.w3.org/2000/svg">
<path d="M14 28C6.26801 28 0 21.732 0 14C0 6.26801 6.26801 0 14 0C21.732 0 28 6.26801 28 14C27.9915 21.7285 21.7285 27.9915 14 28ZM14 2.8C7.81441 2.8 2.8 7.81441 2.8 14C2.8 20.1856 7.81441 25.2 14 25.2C20.1856 25.2 25.2 20.1856 25.2 14C25.1931 7.81729 20.1827 2.80694 14 2.8ZM14 22.4C11.788 22.4374 9.69724 21.392 8.4 19.6C7.77011 18.7576 7.29597 17.8093 7 16.8H21C21 16.8 21 16.8 21 16.8112C20.6995 17.8153 20.2257 18.7591 19.6 19.6C18.3026 21.3918 16.2119 22.4372 14 22.4ZM9.1 14C7.9402 14 7 13.0598 7 11.9C7 10.7402 7.9402 9.8 9.1 9.8C10.2598 9.8 11.2 10.7402 11.2 11.9C11.2 13.0598 10.2598 14 9.1 14ZM18.8902 13.9804C17.7358 13.9804 16.8 13.0446 16.8 11.8902C16.8 10.7358 17.7358 9.8 18.8902 9.8C20.0446 9.8 20.9804 10.7358 20.9804 11.8902C20.9789 13.0439 20.0439 13.9789 18.8902 13.9804Z" fill="#2A2238"/>
</svg>
