<svg width="26" height="28" viewBox="0 0 26 28" fill="none" xmlns="http://www.w3.org/2000/svg">
<path d="M12.92 0C5.78707 0 0 5.93511 0 13.2632V23.5789C0 26.0216 1.92454 28 4.30666 28H4.61331C6.82245 28 8.61331 26.2091 8.61331 24V20.15C8.61331 17.9408 6.82245 16.15 4.61331 16.15H2.87335V13.2632C2.87335 7.56357 7.36842 2.94737 12.92 2.94737C18.4715 2.94737 22.9666 7.55684 22.9666 13.2632V16.15H21.2266C19.0175 16.15 17.2266 17.9408 17.2266 20.15V23.9933C17.2266 26.2024 19.0175 27.9933 21.2266 27.9933H21.5333C23.9154 27.9933 25.8399 26.0216 25.8399 23.5722V13.2632C25.8399 5.93511 20.0529 0 12.92 0Z" fill="#2A2238"/>
</svg>
