<svg width="23" height="28" viewBox="0 0 23 28" fill="none" xmlns="http://www.w3.org/2000/svg">
<path d="M11.2 1.86667C8.72465 1.86667 6.35068 2.85 4.60034 4.60034C2.85 6.35068 1.86667 8.72465 1.86667 11.2V13.0667H3.73333C4.2284 13.0667 4.7032 13.2633 5.05327 13.6134C5.40333 13.9635 5.6 14.4383 5.6 14.9333V20.5333C5.6 21.0284 5.40333 21.5032 5.05327 21.8533C4.7032 22.2033 4.2284 22.4 3.73333 22.4H1.86667C1.3716 22.4 0.896802 22.2033 0.546734 21.8533C0.196666 21.5032 0 21.0284 0 20.5333V11.2C-2.19167e-08 9.7292 0.289696 8.27279 0.852549 6.91395C1.4154 5.5551 2.24039 4.32042 3.2804 3.2804C4.32042 2.24039 5.5551 1.4154 6.91395 0.852549C8.27279 0.289697 9.7292 0 11.2 0C12.6708 0 14.1272 0.289697 15.4861 0.852549C16.8449 1.4154 18.0796 2.24039 19.1196 3.2804C20.1596 4.32042 20.9846 5.5551 21.5475 6.91395C22.1103 8.27279 22.4 9.7292 22.4 11.2V22.4C22.4 23.6377 21.9083 24.8247 21.0332 25.6998C20.158 26.575 18.971 27.0667 17.7333 27.0667H13.7499C13.586 27.3504 13.3504 27.5861 13.0666 27.7499C12.7829 27.9137 12.461 28 12.1333 28H10.2667C9.7716 28 9.2968 27.8033 8.94673 27.4533C8.59667 27.1032 8.4 26.6284 8.4 26.1333C8.4 25.6383 8.59667 25.1635 8.94673 24.8134C9.2968 24.4633 9.7716 24.2667 10.2667 24.2667H12.1333C12.461 24.2667 12.7829 24.3529 13.0666 24.5168C13.3504 24.6806 13.586 24.9162 13.7499 25.2H17.7333C18.4759 25.2 19.1881 24.905 19.7132 24.3799C20.2383 23.8548 20.5333 23.1426 20.5333 22.4H18.6667C18.1716 22.4 17.6968 22.2033 17.3467 21.8533C16.9967 21.5032 16.8 21.0284 16.8 20.5333V14.9333C16.8 14.4383 16.9967 13.9635 17.3467 13.6134C17.6968 13.2633 18.1716 13.0667 18.6667 13.0667H20.5333V11.2C20.5333 9.97433 20.2919 8.76066 19.8229 7.62829C19.3538 6.49592 18.6663 5.46702 17.7997 4.60034C16.933 3.73366 15.9041 3.04617 14.7717 2.57712C13.6393 2.10808 12.4257 1.86667 11.2 1.86667V1.86667Z" fill="#2A2238"/>
</svg>
