<svg width="24" height="22" viewBox="0 0 24 22" fill="none" xmlns="http://www.w3.org/2000/svg">
<path d="M17.25 0.0625H17.1953C15.0242 0.0625 13.1047 1.21094 12 2.90625C10.8953 1.21094 8.97578 0.0625 6.80469 0.0625H6.75C3.36484 0.0953125 0.625 2.84609 0.625 6.24219C0.625 8.26562 1.51094 11.1367 3.23906 13.4992C6.53125 18 12 21.9375 12 21.9375C12 21.9375 17.4688 18 20.7609 13.4992C22.4891 11.1367 23.375 8.26562 23.375 6.24219C23.375 2.84609 20.6352 0.0953125 17.25 0.0625ZM19.525 12.5969C17.1953 15.7852 13.6461 18.7273 12 20.0125C10.3539 18.7273 6.80469 15.7797 4.475 12.5914C2.87266 10.4039 2.15625 7.82812 2.15625 6.24219C2.15625 5.00625 2.6375 3.84687 3.50156 2.97187C4.37109 2.09687 5.525 1.61016 6.76094 1.59922H6.81016C7.59219 1.59922 8.36875 1.80156 9.05781 2.18984C9.725 2.56719 10.3047 3.10313 10.7203 3.74844C11.0047 4.18047 11.4859 4.44297 12.0055 4.44297C12.525 4.44297 13.0063 4.18047 13.2906 3.74844C13.7117 3.10313 14.2859 2.56719 14.9531 2.18984C15.6422 1.80156 16.4188 1.59922 17.2008 1.59922H17.25C18.4805 1.61016 19.6398 2.09687 20.5094 2.97187C21.3789 3.84687 21.8547 5.01172 21.8547 6.24219C21.8438 7.82812 21.1273 10.4039 19.525 12.5969Z" fill="#2A2238"/>
</svg>
