<svg width="24" height="22" viewBox="0 0 24 22" fill="none" xmlns="http://www.w3.org/2000/svg">
<path d="M17.1188 0.5C15.1281 0.5 13.2523 1.41328 12 2.90078C10.7477 1.41328 8.87187 0.5 6.88125 0.5C3.35391 0.5 0.625 3.24531 0.625 6.79453C0.625 11.1422 4.49141 14.6312 10.3484 20.0125L12 21.5L13.6516 20.0125C19.5086 14.6312 23.375 11.1422 23.375 6.79453C23.375 3.24531 20.6461 0.5 17.1188 0.5ZM12.7 18.5086L12.4703 18.7219L12 19.1484L11.5297 18.7219L11.3 18.5086C8.54375 15.9766 6.15938 13.7891 4.58984 11.8367C3.05859 9.93906 2.38047 8.38594 2.38047 6.79453C2.38047 5.54219 2.83984 4.39375 3.67656 3.55156C4.50781 2.70938 5.64531 2.25 6.88125 2.25C8.30859 2.25 9.725 2.91719 10.6602 4.02734L12 5.61875L13.3398 4.02734C14.275 2.91172 15.6914 2.25 17.1188 2.25C18.3547 2.25 19.4922 2.70938 20.3289 3.55156C21.1656 4.39375 21.625 5.54766 21.625 6.79453C21.625 8.38047 20.9414 9.93906 19.4156 11.8367C17.8406 13.7891 15.4617 15.9766 12.7 18.5086Z" fill="#2A2238"/>
</svg>
