<svg width="28" height="23" viewBox="0 0 28 23" fill="none" xmlns="http://www.w3.org/2000/svg">
<path d="M27.9485 10.1096C27.4024 4.21468 22.0676 0 16.1866 0C15.9206 0 15.6545 0.014002 15.3885 0.0280042C0 1.03617 0 18.483 0 18.483V19.6032C0 21.1434 1.2602 22.4036 2.80045 22.4036H16.8027C23.3418 22.4036 28.5786 16.7887 27.9485 10.1096ZM4.56474 10.5857C5.36287 8.77942 6.35703 7.29518 7.56122 6.11899L12.63 8.26133C13.4702 8.61139 14.0023 9.42352 14.0023 10.3337C14.0023 11.5799 12.9941 12.588 11.7479 12.588H3.80862C4.01865 11.9439 4.25669 11.2718 4.56474 10.5857ZM23.0197 16.8587C21.4235 18.609 19.1551 19.6032 16.8027 19.6032H2.80045V18.483C2.80045 18.455 2.81445 17.1948 3.13651 15.4025H11.7479C14.5344 15.4025 16.8027 13.1341 16.8027 10.3477C16.8027 8.31734 15.5845 6.48305 13.7222 5.69892L10.2217 4.21468C11.7619 3.41655 13.5402 2.95448 15.5705 2.82846C15.7806 2.80045 15.9906 2.80045 16.1866 2.80045C20.8214 2.80045 24.77 6.11899 25.1621 10.3757C25.3861 12.7841 24.63 15.0804 23.0197 16.8587Z" fill="#2A2238"/>
</svg>
