<svg width="32" height="32" viewBox="0 0 32 32" fill="none" xmlns="http://www.w3.org/2000/svg">
<path d="M22.6667 20H25.3333V22.6667H22.6667V20ZM22.6667 14.6667H25.3333V17.3333H22.6667V14.6667ZM22.6667 9.33333H25.3333V12H22.6667V9.33333ZM18.32 9.33333L20 10.4533V9.33333H18.32Z" fill="#2A2238"/>
<path d="M13.3333 4V6.01333L16 7.78667V6.66667H28V25.3333H22.6667V28H30.6667V4H13.3333Z" fill="#2A2238"/>
<path d="M10.8933 7.6L20 13.6667V28H1.33333V13.9733L10.8933 7.6ZM13.3333 25.3333H17.3333V14.88L10.8933 10.7867L4 15.1733V25.3333H8V17.3333H13.3333V25.3333Z" fill="#2A2238"/>
</svg>
