<svg width="29" height="24" viewBox="0 0 29 24" fill="none" xmlns="http://www.w3.org/2000/svg">
<path fill-rule="evenodd" clip-rule="evenodd" d="M0.25 3.5266C0.25 1.71698 1.71698 0.25 3.5266 0.25H24.9734C26.783 0.25 28.25 1.71698 28.25 3.5266V20.2074C28.25 22.0171 26.783 23.484 24.9734 23.484H3.5266C1.71698 23.484 0.25 22.0171 0.25 20.2074V3.5266ZM3.5266 2.03723C2.70404 2.03723 2.03723 2.70404 2.03723 3.5266V10.9011L5.62667 7.31169C6.44096 6.49741 7.76117 6.49741 8.57546 7.31169L15.4415 14.1777L17.5416 12.0776C18.3558 11.2634 19.6761 11.2634 20.4903 12.0776L26.4628 18.0501V3.5266C26.4628 2.70404 25.796 2.03723 24.9734 2.03723H3.5266ZM26.4254 20.5403L19.2266 13.3414C19.1103 13.2251 18.9217 13.2251 18.8053 13.3414L15.4415 16.7053L7.31169 8.57546C7.19536 8.45913 7.00676 8.45913 6.89044 8.57546L2.03723 13.4287V20.2074C2.03723 21.03 2.70404 21.6968 3.5266 21.6968H24.9734C25.6815 21.6968 26.2743 21.2026 26.4254 20.5403ZM21.3989 6.80319C21.2344 6.80319 21.1011 6.93655 21.1011 7.10106C21.1011 7.26557 21.2344 7.39894 21.3989 7.39894C21.5634 7.39894 21.6968 7.26557 21.6968 7.10106C21.6968 6.93655 21.5634 6.80319 21.3989 6.80319ZM19.3138 7.10106C19.3138 5.94949 20.2474 5.01596 21.3989 5.01596C22.5505 5.01596 23.484 5.94949 23.484 7.10106C23.484 8.25264 22.5505 9.18617 21.3989 9.18617C20.2474 9.18617 19.3138 8.25264 19.3138 7.10106Z" fill="#2A2238"/>
</svg>
