<svg width="29" height="29" viewBox="0 0 29 29" fill="none" xmlns="http://www.w3.org/2000/svg">
<path d="M13.4572 8.71899C13.4572 7.95168 14.0832 7.37957 14.837 7.37957C15.6043 7.37957 16.2303 7.95168 16.2303 8.71899C16.2303 9.4863 15.6043 10.0651 14.837 10.0651C14.0832 10.0651 13.4572 9.4863 13.4572 8.71899ZM13.5514 11.1219H16.1226V20.8209C15.1386 21.4671 14.5786 21.5457 13.5514 20.8209V11.1219Z" fill="#2A2238"/>
<path d="M14.8438 2.24399C18.0813 2.24399 21.1236 3.50264 23.412 5.79111C25.7005 8.07957 26.9591 11.1219 26.9591 14.3594C26.9591 17.5969 25.7005 20.6392 23.412 22.9276C21.1236 25.2161 18.0813 26.4748 14.8438 26.4748C11.6063 26.4748 8.56394 25.2161 6.27548 22.9276C3.98702 20.6392 2.72837 17.5969 2.72837 14.3594C2.72837 11.1219 3.98702 8.07957 6.27548 5.79111C8.56394 3.50264 11.6063 2.24399 14.8438 2.24399ZM14.8438 0.359375C7.1101 0.359375 0.84375 6.62572 0.84375 14.3594C0.84375 22.093 7.1101 28.3594 14.8438 28.3594C22.5774 28.3594 28.8438 22.093 28.8438 14.3594C28.8438 6.62572 22.5774 0.359375 14.8438 0.359375Z" fill="#2A2238"/>
</svg>
