<svg width="28" height="28" viewBox="0 0 28 28" fill="none" xmlns="http://www.w3.org/2000/svg">
<path d="M14 5.95V10.675L22.6333 19.3083C23.975 15.9483 23.3217 11.9817 20.5917 9.26333L14 2.64833L9.98667 6.66167L11.6317 8.30667L14 5.95ZM5.13333 5.09833L3.48833 6.74333L6.73167 9.98667C3.76833 13.65 3.99 19.0283 7.39667 22.4467C9.21667 24.2667 11.6083 25.1767 14 25.1767C16.0767 25.1767 18.1533 24.4883 19.8567 23.1117L23.0067 26.2617L24.6517 24.6167L5.13333 5.09833ZM14 22.855C12.1333 22.855 10.3717 22.1317 9.05333 20.8017C7.72333 19.4717 7 17.7217 7 15.855C7 14.315 7.50167 12.8683 8.41167 11.6667L14 17.255V22.855Z" fill="#2A2238"/>
</svg>
