<svg width="28" height="28" viewBox="0 0 28 28" fill="none" xmlns="http://www.w3.org/2000/svg">
<path d="M10.951 21.2962C11.4558 21.801 12.2837 21.801 12.7885 21.2962L19.2096 14.8548C19.701 14.3635 19.7144 13.5692 19.25 13.0644L12.9231 6.71731C12.6673 6.46154 12.3375 6.33366 12.001 6.33366C11.6712 6.33366 11.3346 6.46154 11.0856 6.71058C10.5808 7.21539 10.574 8.03654 11.0856 8.54808L16.4567 14L10.9442 19.4587C10.4394 19.9635 10.4394 20.7846 10.951 21.2962Z" fill="#2A2238"/>
<path d="M14 28C21.7337 28 28 21.7337 28 14C28 6.26634 21.7337 -1.43051e-06 14 -1.43051e-06C6.26634 -1.43051e-06 -1.43051e-06 6.26634 -1.43051e-06 14C-1.43051e-06 21.7337 6.26634 28 14 28ZM5.62692 5.62692C7.86154 3.38558 10.8365 2.15384 14 2.15384C17.1635 2.15384 20.1385 3.38558 22.3731 5.62692C24.6144 7.86154 25.8462 10.8365 25.8462 14C25.8462 17.1635 24.6144 20.1385 22.3731 22.3731C20.1385 24.6144 17.1635 25.8462 14 25.8462C10.8365 25.8462 7.86154 24.6144 5.62692 22.3731C3.38558 20.1385 2.15384 17.1635 2.15384 14C2.15384 10.8365 3.38558 7.86154 5.62692 5.62692Z" fill="#2A2238"/>
</svg>
