<svg width="28" height="28" viewBox="0 0 28 28" fill="none" xmlns="http://www.w3.org/2000/svg">
<path d="M28 14C28 6.26635 21.7337 0 14 0C6.26634 0 -1.43051e-06 6.26635 -1.43051e-06 14C-1.43051e-06 21.7337 6.26634 28 14 28C21.7337 28 28 21.7337 28 14ZM8.54134 16.9212C8.03654 17.426 7.20865 17.426 6.70385 16.9212C6.44808 16.6654 6.32692 16.3356 6.32692 16.0058C6.32692 15.676 6.45481 15.3394 6.71058 15.0837L13.0577 8.75673C13.5692 8.29231 14.3567 8.30577 14.8481 8.79712L21.2894 15.2183C21.7942 15.7231 21.801 16.5442 21.2894 17.0558C20.7846 17.5606 19.9635 17.5673 19.4519 17.0558L14 11.5433L8.54134 16.9212Z" fill="#2A2238"/>
</svg>
