<svg width="28" height="28" viewBox="0 0 28 28" fill="none" xmlns="http://www.w3.org/2000/svg">
<path d="M0 14C0 21.7337 6.26635 28 14 28C21.7337 28 28 21.7337 28 14C28 6.26634 21.7337 -1.43051e-06 14 -1.43051e-06C6.26635 -1.43051e-06 0 6.26634 0 14ZM19.4587 11.0788C19.9635 10.574 20.7913 10.574 21.2962 11.0788C21.5519 11.3346 21.6731 11.6644 21.6731 11.9942C21.6731 12.324 21.5452 12.6606 21.2894 12.9163L14.9423 19.2433C14.4308 19.7077 13.6433 19.6942 13.1519 19.2029L6.71058 12.7817C6.20577 12.2769 6.19904 11.4558 6.71058 10.9442C7.21538 10.4394 8.03654 10.4327 8.54808 10.9442L14 16.4567L19.4587 11.0788Z" fill="#2A2238"/>
</svg>
