<svg width="29" height="29" viewBox="0 0 29 29" fill="none" xmlns="http://www.w3.org/2000/svg">
<path d="M14.625 0.625C6.89135 0.625 0.625 6.89135 0.625 14.625C0.625 22.3587 6.89135 28.625 14.625 28.625C22.3587 28.625 28.625 22.3587 28.625 14.625C28.625 6.89135 22.3587 0.625 14.625 0.625ZM20.7163 15.7019H15.7019V20.7163C15.7019 21.3087 15.2173 21.7933 14.625 21.7933C14.3288 21.7933 14.0596 21.6721 13.8644 21.4769C13.6692 21.2817 13.5481 21.0125 13.5481 20.7163V15.7019H8.53365C8.2375 15.7019 7.96827 15.5808 7.77308 15.3856C7.57788 15.1904 7.45673 14.9212 7.45673 14.625C7.45673 14.0327 7.94135 13.5481 8.53365 13.5481H13.5481V8.53365C13.5481 7.94135 14.0327 7.45673 14.625 7.45673C15.2173 7.45673 15.7019 7.94135 15.7019 8.53365V13.5481H20.7163C21.3087 13.5481 21.7933 14.0327 21.7933 14.625C21.7933 15.2173 21.3087 15.7019 20.7163 15.7019Z" fill="#2A2238"/>
</svg>
