<svg width="28" height="28" viewBox="0 0 28 28" fill="none" xmlns="http://www.w3.org/2000/svg">
<path d="M14 28C21.7337 28 28 21.7337 28 14C28 6.26634 21.7337 -1.43051e-06 14 -1.43051e-06C6.26634 -1.43051e-06 -1.43051e-06 6.26634 -1.43051e-06 14C-1.43051e-06 21.7337 6.26634 28 14 28ZM11.0788 8.54134C10.574 8.03654 10.574 7.20865 11.0788 6.70385C11.3346 6.44808 11.6644 6.32692 11.9942 6.32692C12.324 6.32692 12.6606 6.45481 12.9163 6.71058L19.2433 13.0577C19.7077 13.5692 19.6942 14.3567 19.2029 14.8481L12.7817 21.2894C12.2769 21.7942 11.4558 21.801 10.9442 21.2894C10.4394 20.7846 10.4327 19.9635 10.9442 19.4519L16.4567 14L11.0788 8.54134Z" fill="#2A2238"/>
</svg>
