<svg width="28" height="28" viewBox="0 0 28 28" fill="none" xmlns="http://www.w3.org/2000/svg">
<path d="M14 0C6.26635 0 0 6.26635 0 14C0 21.7337 6.26635 28 14 28C21.7337 28 28 21.7337 28 14C28 6.26635 21.7337 0 14 0ZM16.9212 19.4587C17.426 19.9635 17.426 20.7913 16.9212 21.2962C16.6654 21.5519 16.3356 21.6731 16.0058 21.6731C15.676 21.6731 15.3394 21.5452 15.0837 21.2894L8.75673 14.9423C8.29231 14.4308 8.30577 13.6433 8.79712 13.1519L15.2183 6.71058C15.7231 6.20577 16.5442 6.19904 17.0558 6.71058C17.5606 7.21538 17.5673 8.03654 17.0558 8.54808L11.5433 14L16.9212 19.4587Z" fill="#2A2238"/>
</svg>
