<svg width="28" height="28" viewBox="0 0 28 28" fill="none" xmlns="http://www.w3.org/2000/svg">
<path d="M6.70384 10.951C6.19904 11.4558 6.19904 12.2837 6.70384 12.7885L13.1452 19.2096C13.6365 19.701 14.4308 19.7144 14.9356 19.25L21.2827 12.9231C21.5385 12.6673 21.6663 12.3375 21.6663 12.001C21.6663 11.6712 21.5385 11.3346 21.2894 11.0856C20.7846 10.5808 19.9635 10.574 19.4519 11.0856L14 16.4567L8.54134 10.9442C8.03654 10.4394 7.21538 10.4394 6.70384 10.951Z" fill="#2A2238"/>
<path d="M0 14C0 21.7337 6.26635 28 14 28C21.7337 28 28 21.7337 28 14C28 6.26634 21.7337 -1.43051e-06 14 -1.43051e-06C6.26635 -1.43051e-06 0 6.26634 0 14ZM22.3731 5.62692C24.6144 7.86154 25.8462 10.8365 25.8462 14C25.8462 17.1635 24.6144 20.1385 22.3731 22.3731C20.1385 24.6144 17.1635 25.8462 14 25.8462C10.8365 25.8462 7.86154 24.6144 5.62692 22.3731C3.38558 20.1385 2.15385 17.1635 2.15385 14C2.15385 10.8365 3.38558 7.86154 5.62692 5.62692C7.86154 3.38558 10.8365 2.15384 14 2.15384C17.1635 2.15384 20.1385 3.38558 22.3731 5.62692Z" fill="#2A2238"/>
</svg>
