<svg width="28" height="28" viewBox="0 0 28 28" fill="none" xmlns="http://www.w3.org/2000/svg">
<path d="M3.11111 28H24.8889C26.6 28 28 26.6 28 24.8889V3.11111C28 1.4 26.6 0 24.8889 0H3.11111C1.4 0 0 1.4 0 3.11111V24.8889C0 26.6 1.4 28 3.11111 28ZM5.30444 24.8889L24.8889 5.30444V24.8889H5.30444ZM22.6956 3.11111L3.11111 22.6956V3.11111H22.6956ZM23.3333 21.7778H15.5556V19.4444H23.3333V21.7778ZM7.77778 13.2222H10.1111V10.1111H13.2222V7.77778H10.1111V4.66667H7.77778V7.77778H4.66667V10.1111H7.77778V13.2222Z" fill="#2A2238"/>
</svg>
