<svg width="28" height="28" viewBox="0 0 28 28" fill="none" xmlns="http://www.w3.org/2000/svg">
<path fill-rule="evenodd" clip-rule="evenodd" d="M28 10.5C28 16.299 23.299 21 17.5 21C16.4392 21 15.4151 20.8427 14.4499 20.5501L10.5 24.5H7V28H0V21L7.44987 13.5501C7.15731 12.5849 7 11.5608 7 10.5C7 4.70101 11.701 0 17.5 0C23.299 0 28 4.70101 28 10.5ZM17.5 3.5C16.5335 3.5 15.75 4.2835 15.75 5.25C15.75 6.2165 16.5335 7 17.5 7C19.433 7 21 8.567 21 10.5C21 11.4665 21.7835 12.25 22.75 12.25C23.7165 12.25 24.5 11.4665 24.5 10.5C24.5 6.63401 21.366 3.5 17.5 3.5Z" fill="#2A2238"/>
</svg>
