<svg width="28" height="28" viewBox="0 0 28 28" fill="none" xmlns="http://www.w3.org/2000/svg">
<path d="M25.2 0H2.8C1.26 0 0.014 1.26 0.014 2.8L0 16.8C0 18.34 1.26 19.6 2.8 19.6H25.2C26.74 19.6 28 18.34 28 16.8V2.8C28 1.26 26.74 0 25.2 0ZM25.2 16.8H2.8V2.8H25.2V16.8ZM12.6 4.2H15.4V7H12.6V4.2ZM12.6 8.4H15.4V11.2H12.6V8.4ZM8.4 4.2H11.2V7H8.4V4.2ZM8.4 8.4H11.2V11.2H8.4V8.4ZM4.2 8.4H7V11.2H4.2V8.4ZM4.2 4.2H7V7H4.2V4.2ZM8.4 12.6H19.6V15.4H8.4V12.6ZM16.8 8.4H19.6V11.2H16.8V8.4ZM16.8 4.2H19.6V7H16.8V4.2ZM21 8.4H23.8V11.2H21V8.4ZM21 4.2H23.8V7H21V4.2ZM14 28L19.6 22.4H8.4L14 28Z" fill="#2A2238"/>
</svg>
