<svg width="30" height="30" viewBox="0 0 30 30" fill="none" xmlns="http://www.w3.org/2000/svg">
<path fill-rule="evenodd" clip-rule="evenodd" d="M0 1C0 0.447715 0.447715 0 1 0H29C29.5523 0 30 0.447715 30 1C30 1.55228 29.5523 2 29 2H1C0.447715 2 0 1.55228 0 1ZM15.3865 7.7304C15.2809 7.33449 14.7191 7.33448 14.6135 7.7304L12.1016 17.15H17.8984L15.3865 7.7304ZM18.4317 19.15L19.6338 23.6577C19.7761 24.1913 20.324 24.5085 20.8577 24.3662C21.3913 24.2239 21.7085 23.676 21.5662 23.1423L17.319 7.21507C16.6855 4.83959 13.3145 4.83959 12.681 7.21507L8.43377 23.1423C8.29146 23.676 8.6087 24.2239 9.14234 24.3662C9.67597 24.5085 10.2239 24.1913 10.3662 23.6577L11.5683 19.15H18.4317ZM0 29C0 28.4477 0.447715 28 1 28H29C29.5523 28 30 28.4477 30 29C30 29.5523 29.5523 30 29 30H1C0.447715 30 0 29.5523 0 29Z" fill="#2A2238"/>
</svg>
