<svg width="17" height="27" viewBox="0 0 17 27" fill="none" xmlns="http://www.w3.org/2000/svg">
<path fill-rule="evenodd" clip-rule="evenodd" d="M8.74946 26.6234C8.84659 26.4759 8.94593 26.324 9.04722 26.1679C9.14416 26.0186 9.24289 25.8656 9.34321 25.709C12.424 20.9004 17 12.782 17 8.5C17 3.80558 13.4706 0 8.5 0C3.52944 0 0 3.80558 0 8.5C0 12.7835 4.99569 20.9064 8.14939 25.7143C8.25136 25.8698 8.35141 26.0218 8.4493 26.1701C8.55181 26.3253 8.65195 26.4766 8.74946 26.6234ZM8.74142 24.7926C7.31788 22.61 5.57963 19.8334 4.10565 17.0695C3.21546 15.4003 2.43134 13.7536 1.87195 12.2579C1.30613 10.745 1 9.46325 1 8.5C1 4.33635 4.103 1 8.5 1C12.897 1 16 4.33635 16 8.5C16 9.47766 15.7159 10.7691 15.1938 12.2819C14.6769 13.7794 13.9507 15.4269 13.1212 17.0947C11.7498 19.8521 10.1177 22.6216 8.74142 24.7926ZM8.49997 12C10.7091 12 12.5 10.2091 12.5 8C12.5 5.79086 10.7091 4 8.49997 4C6.29083 4 4.49997 5.79086 4.49997 8C4.49997 10.2091 6.29083 12 8.49997 12ZM14.5 8C14.5 11.3137 11.8137 14 8.49997 14C5.18626 14 2.49997 11.3137 2.49997 8C2.49997 4.68629 5.18626 2 8.49997 2C11.8137 2 14.5 4.68629 14.5 8Z" fill="#2A2238"/>
</svg>
