<svg width="29" height="29" viewBox="0 0 29 29" fill="none" xmlns="http://www.w3.org/2000/svg">
<path fill-rule="evenodd" clip-rule="evenodd" d="M14.25 0.25C14.7435 0.25 15.1436 0.650086 15.1436 1.14362V2.66684C20.847 3.1007 25.3993 7.65296 25.8332 13.3564H27.3564C27.8499 13.3564 28.25 13.7565 28.25 14.25C28.25 14.7435 27.8499 15.1436 27.3564 15.1436H25.8332C25.3993 20.847 20.847 25.3993 15.1436 25.8332V27.3564C15.1436 27.8499 14.7435 28.25 14.25 28.25C13.7565 28.25 13.3564 27.8499 13.3564 27.3564V25.8332C7.65296 25.3993 3.1007 20.847 2.66684 15.1436H1.14362C0.650086 15.1436 0.25 14.7435 0.25 14.25C0.25 13.7565 0.650086 13.3564 1.14362 13.3564H2.66684C3.1007 7.65296 7.65296 3.1007 13.3564 2.66684V1.14362C13.3564 0.650086 13.7565 0.25 14.25 0.25ZM14.25 4.42021C8.82116 4.42021 4.42021 8.82116 4.42021 14.25C4.42021 19.6788 8.82116 24.0798 14.25 24.0798C19.6788 24.0798 24.0798 19.6788 24.0798 14.25C24.0798 8.82116 19.6788 4.42021 14.25 4.42021ZM14.25 10.3777C12.1114 10.3777 10.3777 12.1114 10.3777 14.25C10.3777 16.3886 12.1114 18.1223 14.25 18.1223C16.3886 18.1223 18.1223 16.3886 18.1223 14.25C18.1223 12.1114 16.3886 10.3777 14.25 10.3777ZM8.59043 14.25C8.59043 11.1243 11.1243 8.59043 14.25 8.59043C17.3757 8.59043 19.9096 11.1243 19.9096 14.25C19.9096 17.3757 17.3757 19.9096 14.25 19.9096C11.1243 19.9096 8.59043 17.3757 8.59043 14.25Z" fill="#2A2238"/>
</svg>
