<svg width="28" height="28" viewBox="0 0 28 28" fill="none" xmlns="http://www.w3.org/2000/svg">
<path d="M24.7644 4.68222C24.4533 3.76444 23.5822 3.11111 22.5556 3.11111H18.6667V0H9.33333V3.11111H5.44444C4.41778 3.11111 3.56222 3.76444 3.23556 4.68222L0 14V26.4444C0 27.3 0.7 28 1.55556 28H3.11111C3.96667 28 4.66667 27.3 4.66667 26.4444V24.8889H23.3333V26.4444C23.3333 27.3 24.0333 28 24.8889 28H26.4444C27.3 28 28 27.3 28 26.4444V14L24.7644 4.68222ZM5.98889 6.22222H21.9956L23.6133 10.8889H4.37111L5.98889 6.22222ZM24.8889 21.7778H3.11111V14.5289L3.29778 14H24.7178L24.8889 14.5289V21.7778Z" fill="#2A2238"/>
<path d="M7 20.2222C8.28866 20.2222 9.33333 19.1776 9.33333 17.8889C9.33333 16.6002 8.28866 15.5556 7 15.5556C5.71134 15.5556 4.66667 16.6002 4.66667 17.8889C4.66667 19.1776 5.71134 20.2222 7 20.2222Z" fill="#2A2238"/>
<path d="M21 20.2222C22.2887 20.2222 23.3333 19.1776 23.3333 17.8889C23.3333 16.6002 22.2887 15.5556 21 15.5556C19.7113 15.5556 18.6667 16.6002 18.6667 17.8889C18.6667 19.1776 19.7113 20.2222 21 20.2222Z" fill="#2A2238"/>
</svg>
