<svg width="17" height="27" viewBox="0 0 17 27" fill="none" xmlns="http://www.w3.org/2000/svg">
<path d="M8.5 12.3869C6.35332 12.3869 4.6131 10.6467 4.6131 8.5C4.6131 6.35332 6.35332 4.6131 8.5 4.6131C10.6467 4.6131 12.3869 6.35332 12.3869 8.5C12.3869 10.6467 10.6467 12.3869 8.5 12.3869Z" fill="#2A2238"/>
<path fill-rule="evenodd" clip-rule="evenodd" d="M8.74946 26.6234C5.67895 21.9986 0 13.0671 0 8.5C0 3.80558 3.52944 0 8.5 0C13.4706 0 17 3.80558 17 8.5C17 13.0671 11.7943 21.9986 8.74946 26.6234ZM8.5 14C11.5376 14 14 11.5376 14 8.5C14 5.46243 11.5376 3 8.5 3C5.46243 3 3 5.46243 3 8.5C3 11.5376 5.46243 14 8.5 14Z" fill="#2A2238"/>
</svg>
