<svg width="32" height="32" viewBox="0 0 32 32" fill="none" xmlns="http://www.w3.org/2000/svg">
<path d="M16 5.33333V1.33333L10.6667 6.66667L16 12V8C20.4133 8 24 11.5867 24 16C24 17.3467 23.6667 18.6267 23.0667 19.7333L25.0133 21.68C26.0533 20.04 26.6667 18.0933 26.6667 16C26.6667 10.1067 21.8933 5.33333 16 5.33333ZM16 24C11.5867 24 8 20.4133 8 16C8 14.6533 8.33333 13.3733 8.93333 12.2667L6.98667 10.32C5.94667 11.96 5.33333 13.9067 5.33333 16C5.33333 21.8933 10.1067 26.6667 16 26.6667V30.6667L21.3333 25.3333L16 20V24Z" fill="#2A2238"/>
</svg>
