<svg xmlns="http://www.w3.org/2000/svg" fill="none" viewBox="0 0 29 34">
  <circle cx="10.9282" cy="10.9282" r="7.5" stroke="#2A2238" transform="rotate(-30 10.9282 10.9282)"/>
  <path fill="#2A2238" fill-rule="evenodd" d="M13.9282 16.1244c2.8698-1.6569 3.853-5.3264 2.1962-8.19619-1.6569-2.86976-5.3264-3.85301-8.19619-2.19615C5.05845 7.38891 4.0752 11.0585 5.73206 13.9282c1.65685 2.8698 5.32644 3.853 8.19614 2.1962Zm-6.38073-6.1021c.24025-.89659.82684-1.66105 1.63074-2.12518l-.5-.86603c-1.03358.59674-1.78777 1.57962-2.09667 2.73243-.30889 1.15278-.14718 2.38108.44955 3.41468l.86603-.5c-.46413-.8039-.5899-1.7592-.34965-2.6559Z" clip-rule="evenodd"/>
  <path fill="#2A2238" d="m12.5621 15.7583 1.7320508-1 4 6.92820323-1.7320508 1z"/>
  <rect width="4" height="10" x="15.1962" y="22.3205" fill="#2A2238" rx="1.5" transform="rotate(-30 15.1962 22.3205)"/>
</svg>
