<svg width="29" height="21" viewBox="0 0 29 21" fill="none" xmlns="http://www.w3.org/2000/svg">
<path fill-rule="evenodd" clip-rule="evenodd" d="M19.9096 2.46924V16.0356C20.0239 16.0704 20.1367 16.1115 20.2475 16.159L26.0476 18.6447C26.2441 18.7289 26.4628 18.5848 26.4628 18.3709V5.47416C26.4628 5.35501 26.3918 5.24731 26.2822 5.20038L19.9096 2.46924ZM18.1223 16.002V2.40352L10.6937 5.18925C10.5897 5.22826 10.4842 5.2618 10.3777 5.28985V18.8884L17.8063 16.1026C17.9103 16.0636 18.0158 16.0301 18.1223 16.002ZM9.46492 20.8863C9.8803 20.8962 10.2976 20.8272 10.6937 20.6786L18.4338 17.7761C18.6143 17.7084 18.8044 17.677 18.9938 17.6817C19.1813 17.6864 19.3679 17.7264 19.5434 17.8017L25.3435 20.2874C26.7194 20.8771 28.25 19.8679 28.25 18.3709V5.47416C28.25 4.64006 27.7529 3.88622 26.9863 3.55765L20.2475 0.669592C19.8613 0.504076 19.4506 0.415926 19.0382 0.405675C18.6218 0.395326 18.2034 0.464354 17.8063 0.613287L10.0662 3.51581C9.88668 3.58313 9.69764 3.61453 9.5094 3.61025M9.46492 20.8863C9.46215 20.8862 9.45938 20.8862 9.45661 20.8861C9.04587 20.8752 8.63712 20.7871 8.25254 20.6223L1.51374 17.7342C0.747084 17.4057 0.25 16.6518 0.25 15.8177V2.92097C0.25 1.42404 1.78057 0.414787 3.15647 1.00446L8.95657 3.49021C9.13149 3.56518 9.31741 3.60523 9.50423 3.61012M8.59043 18.8227V5.25628C8.47614 5.22154 8.36334 5.18042 8.25254 5.13294L2.45244 2.64718C2.25589 2.56295 2.03723 2.70712 2.03723 2.92097V15.8177C2.03723 15.9369 2.10825 16.0446 2.21777 16.0915L8.59043 18.8227Z" fill="#2A2238"/>
</svg>
