<svg width="28" height="27" viewBox="0 0 28 27" fill="none" xmlns="http://www.w3.org/2000/svg">
<path d="M24.5 1.75C24.9641 1.75 25.4092 1.93437 25.7374 2.26256C26.0656 2.59075 26.25 3.03587 26.25 3.5V17.5C26.25 17.9641 26.0656 18.4092 25.7374 18.7374C25.4092 19.0656 24.9641 19.25 24.5 19.25H7.7245C6.79632 19.2502 5.90622 19.6191 5.25 20.2755L1.75 23.7755V3.5C1.75 3.03587 1.93437 2.59075 2.26256 2.26256C2.59075 1.93437 3.03587 1.75 3.5 1.75H24.5ZM3.5 0C2.57174 0 1.6815 0.368749 1.02513 1.02513C0.368749 1.6815 0 2.57174 0 3.5V25.8878C3.6776e-05 26.0609 0.051437 26.2301 0.147695 26.374C0.243953 26.5179 0.380742 26.6301 0.540749 26.6962C0.700755 26.7623 0.876787 26.7795 1.04656 26.7456C1.21634 26.7116 1.37223 26.6281 1.4945 26.5055L6.48725 21.5128C6.81536 21.1845 7.26041 21.0001 7.7245 21H24.5C25.4283 21 26.3185 20.6312 26.9749 19.9749C27.6312 19.3185 28 18.4283 28 17.5V3.5C28 2.57174 27.6312 1.6815 26.9749 1.02513C26.3185 0.368749 25.4283 0 24.5 0H3.5Z" fill="#2A2238"/>
<path d="M5.25 6.125C5.25 5.89294 5.34219 5.67038 5.50628 5.50628C5.67038 5.34219 5.89294 5.25 6.125 5.25H21.875C22.1071 5.25 22.3296 5.34219 22.4937 5.50628C22.6578 5.67038 22.75 5.89294 22.75 6.125C22.75 6.35706 22.6578 6.57962 22.4937 6.74372C22.3296 6.90781 22.1071 7 21.875 7H6.125C5.89294 7 5.67038 6.90781 5.50628 6.74372C5.34219 6.57962 5.25 6.35706 5.25 6.125ZM5.25 10.5C5.25 10.2679 5.34219 10.0454 5.50628 9.88128C5.67038 9.71719 5.89294 9.625 6.125 9.625H21.875C22.1071 9.625 22.3296 9.71719 22.4937 9.88128C22.6578 10.0454 22.75 10.2679 22.75 10.5C22.75 10.7321 22.6578 10.9546 22.4937 11.1187C22.3296 11.2828 22.1071 11.375 21.875 11.375H6.125C5.89294 11.375 5.67038 11.2828 5.50628 11.1187C5.34219 10.9546 5.25 10.7321 5.25 10.5ZM5.25 14.875C5.25 14.6429 5.34219 14.4204 5.50628 14.2563C5.67038 14.0922 5.89294 14 6.125 14H14.875C15.1071 14 15.3296 14.0922 15.4937 14.2563C15.6578 14.4204 15.75 14.6429 15.75 14.875C15.75 15.1071 15.6578 15.3296 15.4937 15.4937C15.3296 15.6578 15.1071 15.75 14.875 15.75H6.125C5.89294 15.75 5.67038 15.6578 5.50628 15.4937C5.34219 15.3296 5.25 15.1071 5.25 14.875Z" fill="#2A2238"/>
</svg>
