<svg width="32" height="32" viewBox="0 0 32 32" fill="none" xmlns="http://www.w3.org/2000/svg">
<path d="M16 18.6667C18.2133 18.6667 20 16.88 20 14.6667V6.66667C20 4.45333 18.2133 2.66667 16 2.66667C13.7867 2.66667 12 4.45333 12 6.66667V14.6667C12 16.88 13.7867 18.6667 16 18.6667Z" fill="#2A2238"/>
<path d="M22.6667 14.6667C22.6667 18.3467 19.68 21.3333 16 21.3333C12.32 21.3333 9.33333 18.3467 9.33333 14.6667H6.66667C6.66667 19.3733 10.1467 23.24 14.6667 23.8933V28H17.3333V23.8933C21.8533 23.24 25.3333 19.3733 25.3333 14.6667H22.6667Z" fill="#2A2238"/>
</svg>
