<svg width="32" height="32" viewBox="0 0 32 32" fill="none" xmlns="http://www.w3.org/2000/svg">
<path d="M14.4 6.53333C14.4 5.65333 15.12 4.93333 16 4.93333C16.88 4.93333 17.6 5.65333 17.6 6.53333L17.5867 11.7467L20 14.1333V6.66667C20 4.45333 18.2133 2.66667 16 2.66667C13.9467 2.66667 12.28 4.21333 12.0533 6.2L14.4 8.54667V6.53333ZM25.3333 14.6667H23.0667C23.0667 15.44 22.9333 16.1733 22.7067 16.8533L24.4 18.5467C24.9867 17.3733 25.3333 16.0533 25.3333 14.6667ZM5.88 3.81333L4 5.69333L12 13.6933V14.6667C12 16.88 13.7867 18.6667 16 18.6667C16.3067 18.6667 16.5867 18.6267 16.8667 18.56L19.08 20.7733C18.1333 21.2133 17.08 21.4667 16 21.4667C12.32 21.4667 8.93333 18.6667 8.93333 14.6667H6.66667C6.66667 19.2133 10.2933 22.9733 14.6667 23.6267V28H17.3333V23.6267C18.5467 23.4533 19.6933 23.0267 20.7333 22.4267L26.3333 28.0267L28.2133 26.1467L5.88 3.81333Z" fill="#2A2238"/>
</svg>
