<svg xmlns="http://www.w3.org/2000/svg" fill="none" viewBox="0 0 27 28">
  <path fill="#2A2238" d="M10.5004.485334c.1709.20758.2755.46162.3005.729296.0249.26767-.0309.53668-.1605.77227-1.01174 1.85765-1.54014 3.93993-1.53652 6.05525 0 7.03705 5.73672 12.73525 12.80702 12.73525.9223 0 1.8201-.0962 2.6829-.28.2645-.0573.54-.0353.7921.063.2521.0984.4696.2688.6254.49.1645.2301.2484.508.2386.7907-.0098.2826-.1128.5541-.2928.7722-1.3726 1.686-3.1042 3.0446-5.0685 3.9765-1.9643.9318-4.1118 1.4136-6.286 1.4102C6.53477 28 0 21.5002 0 13.4919 0 7.46462 3.69966 2.29491 8.96737.103818c.26241-.11089916.55371-.1336607.83015-.0648656.27648.0687946.52308.2254316.70288.4463816Z"/>
</svg>
