<svg width="32" height="23" viewBox="0 0 32 23" fill="none" xmlns="http://www.w3.org/2000/svg">
<path d="M27.2 3.2C27.2 1.44 25.76 0 24 0H19.2V3.2H24V7.44L18.432 14.4H12.8V6.4H6.4C2.864 6.4 0 9.264 0 12.8V17.6H3.2C3.2 20.256 5.344 22.4 8 22.4C10.656 22.4 12.8 20.256 12.8 17.6H19.968L27.2 8.56V3.2ZM3.2 14.4V12.8C3.2 11.04 4.64 9.6 6.4 9.6H9.6V14.4H3.2ZM8 19.2C7.12 19.2 6.4 18.48 6.4 17.6H9.6C9.6 18.48 8.88 19.2 8 19.2Z" fill="#2A2238"/>
<path d="M12.8 1.6H4.8V4.8H12.8V1.6Z" fill="#2A2238"/>
<path d="M27.2 12.8C24.544 12.8 22.4 14.944 22.4 17.6C22.4 20.256 24.544 22.4 27.2 22.4C29.856 22.4 32 20.256 32 17.6C32 14.944 29.856 12.8 27.2 12.8ZM27.2 19.2C26.32 19.2 25.6 18.48 25.6 17.6C25.6 16.72 26.32 16 27.2 16C28.08 16 28.8 16.72 28.8 17.6C28.8 18.48 28.08 19.2 27.2 19.2Z" fill="#2A2238"/>
</svg>
