<svg width="21" height="22" viewBox="0 0 21 22" fill="none" xmlns="http://www.w3.org/2000/svg">
<path d="M18.2236 21.052C18.8094 21.6378 19.7592 21.6378 20.3449 21.052C20.9307 20.4663 20.9307 19.5165 20.3449 18.9307L12.2132 10.799L20.3449 2.66725C20.9307 2.08151 20.9307 1.13172 20.3449 0.545933C19.7591 -0.039856 18.8094 -0.0398129 18.2236 0.545933L10.0919 8.67766L2.66726 1.25304C2.08147 0.667251 1.13169 0.667294 0.545941 1.25304C-0.039804 1.83878 -0.0398472 2.78857 0.545941 3.37436L7.97056 10.799L0.545941 18.2236C-0.039804 18.8093 -0.0398472 19.7591 0.545941 20.3449C1.13173 20.9307 2.08152 20.9307 2.66726 20.3449L10.0919 12.9203L18.2236 21.052Z" fill="#2A2238"/>
</svg>
