<svg width="28" height="28" viewBox="0 0 28 28" fill="none" xmlns="http://www.w3.org/2000/svg">
<path d="M14 8.90909C11.1873 8.90909 8.90909 11.1873 8.90909 14C8.90909 16.8127 11.1873 19.0909 14 19.0909C16.8127 19.0909 19.0909 16.8127 19.0909 14C19.0909 11.1873 16.8127 8.90909 14 8.90909ZM25.3782 12.7273C24.7927 7.42 20.58 3.20727 15.2727 2.62182V0H12.7273V2.62182C7.42 3.20727 3.20727 7.42 2.62182 12.7273H0V15.2727H2.62182C3.20727 20.58 7.42 24.7927 12.7273 25.3782V28H15.2727V25.3782C20.58 24.7927 24.7927 20.58 25.3782 15.2727H28V12.7273H25.3782ZM14 22.9091C9.07455 22.9091 5.09091 18.9255 5.09091 14C5.09091 9.07455 9.07455 5.09091 14 5.09091C18.9255 5.09091 22.9091 9.07455 22.9091 14C22.9091 18.9255 18.9255 22.9091 14 22.9091Z" fill="#2A2238"/>
</svg>
