<svg width="28" height="28" viewBox="0 0 28 28" fill="none" xmlns="http://www.w3.org/2000/svg">
<path d="M20.1164 15.7672V5.25575C20.1164 2.94322 23.0596 0 26.6861 0V21.2464L24.0582 18.6185V15.7672H20.1164ZM26.016 28L12.259 14.2562C11.8254 14.3745 11.3918 14.4533 10.9188 14.4533V26.2787H8.29094V14.4533C5.38714 14.4533 3.03519 12.1014 3.03519 9.19756V5.03238L0 1.98405L1.85265 0.131394L27.8686 26.1474L26.016 28ZM7.20038 9.19756L5.66307 7.66025V9.19756H7.20038ZM10.9188 0H8.29094V2.85124L10.9188 5.47912V0ZM16.1746 9.19756V0H13.5467V8.10699L15.9775 10.5378C16.0957 10.1042 16.1746 9.67058 16.1746 9.19756Z" fill="#2A2238"/>
</svg>
