<svg width="29" height="29" viewBox="0 0 29 29" fill="none" xmlns="http://www.w3.org/2000/svg">
<path d="M9.13841 23.1827H26.5575C26.028 22.8404 25.5711 22.2316 25.1762 21.4628C23.5823 18.3671 23.0156 12.6571 23.0156 11.1436C23.0156 10.6896 22.9802 10.2441 22.9094 9.809L21.2482 11.4222C21.2836 12.6399 21.5263 15.1268 22.0575 17.5794C22.3427 18.8985 22.7252 20.2727 23.2317 21.4628H10.9094L9.13841 23.1827ZM19.0221 6.1388C18.0622 5.25775 16.8669 4.65592 15.5723 4.40174L14.1608 4.1214L12.7494 4.3983C11.1481 4.71516 9.70871 5.5597 8.67501 6.78893C7.64131 8.01816 7.07678 9.55655 7.07701 11.1436C7.07701 12.2237 6.83971 14.9222 6.26414 17.5794C6.1756 17.9887 6.07819 18.4032 5.97017 18.8142L3.04277 21.6572C3.07819 21.5935 3.11361 21.5299 3.14726 21.4628C4.73758 18.3671 5.30606 12.6571 5.30606 11.1436C5.30606 6.98154 8.3521 3.50741 12.3987 2.71455C12.374 2.47541 12.4012 2.23389 12.4785 2.00557C12.5558 1.77726 12.6815 1.56721 12.8475 1.38898C13.0136 1.21074 13.2162 1.06828 13.4424 0.970784C13.6686 0.873285 13.9134 0.822911 14.1608 0.822911C14.4083 0.822911 14.6531 0.873285 14.8793 0.970784C15.1055 1.06828 15.3081 1.21074 15.4741 1.38898C15.6402 1.56721 15.7659 1.77726 15.8432 2.00557C15.9205 2.23389 15.9477 2.47541 15.9229 2.71455C17.5912 3.04132 19.0894 3.82386 20.2742 4.92286L19.0221 6.1388ZM17.7028 24.9025C17.7028 25.8148 17.3296 26.6897 16.6654 27.3348C16.0011 27.9799 15.1002 28.3423 14.1608 28.3423C13.2215 28.3423 12.3206 27.9799 11.6563 27.3348C10.9921 26.6897 10.6189 25.8148 10.6189 24.9025H17.7028ZM1.10003 25.9775C0.923901 26.1485 0.824951 26.3805 0.824951 26.6224C0.824951 26.8643 0.923901 27.0963 1.10003 27.2674C1.27617 27.4384 1.51505 27.5345 1.76414 27.5345C2.01323 27.5345 2.25212 27.4384 2.42825 27.2674L28.5499 1.89933C28.6371 1.81464 28.7063 1.71409 28.7535 1.60343C28.8007 1.49277 28.825 1.37416 28.825 1.25438C28.825 1.1346 28.8007 1.016 28.7535 0.905338C28.7063 0.794677 28.6371 0.694128 28.5499 0.609432C28.4627 0.524736 28.3591 0.457552 28.2452 0.411714C28.1312 0.365877 28.0091 0.342285 27.8858 0.342285C27.7624 0.342285 27.6403 0.365877 27.5263 0.411714C27.4124 0.457552 27.3089 0.524736 27.2216 0.609432L1.10003 25.9775Z" fill="#2A2238"/>
</svg>
