<svg width="30" height="31" viewBox="0 0 30 31" fill="none" xmlns="http://www.w3.org/2000/svg">
<path d="M18.35 25.773H19.1V25.023H18.35V25.773ZM11.3504 25.773V25.023H10.6004V25.773H11.3504ZM16.5913 3.1975L15.8451 3.1226L15.7772 3.79837L16.443 3.93269L16.5913 3.1975ZM13.109 3.1975L13.2585 3.93245L13.923 3.7973L13.8553 3.1226L13.109 3.1975ZM6.10064 11.7738L5.35064 11.7737V11.7738H6.10064ZM2.60083 24.0231L2.1848 23.3991L0.123748 24.7731H2.60083V24.0231ZM27.0995 24.0231V24.7731H29.5766L27.5155 23.3991L27.0995 24.0231ZM9.565 3.36193C9.89036 3.10558 9.94629 2.63401 9.68994 2.30866C9.43358 1.9833 8.96202 1.92737 8.63666 2.18372L9.565 3.36193ZM3.37947 10.0676C3.2661 10.466 3.49716 10.8808 3.89556 10.9942C4.29396 11.1076 4.70883 10.8765 4.82219 10.4781L3.37947 10.0676ZM21.065 1.68372C20.7396 1.42737 20.2681 1.4833 20.0117 1.80866C19.7554 2.13401 19.8113 2.60558 20.1367 2.86193L21.065 1.68372ZM24.8795 9.9781C24.9928 10.3765 25.4077 10.6076 25.8061 10.4942C26.2045 10.3808 26.4356 9.96595 26.3222 9.56756L24.8795 9.9781ZM14.8502 30.0228C15.9773 30.0228 17.0582 29.5751 17.8552 28.7781L16.7946 27.7174C16.2789 28.2331 15.5795 28.5228 14.8502 28.5228V30.0228ZM17.8552 28.7781C18.6522 27.9811 19.1 26.9001 19.1 25.773H17.6C17.6 26.5023 17.3103 27.2017 16.7946 27.7174L17.8552 28.7781ZM18.35 25.023H11.3504V26.523H18.35V25.023ZM10.6004 25.773C10.6004 26.9001 11.0481 27.9811 11.8451 28.7781L12.9058 27.7174C12.3901 27.2017 12.1004 26.5023 12.1004 25.773H10.6004ZM11.8451 28.7781C12.6421 29.5751 13.723 30.0228 14.8502 30.0228V28.5228C14.1209 28.5228 13.4214 28.2331 12.9058 27.7174L11.8451 28.7781ZM17.3376 3.27241C17.3725 2.92481 17.3341 2.57375 17.225 2.24188L15.8 2.71041C15.8437 2.84315 15.859 2.98356 15.8451 3.1226L17.3376 3.27241ZM17.225 2.24188C17.1159 1.91001 16.9384 1.6047 16.704 1.34563L15.5917 2.35193C15.6854 2.45555 15.7564 2.57767 15.8 2.71041L17.225 2.24188ZM16.704 1.34563C16.4697 1.08656 16.1836 0.879487 15.8643 0.737768L15.2558 2.1088C15.3835 2.16548 15.4979 2.24831 15.5917 2.35193L16.704 1.34563ZM15.8643 0.737768C15.545 0.596048 15.1995 0.522827 14.8502 0.522827V2.02283C14.9899 2.02283 15.1281 2.05211 15.2558 2.1088L15.8643 0.737768ZM14.8502 0.522827C14.5008 0.522827 14.1553 0.596048 13.836 0.737768L14.4445 2.1088C14.5722 2.05211 14.7104 2.02283 14.8502 2.02283V0.522827ZM13.836 0.737768C13.5167 0.879487 13.2307 1.08656 12.9963 1.34563L14.1087 2.35193C14.2024 2.24831 14.3168 2.16548 14.4445 2.1088L13.836 0.737768ZM12.9963 1.34563C12.7619 1.6047 12.5845 1.91001 12.4753 2.24188L13.9003 2.71041C13.9439 2.57767 14.0149 2.45555 14.1087 2.35193L12.9963 1.34563ZM12.4753 2.24188C12.3662 2.57375 12.3279 2.92481 12.3628 3.27241L13.8553 3.1226C13.8413 2.98357 13.8566 2.84315 13.9003 2.71041L12.4753 2.24188ZM12.9595 2.46255C10.8122 2.89933 8.88173 4.06481 7.49512 5.76163L8.65662 6.71079C9.82437 5.2818 11.4501 4.30029 13.2585 3.93245L12.9595 2.46255ZM7.49512 5.76163C6.1085 7.45846 5.35092 9.58236 5.35064 11.7737L6.85064 11.7739C6.85087 9.92844 7.48888 8.13979 8.65662 6.71079L7.49512 5.76163ZM5.35064 11.7738C5.35064 12.6752 5.13892 15.248 4.60107 17.8086C4.33268 19.0863 3.98889 20.3322 3.56296 21.3521C3.12546 22.3997 2.64947 23.0893 2.1848 23.3991L3.01686 24.6472C3.86462 24.082 4.48232 23.0431 4.94711 21.9301C5.42348 20.7894 5.79058 19.4426 6.06904 18.1169C6.62488 15.4707 6.85064 12.7937 6.85064 11.7738H5.35064ZM2.60083 24.7731H27.0995V23.2731H2.60083V24.7731ZM27.5155 23.3991C27.0508 23.0893 26.5749 22.3997 26.1374 21.3521C25.7114 20.3322 25.3676 19.0863 25.0992 17.8086C24.5614 15.248 24.3497 12.6752 24.3497 11.7738H22.8497C22.8497 12.7937 23.0754 15.4707 23.6313 18.1169C23.9097 19.4426 24.2768 20.7894 24.7532 21.9301C25.218 23.0431 25.8357 24.082 26.6835 24.6472L27.5155 23.3991ZM24.3497 11.7738C24.3497 7.17522 21.0815 3.33829 16.7396 2.46232L16.443 3.93269C20.0982 4.67013 22.8497 7.90281 22.8497 11.7738H24.3497ZM8.63666 2.18372C6.84438 3.5959 5.763 4.65797 5.01146 5.85579C4.26394 7.04722 3.87517 8.32558 3.37947 10.0676L4.82219 10.4781C5.32435 8.71343 5.66457 7.63721 6.28208 6.653C6.89557 5.6752 7.81526 4.74059 9.565 3.36193L8.63666 2.18372ZM20.1367 2.86193C21.8864 4.24059 22.8061 5.1752 23.4196 6.153C24.0371 7.13721 24.3773 8.21343 24.8795 9.9781L26.3222 9.56756C25.8265 7.82558 25.4377 6.54722 24.6902 5.35579C23.9387 4.15797 22.8573 3.0959 21.065 1.68372L20.1367 2.86193Z" fill="#2A2238"/>
</svg>
