<svg width="23" height="30" viewBox="0 0 23 30" fill="none" xmlns="http://www.w3.org/2000/svg">
<path fill-rule="evenodd" clip-rule="evenodd" d="M0.25 3.54545C0.25 1.72542 1.72543 0.25 3.54545 0.25H6.09091C7.91094 0.25 9.38636 1.72543 9.38636 3.54545V26.4545C9.38636 28.2746 7.91094 29.75 6.09091 29.75H3.54545C1.72542 29.75 0.25 28.2746 0.25 26.4545V3.54545ZM3.54545 1.75C2.55385 1.75 1.75 2.55385 1.75 3.54545V26.4545C1.75 27.4461 2.55385 28.25 3.54545 28.25H6.09091C7.08251 28.25 7.88636 27.4461 7.88636 26.4545V3.54545C7.88636 2.55385 7.08251 1.75 6.09091 1.75H3.54545ZM12.9773 3.54545C12.9773 1.72542 14.4527 0.25 16.2727 0.25H18.8182C20.6382 0.25 22.1136 1.72543 22.1136 3.54545V26.4545C22.1136 28.2746 20.6382 29.75 18.8182 29.75H16.2727C14.4527 29.75 12.9773 28.2746 12.9773 26.4545V3.54545ZM16.2727 1.75C15.2811 1.75 14.4773 2.55385 14.4773 3.54545V26.4545C14.4773 27.4461 15.2811 28.25 16.2727 28.25H18.8182C19.8098 28.25 20.6136 27.4461 20.6136 26.4545V3.54545C20.6136 2.55385 19.8098 1.75 18.8182 1.75H16.2727Z" fill="#2A2238"/>
</svg>
