<svg width="24" height="24" viewBox="0 0 24 24" fill="none" xmlns="http://www.w3.org/2000/svg">
<path d="M11.3976 21.009H8.87357C8.74532 21.0163 8.62166 20.9602 8.54257 20.859C8.4624 20.7563 8.42968 20.6243 8.45257 20.496C8.49257 20.255 8.54257 19.937 8.60557 19.533C8.64057 19.311 8.67857 19.07 8.71957 18.806C8.84457 18.006 8.92957 17.469 8.98657 17.118C9.00924 16.9774 9.03623 16.8107 9.06757 16.618V16.598C9.1189 16.2787 9.18157 15.8907 9.25557 15.434L9.35557 14.815V14.81C9.42757 14.3654 9.48424 14.0117 9.52557 13.749C9.53016 13.641 9.57938 13.5398 9.66146 13.4694C9.74355 13.3991 9.85114 13.366 9.95857 13.378H11.4786C12.2078 13.3859 12.9357 13.3148 13.6496 13.166C14.7244 12.9515 15.7215 12.4509 16.5356 11.717C17.2489 11.0318 17.7843 10.1829 18.0956 9.24402C18.2475 8.80785 18.3652 8.36049 18.4476 7.90602C18.4546 7.86402 18.4626 7.84002 18.4726 7.83202C18.4785 7.82431 18.4878 7.81986 18.4976 7.82002H18.5076C18.5295 7.82924 18.5503 7.84098 18.5696 7.85502C19.0943 8.25248 19.4453 8.8371 19.5496 9.48702C19.6679 10.1669 19.6543 10.8632 19.5096 11.538C19.3202 12.8439 18.6597 14.0354 17.6526 14.888C16.54 15.681 15.192 16.0743 13.8276 16.004H13.3886C13.2252 16.0027 13.067 16.0618 12.9446 16.17C12.8176 16.2802 12.7331 16.4312 12.7056 16.597L12.6646 16.791L12.1116 20.269L12.0906 20.42C12.062 20.5876 11.9739 20.7392 11.8426 20.847C11.7189 20.9534 11.5607 21.011 11.3976 21.009ZM7.81957 19.009H4.85457C4.71308 19.012 4.57769 18.9515 4.48557 18.844C4.38955 18.7385 4.34717 18.5948 4.37057 18.454L6.70157 3.66402C6.73088 3.47427 6.82959 3.30215 6.97857 3.18102C7.12246 3.05694 7.30657 2.98941 7.49657 2.99099H13.5106C13.8403 3.00401 14.168 3.04787 14.4896 3.12202C14.8728 3.19455 15.2487 3.30165 15.6126 3.44202C16.2749 3.67622 16.8492 4.10842 17.2576 4.68002C17.6448 5.26349 17.8431 5.95198 17.8256 6.65202C17.8086 7.46388 17.6527 8.26683 17.3646 9.02602C16.9053 10.5007 15.7787 11.6732 14.3236 12.191C13.5068 12.4676 12.6509 12.6111 11.7886 12.616C11.7786 12.622 11.3486 12.623 10.8886 12.623L9.98857 12.616C9.39488 12.5554 8.86406 12.9865 8.80157 13.58C8.78857 13.634 8.48457 15.527 7.94657 18.909C7.94659 18.9411 7.93223 18.9715 7.90743 18.9918C7.88263 19.0122 7.85002 19.0203 7.81857 19.014L7.81957 19.009Z" fill="#2A2238"/>
</svg>
