<svg width="32" height="32" viewBox="0 0 32 32" fill="none" xmlns="http://www.w3.org/2000/svg">
<path d="M23.28 6.66667C23.2 7.85333 23 9.01333 22.68 10.12L24.28 11.72C24.8267 10.12 25.1733 8.42667 25.2933 6.66667H23.28ZM10.1333 22.6933C9 23.0133 7.84 23.2133 6.66667 23.2933V25.28C8.42667 25.16 10.12 24.8133 11.7333 24.28L10.1333 22.6933ZM22 4H26.6667C27.4 4 28 4.6 28 5.33333C28 17.8533 17.8533 28 5.33333 28C4.6 28 4 27.4 4 26.6667V22.0133C4 21.28 4.6 20.68 5.33333 20.68C6.98667 20.68 8.6 20.4133 10.0933 19.92C10.2267 19.8667 10.3733 19.8533 10.5067 19.8533C10.8533 19.8533 11.1867 19.9867 11.4533 20.24L14.3867 23.1733C18.16 21.24 21.2533 18.16 23.1733 14.3867L20.24 11.4533C19.8667 11.08 19.76 10.56 19.9067 10.0933C20.4 8.6 20.6667 7 20.6667 5.33333C20.6667 4.6 21.2667 4 22 4Z" fill="#2A2238"/>
</svg>
