<svg width="32" height="32" viewBox="0 0 32 32" fill="none" xmlns="http://www.w3.org/2000/svg">
<path d="M30.6667 20H28V22.6667H30.6667V20ZM30.6667 14.6667H28V17.3333H30.6667V14.6667ZM30.6667 25.3333H28V28C29.3333 28 30.6667 26.6667 30.6667 25.3333ZM20 4H17.3333V6.66667H20V4ZM30.6667 9.33333H28V12H30.6667V9.33333ZM28 4V6.66667H30.6667C30.6667 5.33333 29.3333 4 28 4ZM4 28H14.6667V20H1.33333V25.3333C1.33333 26.8 2.53333 28 4 28ZM4 9.33333H1.33333V12H4V9.33333ZM20 25.3333H17.3333V28H20V25.3333ZM25.3333 4H22.6667V6.66667H25.3333V4ZM25.3333 25.3333H22.6667V28H25.3333V25.3333ZM4 4C2.66667 4 1.33333 5.33333 1.33333 6.66667H4V4ZM4 14.6667H1.33333V17.3333H4V14.6667ZM14.6667 4H12V6.66667H14.6667V4ZM9.33333 4H6.66667V6.66667H9.33333V4Z" fill="#2A2238"/>
</svg>
