<svg width="32" height="32" viewBox="0 0 32 32" fill="none" xmlns="http://www.w3.org/2000/svg">
<path d="M28 20H30.6667V22.6667H28V20ZM28 14.6667H30.6667V17.3333H28V14.6667ZM30.6667 25.3333H28V28C29.3333 28 30.6667 26.6667 30.6667 25.3333ZM17.3333 4H20V6.66667H17.3333V4ZM28 9.33333H30.6667V12H28V9.33333ZM28 4V6.66667H30.6667C30.6667 5.33333 29.3333 4 28 4ZM1.33333 9.33333H4V12H1.33333V9.33333ZM22.6667 4H25.3333V6.66667H22.6667V4ZM22.6667 25.3333H25.3333V28H22.6667V25.3333ZM4 4C2.66667 4 1.33333 5.33333 1.33333 6.66667H4V4ZM12 4H14.6667V6.66667H12V4ZM6.66667 4H9.33333V6.66667H6.66667V4ZM1.33333 14.6667V25.3333C1.33333 26.8 2.53333 28 4 28H20V14.6667H1.33333ZM4 25.3333L7.33333 21.0533L9.72 23.92L13.0533 19.6267L17.3333 25.3333H4Z" fill="#2A2238"/>
</svg>
