<svg width="24" height="24" viewBox="0 0 24 24" fill="none" xmlns="http://www.w3.org/2000/svg">
<path d="M5.39972 21C5.22916 21.0027 5.05958 20.9735 4.89972 20.914L12.9537 12.857L15.6197 15.526L6.36472 20.726C6.07156 20.8978 5.73945 20.9921 5.39972 21ZM4.23572 20.335C4.072 20.0385 3.99052 19.7036 3.99972 19.365V4.65998C3.99837 4.43676 4.03212 4.21472 4.09972 4.00198L12.3327 12.237L4.23272 20.337L4.23572 20.335ZM16.4147 15.077L13.5737 12.238L16.7067 9.10598L19.4897 10.669C20.0239 10.9081 20.3814 11.4238 20.4177 12.008C20.3816 12.5927 20.0236 13.109 19.4887 13.348L16.4147 15.077ZM12.9537 11.614L4.61372 3.27498C4.84271 3.10565 5.11994 3.01418 5.40472 3.01398C5.74107 3.02592 6.06919 3.12109 6.35972 3.29098L15.9107 8.65898L12.9547 11.614H12.9537Z" fill="#2A2238"/>
</svg>
