<svg width="22" height="24" viewBox="0 0 22 24" fill="none" xmlns="http://www.w3.org/2000/svg">
<path d="M16.0933 5.62667L14.76 6.16C14.48 5.94667 14.1867 5.77333 13.8667 5.64L13.6667 4.22667C13.64 4.09333 13.5333 4 13.4 4H11.2667C11.1333 4 11.0267 4.09333 11.0133 4.22667L10.8133 5.64C10.4933 5.77333 10.1867 5.94667 9.92 6.16L8.58667 5.62667C8.46667 5.58667 8.32 5.62667 8.26667 5.74667L7.2 7.58667C7.13333 7.70667 7.16 7.85333 7.26667 7.93333L8.4 8.81333C8.36 8.97333 8.33333 9.16 8.33333 9.33333C8.33333 9.50667 8.34667 9.68 8.37333 9.85333L7.25333 10.7333C7.14667 10.8133 7.12 10.96 7.18667 11.0667L8.25333 12.92C8.32 13.04 8.45333 13.08 8.58667 13.04L9.90667 12.5067C10.1867 12.72 10.48 12.8933 10.8133 13.0267L11 14.44C11.0267 14.5733 11.1333 14.6667 11.2667 14.6667H13.4C13.5333 14.6667 13.64 14.5733 13.6667 14.44L13.8667 13.0267C14.1867 12.8933 14.4933 12.72 14.76 12.5067L16.08 13.04C16.2 13.0933 16.3467 13.04 16.4 12.92L17.4667 11.0667C17.5333 10.9467 17.5067 10.8133 17.4 10.7333L16.2933 9.85333C16.32 9.68 16.3333 9.50667 16.3333 9.33333C16.3333 9.14667 16.32 8.97333 16.2933 8.81333L17.4267 7.93333C17.5333 7.85333 17.56 7.70667 17.4933 7.58667L16.4267 5.74667C16.36 5.62667 16.2133 5.58667 16.0933 5.62667ZM12.3333 11.24C11.28 11.24 10.4267 10.3867 10.4267 9.33333C10.4267 8.28 11.28 7.42667 12.3333 7.42667C13.3867 7.42667 14.24 8.28 14.24 9.33333C14.24 10.3867 13.3867 11.24 12.3333 11.24Z" fill="#2A2238"/>
<path d="M21.5867 8.08C21.0133 3.72 17.28 0.266667 12.88 0.0133333C12.6933 0 12.52 0 12.3333 0C7.62667 0 3.76 3.48 3.10667 8L0.533334 12.64C-0.0133328 13.52 0.626667 14.6667 1.66667 14.6667H3V17.3333C3 18.8 4.2 20 5.66667 20H7V24H16.3333V17.76C19.8267 16.0933 22.1333 12.32 21.5867 8.08ZM14.8533 15.5067L13.6667 16.0667V21.3333H9.66667V17.3333H5.66667V12H3.93333L5.70667 8.89333C5.94667 5.41333 8.8 2.66667 12.3333 2.66667C16.0133 2.66667 19 5.65333 19 9.33333C19 12.12 17.28 14.5067 14.8533 15.5067Z" fill="#2A2238"/>
</svg>
