<svg width="32" height="32" viewBox="0 0 32 32" fill="none" xmlns="http://www.w3.org/2000/svg">
<path d="M4 14.6667H14.6667V4H4V14.6667ZM6.66667 6.66667H12V12H6.66667V6.66667Z" fill="#2A2238"/>
<path d="M4 28H14.6667V17.3333H4V28ZM6.66667 20H12V25.3333H6.66667V20Z" fill="#2A2238"/>
<path d="M17.3333 4V14.6667H28V4H17.3333ZM25.3333 12H20V6.66667H25.3333V12Z" fill="#2A2238"/>
<path d="M28 25.3333H25.3333V28H28V25.3333Z" fill="#2A2238"/>
<path d="M20 17.3333H17.3333V20H20V17.3333Z" fill="#2A2238"/>
<path d="M22.6667 20H20V22.6667H22.6667V20Z" fill="#2A2238"/>
<path d="M20 22.6667H17.3333V25.3333H20V22.6667Z" fill="#2A2238"/>
<path d="M22.6667 25.3333H20V28H22.6667V25.3333Z" fill="#2A2238"/>
<path d="M25.3333 22.6667H22.6667V25.3333H25.3333V22.6667Z" fill="#2A2238"/>
<path d="M25.3333 17.3333H22.6667V20H25.3333V17.3333Z" fill="#2A2238"/>
<path d="M28 20H25.3333V22.6667H28V20Z" fill="#2A2238"/>
</svg>
