<svg width="32" height="32" viewBox="0 0 32 32" fill="none" xmlns="http://www.w3.org/2000/svg">
<path d="M26 4.66667L24 2.66667L22 4.66667L20 2.66667L18 4.66667L16 2.66667L14 4.66667L12 2.66667L10 4.66667L8 2.66667V21.3333H4V25.3333C4 27.5467 5.78667 29.3333 8 29.3333H24C26.2133 29.3333 28 27.5467 28 25.3333V2.66667L26 4.66667ZM20 26.6667H8C7.26667 26.6667 6.66667 26.0667 6.66667 25.3333V24H20V26.6667ZM25.3333 25.3333C25.3333 26.0667 24.7333 26.6667 24 26.6667C23.2667 26.6667 22.6667 26.0667 22.6667 25.3333V21.3333H10.6667V6.66667H25.3333V25.3333Z" fill="#2A2238"/>
<path d="M20 9.33333H12V12H20V9.33333Z" fill="#2A2238"/>
<path d="M24 9.33333H21.3333V12H24V9.33333Z" fill="#2A2238"/>
<path d="M20 13.3333H12V16H20V13.3333Z" fill="#2A2238"/>
<path d="M24 13.3333H21.3333V16H24V13.3333Z" fill="#2A2238"/>
</svg>
