<svg width="28" height="28" viewBox="0 0 28 28" fill="none" xmlns="http://www.w3.org/2000/svg">
<path d="M20.2222 1.86667C22.5556 1.86667 24.8889 2.8 26.7556 4.51111L28 3.26667C25.8222 1.08889 23.0222 0 20.2222 0C17.4222 0 14.6222 1.08889 12.4444 3.26667L13.6889 4.51111C15.5556 2.8 17.8889 1.86667 20.2222 1.86667ZM15.0889 5.75556L16.3333 7C17.4222 5.91111 18.8222 5.44444 20.2222 5.44444C21.6222 5.44444 23.0222 5.91111 24.1111 7L25.3556 5.75556C23.9556 4.35556 22.0889 3.57778 20.2222 3.57778C18.3556 3.57778 16.4889 4.35556 15.0889 5.75556ZM24.8889 15.5556H21.7778V9.33333H18.6667V15.5556H3.11111C1.4 15.5556 0 16.9556 0 18.6667V24.8889C0 26.6 1.4 28 3.11111 28H24.8889C26.6 28 28 26.6 28 24.8889V18.6667C28 16.9556 26.6 15.5556 24.8889 15.5556ZM24.8889 24.8889H3.11111V18.6667H24.8889V24.8889ZM4.66667 20.2222H7.77778V23.3333H4.66667V20.2222ZM10.1111 20.2222H13.2222V23.3333H10.1111V20.2222ZM15.5556 20.2222H18.6667V23.3333H15.5556V20.2222Z" fill="#2A2238"/>
</svg>
