<svg width="28" height="28" viewBox="0 0 28 28" fill="none" xmlns="http://www.w3.org/2000/svg">
<path d="M26.9249 1.07333C26.4271 0.56 23.9071 0 20.6249 0C15.9116 0 9.596 1.16667 5.38044 5.38222C-1.75956 12.5222 -0.157335 25.6978 1.07155 26.9267C1.56933 27.44 4.08933 28 7.37155 28C12.0849 28 18.4004 26.8333 22.616 22.6178C29.756 15.4778 28.1538 2.30222 26.9249 1.07333ZM7.37155 24.8889C5.59822 24.8889 4.22933 24.7022 3.436 24.5311C3.156 23.3022 2.96933 21.0933 3.17155 18.5733L9.40933 24.8111C8.60044 24.8733 7.90044 24.8889 7.37155 24.8889ZM20.4227 20.4244C18.3538 22.4933 15.6627 23.6133 13.1738 24.22L3.77822 14.8244C4.43155 12.2111 5.58267 9.58222 7.58933 7.59111C9.64266 5.53778 12.3338 4.41778 14.8071 3.81111L24.2182 13.2222C23.5649 15.82 22.3982 18.4333 20.4227 20.4244ZM24.8249 9.47333L18.556 3.20444C19.3649 3.12667 20.0804 3.11111 20.6249 3.11111C22.3982 3.11111 23.7671 3.29778 24.5604 3.46889C24.8404 4.69778 25.0271 6.92222 24.8249 9.47333Z" fill="#2A2238"/>
<path d="M17.2647 8.55549L8.55324 17.267L10.7311 19.4448L19.4426 10.7334L17.2647 8.55549Z" fill="#2A2238"/>
</svg>
