<svg width="23" height="25" viewBox="0 0 23 25" fill="none" xmlns="http://www.w3.org/2000/svg">
<path d="M12 12C12.6895 12 15.2131 8.12122 14.9856 6.90909C14.7579 5.69696 9.24207 5.69696 9.01453 6.90909C8.78687 8.12122 11.3105 12 12 12Z" fill="#2A2238"/>
<path fill-rule="evenodd" clip-rule="evenodd" d="M0.25 1C0.25 0.585785 0.585815 0.25 1 0.25H22C22.4142 0.25 22.75 0.585785 22.75 1C22.75 1.41422 22.4142 1.75 22 1.75H21.1399C20.5856 4.79575 19.083 7.37366 14.9717 12.4901C18.9493 17.2458 20.8367 20.3346 21.1923 23.25H22C22.4142 23.25 22.75 23.5858 22.75 24C22.75 24.4142 22.4142 24.75 22 24.75H1C0.585815 24.75 0.25 24.4142 0.25 24C0.25 23.5858 0.585815 23.25 1 23.25H2.30774C2.66333 20.3346 4.55066 17.2458 8.52832 12.4901C4.41699 7.37366 2.91443 4.79575 2.36011 1.75H1C0.585815 1.75 0.25 1.41422 0.25 1ZM3.88745 1.75C4.42505 4.37833 5.84192 6.79276 10.0828 12.0279L10.4735 12.5103L10.0726 12.9843C5.90015 17.9184 4.18433 20.7856 3.82092 23.25H5.85522C5.05237 23.0453 10.191 18.7576 11.4249 18.7576C12.6587 18.7576 18.0856 23.0453 17.676 23.25H19.6791C19.3157 20.7856 17.5999 17.9184 13.4274 12.9843L13.0265 12.5103L13.4172 12.0279C17.6581 6.79276 19.075 4.37833 19.6125 1.75H3.88745Z" fill="#2A2238"/>
</svg>
