<svg width="27" height="28" viewBox="0 0 27 28" fill="none" xmlns="http://www.w3.org/2000/svg">
<path fill-rule="evenodd" clip-rule="evenodd" d="M6.22222 3.11111C4.504 3.11111 3.11111 4.504 3.11111 6.22222C3.11111 7.94044 4.504 9.33333 6.22222 9.33333C7.08176 9.33333 7.85741 8.98681 8.42211 8.42211C8.98681 7.85741 9.33333 7.08176 9.33333 6.22222C9.33333 4.504 7.94044 3.11111 6.22222 3.11111ZM0 6.22222C0 2.78578 2.78578 0 6.22222 0C9.65866 0 12.4444 2.78578 12.4444 6.22222C12.4444 7.37549 12.1298 8.45659 11.5827 9.38283L14 11.8001L23.7889 2.01117C24.3964 1.40368 25.3814 1.40368 25.9888 2.01117C26.5963 2.61865 26.5963 3.60357 25.9888 4.21106L11.5827 18.6172C12.1298 19.5434 12.4444 20.6245 12.4444 21.7778C12.4444 25.2142 9.65866 28 6.22222 28C2.78578 28 0 25.2142 0 21.7778C0 18.3413 2.78578 15.5556 6.22222 15.5556C7.37549 15.5556 8.45659 15.8702 9.38283 16.4173L11.8001 14L9.38283 11.5827C8.45659 12.1298 7.37549 12.4444 6.22222 12.4444C2.78578 12.4444 0 9.65866 0 6.22222ZM6.22222 18.6667C4.504 18.6667 3.11111 20.0596 3.11111 21.7778C3.11111 23.496 4.504 24.8889 6.22222 24.8889C7.94044 24.8889 9.33333 23.496 9.33333 21.7778C9.33333 20.9182 8.98681 20.1426 8.42211 19.5779C7.85741 19.0132 7.08176 18.6667 6.22222 18.6667ZM16.1999 16.1999C16.8074 15.5924 17.7923 15.5924 18.3998 16.1999L25.9888 23.7889C26.5963 24.3964 26.5963 25.3814 25.9888 25.9888C25.3814 26.5963 24.3964 26.5963 23.7889 25.9888L16.1999 18.3998C15.5924 17.7923 15.5924 16.8074 16.1999 16.1999Z" fill="#2A2238"/>
</svg>
