<svg xmlns="http://www.w3.org/2000/svg" fill="none" viewBox="0 0 29 28">
  <path fill="#2A2238" d="M20.5522 18.1006c1.6947-2.3125 2.4537-5.1797 2.1252-8.0278-.3284-2.84813-1.7202-5.46722-3.8968-7.33328C16.604.87346 13.8031-.101946 10.9382.00844302 8.07327.118832 5.3557 1.30688 3.32913 3.33489 1.30257 5.3629.116472 8.08133.00813227 10.9463-.100207 13.8113.877203 16.6115 2.74482 18.7868c1.86761 2.1752 4.4877 3.5651 7.33608 3.8916 2.8484.3264 5.715-.4347 8.0263-2.131h-.0018c.0525.07.1086.1365.1716.2012l6.7382 6.7382c.3281.3284.7733.513 1.2376.5132.4643.0002.9096-.1841 1.238-.5123.3284-.3282.513-.7733.5131-1.2376.0002-.4643-.1841-.9096-.5122-1.238l-6.7382-6.7382c-.0626-.0633-.1299-.1219-.2013-.175v.0017Zm.4515-6.7277c0 1.2641-.2489 2.5159-.7327 3.6837-.4837 1.1679-1.1928 2.2291-2.0866 3.1229-.8939.8939-1.9551 1.6029-3.1229 2.0867-1.1679.4837-2.4197.7327-3.6838.7327s-2.51578-.249-3.68366-.7327c-1.16788-.4838-2.22904-1.1928-3.1229-2.0867-.89386-.8938-1.6029-1.955-2.08665-3.1229-.48375-1.1678-.73274-2.4196-.73274-3.6837 0-2.55294 1.01417-5.00135 2.81939-6.80657C6.37636 2.7611 8.82477 1.74694 11.3777 1.74694c2.553 0 5.0014 1.01416 6.8067 2.81939 1.8052 1.80522 2.8193 4.25363 2.8193 6.80657Z"/>
</svg>
