<svg width="26" height="28" viewBox="0 0 26 28" fill="none" xmlns="http://www.w3.org/2000/svg">
<path d="M21.1203 19.8395C20.0607 19.8395 19.0715 20.1912 18.3651 20.8947L8.26421 15.0556C8.33493 14.7038 8.40566 14.4221 8.40566 14.0704C8.40566 13.7186 8.33493 13.4369 8.26421 13.0852L18.2244 7.31683C19.0011 8.02033 19.9903 8.44218 21.1203 8.44218C23.4511 8.44218 25.3584 6.54254 25.3584 4.22106C25.3584 1.8997 23.4511 0 21.1203 0C18.7893 0 16.882 1.8997 16.882 4.22112C16.882 4.5729 16.9524 4.85462 17.0235 5.20634L7.06364 10.9747C6.28658 10.2712 5.29773 9.84937 4.1675 9.84937C1.83664 9.84937 0 11.749 0 14.0705C0 16.3919 1.90697 18.2916 4.23816 18.2916C5.36839 18.2916 6.35724 17.8697 7.1343 17.1662L17.1648 23.0053C17.0938 23.2863 17.0234 23.568 17.0234 23.9197C17.0234 26.1712 18.8597 28 21.1202 28C23.3806 28 25.2169 26.1712 25.2169 23.9197C25.217 21.6683 23.3807 19.8395 21.1203 19.8395Z" fill="#2A2238"/>
</svg>
