<svg width="28" height="28" viewBox="0 0 28 28" fill="none" xmlns="http://www.w3.org/2000/svg">
<path fill-rule="evenodd" clip-rule="evenodd" d="M14 0C10.3517 3.19095 5.55515 5.15381 0.290688 5.2236C0.0995115 6.33653 0 7.47984 0 8.64585C0 17.5812 5.84366 25.1828 14 28C22.1563 25.1828 28 17.5812 28 8.64585C28 7.47983 27.9005 6.33653 27.7093 5.2236C22.4448 5.1538 17.6483 3.19095 14 0ZM15.75 20.6169C15.75 21.5614 14.9665 22.3271 14 22.3271C13.0335 22.3271 12.25 21.5614 12.25 20.6169C12.25 19.6724 13.0335 18.9068 14 18.9068C14.9665 18.9068 15.75 19.6724 15.75 20.6169ZM15.75 8.6458C15.75 7.7013 14.9665 6.93564 14 6.93564C13.0335 6.93564 12.25 7.7013 12.25 8.6458V13.7763C12.25 14.7208 13.0335 15.4864 14 15.4864C14.9665 15.4864 15.75 14.7208 15.75 13.7763V8.6458Z" fill="#2A2238"/>
</svg>
