<svg width="28" height="28" viewBox="0 0 28 28" fill="none" xmlns="http://www.w3.org/2000/svg">
<path fill-rule="evenodd" clip-rule="evenodd" d="M0.290688 5.2236C5.55515 5.15381 10.3517 3.19095 14 0C17.6483 3.19095 22.4448 5.1538 27.7093 5.2236C27.9005 6.33653 28 7.47983 28 8.64585C28 17.5812 22.1563 25.1828 14 28C5.84366 25.1828 0 17.5812 0 8.64585C0 7.47984 0.0995115 6.33653 0.290688 5.2236ZM20.4874 11.5652C21.1709 10.8974 21.1709 9.81455 20.4874 9.14669C19.804 8.47883 18.696 8.47883 18.0126 9.14669L12.25 14.7781L9.98744 12.567C9.30402 11.8992 8.19598 11.8992 7.51256 12.567C6.82915 13.2349 6.82915 14.3177 7.51256 14.9856L11.0126 18.4059C11.696 19.0737 12.804 19.0737 13.4874 18.4059L20.4874 11.5652Z" fill="#2A2238"/>
</svg>
