<svg width="32" height="24" viewBox="0 0 32 24" fill="none" xmlns="http://www.w3.org/2000/svg">
<path d="M27.6364 5.81818H23.2727V0H2.90909C1.30909 0 0 1.30909 0 2.90909V18.9091H2.90909C2.90909 21.3236 4.85818 23.2727 7.27273 23.2727C9.68727 23.2727 11.6364 21.3236 11.6364 18.9091H20.3636C20.3636 21.3236 22.3127 23.2727 24.7273 23.2727C27.1418 23.2727 29.0909 21.3236 29.0909 18.9091H32V11.6364L27.6364 5.81818ZM26.9091 8L29.76 11.6364H23.2727V8H26.9091ZM7.27273 20.3636C6.47273 20.3636 5.81818 19.7091 5.81818 18.9091C5.81818 18.1091 6.47273 17.4545 7.27273 17.4545C8.07273 17.4545 8.72727 18.1091 8.72727 18.9091C8.72727 19.7091 8.07273 20.3636 7.27273 20.3636ZM10.5018 16C9.70182 15.1127 8.56727 14.5455 7.27273 14.5455C5.97818 14.5455 4.84364 15.1127 4.04364 16H2.90909V2.90909H20.3636V16H10.5018ZM24.7273 20.3636C23.9273 20.3636 23.2727 19.7091 23.2727 18.9091C23.2727 18.1091 23.9273 17.4545 24.7273 17.4545C25.5273 17.4545 26.1818 18.1091 26.1818 18.9091C26.1818 19.7091 25.5273 20.3636 24.7273 20.3636Z" fill="#2A2238"/>
</svg>
