<svg width="28" height="28" viewBox="0 0 28 28" fill="none" xmlns="http://www.w3.org/2000/svg">
<path fill-rule="evenodd" clip-rule="evenodd" d="M0 1.4C0 0.626801 0.626801 0 1.4 0H4.2C4.86735 0 5.44193 0.471043 5.57281 1.12544L5.90773 2.8H26.6C27.0852 2.8 27.5358 3.05123 27.7909 3.46398C28.046 3.87672 28.0692 4.39212 27.8522 4.8261L22.2522 16.0261C22.015 16.5004 21.5303 16.8 21 16.8H7.5799L4.7799 19.6L21 19.6C23.3196 19.6 25.2 21.4804 25.2 23.8C25.2 26.1196 23.3196 28 21 28C18.6804 28 16.8 26.1196 16.8 23.8C16.8 23.3091 16.8842 22.8379 17.039 22.4H10.961C11.1158 22.8379 11.2 23.3091 11.2 23.8C11.2 26.1196 9.3196 28 7 28C4.6804 28 2.8 26.1196 2.8 23.8C2.8 23.1334 2.95528 22.5031 3.23164 21.9433C1.86088 21.0327 1.45676 18.9633 2.8 17.6201L5.48025 14.9399L3.05227 2.8H1.4C0.626801 2.8 0 2.1732 0 1.4ZM8.14773 14H20.1348L24.3348 5.6H6.46773L8.14773 14ZM7 22.4C6.2268 22.4 5.6 23.0268 5.6 23.8C5.6 24.5732 6.2268 25.2 7 25.2C7.7732 25.2 8.4 24.5732 8.4 23.8C8.4 23.0268 7.7732 22.4 7 22.4ZM21 22.4C20.2268 22.4 19.6 23.0268 19.6 23.8C19.6 24.5732 20.2268 25.2 21 25.2C21.7732 25.2 22.4 24.5732 22.4 23.8C22.4 23.0268 21.7732 22.4 21 22.4Z" fill="#2A2238"/>
</svg>
