<svg width="32" height="26" viewBox="0 0 32 26" fill="none" xmlns="http://www.w3.org/2000/svg">
<path d="M27.3333 8.6667C27.8133 8.6667 28.28 8.72 28.7333 8.8133L31.52 5.33333C30.92 4.88 24.9467 0 16 0C7.03998 0 1.07998 4.88 0.47998 5.33333L16 24.6667L20.6667 18.8533V15.3333C20.6667 11.6 23.6 8.6667 27.3333 8.6667ZM30.6667 17.3333V15.3333C30.6667 13.4667 29.2 12 27.3333 12C25.4667 12 24 13.4667 24 15.3333V17.3333C23.3333 17.3333 22.6667 18 22.6667 18.6667V24C22.6667 24.6667 23.3333 25.3333 24 25.3333H30.6667C31.3333 25.3333 32 24.6667 32 24V18.6667C32 18 31.3333 17.3333 30.6667 17.3333ZM29.3333 17.3333H25.3333V15.3333C25.3333 14.2667 26.2667 13.3333 27.3333 13.3333C28.4 13.3333 29.3333 14.2667 29.3333 15.3333V17.3333Z" fill="#2A2238"/>
</svg>
