<svg width="32" height="32" viewBox="0 0 32 32" fill="none" xmlns="http://www.w3.org/2000/svg">
<path d="M27.3333 12.6667C27.8133 12.6667 28.28 12.72 28.7333 12.8133L31.52 9.33333C30.92 8.88 24.9467 4 16 4C7.04 4 1.08 8.88 0.48 9.33333L16 28.6667L20.6667 22.8533V19.3333C20.6667 15.6 23.6 12.6667 27.3333 12.6667ZM30.6667 21.3333V19.3333C30.6667 17.4667 29.2 16 27.3333 16C25.4667 16 24 17.4667 24 19.3333V21.3333C23.3333 21.3333 22.6667 22 22.6667 22.6667V28C22.6667 28.6667 23.3333 29.3333 24 29.3333H30.6667C31.3333 29.3333 32 28.6667 32 28V22.6667C32 22 31.3333 21.3333 30.6667 21.3333ZM29.3333 21.3333H25.3333V19.3333C25.3333 18.2667 26.2667 17.3333 27.3333 17.3333C28.4 17.3333 29.3333 18.2667 29.3333 19.3333V21.3333Z" fill="#323232"/>
</svg>
