<svg width="24" height="24" viewBox="0 0 24 24" fill="none" xmlns="http://www.w3.org/2000/svg">
<path d="M14.6409 22.024C13.4803 22.0201 12.5414 21.0785 12.5409 19.918V17.811H14.6409C15.8045 17.811 16.7479 18.7543 16.7479 19.918C16.7479 21.0816 15.8045 22.025 14.6409 22.025V22.024ZM9.35885 22.024C8.19831 22.0201 7.2594 21.0785 7.25885 19.918V14.644C7.25885 13.8925 7.65978 13.1981 8.3106 12.8223C8.96143 12.4465 9.76328 12.4465 10.4141 12.8223C11.0649 13.1981 11.4659 13.8925 11.4659 14.644V19.918C11.4653 21.0813 10.5221 22.024 9.35885 22.024ZM19.9089 16.751H14.6409C13.4775 16.751 12.5344 15.8079 12.5344 14.6445C12.5344 13.4811 13.4775 12.538 14.6409 12.538H19.9089C21.0722 12.538 22.0154 13.4811 22.0154 14.6445C22.0154 15.8079 21.0722 16.751 19.9089 16.751ZM4.09185 16.751C2.92846 16.751 1.98535 15.8079 1.98535 14.6445C1.98535 13.4811 2.92846 12.538 4.09185 12.538H6.19185V14.644C6.19185 15.8069 5.24973 16.7499 4.08685 16.751H4.09185ZM19.9089 11.462H17.8089V9.35598C17.8122 8.19697 18.7538 7.25978 19.9128 7.26198C21.0719 7.26419 22.0099 8.20496 22.0088 9.36398C22.0077 10.523 21.0679 11.462 19.9089 11.462ZM14.6409 11.462C13.4803 11.4581 12.5414 10.5165 12.5409 9.35598V4.08198C12.5409 3.33047 12.9418 2.63605 13.5926 2.2603C14.2434 1.88454 15.0453 1.88454 15.6961 2.2603C16.3469 2.63605 16.7479 3.33047 16.7479 4.08198V9.35598C16.7473 10.5193 15.8041 11.462 14.6409 11.462ZM9.35885 11.462H4.09185C2.92846 11.462 1.98535 10.5189 1.98535 9.35548C1.98535 8.19209 2.92846 7.24898 4.09185 7.24898H9.35885C10.5222 7.24898 11.4654 8.19209 11.4654 9.35548C11.4654 10.5189 10.5222 11.462 9.35885 11.462ZM11.4589 6.18899H9.35885C8.5066 6.19141 7.7369 5.67995 7.40899 4.89331C7.08107 4.10667 7.25958 3.19994 7.86121 2.5963C8.46284 1.99267 9.36897 1.81114 10.1567 2.13644C10.9444 2.46174 11.4584 3.22973 11.4589 4.08198V6.18798V6.18899Z" fill="#2A2238"/>
</svg>
