<svg width="24" height="24" viewBox="0 0 24 24" fill="none" xmlns="http://www.w3.org/2000/svg">
<path d="M16.9348 6.073C17.28 7.34302 17.3616 8.67024 17.1748 9.973V10.02C17.1638 10.166 17.1568 10.298 17.1508 10.43C17.2496 10.4826 17.3609 10.5075 17.4728 10.502C17.7626 10.4756 18.0447 10.3938 18.3038 10.261C18.4196 10.2037 18.5475 10.1749 18.6768 10.177C18.8164 10.1748 18.9552 10.1993 19.0858 10.249C19.4072 10.323 19.6449 10.5946 19.6758 10.923C19.6891 11.2843 19.3641 11.5973 18.7008 11.862C18.6298 11.885 18.5318 11.923 18.4248 11.962C18.0618 12.071 17.5078 12.251 17.3518 12.613C17.2799 12.8496 17.3165 13.1059 17.4518 13.313L17.4638 13.326C18.1759 14.9435 19.6006 16.1371 21.3178 16.555C21.5172 16.5867 21.6618 16.7621 21.6548 16.964C21.6537 17.026 21.6415 17.0873 21.6188 17.145C21.4258 17.602 20.5958 17.945 19.0888 18.166C19.0284 18.3138 18.9842 18.4677 18.9568 18.625C18.9317 18.7754 18.896 18.9237 18.8498 19.069C18.8027 19.2733 18.6126 19.4118 18.4038 19.394H18.3798C18.234 19.3873 18.0891 19.3675 17.9468 19.335C17.6103 19.2624 17.267 19.2262 16.9228 19.227C16.6774 19.2236 16.4323 19.2437 16.1908 19.287C15.6827 19.4201 15.2097 19.6624 14.8048 19.997C14.0594 20.6238 13.1269 20.9851 12.1538 21.024C12.1058 21.024 12.0538 21.012 12.0078 21.012H11.8868C10.917 20.9752 9.9886 20.6099 9.25376 19.976C8.85364 19.6414 8.38494 19.3987 7.88076 19.265C7.63407 19.2282 7.38517 19.2081 7.13576 19.205C6.79157 19.2101 6.44879 19.2503 6.11276 19.325C5.97001 19.3587 5.82433 19.3784 5.67776 19.384C5.46021 19.4001 5.26231 19.2582 5.20776 19.047C5.15976 18.893 5.13676 18.734 5.10076 18.591C5.07266 18.4341 5.02808 18.2806 4.96776 18.133C3.42476 17.954 2.59476 17.616 2.40276 17.147C2.37451 17.0905 2.35785 17.029 2.35376 16.966C2.34672 16.7641 2.49127 16.5887 2.69076 16.557C4.40878 16.1389 5.83374 14.9439 6.54476 13.325L6.55376 13.3C6.694 13.0949 6.73095 12.8362 6.65376 12.6C6.49776 12.251 5.94276 12.071 5.58376 11.95C5.48812 11.9246 5.39478 11.8911 5.30476 11.85C4.41476 11.5 4.29376 11.102 4.34276 10.826C4.48459 10.4335 4.86594 10.1796 5.28276 10.2C5.38838 10.1995 5.49306 10.2199 5.59076 10.26C5.86663 10.4016 6.16916 10.4837 6.47876 10.501C6.60942 10.5049 6.73878 10.4742 6.85376 10.412L6.81276 9.954C6.62663 8.65482 6.70865 7.33127 7.05376 6.065C7.86527 4.18296 9.7325 2.97684 11.7818 3.011L12.1168 3H12.1658C14.2278 2.97535 16.1051 4.18504 16.9348 6.073Z" fill="#2A2238"/>
</svg>
