<svg width="28" height="28" viewBox="0 0 28 28" fill="none" xmlns="http://www.w3.org/2000/svg">
<path d="M28 12.6H22.162L26.698 8.064L24.724 6.076L18.2 12.6H15.4V9.8L21.924 3.276L19.936 1.302L15.4 5.838V0H12.6V5.838L8.064 1.302L6.076 3.276L12.6 9.8V12.6H9.8L3.276 6.076L1.302 8.064L5.838 12.6H0V15.4H5.838L1.302 19.936L3.276 21.924L9.8 15.4H12.6V18.2L6.076 24.724L8.064 26.698L12.6 22.162V28H15.4V22.162L19.936 26.698L21.924 24.724L15.4 18.2V15.4H18.2L24.724 21.924L26.698 19.936L22.162 15.4H28V12.6Z" fill="#2A2238"/>
</svg>
