<svg width="30" height="30" viewBox="0 0 30 30" fill="none" xmlns="http://www.w3.org/2000/svg">
<path d="M15.1187 18.3182C13.4644 18.3182 12.1182 17.0193 12.1182 15.4226C12.1182 13.8323 13.4639 12.5385 15.1187 12.5385C16.7598 12.5385 18.0957 13.8323 18.0957 15.4226C18.0957 17.0193 16.7598 18.3182 15.1187 18.3182Z" fill="#2A2238"/>
<path fill-rule="evenodd" clip-rule="evenodd" d="M5 0C2.23877 0 0 2.23853 0 5V25C0 27.7615 2.23877 30 5 30H25C27.7612 30 30 27.7615 30 25V5C30 2.23853 27.7612 0 25 0H5ZM6.05518 13.3434C6.05518 13.9895 6.62012 14.2322 7.81885 14.5972C9.07031 14.978 10.6274 15.4521 10.6201 17.2953C10.6201 18.8193 9.30957 19.8451 7.35938 19.8451C6.25586 19.8451 5.08594 19.4161 4.22998 18.6976C4.00195 18.506 3.93457 18.1827 4.06787 17.9163L4.18994 17.6729C4.27686 17.4991 4.4375 17.374 4.62695 17.332C4.81641 17.2902 5.01465 17.3359 5.1665 17.4568C5.81787 17.9747 6.62158 18.2719 7.37109 18.2719C7.74219 18.2719 8.9541 18.2047 8.9541 17.3411C8.95752 16.6963 8.43066 16.436 7.16992 16.0614C5.93066 15.6932 4.38867 15.235 4.38867 13.4246C4.38867 11.9744 5.64795 11 7.52197 11C7.77051 11 8.02295 11.0199 8.27441 11.058C8.42627 11.0811 8.57764 11.1108 8.72754 11.147C9.18066 11.2563 9.61816 11.4241 10.0054 11.641C10.063 11.6733 10.1138 11.7133 10.1572 11.759C10.2017 11.8054 10.2378 11.8577 10.2656 11.9137C10.3501 12.0822 10.3599 12.2854 10.2769 12.4686L10.1479 12.7524C10.0742 12.915 9.93652 13.0398 9.76709 13.0968C9.67139 13.129 9.57031 13.1381 9.47266 13.1243C9.43652 13.1193 9.40088 13.1112 9.36621 13.1001C9.32812 13.088 9.29102 13.0724 9.25537 13.0531C8.70459 12.7556 8.05176 12.585 7.46387 12.585C7.1333 12.585 6.05518 12.6396 6.05518 13.3434ZM15.1187 11.0116C12.5474 11.0116 10.5332 12.9491 10.5332 15.4226C10.5332 17.9091 12.5474 19.8568 15.1187 19.8568C17.6831 19.8568 19.6919 17.9091 19.6919 15.4226C19.6919 12.9491 17.6831 11.0116 15.1187 11.0116ZM21.4346 13.3434C21.4346 13.9894 21.9995 14.2321 23.1987 14.5972C24.4502 14.978 26.0073 15.4521 26 17.2953C26 18.8195 24.6895 19.8451 22.7393 19.8451C21.6357 19.8451 20.4658 19.4161 19.6099 18.6976C19.3813 18.5061 19.3145 18.1829 19.4478 17.9163L19.5693 17.6729C19.6562 17.4991 19.8169 17.374 20.0063 17.332C20.1963 17.2902 20.3945 17.3359 20.5464 17.4568C21.1978 17.9747 22.0015 18.2719 22.751 18.2719C23.1221 18.2719 24.334 18.2047 24.334 17.3409C24.3374 16.6963 23.8105 16.4362 22.5498 16.0614C21.3105 15.6932 19.7686 15.2351 19.7686 13.4246C19.7686 11.9744 21.0278 11 22.9019 11C23.7534 11 24.6587 11.2336 25.3853 11.641C25.6768 11.8046 25.7949 12.1641 25.6567 12.4686L25.5278 12.7524C25.4541 12.915 25.3164 13.0398 25.147 13.0968C24.978 13.1538 24.7925 13.1381 24.6353 13.0531C24.0845 12.7556 23.4316 12.585 22.8438 12.585C22.5132 12.585 21.4346 12.6396 21.4346 13.3434Z" fill="#2A2238"/>
</svg>
