<svg width="30" height="30" viewBox="0 0 30 30" fill="none" xmlns="http://www.w3.org/2000/svg">
<mask id="path-1-outside-1_7_4" maskUnits="userSpaceOnUse" x="0" y="0" width="30" height="30" fill="black">
<rect fill="white" width="30" height="30"/>
<path d="M1 6C1 3.23858 3.23858 1 6 1H24C26.7614 1 29 3.23858 29 6V24C29 26.7614 26.7614 29 24 29H6C3.23858 29 1 26.7614 1 24V6Z"/>
<path d="M9.66974 13.7266C9.6366 13.4164 9.49692 13.175 9.25071 13.0021C9.00687 12.8293 8.68963 12.7429 8.29901 12.7429C8.02438 12.7429 7.78883 12.7843 7.59233 12.8672C7.39583 12.95 7.2455 13.0625 7.14134 13.2045C7.03717 13.3466 6.9839 13.5088 6.98153 13.6911C6.98153 13.8426 7.01586 13.974 7.08452 14.0852C7.15554 14.1965 7.25142 14.2912 7.37216 14.3693C7.4929 14.4451 7.62666 14.509 7.77344 14.5611C7.92022 14.6132 8.06818 14.657 8.21733 14.6925L8.89915 14.8629C9.17377 14.9268 9.43774 15.0133 9.69105 15.1222C9.94673 15.2311 10.1752 15.3684 10.3764 15.5341C10.58 15.6998 10.741 15.8999 10.8594 16.1342C10.9777 16.3686 11.0369 16.6432 11.0369 16.9581C11.0369 17.3842 10.928 17.7595 10.7102 18.0838C10.4924 18.4058 10.1776 18.6579 9.76562 18.8402C9.35606 19.0201 8.86009 19.1101 8.2777 19.1101C7.71188 19.1101 7.22064 19.0225 6.80398 18.8473C6.38968 18.6721 6.06534 18.4164 5.83097 18.0803C5.59896 17.7441 5.47348 17.3345 5.45455 16.8516H6.75071C6.76965 17.1049 6.84777 17.3156 6.98509 17.4837C7.1224 17.6518 7.30114 17.7772 7.52131 17.8601C7.74384 17.9429 7.99242 17.9844 8.26705 17.9844C8.5535 17.9844 8.80445 17.9418 9.01989 17.8565C9.23769 17.7689 9.40814 17.6482 9.53125 17.4943C9.65436 17.3381 9.71709 17.1558 9.71946 16.9474C9.71709 16.758 9.66146 16.6018 9.55256 16.4787C9.44366 16.3532 9.29096 16.2491 9.09446 16.1662C8.90033 16.081 8.67306 16.0052 8.41264 15.9389L7.58523 15.7259C6.98627 15.572 6.51278 15.3388 6.16477 15.0263C5.81913 14.7114 5.64631 14.2936 5.64631 13.7727C5.64631 13.3442 5.76231 12.969 5.99432 12.647C6.22869 12.325 6.54711 12.0753 6.94957 11.8977C7.35204 11.7178 7.80777 11.6278 8.31676 11.6278C8.83286 11.6278 9.28504 11.7178 9.6733 11.8977C10.0639 12.0753 10.3705 12.3227 10.593 12.6399C10.8156 12.9548 10.9304 13.317 10.9375 13.7266H9.66974Z"/>
<path d="M18.7101 15.3636C18.7101 16.1473 18.5633 16.8184 18.2697 17.3771C17.9785 17.9335 17.5808 18.3596 17.0765 18.6555C16.5746 18.9515 16.0053 19.0994 15.3684 19.0994C14.7316 19.0994 14.161 18.9515 13.6568 18.6555C13.1549 18.3572 12.7572 17.9299 12.4636 17.3736C12.1724 16.8149 12.0268 16.1449 12.0268 15.3636C12.0268 14.58 12.1724 13.91 12.4636 13.3537C12.7572 12.795 13.1549 12.3677 13.6568 12.0717C14.161 11.7758 14.7316 11.6278 15.3684 11.6278C16.0053 11.6278 16.5746 11.7758 17.0765 12.0717C17.5808 12.3677 17.9785 12.795 18.2697 13.3537C18.5633 13.91 18.7101 14.58 18.7101 15.3636ZM17.3855 15.3636C17.3855 14.812 17.2991 14.3468 17.1262 13.968C16.9558 13.5869 16.719 13.2992 16.416 13.1051C16.113 12.9086 15.7638 12.8104 15.3684 12.8104C14.9731 12.8104 14.6239 12.9086 14.3208 13.1051C14.0178 13.2992 13.7799 13.5869 13.6071 13.968C13.4366 14.3468 13.3514 14.812 13.3514 15.3636C13.3514 15.9152 13.4366 16.3816 13.6071 16.7628C13.7799 17.1416 14.0178 17.4292 14.3208 17.6257C14.6239 17.8198 14.9731 17.9169 15.3684 17.9169C15.7638 17.9169 16.113 17.8198 16.416 17.6257C16.719 17.4292 16.9558 17.1416 17.1262 16.7628C17.2991 16.3816 17.3855 15.9152 17.3855 15.3636Z"/>
<path d="M23.908 13.7266C23.8749 13.4164 23.7352 13.175 23.489 13.0021C23.2451 12.8293 22.9279 12.7429 22.5373 12.7429C22.2627 12.7429 22.0271 12.7843 21.8306 12.8672C21.6341 12.95 21.4838 13.0625 21.3796 13.2045C21.2754 13.3466 21.2222 13.5088 21.2198 13.6911C21.2198 13.8426 21.2541 13.974 21.3228 14.0852C21.3938 14.1965 21.4897 14.2912 21.6104 14.3693C21.7312 14.4451 21.8649 14.509 22.0117 14.5611C22.1585 14.6132 22.3065 14.657 22.4556 14.6925L23.1374 14.8629C23.412 14.9268 23.676 15.0133 23.9293 15.1222C24.185 15.2311 24.4135 15.3684 24.6147 15.5341C24.8183 15.6998 24.9793 15.8999 25.0977 16.1342C25.216 16.3686 25.2752 16.6432 25.2752 16.9581C25.2752 17.3842 25.1663 17.7595 24.9485 18.0838C24.7307 18.4058 24.4158 18.6579 24.0039 18.8402C23.5943 19.0201 23.0984 19.1101 22.516 19.1101C21.9502 19.1101 21.4589 19.0225 21.0423 18.8473C20.628 18.6721 20.3036 18.4164 20.0692 18.0803C19.8372 17.7441 19.7118 17.3345 19.6928 16.8516H20.989C21.0079 17.1049 21.0861 17.3156 21.2234 17.4837C21.3607 17.6518 21.5394 17.7772 21.7596 17.8601C21.9821 17.9429 22.2307 17.9844 22.5053 17.9844C22.7918 17.9844 23.0427 17.9418 23.2582 17.8565C23.476 17.7689 23.6464 17.6482 23.7695 17.4943C23.8926 17.3381 23.9554 17.1558 23.9577 16.9474C23.9554 16.758 23.8997 16.6018 23.7908 16.4787C23.6819 16.3532 23.5292 16.2491 23.3327 16.1662C23.1386 16.081 22.9113 16.0052 22.6509 15.9389L21.8235 15.7259C21.2246 15.572 20.7511 15.3388 20.4031 15.0263C20.0574 14.7114 19.8846 14.2936 19.8846 13.7727C19.8846 13.3442 20.0006 12.969 20.2326 12.647C20.467 12.325 20.7854 12.0753 21.1879 11.8977C21.5903 11.7178 22.046 11.6278 22.555 11.6278C23.0711 11.6278 23.5233 11.7178 23.9116 11.8977C24.3022 12.0753 24.6088 12.3227 24.8313 12.6399C25.0539 12.9548 25.1687 13.317 25.1758 13.7266H23.908Z"/>
</mask>
<path d="M9.66974 13.7266C9.6366 13.4164 9.49692 13.175 9.25071 13.0021C9.00687 12.8293 8.68963 12.7429 8.29901 12.7429C8.02438 12.7429 7.78883 12.7843 7.59233 12.8672C7.39583 12.95 7.2455 13.0625 7.14134 13.2045C7.03717 13.3466 6.9839 13.5088 6.98153 13.6911C6.98153 13.8426 7.01586 13.974 7.08452 14.0852C7.15554 14.1965 7.25142 14.2912 7.37216 14.3693C7.4929 14.4451 7.62666 14.509 7.77344 14.5611C7.92022 14.6132 8.06818 14.657 8.21733 14.6925L8.89915 14.8629C9.17377 14.9268 9.43774 15.0133 9.69105 15.1222C9.94673 15.2311 10.1752 15.3684 10.3764 15.5341C10.58 15.6998 10.741 15.8999 10.8594 16.1342C10.9777 16.3686 11.0369 16.6432 11.0369 16.9581C11.0369 17.3842 10.928 17.7595 10.7102 18.0838C10.4924 18.4058 10.1776 18.6579 9.76562 18.8402C9.35606 19.0201 8.86009 19.1101 8.2777 19.1101C7.71188 19.1101 7.22064 19.0225 6.80398 18.8473C6.38968 18.6721 6.06534 18.4164 5.83097 18.0803C5.59896 17.7441 5.47348 17.3345 5.45455 16.8516H6.75071C6.76965 17.1049 6.84777 17.3156 6.98509 17.4837C7.1224 17.6518 7.30114 17.7772 7.52131 17.8601C7.74384 17.9429 7.99242 17.9844 8.26705 17.9844C8.5535 17.9844 8.80445 17.9418 9.01989 17.8565C9.23769 17.7689 9.40814 17.6482 9.53125 17.4943C9.65436 17.3381 9.71709 17.1558 9.71946 16.9474C9.71709 16.758 9.66146 16.6018 9.55256 16.4787C9.44366 16.3532 9.29096 16.2491 9.09446 16.1662C8.90033 16.081 8.67306 16.0052 8.41264 15.9389L7.58523 15.7259C6.98627 15.572 6.51278 15.3388 6.16477 15.0263C5.81913 14.7114 5.64631 14.2936 5.64631 13.7727C5.64631 13.3442 5.76231 12.969 5.99432 12.647C6.22869 12.325 6.54711 12.0753 6.94957 11.8977C7.35204 11.7178 7.80777 11.6278 8.31676 11.6278C8.83286 11.6278 9.28504 11.7178 9.6733 11.8977C10.0639 12.0753 10.3705 12.3227 10.593 12.6399C10.8156 12.9548 10.9304 13.317 10.9375 13.7266H9.66974Z" fill="#2A2238"/>
<path d="M18.7101 15.3636C18.7101 16.1473 18.5633 16.8184 18.2697 17.3771C17.9785 17.9335 17.5808 18.3596 17.0765 18.6555C16.5746 18.9515 16.0053 19.0994 15.3684 19.0994C14.7316 19.0994 14.161 18.9515 13.6568 18.6555C13.1549 18.3572 12.7572 17.9299 12.4636 17.3736C12.1724 16.8149 12.0268 16.1449 12.0268 15.3636C12.0268 14.58 12.1724 13.91 12.4636 13.3537C12.7572 12.795 13.1549 12.3677 13.6568 12.0717C14.161 11.7758 14.7316 11.6278 15.3684 11.6278C16.0053 11.6278 16.5746 11.7758 17.0765 12.0717C17.5808 12.3677 17.9785 12.795 18.2697 13.3537C18.5633 13.91 18.7101 14.58 18.7101 15.3636ZM17.3855 15.3636C17.3855 14.812 17.2991 14.3468 17.1262 13.968C16.9558 13.5869 16.719 13.2992 16.416 13.1051C16.113 12.9086 15.7638 12.8104 15.3684 12.8104C14.9731 12.8104 14.6239 12.9086 14.3208 13.1051C14.0178 13.2992 13.7799 13.5869 13.6071 13.968C13.4366 14.3468 13.3514 14.812 13.3514 15.3636C13.3514 15.9152 13.4366 16.3816 13.6071 16.7628C13.7799 17.1416 14.0178 17.4292 14.3208 17.6257C14.6239 17.8198 14.9731 17.9169 15.3684 17.9169C15.7638 17.9169 16.113 17.8198 16.416 17.6257C16.719 17.4292 16.9558 17.1416 17.1262 16.7628C17.2991 16.3816 17.3855 15.9152 17.3855 15.3636Z" fill="#2A2238"/>
<path d="M23.908 13.7266C23.8749 13.4164 23.7352 13.175 23.489 13.0021C23.2451 12.8293 22.9279 12.7429 22.5373 12.7429C22.2627 12.7429 22.0271 12.7843 21.8306 12.8672C21.6341 12.95 21.4838 13.0625 21.3796 13.2045C21.2754 13.3466 21.2222 13.5088 21.2198 13.6911C21.2198 13.8426 21.2541 13.974 21.3228 14.0852C21.3938 14.1965 21.4897 14.2912 21.6104 14.3693C21.7312 14.4451 21.8649 14.509 22.0117 14.5611C22.1585 14.6132 22.3065 14.657 22.4556 14.6925L23.1374 14.8629C23.412 14.9268 23.676 15.0133 23.9293 15.1222C24.185 15.2311 24.4135 15.3684 24.6147 15.5341C24.8183 15.6998 24.9793 15.8999 25.0977 16.1342C25.216 16.3686 25.2752 16.6432 25.2752 16.9581C25.2752 17.3842 25.1663 17.7595 24.9485 18.0838C24.7307 18.4058 24.4158 18.6579 24.0039 18.8402C23.5943 19.0201 23.0984 19.1101 22.516 19.1101C21.9502 19.1101 21.4589 19.0225 21.0423 18.8473C20.628 18.6721 20.3036 18.4164 20.0692 18.0803C19.8372 17.7441 19.7118 17.3345 19.6928 16.8516H20.989C21.0079 17.1049 21.0861 17.3156 21.2234 17.4837C21.3607 17.6518 21.5394 17.7772 21.7596 17.8601C21.9821 17.9429 22.2307 17.9844 22.5053 17.9844C22.7918 17.9844 23.0427 17.9418 23.2582 17.8565C23.476 17.7689 23.6464 17.6482 23.7695 17.4943C23.8926 17.3381 23.9554 17.1558 23.9577 16.9474C23.9554 16.758 23.8997 16.6018 23.7908 16.4787C23.6819 16.3532 23.5292 16.2491 23.3327 16.1662C23.1386 16.081 22.9113 16.0052 22.6509 15.9389L21.8235 15.7259C21.2246 15.572 20.7511 15.3388 20.4031 15.0263C20.0574 14.7114 19.8846 14.2936 19.8846 13.7727C19.8846 13.3442 20.0006 12.969 20.2326 12.647C20.467 12.325 20.7854 12.0753 21.1879 11.8977C21.5903 11.7178 22.046 11.6278 22.555 11.6278C23.0711 11.6278 23.5233 11.7178 23.9116 11.8977C24.3022 12.0753 24.6088 12.3227 24.8313 12.6399C25.0539 12.9548 25.1687 13.317 25.1758 13.7266H23.908Z" fill="#2A2238"/>
<path d="M9.66974 13.7266L8.67541 13.8328L8.77092 14.7266H9.66974V13.7266ZM9.25071 13.0021L8.67247 13.818L8.67619 13.8206L9.25071 13.0021ZM7.59233 12.8672L7.98088 13.7886L7.98088 13.7886L7.59233 12.8672ZM7.14134 13.2045L6.33493 12.6132L6.33493 12.6132L7.14134 13.2045ZM6.98153 13.6911L5.98153 13.6781V13.6911H6.98153ZM7.08452 14.0852L6.23348 14.6103L6.23749 14.6168L6.24159 14.6233L7.08452 14.0852ZM7.37216 14.3693L6.82885 15.209L6.84067 15.2164L7.37216 14.3693ZM7.77344 14.5611L7.43903 15.5035L7.43903 15.5035L7.77344 14.5611ZM8.21733 14.6925L8.45988 13.7223L8.44895 13.7197L8.21733 14.6925ZM8.89915 14.8629L8.65661 15.8331L8.66452 15.835L8.67245 15.8369L8.89915 14.8629ZM9.69105 15.1222L9.29609 16.0409L9.29919 16.0422L9.69105 15.1222ZM10.3764 15.5341L9.7407 16.306L9.74515 16.3097L10.3764 15.5341ZM10.7102 18.0838L11.5385 18.6441L11.5404 18.6413L10.7102 18.0838ZM9.76562 18.8402L10.1678 19.7558L10.1703 19.7547L9.76562 18.8402ZM6.80398 18.8473L6.41451 19.7683L6.41639 19.7691L6.80398 18.8473ZM5.83097 18.0803L5.00793 18.6483L5.01065 18.6522L5.83097 18.0803ZM5.45455 16.8516V15.8516H4.41456L4.45531 16.8907L5.45455 16.8516ZM6.75071 16.8516L7.74793 16.777L7.67874 15.8516H6.75071V16.8516ZM6.98509 17.4837L7.75953 16.851L7.75953 16.851L6.98509 17.4837ZM7.52131 17.8601L7.16908 18.796L7.17237 18.7972L7.52131 17.8601ZM9.01989 17.8565L9.38776 18.7864L9.39302 18.7843L9.01989 17.8565ZM9.53125 17.4943L10.3121 18.119L10.3167 18.1132L9.53125 17.4943ZM9.71946 16.9474L10.7194 16.9588L10.7195 16.9469L10.7194 16.9349L9.71946 16.9474ZM9.55256 16.4787L8.7973 17.1342L8.80356 17.1413L9.55256 16.4787ZM9.09446 16.1662L8.69247 17.0818L8.69917 17.0848L8.70591 17.0876L9.09446 16.1662ZM8.41264 15.9389L8.16327 16.9073L8.16596 16.908L8.41264 15.9389ZM7.58523 15.7259L7.8346 14.7574L7.83406 14.7573L7.58523 15.7259ZM6.16477 15.0263L5.49133 15.7655L5.49665 15.7703L6.16477 15.0263ZM5.99432 12.647L5.18583 12.0585L5.18301 12.0624L5.99432 12.647ZM6.94957 11.8977L7.35322 12.8127L7.3577 12.8107L6.94957 11.8977ZM9.6733 11.8977L9.25282 12.8051L9.25949 12.8081L9.6733 11.8977ZM10.593 12.6399L9.77438 13.2142L9.77641 13.2171L10.593 12.6399ZM10.9375 13.7266V14.7266H11.955L11.9373 13.7092L10.9375 13.7266ZM18.2697 17.3771L17.3845 16.912L17.3837 16.9134L18.2697 17.3771ZM17.0765 18.6555L16.5704 17.7931L16.5686 17.7941L17.0765 18.6555ZM13.6568 18.6555L13.1459 19.5152L13.1506 19.518L13.6568 18.6555ZM12.4636 17.3736L11.5768 17.8358L11.5792 17.8403L12.4636 17.3736ZM12.4636 13.3537L11.5784 12.8886L11.5776 12.89L12.4636 13.3537ZM13.6568 12.0717L13.1506 11.2093L13.1489 11.2103L13.6568 12.0717ZM17.0765 12.0717L16.5686 12.9331L16.5704 12.9342L17.0765 12.0717ZM18.2697 13.3537L17.3829 13.8159L17.3853 13.8204L18.2697 13.3537ZM17.1262 13.968L16.2133 14.3763L16.2165 14.3831L17.1262 13.968ZM16.416 13.1051L15.8719 13.9442L15.8766 13.9471L16.416 13.1051ZM14.3208 13.1051L14.8603 13.9472L14.8649 13.9442L14.3208 13.1051ZM13.6071 13.968L12.6963 13.5551L12.6951 13.5577L13.6071 13.968ZM13.6071 16.7628L12.6942 17.171L12.6973 17.1779L13.6071 16.7628ZM14.3208 17.6257L13.7768 18.4648L13.7814 18.4677L14.3208 17.6257ZM16.416 17.6257L16.9555 18.4678L16.9601 18.4648L16.416 17.6257ZM17.1262 16.7628L16.2155 16.3498L16.2143 16.3524L17.1262 16.7628ZM23.908 13.7266L22.9137 13.8328L23.0092 14.7266H23.908V13.7266ZM23.489 13.0021L22.9107 13.818L22.9145 13.8206L23.489 13.0021ZM21.8306 12.8672L22.2192 13.7886L22.2192 13.7886L21.8306 12.8672ZM21.3796 13.2045L20.5732 12.6132L20.5732 12.6132L21.3796 13.2045ZM21.2198 13.6911L20.2198 13.6781V13.6911H21.2198ZM21.3228 14.0852L20.4718 14.6103L20.4758 14.6168L20.4799 14.6233L21.3228 14.0852ZM21.6104 14.3693L21.0671 15.209L21.079 15.2164L21.6104 14.3693ZM22.0117 14.5611L21.6773 15.5035L21.6773 15.5035L22.0117 14.5611ZM22.4556 14.6925L22.6982 13.7223L22.6872 13.7197L22.4556 14.6925ZM23.1374 14.8629L22.8949 15.8331L22.9028 15.835L22.9107 15.8369L23.1374 14.8629ZM23.9293 15.1222L23.5344 16.0409L23.5375 16.0422L23.9293 15.1222ZM24.6147 15.5341L23.979 16.306L23.9834 16.3097L24.6147 15.5341ZM24.9485 18.0838L25.7768 18.6441L25.7787 18.6413L24.9485 18.0838ZM24.0039 18.8402L24.4061 19.7558L24.4086 19.7547L24.0039 18.8402ZM21.0423 18.8473L20.6528 19.7683L20.6547 19.7691L21.0423 18.8473ZM20.0692 18.0803L19.2462 18.6483L19.2489 18.6522L20.0692 18.0803ZM19.6928 16.8516V15.8516H18.6528L18.6936 16.8907L19.6928 16.8516ZM20.989 16.8516L21.9862 16.777L21.917 15.8516H20.989V16.8516ZM21.2234 17.4837L21.9978 16.851L21.9978 16.851L21.2234 17.4837ZM21.7596 17.8601L21.4074 18.796L21.4107 18.7972L21.7596 17.8601ZM23.2582 17.8565L23.626 18.7864L23.6313 18.7843L23.2582 17.8565ZM23.7695 17.4943L24.5504 18.119L24.555 18.1132L23.7695 17.4943ZM23.9577 16.9474L24.9577 16.9588L24.9578 16.9469L24.9577 16.9349L23.9577 16.9474ZM23.7908 16.4787L23.0356 17.1342L23.0418 17.1413L23.7908 16.4787ZM23.3327 16.1662L22.9308 17.0818L22.9374 17.0848L22.9442 17.0876L23.3327 16.1662ZM22.6509 15.9389L22.4015 16.9073L22.4042 16.908L22.6509 15.9389ZM21.8235 15.7259L22.0729 14.7574L22.0723 14.7573L21.8235 15.7259ZM20.4031 15.0263L19.7296 15.7655L19.7349 15.7703L20.4031 15.0263ZM20.2326 12.647L19.4241 12.0585L19.4213 12.0624L20.2326 12.647ZM21.1879 11.8977L21.5915 12.8127L21.596 12.8107L21.1879 11.8977ZM23.9116 11.8977L23.4911 12.8051L23.4978 12.8081L23.9116 11.8977ZM24.8313 12.6399L24.0127 13.2142L24.0147 13.2171L24.8313 12.6399ZM25.1758 13.7266V14.7266H26.1933L26.1756 13.7092L25.1758 13.7266ZM6 2H24V0H6V2ZM28 6V24H30V6H28ZM24 28H6V30H24V28ZM2 24V6H0V24H2ZM6 28C3.79086 28 2 26.2091 2 24H0C0 27.3137 2.68629 30 6 30V28ZM28 24C28 26.2091 26.2091 28 24 28V30C27.3137 30 30 27.3137 30 24H28ZM24 2C26.2091 2 28 3.79086 28 6H30C30 2.68629 27.3137 0 24 0V2ZM6 0C2.68629 0 0 2.68629 0 6H2C2 3.79086 3.79086 2 6 2V0ZM10.6641 13.6203C10.6016 13.0354 10.3173 12.529 9.82523 12.1836L8.67619 13.8206C8.68425 13.8263 8.68577 13.8285 8.68364 13.8262C8.68136 13.8237 8.67782 13.8193 8.67451 13.8136C8.67123 13.8079 8.67028 13.8046 8.67065 13.8058C8.67111 13.8073 8.67356 13.8156 8.67541 13.8328L10.6641 13.6203ZM9.82895 12.1863C9.37097 11.8617 8.83362 11.7429 8.29901 11.7429V13.7429C8.54564 13.7429 8.64276 13.7969 8.67247 13.818L9.82895 12.1863ZM8.29901 11.7429C7.92769 11.7429 7.55312 11.7984 7.20378 11.9458L7.98088 13.7886C8.02453 13.7702 8.12108 13.7429 8.29901 13.7429V11.7429ZM7.20378 11.9458C6.87586 12.084 6.56649 12.2974 6.33493 12.6132L7.94774 13.7959C7.93768 13.8096 7.92993 13.8154 7.9312 13.8144C7.93328 13.8129 7.94749 13.8027 7.98088 13.7886L7.20378 11.9458ZM6.33493 12.6132C6.10309 12.9293 5.98659 13.2953 5.98162 13.6781L7.98145 13.704C7.9814 13.7076 7.9805 13.7229 7.97332 13.7448C7.96603 13.767 7.95594 13.7847 7.94774 13.7959L6.33493 12.6132ZM5.98153 13.6911C5.98153 13.998 6.05281 14.3175 6.23348 14.6103L7.93555 13.5601C7.95535 13.5922 7.96785 13.6238 7.9748 13.6505C7.98152 13.6762 7.98153 13.6912 7.98153 13.6911H5.98153ZM6.24159 14.6233C6.39643 14.8658 6.59872 15.0599 6.82891 15.2089L7.91541 13.5297C7.90861 13.5253 7.90857 13.5244 7.9124 13.5282C7.9164 13.5322 7.92199 13.5387 7.92744 13.5472L6.24159 14.6233ZM6.84067 15.2164C7.02883 15.3344 7.22956 15.4292 7.43903 15.5035L8.10785 13.6187C8.02375 13.5888 7.95696 13.5557 7.90365 13.5223L6.84067 15.2164ZM7.43903 15.5035C7.61897 15.5674 7.80123 15.6214 7.98571 15.6653L8.44895 13.7197C8.33513 13.6926 8.22147 13.659 8.10785 13.6187L7.43903 15.5035ZM7.97479 15.6626L8.65661 15.8331L9.14168 13.8928L8.45986 13.7223L7.97479 15.6626ZM8.67245 15.8369C8.89076 15.8877 9.09834 15.9558 9.2961 16.0409L10.086 14.2035C9.77714 14.0707 9.45678 13.966 9.12585 13.889L8.67245 15.8369ZM9.29919 16.0422C9.47273 16.1161 9.61798 16.2049 9.74071 16.306L11.0121 14.7622C10.7324 14.5318 10.4207 14.346 10.0829 14.2021L9.29919 16.0422ZM9.74515 16.3097C9.83976 16.3867 9.91171 16.4761 9.96676 16.585L11.752 15.6834C11.5703 15.3237 11.3203 15.013 11.0077 14.7585L9.74515 16.3097ZM9.96676 16.585C10.0018 16.6544 10.0369 16.7689 10.0369 16.9581H12.0369C12.0369 16.5175 11.9537 16.0828 11.752 15.6834L9.96676 16.585ZM10.0369 16.9581C10.0369 17.2045 9.9771 17.3818 9.88005 17.5263L11.5404 18.6413C11.879 18.1371 12.0369 17.564 12.0369 16.9581H10.0369ZM9.88194 17.5235C9.78513 17.6666 9.62903 17.8071 9.36095 17.9257L10.1703 19.7547C10.7261 19.5087 11.1997 19.1449 11.5385 18.6441L9.88194 17.5235ZM9.36342 17.9246C9.11271 18.0348 8.76158 18.1101 8.2777 18.1101V20.1101C8.95859 20.1101 9.59941 20.0055 10.1678 19.7557L9.36342 17.9246ZM8.2777 18.1101C7.81261 18.1101 7.45884 18.0378 7.19157 17.9255L6.41639 19.7691C6.98245 20.0071 7.61116 20.1101 8.2777 20.1101V18.1101ZM7.19345 17.9263C6.93524 17.8171 6.76742 17.6749 6.65128 17.5083L5.01065 18.6522C5.36327 19.1579 5.84412 19.5271 6.41451 19.7683L7.19345 17.9263ZM6.65399 17.5123C6.54805 17.3587 6.46667 17.1411 6.45378 16.8124L4.45531 16.8907C4.4803 17.5279 4.64986 18.1294 5.00794 18.6483L6.65399 17.5123ZM5.45455 17.8516H6.75071V15.8516H5.45455V17.8516ZM5.75349 16.9261C5.78504 17.3481 5.92261 17.7637 6.21064 18.1163L7.75953 16.851C7.76305 16.8553 7.76325 16.8576 7.76113 16.8519C7.75854 16.8449 7.75131 16.8222 7.74793 16.777L5.75349 16.9261ZM6.21064 18.1163C6.46877 18.4323 6.79818 18.6564 7.16908 18.796L7.87353 16.9242C7.80409 16.898 7.77602 16.8712 7.75953 16.851L6.21064 18.1163ZM7.17237 18.7972C7.52254 18.9276 7.89164 18.9844 8.26705 18.9844V16.9844C8.09321 16.9844 7.96515 16.9583 7.87024 16.9229L7.17237 18.7972ZM8.26705 18.9844C8.65065 18.9844 9.03112 18.9275 9.38775 18.7864L8.65202 16.9267C8.57779 16.956 8.45636 16.9844 8.26705 16.9844V18.9844ZM9.39302 18.7843C9.73997 18.6448 10.0626 18.4309 10.3121 18.119L8.75038 16.8696C8.75019 16.8699 8.74921 16.8711 8.74688 16.8732C8.74452 16.8755 8.74017 16.8792 8.73306 16.8843C8.71882 16.8943 8.69202 16.9106 8.64676 16.9288L9.39302 18.7843ZM10.3167 18.1132C10.5832 17.775 10.7146 17.3765 10.7194 16.9588L8.71953 16.9361C8.71946 16.9419 8.71894 16.9328 8.72506 16.915C8.73137 16.8967 8.74011 16.8826 8.74576 16.8754L10.3167 18.1132ZM10.7194 16.9349C10.7145 16.5445 10.5932 16.1459 10.3016 15.8161L8.80356 17.1413C8.77256 17.1062 8.74854 17.0648 8.73389 17.0236C8.72706 17.0044 8.7234 16.9885 8.72149 16.9771C8.7196 16.9659 8.71954 16.9598 8.71954 16.9599L10.7194 16.9349ZM10.3078 15.8232C10.0743 15.5542 9.7818 15.3708 9.48301 15.2448L8.70591 17.0876C8.80011 17.1273 8.813 17.1522 8.79734 17.1342L10.3078 15.8232ZM9.49645 15.2505C9.2409 15.1384 8.95954 15.0462 8.65932 14.9698L8.16596 16.908C8.38658 16.9642 8.55976 17.0236 8.69247 17.0818L9.49645 15.2505ZM8.66202 14.9705L7.8346 14.7574L7.33585 16.6943L8.16327 16.9073L8.66202 14.9705ZM7.83406 14.7573C7.34263 14.631 7.02897 14.4583 6.8329 14.2822L5.49665 15.7703C5.9966 16.2193 6.62991 16.5129 7.33639 16.6944L7.83406 14.7573ZM6.8382 14.287C6.72553 14.1844 6.64631 14.0478 6.64631 13.7727H4.64631C4.64631 14.5393 4.91272 15.2384 5.49134 15.7655L6.8382 14.287ZM6.64631 13.7727C6.64631 13.5364 6.70624 13.3696 6.80563 13.2316L5.18301 12.0624C4.81838 12.5684 4.64631 13.1521 4.64631 13.7727H6.64631ZM6.8028 13.2355C6.92277 13.0707 7.0948 12.9267 7.35321 12.8126L6.54593 10.9828C5.99943 11.2239 5.53462 11.5794 5.18584 12.0585L6.8028 13.2355ZM7.3577 12.8107C7.61339 12.6963 7.9268 12.6278 8.31676 12.6278V10.6278C7.68873 10.6278 7.09068 10.7393 6.54144 10.9848L7.3577 12.8107ZM8.31676 12.6278C8.71706 12.6278 9.02065 12.6974 9.25284 12.805L10.0938 10.9904C9.54943 10.7382 8.94866 10.6278 8.31676 10.6278V12.6278ZM9.25949 12.8081C9.5055 12.9199 9.66511 13.0584 9.77438 13.2142L11.4117 12.0656C11.0759 11.5869 10.6223 11.2307 10.0871 10.9874L9.25949 12.8081ZM9.77641 13.2171C9.87566 13.3575 9.9338 13.5219 9.93765 13.7439L11.9373 13.7092C11.927 13.1121 11.7555 12.5521 11.4097 12.0627L9.77641 13.2171ZM10.9375 12.7266H9.66974V14.7266H10.9375V12.7266ZM17.7101 15.3636C17.7101 16.0237 17.5866 16.5273 17.3845 16.912L19.155 17.8423C19.54 17.1095 19.7101 16.2708 19.7101 15.3636H17.7101ZM17.3837 16.9134C17.1726 17.3167 16.9012 17.5989 16.5704 17.7931L17.5827 19.518C18.2604 19.1203 18.7844 18.5503 19.1557 17.8409L17.3837 16.9134ZM16.5686 17.7941C16.2347 17.991 15.8438 18.0994 15.3684 18.0994V20.0994C16.1668 20.0994 16.9145 19.9119 17.5844 19.517L16.5686 17.7941ZM15.3684 18.0994C14.8932 18.0994 14.5002 17.991 14.1629 17.7931L13.1506 19.518C13.8219 19.9119 14.57 20.0994 15.3684 20.0994V18.0994ZM14.1677 17.7959C13.8364 17.599 13.5626 17.3135 13.348 16.9069L11.5792 17.8403C11.9518 18.5464 12.4734 19.1155 13.1459 19.5152L14.1677 17.7959ZM13.3504 16.9114C13.1493 16.5256 13.0268 16.0219 13.0268 15.3636H11.0268C11.0268 16.2679 11.1955 17.1041 11.5768 17.8358L13.3504 16.9114ZM13.0268 15.3636C13.0268 14.7023 13.1496 14.1995 13.3496 13.8174L11.5776 12.89C11.1952 13.6206 11.0268 14.4578 11.0268 15.3636H13.0268ZM13.3488 13.8188C13.5634 13.4105 13.8363 13.1268 14.1647 12.9331L13.1489 11.2103C12.4735 11.6085 11.9509 12.1795 11.5784 12.8886L13.3488 13.8188ZM14.1629 12.9342C14.5002 12.7363 14.8932 12.6278 15.3684 12.6278V10.6278C14.57 10.6278 13.8219 10.8153 13.1506 11.2093L14.1629 12.9342ZM15.3684 12.6278C15.8438 12.6278 16.2347 12.7363 16.5686 12.9331L17.5844 11.2103C16.9145 10.8153 16.1668 10.6278 15.3684 10.6278V12.6278ZM16.5704 12.9342C16.9001 13.1277 17.1715 13.4102 17.3829 13.8159L19.1565 12.8915C18.7855 12.1797 18.2615 11.6076 17.5827 11.2093L16.5704 12.9342ZM17.3853 13.8204C17.5865 14.2018 17.7101 14.7034 17.7101 15.3636H19.7101C19.7101 14.4566 19.54 13.6183 19.1541 12.887L17.3853 13.8204ZM18.3855 15.3636C18.3855 14.7131 18.2843 14.0971 18.036 13.553L16.2165 14.3831C16.3138 14.5966 16.3855 14.9109 16.3855 15.3636H18.3855ZM18.0391 13.5598C17.8022 13.0299 17.4475 12.5783 16.9554 12.2631L15.8766 13.9471C15.9905 14.0201 16.1094 14.1438 16.2134 14.3763L18.0391 13.5598ZM16.9601 12.2661C16.4798 11.9546 15.9379 11.8104 15.3684 11.8104V13.8104C15.5897 13.8104 15.7462 13.8626 15.8719 13.9442L16.9601 12.2661ZM15.3684 11.8104C14.799 11.8104 14.2571 11.9546 13.7768 12.2661L14.8649 13.9442C14.9907 13.8626 15.1471 13.8104 15.3684 13.8104V11.8104ZM13.7814 12.2631C13.2907 12.5775 12.9356 13.0273 12.6963 13.5551L14.5178 14.381C14.6242 14.1464 14.745 14.021 14.8603 13.9471L13.7814 12.2631ZM12.6951 13.5577C12.4509 14.1004 12.3514 14.7147 12.3514 15.3636H14.3514C14.3514 14.9094 14.4223 14.5932 14.519 14.3784L12.6951 13.5577ZM12.3514 15.3636C12.3514 16.0129 12.451 16.6272 12.6942 17.171L14.5199 16.3545C14.4222 16.136 14.3514 15.8176 14.3514 15.3636H12.3514ZM12.6973 17.1779C12.9368 17.7028 13.2907 18.1496 13.7768 18.4648L14.8649 16.7867C14.7449 16.7089 14.623 16.5803 14.5168 16.3477L12.6973 17.1779ZM13.7814 18.4677C14.2612 18.7751 14.8014 18.9169 15.3684 18.9169V16.9169C15.1447 16.9169 14.9866 16.8646 14.8603 16.7837L13.7814 18.4677ZM15.3684 18.9169C15.9354 18.9169 16.4757 18.7751 16.9554 18.4677L15.8766 16.7837C15.7503 16.8646 15.5921 16.9169 15.3684 16.9169V18.9169ZM16.9601 18.4648C17.4475 18.1487 17.801 17.7003 18.0382 17.1731L16.2143 16.3524C16.1106 16.5829 15.9906 16.7097 15.8719 16.7867L16.9601 18.4648ZM18.037 17.1757C18.2842 16.6306 18.3855 16.0145 18.3855 15.3636H16.3855C16.3855 15.816 16.3139 16.1327 16.2155 16.3498L18.037 17.1757ZM24.9024 13.6203C24.8399 13.0354 24.5556 12.529 24.0635 12.1836L22.9145 13.8206C22.9225 13.8263 22.924 13.8285 22.9219 13.8262C22.9196 13.8237 22.9161 13.8193 22.9128 13.8136C22.9095 13.8079 22.9086 13.8046 22.9089 13.8058C22.9094 13.8073 22.9118 13.8156 22.9137 13.8328L24.9024 13.6203ZM24.0672 12.1863C23.6092 11.8617 23.0719 11.7429 22.5373 11.7429V13.7429C22.7839 13.7429 22.881 13.7969 22.9108 13.818L24.0672 12.1863ZM22.5373 11.7429C22.166 11.7429 21.7914 11.7984 21.4421 11.9458L22.2192 13.7886C22.2628 13.7702 22.3594 13.7429 22.5373 13.7429V11.7429ZM21.4421 11.9458C21.1141 12.084 20.8048 12.2974 20.5732 12.6132L22.186 13.7959C22.176 13.8096 22.1682 13.8154 22.1695 13.8144C22.1716 13.8129 22.1858 13.8027 22.2192 13.7886L21.4421 11.9458ZM20.5732 12.6132C20.3414 12.9293 20.2249 13.2953 20.2199 13.6781L22.2197 13.704C22.2197 13.7076 22.2188 13.7229 22.2116 13.7448C22.2043 13.7669 22.1942 13.7847 22.186 13.7959L20.5732 12.6132ZM20.2198 13.6911C20.2198 13.998 20.2911 14.3175 20.4718 14.6103L22.1738 13.5601C22.1936 13.5922 22.2061 13.6238 22.2131 13.6505C22.2198 13.6762 22.2198 13.6912 22.2198 13.6911H20.2198ZM20.4799 14.6233C20.6347 14.8658 20.837 15.0599 21.0672 15.2089L22.1537 13.5297C22.1469 13.5253 22.1469 13.5244 22.1507 13.5282C22.1547 13.5322 22.1603 13.5387 22.1657 13.5472L20.4799 14.6233ZM21.079 15.2164C21.2671 15.3344 21.4678 15.4292 21.6773 15.5035L22.3461 13.6187C22.262 13.5888 22.1952 13.5557 22.1419 13.5223L21.079 15.2164ZM21.6773 15.5035C21.8572 15.5674 22.0395 15.6214 22.224 15.6653L22.6872 13.7197C22.5734 13.6926 22.4597 13.659 22.3461 13.6187L21.6773 15.5035ZM22.2131 15.6626L22.8949 15.8331L23.38 13.8928L22.6981 13.7223L22.2131 15.6626ZM22.9107 15.8369C23.129 15.8877 23.3366 15.9558 23.5344 16.0409L24.3243 14.2035C24.0154 14.0707 23.6951 13.966 23.3641 13.889L22.9107 15.8369ZM23.5375 16.0422C23.711 16.1161 23.8563 16.2049 23.979 16.306L25.2504 14.7622C24.9707 14.5318 24.659 14.346 24.3212 14.2021L23.5375 16.0422ZM23.9834 16.3097C24.078 16.3867 24.15 16.4761 24.205 16.585L25.9903 15.6834C25.8086 15.3237 25.5586 15.013 25.246 14.7585L23.9834 16.3097ZM24.205 16.585C24.2401 16.6544 24.2752 16.7689 24.2752 16.9581H26.2752C26.2752 16.5175 26.192 16.0828 25.9903 15.6834L24.205 16.585ZM24.2752 16.9581C24.2752 17.2045 24.2154 17.3818 24.1183 17.5263L25.7787 18.6413C26.1172 18.1371 26.2752 17.564 26.2752 16.9581H24.2752ZM24.1202 17.5235C24.0234 17.6666 23.8673 17.8071 23.5992 17.9257L24.4086 19.7547C24.9644 19.5087 25.438 19.1449 25.7768 18.6441L24.1202 17.5235ZM23.6017 17.9246C23.351 18.0348 22.9999 18.1101 22.516 18.1101V20.1101C23.1969 20.1101 23.8377 20.0055 24.4061 19.7557L23.6017 17.9246ZM22.516 18.1101C22.0509 18.1101 21.6971 18.0378 21.4298 17.9255L20.6547 19.7691C21.2207 20.0071 21.8494 20.1101 22.516 20.1101V18.1101ZM21.4317 17.9263C21.1735 17.8171 21.0057 17.6749 20.8896 17.5083L19.2489 18.6522C19.6015 19.1579 20.0824 19.5271 20.6528 19.7683L21.4317 17.9263ZM20.8923 17.5123C20.7863 17.3587 20.705 17.1411 20.6921 16.8124L18.6936 16.8907C18.7186 17.5279 18.8881 18.1294 19.2462 18.6483L20.8923 17.5123ZM19.6928 17.8516H20.989V15.8516H19.6928V17.8516ZM19.9918 16.9261C20.0233 17.3481 20.1609 17.7637 20.4489 18.1163L21.9978 16.851C22.0013 16.8553 22.0015 16.8576 21.9994 16.8519C21.9968 16.8449 21.9896 16.8222 21.9862 16.777L19.9918 16.9261ZM20.4489 18.1163C20.7071 18.4323 21.0365 18.6564 21.4074 18.796L22.1118 16.9242C22.0424 16.898 22.0143 16.8712 21.9978 16.851L20.4489 18.1163ZM21.4107 18.7972C21.7608 18.9276 22.1299 18.9844 22.5053 18.9844V16.9844C22.3315 16.9844 22.2034 16.9583 22.1085 16.9229L21.4107 18.7972ZM22.5053 18.9844C22.8889 18.9844 23.2694 18.9275 23.626 18.7864L22.8903 16.9267C22.8161 16.956 22.6946 16.9844 22.5053 16.9844V18.9844ZM23.6313 18.7843C23.9782 18.6448 24.3009 18.4309 24.5504 18.119L22.9887 16.8696C22.9885 16.8699 22.9875 16.8711 22.9852 16.8732C22.9828 16.8755 22.9784 16.8792 22.9713 16.8843C22.9571 16.8943 22.9303 16.9106 22.885 16.9288L23.6313 18.7843ZM24.555 18.1132C24.8215 17.775 24.9529 17.3765 24.9577 16.9588L22.9578 16.9361C22.9577 16.9419 22.9572 16.9328 22.9633 16.915C22.9697 16.8967 22.9784 16.8826 22.984 16.8754L24.555 18.1132ZM24.9577 16.9349C24.9528 16.5445 24.8315 16.1459 24.5398 15.8161L23.0418 17.1413C23.0108 17.1062 22.9868 17.0648 22.9722 17.0236C22.9653 17.0044 22.9617 16.9885 22.9598 16.9771C22.9579 16.9659 22.9578 16.9598 22.9578 16.9599L24.9577 16.9349ZM24.5461 15.8232C24.3126 15.5542 24.0201 15.3708 23.7213 15.2448L22.9442 17.0876C23.0384 17.1273 23.0513 17.1522 23.0356 17.1342L24.5461 15.8232ZM23.7347 15.2505C23.4792 15.1384 23.1978 15.0462 22.8976 14.9698L22.4042 16.908C22.6249 16.9642 22.798 17.0236 22.9308 17.0818L23.7347 15.2505ZM22.9003 14.9705L22.0729 14.7574L21.5741 16.6943L22.4015 16.9073L22.9003 14.9705ZM22.0723 14.7573C21.5809 14.631 21.2672 14.4583 21.0712 14.2822L19.7349 15.7703C20.2349 16.2193 20.8682 16.5129 21.5747 16.6944L22.0723 14.7573ZM21.0765 14.287C20.9638 14.1844 20.8846 14.0478 20.8846 13.7727H18.8846C18.8846 14.5393 19.151 15.2384 19.7296 15.7655L21.0765 14.287ZM20.8846 13.7727C20.8846 13.5364 20.9445 13.3696 21.0439 13.2316L19.4213 12.0624C19.0567 12.5684 18.8846 13.1521 18.8846 13.7727H20.8846ZM21.0411 13.2355C21.161 13.0707 21.3331 12.9267 21.5915 12.8126L20.7842 10.9828C20.2377 11.2239 19.7729 11.5794 19.4241 12.0585L21.0411 13.2355ZM21.596 12.8107C21.8517 12.6963 22.1651 12.6278 22.555 12.6278V10.6278C21.927 10.6278 21.329 10.7393 20.7797 10.9848L21.596 12.8107ZM22.555 12.6278C22.9553 12.6278 23.2589 12.6974 23.4911 12.805L24.332 10.9904C23.7877 10.7382 23.1869 10.6278 22.555 10.6278V12.6278ZM23.4978 12.8081C23.7438 12.9199 23.9034 13.0584 24.0127 13.2142L25.65 12.0656C25.3142 11.5869 24.8606 11.2307 24.3254 10.9874L23.4978 12.8081ZM24.0147 13.2171C24.1139 13.3575 24.1721 13.5219 24.1759 13.7439L26.1756 13.7092C26.1653 13.1121 25.9938 12.5521 25.6479 12.0627L24.0147 13.2171ZM25.1758 12.7266H23.908V14.7266H25.1758V12.7266Z" fill="#2A2238" mask="url(#path-1-outside-1_7_4)"/>
</svg>
