<svg width="30" height="30" viewBox="0 0 30 30" fill="none" xmlns="http://www.w3.org/2000/svg">
<path d="M7.81894 14.5971C6.61986 14.2321 6.05497 13.9894 6.05497 13.3433C6.05497 12.6396 7.13316 12.5849 7.46373 12.5849C8.05159 12.5849 8.70466 12.7556 9.25521 13.0531C9.41247 13.138 9.59774 13.1538 9.76706 13.0968C9.93623 13.0397 10.0742 12.915 10.148 12.7524L10.2766 12.4685C10.4147 12.164 10.2967 11.8045 10.0051 11.6409C9.2789 11.2336 8.37375 11 7.52185 11C5.6479 11 4.38877 11.9744 4.38877 13.4246C4.38877 15.2349 5.93054 15.6931 7.16969 16.0613C8.43076 16.436 8.9574 16.6962 8.95386 17.3409C8.95386 18.2045 7.74227 18.2717 7.37096 18.2717C6.62141 18.2717 5.81795 17.9746 5.16665 17.4567C5.01465 17.3358 4.81637 17.29 4.62679 17.3319C4.43726 17.3738 4.27667 17.499 4.18982 17.6727L4.0681 17.9161C3.9347 18.1826 4.00179 18.5059 4.22996 18.6975C5.086 19.416 6.25574 19.8449 7.35928 19.8449C9.30962 19.8449 10.6201 18.8192 10.6201 17.2951C10.6274 15.4521 9.07021 14.978 7.81894 14.5971Z" fill="#2A2238"/>
<path d="M15.1184 11.0116C12.5473 11.0116 10.5333 12.9491 10.5333 15.4225C10.5333 17.9089 12.5473 19.8566 15.1184 19.8566C17.6829 19.8566 19.6919 17.9089 19.6919 15.4225C19.6919 12.9491 17.6829 11.0116 15.1184 11.0116ZM15.1184 18.318C13.4641 18.318 12.1182 17.0191 12.1182 15.4225C12.1182 13.8322 13.464 12.5385 15.1184 12.5385C16.7599 12.5385 18.0954 13.8322 18.0954 15.4225C18.0954 17.0191 16.7599 18.318 15.1184 18.318Z" fill="#2A2238"/>
<path d="M23.1985 14.5971C21.9996 14.232 21.4347 13.9893 21.4347 13.3433C21.4347 12.6396 22.513 12.5849 22.8436 12.5849C23.4315 12.5849 24.0845 12.7556 24.6351 13.0531C24.7923 13.138 24.9777 13.1538 25.1469 13.0968C25.3161 13.0398 25.4541 12.915 25.5278 12.7524L25.6565 12.4686C25.7946 12.1641 25.6766 11.8045 25.385 11.6409C24.6588 11.2336 23.7535 11 22.9018 11C21.0277 11 19.7687 11.9744 19.7687 13.4246C19.7687 15.235 21.3105 15.6931 22.5496 16.0613C23.8106 16.436 24.3372 16.6962 24.3338 17.3408C24.3338 18.2045 23.122 18.2717 22.7507 18.2717C22.0012 18.2717 21.1977 17.9746 20.5464 17.4567C20.3944 17.3358 20.196 17.29 20.0066 17.3319C19.817 17.3738 19.6563 17.4991 19.5695 17.6727L19.4478 17.9161C19.3145 18.1827 19.3815 18.5059 19.6098 18.6975C20.4659 19.416 21.6357 19.8449 22.739 19.8449C24.6894 19.8449 26 18.8192 26 17.2952C26.0071 15.4521 24.4499 14.978 23.1985 14.5971Z" fill="#2A2238"/>
<path fill-rule="evenodd" clip-rule="evenodd" d="M25 1.5H5C3.067 1.5 1.5 3.067 1.5 5V25C1.5 26.933 3.067 28.5 5 28.5H25C26.933 28.5 28.5 26.933 28.5 25V5C28.5 3.067 26.933 1.5 25 1.5ZM5 0C2.23858 0 0 2.23858 0 5V25C0 27.7614 2.23858 30 5 30H25C27.7614 30 30 27.7614 30 25V5C30 2.23858 27.7614 0 25 0H5Z" fill="#2A2238"/>
</svg>
