<svg width="28" height="28" viewBox="0 0 28 28" fill="none" xmlns="http://www.w3.org/2000/svg">
<path d="M18.886 10.682C18.634 6.776 17.052 2.968 14.084 0C11.088 2.996 9.436 6.804 9.114 10.682C10.906 11.634 12.558 12.866 14 14.364C15.442 12.88 17.094 11.648 18.886 10.682ZM14.07 4.466C14.952 5.908 15.568 7.518 15.89 9.198C15.232 9.618 14.616 10.08 14.014 10.57C13.426 10.094 12.796 9.632 12.152 9.212C12.502 7.532 13.146 5.922 14.07 4.466ZM14 18.83C12.852 17.08 11.396 15.554 9.716 14.35C9.534 14.224 9.338 14.126 9.156 13.986C9.338 14.112 9.534 14.224 9.702 14.336C6.972 12.362 3.626 11.2 0 11.2C0 18.648 4.704 24.948 11.242 27.286C12.124 27.608 13.048 27.846 14 28C14.952 27.832 15.862 27.594 16.758 27.286C23.296 24.948 28 18.648 28 11.2C22.148 11.2 17.01 14.238 14 18.83ZM15.848 24.64C15.232 24.85 14.616 25.018 13.986 25.158C13.37 25.032 12.768 24.864 12.194 24.654C7.588 23.002 4.214 19.068 3.164 14.364C4.704 14.728 6.174 15.358 7.532 16.226L7.504 16.24C7.686 16.366 7.868 16.492 8.05 16.59L8.148 16.646C9.534 17.654 10.724 18.9 11.662 20.356L14 23.94L16.338 20.37C17.304 18.9 18.508 17.64 19.88 16.646L19.978 16.576C20.104 16.506 20.23 16.422 20.356 16.338L20.342 16.31C21.714 15.4 23.24 14.728 24.836 14.35C23.786 19.068 20.426 23.002 15.848 24.64ZM9.786 14.392C9.758 14.378 9.73 14.35 9.716 14.336C9.716 14.336 9.73 14.336 9.73 14.35C9.744 14.364 9.758 14.378 9.786 14.392Z" fill="#2A2238"/>
</svg>
