<svg width="27" height="29" viewBox="0 0 27 29" fill="none" xmlns="http://www.w3.org/2000/svg">
<path d="M17.7028 25.0695H7.37619V15.2887C9.23498 14.7871 10.4889 13.4152 11.4626 12.353C12.687 11.0105 13.3952 10.3172 14.7524 10.3172H17.7028V25.0695ZM10.3267 0.0200195C7.53846 0.0200195 5.14858 1.65753 4.0274 4.01791C1.69652 4.79979 0 6.98314 0 9.57956C0 12.3235 1.8883 14.6101 4.42571 15.274V28.02H20.6533V25.0695H23.6038C25.2266 25.0695 26.5543 23.7418 26.5543 22.1191V13.2676C26.5543 11.6449 25.2266 10.3172 23.6038 10.3172H21.3024C21.8188 9.44678 22.1286 8.44362 22.1286 7.3667C22.1286 4.10643 19.4879 1.46575 16.2276 1.46575C15.726 1.46575 15.254 1.53951 14.7819 1.65753C13.5722 0.654372 12.0379 0.0200195 10.3267 0.0200195ZM5.90095 12.53C4.27819 12.53 2.95047 11.2023 2.95047 9.57956C2.95047 8.3256 3.76185 7.21918 4.97155 6.80611L6.15174 6.4078L6.68282 5.28662C7.37619 3.85564 8.76291 2.97049 10.3267 2.97049C11.4921 2.97049 12.3772 3.48683 12.8936 3.9294L14.0443 4.8883C14.0443 4.8883 14.9884 4.41623 16.2129 4.41623C17.8356 4.41623 19.1633 5.74394 19.1633 7.3667H14.7376C9.83983 7.3667 9.07271 12.53 5.90095 12.53ZM20.6533 22.1191V13.2676H23.6038V22.1191H20.6533Z" fill="#2A2238"/>
</svg>
