<svg width="28" height="17" viewBox="0 0 28 17" fill="none" xmlns="http://www.w3.org/2000/svg">
<path d="M12.922 0C10.598 0 8.414 0.924 6.818 2.422C6.356 1.022 5.054 0 3.5 0C1.568 0 0 1.568 0 3.5C0 5.432 1.568 7 3.5 7C3.794 7 4.074 6.958 4.354 6.888C4.284 7.238 4.228 7.602 4.214 7.98C3.962 13.132 8.344 17.332 13.566 16.758C17.136 16.366 20.118 13.594 20.832 10.08C21.042 9.086 21.042 8.12 20.916 7.196C20.79 6.356 21.448 5.614 22.302 5.614H28V0H12.922ZM3.5 4.2C3.108 4.2 2.8 3.892 2.8 3.5C2.8 3.108 3.108 2.8 3.5 2.8C3.892 2.8 4.2 3.108 4.2 3.5C4.2 3.892 3.892 4.2 3.5 4.2ZM12.6 12.6C10.276 12.6 8.4 10.724 8.4 8.4C8.4 6.076 10.276 4.2 12.6 4.2C14.924 4.2 16.8 6.076 16.8 8.4C16.8 10.724 14.924 12.6 12.6 12.6Z" fill="#2A2238"/>
<path d="M12.6 11.2C14.1464 11.2 15.4 9.9464 15.4 8.4C15.4 6.8536 14.1464 5.6 12.6 5.6C11.0536 5.6 9.8 6.8536 9.8 8.4C9.8 9.9464 11.0536 11.2 12.6 11.2Z" fill="#2A2238"/>
</svg>
