<svg width="28" height="26" viewBox="0 0 28 26" fill="none" xmlns="http://www.w3.org/2000/svg">
<path d="M27.8615 8.24865L26.391 2.12868C26.0829 0.868279 24.9905 0 23.7161 0H4.26386C3.00346 0 1.8971 0.882284 1.60301 2.12868L0.132532 8.24865C-0.203576 9.67711 0.104523 11.1336 1.00081 12.282C1.11285 12.436 1.2669 12.548 1.39294 12.6881V22.4072C1.39294 23.9477 2.65334 25.2081 4.19384 25.2081H23.8001C25.3406 25.2081 26.601 23.9477 26.601 22.4072V12.6881C26.7271 12.562 26.8811 12.436 26.9932 12.296C27.8895 11.1476 28.2116 9.67711 27.8615 8.24865ZM23.6741 2.7869L25.1446 8.90686C25.2846 9.49505 25.1586 10.0832 24.7945 10.5454C24.5984 10.7975 24.1783 11.2036 23.478 11.2036C22.6238 11.2036 21.8815 10.5174 21.7835 9.60709L20.9712 2.8009L23.6741 2.7869ZM15.3974 2.8009H18.1423L18.8986 9.13094C18.9686 9.67711 18.8005 10.2233 18.4364 10.6294C18.1283 10.9935 17.6802 11.2036 17.106 11.2036C16.1677 11.2036 15.3974 10.3773 15.3974 9.36901V2.8009ZM9.08141 9.13094L9.85166 2.8009H12.5965V9.36901C12.5965 10.3773 11.8263 11.2036 10.79 11.2036C10.3138 11.2036 9.87967 10.9935 9.54356 10.6294C9.19345 10.2233 9.02539 9.67711 9.08141 9.13094ZM2.84941 8.90686L4.26386 2.8009H7.02275L6.21049 9.60709C6.09845 10.5174 5.37022 11.2036 4.51594 11.2036C3.82972 11.2036 3.39558 10.7975 3.21352 10.5454C2.8354 10.0972 2.70936 9.49505 2.84941 8.90686ZM4.19384 22.4072V13.9625C4.30587 13.9765 4.40391 14.0045 4.51594 14.0045C5.73433 14.0045 6.84069 13.5003 7.65295 12.6741C8.49322 13.5143 9.61358 14.0045 10.888 14.0045C12.1064 14.0045 13.1987 13.5003 14.011 12.7021C14.8373 13.5003 15.9576 14.0045 17.218 14.0045C18.3944 14.0045 19.5148 13.5143 20.355 12.6741C21.1673 13.5003 22.2737 14.0045 23.492 14.0045C23.6041 14.0045 23.7021 13.9765 23.8142 13.9625V22.4072H4.19384Z" fill="#2A2238"/>
</svg>
