<svg xmlns="http://www.w3.org/2000/svg" fill="none" viewBox="0 0 28 28">
  <path fill="#2A2238" d="M21 14c0 1.8565-.7375 3.637-2.0503 4.9497C17.637 20.2625 15.8565 21 14 21s-3.637-.7375-4.94975-2.0503C7.7375 17.637 7 15.8565 7 14s.7375-3.637 2.05025-4.94975C10.363 7.7375 12.1435 7 14 7s3.637.7375 4.9497 2.05025C20.2625 10.363 21 12.1435 21 14ZM14 0c.2321 0 .4546.0921873.6187.256282.1641.164094.2563.386654.2563.618718v3.5c0 .23206-.0922.45462-.2563.61872-.1641.16409-.3866.25628-.6187.25628-.2321 0-.4546-.09219-.6187-.25628-.1641-.1641-.2563-.38666-.2563-.61872v-3.5c0-.232064.0922-.454624.2563-.618718C13.5454.0921873 13.7679 0 14 0Zm0 22.75c.2321 0 .4546.0922.6187.2563.1641.1641.2563.3866.2563.6187v3.5c0 .2321-.0922.4546-.2563.6187-.1641.1641-.3866.2563-.6187.2563-.2321 0-.4546-.0922-.6187-.2563-.1641-.1641-.2563-.3866-.2563-.6187v-3.5c0-.2321.0922-.4546.2563-.6187.1641-.1641.3866-.2563.6187-.2563ZM28 14c0 .2321-.0922.4546-.2563.6187-.1641.1641-.3866.2563-.6187.2563h-3.5c-.2321 0-.4546-.0922-.6187-.2563-.1641-.1641-.2563-.3866-.2563-.6187 0-.2321.0922-.4546.2563-.6187.1641-.1641.3866-.2563.6187-.2563h3.5c.2321 0 .4546.0922.6187.2563.1641.1641.2563.3866.2563.6187ZM5.25 14c0 .2321-.09219.4546-.25628.6187-.1641.1641-.38666.2563-.61872.2563h-3.5c-.232064 0-.454624-.0922-.618718-.2563C.0921873 14.4546 0 14.2321 0 14c0-.2321.0921873-.4546.256282-.6187.164094-.1641.386654-.2563.618718-.2563h3.5c.23206 0 .45462.0922.61872.2563.16409.1641.25628.3866.25628.6187Zm18.6497-9.89975c.1641.16409.2562.38661.2562.61863 0 .23201-.0921.45453-.2562.61862l-2.4744 2.47625c-.0814.08124-.178.14566-.2842.18958-.1063.04392-.2201.06649-.3351.06641-.2322-.00017-.4548-.09256-.6189-.25687-.0812-.08135-.1456-.17791-.1896-.28416-.0439-.10625-.0664-.22011-.0664-.33508.0002-.23219.0926-.45481.2569-.61888l2.4745-2.4745c.1641-.16404.3866-.25619.6186-.25619.232 0 .4546.09215.6186.25619ZM7.812 20.188c.16404.1641.25619.3866.25619.6186 0 .232-.09215.4546-.25619.6187l-2.4745 2.4744c-.16503.1594-.38605.2476-.61548.2456-.22942-.002-.44888-.094-.61111-.2562-.16223-.1622-.25426-.3817-.25625-.6111-.00199-.2294.0862-.4505.24559-.6155l2.4745-2.4745c.16409-.164.38661-.2562.61862-.2562.23202 0 .45454.0922.61863.2562Zm16.0877 3.7117c-.164.1641-.3866.2562-.6186.2562-.232 0-.4545-.0921-.6186-.2562l-2.4745-2.4744c-.1594-.1651-.2476-.3861-.2456-.6155.002-.2294.094-.4489.2563-.6111.1622-.1623.3817-.2543.6111-.2563.2294-.002.4504.0862.6155.2456l2.4744 2.4745c.1641.1641.2562.3866.2562.6186 0 .232-.0921.4546-.2562.6186ZM7.812 7.81375c-.16409.16404-.38661.25619-.61863.25619-.23201 0-.45453-.09215-.61862-.25619L4.10025 5.3375c-.08357-.08072-.15023-.17727-.19609-.28402-.04586-.10675-.06999-.22157-.071-.33775-.00101-.11619.02113-.23141.06512-.33894.044-.10753.10897-.20523.19112-.28739.08216-.08215.17986-.14712.28739-.19112.10753-.04399.22275-.06613.33894-.06512.11618.00101.231.02514.33775.071.10675.04586.2033.11252.28402.19609l2.4745 2.4745c.08149.08128.14614.17784.19025.28414.04411.10631.06681.22027.06681.33536s-.0227.22906-.06681.33536c-.04411.1063-.10876.20286-.19025.28414Z"/>
</svg>
