<svg width="29" height="20" viewBox="0 0 29 20" fill="none" xmlns="http://www.w3.org/2000/svg">
<path fill-rule="evenodd" clip-rule="evenodd" d="M2.34906 1.58491C2.20317 1.58491 2.08491 1.70317 2.08491 1.84906V17.6981C2.08491 17.844 2.20317 17.9623 2.34906 17.9623H26.6509C26.7968 17.9623 26.9151 17.844 26.9151 17.6981V1.84906C26.9151 1.70317 26.7968 1.58491 26.6509 1.58491H2.34906ZM0.5 1.84906C0.5 0.827851 1.32785 0 2.34906 0H26.6509C27.6721 0 28.5 0.827851 28.5 1.84906V17.6981C28.5 18.7193 27.6721 19.5472 26.6509 19.5472H2.34906C1.32785 19.5472 0.5 18.7193 0.5 17.6981V1.84906ZM5.95667 4.52383C6.23007 4.18207 6.72876 4.12666 7.07051 4.40007L13.127 9.24528L7.07051 14.0905C6.72876 14.3639 6.23007 14.3085 5.95667 13.9667C5.68327 13.625 5.73868 13.1263 6.08043 12.8529L10.5899 9.24528L6.08043 5.63767C5.73868 5.36427 5.68327 4.86558 5.95667 4.52383ZM13.1792 14.5283C13.1792 14.0906 13.534 13.7358 13.9717 13.7358H22.4245C22.8622 13.7358 23.217 14.0906 23.217 14.5283C23.217 14.966 22.8622 15.3208 22.4245 15.3208H13.9717C13.534 15.3208 13.1792 14.966 13.1792 14.5283Z" fill="#2A2238"/>
</svg>
