<svg xmlns="http://www.w3.org/2000/svg" fill="none" viewBox="0 0 23 28">
  <path fill="#2A2238" d="M8.82743 25.3887c.11578 1.6671 1.69567 2.9549 3.39847 2.5292l.4649-.1158c.4264-.0996.8185-.3115 1.1355-.6137.3169-.3023.5472-.6838.667-1.1051.3919-1.4534.9494-4.4743.1104-8.033.2423.0356.5077.0659.7891.0908 1.27.1158 2.9727.1265 4.4814-.3758.9226-.3081 1.7705-1.2112 2.1374-2.2656.1837-.5105.2417-1.0576.1692-1.5953-.0726-.5376-.2736-1.0498-.586-1.4933.1033-.2101.1835-.431.2458-.6448.1371-.4809.2013-1.0117.2013-1.5246 0-.51656-.0642-1.04379-.2013-1.52648-.0699-.24849-.1654-.48905-.285-.71781.301-.68931.1906-1.46055-.0053-2.04655-.2008-.57802-.4943-1.11946-.8692-1.60305.0961-.27251.1353-.5575.1353-.82824-.0076-.57127-.1628-1.13086-.4506-1.62441C19.7709.849614 18.59 0 16.921 0h-6.234C9.60936 0 8.78112.142493 8.07578.386512c-.60655.222084-1.18612.511869-1.72772.863858l-.0855.05166c-.8977.5486-1.77938 1.08651-3.68344 1.28778C1.21475 2.73408 0 3.83662 0 5.3417v7.1246c0 1.5158 1.2201 2.5524 2.41704 2.8784 1.5122.4132 2.80354 1.4018 3.79743 2.5114.99745 1.115 1.62798 2.2799 1.85063 2.9176.35445 1.0241.63409 2.743.76233 4.615Z"/>
</svg>
