<svg width="32" height="18" viewBox="0 0 32 18" fill="none" xmlns="http://www.w3.org/2000/svg">
<path d="M0 3.2933V5.5333L3.99667 4.19997V17H6.66112V0.999971H6.32806L0 3.2933ZM31.6803 12.16C31.4938 11.7866 31.214 11.4533 30.841 11.1733C30.4679 10.8933 30.0283 10.6533 29.4954 10.4666C28.9625 10.28 28.363 10.1066 27.6969 9.95997C27.2306 9.86664 26.8443 9.75997 26.5379 9.65331C26.2315 9.54664 25.9917 9.43997 25.8052 9.31997C25.6187 9.19997 25.4988 9.06664 25.4321 8.91997C25.3655 8.7733 25.3256 8.59997 25.3256 8.39997C25.3256 8.21331 25.3655 8.02664 25.4455 7.85331C25.5254 7.67997 25.6453 7.51997 25.8052 7.39997C25.965 7.26664 26.1649 7.15997 26.4047 7.07997C26.6445 6.99997 26.9376 6.95997 27.2573 6.95997C27.5903 6.95997 27.8834 7.0133 28.1366 7.10664C28.3897 7.19997 28.6028 7.33331 28.776 7.49331C28.9492 7.65331 29.0691 7.83997 29.1624 8.0533C29.2423 8.26664 29.2956 8.47997 29.2956 8.70664H31.8934C31.8934 8.18664 31.7868 7.70664 31.5737 7.2533C31.3605 6.79997 31.0541 6.41331 30.6545 6.07997C30.2548 5.74664 29.7752 5.49331 29.2023 5.29331C28.6295 5.09331 27.9767 4.99997 27.2573 4.99997C26.5779 4.99997 25.9517 5.09331 25.4055 5.27997C24.8593 5.46664 24.3797 5.71997 23.9933 6.03997C23.607 6.35997 23.3139 6.7333 23.1007 7.15997C22.8876 7.58664 22.7943 8.02664 22.7943 8.50664C22.7943 8.98664 22.9009 9.42664 23.1007 9.78664C23.3006 10.16 23.5804 10.48 23.9534 10.76C24.3131 11.04 24.7527 11.2666 25.259 11.4666C25.7652 11.6533 26.3381 11.8133 26.9509 11.9466C27.4704 12.0533 27.8968 12.1733 28.2165 12.2933C28.5362 12.4133 28.7893 12.5466 28.9759 12.68C29.149 12.8133 29.2689 12.9733 29.3356 13.1333C29.4022 13.2933 29.4288 13.4666 29.4288 13.6533C29.4288 14.08 29.2556 14.4133 28.8959 14.68C28.5362 14.9466 28.0167 15.0666 27.3372 15.0666C27.0441 15.0666 26.7644 15.04 26.4846 14.96C26.2048 14.8933 25.9517 14.7866 25.7386 14.64C25.5121 14.4933 25.3389 14.2933 25.1923 14.0533C25.0458 13.8133 24.9659 13.5066 24.9525 13.16H22.4346C22.4346 13.64 22.5412 14.1066 22.7544 14.56C22.9675 15.0133 23.2739 15.4266 23.6869 15.8C24.0999 16.16 24.6062 16.4533 25.219 16.68C25.8318 16.9066 26.5246 17.0133 27.3239 17.0133C28.03 17.0133 28.6694 16.9333 29.2423 16.76C29.8152 16.5866 30.3081 16.3466 30.7211 16.04C31.1341 15.7333 31.4405 15.36 31.6669 14.9333C31.8934 14.5066 32 14.04 32 13.52C31.9734 12.9866 31.8801 12.5333 31.6803 12.16ZM18.4113 2.39997C17.9584 1.86664 17.4122 1.46664 16.7727 1.22664C16.1465 0.986639 15.4271 0.866638 14.6545 0.866638C13.8818 0.866638 13.1757 0.986639 12.5362 1.22664C11.8968 1.46664 11.3505 1.85331 10.8976 2.39997C10.4446 2.94664 10.0983 3.63997 9.84513 4.51997C9.60533 5.38664 9.47211 6.45331 9.47211 7.70664V10.2666C9.47211 11.52 9.59201 12.5866 9.84513 13.4533C10.0983 14.3333 10.4446 15.04 10.9109 15.5866C11.3639 16.1333 11.9101 16.5333 12.5495 16.7733C13.189 17.0133 13.8951 17.1466 14.6678 17.1466C15.4538 17.1466 16.1599 17.0266 16.786 16.7733C17.4255 16.5333 17.9584 16.1333 18.4113 15.5866C18.8643 15.04 19.2107 14.3333 19.4505 13.4533C19.6903 12.5866 19.8235 11.52 19.8235 10.2666V7.70664C19.8235 6.45331 19.7036 5.38664 19.4505 4.51997C19.2107 3.63997 18.8643 2.93331 18.4113 2.39997ZM17.1857 10.6266C17.1857 11.4266 17.1324 12.1066 17.0258 12.6666C16.9192 13.2266 16.7594 13.68 16.5462 14.0266C16.3331 14.3733 16.0666 14.6266 15.7602 14.7866C15.4538 14.9466 15.0808 15.0266 14.6678 15.0266C14.2681 15.0266 13.8951 14.9466 13.5754 14.7866C13.2556 14.6266 12.9892 14.3733 12.776 14.0266C12.5629 13.68 12.3897 13.2266 12.2698 12.6666C12.1499 12.1066 12.0966 11.4266 12.0966 10.6266V7.29331C12.0966 6.49331 12.1499 5.8133 12.2698 5.26664C12.3897 4.71997 12.5495 4.27997 12.776 3.9333C12.9892 3.59997 13.2556 3.35997 13.5754 3.19997C13.8951 3.05331 14.2548 2.9733 14.6545 2.9733C15.0674 2.9733 15.4271 3.05331 15.7336 3.19997C16.0533 3.34664 16.3197 3.58664 16.5329 3.9333C16.746 4.26664 16.9192 4.70664 17.0258 5.2533C17.1324 5.79997 17.199 6.47997 17.199 7.27997V10.6266H17.1857Z" fill="#2A2238"/>
</svg>
