<svg width="32" height="32" viewBox="0 0 32 32" fill="none" xmlns="http://www.w3.org/2000/svg">
<path d="M15.48 17.2933C15.2667 16.9733 15 16.68 14.6533 16.4267C14.32 16.1733 13.9067 15.96 13.4133 15.7867C13.8133 15.6 14.1733 15.3867 14.48 15.12C14.7867 14.8533 15.04 14.5733 15.24 14.2667C15.44 13.96 15.6 13.6533 15.6933 13.32C15.8 13 15.84 12.6667 15.84 12.3467C15.84 11.6133 15.72 10.96 15.4667 10.4C15.2267 9.84 14.88 9.37333 14.4267 8.98667C13.9867 8.61333 13.4533 8.32 12.8267 8.13333C12.2267 7.96 11.5333 7.86667 10.7867 7.86667C10.0533 7.86667 9.37333 7.97333 8.76 8.18667C8.13333 8.41333 7.6 8.72 7.16 9.10667C6.72 9.49333 6.36 9.94667 6.12 10.48C5.85333 11 5.73333 11.5867 5.73333 12.2H8.37333C8.37333 11.8533 8.44 11.5467 8.56 11.28C8.68 11.0133 8.85333 10.7733 9.06667 10.5867C9.29333 10.4 9.54667 10.2533 9.84 10.1467C10.1333 10.04 10.4533 9.98667 10.8133 9.98667C11.6267 9.98667 12.2267 10.2 12.6267 10.6133C13.0267 11.0267 13.2133 11.6133 13.2133 12.3733C13.2133 12.7333 13.16 13.0667 13.0533 13.36C12.9467 13.6533 12.7733 13.9067 12.5467 14.12C12.32 14.3333 12.04 14.4933 11.7067 14.6133C11.3733 14.7333 10.9733 14.7867 10.52 14.7867H8.96V16.88H10.5333C10.9867 16.88 11.3867 16.9333 11.7467 17.0267C12.1067 17.1333 12.4133 17.28 12.6667 17.4933C12.92 17.7067 13.12 17.9733 13.2533 18.3067C13.3867 18.6267 13.4667 19.0267 13.4667 19.4667C13.4667 20.2933 13.2267 20.92 12.76 21.36C12.2933 21.8 11.64 22.0133 10.8267 22.0133C10.44 22.0133 10.08 21.96 9.76 21.84C9.44 21.7333 9.17333 21.5733 8.94667 21.36C8.72 21.1467 8.54667 20.9067 8.42667 20.6133C8.30667 20.32 8.24 20 8.24 19.6533H5.58667C5.58667 20.3867 5.73333 21.0267 6.01333 21.5867C6.29333 22.1467 6.68 22.6133 7.16 22.9867C7.64 23.36 8.18667 23.64 8.81333 23.8267C9.44 24.0133 10.0933 24.1067 10.7867 24.1067C11.5467 24.1067 12.24 24 12.8933 23.8C13.5467 23.6 14.1067 23.2933 14.5733 22.8933C15.0533 22.4933 15.4267 22.0133 15.6933 21.4267C15.96 20.8533 16.0933 20.1867 16.0933 19.4533C16.0933 19.0667 16.04 18.68 15.9467 18.3067C15.84 17.9733 15.6933 17.6267 15.48 17.2933ZM27.8267 19.16C27.64 18.7867 27.36 18.4533 26.9867 18.1733C26.6133 17.8933 26.1733 17.6533 25.64 17.4667C25.1067 17.28 24.5067 17.1067 23.84 16.96C23.3733 16.8667 22.9867 16.76 22.68 16.6533C22.3733 16.5467 22.1333 16.44 21.9467 16.32C21.76 16.2 21.64 16.0667 21.5733 15.92C21.5067 15.7733 21.4667 15.6 21.4667 15.4C21.4667 15.2 21.5067 15.0267 21.5867 14.8533C21.6667 14.68 21.7867 14.52 21.9467 14.4C22.1067 14.2667 22.3067 14.16 22.5467 14.08C22.7867 14 23.08 13.96 23.4 13.96C23.7333 13.96 24.0267 14.0133 24.28 14.1067C24.5333 14.2 24.7467 14.3333 24.92 14.4933C25.0933 14.6533 25.2133 14.84 25.3067 15.0533C25.3867 15.2667 25.44 15.48 25.44 15.7067H28.04C28.04 15.1867 27.9333 14.7067 27.72 14.2533C27.5067 13.8 27.2 13.4133 26.8 13.08C26.4 12.7467 25.92 12.4933 25.3467 12.2933C24.7733 12.0933 24.12 12 23.4 12C22.72 12 22.0933 12.0933 21.5467 12.28C21 12.4667 20.52 12.72 20.1333 13.04C19.7467 13.36 19.4533 13.7333 19.24 14.16C19.0267 14.5867 18.9333 15.0267 18.9333 15.5067C18.9333 15.9867 19.04 16.4133 19.24 16.7867C19.44 17.16 19.7333 17.48 20.0933 17.76C20.4533 18.04 20.8933 18.2667 21.4 18.4667C21.9067 18.6533 22.48 18.8133 23.0933 18.9467C23.6133 19.0533 24.04 19.1733 24.36 19.2933C24.68 19.4133 24.9333 19.5467 25.12 19.68C25.2933 19.8133 25.4133 19.9733 25.48 20.1333C25.5467 20.2933 25.5733 20.4667 25.5733 20.6533C25.5733 21.08 25.4 21.4133 25.04 21.68C24.68 21.9467 24.16 22.0667 23.48 22.0667C23.1867 22.0667 22.9067 22.04 22.6267 21.96C22.3467 21.8933 22.0933 21.7867 21.88 21.64C21.6533 21.4933 21.48 21.2933 21.3333 21.0533C21.1867 20.8133 21.1067 20.5067 21.0933 20.16H18.5733C18.5733 20.64 18.68 21.1067 18.8933 21.56C19.1067 22.0133 19.4133 22.4267 19.8267 22.8C20.24 23.16 20.7467 23.4533 21.36 23.68C21.9733 23.9067 22.6667 24.0133 23.4667 24.0133C24.1733 24.0133 24.8133 23.9333 25.3867 23.76C25.96 23.5867 26.4533 23.3467 26.8667 23.04C27.28 22.7333 27.5867 22.36 27.8133 21.9333C28.04 21.5067 28.1467 21.04 28.1467 20.52C28.12 19.9867 28.0267 19.5333 27.8267 19.16Z" fill="#2A2238"/>
</svg>
