<svg width="25" height="28" viewBox="0 0 25 28" fill="none" xmlns="http://www.w3.org/2000/svg">
<path d="M16.0076 0H8.00381V2.66794H16.0076V0ZM10.6717 17.3416H13.3397V9.33778H10.6717V17.3416ZM21.3835 8.51072L23.2778 6.61648C22.7041 5.93616 22.0772 5.29585 21.3969 4.73559L19.5026 6.62982C17.435 4.9757 14.8337 3.98857 12.0057 3.98857C5.37589 3.98857 0 9.36446 0 15.9943C0 22.6241 5.36255 28 12.0057 28C18.6489 28 24.0114 22.6241 24.0114 15.9943C24.0114 13.1796 23.0243 10.5784 21.3835 8.51072ZM12.0057 25.3454C6.84326 25.3454 2.66794 21.1701 2.66794 16.0076C2.66794 10.8452 6.84326 6.66984 12.0057 6.66984C17.1682 6.66984 21.3435 10.8452 21.3435 16.0076C21.3435 21.1701 17.1682 25.3454 12.0057 25.3454Z" fill="#2A2238"/>
</svg>
