<svg width="28" height="16" viewBox="0 0 28 16" fill="none" xmlns="http://www.w3.org/2000/svg">
<path d="M20.3636 0H7.63636C3.42364 0 0 3.42364 0 7.63636C0 11.8491 3.42364 15.2727 7.63636 15.2727H20.3636C24.5764 15.2727 28 11.8491 28 7.63636C28 3.42364 24.5764 0 20.3636 0ZM20.3636 12.7273H7.63636C4.82364 12.7273 2.54545 10.4491 2.54545 7.63636C2.54545 4.82364 4.82364 2.54545 7.63636 2.54545H20.3636C23.1764 2.54545 25.4545 4.82364 25.4545 7.63636C25.4545 10.4491 23.1764 12.7273 20.3636 12.7273ZM7.63636 3.81818C5.52364 3.81818 3.81818 5.52364 3.81818 7.63636C3.81818 9.74909 5.52364 11.4545 7.63636 11.4545C9.74909 11.4545 11.4545 9.74909 11.4545 7.63636C11.4545 5.52364 9.74909 3.81818 7.63636 3.81818Z" fill="#2A2238"/>
</svg>
