<svg width="32" height="32" viewBox="0 0 32 32" fill="none" xmlns="http://www.w3.org/2000/svg">
<path d="M16 30.6667H14.6667V21.9067C13.24 23.2 11.36 24 9.33333 24C5 24 1.33333 20.3333 1.33333 16V14.6667H10.0933C8.8 13.24 8 11.36 8 9.33333C8 5 11.6667 1.33333 16 1.33333H17.3333V10.0933C18.76 8.8 20.64 8 22.6667 8C27 8 30.6667 11.6667 30.6667 16V17.3333H21.9067C23.2 18.76 24 20.64 24 22.6667C24 27 20.3333 30.6667 16 30.6667ZM17.3333 17.5067V27.8267C19.6 27.2133 21.3333 25.1067 21.3333 22.6667C21.3333 20.2267 19.6 18.12 17.3333 17.5067ZM4.17333 17.3333C4.78667 19.6 6.89333 21.3333 9.33333 21.3333C11.7733 21.3333 13.88 19.6 14.4933 17.3333H4.17333ZM17.5067 14.6667H27.8267C27.2133 12.4 25.0933 10.6667 22.6667 10.6667C20.24 10.6667 18.12 12.4 17.5067 14.6667ZM14.6667 4.17333C12.4 4.78667 10.6667 6.90667 10.6667 9.33333C10.6667 11.76 12.4 13.88 14.6667 14.4933V4.17333Z" fill="#2A2238"/>
</svg>
