<svg width="28" height="28" viewBox="0 0 28 28" fill="none" xmlns="http://www.w3.org/2000/svg">
<path fill-rule="evenodd" clip-rule="evenodd" d="M8.7499 0C9.71638 0 10.4999 0.783491 10.4999 1.74998V3.49995H11.7812C11.8018 3.49959 11.8225 3.49958 11.8432 3.49995H15.7498C16.7163 3.49995 17.4998 4.28344 17.4998 5.24993C17.4998 6.21641 16.7163 6.9999 15.7498 6.9999H13.2613C12.6284 9.95295 11.6037 12.76 10.2445 15.3641C10.7533 15.9839 11.2867 16.5828 11.8433 17.1593C12.5145 17.8547 12.495 18.9626 11.7996 19.6338C11.1042 20.305 9.99639 20.2855 9.32515 19.5901C8.99421 19.2473 8.67057 18.8974 8.35447 18.5406C6.80557 20.8424 4.9767 22.9393 2.91708 24.7828C2.19691 25.4273 1.09059 25.366 0.446024 24.6459C-0.198538 23.9257 -0.137252 22.8194 0.58291 22.1748C2.7058 20.2748 4.55369 18.0752 6.06033 15.6429C5.08654 14.2621 4.21512 12.8037 3.45722 11.2787C3.0271 10.4132 3.38005 9.36284 4.24555 8.93273C5.11105 8.50261 6.16136 8.85556 6.59148 9.72106C7.00027 10.5436 7.44607 11.3447 7.92671 12.1221C8.65713 10.4871 9.2442 8.77441 9.67208 6.9999H1.74999C0.783508 6.9999 1.66983e-05 6.21641 1.66983e-05 5.24993C1.66983e-05 4.28344 0.783508 3.49995 1.74999 3.49995H6.99992V1.74998C6.99992 0.783491 7.78341 0 8.7499 0ZM19.2498 10.4999C19.9126 10.4999 20.5185 10.8744 20.815 11.4672L26.0492 21.9356C26.0605 21.9571 26.0714 21.9789 26.0819 22.001L27.8149 25.467C28.2471 26.3315 27.8967 27.3826 27.0323 27.8149C26.1678 28.2471 25.1167 27.8967 24.6844 27.0323L23.4181 24.4997H15.0814L13.8151 27.0323C13.3829 27.8967 12.3317 28.2471 11.4672 27.8149C10.6028 27.3826 10.2524 26.3315 10.6846 25.467L12.4176 22.001C12.4281 21.9789 12.439 21.9571 12.4503 21.9356L17.6845 11.4672C17.981 10.8744 18.5869 10.4999 19.2498 10.4999ZM16.8313 20.9997H21.6682L19.2498 16.1629L16.8313 20.9997Z" fill="#2A2238"/>
</svg>
