<svg width="28" height="28" viewBox="0 0 28 28" fill="none" xmlns="http://www.w3.org/2000/svg">
<path fill-rule="evenodd" clip-rule="evenodd" d="M14.0003 28C21.7325 28 28 21.7319 28 13.9997C28 6.26778 21.7325 0 14.0003 0C6.26816 0 0 6.26788 0 13.9997C0 21.7319 6.26806 28 14.0003 28ZM4.93357 15.7999C5.92836 15.7999 6.73429 14.9937 6.73429 13.9996C6.73429 13.0059 5.92836 12.2 4.93357 12.2C3.93996 12.2 3.13403 13.0059 3.13403 13.9996C3.13403 14.9938 3.93996 15.7999 4.93357 15.7999ZM19.4335 23.4108C18.5725 23.9073 17.4722 23.6122 16.975 22.752C16.478 21.8911 16.7729 20.7907 17.6339 20.2936C18.4947 19.7965 19.5952 20.0909 20.0922 20.9518C20.5893 21.8127 20.2943 22.9137 19.4335 23.4108ZM19.4334 4.58973C20.2948 5.08629 20.5892 6.18698 20.0921 7.04803C19.5957 7.90888 18.4947 8.20383 17.6338 7.70678C16.7728 7.20973 16.4779 6.10914 16.9749 5.24829C17.4722 4.38763 18.573 4.09268 19.4334 4.58973ZM19.1132 13.5454C18.8833 10.9228 16.6824 8.86683 14.0003 8.86683C13.2281 8.86683 12.4944 9.03821 11.8376 9.34343L10.57 7.06729C11.6041 6.55493 12.7684 6.26689 14.0003 6.26689C14.7026 6.26689 15.3836 6.36103 16.031 6.53685C16.1451 7.2682 16.5764 7.94325 17.2671 8.34202C17.9573 8.74079 18.7573 8.77694 19.4467 8.51093C20.7492 9.80315 21.5945 11.5557 21.7181 13.5043L19.1132 13.5454ZM11.0496 9.79959C9.72964 10.728 8.86691 12.2634 8.86691 13.9996C8.86691 15.7371 9.72964 17.2719 11.0496 18.201L9.71216 20.4367C8.16292 19.4015 7.0089 17.8233 6.52202 15.9731C7.09809 15.5091 7.46733 14.7979 7.46733 13.9997C7.46733 13.2021 7.09819 12.4909 6.52202 12.0269C7.0089 10.1766 8.16292 8.59845 9.71216 7.56385L11.0496 9.79959ZM11.8376 18.6563C12.4945 18.9622 13.2282 19.1334 14.0003 19.1334C16.6824 19.1334 18.8832 17.077 19.1132 14.4551L21.7181 14.4955C21.5945 16.4441 20.7493 18.1966 19.4467 19.4894C18.7573 19.2234 17.9573 19.2597 17.2671 19.6584C16.5763 20.0565 16.145 20.7316 16.031 21.4634C15.3836 21.6395 14.7025 21.733 14.0003 21.733C12.7683 21.733 11.6041 21.4452 10.57 20.9325L11.8376 18.6563Z" fill="#2A2238"/>
</svg>
