<svg width="28" height="28" viewBox="0 0 28 28" fill="none" xmlns="http://www.w3.org/2000/svg">
<path d="M14 0C21.7268 0 28 6.27317 28 14C28 21.7268 21.7268 28 14 28C6.27317 28 0 21.7268 0 14C0 6.27317 6.27317 0 14 0ZM17.8255 20.6267C16.9318 21.1412 16.625 22.2857 17.1418 23.1805C17.6563 24.073 18.8008 24.3798 19.6945 23.8618C20.5882 23.3473 20.895 22.2028 20.377 21.308C19.8625 20.4155 18.7192 20.1087 17.8255 20.6267ZM14 19.46C13.1775 19.46 12.3982 19.2768 11.7005 18.9525L10.402 21.28C11.487 21.8155 12.7097 22.1212 14 22.1212C14.7537 22.1212 15.4793 22.015 16.17 21.8225C16.2913 21.0723 16.7358 20.3828 17.4475 19.971C18.158 19.5615 18.9793 19.5207 19.6875 19.789C21.0712 18.4322 21.9707 16.5818 22.1025 14.5215L19.4367 14.483C19.1917 17.2725 16.8525 19.46 14 19.46ZM8.54 14C8.54 12.1532 9.45817 10.5222 10.8617 9.53167L9.49667 7.24383C7.85867 8.32883 6.64417 10.0077 6.1355 11.9513C6.72583 12.4227 7.10383 13.1577 7.10383 13.9813C7.10383 14.8027 6.72583 15.5202 6.1355 16.0102C6.64417 17.9527 7.85867 19.6315 9.49667 20.7165L10.8617 18.424C9.45817 17.465 8.54 15.8363 8.54 14ZM4.48 12.131C3.4475 12.131 2.611 12.9675 2.611 14C2.611 15.0325 3.4475 15.869 4.48 15.869C5.5125 15.869 6.34783 15.0325 6.34783 14C6.34783 12.9675 5.5125 12.131 4.48 12.131ZM14 8.54C16.8525 8.54 19.1917 10.7275 19.4367 13.5158L22.1025 13.4762C21.9707 11.417 21.07 9.56783 19.6875 8.2075C18.977 8.47817 18.1557 8.43383 17.4475 8.02783C16.737 7.61717 16.2925 6.92533 16.17 6.17167C15.477 5.985 14.7537 5.88 14 5.88C12.705 5.88 11.4858 6.18333 10.402 6.72L11.7005 9.0475C12.4005 8.722 13.1798 8.54 14 8.54ZM17.8255 7.37217C18.718 7.88783 19.8625 7.58333 20.3793 6.68967C20.8938 5.79717 20.5905 4.65267 19.6933 4.13467C18.8008 3.62133 17.6563 3.92583 17.1395 4.82183C16.625 5.71317 16.9295 6.8565 17.8255 7.37217Z" fill="#2A2238"/>
</svg>
