<svg width="30" height="30" viewBox="0 0 30 30" fill="none" xmlns="http://www.w3.org/2000/svg">
<mask id="path-1-outside-1_10_23" maskUnits="userSpaceOnUse" x="0" y="0" width="30" height="30" fill="black">
<rect fill="white" width="30" height="30"/>
<path d="M29 14.9997C29 22.7319 22.7325 29 15.0003 29C7.26806 29 1 22.7319 1 14.9997C1 7.26788 7.26816 1 15.0003 1C22.7325 1 29 7.26778 29 14.9997Z"/>
<path d="M7.73428 14.9997C7.73428 15.9938 6.92835 16.7999 5.93356 16.7999C4.93995 16.7999 4.13402 15.9939 4.13402 14.9997C4.13402 14.0059 4.93995 13.2 5.93356 13.2C6.92835 13.2 7.73428 14.0059 7.73428 14.9997ZM17.975 23.752C18.4721 24.6123 19.5725 24.9073 20.4335 24.4108C21.2943 23.9137 21.5893 22.8127 21.0922 21.9518C20.5952 21.0909 19.4947 20.7966 18.6338 21.2936C17.7729 21.7908 17.4779 22.8911 17.975 23.752ZM21.0921 8.04804C21.5892 7.18699 21.2948 6.0863 20.4334 5.58975C19.573 5.09269 18.4721 5.38765 17.9749 6.2483C17.4778 7.10915 17.7728 8.20974 18.6337 8.70679C19.4947 9.20384 20.5957 8.90889 21.0921 8.04804ZM15.0003 9.86684C17.6824 9.86684 19.8833 11.9228 20.1131 14.5454L22.7181 14.5043C22.5944 12.5557 21.7492 10.8032 20.4467 9.51094C19.7572 9.77695 18.9572 9.7408 18.2671 9.34203C17.5764 8.94327 17.1451 8.26822 17.031 7.53686C16.3836 7.36104 15.7026 7.2669 15.0003 7.2669C13.7684 7.2669 12.604 7.55494 11.57 8.0673L12.8375 10.3434C13.4944 10.0382 14.228 9.86684 15.0003 9.86684ZM9.8669 14.9997C9.8669 13.2634 10.7296 11.728 12.0496 10.7996L10.7121 8.56386C9.16291 9.59846 8.00888 11.1766 7.522 13.027C8.09818 13.4909 8.46731 14.2021 8.46731 14.9998C8.46731 15.7979 8.09808 16.5091 7.522 16.9731C8.00888 18.8234 9.16291 20.4015 10.7121 21.4367L12.0496 19.201C10.7296 18.2719 9.8669 16.7371 9.8669 14.9997ZM15.0003 20.1335C14.2281 20.1335 13.4945 19.9622 12.8375 19.6564L11.57 21.9325C12.604 22.4453 13.7683 22.733 15.0003 22.733C15.7025 22.733 16.3836 22.6396 17.031 22.4634C17.145 21.7316 17.5763 21.0565 18.2671 20.6585C18.9572 20.2597 19.7572 20.2234 20.4467 20.4894C21.7493 19.1966 22.5944 17.4441 22.7181 15.4955L20.1131 15.4551C19.8832 18.077 17.6824 20.1335 15.0003 20.1335Z"/>
</mask>
<path d="M7.73428 14.9997C7.73428 15.9938 6.92835 16.7999 5.93356 16.7999C4.93995 16.7999 4.13402 15.9939 4.13402 14.9997C4.13402 14.0059 4.93995 13.2 5.93356 13.2C6.92835 13.2 7.73428 14.0059 7.73428 14.9997ZM17.975 23.752C18.4721 24.6123 19.5725 24.9073 20.4335 24.4108C21.2943 23.9137 21.5893 22.8127 21.0922 21.9518C20.5952 21.0909 19.4947 20.7966 18.6338 21.2936C17.7729 21.7908 17.4779 22.8911 17.975 23.752ZM21.0921 8.04804C21.5892 7.18699 21.2948 6.0863 20.4334 5.58975C19.573 5.09269 18.4721 5.38765 17.9749 6.2483C17.4778 7.10915 17.7728 8.20974 18.6337 8.70679C19.4947 9.20384 20.5957 8.90889 21.0921 8.04804ZM15.0003 9.86684C17.6824 9.86684 19.8833 11.9228 20.1131 14.5454L22.7181 14.5043C22.5944 12.5557 21.7492 10.8032 20.4467 9.51094C19.7572 9.77695 18.9572 9.7408 18.2671 9.34203C17.5764 8.94327 17.1451 8.26822 17.031 7.53686C16.3836 7.36104 15.7026 7.2669 15.0003 7.2669C13.7684 7.2669 12.604 7.55494 11.57 8.0673L12.8375 10.3434C13.4944 10.0382 14.228 9.86684 15.0003 9.86684ZM9.8669 14.9997C9.8669 13.2634 10.7296 11.728 12.0496 10.7996L10.7121 8.56386C9.16291 9.59846 8.00888 11.1766 7.522 13.027C8.09818 13.4909 8.46731 14.2021 8.46731 14.9998C8.46731 15.7979 8.09808 16.5091 7.522 16.9731C8.00888 18.8234 9.16291 20.4015 10.7121 21.4367L12.0496 19.201C10.7296 18.2719 9.8669 16.7371 9.8669 14.9997ZM15.0003 20.1335C14.2281 20.1335 13.4945 19.9622 12.8375 19.6564L11.57 21.9325C12.604 22.4453 13.7683 22.733 15.0003 22.733C15.7025 22.733 16.3836 22.6396 17.031 22.4634C17.145 21.7316 17.5763 21.0565 18.2671 20.6585C18.9572 20.2597 19.7572 20.2234 20.4467 20.4894C21.7493 19.1966 22.5944 17.4441 22.7181 15.4955L20.1131 15.4551C19.8832 18.077 17.6824 20.1335 15.0003 20.1335Z" fill="#2A2238"/>
<path d="M17.975 23.752L17.109 24.252L17.1092 24.2524L17.975 23.752ZM20.4335 24.4108L20.933 25.2771L20.9336 25.2768L20.4335 24.4108ZM21.0922 21.9518L21.9583 21.4518L21.9582 21.4517L21.0922 21.9518ZM18.6338 21.2936L18.1338 20.4276L18.1338 20.4276L18.6338 21.2936ZM21.0921 8.04804L20.2261 7.5481L20.2259 7.54846L21.0921 8.04804ZM20.4334 5.58975L19.9331 6.45563L19.934 6.45612L20.4334 5.58975ZM17.9749 6.2483L17.109 5.74804L17.1089 5.74827L17.9749 6.2483ZM20.1131 14.5454L19.117 14.6327L19.1982 15.5599L20.1289 15.5452L20.1131 14.5454ZM22.7181 14.5043L22.7339 15.5042L23.7825 15.4876L23.7161 14.4409L22.7181 14.5043ZM20.4467 9.51094L21.151 8.80104L20.6911 8.34479L20.0868 8.57797L20.4467 9.51094ZM18.2671 9.34203L18.7674 8.47617L18.7671 8.47602L18.2671 9.34203ZM17.031 7.53686L18.019 7.38273L17.919 6.74183L17.2931 6.57182L17.031 7.53686ZM11.57 8.0673L11.126 7.17127L10.1859 7.63713L10.6964 8.55382L11.57 8.0673ZM12.8375 10.3434L11.9639 10.83L12.4161 11.642L13.2589 11.2503L12.8375 10.3434ZM12.0496 10.7996L12.6249 11.6175L13.3845 11.0832L12.9078 10.2862L12.0496 10.7996ZM10.7121 8.56386L11.5703 8.05049L11.0308 7.14858L10.1568 7.73225L10.7121 8.56386ZM7.522 13.027L6.55492 12.7725L6.38999 13.3993L6.89482 13.8058L7.522 13.027ZM7.522 16.9731L6.89467 16.1944L6.39001 16.6009L6.55493 17.2276L7.522 16.9731ZM10.7121 21.4367L10.1566 22.2682L11.0306 22.8522L11.5703 21.9501L10.7121 21.4367ZM12.0496 19.201L12.9078 19.7144L13.3844 18.9176L12.6252 18.3833L12.0496 19.201ZM12.8375 19.6564L13.2596 18.7498L12.4164 18.3573L11.9639 19.1698L12.8375 19.6564ZM11.57 21.9325L10.6964 21.446L10.186 22.3624L11.1258 22.8284L11.57 21.9325ZM17.031 22.4634L17.2935 23.4284L17.9192 23.2581L18.0191 22.6173L17.031 22.4634ZM18.2671 20.6585L18.7664 21.5249L18.7674 21.5243L18.2671 20.6585ZM20.4467 20.4894L20.0868 21.4224L20.6913 21.6556L21.1512 21.1992L20.4467 20.4894ZM22.7181 15.4955L23.7161 15.5589L23.7826 14.5119L22.7336 14.4956L22.7181 15.4955ZM20.1131 15.4551L20.1286 14.4552L19.1983 14.4408L19.117 15.3677L20.1131 15.4551ZM28 14.9997C28 22.1797 22.1802 28 15.0003 28V30C23.2849 30 30 23.2841 30 14.9997H28ZM15.0003 28C7.82034 28 2 22.1796 2 14.9997H0C0 23.2842 6.71577 30 15.0003 30V28ZM2 14.9997C2 7.82021 7.8204 2 15.0003 2V0C6.71591 0 0 6.71555 0 14.9997H2ZM15.0003 2C22.1802 2 28 7.82005 28 14.9997H30C30 6.71551 23.2848 0 15.0003 0V2ZM6.73428 14.9997C6.73428 15.4414 6.37617 15.7999 5.93356 15.7999V17.7999C7.48053 17.7999 8.73428 16.5461 8.73428 14.9997H6.73428ZM5.93356 15.7999C5.49252 15.7999 5.13402 15.4419 5.13402 14.9997H3.13402C3.13402 16.5459 4.38737 17.7999 5.93356 17.7999V15.7999ZM5.13402 14.9997C5.13402 14.5582 5.49227 14.2 5.93356 14.2V12.2C4.38763 12.2 3.13402 13.4537 3.13402 14.9997H5.13402ZM5.93356 14.2C6.37646 14.2 6.73428 14.5586 6.73428 14.9997H8.73428C8.73428 13.4533 7.48024 12.2 5.93356 12.2V14.2ZM17.1092 24.2524C17.8825 25.5904 19.5939 26.0493 20.933 25.2771L19.9339 23.5446C19.5511 23.7653 19.0618 23.6341 18.8408 23.2516L17.1092 24.2524ZM20.9336 25.2768C22.2726 24.5035 22.7314 22.791 21.9583 21.4518L20.2262 22.4517C20.4471 22.8345 20.316 23.3239 19.9334 23.5449L20.9336 25.2768ZM21.9582 21.4517C21.1848 20.1122 19.4725 19.6546 18.1338 20.4276L19.1339 22.1596C19.5168 21.9385 20.0056 22.0696 20.2262 22.4518L21.9582 21.4517ZM18.1338 20.4276C16.7948 21.2008 16.3357 22.9127 17.109 24.252L18.841 23.252C18.6202 22.8696 18.751 22.3807 19.1339 22.1596L18.1338 20.4276ZM21.9582 8.54798C22.731 7.20925 22.2738 5.49635 20.9328 4.72337L19.934 6.45612C20.3159 6.67626 20.4474 7.16472 20.2261 7.5481L21.9582 8.54798ZM20.9336 4.72386C19.5947 3.95032 17.8823 4.40956 17.109 5.74804L18.8408 6.74856C19.062 6.36573 19.5514 6.23507 19.9331 6.45563L20.9336 4.72386ZM17.1089 5.74827C16.3356 7.0875 16.7946 8.79967 18.1338 9.57282L19.1337 7.84076C18.751 7.61981 18.6201 7.1308 18.8409 6.74833L17.1089 5.74827ZM18.1338 9.57282C19.4727 10.3459 21.1857 9.88747 21.9584 8.54762L20.2259 7.54846C20.0056 7.93031 19.5166 8.06182 19.1337 7.84076L18.1338 9.57282ZM15.0003 10.8668C17.1594 10.8668 18.932 12.5221 19.117 14.6327L21.1093 14.4581C20.8346 11.3236 18.2054 8.86684 15.0003 8.86684V10.8668ZM20.1289 15.5452L22.7339 15.5042L22.7023 13.5044L20.0974 13.5455L20.1289 15.5452ZM23.7161 14.4409C23.5764 12.2391 22.6206 10.2591 21.151 8.80104L19.7424 10.2208C20.8778 11.3472 21.6125 12.8723 21.7201 14.5676L23.7161 14.4409ZM20.0868 8.57797C19.6667 8.74004 19.1841 8.71695 18.7674 8.47617L17.7668 10.2079C18.7304 10.7646 19.8478 10.8139 20.8067 10.4439L20.0868 8.57797ZM18.7671 8.47602C18.3499 8.23515 18.0886 7.82855 18.019 7.38273L16.0429 7.69099C16.2015 8.70788 16.8029 9.65138 17.7671 10.208L18.7671 8.47602ZM17.2931 6.57182C16.5614 6.3731 15.7923 6.2669 15.0003 6.2669V8.2669C15.6129 8.2669 16.2058 8.34897 16.7689 8.5019L17.2931 6.57182ZM15.0003 6.2669C13.6109 6.2669 12.2949 6.5921 11.126 7.17127L12.014 8.96333C12.9132 8.51778 13.926 8.2669 15.0003 8.2669V6.2669ZM10.6964 8.55382L11.9639 10.83L13.7112 9.85693L12.4437 7.58078L10.6964 8.55382ZM13.2589 11.2503C13.787 11.0049 14.3772 10.8668 15.0003 10.8668V8.86684C14.0789 8.86684 13.2018 9.07151 12.4162 9.43657L13.2589 11.2503ZM10.8669 14.9997C10.8669 13.6027 11.5598 12.3667 12.6249 11.6175L11.4743 9.98167C9.89949 11.0893 8.8669 12.9242 8.8669 14.9997H10.8669ZM12.9078 10.2862L11.5703 8.05049L9.85397 9.07723L11.1914 11.313L12.9078 10.2862ZM10.1568 7.73225C8.40892 8.8995 7.10531 10.6808 6.55492 12.7725L8.48909 13.2814C8.91245 11.6725 9.91689 10.2974 11.2675 9.39547L10.1568 7.73225ZM6.89482 13.8058C7.24568 14.0883 7.46731 14.5179 7.46731 14.9998H9.46731C9.46731 13.8863 8.95068 12.8935 8.14919 12.2481L6.89482 13.8058ZM7.46731 14.9998C7.46731 15.4821 7.24556 15.9117 6.89467 16.1944L8.14933 17.7519C8.9506 17.1064 9.46731 16.1137 9.46731 14.9998H7.46731ZM6.55493 17.2276C7.10533 19.3192 8.40892 21.1004 10.1566 22.2682L11.2677 20.6053C9.91689 19.7026 8.91244 18.3275 8.48908 16.7187L6.55493 17.2276ZM11.5703 21.9501L12.9078 19.7144L11.1914 18.6876L9.85397 20.9234L11.5703 21.9501ZM12.6252 18.3833C11.5597 17.6333 10.8669 16.3978 10.8669 14.9997H8.8669C8.8669 17.0764 9.89952 18.9105 11.474 20.0187L12.6252 18.3833ZM15.0003 19.1335C14.3772 19.1335 13.7873 18.9954 13.2596 18.7498L12.4155 20.5629C13.2017 20.9289 14.0791 21.1335 15.0003 21.1335V19.1335ZM11.9639 19.1698L10.6964 21.446L12.4437 22.419L13.7112 20.1429L11.9639 19.1698ZM11.1258 22.8284C12.2949 23.4082 13.6109 23.733 15.0003 23.733V21.733C13.9257 21.733 12.9132 21.4823 12.0143 21.0366L11.1258 22.8284ZM15.0003 23.733C15.7915 23.733 16.5609 23.6277 17.2935 23.4284L16.7685 21.4985C16.2063 21.6514 15.6135 21.733 15.0003 21.733V23.733ZM18.0191 22.6173C18.0886 22.171 18.3499 21.7649 18.7664 21.5249L17.7678 19.792C16.8028 20.3482 16.2013 21.2922 16.0429 22.3095L18.0191 22.6173ZM18.7674 21.5243C19.1842 21.2835 19.6668 21.2604 20.0868 21.4224L20.8067 19.5565C19.8477 19.1865 18.7303 19.2359 17.7668 19.7926L18.7674 21.5243ZM21.1512 21.1992C22.6207 19.7406 23.5764 17.7607 23.7161 15.5589L21.7201 15.4322C21.6125 17.1275 20.8779 18.6526 19.7423 19.7797L21.1512 21.1992ZM22.7336 14.4956L20.1286 14.4552L20.0976 16.455L22.7026 16.4954L22.7336 14.4956ZM19.117 15.3677C18.9319 17.4778 17.1594 19.1335 15.0003 19.1335V21.1335C18.2055 21.1335 20.8345 18.6762 21.1093 15.5425L19.117 15.3677Z" fill="#2A2238" mask="url(#path-1-outside-1_10_23)"/>
</svg>
