<svg width="28" height="28" viewBox="0 0 28 28" fill="none" xmlns="http://www.w3.org/2000/svg">
<path d="M18.45 5C17.5632 5 16.8498 5.71613 16.85 6.6C16.8498 7.48388 17.5632 8.2 18.45 8.2C19.3368 8.2 20.0626 7.48388 20.0625 6.6C20.0627 5.71613 19.3368 5 18.45 5ZM13.6875 6.6C12.8883 6.65889 12.1218 6.85816 11.4125 7.15L12.85 9.6C13.2169 9.48401 13.5983 9.42032 14 9.4C14.0786 9.39604 14.1579 9.4 14.2375 9.4C16.4404 9.4 18.2788 10.9415 18.7375 13H21.6C21.3969 11.5036 20.7374 10.1494 19.775 9.075C19.3797 9.28663 18.9298 9.4 18.45 9.4C16.9435 9.4 15.7068 8.22204 15.6375 6.7375C15.1841 6.65116 14.7158 6.6 14.2375 6.6C14.1414 6.6 14.0452 6.5964 13.95 6.6C13.919 6.60117 13.8934 6.59842 13.8625 6.6C13.8334 6.60149 13.804 6.59821 13.775 6.6C13.7469 6.60175 13.7155 6.59792 13.6875 6.6ZM9.6875 8.15C8.53483 9.0445 7.6557 10.2761 7.1875 11.6875C7.92706 12.1921 8.4125 13.0399 8.4125 14C8.4125 14.9601 7.92706 15.8079 7.1875 16.3125C7.65554 17.7242 8.53443 18.9564 9.6875 19.85L11.1125 17.3875C10.1959 16.5467 9.625 15.3382 9.625 14C9.625 12.6623 10.197 11.4554 11.1125 10.6125L9.6875 8.15ZM5.6125 12.4C4.72569 12.4 3.99985 13.1161 4 14C3.99985 14.8839 4.72569 15.6 5.6125 15.6C6.49931 15.6 7.21265 14.8839 7.2125 14C7.21265 13.1161 6.49931 12.4 5.6125 12.4ZM18.7375 15C18.2788 17.0585 16.4404 18.6 14.2375 18.6C13.7498 18.6 13.2902 18.5266 12.85 18.3875L11.4125 20.8375C12.2836 21.1959 13.2368 21.4 14.2375 21.4C14.7158 21.4 15.1841 21.3488 15.6375 21.2625C15.7073 19.8403 16.8539 18.6899 18.275 18.6C18.3346 18.5962 18.3894 18.6 18.45 18.6C18.9298 18.6 19.3797 18.7134 19.775 18.925C20.7374 17.8506 21.3969 16.4964 21.6 15H18.7375ZM18.45 19.8C17.5632 19.8 16.8498 20.5161 16.85 21.4C16.8498 22.2839 17.5632 23 18.45 23C19.3368 23 20.0626 22.2839 20.0625 21.4C20.0627 20.5161 19.3368 19.8 18.45 19.8Z" fill="#2A2238"/>
<path d="M28 14C28 21.732 21.732 28 14 28C6.26801 28 0 21.732 0 14C0 6.26801 6.26801 0 14 0C21.732 0 28 6.26801 28 14ZM1.82066 14C1.82066 20.7265 7.27354 26.1793 14 26.1793C20.7265 26.1793 26.1793 20.7265 26.1793 14C26.1793 7.27354 20.7265 1.82066 14 1.82066C7.27354 1.82066 1.82066 7.27354 1.82066 14Z" fill="#2A2238"/>
</svg>
