<svg width="22" height="23" viewBox="0 0 22 23" fill="none" xmlns="http://www.w3.org/2000/svg">
<path fill-rule="evenodd" clip-rule="evenodd" d="M20.3732 21.5C20.0537 19.6231 19.1393 17.8708 17.7317 16.5C17.1275 15.9116 16.4114 15.7389 15.2796 15.7918C14.7746 15.8154 14.2522 15.8801 13.6482 15.9548C13.5471 15.9673 13.4437 15.9801 13.3376 15.993C12.628 16.0796 11.8279 16.1683 11 16.1683C10.1721 16.1683 9.37203 16.0796 8.66236 15.993C8.55634 15.9801 8.45292 15.9673 8.35178 15.9548C7.74783 15.8801 7.22537 15.8154 6.72038 15.7918C5.5886 15.7389 4.87248 15.9116 4.26833 16.5C2.86067 17.8708 1.94628 19.6231 1.62679 21.5H20.3732ZM21.8917 21.5C21.5596 19.2133 20.4745 17.0773 18.7782 15.4253C17.3043 13.99 15.4552 14.2192 13.4554 14.4671C12.6562 14.5662 11.833 14.6683 11 14.6683C10.167 14.6683 9.34379 14.5662 8.54463 14.4671C6.54483 14.2192 4.69572 13.99 3.22183 15.4253C1.52546 17.0773 0.440371 19.2133 0.108331 21.5C0.036587 21.9941 0 22.4952 0 23H22C22 22.4952 21.9634 21.9941 21.8917 21.5ZM11.6109 11.5927C14.5328 11.5927 16.8331 9.29612 16.8331 6.54634C16.8331 3.79656 14.5328 1.5 11.6109 1.5C8.689 1.5 6.38867 3.79656 6.38867 6.54634C6.38867 9.29612 8.689 11.5927 11.6109 11.5927ZM11.6109 13.0927C15.3235 13.0927 18.3331 10.1618 18.3331 6.54634C18.3331 2.9309 15.3235 0 11.6109 0C7.89831 0 4.88867 2.9309 4.88867 6.54634C4.88867 10.1618 7.89831 13.0927 11.6109 13.0927Z" fill="#2A2238"/>
</svg>
