<svg width="28" height="28" viewBox="0 0 28 28" fill="none" xmlns="http://www.w3.org/2000/svg">
<path d="M14 0C6.272 0 0 6.272 0 14C0 21.728 6.272 28 14 28C21.728 28 28 21.728 28 14C28 6.272 21.728 0 14 0ZM15.4 2.898C19.698 3.43 23.198 6.426 24.556 10.402L15.4 5.11V2.898ZM8.4 4.312C10.052 3.346 13.062 2.828 12.6 2.884V13.174L8.4 15.596V4.312ZM3.682 18.34C3.122 16.996 2.8 15.54 2.8 14C2.8 11.172 3.864 8.596 5.6 6.622V17.234L3.682 18.34ZM5.096 20.762L14 15.61L18.2 18.032L8.428 23.674C7.126 22.932 5.992 21.952 5.096 20.762ZM14 25.2C13.244 25.2 12.502 25.116 11.788 24.976L21 19.656L22.904 20.748C20.86 23.45 17.64 25.2 14 25.2ZM15.4 13.188V8.344L25.2 14.014C25.2 15.554 24.878 17.01 24.318 18.34L15.4 13.188Z" fill="#2A2238"/>
</svg>
