<svg width="28" height="24" viewBox="0 0 28 24" fill="none" xmlns="http://www.w3.org/2000/svg">
<path fill-rule="evenodd" clip-rule="evenodd" d="M13.8068 0.125423C14.4222 0.380356 14.8235 0.980934 14.8235 1.64711V21.4118C14.8235 22.078 14.4222 22.6786 13.8068 22.9335C13.1913 23.1884 12.4829 23.0475 12.0118 22.5765L5.906 16.4706H1.64706C0.737413 16.4706 0 15.7332 0 14.8236V8.23534C0 7.3257 0.737413 6.58828 1.64706 6.58828H5.906L12.0118 0.48246C12.4829 0.011405 13.1913 -0.12951 13.8068 0.125423Z" fill="#111827"/>
<path fill-rule="evenodd" clip-rule="evenodd" d="M18.6001 7.07065C19.2433 6.42743 20.2861 6.42743 20.9294 7.07065L23.0588 9.20012L25.1883 7.07065C25.8315 6.42743 26.8744 6.42743 27.5176 7.07065C28.1608 7.71386 28.1608 8.75672 27.5176 9.39994L25.3881 11.5294L27.5176 13.6589C28.1608 14.3021 28.1608 15.345 27.5176 15.9882C26.8744 16.6314 25.8315 16.6314 25.1883 15.9882L23.0588 13.8587L20.9294 15.9882C20.2861 16.6314 19.2433 16.6314 18.6001 15.9882C17.9568 15.345 17.9568 14.3021 18.6001 13.6589L20.7295 11.5294L18.6001 9.39994C17.9568 8.75672 17.9568 7.71386 18.6001 7.07065Z" fill="#111827"/>
</svg>
