<svg width="28" height="24" viewBox="0 0 28 24" fill="none" xmlns="http://www.w3.org/2000/svg">
<path fill-rule="evenodd" clip-rule="evenodd" d="M13.0397 1.32069C13.621 1.56146 14 2.12867 14 2.75783V21.4245C14 22.0537 13.621 22.6209 13.0397 22.8617C12.4585 23.1024 11.7894 22.9693 11.3445 22.5245L5.57789 16.7578H1.55556C0.696446 16.7578 0 16.0614 0 15.2023V8.98006C0 8.12095 0.696446 7.4245 1.55556 7.4245H5.57789L11.3445 1.65789C11.7894 1.213 12.4585 1.07991 13.0397 1.32069Z" fill="#2A2238"/>
<path fill-rule="evenodd" clip-rule="evenodd" d="M21.244 1.0916C21.8515 0.484116 22.8364 0.484116 23.4439 1.0916C26.2572 3.9049 28 7.79592 28 12.091C28 16.3862 26.2572 20.2772 23.4439 23.0905C22.8364 23.698 21.8515 23.698 21.244 23.0905C20.6365 22.483 20.6365 21.4981 21.244 20.8906C23.4977 18.6369 24.8889 15.5279 24.8889 12.091C24.8889 8.65417 23.4977 5.54519 21.244 3.29149C20.6365 2.684 20.6365 1.69908 21.244 1.0916ZM16.8442 5.49138C17.4517 4.88389 18.4366 4.88389 19.0441 5.49138C19.8621 6.30941 20.5297 7.27959 21.0005 8.35713C21.5009 9.50256 21.7778 10.7665 21.7778 12.091C21.7778 14.6679 20.7314 17.0034 19.0441 18.6907C18.4366 19.2982 17.4517 19.2982 16.8442 18.6907C16.2367 18.0832 16.2367 17.0983 16.8442 16.4908C17.9719 15.3631 18.6667 13.8097 18.6667 12.091C18.6667 11.2032 18.4817 10.3627 18.1496 9.60273C17.8365 8.88603 17.3914 8.23843 16.8442 7.69127C16.2367 7.08378 16.2367 6.09886 16.8442 5.49138Z" fill="#2A2238"/>
</svg>
