<svg width="28" height="24" viewBox="0 0 28 24" fill="none" xmlns="http://www.w3.org/2000/svg">
<path fill-rule="evenodd" clip-rule="evenodd" d="M13.8068 0.125423C14.4222 0.380356 14.8235 0.980934 14.8235 1.64711V21.4118C14.8235 22.078 14.4222 22.6786 13.8068 22.9335C13.1913 23.1884 12.4829 23.0475 12.0118 22.5765L5.906 16.4706H1.64706C0.737413 16.4706 0 15.7332 0 14.8236V8.23534C0 7.3257 0.737413 6.58828 1.64706 6.58828H5.906L12.0118 0.48246C12.4829 0.0114048 13.1913 -0.12951 13.8068 0.125423Z" fill="#2A2238"/>
<path fill-rule="evenodd" clip-rule="evenodd" d="M18.6002 7.07067C19.2434 6.42745 20.2862 6.42745 20.9295 7.07067L23.0589 9.20014L25.1884 7.07067C25.8316 6.42745 26.8745 6.42745 27.5177 7.07067C28.1609 7.71388 28.1609 8.75674 27.5177 9.39996L25.3882 11.5294L27.5177 13.6589C28.1609 14.3021 28.1609 15.345 27.5177 15.9882C26.8745 16.6314 25.8316 16.6314 25.1884 15.9882L23.0589 13.8587L20.9295 15.9882C20.2862 16.6314 19.2434 16.6314 18.6002 15.9882C17.9569 15.345 17.9569 14.3021 18.6002 13.6589L20.7296 11.5294L18.6002 9.39996C17.9569 8.75674 17.9569 7.71388 18.6002 7.07067Z" fill="#2A2238"/>
</svg>
