<svg width="28" height="17" viewBox="0 0 28 17" fill="none" xmlns="http://www.w3.org/2000/svg">
<path d="M25.6667 16.3333H18.6667V11.6667H15.54C14.21 14.49 11.34 16.3333 8.16667 16.3333C3.66333 16.3333 0 12.67 0 8.16667C0 3.66333 3.66333 0 8.16667 0C11.34 0 14.1983 1.84333 15.54 4.66667H28V11.6667H25.6667V16.3333ZM21 14H23.3333V9.33333H25.6667V7H13.93L13.6617 6.21833C12.845 3.89667 10.6283 2.33333 8.16667 2.33333C4.94667 2.33333 2.33333 4.94667 2.33333 8.16667C2.33333 11.3867 4.94667 14 8.16667 14C10.6283 14 12.845 12.4367 13.6617 10.115L13.93 9.33333H21V14ZM8.16667 11.6667C6.24167 11.6667 4.66667 10.0917 4.66667 8.16667C4.66667 6.24167 6.24167 4.66667 8.16667 4.66667C10.0917 4.66667 11.6667 6.24167 11.6667 8.16667C11.6667 10.0917 10.0917 11.6667 8.16667 11.6667ZM8.16667 7C7.525 7 7 7.525 7 8.16667C7 8.80833 7.525 9.33333 8.16667 9.33333C8.80833 9.33333 9.33333 8.80833 9.33333 8.16667C9.33333 7.525 8.80833 7 8.16667 7Z" fill="#2A2238"/>
</svg>
