<svg width="28" height="19" viewBox="0 0 28 19" fill="none" xmlns="http://www.w3.org/2000/svg">
<path d="M8.23529 3.52941L4.47059 14.1176H6.70588L7.52941 11.7647H11.2941L12.1176 14.1176H14.3529L10.5882 3.52941H8.23529ZM8.05882 10.1765L9.41176 5.88235L10.7647 10.1765H8.05882ZM25.8824 3.52941L24.4706 10.9294L22.7059 3.52941H20.8235L19.0706 10.9294L17.6471 3.52941H16.7529L16.7412 3.54118C15.0118 1.38824 12.3882 0 9.41176 0C4.21176 0 0 4.21177 0 9.41177C0 14.6118 4.21176 18.8235 9.41176 18.8235C12.8941 18.8235 15.9412 16.9294 17.5647 14.1176C17.6 14.0471 17.6235 13.9765 17.6588 13.9059C17.7176 13.8118 17.7647 13.7059 17.8235 13.6118L17.9412 14.1176H20L21.7647 6.94118L23.5294 14.1176H25.5882L28 3.52941H25.8824ZM15.7294 12.5529C14.5647 14.8706 12.1765 16.4706 9.41176 16.4706C5.51765 16.4706 2.35294 13.3059 2.35294 9.41177C2.35294 5.51765 5.51765 2.35294 9.41176 2.35294C13.3059 2.35294 16.4706 5.51765 16.4706 9.41177C16.4706 10.5412 16.2 11.6 15.7294 12.5529Z" fill="#2A2238"/>
</svg>
