<svg width="28" height="27" viewBox="0 0 28 27" fill="none" xmlns="http://www.w3.org/2000/svg">
<path d="M3.24545 21.6873L5.04 23.4818L7.31818 21.1909L5.52364 19.3964L3.24545 21.6873ZM12.7273 22.8455H15.2727V26.6636H12.7273V22.8455ZM0 11.3909H3.81818V13.9364H0V11.3909ZM15.2727 2.54545V7.58545L16.5455 8.32364C18.1236 9.24 19.0909 10.92 19.0909 12.7273C19.0909 15.54 16.8127 17.8182 14 17.8182C11.1873 17.8182 8.90909 15.54 8.90909 12.7273C8.90909 10.92 9.88909 9.24 11.4545 8.32364L12.7273 7.58545V2.54545H15.2727ZM17.8182 0H10.1818V6.12182C7.90364 7.44545 6.36364 9.90182 6.36364 12.7273C6.36364 16.94 9.78727 20.3636 14 20.3636C18.2127 20.3636 21.6364 16.94 21.6364 12.7273C21.6364 9.90182 20.0964 7.44545 17.8182 6.12182V0ZM24.1818 11.3909H28V13.9364H24.1818V11.3909ZM20.6691 21.2036L22.9473 23.4945L24.7418 21.7L22.4509 19.4218L20.6691 21.2036Z" fill="#2A2238"/>
</svg>
