<svg width="32" height="32" viewBox="0 0 32 32" fill="none" xmlns="http://www.w3.org/2000/svg">
<path d="M28.4133 12.7733L32 8C27.5467 4.65333 22 2.66667 16 2.66667C10 2.66667 4.45333 4.65333 0 8L16 29.3333L20.6667 23.1067V19.3333C20.6667 15.6533 23.6533 12.6667 27.3333 12.6667C27.7067 12.6667 28.0667 12.72 28.4133 12.7733ZM30.6667 21.3333V19.3333C30.6667 17.4933 29.1733 16 27.3333 16C25.4933 16 24 17.4933 24 19.3333V21.3333C23.2667 21.3333 22.6667 21.9333 22.6667 22.6667V28C22.6667 28.7333 23.2667 29.3333 24 29.3333H30.6667C31.4 29.3333 32 28.7333 32 28V22.6667C32 21.9333 31.4 21.3333 30.6667 21.3333ZM29.3333 21.3333H25.3333V19.3333C25.3333 18.2267 26.2267 17.3333 27.3333 17.3333C28.44 17.3333 29.3333 18.2267 29.3333 19.3333V21.3333Z" fill="#2A2238"/>
</svg>
