<svg width="32" height="32" viewBox="0 0 32 32" fill="none" xmlns="http://www.w3.org/2000/svg">
<path d="M16 14.6667C14.5333 14.6667 13.3333 15.8667 13.3333 17.3333C13.3333 18.8 14.5333 20 16 20C17.4667 20 18.6667 18.8 18.6667 17.3333C18.6667 15.8667 17.4667 14.6667 16 14.6667ZM24 17.3333C24 12.92 20.4133 9.33333 16 9.33333C11.5867 9.33333 8 12.92 8 17.3333C8 20.2933 9.61333 22.8667 12 24.2533L13.3333 21.9333C11.7467 21 10.6667 19.3067 10.6667 17.3333C10.6667 14.3867 13.0533 12 16 12C18.9467 12 21.3333 14.3867 21.3333 17.3333C21.3333 19.3067 20.2533 21 18.6667 21.9333L20 24.2533C22.3867 22.8667 24 20.2933 24 17.3333ZM16 4C8.64 4 2.66667 9.97333 2.66667 17.3333C2.66667 22.2667 5.34667 26.56 9.32 28.8667L10.6533 26.56C7.48 24.7067 5.33333 21.28 5.33333 17.3333C5.33333 11.44 10.1067 6.66667 16 6.66667C21.8933 6.66667 26.6667 11.44 26.6667 17.3333C26.6667 21.28 24.52 24.7067 21.3333 26.56L22.6667 28.8667C26.6533 26.56 29.3333 22.2667 29.3333 17.3333C29.3333 9.97333 23.36 4 16 4Z" fill="#2A2238"/>
</svg>
