<svg width="34" height="34" viewBox="0 0 34 34" fill="none" xmlns="http://www.w3.org/2000/svg">
<path d="M17 29C20.1826 29 23.2348 27.7357 25.4853 25.4853C27.7357 23.2348 29 20.1826 29 17C29 13.8174 27.7357 10.7652 25.4853 8.51472C23.2348 6.26428 20.1826 5 17 5V29Z" fill="#2A2238"/>
<path d="M34 17C34 26.3888 26.3888 34 17 34C7.61116 34 0 26.3888 0 17C0 7.61116 7.61116 0 17 0C26.3888 0 34 7.61116 34 17ZM2.14957 17C2.14957 25.2017 8.79834 31.8504 17 31.8504C25.2017 31.8504 31.8504 25.2017 31.8504 17C31.8504 8.79834 25.2017 2.14957 17 2.14957C8.79834 2.14957 2.14957 8.79834 2.14957 17Z" fill="#2A2238"/>
</svg>
