<svg width="30" height="21" viewBox="0 0 30 21" fill="none" xmlns="http://www.w3.org/2000/svg">
<path fill-rule="evenodd" clip-rule="evenodd" d="M1 0.5C1.27614 0.5 1.5 0.723858 1.5 1V19.6667C1.5 19.9428 1.27614 20.1667 1 20.1667C0.723858 20.1667 0.5 19.9428 0.5 19.6667V1C0.5 0.723858 0.723858 0.5 1 0.5ZM4.23333 6.1H29C29.2761 6.1 29.5 6.32386 29.5 6.6C29.5 6.87614 29.2761 7.1 29 7.1H4.23333V6.1ZM4.23333 13.5667H17.8C18.0761 13.5667 18.3 13.7905 18.3 14.0667C18.3 14.3428 18.0761 14.5667 17.8 14.5667H4.23333V13.5667Z" fill="#2A2238"/>
</svg>
