<svg width="30" height="16" viewBox="0 0 30 16" fill="none" xmlns="http://www.w3.org/2000/svg">
<path fill-rule="evenodd" clip-rule="evenodd" d="M0.5 1C0.5 0.723858 0.723858 0.5 1 0.5H29C29.2761 0.5 29.5 0.723858 29.5 1C29.5 1.27614 29.2761 1.5 29 1.5H1C0.723858 1.5 0.5 1.27614 0.5 1ZM7.5 4.5C7.5 4.22386 7.72386 4 8 4H22C22.2761 4 22.5 4.22386 22.5 4.5C22.5 4.77614 22.2761 5 22 5H8C7.72386 5 7.5 4.77614 7.5 4.5ZM0.5 8C0.5 7.72386 0.723858 7.5 1 7.5H29C29.2761 7.5 29.5 7.72386 29.5 8C29.5 8.27614 29.2761 8.5 29 8.5H1C0.723858 8.5 0.5 8.27614 0.5 8ZM7.5 11.5C7.5 11.2239 7.72386 11 8 11H22C22.2761 11 22.5 11.2239 22.5 11.5C22.5 11.7761 22.2761 12 22 12H8C7.72386 12 7.5 11.7761 7.5 11.5ZM0.5 15C0.5 14.7239 0.723858 14.5 1 14.5H29C29.2761 14.5 29.5 14.7239 29.5 15C29.5 15.2761 29.2761 15.5 29 15.5H1C0.723858 15.5 0.5 15.2761 0.5 15Z" fill="#2A2238"/>
</svg>
