<svg width="20" height="29" viewBox="0 0 20 29" fill="none" xmlns="http://www.w3.org/2000/svg">
<path fill-rule="evenodd" clip-rule="evenodd" d="M6.1 0C6.37614 0 6.6 0.223858 6.6 0.5V25.2667H5.6V0.5C5.6 0.223858 5.82386 0 6.1 0ZM13.5667 11.2C13.8428 11.2 14.0667 11.4239 14.0667 11.7V25.2667H13.0667V11.7C13.0667 11.4239 13.2905 11.2 13.5667 11.2ZM0 28.5C0 28.2239 0.223858 28 0.5 28H19.1667C19.4428 28 19.6667 28.2239 19.6667 28.5C19.6667 28.7761 19.4428 29 19.1667 29H0.5C0.223858 29 0 28.7761 0 28.5Z" fill="#2A2238"/>
</svg>
