<svg width="28" height="28" viewBox="0 0 28 28" fill="none" xmlns="http://www.w3.org/2000/svg">
<path fill-rule="evenodd" clip-rule="evenodd" d="M21.3196 7.26761C21.7159 7.26761 22.0371 7.58886 22.0371 7.98515V20.4226C22.0371 20.8188 21.7159 21.1401 21.3196 21.1401C20.9233 21.1401 20.602 20.8188 20.602 20.4226V14.9683L9.76714 21.2238C8.84231 21.7578 7.68627 21.0904 7.68627 20.0224V7.42853C7.68627 6.36063 8.84231 5.69319 9.76714 6.22714L20.602 12.4827V7.98515C20.602 7.58886 20.9233 7.26761 21.3196 7.26761ZM19.8845 13.7255L9.12135 7.51139V19.9396L19.8845 13.7255Z" fill="#2A2238"/>
<path d="M28 14C28 21.732 21.732 28 14 28C6.26801 28 0 21.732 0 14C0 6.26801 6.26801 0 14 0C21.732 0 28 6.26801 28 14ZM1.84177 14C1.84177 20.7148 7.28519 26.1582 14 26.1582C20.7148 26.1582 26.1582 20.7148 26.1582 14C26.1582 7.28519 20.7148 1.84177 14 1.84177C7.28519 1.84177 1.84177 7.28519 1.84177 14Z" fill="#2A2238"/>
</svg>
