<svg width="29" height="23" viewBox="0 0 29 23" fill="none" xmlns="http://www.w3.org/2000/svg">
<path fill-rule="evenodd" clip-rule="evenodd" d="M7.04014 5.45135C8.70397 3.43552 11.2224 2.15271 14.0384 2.15271C16.1296 2.15297 18.1566 2.8754 19.7766 4.19784C21.3966 5.52029 22.5102 7.3616 22.9291 9.41045H24.7744C24.4254 7.3537 23.4929 5.44048 22.088 3.89835C20.683 2.35622 18.8647 1.25008 16.8493 0.711487C14.8339 0.172892 12.7061 0.224513 10.7192 0.86021C8.73226 1.49591 6.96972 2.68893 5.64121 4.29737C5.5608 4.38862 5.49955 4.49511 5.46112 4.61051C5.42269 4.7259 5.40785 4.84785 5.41749 4.96909C5.42713 5.09034 5.46105 5.2084 5.51724 5.31628C5.57343 5.42415 5.65073 5.51962 5.74456 5.59702C5.83838 5.67441 5.94681 5.73215 6.0634 5.7668C6.17998 5.80145 6.30235 5.8123 6.42321 5.79872C6.54408 5.78513 6.66098 5.74737 6.76696 5.6877C6.87294 5.62802 6.96584 5.54765 7.04014 5.45135ZM3.30242 13.0394H0.491769C0.405577 13.0393 0.321178 13.0148 0.248455 12.9685C0.175732 12.9222 0.117696 12.8562 0.0811428 12.7781C0.0445892 12.7001 0.0310314 12.6132 0.0420568 12.5277C0.0530822 12.4423 0.0882345 12.3617 0.143397 12.2955L3.71057 8.0134C3.75315 7.96235 3.80642 7.92128 3.86662 7.89309C3.92682 7.86491 3.99247 7.8503 4.05895 7.8503C4.12542 7.8503 4.19107 7.86491 4.25127 7.89309C4.31147 7.92128 4.36474 7.96235 4.40732 8.0134L7.97449 12.2955C8.02966 12.3617 8.06481 12.4423 8.07583 12.5277C8.08686 12.6132 8.0733 12.7001 8.03675 12.7781C8.00019 12.8562 7.94216 12.9222 7.86944 12.9685C7.79671 13.0148 7.71231 13.0393 7.62612 13.0394H5.1477C5.4912 14.717 6.30232 16.2633 7.48736 17.4994C8.67241 18.7357 10.183 19.6114 11.8447 20.0254C13.5064 20.4394 15.2513 20.3749 16.8778 19.8393C18.5043 19.3036 19.9462 18.3188 21.0367 16.9984C21.111 16.9021 21.2039 16.8217 21.3099 16.7621C21.4158 16.7024 21.5327 16.6646 21.6536 16.651C21.7745 16.6375 21.8968 16.6483 22.0134 16.683C22.13 16.7176 22.2384 16.7753 22.3323 16.8527C22.4261 16.9301 22.5034 17.0256 22.5596 17.1335C22.6158 17.2414 22.6497 17.3594 22.6593 17.4807C22.669 17.6019 22.6541 17.7239 22.6157 17.8393C22.5773 17.9546 22.516 18.0611 22.4356 18.1524C21.1071 19.7608 19.3446 20.9539 17.3576 21.5895C15.3707 22.2252 13.243 22.2769 11.2275 21.7383C9.2121 21.1997 7.39378 20.0935 5.98884 18.5514C4.5839 17.0093 3.65146 15.0961 3.30242 13.0394ZM27.5849 9.41051H20.4505C20.3643 9.41054 20.2799 9.43513 20.2072 9.4814C20.1345 9.52766 20.0765 9.59369 20.0399 9.67175C20.0034 9.7498 19.9898 9.83666 20.0008 9.92214C20.0119 10.0076 20.047 10.0882 20.1022 10.1544L23.6693 14.4365C23.7119 14.4875 23.7652 14.5286 23.8254 14.5568C23.8856 14.585 23.9512 14.5996 24.0177 14.5996C24.0842 14.5996 24.1498 14.585 24.21 14.5568C24.2702 14.5286 24.3235 14.4875 24.3661 14.4365L27.9333 10.1544C27.9884 10.0882 28.0236 10.0076 28.0346 9.92214C28.0456 9.83666 28.0321 9.7498 27.9955 9.67175C27.959 9.59369 27.9009 9.52766 27.8282 9.4814C27.7555 9.43513 27.6711 9.41054 27.5849 9.41051Z" fill="#2A2238"/>
</svg>
