<svg width="28" height="28" viewBox="0 0 28 28" fill="none" xmlns="http://www.w3.org/2000/svg">
<circle cx="14" cy="14" r="13.25" transform="rotate(-180 14 14)" fill="#2A2238" stroke="#2A2238" stroke-width="1.5"/>
<path d="M24 14.75C24.4142 14.75 24.75 14.4142 24.75 14C24.75 13.5858 24.4142 13.25 24 13.25V14.75ZM3.46967 13.4697C3.17678 13.7626 3.17678 14.2374 3.46967 14.5303L8.24264 19.3033C8.53553 19.5962 9.01041 19.5962 9.3033 19.3033C9.59619 19.0104 9.59619 18.5355 9.3033 18.2426L5.06066 14L9.3033 9.75736C9.59619 9.46447 9.59619 8.98959 9.3033 8.6967C9.01041 8.40381 8.53553 8.40381 8.24264 8.6967L3.46967 13.4697ZM24 13.25L4 13.25V14.75L24 14.75V13.25Z" fill="white"/>
</svg>
