<svg width="28" height="28" viewBox="0 0 28 28" fill="none" xmlns="http://www.w3.org/2000/svg">
<path fill-rule="evenodd" clip-rule="evenodd" d="M6.68042 7.26761C6.28414 7.26761 5.96288 7.58886 5.96288 7.98515V20.4226C5.96288 20.8188 6.28414 21.1401 6.68042 21.1401C7.07671 21.1401 7.39797 20.8188 7.39797 20.4226V14.9683L18.2329 21.2238C19.1577 21.7578 20.3137 21.0904 20.3137 20.0224V7.42853C20.3137 6.36063 19.1577 5.69319 18.2329 6.22714L7.39797 12.4827V7.98515C7.39797 7.58886 7.07671 7.26761 6.68042 7.26761ZM8.11551 13.7255L18.8786 7.51139V19.9396L8.11551 13.7255Z" fill="#2A2238"/>
<path d="M-1.37091e-06 14C-1.37091e-06 21.732 6.26801 28 14 28C21.732 28 28 21.732 28 14C28 6.26801 21.732 0 14 0C6.26801 0 -1.37091e-06 6.26801 -1.37091e-06 14ZM26.1582 14C26.1582 20.7148 20.7148 26.1582 14 26.1582C7.28519 26.1582 1.84176 20.7148 1.84176 14C1.84176 7.28519 7.28519 1.84177 14 1.84177C20.7148 1.84177 26.1582 7.28519 26.1582 14Z" fill="#2A2238"/>
</svg>
