<svg width="28" height="27" viewBox="0 0 28 27" fill="none" xmlns="http://www.w3.org/2000/svg">
<path fill-rule="evenodd" clip-rule="evenodd" d="M25.7626 24.8321C25.7626 25.5539 25.1774 26.139 24.4556 26.139L1.80177 26.139C1.07996 26.139 0.49482 25.5539 0.49482 24.8321C0.49482 24.1103 1.07996 23.5251 1.80177 23.5251L11.7363 23.5251L0.342293 3.79015C-0.630264 2.10563 0.58543 -1.50204e-05 2.53054 -1.50204e-05L25.4695 -1.50204e-05C27.4146 -1.50204e-05 28.6303 2.10563 27.6577 3.79015L16.2637 23.5251H24.4556C25.1774 23.5251 25.7626 24.1103 25.7626 24.8321ZM14 22.2182L25.3185 2.61389L2.68146 2.61389L14 22.2182Z" fill="#2A2238"/>
</svg>
