<svg xmlns="http://www.w3.org/2000/svg" fill="none" viewBox="0 0 28 28">
  <mask id="a" fill="#fff">
    <path fill-rule="evenodd" d="M14 0C6.26801 0 0 6.26801 0 14c0 7.732 6.26801 14 14 14 7.732 0 14-6.268 14-14 0-7.73199-6.268-14-14-14ZM3.46967 14.5303l4.77297 4.773c.29289.2929.76777.2929 1.06066 0s.29289-.7678 0-1.0607L5.81066 14.75H24c.4142 0 .75-.3358.75-.75s-.3358-.75-.75-.75H5.81066L9.3033 9.75736c.29289-.29289.29289-.76777 0-1.06066s-.76777-.29289-1.06066 0l-4.77297 4.773c-.29289.2929-.29289.7677 0 1.0606Z" clip-rule="evenodd"/>
  </mask>
  <path fill="#2A2238" fill-rule="evenodd" d="M14 0C6.26801 0 0 6.26801 0 14c0 7.732 6.26801 14 14 14 7.732 0 14-6.268 14-14 0-7.73199-6.268-14-14-14ZM3.46967 14.5303l4.77297 4.773c.29289.2929.76777.2929 1.06066 0s.29289-.7678 0-1.0607L5.81066 14.75H24c.4142 0 .75-.3358.75-.75s-.3358-.75-.75-.75H5.81066L9.3033 9.75736c.29289-.29289.29289-.76777 0-1.06066s-.76777-.29289-1.06066 0l-4.77297 4.773c-.29289.2929-.29289.7677 0 1.0606Z" clip-rule="evenodd"/>
  <path fill="#2A2238" d="m8.24264 19.3033 1.06066-1.0607-1.06066 1.0607Zm1.06066-1.0607-1.06066 1.0607 1.06066-1.0607ZM5.81066 14.75v-1.5H2.18934L4.75 15.8107 5.81066 14.75Zm0-1.5L4.75 12.1893 2.18934 14.75h3.62132v-1.5ZM9.3033 9.75736 10.364 10.818 9.3033 9.75736ZM1.5 14C1.5 7.09644 7.09644 1.5 14 1.5v-3C5.43959-1.5-1.5 5.43959-1.5 14h3ZM14 26.5C7.09644 26.5 1.5 20.9036 1.5 14h-3c0 8.5604 6.93959 15.5 15.5 15.5v-3ZM26.5 14c0 6.9036-5.5964 12.5-12.5 12.5v3c8.5604 0 15.5-6.9396 15.5-15.5h-3ZM14 1.5c6.9036 0 12.5 5.59644 12.5 12.5h3c0-8.56041-6.9396-15.5-15.5-15.5v3ZM9.3033 18.2426l-4.77297-4.7729-2.12132 2.1213 4.77297 4.773 2.12132-2.1214Zm-1.06066 0c.29289-.2929.76777-.2929 1.06066 0L7.18198 20.364c.87868.8786 2.3033.8786 3.18202 0l-2.12136-2.1214Zm0 1.0607c-.29289-.2929-.29289-.7678 0-1.0607L10.364 20.364c.8786-.8787.8786-2.3033 0-3.182l-2.12136 2.1213ZM4.75 15.8107l3.49264 3.4926L10.364 17.182l-3.49268-3.4927L4.75 15.8107ZM24 13.25H5.81066v3H24v-3Zm-.75.75c0-.4142.3358-.75.75-.75v3c1.2426 0 2.25-1.0074 2.25-2.25h-3Zm.75.75c-.4142 0-.75-.3358-.75-.75h3c0-1.2426-1.0074-2.25-2.25-2.25v3Zm-18.18934 0H24v-3H5.81066v3Zm2.43198-6.0533L4.75 12.1893l2.12132 2.1214L10.364 10.818 8.24264 8.6967Zm0 1.06066c-.29289-.29289-.29289-.76777 0-1.06066L10.364 10.818c.8786-.87866.8786-2.30328 0-3.18196L8.24264 9.75736Zm1.06066 0c-.29289.29294-.76777.29294-1.06066 0L10.364 7.63604c-.87872-.87868-2.30334-.87868-3.18202 0L9.3033 9.75736ZM4.53033 14.5303 9.3033 9.75736 7.18198 7.63604 2.40901 12.409l2.12132 2.1213Zm0-1.0606c.29289.2929.29289.7677 0 1.0606L2.40901 12.409c-.87868.8787-.87868 2.3033 0 3.182l2.12132-2.1213Z" mask="url(#a)"/>
</svg>
