<svg width="28" height="28" viewBox="0 0 28 28" fill="none" xmlns="http://www.w3.org/2000/svg">
<circle cx="14" cy="14" r="13.25" transform="rotate(-90 14 14)" fill="#2A2238" stroke="#2A2238" stroke-width="1.5"/>
<path d="M13.25 24C13.25 24.4142 13.5858 24.75 14 24.75C14.4142 24.75 14.75 24.4142 14.75 24H13.25ZM14.5303 3.46967C14.2374 3.17678 13.7626 3.17678 13.4697 3.46967L8.6967 8.24264C8.40381 8.53553 8.40381 9.01041 8.6967 9.3033C8.98959 9.59619 9.46447 9.59619 9.75736 9.3033L14 5.06066L18.2426 9.3033C18.5355 9.59619 19.0104 9.59619 19.3033 9.3033C19.5962 9.01041 19.5962 8.53553 19.3033 8.24264L14.5303 3.46967ZM14.75 24L14.75 4H13.25L13.25 24H14.75Z" fill="white"/>
</svg>
