<svg width="28" height="28" viewBox="0 0 28 28" fill="none" xmlns="http://www.w3.org/2000/svg">
<path fill-rule="evenodd" clip-rule="evenodd" d="M20.7324 21.3196C20.7324 21.7159 20.4111 22.0371 20.0149 22.0371L7.57744 22.0371C7.18116 22.0371 6.8599 21.7159 6.8599 21.3196C6.8599 20.9233 7.18116 20.602 7.57744 20.602H13.0317L6.77616 9.76714C6.24221 8.84231 6.90965 7.68627 7.97755 7.68627L20.5715 7.68627C21.6394 7.68627 22.3068 8.84231 21.7729 9.76714L15.5173 20.602L20.0149 20.602C20.4111 20.602 20.7324 20.9233 20.7324 21.3196ZM14.2745 19.8845L20.4886 9.12135L8.06041 9.12135L14.2745 19.8845Z" fill="#2A2238"/>
<path d="M14 28C6.26801 28 -1.37091e-06 21.732 -1.37091e-06 14C-1.37091e-06 6.26801 6.26801 0 14 0C21.732 0 28 6.26801 28 14C28 21.732 21.732 28 14 28ZM14 1.84177C7.28519 1.84177 1.84176 7.28519 1.84176 14C1.84176 20.7148 7.28519 26.1582 14 26.1582C20.7148 26.1582 26.1582 20.7148 26.1582 14C26.1582 7.28519 20.7148 1.84177 14 1.84177Z" fill="#2A2238"/>
</svg>
