<svg width="29" height="25" viewBox="0 0 29 25" fill="none" xmlns="http://www.w3.org/2000/svg">
<path fill-rule="evenodd" clip-rule="evenodd" d="M20.7271 24.7725C20.9591 24.7725 21.1816 24.6803 21.3457 24.5162C21.5098 24.3521 21.602 24.1296 21.602 23.8975V3.26141L27.1071 8.76822C27.2713 8.93251 27.4942 9.02481 27.7265 9.02481C27.9588 9.02481 28.1817 8.93251 28.346 8.76822C28.5102 8.60393 28.6025 8.38111 28.6025 8.14877C28.6025 7.91643 28.5102 7.69361 28.346 7.52932L21.3465 0.529871C21.2652 0.448392 21.1687 0.383747 21.0624 0.339639C20.9561 0.295531 20.8421 0.272827 20.7271 0.272827C20.612 0.272827 20.498 0.295531 20.3917 0.339639C20.2854 0.383747 20.1889 0.448392 20.1076 0.529871L13.1082 7.52932C12.9439 7.69361 12.8516 7.91643 12.8516 8.14877C12.8516 8.38111 12.9439 8.60393 13.1082 8.76822C13.2724 8.93251 13.4953 9.02481 13.7276 9.02481C13.9599 9.02481 14.1828 8.93251 14.3471 8.76822L19.8521 3.26141V23.8975C19.8521 24.1296 19.9443 24.3521 20.1084 24.5162C20.2725 24.6803 20.495 24.7725 20.7271 24.7725ZM8.47802 0.274391C8.71007 0.274391 8.93261 0.366571 9.09669 0.530652C9.26077 0.694734 9.35295 0.917276 9.35295 1.14932V21.7854L14.858 16.2786C15.0223 16.1143 15.2451 16.022 15.4775 16.022C15.7098 16.022 15.9326 16.1143 16.0969 16.2786C16.2612 16.4429 16.3535 16.6657 16.3535 16.8981C16.3535 17.1304 16.2612 17.3532 16.0969 17.5175L9.09748 24.517C9.0162 24.5985 8.91965 24.6631 8.81336 24.7072C8.70706 24.7513 8.59311 24.774 8.47802 24.774C8.36294 24.774 8.24899 24.7513 8.14269 24.7072C8.0364 24.6631 7.93985 24.5985 7.85857 24.517L0.859124 17.5175C0.694835 17.3532 0.602539 17.1304 0.602539 16.8981C0.602539 16.6657 0.694835 16.4429 0.859124 16.2786C1.02341 16.1143 1.24624 16.022 1.47858 16.022C1.71091 16.022 1.93374 16.1143 2.09803 16.2786L7.60309 21.7854V1.14932C7.60309 0.917276 7.69527 0.694734 7.85935 0.530652C8.02344 0.366571 8.24598 0.274391 8.47802 0.274391Z" fill="#2A2238"/>
</svg>
