<svg xmlns="http://www.w3.org/2000/svg" fill="none" viewBox="0 0 28 28">
  <path fill="#2A2238" fill-rule="evenodd" d="M14 28C6.26801 28 0 21.732 0 14 0 6.26801 6.26801 0 14 0c7.732 0 14 6.26801 14 14 0 7.732-6.268 14-14 14Zm-.6062-8.05L6.81199 8.55c-.26943-.46667.06736-1.05.60622-1.05H20.5818c.5389 0 .8756.58333.6062 1.05l-6.5818 11.4c-.0838.1451-.2067.2451-.3443.3H20c.4142 0 .75.3358.75.75s-.3358.75-.75.75H7c-.41421 0-.75-.3358-.75-.75s.33579-.75.75-.75h6.7381c-.1376-.0549-.2605-.1549-.3443-.3Z" clip-rule="evenodd"/>
</svg>
