<svg xmlns="http://www.w3.org/2000/svg" fill="none" viewBox="0 0 28 28">
  <mask id="a" fill="#fff">
    <path fill-rule="evenodd" d="M0 14c0 7.732 6.26801 14 14 14 7.732 0 14-6.268 14-14 0-7.73199-6.268-14-14-14C6.26801 0 0 6.26801 0 14Zm14.5303 10.5303 4.773-4.7729c.2929-.2929.2929-.7678 0-1.0607-.2929-.2929-.7678-.2929-1.0607 0L14.75 22.1893V4c0-.41421-.3358-.75-.75-.75s-.75.33579-.75.75v18.1893l-3.49264-3.4926c-.29289-.2929-.76777-.2929-1.06066 0s-.29289.7678 0 1.0607l4.773 4.7729c.2929.2929.7677.2929 1.0606 0Z" clip-rule="evenodd"/>
  </mask>
  <path fill="#2A2238" fill-rule="evenodd" d="M0 14c0 7.732 6.26801 14 14 14 7.732 0 14-6.268 14-14 0-7.73199-6.268-14-14-14C6.26801 0 0 6.26801 0 14Zm14.5303 10.5303 4.773-4.7729c.2929-.2929.2929-.7678 0-1.0607-.2929-.2929-.7678-.2929-1.0607 0L14.75 22.1893V4c0-.41421-.3358-.75-.75-.75s-.75.33579-.75.75v18.1893l-3.49264-3.4926c-.29289-.2929-.76777-.2929-1.06066 0s-.29289.7678 0 1.0607l4.773 4.7729c.2929.2929.7677.2929 1.0606 0Z" clip-rule="evenodd"/>
  <path fill="#2A2238" d="m19.3033 19.7574-1.0607-1.0607 1.0607 1.0607Zm-4.773 4.7729 1.0607 1.0607-1.0607-1.0607Zm4.773-5.8336 1.0607-1.0607-1.0607 1.0607Zm-1.0607 0L17.182 17.636l1.0606 1.0607ZM14.75 22.1893h-1.5v3.6214l2.5607-2.5607-1.0607-1.0607Zm-1.5 0L12.1893 23.25l2.5607 2.5607v-3.6214h-1.5Zm-3.49264-3.4926L8.6967 19.7574l1.06066-1.0607ZM8.6967 19.7574l1.06066-1.0607-1.06066 1.0607Zm4.773 4.7729L12.409 25.591l1.0607-1.0607ZM14 26.5C7.09644 26.5 1.5 20.9036 1.5 14h-3c0 8.5604 6.93959 15.5 15.5 15.5v-3ZM26.5 14c0 6.9036-5.5964 12.5-12.5 12.5v3c8.5604 0 15.5-6.9396 15.5-15.5h-3ZM14 1.5c6.9036 0 12.5 5.59644 12.5 12.5h3c0-8.56041-6.9396-15.5-15.5-15.5v3ZM1.5 14C1.5 7.09644 7.09644 1.5 14 1.5v-3C5.43959-1.5-1.5 5.43959-1.5 14h3Zm16.7426 4.6967-4.7729 4.773 2.1213 2.1213 4.773-4.773-2.1214-2.1213Zm0 1.0607c-.2929-.2929-.2929-.7678 0-1.0607l2.1214 2.1213c.8786-.8787.8786-2.3033 0-3.182l-2.1214 2.1214Zm1.0607 0c-.2929.2929-.7678.2929-1.0607 0l2.1214-2.1214c-.8787-.8786-2.3033-.8786-3.182 0l2.1213 2.1214ZM15.8107 23.25l3.4926-3.4926-2.1213-2.1214-3.4927 3.4927 2.1214 2.1213ZM13.25 4v18.1893h3V4h-3Zm.75.75c-.4142 0-.75-.33579-.75-.75h3c0-1.24264-1.0074-2.25-2.25-2.25v3Zm.75-.75c0 .41421-.3358.75-.75.75v-3c-1.2426 0-2.25 1.00736-2.25 2.25h3Zm0 18.1893V4h-3v18.1893h3Zm-6.0533-2.4319 3.4926 3.4926 2.1214-2.1213-3.4927-3.4927-2.1213 2.1214Zm1.06066 0c-.29289.2929-.76777.2929-1.06066 0l2.1213-2.1214c-.87866-.8786-2.30328-.8786-3.18196 0l2.12132 2.1214Zm0-1.0607c.29294.2929.29284.7678 0 1.0607L7.63604 17.636c-.87868.8787-.87868 2.3033 0 3.182l2.12132-2.1213Zm4.77294 4.773-4.77294-4.773-2.12132 2.1213 4.77296 4.773 2.1213-2.1213Zm-1.0606 0c.2929-.2929.7677-.2929 1.0606 0L12.409 25.591c.8787.8787 2.3033.8787 3.182 0l-2.1213-2.1213Z" mask="url(#a)"/>
</svg>
