<svg width="28" height="28" viewBox="0 0 28 28" fill="none" xmlns="http://www.w3.org/2000/svg">
<path fill-rule="evenodd" clip-rule="evenodd" d="M7.26761 6.68042C7.26761 6.28414 7.58886 5.96288 7.98515 5.96288H20.4226C20.8188 5.96288 21.1401 6.28414 21.1401 6.68042C21.1401 7.07671 20.8188 7.39797 20.4226 7.39797H14.9683L21.2238 18.2329C21.7578 19.1577 21.0904 20.3137 20.0224 20.3137H7.42853C6.36063 20.3137 5.69319 19.1577 6.22714 18.2329L12.4827 7.39797H7.98515C7.58886 7.39797 7.26761 7.07671 7.26761 6.68042ZM13.7255 8.11551L7.51139 18.8786H19.9396L13.7255 8.11551Z" fill="#2A2238"/>
<path d="M14 -1.37091e-06C21.732 -1.37091e-06 28 6.26801 28 14C28 21.732 21.732 28 14 28C6.26801 28 0 21.732 0 14C0 6.26801 6.26801 -1.37091e-06 14 -1.37091e-06ZM14 26.1582C20.7148 26.1582 26.1582 20.7148 26.1582 14C26.1582 7.28519 20.7148 1.84176 14 1.84176C7.28519 1.84176 1.84177 7.28519 1.84177 14C1.84177 20.7148 7.28519 26.1582 14 26.1582Z" fill="#2A2238"/>
</svg>
