<svg xmlns="http://www.w3.org/2000/svg" fill="none" viewBox="0 0 28 21">
  <path fill="#2A2238" d="M0 2.625C0 1.92881.276562 1.26113.768845.768845 1.26113.276562 1.92881 0 2.625 0h22.75c.6962 0 1.3639.276562 1.8562.768845C27.7234 1.26113 28 1.92881 28 2.625v15.75c0 .6962-.2766 1.3639-.7688 1.8562-.4923.4922-1.16.7688-1.8562.7688H2.625c-.69619 0-1.36387-.2766-1.856155-.7688C.276562 19.7389 0 19.0712 0 18.375V2.625Zm2.625-.875c-.23206 0-.45462.09219-.61872.25628-.16409.1641-.25628.38666-.25628.61872v15.75c0 .2321.09219.4546.25628.6187.1641.1641.38666.2563.61872.2563h22.75c.2321 0 .4546-.0922.6187-.2563.1641-.1641.2563-.3866.2563-.6187V2.625c0-.23206-.0922-.45462-.2563-.61872-.1641-.16409-.3866-.25628-.6187-.25628H2.625Z"/>
  <path fill="#2A2238" d="M3.5 4.375c0-.23206.09219-.45462.25628-.61872.1641-.16409.38666-.25628.61872-.25628h5.25c.23206 0 .4546.09219.6187.25628.1641.1641.2563.38666.2563.61872 0 .23206-.0922.45462-.2563.61872-.1641.16409-.38664.25628-.6187.25628H5.25v4.375c0 .23206-.09219.4546-.25628.6187-.1641.1641-.38666.2563-.61872.2563-.23206 0-.45462-.0922-.61872-.2563C3.59219 10.0796 3.5 9.85706 3.5 9.625v-5.25Zm21 12.25c0 .2321-.0922.4546-.2563.6187-.1641.1641-.3866.2563-.6187.2563h-5.25c-.2321 0-.4546-.0922-.6187-.2563-.1641-.1641-.2563-.3866-.2563-.6187 0-.2321.0922-.4546.2563-.6187.1641-.1641.3866-.2563.6187-.2563h4.375v-4.375c0-.2321.0922-.4546.2563-.6187.1641-.1641.3866-.2563.6187-.2563.2321 0 .4546.0922.6187.2563.1641.1641.2563.3866.2563.6187v5.25Z"/>
</svg>
