<svg width="29" height="26" viewBox="0 0 29 26" fill="none" xmlns="http://www.w3.org/2000/svg">
<path d="M28.5981 3.84359C28.5981 2.89657 28.2219 1.98833 27.5523 1.31868C26.8826 0.649032 25.9744 0.272827 25.0274 0.272827H12.3869C11.8717 0.27261 11.3626 0.383876 10.8944 0.598986C10.4263 0.814097 10.0103 1.12796 9.67489 1.51902L1.02828 11.61C0.750723 11.9336 0.598145 12.3459 0.598145 12.7723C0.598145 13.1986 0.750723 13.6109 1.02828 13.9346L9.67489 24.022C10.0103 24.413 10.4263 24.7269 10.8944 24.942C11.3626 25.1571 11.8717 25.2684 12.3869 25.2682H25.0274C25.9744 25.2682 26.8826 24.892 27.5523 24.2223C28.2219 23.5527 28.5981 22.6444 28.5981 21.6974V3.84359ZM11.005 8.93907C10.922 8.85619 10.8561 8.75777 10.8112 8.64944C10.7662 8.5411 10.743 8.42497 10.7429 8.30768C10.7429 8.19038 10.7659 8.07422 10.8107 7.96582C10.8555 7.85742 10.9212 7.75891 11.0041 7.67591C11.087 7.59291 11.1854 7.52705 11.2937 7.48209C11.4021 7.43712 11.5182 7.41394 11.6355 7.41386C11.7528 7.41377 11.869 7.4368 11.9774 7.48161C12.0858 7.52642 12.1843 7.59214 12.2673 7.67502L16.1005 11.5082L19.9319 7.67502C20.0149 7.59214 20.1134 7.52642 20.2218 7.48161C20.3302 7.4368 20.4464 7.41377 20.5637 7.41386C20.681 7.41394 20.7971 7.43712 20.9054 7.48209C21.0138 7.52705 21.1122 7.59291 21.1951 7.67591C21.2779 7.75891 21.3437 7.85742 21.3885 7.96582C21.4333 8.07422 21.4563 8.19038 21.4562 8.30768C21.4561 8.42497 21.433 8.5411 21.388 8.64944C21.343 8.75777 21.2772 8.85619 21.1942 8.93907L17.3627 12.7705L21.1942 16.6019C21.3618 16.7693 21.4561 16.9964 21.4562 17.2333C21.4564 17.4702 21.3624 17.6975 21.1951 17.8651C21.0277 18.0327 20.8006 18.127 20.5637 18.1271C20.3268 18.1273 20.0995 18.0334 19.9319 17.866L16.1005 14.0328L12.2673 17.866C12.1843 17.9489 12.0858 18.0146 11.9774 18.0594C11.869 18.1042 11.7528 18.1272 11.6355 18.1271C11.5182 18.1271 11.4021 18.1039 11.2937 18.0589C11.1854 18.0139 11.087 17.9481 11.0041 17.8651C10.9212 17.7821 10.8555 17.6836 10.8107 17.5752C10.7659 17.4668 10.7429 17.3506 10.7429 17.2333C10.7431 16.9964 10.8374 16.7693 11.005 16.6019L14.8382 12.7705L11.005 8.93907Z" fill="#2A2238"/>
</svg>
