<svg width="29" height="25" viewBox="0 0 29 25" fill="none" xmlns="http://www.w3.org/2000/svg">
<path d="M17.3497 7.26924C17.435 7.35437 17.5027 7.45549 17.5489 7.56683C17.5951 7.67817 17.6189 7.79753 17.6189 7.91807C17.6189 8.03861 17.5951 8.15797 17.5489 8.26931C17.5027 8.38065 17.435 8.48178 17.3497 8.56691L13.4145 12.5002L17.3497 16.4336C17.5217 16.6057 17.6184 16.839 17.6184 17.0824C17.6184 17.3258 17.5217 17.5592 17.3497 17.7312C17.1776 17.9033 16.9442 18 16.7008 18C16.4575 18 16.2241 17.9033 16.052 17.7312L12.1187 13.7961L8.18532 17.7312C8.01324 17.9033 7.77985 18 7.53649 18C7.29313 18 7.05973 17.9033 6.88765 17.7312C6.71557 17.5592 6.6189 17.3258 6.6189 17.0824C6.6189 16.839 6.71557 16.6057 6.88765 16.4336L10.8228 12.5002L6.88765 8.56691C6.80245 8.4817 6.73486 8.38055 6.68874 8.26922C6.64263 8.15789 6.6189 8.03857 6.6189 7.91807C6.6189 7.79757 6.64263 7.67825 6.68874 7.56692C6.73486 7.4556 6.80245 7.35444 6.88765 7.26924C6.97286 7.18403 7.07401 7.11644 7.18534 7.07033C7.29667 7.02421 7.41599 7.00048 7.53649 7.00048C7.65699 7.00048 7.77631 7.02421 7.88764 7.07033C7.99896 7.11644 8.10012 7.18403 8.18532 7.26924L12.1187 11.2044L16.052 7.26924C16.1371 7.18389 16.2382 7.11618 16.3496 7.06998C16.4609 7.02378 16.5803 7 16.7008 7C16.8214 7 16.9407 7.02378 17.0521 7.06998C17.1634 7.11618 17.2645 7.18389 17.3497 7.26924Z" fill="#2A2238"/>
<path d="M4.18966 7.72886e-09C3.24263 7.72886e-09 2.3344 0.376204 1.66475 1.04585C0.995101 1.7155 0.618896 2.62374 0.618896 3.57076L0.618896 21.4246C0.618896 22.3716 0.995101 23.2798 1.66475 23.9495C2.3344 24.6191 3.24263 24.9953 4.18966 24.9953H16.8302C17.3453 24.9956 17.8545 24.8843 18.3226 24.6692C18.7907 24.4541 19.2068 24.1402 19.5422 23.7491L28.1888 13.66C28.4663 13.3363 28.6189 12.924 28.6189 12.4977C28.6189 12.0713 28.4663 11.659 28.1888 11.3354L19.5439 1.24977C19.2087 0.857821 18.7925 0.543151 18.324 0.327407C17.8556 0.111663 17.3459 -3.39246e-05 16.8302 7.72886e-09H4.18966ZM16.8302 1.78538C17.088 1.78536 17.3429 1.84121 17.5771 1.94908C17.8113 2.05696 18.0194 2.21429 18.1871 2.41026L26.8319 12.4977L18.1835 22.5851C18.0161 22.7808 17.8083 22.938 17.5743 23.0459C17.3404 23.1537 17.086 23.2097 16.8284 23.21H4.18966C3.71615 23.21 3.26203 23.0219 2.9272 22.687C2.59238 22.3522 2.40428 21.8981 2.40428 21.4246V3.57076C2.40428 3.09725 2.59238 2.64313 2.9272 2.30831C3.26203 1.97348 3.71615 1.78538 4.18966 1.78538H16.8302Z" fill="#2A2238"/>
</svg>
