<svg width="23" height="27" viewBox="0 0 23 27" fill="none" xmlns="http://www.w3.org/2000/svg">
<path fill-rule="evenodd" clip-rule="evenodd" d="M14.3502 3.08771C13.5883 2.32584 12.555 1.89783 11.4775 1.89783C10.4001 1.89783 9.36678 2.32584 8.60492 3.08771C7.84305 3.84957 7.41504 4.88288 7.41504 5.96033V6.77283H15.54V5.96033C15.54 4.88288 15.112 3.84957 14.3502 3.08771ZM17.165 5.96033V6.77283H22.8525V23.0228C22.8525 23.8848 22.5101 24.7114 21.9006 25.3209C21.2911 25.9304 20.4645 26.2728 19.6025 26.2728H3.35254C2.49059 26.2728 1.66394 25.9304 1.05444 25.3209C0.444949 24.7114 0.102539 23.8848 0.102539 23.0228V6.77283H5.79004V5.96033C5.79004 4.45191 6.38926 3.00527 7.45587 1.93866C8.52248 0.872044 9.96912 0.272827 11.4775 0.272827C12.986 0.272827 14.4326 0.872044 15.4992 1.93866C16.5658 3.00527 17.165 4.45191 17.165 5.96033ZM21.2275 23.0228V8.39783H1.72754V23.0228C1.72754 23.4538 1.89874 23.8671 2.20349 24.1719C2.50824 24.4766 2.92156 24.6478 3.35254 24.6478H19.6025C20.0335 24.6478 20.4468 24.4766 20.7516 24.1719C21.0563 23.8671 21.2275 23.4538 21.2275 23.0228ZM16.2919 13.774C16.251 13.6753 16.1909 13.5856 16.1153 13.5101C16.0398 13.4345 15.9501 13.3744 15.8514 13.3335C15.7527 13.2925 15.6469 13.2714 15.54 13.2714C15.4331 13.2714 15.3273 13.2925 15.2286 13.3335C15.1299 13.3744 15.0402 13.4345 14.9648 13.5101L10.665 17.8115L8.80276 15.9476C8.72721 15.8721 8.63753 15.8122 8.53883 15.7713C8.44013 15.7304 8.33434 15.7093 8.22751 15.7093C8.01175 15.7093 7.80482 15.7951 7.65226 15.9476C7.57671 16.0232 7.51679 16.1128 7.47591 16.2115C7.43502 16.3102 7.41398 16.416 7.41398 16.5229C7.41398 16.6297 7.43502 16.7355 7.47591 16.8342C7.51679 16.9329 7.57671 17.0226 7.65226 17.0981L10.0898 19.5356C10.1652 19.6113 10.2549 19.6713 10.3536 19.7123C10.4523 19.7532 10.5581 19.7743 10.665 19.7743C10.7719 19.7743 10.8777 19.7532 10.9764 19.7123C11.0751 19.6713 11.1648 19.6113 11.2403 19.5356L16.1153 14.6606C16.1909 14.5851 16.251 14.4955 16.2919 14.3968C16.3329 14.2981 16.354 14.1922 16.354 14.0854C16.354 13.9785 16.3329 13.8727 16.2919 13.774Z" fill="#2A2238"/>
</svg>
