<svg width="24" height="26" viewBox="0 0 24 26" fill="none" xmlns="http://www.w3.org/2000/svg">
<path fill-rule="evenodd" clip-rule="evenodd" d="M15.835 5.6875C15.835 4.61006 15.4069 3.57675 14.6451 2.81488C13.8832 2.05301 12.8499 1.625 11.7725 1.625C10.695 1.625 9.66171 2.05301 8.89984 2.81488C8.13797 3.57675 7.70996 4.61006 7.70996 5.6875V6.5H15.835V5.6875ZM17.46 5.6875V6.5H23.1475V22.75C23.1475 23.612 22.805 24.4386 22.1956 25.0481C21.5861 25.6576 20.7594 26 19.8975 26H3.64746C2.78551 26 1.95886 25.6576 1.34936 25.0481C0.739871 24.4386 0.397461 23.612 0.397461 22.75V6.5H6.08496V5.6875C6.08496 4.17908 6.68418 2.73244 7.75079 1.66583C8.8174 0.599217 10.264 0 11.7725 0C13.2809 0 14.7275 0.599217 15.7941 1.66583C16.8607 2.73244 17.46 4.17908 17.46 5.6875ZM12.585 13C12.585 12.7845 12.4994 12.5778 12.347 12.4255C12.1946 12.2731 11.9879 12.1875 11.7725 12.1875C11.557 12.1875 11.3503 12.2731 11.1979 12.4255C11.0456 12.5778 10.96 12.7845 10.96 13V15.4375H8.52246C8.30697 15.4375 8.10031 15.5231 7.94794 15.6755C7.79556 15.8278 7.70996 16.0345 7.70996 16.25C7.70996 16.4655 7.79556 16.6722 7.94794 16.8245C8.10031 16.9769 8.30697 17.0625 8.52246 17.0625H10.96V19.5C10.96 19.7155 11.0456 19.9222 11.1979 20.0745C11.3503 20.2269 11.557 20.3125 11.7725 20.3125C11.9879 20.3125 12.1946 20.2269 12.347 20.0745C12.4994 19.9222 12.585 19.7155 12.585 19.5V17.0625H15.0225C15.2379 17.0625 15.4446 16.9769 15.597 16.8245C15.7494 16.6722 15.835 16.4655 15.835 16.25C15.835 16.0345 15.7494 15.8278 15.597 15.6755C15.4446 15.5231 15.2379 15.4375 15.0225 15.4375H12.585V13Z" fill="#2A2238"/>
</svg>
