<svg width="24" height="26" viewBox="0 0 24 26" fill="none" xmlns="http://www.w3.org/2000/svg">
<path fill-rule="evenodd" clip-rule="evenodd" d="M14.8951 2.81488C14.1332 2.05301 13.0999 1.625 12.0225 1.625C10.945 1.625 9.91171 2.05301 9.14984 2.81488C8.38797 3.57675 7.95996 4.61006 7.95996 5.6875V6.5H16.085V5.6875C16.085 4.61006 15.6569 3.57675 14.8951 2.81488ZM17.71 5.6875V6.5H23.3975V22.75C23.3975 23.612 23.055 24.4386 22.4456 25.0481C21.8361 25.6576 21.0094 26 20.1475 26H3.89746C3.03551 26 2.20886 25.6576 1.59936 25.0481C0.989871 24.4386 0.647461 23.612 0.647461 22.75V6.5H6.33496V5.6875C6.33496 4.17908 6.93418 2.73244 8.00079 1.66583C9.0674 0.599217 10.514 0 12.0225 0C13.5309 0 14.9775 0.599217 16.0441 1.66583C17.1107 2.73244 17.71 4.17908 17.71 5.6875ZM21.2965 23.899C21.6013 23.5943 21.7725 23.181 21.7725 22.75V8.125H2.27246V22.75C2.27246 23.181 2.44367 23.5943 2.74841 23.899C3.05316 24.2038 3.46648 24.375 3.89746 24.375H20.1475C20.5784 24.375 20.9918 24.2038 21.2965 23.899ZM12.597 12.4255C12.4446 12.2731 12.2379 12.1875 12.0225 12.1875C11.807 12.1875 11.6003 12.2731 11.4479 12.4255C11.2956 12.5778 11.21 12.7845 11.21 13V15.4375H8.77246C8.55697 15.4375 8.35031 15.5231 8.19794 15.6755C8.04556 15.8278 7.95996 16.0345 7.95996 16.25C7.95996 16.4655 8.04556 16.6722 8.19794 16.8245C8.35031 16.9769 8.55697 17.0625 8.77246 17.0625H11.21V19.5C11.21 19.7155 11.2956 19.9222 11.4479 20.0745C11.6003 20.2269 11.807 20.3125 12.0225 20.3125C12.2379 20.3125 12.4446 20.2269 12.597 20.0745C12.7494 19.9222 12.835 19.7155 12.835 19.5V17.0625H15.2725C15.4879 17.0625 15.6946 16.9769 15.847 16.8245C15.9994 16.6722 16.085 16.4655 16.085 16.25C16.085 16.0345 15.9994 15.8278 15.847 15.6755C15.6946 15.5231 15.4879 15.4375 15.2725 15.4375H12.835V13C12.835 12.7845 12.7494 12.5778 12.597 12.4255Z" fill="#2A2238"/>
</svg>
