<svg width="24" height="27" viewBox="0 0 24 27" fill="none" xmlns="http://www.w3.org/2000/svg">
<path fill-rule="evenodd" clip-rule="evenodd" d="M15.79 5.96033C15.79 4.88288 15.362 3.84957 14.6002 3.08771C13.8383 2.32584 12.805 1.89783 11.7275 1.89783C10.6501 1.89783 9.61678 2.32584 8.85492 3.08771C8.09305 3.84957 7.66504 4.88288 7.66504 5.96033V6.77283H15.79V5.96033ZM17.415 5.96033V6.77283H23.1025V23.0228C23.1025 23.8848 22.7601 24.7114 22.1506 25.3209C21.5411 25.9304 20.7145 26.2728 19.8525 26.2728H3.60254C2.74059 26.2728 1.91394 25.9304 1.30444 25.3209C0.694949 24.7114 0.352539 23.8848 0.352539 23.0228V6.77283H6.04004V5.96033C6.04004 4.45191 6.63926 3.00527 7.70587 1.93866C8.77248 0.872044 10.2191 0.272827 11.7275 0.272827C13.236 0.272827 14.6826 0.872044 15.7492 1.93866C16.8158 3.00527 17.415 4.45191 17.415 5.96033ZM16.3653 14.6606C16.5179 14.508 16.6036 14.3011 16.6036 14.0853C16.6036 13.8696 16.5179 13.6626 16.3653 13.5101C16.2127 13.3575 16.0058 13.2718 15.79 13.2718C15.5743 13.2718 15.3674 13.3575 15.2148 13.5101L10.915 17.8115L9.05279 15.9476C8.97725 15.872 8.88756 15.8121 8.78886 15.7712C8.69016 15.7303 8.58437 15.7093 8.47754 15.7093C8.37071 15.7093 8.26492 15.7303 8.16622 15.7712C8.06751 15.8121 7.97783 15.872 7.90229 15.9476C7.82675 16.0231 7.76682 16.1128 7.72594 16.2115C7.68505 16.3102 7.66401 16.416 7.66401 16.5228C7.66401 16.6297 7.68505 16.7354 7.72594 16.8342C7.76682 16.9329 7.82675 17.0225 7.90229 17.0981L10.3398 19.5356C10.4153 19.6112 10.5049 19.6713 10.6036 19.7122C10.7023 19.7532 10.8082 19.7743 10.915 19.7743C11.0219 19.7743 11.1277 19.7532 11.2264 19.7122C11.3252 19.6713 11.4148 19.6112 11.4903 19.5356L16.3653 14.6606Z" fill="#2A2238"/>
</svg>
