<svg width="24" height="26" viewBox="0 0 24 26" fill="none" xmlns="http://www.w3.org/2000/svg">
<path fill-rule="evenodd" clip-rule="evenodd" d="M15.835 5.6875C15.835 4.61006 15.4069 3.57675 14.6451 2.81488C13.8832 2.05301 12.8499 1.625 11.7725 1.625C10.695 1.625 9.66171 2.05301 8.89984 2.81488C8.13797 3.57675 7.70996 4.61006 7.70996 5.6875V6.5H15.835V5.6875ZM17.46 5.6875V6.5H23.1475V22.75C23.1475 23.612 22.805 24.4386 22.1956 25.0481C21.5861 25.6576 20.7594 26 19.8975 26H3.64746C2.78551 26 1.95886 25.6576 1.34936 25.0481C0.739871 24.4386 0.397461 23.612 0.397461 22.75V6.5H6.08496V5.6875C6.08496 4.17908 6.68418 2.73244 7.75079 1.66583C8.8174 0.599217 10.264 0 11.7725 0C13.2809 0 14.7275 0.599217 15.7941 1.66583C16.8607 2.73244 17.46 4.17908 17.46 5.6875ZM21.5225 22.75V8.125H2.02246V22.75C2.02246 23.181 2.19367 23.5943 2.49841 23.899C2.80316 24.2038 3.21648 24.375 3.64746 24.375H19.8975C20.3284 24.375 20.7418 24.2038 21.0465 23.899C21.3513 23.5943 21.5225 23.181 21.5225 22.75ZM11.7725 12.9886C14.4765 10.2083 21.2381 15.0735 11.7725 21.3281C2.30684 15.0719 9.06846 10.2083 11.7725 12.9886Z" fill="#2A2238"/>
</svg>
