<svg width="24" height="27" viewBox="0 0 24 27" fill="none" xmlns="http://www.w3.org/2000/svg">
<path fill-rule="evenodd" clip-rule="evenodd" d="M15.1002 3.08771C14.3383 2.32584 13.305 1.89783 12.2275 1.89783C11.1501 1.89783 10.1168 2.32584 9.35492 3.08771C8.59305 3.84957 8.16504 4.88288 8.16504 5.96033V6.77283H16.29V5.96033C16.29 4.88288 15.862 3.84957 15.1002 3.08771ZM17.915 5.96033V6.77283H23.6025V23.0228C23.6025 23.8848 23.2601 24.7114 22.6506 25.3209C22.0411 25.9304 21.2145 26.2728 20.3525 26.2728H4.10254C3.24059 26.2728 2.41394 25.9304 1.80444 25.3209C1.19495 24.7114 0.852539 23.8848 0.852539 23.0228V6.77283H6.54004V5.96033C6.54004 4.45191 7.13926 3.00527 8.20587 1.93866C9.27248 0.872044 10.7191 0.272827 12.2275 0.272827C13.736 0.272827 15.1826 0.872044 16.2492 1.93866C17.3158 3.00527 17.915 4.45191 17.915 5.96033ZM21.9775 23.0228V8.39783H2.47754V23.0228C2.47754 23.4538 2.64874 23.8671 2.95349 24.1719C3.25824 24.4766 3.67156 24.6478 4.10254 24.6478H20.3525C20.7835 24.6478 21.1968 24.4766 21.5016 24.1719C21.8063 23.8671 21.9775 23.4538 21.9775 23.0228ZM9.4787 13.3335C9.37999 13.3744 9.29033 13.4345 9.21485 13.5101C9.13919 13.5856 9.07915 13.6753 9.03819 13.774C8.99723 13.8727 8.97615 13.9785 8.97615 14.0854C8.97615 14.1923 8.99723 14.2981 9.03819 14.3968C9.07915 14.4955 9.13919 14.5852 9.21485 14.6606L11.0787 16.5229L9.21485 18.3851C9.06229 18.5377 8.97658 18.7446 8.97658 18.9604C8.97658 19.1762 9.06229 19.3831 9.21485 19.5356C9.36742 19.6882 9.57434 19.7739 9.7901 19.7739C10.0059 19.7739 10.2128 19.6882 10.3654 19.5356L12.2276 17.6718L14.0899 19.5356C14.2424 19.6882 14.4493 19.7739 14.6651 19.7739C14.8809 19.7739 15.0878 19.6882 15.2404 19.5356C15.3929 19.3831 15.4786 19.1762 15.4786 18.9604C15.4786 18.7446 15.3929 18.5377 15.2404 18.3851L13.3765 16.5229L15.2404 14.6606C15.3929 14.5081 15.4786 14.3012 15.4786 14.0854C15.4786 13.8696 15.3929 13.6627 15.2404 13.5101C15.0878 13.3576 14.8809 13.2719 14.6651 13.2719C14.4493 13.2719 14.2424 13.3576 14.0899 13.5101L12.2276 15.374L10.3654 13.5101C10.2899 13.4345 10.2002 13.3744 10.1015 13.3335C10.0028 13.2925 9.89697 13.2714 9.7901 13.2714C9.68323 13.2714 9.57741 13.2925 9.4787 13.3335Z" fill="#2A2238"/>
</svg>
