<svg width="24" height="27" viewBox="0 0 24 27" fill="none" xmlns="http://www.w3.org/2000/svg">
<path d="M12.2275 1.89783C13.305 1.89783 14.3383 2.32584 15.1002 3.08771C15.862 3.84957 16.29 4.88288 16.29 5.96033V6.77283H8.16504V5.96033C8.16504 4.88288 8.59305 3.84957 9.35492 3.08771C10.1168 2.32584 11.1501 1.89783 12.2275 1.89783ZM17.915 6.77283V5.96033C17.915 4.45191 17.3158 3.00527 16.2492 1.93866C15.1826 0.872044 13.736 0.272827 12.2275 0.272827C10.7191 0.272827 9.27248 0.872044 8.20587 1.93866C7.13926 3.00527 6.54004 4.45191 6.54004 5.96033V6.77283H0.852539V23.0228C0.852539 23.8848 1.19495 24.7114 1.80444 25.3209C2.41394 25.9304 3.24059 26.2728 4.10254 26.2728H20.3525C21.2145 26.2728 22.0411 25.9304 22.6506 25.3209C23.2601 24.7114 23.6025 23.8848 23.6025 23.0228V6.77283H17.915ZM2.47754 8.39783H21.9775V23.0228C21.9775 23.4538 21.8063 23.8671 21.5016 24.1719C21.1968 24.4766 20.7835 24.6478 20.3525 24.6478H4.10254C3.67156 24.6478 3.25824 24.4766 2.95349 24.1719C2.64874 23.8671 2.47754 23.4538 2.47754 23.0228V8.39783Z" fill="#2A2238"/>
</svg>
