<svg width="22" height="29" viewBox="0 0 22 29" fill="none" xmlns="http://www.w3.org/2000/svg">
<path fill-rule="evenodd" clip-rule="evenodd" d="M10.8268 4.64479L9.55221 3.3346C7.54338 1.27065 3.78702 1.9533 2.4235 4.61457C1.80129 5.83231 1.62174 7.64916 2.84305 10.058C4.00035 12.3477 6.41807 15.1334 10.8268 18.1947C15.2339 15.1316 17.6516 12.3459 18.8107 10.058C20.032 7.64916 19.8542 5.83231 19.2302 4.61634C17.8667 1.9533 14.1103 1.27065 12.1015 3.3346L10.8268 4.64479ZM9.95576 19.7555C-9.20821 6.52919 4.62256 -3.63056 10.594 1.86619C10.674 1.93908 10.7522 2.01552 10.8286 2.09552C10.9051 2.01552 10.9833 1.93908 11.0633 1.86619C17.0365 -3.63056 30.8619 6.53096 11.6979 19.7555L12.1157 20.5875C12.1419 20.6398 12.1574 20.6967 12.1616 20.7551C12.1657 20.8134 12.1584 20.8719 12.1399 20.9274C12.1214 20.9829 12.0921 21.0341 12.0538 21.0783C12.0155 21.1225 11.9689 21.1587 11.9166 21.1848C11.8643 21.211 11.8074 21.2266 11.7491 21.2307C11.6907 21.2349 11.6322 21.2275 11.5767 21.209C11.5212 21.1905 11.47 21.1613 11.4258 21.123C11.3816 21.0846 11.3454 21.038 11.3193 20.9857L11.3051 20.9555C11.3193 21.151 11.3406 21.3146 11.3708 21.471C11.4668 21.951 11.6571 22.3386 12.1157 23.2541C12.6277 24.2816 12.5335 25.2985 12.2508 26.15C11.9717 26.9838 11.5006 27.6913 11.2055 28.1322L11.1984 28.1447C11.1659 28.1932 11.1242 28.2349 11.0757 28.2673C11.0271 28.2998 10.9726 28.3224 10.9154 28.3337C10.8581 28.3451 10.7991 28.3451 10.7418 28.3337C10.6846 28.3223 10.6301 28.2998 10.5815 28.2673C10.533 28.2349 10.4913 28.1932 10.4588 28.1446C10.4264 28.096 10.4038 28.0416 10.3924 27.9843C10.381 27.927 10.381 27.868 10.3924 27.8108C10.4038 27.7535 10.4264 27.699 10.4589 27.6504C10.7575 27.2025 11.17 26.5838 11.4064 25.8674C11.6428 25.1634 11.6962 24.4025 11.3193 23.6523L11.2962 23.6025C10.8695 22.7492 10.6206 22.255 10.4997 21.6435C10.4499 21.3794 10.419 21.112 10.4073 20.8435L10.3362 20.9857C10.3103 21.0384 10.2743 21.0854 10.2302 21.124C10.186 21.1627 10.1347 21.1922 10.0791 21.2109C10.0235 21.2296 9.9648 21.2371 9.90629 21.233C9.84778 21.2289 9.79066 21.2133 9.73822 21.187C9.68578 21.1607 9.63906 21.1244 9.60076 21.0799C9.56245 21.0355 9.53332 20.984 9.51504 20.9282C9.49675 20.8725 9.48969 20.8137 9.49424 20.7552C9.49879 20.6967 9.51486 20.6397 9.54155 20.5875L9.95932 19.7555H9.95576ZM7.29449 4.0048C6.14074 3.68481 4.65811 4.15236 4.00568 5.42344C3.7728 5.88209 3.57014 6.64829 3.86347 7.79671C3.97546 8.23048 4.59945 8.1487 4.72922 7.72027C5.10255 6.48119 5.84386 5.14789 7.14516 4.71234C7.53093 4.58257 7.68559 4.11325 7.29449 4.0048Z" fill="#2A2238"/>
</svg>
