<svg width="19" height="29" viewBox="0 0 19 29" fill="none" xmlns="http://www.w3.org/2000/svg">
<path fill-rule="evenodd" clip-rule="evenodd" d="M9.27161 18.0914C13.5436 17.2417 16.3826 13.6399 16.3826 9.23108C16.3826 7.34511 15.6334 5.5364 14.2999 4.20282C12.9663 2.86924 11.1576 2.12004 9.27161 2.12004C7.38564 2.12004 5.57692 2.86924 4.24334 4.20282C2.90977 5.5364 2.16057 7.34511 2.16057 9.23108C2.16057 13.6399 4.99965 17.2417 9.27161 18.0914ZM18.1604 9.23108C18.1604 14.2746 14.98 18.5234 10.1249 19.7216L10.5587 20.5874C10.6115 20.693 10.6202 20.8153 10.5829 20.9273C10.5455 21.0393 10.4652 21.1319 10.3596 21.1847C10.254 21.2375 10.1317 21.2462 10.0197 21.2089C9.90767 21.1715 9.81507 21.0912 9.76227 20.9856L9.74804 20.9554C9.76227 21.1509 9.7836 21.3145 9.81382 21.4709C9.90982 21.9509 10.1 22.3385 10.5587 23.254C11.0707 24.2816 10.9765 25.2985 10.6938 26.15C10.4147 26.9838 9.9436 27.6913 9.64849 28.1322L9.64138 28.1447C9.60893 28.1932 9.56723 28.2349 9.51867 28.2673C9.47011 28.2998 9.41562 28.3224 9.35834 28.3337C9.30106 28.3451 9.24209 28.3451 9.18481 28.3337C9.12753 28.3223 9.07306 28.2998 9.0245 28.2673C8.97594 28.2349 8.93425 28.1932 8.9018 28.1446C8.86936 28.096 8.84679 28.0416 8.8354 27.9843C8.82401 27.927 8.82402 27.868 8.83541 27.8108C8.84681 27.7535 8.86938 27.699 8.90183 27.6504C9.20049 27.2024 9.61294 26.5838 9.84938 25.8673C10.0858 25.1633 10.1392 24.4025 9.76227 23.6523L9.73915 23.6025C9.31249 22.7492 9.06361 22.2549 8.94272 21.6434C8.89291 21.3793 8.86202 21.1119 8.85028 20.8434L8.77917 20.9856C8.75329 21.0383 8.71726 21.0853 8.67314 21.1239C8.62902 21.1626 8.57768 21.1921 8.52209 21.2108C8.46651 21.2295 8.40776 21.237 8.34925 21.2329C8.29074 21.2288 8.23362 21.2132 8.18118 21.1869C8.12874 21.1607 8.08202 21.1243 8.04372 21.0798C8.00541 21.0354 7.97628 20.9839 7.958 20.9281C7.93971 20.8724 7.93264 20.8136 7.93719 20.7551C7.94174 20.6966 7.95783 20.6396 7.98451 20.5874L8.41828 19.7216C3.56322 18.5234 0.382812 14.2746 0.382812 9.23108C0.382812 6.87362 1.31931 4.61272 2.98628 2.94575C4.65325 1.27878 6.91415 0.342285 9.27161 0.342285C11.6291 0.342285 13.89 1.27878 15.5569 2.94575C17.2239 4.61272 18.1604 6.87362 18.1604 9.23108ZM5.82631 8.35109C5.98476 7.73284 6.30647 7.16854 6.75777 6.71724C7.20907 6.26594 7.77337 5.94424 8.39161 5.78578C8.86805 5.66489 9.27161 5.27734 9.27161 4.78668C9.27161 4.29602 8.86983 3.89069 8.38628 3.97069C7.29332 4.15566 6.28505 4.67626 5.50138 5.46025C4.71771 6.24424 4.19752 7.25272 4.013 8.34575C3.93122 8.8293 4.33655 9.23108 4.82721 9.23108C5.31787 9.23108 5.70542 8.82753 5.82631 8.35109Z" fill="#2A2238"/>
</svg>
