<svg width="19" height="29" viewBox="0 0 19 29" fill="none" xmlns="http://www.w3.org/2000/svg">
<path fill-rule="evenodd" clip-rule="evenodd" d="M10.3473 19.7216C15.2024 18.5234 18.3828 14.2746 18.3828 9.23108C18.3828 6.87362 17.4463 4.61272 15.7793 2.94575C14.1124 1.27878 11.8515 0.342285 9.49402 0.342285C7.13656 0.342285 4.87566 1.27878 3.20869 2.94575C1.54172 4.61272 0.605225 6.87362 0.605225 9.23108C0.605225 14.2746 3.78563 18.5234 8.64069 19.7216L8.20692 20.5874C8.18077 20.6397 8.16518 20.6966 8.16104 20.7549C8.15689 20.8133 8.16428 20.8718 8.18276 20.9273C8.2201 21.0393 8.30042 21.1319 8.40603 21.1847C8.51164 21.2375 8.63391 21.2462 8.74593 21.2089C8.85795 21.1715 8.95055 21.0912 9.00336 20.9856L9.07447 20.8434C9.09047 21.1456 9.11713 21.4034 9.16513 21.6434C9.28602 22.2549 9.53491 22.7492 9.96157 23.6025L9.98468 23.6523C10.3616 24.4025 10.3082 25.1633 10.0736 25.8673C9.83357 26.582 9.42291 27.2024 9.12424 27.6504C9.05871 27.7485 9.03481 27.8686 9.05782 27.9843C9.08082 28.1 9.14884 28.2018 9.24691 28.2673C9.34498 28.3329 9.46507 28.3567 9.58075 28.3337C9.69644 28.3107 9.79825 28.2427 9.86379 28.1446L9.8709 28.1322C10.166 27.6913 10.6371 26.9838 10.9162 26.15C11.2007 25.2985 11.2931 24.2816 10.7811 23.254C10.3225 22.3385 10.1322 21.9527 10.0362 21.4692C10.0038 21.2994 9.98185 21.1278 9.97046 20.9554L9.98468 20.9856C10.0375 21.0912 10.1301 21.1715 10.2421 21.2089C10.3541 21.2462 10.4764 21.2375 10.582 21.1847C10.6876 21.1319 10.7679 21.0393 10.8053 20.9273C10.8426 20.8153 10.8339 20.693 10.7811 20.5874L10.3473 19.7216ZM3.00875 6.30844C3.51028 5.19774 4.28857 4.2344 5.26909 3.51068C6.24961 2.78696 7.39952 2.3271 8.60869 2.17515C9.09224 2.11471 9.49402 2.51826 9.49402 3.00892C9.49402 3.49958 9.09224 3.89069 8.60869 3.97247C6.91982 4.26046 5.49939 5.35912 4.74562 6.8471C4.66243 7.02357 4.53205 7.1736 4.3689 7.28059C4.20575 7.38757 4.0162 7.44735 3.82119 7.45332C3.20609 7.45332 2.75631 6.86844 3.00875 6.30844Z" fill="#2A2238"/>
</svg>
