<svg width="22" height="29" viewBox="0 0 22 29" fill="none" xmlns="http://www.w3.org/2000/svg">
<path fill-rule="evenodd" clip-rule="evenodd" d="M11.1015 4.57533L9.82687 3.26514C7.81803 1.20119 4.06168 1.88384 2.69816 4.54511C2.07595 5.76286 1.8964 7.5797 3.1177 9.98853C4.27501 12.2783 6.69273 15.064 11.1015 18.1252C15.5085 15.0622 17.9262 12.2765 19.0853 9.98853C20.3066 7.5797 20.1288 5.76286 19.5049 4.54689C18.1413 1.88384 14.385 1.20119 12.3761 3.26514L11.1015 4.57533ZM10.2304 19.6861C-8.93355 6.45973 4.89722 -3.70002 10.8686 1.79673C10.9486 1.86962 11.0268 1.94606 11.1033 2.02606C11.1797 1.94606 11.2579 1.86962 11.3379 1.79673C17.3111 -3.70002 31.1366 6.46151 11.9726 19.6861L12.3904 20.518C12.4165 20.5703 12.4321 20.6273 12.4362 20.6856C12.4404 20.7439 12.433 20.8025 12.4145 20.8579C12.396 20.9134 12.3668 20.9647 12.3285 21.0089C12.2902 21.053 12.2436 21.0892 12.1913 21.1154C12.139 21.1415 12.082 21.1571 12.0237 21.1612C11.9654 21.1654 11.9068 21.158 11.8514 21.1395C11.7959 21.121 11.7446 21.0918 11.7004 21.0535C11.6563 21.0152 11.6201 20.9686 11.5939 20.9163L11.5797 20.886C11.5939 21.0816 11.6153 21.2451 11.6455 21.4016C11.7415 21.8816 11.9317 22.2691 12.3904 23.1846C12.9024 24.2122 12.8081 25.229 12.5255 26.0806C12.2464 26.9143 11.7753 27.6219 11.4802 28.0628L11.4731 28.0752C11.4406 28.1238 11.3989 28.1654 11.3503 28.1979C11.3018 28.2303 11.2473 28.2529 11.19 28.2643C11.1327 28.2757 11.0738 28.2757 11.0165 28.2643C10.9592 28.2529 10.9047 28.2303 10.8562 28.1979C10.8076 28.1654 10.7659 28.1237 10.7335 28.0752C10.701 28.0266 10.6785 27.9721 10.6671 27.9148C10.6557 27.8575 10.6557 27.7986 10.6671 27.7413C10.6785 27.684 10.7011 27.6295 10.7335 27.581C11.0322 27.133 11.4446 26.5143 11.681 25.7979C11.9175 25.0939 11.9708 24.3331 11.5939 23.5829L11.5708 23.5331C11.1442 22.6798 10.8953 22.1856 10.7744 21.574C10.7246 21.3099 10.6937 21.0426 10.682 20.774L10.6109 20.9163C10.585 20.9689 10.5489 21.0159 10.5048 21.0545C10.4607 21.0932 10.4094 21.1227 10.3538 21.1414C10.2982 21.1602 10.2395 21.1677 10.1809 21.1636C10.1224 21.1595 10.0653 21.1438 10.0129 21.1176C9.96044 21.0913 9.91372 21.0549 9.87541 21.0105C9.83711 20.9661 9.80798 20.9145 9.78969 20.8588C9.77141 20.803 9.76434 20.7442 9.76889 20.6858C9.77344 20.6273 9.78952 20.5703 9.81621 20.518L10.234 19.6861H10.2304Z" fill="#2A2238"/>
</svg>
