<svg width="19" height="29" viewBox="0 0 19 29" fill="none" xmlns="http://www.w3.org/2000/svg">
<path fill-rule="evenodd" clip-rule="evenodd" d="M9.71643 18.0914C13.9884 17.2417 16.8275 13.6399 16.8275 9.23108C16.8275 7.34511 16.0783 5.5364 14.7447 4.20282C13.4111 2.86924 11.6024 2.12004 9.71643 2.12004C7.83047 2.12004 6.02175 2.86924 4.68817 4.20282C3.35459 5.5364 2.6054 7.34511 2.6054 9.23108C2.6054 13.6399 5.44448 17.2417 9.71643 18.0914ZM18.6052 9.23108C18.6052 14.2746 15.4248 18.5234 10.5698 19.7216L11.0035 20.5874C11.0563 20.693 11.065 20.8153 11.0277 20.9273C10.9903 21.0393 10.91 21.1319 10.8044 21.1847C10.6988 21.2375 10.5765 21.2462 10.4645 21.2089C10.3525 21.1715 10.2599 21.0912 10.2071 20.9856L10.1929 20.9554C10.2071 21.1509 10.2284 21.3145 10.2586 21.4709C10.3546 21.9509 10.5449 22.3385 11.0035 23.254C11.5155 24.2816 11.4213 25.2985 11.1386 26.15C10.8595 26.9838 10.3884 27.6913 10.0933 28.1322L10.0862 28.1447C10.0538 28.1932 10.0121 28.2349 9.96349 28.2673C9.91493 28.2998 9.86045 28.3224 9.80317 28.3337C9.74588 28.3451 9.68692 28.3451 9.62964 28.3337C9.57236 28.3223 9.51788 28.2998 9.46932 28.2673C9.42076 28.2349 9.37907 28.1932 9.34663 28.1446C9.31418 28.096 9.29162 28.0416 9.28023 27.9843C9.26884 27.927 9.26884 27.868 9.28024 27.8108C9.29164 27.7535 9.31421 27.699 9.34666 27.6504C9.64532 27.2024 10.0578 26.5838 10.2942 25.8673C10.5306 25.1633 10.584 24.4025 10.2071 23.6523L10.184 23.6025C9.75732 22.7492 9.50843 22.2549 9.38754 21.6434C9.33773 21.3793 9.30684 21.1119 9.2951 20.8434L9.22399 20.9856C9.19812 21.0383 9.16208 21.0853 9.11796 21.1239C9.07384 21.1626 9.02251 21.1921 8.96692 21.2108C8.91133 21.2295 8.85259 21.237 8.79408 21.2329C8.73556 21.2288 8.67844 21.2132 8.626 21.1869C8.57357 21.1607 8.52685 21.1243 8.48854 21.0798C8.45024 21.0354 8.4211 20.9839 8.40282 20.9281C8.38454 20.8724 8.37747 20.8136 8.38202 20.7551C8.38657 20.6966 8.40265 20.6396 8.42933 20.5874L8.86311 19.7216C4.00805 18.5234 0.827637 14.2746 0.827637 9.23108C0.827637 6.87362 1.76413 4.61272 3.4311 2.94575C5.09808 1.27878 7.35898 0.342285 9.71643 0.342285C12.0739 0.342285 14.3348 1.27878 16.0018 2.94575C17.6687 4.61272 18.6052 6.87362 18.6052 9.23108Z" fill="#2A2238"/>
</svg>
