<svg width="22" height="29" viewBox="0 0 22 29" fill="none" xmlns="http://www.w3.org/2000/svg">
<path fill-rule="evenodd" clip-rule="evenodd" d="M12.0331 19.7553C31.4501 6.35432 16.9931 -3.90172 11.162 2.09475C5.32906 -3.90172 -9.12789 6.35432 10.2909 19.7553L9.87486 20.5873C9.84871 20.6396 9.83312 20.6965 9.82897 20.7548C9.82483 20.8131 9.83221 20.8717 9.8507 20.9272C9.88804 21.0392 9.96836 21.1318 10.074 21.1846C10.1796 21.2374 10.3019 21.2461 10.4139 21.2088C10.5259 21.1714 10.6185 21.0911 10.6713 20.9855L10.7424 20.8433C10.7584 21.1455 10.7851 21.4033 10.8331 21.6433C10.954 22.2548 11.2029 22.7491 11.6295 23.6024L11.6526 23.6522C12.0295 24.4024 11.9762 25.1633 11.7415 25.8673C11.5015 26.582 11.0909 27.2024 10.7922 27.6504C10.7267 27.7485 10.7028 27.8686 10.7258 27.9843C10.7488 28.1 10.8168 28.2018 10.9149 28.2673C11.0129 28.3329 11.133 28.3567 11.2487 28.3337C11.3644 28.3107 11.4662 28.2427 11.5318 28.1446L11.5389 28.1322C11.834 27.6913 12.3051 26.9838 12.5842 26.15C12.8687 25.2984 12.9611 24.2815 12.4491 23.254C11.9904 22.3384 11.8002 21.9526 11.7042 21.4691C11.6718 21.2993 11.6498 21.1277 11.6384 20.9553L11.6526 20.9855C11.7055 21.0911 11.7981 21.1714 11.9101 21.2088C12.0221 21.2461 12.1444 21.2374 12.25 21.1846C12.3556 21.1318 12.4359 21.0392 12.4732 20.9272C12.5106 20.8152 12.5019 20.6929 12.4491 20.5873L12.0313 19.7553H12.0331ZM8.89708 2.59786C6.8224 1.51341 3.91928 2.34542 2.7566 4.61565C2.33527 5.43876 2.1166 6.53566 2.39749 7.90455C2.49527 8.38456 3.22772 8.25478 3.33438 7.77833C3.84105 5.54543 5.42684 3.40142 8.64819 3.28409C9.06419 3.26987 9.26686 2.78986 8.89708 2.59786Z" fill="#2A2238"/>
</svg>
