<svg width="29" height="28" viewBox="0 0 29 28" fill="none" xmlns="http://www.w3.org/2000/svg">
<path d="M5.27726 13.4304L16.6773 2.00577C17.9991 0.711592 19.7779 -0.00910399 21.6278 8.68382e-05C23.4776 0.00927767 25.2492 0.747613 26.5581 2.05486C27.8669 3.36211 28.6075 5.13278 28.619 6.98262C28.6304 8.83245 27.9119 10.6122 26.6194 11.9356L24.025 14.6213L15.2317 23.4147L12.5564 26.0003C11.233 27.2929 9.4533 28.0113 7.60347 27.9999C5.75363 27.9884 3.98295 27.2479 2.67571 25.939C1.36846 24.6301 0.630127 22.8585 0.620936 21.0087C0.611746 19.1588 1.33244 17.38 2.62662 16.0582L2.62837 16.0547L5.27199 13.4339L5.27375 13.4304H5.27726ZM15.3072 8.41017C15.2256 8.32851 15.1288 8.26371 15.0222 8.21947C14.9156 8.17524 14.8014 8.15242 14.686 8.15234C14.5706 8.15226 14.4563 8.17491 14.3497 8.219C14.243 8.26308 14.1461 8.32775 14.0644 8.40929C13.9828 8.49083 13.918 8.58766 13.8737 8.69425C13.8295 8.80083 13.8067 8.91509 13.8066 9.03049C13.8065 9.14589 13.8292 9.26018 13.8733 9.36683C13.9173 9.47347 13.982 9.57039 14.0635 9.65205C14.2292 9.81204 14.451 9.90056 14.6813 9.89856C14.9116 9.89656 15.1319 9.80419 15.2947 9.64135C15.4576 9.47851 15.5499 9.25823 15.5519 9.02795C15.5539 8.79767 15.4654 8.57581 15.3054 8.41017H15.3072ZM12.8199 12.1358C12.9038 12.0548 12.9707 11.9579 13.0167 11.8507C13.0628 11.7436 13.087 11.6283 13.088 11.5117C13.089 11.3951 13.0668 11.2795 13.0226 11.1715C12.9785 11.0636 12.9133 10.9655 12.8308 10.883C12.7483 10.8006 12.6503 10.7354 12.5423 10.6912C12.4344 10.647 12.3187 10.6248 12.2021 10.6258C12.0855 10.6269 11.9703 10.6511 11.8631 10.6971C11.756 10.7431 11.659 10.8101 11.578 10.8939C11.418 11.0596 11.3295 11.2814 11.3315 11.5117C11.3335 11.742 11.4259 11.9623 11.5887 12.1251C11.7516 12.288 11.9718 12.3803 12.2021 12.3823C12.4324 12.3843 12.6543 12.2958 12.8199 12.1358ZM10.3361 14.6213C10.5011 14.4567 10.5938 14.2332 10.594 14.0001C10.5941 13.7671 10.5017 13.5435 10.337 13.3786C10.1723 13.2137 9.94888 13.1209 9.71582 13.1208C9.48275 13.1206 9.25917 13.213 9.09425 13.3777C9.0126 13.4592 8.9478 13.5561 8.90356 13.6627C8.85932 13.7692 8.83651 13.8835 8.83643 13.9989C8.83627 14.232 8.92869 14.4556 9.09338 14.6205C9.25806 14.7854 9.48151 14.8781 9.71457 14.8783C9.94764 14.8785 10.1712 14.786 10.3361 14.6213ZM15.3037 19.5889C15.3876 19.5079 15.4545 19.411 15.5005 19.3038C15.5465 19.1966 15.5708 19.0814 15.5718 18.9648C15.5728 18.8482 15.5506 18.7325 15.5064 18.6246C15.4622 18.5166 15.397 18.4186 15.3146 18.3361C15.2321 18.2537 15.134 18.1884 15.0261 18.1443C14.9182 18.1001 14.8025 18.0779 14.6859 18.0789C14.5693 18.0799 14.454 18.1041 14.3469 18.1502C14.2397 18.1962 14.1428 18.2631 14.0618 18.347C13.9018 18.5126 13.8133 18.7345 13.8153 18.9648C13.8173 19.1951 13.9097 19.4153 14.0725 19.5782C14.2353 19.741 14.4556 19.8334 14.6859 19.8354C14.9162 19.8374 15.138 19.7489 15.3037 19.5889ZM17.7874 15.8632C17.7064 15.7793 17.6095 15.7124 17.5024 15.6664C17.3952 15.6204 17.28 15.5961 17.1633 15.5951C17.0467 15.5941 16.9311 15.6163 16.8231 15.6605C16.7152 15.7047 16.6171 15.7699 16.5347 15.8523C16.4522 15.9348 16.387 16.0329 16.3428 16.1408C16.2987 16.2487 16.2765 16.3644 16.2775 16.481C16.2785 16.5976 16.3027 16.7129 16.3487 16.82C16.3948 16.9272 16.4617 17.0241 16.5456 17.1051C16.7112 17.2651 16.9331 17.3536 17.1633 17.3516C17.3936 17.3496 17.6139 17.2573 17.7767 17.0944C17.9396 16.9316 18.032 16.7113 18.034 16.481C18.036 16.2507 17.9474 16.0289 17.7874 15.8632ZM20.2712 14.6213C20.3552 14.5404 20.4222 14.4436 20.4684 14.3365C20.5146 14.2295 20.539 14.1142 20.5402 13.9976C20.5413 13.881 20.5193 13.7653 20.4753 13.6573C20.4313 13.5494 20.3662 13.4512 20.2838 13.3686C20.2015 13.286 20.1035 13.2207 19.9957 13.1764C19.8878 13.1321 19.7722 13.1097 19.6556 13.1105C19.5389 13.1114 19.4237 13.1354 19.3164 13.1813C19.2092 13.2272 19.1122 13.2939 19.0311 13.3777C18.8662 13.5424 18.7734 13.7658 18.7733 13.9989C18.7731 14.232 18.8655 14.4556 19.0302 14.6205C19.1949 14.7854 19.4183 14.8781 19.6514 14.8783C19.8845 14.8785 20.1081 14.786 20.273 14.6213H20.2712ZM12.8199 15.8632C12.7389 15.7793 12.642 15.7124 12.5348 15.6664C12.4277 15.6204 12.3124 15.5961 12.1958 15.5951C12.0792 15.5941 11.9635 15.6163 11.8556 15.6605C11.7477 15.7047 11.6496 15.7699 11.5671 15.8523C11.4847 15.9348 11.4195 16.0329 11.3753 16.1408C11.3311 16.2487 11.3089 16.3644 11.3099 16.481C11.3109 16.5976 11.3352 16.7129 11.3812 16.82C11.4272 16.9272 11.4941 17.0241 11.578 17.1051C11.7437 17.2651 11.9655 17.3536 12.1958 17.3516C12.4261 17.3496 12.6464 17.2573 12.8092 17.0944C12.972 16.9316 13.0644 16.7113 13.0664 16.481C13.0684 16.2507 12.9799 16.0289 12.8199 15.8632ZM15.3037 14.6213C15.3853 14.5398 15.4501 14.443 15.4944 14.3364C15.5386 14.2298 15.5614 14.1155 15.5615 14.0001C15.5616 13.8847 15.5389 13.7705 15.4948 13.6638C15.4508 13.5572 15.3861 13.4602 15.3046 13.3786C15.223 13.2969 15.1262 13.2321 15.0196 13.1879C14.913 13.1437 14.7988 13.1208 14.6834 13.1208C14.568 13.1207 14.4537 13.1433 14.347 13.1874C14.2404 13.2315 14.1435 13.2962 14.0618 13.3777C13.8969 13.5424 13.8041 13.7658 13.804 13.9989C13.8038 14.232 13.8962 14.4556 14.0609 14.6205C14.2256 14.7854 14.449 14.8781 14.6821 14.8783C14.9152 14.8785 15.1388 14.786 15.3037 14.6213ZM17.7874 10.8939C17.7064 10.8101 17.6095 10.7431 17.5024 10.6971C17.3952 10.6511 17.28 10.6269 17.1633 10.6258C17.0467 10.6248 16.9311 10.647 16.8231 10.6912C16.7152 10.7354 16.6171 10.8006 16.5347 10.883C16.4522 10.9655 16.387 11.0636 16.3428 11.1715C16.2987 11.2795 16.2765 11.3951 16.2775 11.5117C16.2785 11.6283 16.3027 11.7436 16.3487 11.8507C16.3948 11.9579 16.4617 12.0548 16.5456 12.1358C16.7112 12.2958 16.9331 12.3843 17.1633 12.3823C17.3936 12.3803 17.6139 12.288 17.7767 12.1251C17.9396 11.9623 18.032 11.742 18.034 11.5117C18.036 11.2814 17.9474 11.0596 17.7874 10.8939ZM15.7569 5.83857L22.7831 12.8648L24.0267 11.6212L17.0005 4.59493L15.7569 5.83857ZM13.4874 22.1605L6.46118 15.1343L5.21754 16.3779L12.2438 23.4041L13.4874 22.1605Z" fill="#2A2238"/>
</svg>
