<svg width="29" height="27" viewBox="0 0 29 27" fill="none" xmlns="http://www.w3.org/2000/svg">
<path fill-rule="evenodd" clip-rule="evenodd" d="M10.3662 0.695987C10.2977 0.603693 10.2117 0.525798 10.1131 0.466751H10.1113C10.0127 0.407668 9.90349 0.368587 9.7898 0.351738C9.6761 0.33489 9.56021 0.340604 9.44872 0.368556C9.33724 0.396508 9.23236 0.446149 9.14007 0.514644C9.04777 0.583139 8.96988 0.669146 8.91083 0.767751L3.91808 9.0925H0.91333C0.681266 9.0925 0.458706 9.18469 0.294612 9.34878C0.130517 9.51288 0.0383301 9.73544 0.0383301 9.9675V11.7175C0.0383301 11.9496 0.130517 12.1721 0.294612 12.3362C0.458706 12.5003 0.681266 12.5925 0.91333 12.5925L4.35733 25.588H4.35558C4.42476 25.8746 4.58841 26.1295 4.82016 26.3118C5.05192 26.494 5.33827 26.5929 5.63308 26.5925H22.4436C22.7381 26.5925 23.024 26.4934 23.2554 26.3112C23.4868 26.129 23.6502 25.8743 23.7193 25.588L27.1633 12.5925C27.3954 12.5925 27.618 12.5003 27.782 12.3362C27.9461 12.1721 28.0383 11.9496 28.0383 11.7175V9.9675C28.0383 9.73544 27.9461 9.51288 27.782 9.34878C27.618 9.18469 27.3954 9.0925 27.1633 9.0925H24.1586L19.1623 0.767751C19.043 0.56864 18.8496 0.425068 18.6244 0.36862C18.3993 0.312171 18.1609 0.34747 17.9618 0.466751C17.7627 0.586032 17.6191 0.779525 17.5627 1.00466C17.5063 1.2298 17.5415 1.46814 17.6608 1.66725L22.1181 9.0925H5.95858L10.4141 1.66725C10.4732 1.56867 10.5122 1.45941 10.5291 1.34572C10.5459 1.23203 10.5402 1.11613 10.5123 1.00465C10.4843 0.893164 10.4347 0.78828 10.3662 0.695987ZM3.16641 13.3423H24.9103C24.9753 13.3423 25.023 13.4034 25.0073 13.4665L24.5573 15.2665C24.5461 15.3111 24.5061 15.3423 24.4603 15.3423H3.61641C3.57052 15.3423 3.53052 15.3111 3.51939 15.2665L3.06939 13.4665C3.05361 13.4034 3.10135 13.3423 3.16641 13.3423Z" fill="#2A2238"/>
</svg>
