<svg xmlns="http://www.w3.org/2000/svg" fill="none" viewBox="0 0 27 14">
  <path fill="#2A2238" d="M3.375 4.175c0-.44183.35817-.8.8-.8H19.45c.4418 0 .8.35817.8.8v5.15c0 .44183-.3582.8-.8.8H4.175c-.44183 0-.8-.35817-.8-.8v-5.15Z"/>
  <path fill="#2A2238" d="M3.375 0C2.47989 0 1.62145.355579.988515.988514.355579 1.62145 0 2.47989 0 3.375v6.75c0 .8951.355579 1.7535.988515 2.3865.632935.6329 1.491375.9885 2.386485.9885H20.25c.8951 0 1.7535-.3556 2.3865-.9885.6329-.633.9885-1.4914.9885-2.3865v-6.75c0-.89511-.3556-1.75355-.9885-2.386486C22.0035.355579 21.1451 0 20.25 0H3.375ZM20.25 1.6875c.4476 0 .8768.17779 1.1932.49426.3165.31647.4943.74569.4943 1.19324v6.75c0 .4476-.1778.8768-.4943 1.1932-.3164.3165-.7456.4943-1.1932.4943H3.375c-.44755 0-.87678-.1778-1.19324-.4943-.31647-.3164-.49426-.7456-.49426-1.1932v-6.75c0-.44755.17779-.87677.49426-1.19324.31646-.31647.74569-.49426 1.19324-.49426H20.25ZM27 6.75c0 .67133-.2667 1.31516-.7414 1.78986-.4747.47471-1.1185.74139-1.7898.74139v-5.0625c.6713 0 1.3151.26668 1.7898.74139C26.7333 5.43484 27 6.07867 27 6.75Z"/>
</svg>
