<svg width="22" height="22" viewBox="0 0 22 22" fill="none" xmlns="http://www.w3.org/2000/svg">
<path d="M11 2.05264C5.28571 2.05264 4.75795 7.55695 3.85714 12.7703C2.95634 17.9837 1 17.0727 1 17.9837C1 18.8947 1.71429 18.8947 1.71429 18.8947H11" stroke="#2A2238"/>
<path d="M11 2.05264C16.7143 2.05264 17.2421 7.55695 18.1429 12.7703C19.0437 17.9837 21 17.0727 21 17.9837C21 18.8947 20.2857 18.8947 20.2857 18.8947H11" stroke="#2A2238"/>
<path d="M8.77783 18.8947C9.88894 21.7018 12.1112 21.7018 13.2223 18.8947" stroke="#2A2238"/>
<path d="M9.88892 2.05263C9.92499 0.62758 12.1461 0.670832 12.1107 2.05263" stroke="#2A2238"/>
</svg>
