<svg width="33" height="18" viewBox="0 0 33 18" fill="none" xmlns="http://www.w3.org/2000/svg">
<path d="M8.62117 1.00008C8.62117 0.734841 8.72654 0.480467 8.91409 0.292916C9.10164 0.105365 9.35601 0 9.62125 0H12.6215C12.8867 0 13.1411 0.105365 13.3286 0.292916C13.5162 0.480467 13.6216 0.734841 13.6216 1.00008C13.6216 1.26531 13.5162 1.51969 13.3286 1.70724C13.1411 1.89479 12.8867 2.00016 12.6215 2.00016V3.00023H20.9021L21.6742 0.684053C21.7405 0.484994 21.8677 0.311828 22.0379 0.189064C22.208 0.0663012 22.4124 0.000159306 22.6223 0H24.6224C24.8877 0 25.142 0.105365 25.3296 0.292916C25.5171 0.480467 25.6225 0.734841 25.6225 1.00008C25.6225 1.26531 25.5171 1.51969 25.3296 1.70724C25.142 1.89479 24.8877 2.00016 24.6224 2.00016H23.3423L22.7203 3.8703L24.3344 6.4505C25.7253 5.87688 27.281 5.84673 28.6931 6.36601C30.1052 6.88528 31.2707 7.9161 31.9586 9.25418C32.6465 10.5923 32.8067 12.1399 32.4073 13.5905C32.0079 15.0411 31.0782 16.2887 29.8023 17.0861C28.5265 17.8836 26.9976 18.1726 25.5187 17.8959C24.0398 17.6192 22.7188 16.7971 21.8175 15.5924C20.9162 14.3877 20.5003 12.8883 20.6523 11.3915C20.8043 9.89461 21.5131 8.50949 22.6383 7.51058L21.6222 5.88646L17.4699 12.531C17.38 12.6748 17.255 12.7934 17.1066 12.8756C16.9582 12.9579 16.7914 13.001 16.6218 13.001H12.5395C12.332 14.2275 11.7486 15.3592 10.8698 16.2396C9.991 17.1199 8.86033 17.7054 7.63421 17.915C6.40809 18.1247 5.14714 17.948 4.02579 17.4096C2.90444 16.8712 1.97814 15.9976 1.37504 14.9097C0.771928 13.8218 0.521831 12.5733 0.659343 11.337C0.796855 10.1008 1.31518 8.93777 2.14261 8.00897C2.97003 7.08017 4.06566 6.43148 5.27791 6.15263C6.49016 5.87379 7.75911 5.97857 8.90919 6.4525L10.6213 3.71229V2.00016H9.62125C9.35601 2.00016 9.10164 1.89479 8.91409 1.70724C8.72654 1.51969 8.62117 1.26531 8.62117 1.00008ZM11.6214 5.88646L10.6053 7.51458C11.6054 8.40265 12.3055 9.62275 12.5395 11.0009H14.8177L11.6214 5.88646ZM16.6218 10.1148L19.818 5.00039H13.4255L16.6218 10.1148ZM10.4953 11.0009C10.3252 10.3428 9.98989 9.73903 9.52124 9.24672L8.42516 11.0009H10.4953ZM7.82711 8.18464C7.06408 7.94367 6.24631 7.93708 5.47949 8.16571C4.71267 8.39434 4.03204 8.84768 3.52554 9.46715C3.01905 10.0866 2.70997 10.8438 2.63826 11.6407C2.56654 12.4377 2.73548 13.2378 3.12324 13.9378C3.511 14.6377 4.09976 15.2053 4.81345 15.5672C5.52713 15.929 6.33294 16.0685 7.12673 15.9677C7.92053 15.8668 8.66583 15.5302 9.26633 15.0013C9.86684 14.4725 10.2949 13.7757 10.4953 13.001H6.62102C6.4425 13.001 6.26723 12.9532 6.11342 12.8626C5.9596 12.772 5.83285 12.6419 5.7463 12.4857C5.65976 12.3296 5.6166 12.1531 5.62128 11.9747C5.62597 11.7962 5.67834 11.6223 5.77295 11.4709L7.82711 8.18464ZM23.7223 9.24472C23.0519 9.95078 22.662 10.8771 22.6257 11.8501C22.5894 12.8231 22.9092 13.7759 23.5252 14.5299C24.1411 15.284 25.011 15.7875 25.9716 15.9461C26.9322 16.1047 27.9178 15.9075 28.7434 15.3915C29.5691 14.8754 30.1782 14.076 30.4566 13.143C30.7349 12.21 30.6635 11.2075 30.2556 10.3234C29.8477 9.4393 29.1314 8.73431 28.2409 8.34058C27.3504 7.94685 26.3469 7.8914 25.4185 8.18464L27.4706 11.4709C27.5402 11.5823 27.5872 11.7062 27.6089 11.8358C27.6306 11.9653 27.6266 12.0978 27.597 12.2258C27.5675 12.3538 27.5131 12.4747 27.4368 12.5816C27.3605 12.6885 27.264 12.7794 27.1526 12.849C27.0412 12.9186 26.9173 12.9656 26.7877 12.9873C26.6582 13.009 26.5257 13.0049 26.3977 12.9754C26.2697 12.9459 26.1488 12.8914 26.0419 12.8152C25.935 12.7389 25.8441 12.6423 25.7745 12.531L23.7223 9.24672V9.24472Z" fill="#2A2238"/>
</svg>
