<svg xmlns="http://www.w3.org/2000/svg" fill="none" viewBox="0 0 20 28">
  <path fill="#2A2238" fill-rule="evenodd" d="M10.7273 1.5H8.78788c-.23975 0-.44009.16874-.48873.39394H11.216c-.0486-.2252-.249-.39394-.4887-.39394Zm1.9972.39394C12.6694.838676 11.7963 0 10.7273 0H8.78788c-1.06899 0-1.9421.838677-1.99724 1.89394-.00183.03512-.00276.07048-.00276.10606v.54545H3c-1.65685 0-3 1.34315-3 3v2.09091h1.69697V25c0 1.6569 1.34315 3 3 3H14.8182c1.6568 0 3-1.3431 3-3V7.63636h1.697V5.54545c0-1.65685-1.3432-3-3-3h-3.7879V2c0-.03558-.001-.07094-.0028-.10606ZM3 4.04545h13.5152c.8284 0 1.5.67158 1.5 1.5v.59091H1.5v-.59091c0-.82842.67157-1.5 1.5-1.5Zm.19697 4.24243H16.3182V25c0 .8284-.6716 1.5-1.5 1.5H4.69697c-.82843 0-1.5-.6716-1.5-1.5V8.28788Zm1.89394 1.89392v13.5758h1.5V10.1818h-1.5Zm4.24242 13.5758V10.1818h1.49997v13.5758H9.33333Zm4.24247-13.5758v13.5758h1.5V10.1818h-1.5Z" clip-rule="evenodd"/>
</svg>
