<svg width="29" height="24" viewBox="0 0 29 24" fill="none" xmlns="http://www.w3.org/2000/svg">
<path d="M1.81413 0C1.50471 0 1.20796 0.122917 0.98917 0.341709C0.770377 0.560501 0.647461 0.857247 0.647461 1.16667C0.647461 1.47609 0.770377 1.77283 0.98917 1.99162C1.20796 2.21042 1.50471 2.33333 1.81413 2.33333H27.4808C27.7902 2.33333 28.087 2.21042 28.3058 1.99162C28.5245 1.77283 28.6475 1.47609 28.6475 1.16667C28.6475 0.857247 28.5245 0.560501 28.3058 0.341709C28.087 0.122917 27.7902 0 27.4808 0H1.81413ZM13.4808 7C13.1714 7 12.8746 7.12292 12.6558 7.34171C12.437 7.5605 12.3141 7.85725 12.3141 8.16667C12.3141 8.47609 12.437 8.77283 12.6558 8.99162C12.8746 9.21042 13.1714 9.33333 13.4808 9.33333H27.4808C27.7902 9.33333 28.087 9.21042 28.3058 8.99162C28.5245 8.77283 28.6475 8.47609 28.6475 8.16667C28.6475 7.85725 28.5245 7.5605 28.3058 7.34171C28.087 7.12292 27.7902 7 27.4808 7H13.4808ZM13.4808 14C13.1714 14 12.8746 14.1229 12.6558 14.3417C12.437 14.5605 12.3141 14.8572 12.3141 15.1667C12.3141 15.4761 12.437 15.7728 12.6558 15.9916C12.8746 16.2104 13.1714 16.3333 13.4808 16.3333H27.4808C27.7902 16.3333 28.087 16.2104 28.3058 15.9916C28.5245 15.7728 28.6475 15.4761 28.6475 15.1667C28.6475 14.8572 28.5245 14.5605 28.3058 14.3417C28.087 14.1229 27.7902 14 27.4808 14H13.4808ZM1.81413 21C1.50471 21 1.20796 21.1229 0.98917 21.3417C0.770377 21.5605 0.647461 21.8572 0.647461 22.1667C0.647461 22.4761 0.770377 22.7728 0.98917 22.9916C1.20796 23.2104 1.50471 23.3333 1.81413 23.3333H27.4808C27.7902 23.3333 28.087 23.2104 28.3058 22.9916C28.5245 22.7728 28.6475 22.4761 28.6475 22.1667C28.6475 21.8572 28.5245 21.5605 28.3058 21.3417C28.087 21.1229 27.7902 21 27.4808 21H1.81413ZM3.65746 8.463C3.91879 8.281 4.26413 8.06633 4.69346 7.82133L4.20346 7C3.91879 7.17267 3.56879 7.39667 3.14879 7.66967C2.72879 7.94267 2.33213 8.27633 1.95879 8.66833C1.58843 9.05904 1.27573 9.5006 1.03013 9.97967C0.773461 10.4627 0.647461 11.0017 0.647461 11.5943C0.647461 12.4343 0.815461 13.111 1.15379 13.6313C1.48979 14.1423 2.05213 14.3967 2.83379 14.3967C3.33546 14.3967 3.72746 14.2333 4.00979 13.9043C4.28452 13.6108 4.44079 13.226 4.44846 12.824C4.44846 12.2873 4.28513 11.8813 3.95613 11.6083C3.63646 11.326 3.19546 11.1837 2.63079 11.1837H1.97279C2.02879 10.71 2.12446 10.3203 2.25979 10.0217C2.4075 9.7038 2.60611 9.41219 2.84779 9.15833C3.08859 8.89558 3.35958 8.66219 3.65513 8.463H3.65746ZM8.71379 8.463C8.97746 8.281 9.32513 8.06633 9.75213 7.82133L9.26213 7C8.97746 7.17267 8.62746 7.39667 8.20746 7.66967C7.78746 7.94267 7.39079 8.27633 7.01746 8.66833C6.6471 9.05904 6.33439 9.5006 6.08879 9.97967C5.83213 10.4627 5.70613 11.0017 5.70613 11.5943C5.70613 12.4343 5.87413 13.111 6.21246 13.6313C6.54846 14.1423 7.11079 14.3967 7.89246 14.3967C8.39413 14.3967 8.78613 14.2333 9.06846 13.9043C9.34319 13.6108 9.49946 13.226 9.50713 12.824C9.50713 12.2873 9.34379 11.8813 9.01479 11.6083C8.69513 11.326 8.25413 11.1837 7.68946 11.1837H7.03146C7.06714 10.7897 7.15989 10.403 7.30679 10.0357C7.44213 9.73233 7.64279 9.443 7.90646 9.16067C8.14699 8.89628 8.41799 8.66131 8.71379 8.46067V8.463Z" fill="#2A2238"/>
</svg>
