<svg width="22" height="29" viewBox="0 0 22 29" fill="none" xmlns="http://www.w3.org/2000/svg">
<path fill-rule="evenodd" clip-rule="evenodd" d="M11.8262 7.25129L14.1292 9.55429L11.8262 11.8573V7.25129ZM11.8262 21.4333L14.1292 19.1303L11.8262 16.8273V21.4333ZM9.35873 14.358L4.35723 9.32504L5.80448 7.87779L9.78573 11.8573V2.31629L17.0255 9.55429L12.2532 14.3598L17.057 19.1635L9.81898 26.4033V16.8273L5.80448 20.8068L4.35723 19.3595L9.35873 14.3598V14.358ZM10.7062 28.3423C16.8277 28.3423 21.0382 25.446 21.0382 14.3248C21.0382 3.23853 16.8277 0.342285 10.708 0.342285C4.58823 0.342285 0.375977 3.23854 0.375977 14.3598C0.375977 25.4443 4.58823 28.3423 10.708 28.3423H10.7062Z" fill="#2A2238"/>
</svg>
