<svg width="22" height="30" viewBox="0 0 22 30" fill="none" xmlns="http://www.w3.org/2000/svg">
<path fill-rule="evenodd" clip-rule="evenodd" d="M12.1639 8.49271C12.1639 8.40362 12.2716 8.359 12.3346 8.422L14.3961 10.4836C14.4352 10.5226 14.4352 10.5859 14.3961 10.625L12.3346 12.6866C12.2716 12.7496 12.1639 12.705 12.1639 12.6159V8.49271ZM12.1639 22.1919C12.1639 22.281 12.2716 22.3256 12.3346 22.2626L14.3961 20.201C14.4352 20.1619 14.4352 20.0986 14.3961 20.0596L12.3346 17.998C12.2716 17.935 12.1639 17.9796 12.1639 18.0687V22.1919ZM9.69635 15.3589C9.69635 15.3583 9.69613 15.3578 9.69574 15.3574L4.76512 10.3957C4.72628 10.3567 4.72638 10.2935 4.76534 10.2545L6.07141 8.94848C6.11046 8.90943 6.17376 8.90943 6.21281 8.94847L9.95266 12.6867C10.0157 12.7496 10.1234 12.705 10.1234 12.6159V3.55767C10.1234 3.46858 10.2311 3.42396 10.2941 3.48695L17.2926 10.4838C17.3316 10.5228 17.3317 10.5859 17.2929 10.625L12.6611 15.2891C12.6223 15.3282 12.6224 15.3913 12.6613 15.4303L17.3239 20.0928C17.363 20.1319 17.363 20.1952 17.3239 20.2342L10.3273 27.2325C10.2643 27.2955 10.1566 27.2509 10.1566 27.1618V18.0672C10.1566 17.9783 10.0493 17.9336 9.9862 17.9962L6.21281 21.7367C6.17371 21.7755 6.11063 21.7753 6.0717 21.7364L4.76558 20.4303C4.72652 20.3912 4.72653 20.3279 4.76559 20.2888L9.69573 15.3604C9.69613 15.36 9.69635 15.3595 9.69635 15.3589V15.3589ZM11.0439 29.3423C17.1654 29.3423 21.3759 26.446 21.3759 15.3248C21.3759 4.23853 17.1654 1.34229 11.0456 1.34229C4.92585 1.34229 0.713604 4.23853 0.713604 15.3598C0.713604 26.4443 4.92585 29.3423 11.0456 29.3423H11.0439Z" stroke="#2A2238"/>
</svg>
