<svg width="28" height="27" viewBox="0 0 28 27" fill="none" xmlns="http://www.w3.org/2000/svg">
<path d="M3.89011 1.69071C3.44259 1.69071 3.01341 1.86848 2.69696 2.18492C2.38052 2.50137 2.20275 2.93055 2.20275 3.37807C2.20275 3.82559 2.38052 4.25477 2.69696 4.57122C3.01341 4.88766 3.44259 5.06543 3.89011 5.06543C4.33763 5.06543 4.76681 4.88766 5.08326 4.57122C5.3997 4.25477 5.57747 3.82559 5.57747 3.37807C5.57747 2.93055 5.3997 2.50137 5.08326 2.18492C4.76681 1.86848 4.33763 1.69071 3.89011 1.69071ZM0.515383 3.37807C0.51457 2.5561 0.813779 1.76209 1.35685 1.14508C1.89992 0.528059 2.64951 0.130458 3.46493 0.026899C4.28035 -0.0766596 5.10554 0.120945 5.7856 0.582623C6.46566 1.0443 6.95385 1.73831 7.15853 2.53439H20.87C21.019 1.95844 21.3175 1.43208 21.7354 1.00867C22.1533 0.585262 22.6756 0.279838 23.2496 0.12335C23.8235 -0.0331368 24.4287 -0.0351258 25.0036 0.117585C25.5786 0.270296 26.103 0.57228 26.5236 0.992935C26.9443 1.41359 27.2462 1.93797 27.399 2.51293C27.5517 3.08789 27.5497 3.693 27.3932 4.26695C27.2367 4.84089 26.9313 5.36327 26.5079 5.78115C26.0845 6.19904 25.5581 6.49757 24.9822 6.64649V20.358C25.5581 20.5069 26.0845 20.8055 26.5079 21.2233C26.9313 21.6412 27.2367 22.1636 27.3932 22.7376C27.5497 23.3115 27.5517 23.9166 27.399 24.4916C27.2462 25.0665 26.9443 25.5909 26.5236 26.0116C26.103 26.4322 25.5786 26.7342 25.0036 26.8869C24.4287 27.0396 23.8235 27.0376 23.2496 26.8812C22.6756 26.7247 22.1533 26.4192 21.7354 25.9958C21.3175 25.5724 21.019 25.0461 20.87 24.4701H7.15853C7.0096 25.0461 6.71107 25.5724 6.29319 25.9958C5.87531 26.4192 5.35293 26.7247 4.77899 26.8812C4.20504 27.0376 3.59993 27.0396 3.02497 26.8869C2.45001 26.7342 1.92563 26.4322 1.50497 26.0116C1.08432 25.5909 0.782335 25.0665 0.629624 24.4916C0.476913 23.9166 0.478902 23.3115 0.635389 22.7376C0.791877 22.1636 1.0973 21.6412 1.52071 21.2233C1.94412 20.8055 2.47047 20.5069 3.04643 20.358V6.64649C2.32188 6.45942 1.68006 6.03683 1.22189 5.44518C0.763722 4.85353 0.515192 4.12638 0.515383 3.37807ZM4.73379 6.64649V20.358C5.92001 20.6617 6.85312 21.5965 7.15853 22.7827H20.87C21.0213 22.1991 21.3259 21.6666 21.7523 21.2402C22.1786 20.8139 22.7112 20.5093 23.2948 20.358V6.64649C22.7112 6.4952 22.1786 6.19061 21.7523 5.76428C21.3259 5.33795 21.0213 4.80538 20.87 4.22175H7.15853C7.00724 4.80538 6.70265 5.33795 6.27632 5.76428C5.84999 6.19061 5.31742 6.4952 4.73379 6.64649ZM24.1385 1.69071C23.691 1.69071 23.2618 1.86848 22.9453 2.18492C22.6289 2.50137 22.4511 2.93055 22.4511 3.37807C22.4511 3.82559 22.6289 4.25477 22.9453 4.57122C23.2618 4.88766 23.691 5.06543 24.1385 5.06543C24.586 5.06543 25.0152 4.88766 25.3316 4.57122C25.6481 4.25477 25.8258 3.82559 25.8258 3.37807C25.8258 2.93055 25.6481 2.50137 25.3316 2.18492C25.0152 1.86848 24.586 1.69071 24.1385 1.69071ZM3.89011 21.9391C3.44259 21.9391 3.01341 22.1168 2.69696 22.4333C2.38052 22.7497 2.20275 23.1789 2.20275 23.6264C2.20275 24.0739 2.38052 24.5031 2.69696 24.8196C3.01341 25.136 3.44259 25.3138 3.89011 25.3138C4.33763 25.3138 4.76681 25.136 5.08326 24.8196C5.3997 24.5031 5.57747 24.0739 5.57747 23.6264C5.57747 23.1789 5.3997 22.7497 5.08326 22.4333C4.76681 22.1168 4.33763 21.9391 3.89011 21.9391ZM24.1385 21.9391C23.691 21.9391 23.2618 22.1168 22.9453 22.4333C22.6289 22.7497 22.4511 23.1789 22.4511 23.6264C22.4511 24.0739 22.6289 24.5031 22.9453 24.8196C23.2618 25.136 23.691 25.3138 24.1385 25.3138C24.586 25.3138 25.0152 25.136 25.3316 24.8196C25.6481 24.5031 25.8258 24.0739 25.8258 23.6264C25.8258 23.1789 25.6481 22.7497 25.3316 22.4333C25.0152 22.1168 24.586 21.9391 24.1385 21.9391Z" fill="#2A2238"/>
</svg>
