<svg width="28" height="27" viewBox="0 0 28 27" fill="none" xmlns="http://www.w3.org/2000/svg">
<path d="M8.95288 3.375V0H0.515381V8.4375H3.89038V18.5625H0.515381V27H8.95288V23.625H19.0779V27H27.5154V18.5625H24.1404V8.4375H27.5154V0H19.0779V3.375H8.95288ZM19.0779 5.0625V8.4375H22.4529V18.5625H19.0779V21.9375H8.95288V18.5625H5.57788V8.4375H8.95288V5.0625H19.0779ZM20.7654 1.6875H25.8279V6.75H20.7654V1.6875ZM25.8279 20.25V25.3125H20.7654V20.25H25.8279ZM7.26538 25.3125H2.20288V20.25H7.26538V25.3125ZM2.20288 6.75V1.6875H7.26538V6.75H2.20288Z" fill="#2A2238"/>
</svg>
