<svg xmlns="http://www.w3.org/2000/svg" fill="none" viewBox="0 0 28 28">
  <path fill="#2A2238" d="M6.5625 0c-.27168 0-.53963.0632539-.78262.184752C5.53688.306251 5.32551.482657 5.1625.7L.175 7.35C.0614056 7.50146 0 7.68568 0 7.875V26.25c0 .4641.184375.9092.512563 1.2374C.840752 27.8156 1.28587 28 1.75 28h24.5c.4641 0 .9092-.1844 1.2374-.5126.3282-.3282.5126-.7733.5126-1.2374V7.875c0-.18932-.0614-.37354-.175-.525L22.8375.7c-.163-.217343-.3744-.393749-.6174-.515248C21.9771.0632539 21.7092 0 21.4375 0H6.5625ZM26.25 8.16725V8.75H1.75v-.58275L2.625 7h10.5V1.75h1.75V7h10.5l.875 1.16725Z"/>
</svg>
