<svg width="29" height="24" viewBox="0 0 29 24" fill="none" xmlns="http://www.w3.org/2000/svg">
<path d="M2.74009 12.126V11.8C4.75008 11.596 5.73409 10.57 5.73409 8.6V5.006C5.73409 2.818 6.51409 1.93 8.44209 1.93H8.98808V0H8.23608C5.01208 0 3.49208 1.518 3.49208 4.704V7.752C3.49208 9.94 2.74008 10.664 0.512085 10.664V13.262C2.74008 13.262 3.49208 13.986 3.49208 16.174V19.222C3.49208 22.408 5.01009 23.926 8.23608 23.926H8.98808V21.998H8.44209C6.51409 21.998 5.73409 21.11 5.73409 18.922V15.326C5.73409 13.358 4.75008 12.332 2.74009 12.126ZM26.2841 11.8V12.126C24.2741 12.332 23.2901 13.358 23.2901 15.326V18.922C23.2901 21.11 22.5101 21.998 20.5821 21.998H20.0361V23.926H20.7881C24.0141 23.926 25.5321 22.408 25.5321 19.222V16.174C25.5321 13.986 26.2841 13.262 28.5121 13.262V10.664C26.2841 10.664 25.5321 9.94 25.5321 7.752V4.704C25.5321 1.518 24.0121 0 20.7881 0H20.0361V1.928H20.5821C22.5101 1.928 23.2901 2.816 23.2901 5.004V8.6C23.2901 10.568 24.2741 11.594 26.2841 11.8Z" fill="#2A2238"/>
</svg>
