<svg width="29" height="21" viewBox="0 0 29 21" fill="none" xmlns="http://www.w3.org/2000/svg">
<path fill-rule="evenodd" clip-rule="evenodd" d="M2.46158 10.6103V10.325C4.22034 10.1465 5.08134 9.24875 5.08134 7.525V4.38025C5.08134 2.46575 5.76383 1.68875 7.45083 1.68875H7.92859V0H7.27059C4.44958 0 3.11959 1.32825 3.11959 4.116V6.783C3.11959 8.6975 2.46158 9.331 0.512085 9.331V11.6042C2.46158 11.6042 3.11959 12.2378 3.11959 14.1523V16.8193C3.11959 19.607 4.44783 20.9353 7.27059 20.9353H7.92859V19.2483H7.45083C5.76383 19.2483 5.08134 18.4713 5.08134 16.5568V13.4103C5.08134 11.6883 4.22034 10.7905 2.46158 10.6103ZM26.5626 10.325V10.612C24.8038 10.7923 23.9428 11.69 23.9428 13.412V16.5585C23.9428 18.473 23.2603 19.25 21.5733 19.25H21.0956V20.937H21.7536C24.5763 20.937 25.9046 19.6088 25.9046 16.821V14.154C25.9046 12.2395 26.5626 11.606 28.5121 11.606V9.331C26.5626 9.331 25.9046 8.6975 25.9046 6.783V4.116C25.9046 1.32825 24.5746 0 21.7536 0H21.0956V1.687H21.5733C23.2603 1.687 23.9428 2.464 23.9428 4.3785V7.525C23.9428 9.247 24.8038 10.1448 26.5626 10.325ZM13.6371 16.625V12.6123L10.8003 15.449L9.56308 14.2118L12.3981 11.375H8.38708V9.625H12.3998L9.56308 6.78825L10.8003 5.551L13.6371 8.386V4.375H15.3871V8.38775L18.2238 5.551L19.4611 6.78825L16.6261 9.625H20.6371V11.375H16.6243L19.4611 14.2118L18.2238 15.449L15.3871 12.614V16.625H13.6371Z" fill="#2A2238"/>
</svg>
