<svg width="29" height="22" viewBox="0 0 29 22" fill="none" xmlns="http://www.w3.org/2000/svg">
<path fill-rule="evenodd" clip-rule="evenodd" d="M0 2C0 1.17157 0.671573 0.5 1.5 0.5H27.5C28.3284 0.5 29 1.17157 29 2V20C29 20.8284 28.3284 21.5 27.5 21.5H1.5C0.671572 21.5 0 20.8284 0 20V2ZM1.5 1.5C1.22386 1.5 1 1.72386 1 2V4H4V1.5H5V4H7V1.5H8V4H10V1.5H11V4H28V2C28 1.72386 27.7761 1.5 27.5 1.5H1.5ZM1 5V20C1 20.2761 1.22386 20.5 1.5 20.5H27.5C27.7761 20.5 28 20.2761 28 20V5H1Z" fill="#2A2238"/>
</svg>
