<svg xmlns="http://www.w3.org/2000/svg" fill="none" viewBox="0 0 28 26">
  <path fill="#2A2238" fill-rule="evenodd" d="M19.1818 20.3962c.4991-.5318.8186-1.207.9134-1.9302l5.4426 2.4185c.2663.1187.5582.1689.8489.1461.2908-.0227.5712-.1178.8159-.2766.2446-.1587.4457-.3761.585-.6324.1393-.2562.2123-.5432.2124-.8349V6.22825c-.0003-.29142-.0733-.57816-.2124-.8342-.1392-.25604-.3401-.47327-.5845-.63198-.2444-.15871-.5246-.25387-.8151-.27684-.2905-.02298-.5822.02695-.8485.14527L20.0952 7.049c-.1112-.8416-.5244-1.61409-1.1629-2.17363-.6384-.55953-1.4584-.86797-2.3073-.86787H7.476l11.7058 16.3887ZM1.48225 4.64625c-.45811.3234-.831858.75208-1.089799 1.25C.134511 6.39416-.00008053 6.94674 4e-8 7.5075v10.5c0 .9283.36874896 1.8185 1.02512996 2.4749.65637.6564 1.54661 1.0251 2.47487 1.0251h10.024L1.48225 4.64625ZM18.5378 25.515 1.03775 1.015 2.46225 0 19.9622 24.5l-1.4244 1.015Z" clip-rule="evenodd"/>
</svg>
