<svg width="17" height="16" viewBox="0 0 17 16" fill="none" xmlns="http://www.w3.org/2000/svg">
<path fill-rule="evenodd" clip-rule="evenodd" d="M7 10H1V15H7V10ZM16 1H10V6H16V1ZM13.5 15C14.8807 15 16 13.8807 16 12.5C16 11.1193 14.8807 10 13.5 10C12.1193 10 11 11.1193 11 12.5C11 13.8807 12.1193 15 13.5 15ZM3.5 6C4.88071 6 6 4.88071 6 3.5C6 2.11929 4.88071 1 3.5 1C2.11929 1 1 2.11929 1 3.5C1 4.88071 2.11929 6 3.5 6ZM10 0C9.44772 0 9 0.447715 9 1V6C9 6.55228 9.44772 7 10 7H16C16.5523 7 17 6.55228 17 6V1C17 0.447715 16.5523 0 16 0H10ZM1 9C0.447715 9 0 9.44772 0 10V15C0 15.5523 0.447715 16 1 16H7C7.55228 16 8 15.5523 8 15V10C8 9.44772 7.55228 9 7 9H1ZM17 12.5C17 14.433 15.433 16 13.5 16C11.567 16 10 14.433 10 12.5C10 10.567 11.567 9 13.5 9C15.433 9 17 10.567 17 12.5ZM3.5 7C5.433 7 7 5.433 7 3.5C7 1.567 5.433 0 3.5 0C1.567 0 0 1.567 0 3.5C0 5.433 1.567 7 3.5 7Z" fill="#2A2238"/>
</svg>
