<svg width="19" height="20" viewBox="0 0 19 20" fill="none" xmlns="http://www.w3.org/2000/svg">
<path d="M3.77344 17.2102C4.01406 17.2102 4.24375 17.2758 4.44063 17.3906C4.50078 17.4234 4.55547 17.4672 4.61016 17.5055C6.03203 18.457 7.73281 19.0149 9.54844 19.0149C14.5906 19.0313 18.6812 14.7766 18.6812 9.51563C18.6812 4.92735 15.5586 1.09922 11.4133 0.202344C10.8063 0.0710936 10.1883 0 9.54297 0C4.49531 0 0.295313 4.09063 0.295313 9.35157C0.295313 10.1883 0.546877 11.3149 0.716408 11.9328C0.885939 12.5508 1.11016 13.1633 1.17031 13.3219C1.23047 13.4805 1.26328 13.6555 1.26328 13.8305C1.26328 14.0274 1.225 14.2133 1.15391 14.3828L0.0546875 17.4836C0.0546875 17.4836 0 17.6149 0 17.6969C0 17.9375 0.191406 18.1344 0.4375 18.1344C0.492187 18.1344 0.585157 18.107 0.585157 18.107L3.77344 17.2102Z" fill="#2A2238"/>
</svg>
