<svg xmlns="http://www.w3.org/2000/svg" fill="none" viewBox="0 0 25 28">
  <path fill="#2A2238" fill-rule="evenodd" d="M15.75 2.625c0-.23206-.0922-.45462-.2563-.61872-.1641-.16409-.3866-.25628-.6187-.25628h-5.25c-.23206 0-.45462.09219-.61872.25628-.16409.1641-.25628.38666-.25628.61872v1.75c0 .23206.09219.45462.25628.61872.1641.16409.38666.25628.61872.25628h5.25c.2321 0 .4546-.09219.6187-.25628.1641-.1641.2563-.38666.2563-.61872v-1.75Zm-8.75 0c0-.69619.27656-1.36387.76884-1.856155C8.26113.276562 8.92881 0 9.625 0h5.25c.6962 0 1.3639.276562 1.8562.768845.4922.492285.7688 1.159965.7688 1.856155v1.75c0 .69619-.2766 1.36387-.7688 1.85616C16.2389 6.72344 15.5712 7 14.875 7h-5.25c-.69619 0-1.36387-.27656-1.85616-.76884C7.27656 5.73887 7 5.07119 7 4.375v-1.75Zm-3.5 0h1.75v1.75c0 1.16032.46094 2.27312 1.28141 3.09359C7.35188 8.28906 8.46468 8.75 9.625 8.75h5.25c.5745 0 1.1434-.11316 1.6742-.33303.5308-.21986 1.0131-.54212 1.4194-.94838.4062-.40625.7285-.88855.9484-1.41935.2198-.5308.333-1.09971.333-1.67424v-1.75H21c.9283 0 1.8185.36875 2.4749 1.02513C24.1312 4.3065 24.5 5.19674 24.5 6.125V24.5c0 .9283-.3688 1.8185-1.0251 2.4749C22.8185 27.6312 21.9283 28 21 28H3.5c-.92826 0-1.8185-.3688-2.47487-1.0251C.368749 26.3185 0 25.4283 0 24.5V6.125c0-.92826.368749-1.8185 1.02513-2.47487C1.6815 2.99375 2.57174 2.625 3.5 2.625Z" clip-rule="evenodd"/>
</svg>
