<svg width="28" height="28" viewBox="0 0 28 28" fill="none" xmlns="http://www.w3.org/2000/svg">
<path d="M14 6.125C14 5.89294 14.0922 5.67038 14.2563 5.50628C14.4204 5.34219 14.6429 5.25 14.875 5.25C15.1071 5.25 15.3296 5.34219 15.4937 5.50628C15.6578 5.67038 15.75 5.89294 15.75 6.125V15.75C15.75 15.9042 15.7091 16.0557 15.6317 16.1891C15.5542 16.3225 15.4429 16.433 15.309 16.5095L9.184 20.0095C8.983 20.1181 8.74748 20.1438 8.52778 20.0811C8.30808 20.0184 8.12162 19.8722 8.00827 19.6738C7.89491 19.4755 7.86364 19.2406 7.92114 19.0195C7.97865 18.7984 8.12036 18.6085 8.316 18.4905L14 15.2425V6.125Z" fill="#2A2238"/>
<path d="M14 28C10.287 28 6.72601 26.525 4.1005 23.8995C1.47499 21.274 0 17.713 0 14C0 10.287 1.47499 6.72601 4.1005 4.10051C6.72601 1.475 10.287 0 14 0C17.713 0 21.274 1.475 23.8995 4.10051C26.525 6.72601 28 10.287 28 14C28 17.713 26.525 21.274 23.8995 23.8995C21.274 26.525 17.713 28 14 28ZM1.75 14C1.75 17.2489 3.04062 20.3647 5.33794 22.6621C7.63526 24.9594 10.7511 26.25 14 26.25C17.2489 26.25 20.3647 24.9594 22.6621 22.6621C24.9594 20.3647 26.25 17.2489 26.25 14C26.25 10.7511 24.9594 7.63526 22.6621 5.33794C20.3647 3.04062 17.2489 1.75 14 1.75C10.7511 1.75 7.63526 3.04062 5.33794 5.33794C3.04062 7.63526 1.75 10.7511 1.75 14Z" fill="#2A2238"/>
</svg>
