<svg width="29" height="22" viewBox="0 0 29 22" fill="none" xmlns="http://www.w3.org/2000/svg">
<path d="M20.0366 2.07644C19.9491 1.99625 19.8398 1.95251 19.7377 1.95251C19.6356 1.95251 19.519 1.99625 19.4388 2.07644L18.4328 3.03869C18.3454 3.11888 18.2943 3.23551 18.2943 3.35215C18.2943 3.46878 18.3454 3.58542 18.4328 3.66561L25.4164 10.3357L18.4328 17.0059C18.3454 17.0861 18.2943 17.2027 18.2943 17.3193C18.2943 17.436 18.3454 17.5526 18.4328 17.6328L19.4388 18.5951C19.5263 18.6752 19.6284 18.719 19.7377 18.719C19.847 18.719 19.9564 18.6752 20.0366 18.5951L28.3615 10.6492C28.449 10.569 28.5 10.4524 28.5 10.3357C28.5 10.2191 28.449 10.1025 28.3615 10.0223L20.0366 2.07644ZM10.7057 3.35215C10.7057 3.23551 10.6546 3.11888 10.5672 3.03869L9.56118 2.07644C9.4737 1.99625 9.36436 1.95251 9.2623 1.95251C9.16024 1.95251 9.04361 1.99625 8.96342 2.07644L0.638506 10.0223C0.551028 10.1025 0.5 10.2191 0.5 10.3357C0.5 10.4524 0.551028 10.569 0.638506 10.6492L8.96342 18.5951C9.0509 18.6752 9.16024 18.719 9.2623 18.719C9.37165 18.719 9.48099 18.6752 9.56118 18.5951L10.5672 17.6328C10.6546 17.5526 10.7057 17.436 10.7057 17.3193C10.7057 17.2027 10.6546 17.0861 10.5672 17.0059L3.58357 10.3357L10.5672 3.66561C10.6546 3.58542 10.7057 3.46878 10.7057 3.35215Z" fill="#2A2238"/>
<path d="M15.2682 0.247955C15.297 0.0847871 15.4526 -0.0241631 15.6158 0.00460784L16.9945 0.247715C17.1577 0.276486 17.2666 0.432084 17.2378 0.595252L13.5218 21.6701C13.493 21.8333 13.3374 21.9423 13.1742 21.9135L11.7955 21.6704C11.6323 21.6416 11.5234 21.486 11.5521 21.3228L15.2682 0.247955Z" fill="#2A2238"/>
</svg>
