<svg width="18" height="29" viewBox="0 0 18 29" fill="none" xmlns="http://www.w3.org/2000/svg">
<path d="M16.7351 0.272827H1.48923C1.10263 0.272827 0.789225 0.586228 0.789225 0.972828V3.11361C0.789225 3.53558 1.15904 3.86472 1.5796 3.83025C2.57273 3.74884 4.31999 3.6649 5.74756 3.90919C7.87256 4.27283 8.62831 5.34604 9.28922 6.45465H1.48923C1.10263 6.45465 0.789225 6.76805 0.789225 7.15465V9.02737C0.789225 9.41397 1.10263 9.72737 1.48923 9.72737H9.28922C8.27322 12.0807 7.24603 13.0852 1.15404 13.013C0.760969 13.0084 0.435059 13.3238 0.435059 13.7169V16.2728L10.1418 28.0187C10.2747 28.1797 10.4726 28.2728 10.6813 28.2728H14.2113C14.7977 28.2728 15.1242 27.5951 14.7588 27.1366L6.10173 16.2728C10.8619 15.5296 12.8662 13.649 13.8934 9.36374H16.7351C17.1217 9.36374 17.4351 9.05033 17.4351 8.66374V7.15465C17.4351 6.76805 17.1217 6.45465 16.7351 6.45465H13.8934C13.7692 5.24497 13.8141 4.60922 12.1226 2.81828H16.7351C17.1217 2.81828 17.4351 2.50488 17.4351 2.11828V0.972827C17.4351 0.586228 17.1217 0.272827 16.7351 0.272827Z" fill="#2A2238"/>
</svg>
