<svg width="21" height="28" viewBox="0 0 21 28" fill="none" xmlns="http://www.w3.org/2000/svg">
<mask id="path-1-inside-1_47_314" fill="white">
<path fill-rule="evenodd" clip-rule="evenodd" d="M10.4237 0.0208304C8.67393 0.558527 1.49328 11.3769 0.449119 17.4426C-0.613307 23.6144 5.27937 27.9308 10.4237 27.9992V28C10.4443 28 10.4649 27.9999 10.4856 27.9998C10.5062 27.9999 10.5269 28 10.5475 28V27.9992C15.6918 27.9308 21.5845 23.6144 20.522 17.4426C19.4779 11.3769 12.2972 0.558527 10.5475 0.0208304V0C10.5279 0 10.5072 0.00191666 10.4856 0.00571378C10.4639 0.00191666 10.4433 0 10.4237 0V0.0208304Z"/>
</mask>
<path d="M0.449119 17.4426L1.92738 17.6971L0.449119 17.4426ZM10.4237 0.0208304L10.8643 1.45466L11.9237 1.12911V0.0208304H10.4237ZM10.4237 27.9992H11.9237V26.519L10.4436 26.4993L10.4237 27.9992ZM10.4237 28H8.92367V29.5H10.4237V28ZM10.4856 27.9998L10.4956 26.4998L10.4856 26.4998L10.4756 26.4998L10.4856 27.9998ZM10.5475 28V29.5H12.0475V28H10.5475ZM10.5475 27.9992L10.5275 26.4993L9.04748 26.519V27.9992H10.5475ZM20.522 17.4426L22.0003 17.1882L20.522 17.4426ZM10.5475 0.0208304H9.04748V1.12911L10.1069 1.45466L10.5475 0.0208304ZM10.5475 0H12.0475V-1.5H10.5475V0ZM10.4856 0.00571378L10.2264 1.48315L10.4856 1.52862L10.7448 1.48315L10.4856 0.00571378ZM10.4237 0V-1.5H8.92367V0H10.4237ZM1.92738 17.6971C2.39866 14.9593 4.32511 10.9417 6.45379 7.4375C7.50212 5.7118 8.56184 4.17233 9.45097 3.04651C9.89742 2.48122 10.2822 2.044 10.5863 1.74546C10.7386 1.59594 10.852 1.49975 10.9271 1.44414C11.0196 1.37573 10.991 1.4157 10.8643 1.45466L9.98305 -1.413C9.63758 -1.30683 9.3479 -1.11932 9.1424 -0.967228C8.91961 -0.802333 8.69827 -0.605034 8.48475 -0.395432C8.0572 0.0242659 7.58576 0.567845 7.09665 1.18717C6.11466 2.43057 4.98588 4.07563 3.88981 5.87995C1.72969 9.43584 -0.45627 13.8603 -1.02914 17.1882L1.92738 17.6971ZM10.4436 26.4993C8.25011 26.4701 5.84842 25.5216 4.13469 23.9153C2.45211 22.3382 1.49626 20.2015 1.92738 17.6971L-1.02914 17.1882C-1.66045 20.8556 -0.201173 23.963 2.08306 26.1041C4.33613 28.216 7.45293 29.4598 10.4037 29.499L10.4436 26.4993ZM8.92367 27.9992V28H11.9237V27.9992H8.92367ZM10.4237 29.5C10.4476 29.5 10.4716 29.4999 10.4956 29.4998L10.4756 26.4998C10.4583 26.4999 10.441 26.5 10.4237 26.5V29.5ZM10.5475 26.5C10.5302 26.5 10.5129 26.4999 10.4956 26.4998L10.4756 29.4998C10.4996 29.4999 10.5235 29.5 10.5475 29.5V26.5ZM9.04748 27.9992V28H12.0475V27.9992H9.04748ZM10.5674 29.499C13.5182 29.4598 16.635 28.216 18.8881 26.1041C21.1723 23.963 22.6316 20.8556 22.0003 17.1882L19.0438 17.6971C19.4749 20.2015 18.519 22.3382 16.8365 23.9153C15.1227 25.5216 12.721 26.4701 10.5275 26.4993L10.5674 29.499ZM22.0003 17.1882C21.4274 13.8603 19.2415 9.43584 17.0813 5.87995C15.9853 4.07563 14.8565 2.43057 13.8745 1.18717C13.3854 0.567845 12.914 0.024266 12.4864 -0.395432C12.2729 -0.605034 12.0515 -0.802333 11.8287 -0.967228C11.6233 -1.11932 11.3336 -1.30683 10.9881 -1.413L10.1069 1.45466C9.98011 1.4157 9.95158 1.37573 10.044 1.44414C10.1191 1.49975 10.2325 1.59594 10.3848 1.74546C10.689 2.044 11.0737 2.48122 11.5202 3.04651C12.4093 4.17233 13.469 5.7118 14.5174 7.4375C16.646 10.9417 18.5725 14.9593 19.0438 17.6971L22.0003 17.1882ZM9.04748 0V0.0208304H12.0475V0H9.04748ZM10.7448 1.48315C10.6917 1.49246 10.6251 1.5 10.5475 1.5V-1.5C10.4306 -1.5 10.3227 -1.48862 10.2264 -1.47173L10.7448 1.48315ZM10.7448 -1.47173C10.6484 -1.48862 10.5406 -1.5 10.4237 -1.5V1.5C10.346 1.5 10.2794 1.49246 10.2264 1.48315L10.7448 -1.47173ZM8.92367 0V0.0208304H11.9237V0H8.92367Z" fill="#2A2238" mask="url(#path-1-inside-1_47_314)"/>
</svg>
