<svg width="21" height="28" viewBox="0 0 21 28" fill="none" xmlns="http://www.w3.org/2000/svg">
<path fill-rule="evenodd" clip-rule="evenodd" d="M8.76665 1.14229C9.33338 0.513362 9.79769 0.113712 10.0999 0.0208304V0C10.1196 0 10.1402 0.00191666 10.1618 0.00571378C10.1835 0.00191666 10.2041 0 10.2238 0V0.0208304C10.526 0.113712 10.9903 0.513362 11.557 1.14229C14.2712 4.15425 19.3345 12.4247 20.1983 17.4426C21.2607 23.6144 15.3681 27.9316 10.2238 28L10.1618 27.9998C10.1523 27.9999 10.1428 27.9997 10.1332 27.9996C10.1221 27.9994 10.111 27.9992 10.0999 27.9992C4.95564 27.9308 -0.937037 23.6144 0.125388 17.4426C0.989177 12.4247 6.05253 4.15425 8.76665 1.14229ZM10.1199 26.4993C7.92638 26.4701 5.52469 25.5216 3.81096 23.9153C2.12838 22.3382 1.17253 20.2015 1.60365 17.6971C2.07493 14.9593 4.00138 10.9417 6.13006 7.4375C7.17839 5.7118 8.23811 4.17233 9.12724 3.04651C9.52574 2.54192 9.87511 2.13938 10.1618 1.84642C10.4486 2.13938 10.7979 2.54192 11.1965 3.04651C12.0856 4.17233 13.1453 5.7118 14.1936 7.4375C16.3223 10.9417 18.2488 14.9593 18.72 17.6971C19.1512 20.2015 18.1953 22.3384 16.5127 23.9158C14.8019 25.5195 12.4056 26.4677 10.2152 26.5L10.1718 26.4998L10.1618 26.4998L10.1583 26.4998C10.1576 26.4998 10.1568 26.4998 10.1558 26.4997L10.1354 26.4994L10.1199 26.4993Z" fill="#2A2238"/>
</svg>
