<svg width="28" height="28" viewBox="0 0 28 28" fill="none" xmlns="http://www.w3.org/2000/svg">
<path d="M22.6621 22.6621C20.3648 24.9594 17.2489 26.25 14 26.25C10.7511 26.25 7.6353 24.9594 5.33798 22.6621C3.04066 20.3647 1.75004 17.2489 1.75004 14C1.75004 10.7511 3.04066 7.63526 5.33798 5.33794C7.6353 3.04062 10.7511 1.75 14 1.75C17.2489 1.75 20.3648 3.04062 22.6621 5.33794C24.9594 7.63526 26.25 10.7511 26.25 14C26.25 17.2489 24.9594 20.3647 22.6621 22.6621ZM23.8995 23.8995C26.525 21.274 28 17.713 28 14C28 10.287 26.525 6.72601 23.8995 4.10051C21.274 1.475 17.7131 -3.63737e-07 14 -3.63737e-07C10.287 -3.63737e-07 6.72605 1.475 4.10054 4.10051C1.47504 6.72601 3.99869e-05 10.287 3.99869e-05 14C3.99869e-05 17.713 1.47504 21.274 4.10054 23.8995C6.72605 26.525 10.287 28 14 28C17.7131 28 21.274 26.525 23.8995 23.8995Z" fill="#2A2238"/>
<path d="M8.13079 8.13037C8.04931 8.21165 7.98466 8.3082 7.94054 8.41451C7.89643 8.52081 7.87373 8.63477 7.87373 8.74987C7.87373 8.86496 7.89643 8.97892 7.94054 9.08522C7.98466 9.19153 8.04931 9.28809 8.13079 9.36937L18.6308 19.8694C18.7121 19.9507 18.8087 20.0153 18.915 20.0593C19.0213 20.1033 19.1352 20.126 19.2503 20.126C19.3653 20.126 19.4793 20.1033 19.5856 20.0593C19.6919 20.0153 19.7884 19.9507 19.8698 19.8694C20.0341 19.7051 20.1264 19.4822 20.1264 19.2499C20.1264 19.1348 20.1037 19.0209 20.0597 18.9146C20.0157 18.8083 19.9511 18.7117 19.8698 18.6304L9.36979 8.13037C9.28851 8.04888 9.19195 7.98423 9.08565 7.94012C8.97935 7.89601 8.86538 7.8733 8.75029 7.8733C8.6352 7.8733 8.52124 7.89601 8.41493 7.94012C8.30863 7.98423 8.21207 8.04888 8.13079 8.13037Z" fill="#2A2238"/>
<path d="M19.3941 8.13072C19.3128 8.04923 19.2162 7.98458 19.1099 7.94047C19.0036 7.89636 18.8897 7.87365 18.7746 7.87365C18.6595 7.87365 18.5455 7.89636 18.4392 7.94047C18.3329 7.98458 18.2364 8.04923 18.1551 8.13072L7.65507 18.6307C7.57372 18.7121 7.50919 18.8087 7.46516 18.9149C7.42113 19.0212 7.39847 19.1352 7.39847 19.2502C7.39847 19.3653 7.42113 19.4792 7.46516 19.5855C7.50919 19.6918 7.57372 19.7884 7.65507 19.8697C7.81938 20.034 8.04222 20.1263 8.27457 20.1263C8.38963 20.1263 8.50355 20.1037 8.60985 20.0596C8.71614 20.0156 8.81272 19.9511 8.89407 19.8697L19.3941 9.36972C19.4756 9.28844 19.5402 9.19188 19.5843 9.08558C19.6284 8.97927 19.6511 8.86531 19.6511 8.75022C19.6511 8.63513 19.6284 8.52116 19.5843 8.41486C19.5402 8.30855 19.4756 8.212 19.3941 8.13072Z" fill="#2A2238"/>
</svg>
