<svg width="28" height="28" viewBox="0 0 28 28" fill="none" xmlns="http://www.w3.org/2000/svg">
<path d="M14 26.25C10.7511 26.25 7.63526 24.9594 5.33794 22.6621C3.04062 20.3647 1.75 17.2489 1.75 14C1.75 10.7511 3.04062 7.63526 5.33794 5.33794C7.63526 3.04062 10.7511 1.75 14 1.75C17.2489 1.75 20.3647 3.04062 22.6621 5.33794C24.9594 7.63526 26.25 10.7511 26.25 14C26.25 17.2489 24.9594 20.3647 22.6621 22.6621C20.3647 24.9594 17.2489 26.25 14 26.25ZM14 28C17.713 28 21.274 26.525 23.8995 23.8995C26.525 21.274 28 17.713 28 14C28 10.287 26.525 6.72601 23.8995 4.10051C21.274 1.475 17.713 0 14 0C10.287 0 6.72601 1.475 4.10051 4.10051C1.475 6.72601 0 10.287 0 14C0 17.713 1.475 21.274 4.10051 23.8995C6.72601 26.525 10.287 28 14 28Z" fill="#2A2238"/>
<path d="M19.8695 8.13051C19.7882 8.04902 19.6917 7.98437 19.5854 7.94026C19.4791 7.89615 19.3651 7.87344 19.25 7.87344C19.1349 7.87344 19.021 7.89615 18.9146 7.94026C18.8083 7.98437 18.7118 8.04902 18.6305 8.13051L8.13051 18.6305C8.04915 18.7119 7.98462 18.8084 7.94059 18.9147C7.89656 19.021 7.8739 19.135 7.8739 19.25C7.8739 19.3651 7.89656 19.479 7.94059 19.5853C7.98462 19.6916 8.04915 19.7882 8.13051 19.8695C8.29481 20.0338 8.51765 20.1261 8.75001 20.1261C8.86506 20.1261 8.97898 20.1035 9.08528 20.0594C9.19157 20.0154 9.28815 19.9509 9.36951 19.8695L19.8695 9.36951C19.951 9.28823 20.0156 9.19167 20.0598 9.08537C20.1039 8.97906 20.1266 8.8651 20.1266 8.75001C20.1266 8.63491 20.1039 8.52095 20.0598 8.41465C20.0156 8.30834 19.951 8.21179 19.8695 8.13051Z" fill="#2A2238"/>
<path d="M11 9.5C11 10.3284 10.3284 11 9.5 11C8.67157 11 8 10.3284 8 9.5C8 8.67157 8.67157 8 9.5 8C10.3284 8 11 8.67157 11 9.5Z" fill="#2A2238"/>
<path d="M20 18.5C20 19.3284 19.3284 20 18.5 20C17.6716 20 17 19.3284 17 18.5C17 17.6716 17.6716 17 18.5 17C19.3284 17 20 17.6716 20 18.5Z" fill="#2A2238"/>
</svg>
