<svg width="28" height="28" viewBox="0 0 28 28" fill="none" xmlns="http://www.w3.org/2000/svg">
<path d="M14 26.25C10.7511 26.25 7.63526 24.9594 5.33794 22.6621C3.04062 20.3647 1.75 17.2489 1.75 14C1.75 10.7511 3.04062 7.63526 5.33794 5.33794C7.63526 3.04062 10.7511 1.75 14 1.75C17.2489 1.75 20.3647 3.04062 22.6621 5.33794C24.9594 7.63526 26.25 10.7511 26.25 14C26.25 17.2489 24.9594 20.3647 22.6621 22.6621C20.3647 24.9594 17.2489 26.25 14 26.25ZM14 28C17.713 28 21.274 26.525 23.8995 23.8995C26.525 21.274 28 17.713 28 14C28 10.287 26.525 6.72601 23.8995 4.10051C21.274 1.475 17.713 0 14 0C10.287 0 6.72601 1.475 4.10051 4.10051C1.475 6.72601 0 10.287 0 14C0 17.713 1.475 21.274 4.10051 23.8995C6.72601 26.525 10.287 28 14 28Z" fill="#2A2238"/>
<path d="M14.0003 5.69936C13.8852 5.69921 13.7712 5.72177 13.6648 5.76575C13.5585 5.80973 13.4618 5.87426 13.3804 5.95564C13.2991 6.03702 13.2345 6.13366 13.1906 6.24002C13.1466 6.34638 13.124 6.46037 13.1242 6.57546L13.1242 21.4247C13.1242 21.5398 13.1468 21.6537 13.1909 21.76C13.2349 21.8663 13.2994 21.9629 13.3808 22.0442C13.4621 22.1256 13.5587 22.1901 13.665 22.2341C13.7713 22.2781 13.8852 22.3008 14.0003 22.3008C14.2326 22.3008 14.4555 22.2085 14.6198 22.0442C14.7011 21.9628 14.7657 21.8663 14.8097 21.76C14.8537 21.6537 14.8764 21.5398 14.8764 21.4247V6.57546C14.8765 6.46037 14.854 6.34638 14.81 6.24002C14.766 6.13366 14.7015 6.03702 14.6201 5.95564C14.5387 5.87426 14.4421 5.80973 14.3357 5.76575C14.2294 5.72177 14.1154 5.69921 14.0003 5.69936Z" fill="#2A2238"/>
<path d="M21.9644 13.6639C21.9645 13.5489 21.942 13.4349 21.898 13.3285C21.854 13.2221 21.7895 13.1255 21.7081 13.0441C21.6267 12.9627 21.5301 12.8982 21.4237 12.8542C21.3173 12.8103 21.2034 12.7877 21.0883 12.7878L6.23902 12.7878C6.12397 12.7878 6.01004 12.8105 5.90375 12.8545C5.79746 12.8986 5.70087 12.9631 5.61952 13.0444C5.53817 13.1258 5.47363 13.2224 5.4296 13.3287C5.38558 13.435 5.36292 13.5489 5.36292 13.6639C5.36292 13.8963 5.45522 14.1191 5.61952 14.2834C5.70088 14.3648 5.79746 14.4293 5.90375 14.4734C6.01004 14.5174 6.12397 14.5401 6.23902 14.5401H21.0883C21.2034 14.5402 21.3173 14.5176 21.4237 14.4737C21.5301 14.4297 21.6267 14.3652 21.7081 14.2838C21.7895 14.2024 21.854 14.1058 21.898 13.9994C21.942 13.893 21.9645 13.779 21.9644 13.6639Z" fill="#2A2238"/>
</svg>
