<svg width="22" height="28" viewBox="0 0 22 28" fill="none" xmlns="http://www.w3.org/2000/svg">
<path fill-rule="evenodd" clip-rule="evenodd" d="M21.7004 7.875V24.5C21.7004 25.4283 21.3317 26.3185 20.6753 26.9749C20.0189 27.6313 19.1287 28 18.2004 28H4.20044C3.27218 28 2.38194 27.6313 1.72557 26.9749C1.06919 26.3185 0.700439 25.4283 0.700439 24.5V3.5C0.700439 2.57174 1.06919 1.6815 1.72557 1.02513C2.38194 0.368749 3.27218 0 4.20044 0H13.8254L21.7004 7.875ZM14.5943 7.10616C14.102 6.61387 13.8254 5.94619 13.8254 5.25V1.75H4.20044C3.73631 1.75 3.29119 1.93437 2.963 2.26256C2.63481 2.59075 2.45044 3.03587 2.45044 3.5V24.5C2.45044 24.9641 2.63481 25.4092 2.963 25.7374C3.29119 26.0656 3.73631 26.25 4.20044 26.25H18.2004C18.6646 26.25 19.1097 26.0656 19.4379 25.7374C19.7661 25.4092 19.9504 24.9641 19.9504 24.5V7.875H16.4504C15.7542 7.875 15.0866 7.59844 14.5943 7.10616ZM4.48907 23.9173C4.63968 24.2523 4.91448 24.5159 5.25557 24.6523C5.58815 24.7643 5.95083 24.7462 6.27057 24.6015C6.82707 24.3723 7.38182 23.8368 7.89282 23.2243C8.55795 22.3929 9.15488 21.5092 9.67782 20.5818C10.8198 20.2433 11.9891 20.0056 13.1726 19.8713C13.6382 20.485 14.1731 21.0429 14.7668 21.5338C15.2551 21.9205 15.8203 22.239 16.3996 22.2635C16.7151 22.2791 17.0275 22.1946 17.2921 22.022C17.5597 21.8389 17.7736 21.5876 17.9116 21.294C18.0708 20.9773 18.1653 20.6448 18.1531 20.3088C18.1408 19.9623 18.0131 19.6543 17.8031 19.4023C17.4076 18.9298 16.7601 18.704 16.1231 18.5885C15.3509 18.4689 14.5675 18.4395 13.7886 18.501C13.1303 17.5705 12.5564 16.5831 12.0736 15.5505C12.5111 14.3955 12.8366 13.3035 12.9836 12.411C13.0448 12.0295 13.0781 11.6655 13.0658 11.3365C13.0536 11.018 12.9976 10.682 12.8436 10.395C12.7606 10.2333 12.6426 10.092 12.4982 9.98157C12.3538 9.87109 12.1866 9.79413 12.0088 9.75627C11.6553 9.68102 11.2913 9.75627 10.9553 9.89102C10.2973 10.1553 9.94907 10.7118 9.81782 11.3313C9.69007 11.9263 9.74782 12.6193 9.89832 13.3193C10.0775 14.0966 10.3295 14.8554 10.6508 15.5855C10.1134 16.9222 9.49265 18.2238 8.79232 19.4828C7.89053 19.7668 7.02121 20.1451 6.19882 20.6115C5.54957 20.9948 4.97557 21.4515 4.62907 21.9888C4.26157 22.5593 4.14782 23.2383 4.48907 23.9173ZM6.86557 21.742C7.10882 21.5985 7.37832 21.4585 7.66882 21.3255C7.42278 21.691 7.16 22.0448 6.88132 22.386C6.39132 22.9758 6.00982 23.289 5.77007 23.387C5.75017 23.3954 5.7297 23.4025 5.70882 23.408C5.69832 23.394 5.68082 23.3695 5.66332 23.331C5.56532 23.1368 5.56882 22.953 5.73332 22.6993C5.91882 22.4123 6.29157 22.0815 6.86557 21.742ZM12.3063 18.6603C11.7128 18.749 11.1232 18.8616 10.5388 18.998V18.9963C10.8476 18.392 11.1393 17.7793 11.4138 17.1588C11.6899 17.6717 11.9877 18.1726 12.3063 18.6603ZM14.8209 19.7873C15.0829 20.0718 15.3378 20.3109 15.5806 20.503C16.0006 20.8355 16.2928 20.9458 16.4521 20.951C16.4947 20.9566 16.538 20.9473 16.5746 20.9248C16.6474 20.8673 16.704 20.7919 16.7391 20.706C16.8013 20.5994 16.8367 20.4793 16.8423 20.356C16.8413 20.3149 16.8251 20.2756 16.7968 20.2458C16.7058 20.1373 16.4468 19.9798 15.8903 19.88C15.5369 19.8209 15.1793 19.7899 14.8209 19.7873ZM11.3377 13.6472C11.4846 13.173 11.6012 12.69 11.6868 12.201C11.7411 11.872 11.7621 11.6008 11.7533 11.3873C11.7538 11.2695 11.7349 11.1524 11.6973 11.0408C11.6098 11.0516 11.5243 11.0752 11.4436 11.1108C11.2913 11.172 11.1671 11.2963 11.1006 11.606C11.0306 11.942 11.0481 12.4268 11.1811 13.0445C11.2229 13.2379 11.2751 13.4399 11.3377 13.6472Z" fill="#2A2238"/>
</svg>
