<svg width="25" height="29" viewBox="0 0 25 29" fill="none" xmlns="http://www.w3.org/2000/svg">
<path fill-rule="evenodd" clip-rule="evenodd" d="M22.7958 8.21651V19.5903H21.0459V8.34232H17.0481C16.352 8.34232 16.0403 8.33455 15.5481 7.84232C15.0559 7.35009 14.9216 6.62551 14.9216 5.92939V2.09214H5.0481C4.58401 2.09214 4.40747 2.09214 4.0481 2.34229C3.71994 2.67044 3.5481 2.8782 3.5481 3.34229L3.54774 19.5903H1.79792L1.5481 3.34229C1.5481 2.41412 1.5481 1.34229 2.0481 0.842285C2.5481 0.342285 3.61993 0.342285 4.5481 0.342285L14.9216 0.342322L22.7958 8.21651ZM10.8287 25.1688V24.2554C10.8413 23.8712 10.7715 23.4887 10.624 23.1337C10.5079 22.8569 10.3117 22.6211 10.0606 22.4566C9.81436 22.3041 9.52946 22.2257 9.2399 22.2308C8.94907 22.2262 8.66301 22.3051 8.41574 22.4583C8.16671 22.6235 7.97194 22.8584 7.85579 23.1337C7.70833 23.4887 7.63853 23.8712 7.65107 24.2554V25.1688C7.65107 25.6167 7.72106 25.9912 7.85579 26.2904C7.97164 26.5664 8.16645 26.802 8.41574 26.9676C8.66432 27.117 8.94993 27.1934 9.2399 27.1881C9.52876 27.1933 9.81322 27.1169 10.0606 26.9676C10.3114 26.8035 10.5076 26.5683 10.624 26.2922C10.7712 25.9365 10.841 25.5535 10.8287 25.1688ZM12.2338 24.2659V25.1635C12.2338 25.8197 12.1149 26.3884 11.8751 26.8661C11.6487 27.3264 11.2898 27.7085 10.8445 27.9632C10.4 28.2152 9.86459 28.3412 9.2399 28.3412C8.6797 28.3559 8.12519 28.2257 7.63007 27.9632C7.18433 27.7091 6.82526 27.3268 6.59942 26.8661C6.34852 26.3344 6.22566 25.7513 6.24071 25.1635V24.2659C6.24071 23.6027 6.36145 23.034 6.59942 22.5598C6.83915 22.0803 7.18211 21.7146 7.63182 21.4627C8.08152 21.2054 8.61872 21.0777 9.24165 21.0777C9.86634 21.0777 10.4 21.2054 10.8445 21.4627C11.2924 21.7181 11.6354 22.0856 11.8769 22.565C12.1149 23.0392 12.2338 23.6062 12.2338 24.2659ZM0.0480957 28.2082V21.2107H2.60108C3.31151 21.2107 3.8977 21.3472 4.35965 21.6219C4.82161 21.8949 5.16457 22.2903 5.3903 22.8118C5.61777 23.3297 5.73326 23.9579 5.73326 24.6911C5.73326 25.4295 5.61952 26.0629 5.3903 26.5879C5.16107 27.1146 4.81286 27.5153 4.34915 27.7935C3.8872 28.07 3.30451 28.2082 2.60108 28.2082H0.0480957ZM2.41735 22.3393H1.43045V27.0761H2.4156C2.73932 27.0761 3.02104 27.0271 3.26077 26.9326C3.49125 26.8401 3.69296 26.6879 3.84521 26.4916C3.99919 26.2922 4.11293 26.0472 4.18817 25.7532C4.27259 25.4145 4.31258 25.0663 4.30716 24.7173C4.30716 24.1924 4.23717 23.7514 4.10068 23.3997C3.98791 23.0736 3.77003 22.7942 3.48124 22.6053C3.20477 22.4268 2.84956 22.3393 2.41385 22.3393H2.41735ZM14.2391 24.2921C14.2391 23.8582 14.2986 23.4872 14.4194 23.1845C14.523 22.9058 14.7061 22.6636 14.9461 22.4881C15.1914 22.3233 15.4818 22.2389 15.7772 22.2466C16.0397 22.2466 16.2724 22.3026 16.4737 22.4163C16.6715 22.5214 16.8367 22.6788 16.9514 22.8713C17.0733 23.0737 17.1453 23.3022 17.1613 23.5379H18.5V23.4102C18.4883 23.0879 18.4099 22.7715 18.2695 22.4811C18.1291 22.1907 17.9299 21.9327 17.6845 21.7234C17.4327 21.5101 17.1413 21.3484 16.8271 21.2474C16.4857 21.1318 16.1272 21.0744 15.7667 21.0777C15.1455 21.0777 14.6119 21.2072 14.1726 21.4679C13.7352 21.7269 13.4027 22.0961 13.1735 22.5755C12.9443 23.0532 12.8288 23.6254 12.8288 24.2869V25.1583C12.8288 25.8215 12.9425 26.3902 13.1683 26.8661C13.3957 27.3403 13.7299 27.706 14.1674 27.9632C14.6049 28.2152 15.1385 28.3412 15.7667 28.3412C16.2794 28.3412 16.7379 28.2467 17.1403 28.0542C17.5428 27.8617 17.8648 27.5993 18.1045 27.2598C18.3459 26.9123 18.4831 26.5032 18.5 26.0804V25.9474H17.1613C17.1456 26.1732 17.0753 26.3917 16.9566 26.5844C16.8391 26.7692 16.6741 26.9191 16.4789 27.0183C16.2606 27.1246 16.02 27.1774 15.7772 27.1723C15.4818 27.1812 15.1904 27.1014 14.9408 26.9431C14.7016 26.7717 14.5199 26.532 14.4194 26.2554C14.2909 25.9043 14.2297 25.5321 14.2391 25.1583V24.2921ZM23.1492 21.2124H24.7136L22.4825 24.7226L24.6768 28.2082H23.088L21.6006 25.7322H21.5394L20.0485 28.2082H18.5402L20.71 24.6823L18.5612 21.2107H20.192L21.6479 23.7287H21.7091L23.1492 21.2107V21.2124Z" fill="#2A2238"/>
</svg>
