<svg width="26" height="29" viewBox="0 0 26 29" fill="none" xmlns="http://www.w3.org/2000/svg">
<path fill-rule="evenodd" clip-rule="evenodd" d="M25.0481 8.21678V24.8404C25.0481 25.7686 24.6794 26.6588 24.023 27.3151C23.3667 27.9714 22.4765 28.3402 21.5484 28.3402V26.5903C22.0124 26.5903 22.4575 26.4059 22.7857 26.0778C23.1139 25.7496 23.2982 25.3045 23.2982 24.8404V8.34241C23.2982 8.34241 19.925 8.34241 19.05 8.34241C18.1751 8.34241 17.886 8.28156 17.609 7.97364C17.2566 7.58191 17.1737 7.21734 17.1737 6.34241C17.1737 5.46748 17.1737 2.09227 17.1737 2.09227H7.54948C7.08539 2.09227 6.43717 2.14559 6.10901 2.47375C5.78085 2.80192 5.79962 3.37804 5.79962 3.84213V19.5909H4.04977V3.84213C4.04977 2.91395 3.95268 1.63008 4.60901 0.973755C5.26533 0.317431 6.6213 0.342412 7.54948 0.342412H17.1737L25.0481 8.21678ZM11.3309 24.256V25.1694C11.3309 25.6174 11.2627 25.9918 11.1262 26.2911C11.01 26.5679 10.8138 26.8037 10.5627 26.9683C10.3154 27.1175 10.0309 27.194 9.74206 27.1887C9.45208 27.1941 9.16646 27.1177 8.91787 26.9683C8.66884 26.8031 8.47406 26.5681 8.35792 26.2928C8.21072 25.9371 8.14093 25.5542 8.15318 25.1694V24.256C8.15318 23.8063 8.22318 23.4318 8.35792 23.1343C8.47377 22.8583 8.66858 22.6228 8.91787 22.4571C9.16534 22.3046 9.45139 22.2262 9.74206 22.2314C10.05 22.2314 10.323 22.3066 10.5627 22.4589C10.8136 22.623 11.0097 22.8581 11.1262 23.1343C11.2627 23.4318 11.3309 23.8063 11.3309 24.256ZM12.7361 25.1642V24.2665C12.7361 23.6068 12.6171 23.0416 12.3773 22.5656C12.1526 22.1027 11.7934 21.7185 11.3467 21.4632C10.9022 21.206 10.3668 21.0782 9.74206 21.0782C9.12086 21.0782 8.58365 21.206 8.13219 21.4632C7.68493 21.7155 7.32535 22.0982 7.10152 22.5604C6.86354 23.0346 6.7428 23.6033 6.7428 24.2665V25.1642C6.7428 25.8204 6.86354 26.3891 7.10152 26.8668C7.34125 27.341 7.68422 27.7067 8.13394 27.9639C8.58365 28.2159 9.12086 28.3419 9.74381 28.3419C10.3685 28.3419 10.9022 28.2159 11.3467 27.9639C11.7946 27.7067 12.1376 27.341 12.3791 26.8668C12.6171 26.3873 12.7361 25.8204 12.7361 25.1642ZM0.550049 21.2112V28.2107H3.10309C3.80654 28.2107 4.38924 28.0707 4.8512 27.7942C5.31869 27.5145 5.68374 27.0918 5.89237 26.5885C6.11985 26.0636 6.23534 25.4301 6.23534 24.6917C6.23534 23.9568 6.1216 23.3303 5.89237 22.8106C5.68575 22.3129 5.32355 21.8954 4.85995 21.6207C4.39974 21.3477 3.81354 21.2112 3.10309 21.2112H0.550049ZM1.93419 22.3399H2.91936C3.35332 22.3399 3.70679 22.4274 3.98502 22.6059C4.27382 22.7947 4.4917 23.0742 4.60447 23.4003C4.74271 23.752 4.81095 24.1912 4.81095 24.7179C4.81638 25.0669 4.77638 25.4152 4.69196 25.7539C4.62958 26.021 4.51282 26.2723 4.34899 26.4923C4.19674 26.6885 3.99503 26.8407 3.76454 26.9333C3.49447 27.0343 3.20764 27.083 2.91936 27.0768H1.93244V22.3381L1.93419 22.3399ZM14.9216 23.1851C14.7931 23.5398 14.732 23.9155 14.7414 24.2927V25.1589C14.7414 25.5894 14.8009 25.9551 14.9216 26.2561C15.0222 26.5326 15.2039 26.7723 15.4431 26.9438C15.6927 27.1021 15.9841 27.1819 16.2795 27.173C16.5224 27.1785 16.763 27.1257 16.9812 27.019C17.1764 26.9197 17.3414 26.7699 17.4589 26.585C17.5777 26.3924 17.6479 26.1738 17.6637 25.9481H19.0023V26.0811C18.9856 26.5039 18.8484 26.9131 18.6068 27.2605C18.3671 27.6 18.0469 27.8642 17.6444 28.0549C17.2132 28.2523 16.7432 28.3504 16.269 28.3419C15.6391 28.3419 15.1071 28.2159 14.6697 27.9639C14.2329 27.7082 13.8844 27.3255 13.6705 26.8668C13.443 26.3908 13.331 25.8221 13.331 25.1589V24.2875C13.331 23.6243 13.4465 23.0538 13.6757 22.5761C13.9032 22.0967 14.2374 21.7274 14.6749 21.4685C15.1159 21.2077 15.6478 21.0782 16.269 21.0782C16.6522 21.0782 17.0057 21.1342 17.3312 21.248C17.6584 21.3565 17.9436 21.5157 18.1869 21.7239C18.4326 21.933 18.632 22.191 18.7724 22.4814C18.9128 22.7719 18.9911 23.0884 19.0023 23.4108V23.5385H17.6637C17.6474 23.3034 17.5754 23.0755 17.4537 22.8736C17.3393 22.6805 17.174 22.5225 16.976 22.4169C16.7624 22.301 16.5225 22.2425 16.2795 22.2471C15.9841 22.2395 15.6937 22.3239 15.4483 22.4886C15.2084 22.6642 15.0253 22.9064 14.9216 23.1851Z" fill="#2A2238"/>
</svg>
