<svg width="26" height="29" viewBox="0 0 26 29" fill="none" xmlns="http://www.w3.org/2000/svg">
<path fill-rule="evenodd" clip-rule="evenodd" d="M25.5337 25.3585L25.523 8.23006L17.6515 0.358502H8.03068C7.66361 0.358504 7.35239 0.353232 7.08482 0.3487C5.89676 0.328572 5.56923 0.323024 5.03374 0.858513C4.49018 1.40207 4.50304 2.07455 4.52344 3.14136C4.52766 3.36222 4.53221 3.59997 4.53221 3.85697V19.6001H6.28145V3.85697C6.28145 3.39305 6.28145 2.60008 6.52303 2.3585C6.78258 2.09895 7.42361 2.10363 7.88719 2.10702C7.93733 2.10739 7.9854 2.10774 8.03068 2.10774H17.6515V6.35852C17.6515 6.4656 17.6491 6.5636 17.6469 6.65456C17.635 7.15471 17.6281 7.44217 18.0444 7.85852C18.5365 8.35059 18.8485 8.35852 19.5444 8.35852H23.7738V25.2189C23.7738 25.6828 23.7738 25.9788 23.5337 26.2189C23.2057 26.5469 22.9977 26.597 22.5337 26.597H20.2753V28.3463L22.5337 28.3585C22.5559 28.3585 22.5781 28.3585 22.6002 28.3585C23.5052 28.3589 24.3933 28.3593 25.0337 27.7189C25.5812 27.1714 25.5632 26.5401 25.5422 25.807C25.538 25.6615 25.5337 25.5121 25.5337 25.3585ZM6.86642 27.3692C6.74562 27.1213 6.67805 26.8508 6.66803 26.5752H8.00611C8.03041 26.7118 8.08254 26.8419 8.15927 26.9574C8.236 27.073 8.3357 27.1715 8.45214 27.2469C8.58475 27.3372 8.73129 27.4052 8.88592 27.448C9.05559 27.4952 9.241 27.518 9.44564 27.518C9.7325 27.518 9.97388 27.4778 10.168 27.3955C10.3464 27.3289 10.5014 27.2115 10.6141 27.058C10.7142 26.908 10.7661 26.731 10.7627 26.5507C10.7679 26.4412 10.7464 26.3322 10.7001 26.2328C10.6538 26.1335 10.584 26.0469 10.4969 25.9805C10.3185 25.8406 10.0491 25.7286 9.68702 25.6429L8.60606 25.391C8.24399 25.3106 7.92915 25.1847 7.66328 25.0185C7.39742 24.8488 7.19102 24.6372 7.04759 24.3766C6.90416 24.1177 6.8342 23.8116 6.8342 23.46C6.8342 23.0332 6.94439 22.6607 7.16653 22.3423C7.38867 22.0257 7.69477 21.7791 8.08832 21.6059C8.48187 21.431 8.93315 21.3436 9.44564 21.3436C9.91448 21.3302 10.3804 21.421 10.81 21.6094C11.1611 21.7647 11.4635 22.0126 11.6845 22.3266C11.8913 22.6174 12.0125 22.9604 12.0343 23.3166H10.7225C10.6926 23.1506 10.6203 22.9952 10.5126 22.8653C10.3976 22.7258 10.2498 22.617 10.0823 22.5487C9.90042 22.47 9.68527 22.4298 9.43515 22.4298C9.05734 22.4298 8.75824 22.519 8.5396 22.6956C8.32445 22.8706 8.21601 23.0944 8.21601 23.3673C8.21437 23.4681 8.23629 23.5678 8.28002 23.6586C8.32375 23.7494 8.38808 23.8288 8.46788 23.8903C8.67669 24.0458 8.91848 24.1511 9.17453 24.1981L10.2607 24.45C10.6072 24.5224 10.9409 24.6462 11.2507 24.8173C11.5204 24.9644 11.7466 25.1797 11.9067 25.4418C12.0623 25.7041 12.141 26.0295 12.141 26.4213C12.141 26.8551 12.0326 27.2381 11.814 27.5687C11.5988 27.8975 11.284 28.1547 10.8712 28.3383C10.4601 28.522 9.95989 28.6147 9.36868 28.6147C8.9244 28.6147 8.53785 28.5622 8.20551 28.4555C7.87493 28.3506 7.59682 28.2036 7.36943 28.0147C7.15856 27.837 6.98722 27.6171 6.86642 27.3692ZM2.10456 23.46C1.98562 23.7626 1.92615 24.1334 1.92615 24.5672V24.569V25.4348C1.91614 25.8083 1.97667 26.1804 2.10456 26.5315C2.20572 26.8076 2.38803 27.0466 2.62755 27.2171C2.87688 27.376 3.16812 27.4564 3.46363 27.448C3.7062 27.4537 3.94662 27.4015 4.16503 27.2958C4.35992 27.1953 4.52423 27.0443 4.64079 26.8586C4.75988 26.6667 4.8307 26.4488 4.84719 26.2236H6.18352V26.3566C6.16667 26.7792 6.02953 27.1881 5.78822 27.5355C5.55034 27.8748 5.2285 28.1372 4.8262 28.3296C4.42215 28.5202 3.96563 28.6164 3.45314 28.6164C2.82345 28.6164 2.29172 28.4905 1.85444 28.2369C1.41716 27.9815 1.08307 27.6159 0.853939 27.1419C0.628302 26.6662 0.516357 26.0977 0.516357 25.4348V24.5637C0.516357 23.9008 0.6318 23.3306 0.859186 22.8513C1.09007 22.3738 1.4224 22.0047 1.85969 21.7459C2.29872 21.4853 2.83045 21.3558 3.45314 21.3558C3.81347 21.3526 4.17179 21.4099 4.51311 21.5255C4.82656 21.6267 5.11715 21.7883 5.36843 22.0012C5.61372 22.2105 5.81284 22.4684 5.95315 22.7587C6.09347 23.0489 6.17192 23.3652 6.18352 23.6874V23.8133H4.84544C4.82941 23.5777 4.75746 23.3492 4.63555 23.1469C4.52144 22.9547 4.35691 22.7975 4.15979 22.6921C3.95864 22.5785 3.726 22.5225 3.46363 22.5225C3.16854 22.5143 2.87821 22.598 2.6328 22.7621C2.39203 22.9378 2.20831 23.1806 2.10456 23.46ZM16.3372 28.4818H14.6703L12.33 21.487H13.9339L15.5011 26.9758H15.5676L17.1208 21.487H18.6583L16.3372 28.4835V28.4818Z" fill="#2A2238"/>
</svg>
