<svg width="25" height="29" viewBox="0 0 25 29" fill="none" xmlns="http://www.w3.org/2000/svg">
<path fill-rule="evenodd" clip-rule="evenodd" d="M24.6841 25.0162L24.6734 7.88777L16.8019 0.0162174H7.18107C6.814 0.0162196 6.50278 0.0109473 6.2352 0.00641431C5.04715 -0.0137126 4.71962 -0.0192613 4.18413 0.516227C3.64057 1.05979 3.65343 1.73227 3.67383 2.79908C3.67805 3.01993 3.6826 3.25768 3.6826 3.51469V19.2578H5.43184V3.51469C5.43184 3.05076 5.43184 2.2578 5.67342 2.01622C5.93297 1.75666 6.57401 1.76135 7.03758 1.76473C7.08772 1.7651 7.13579 1.76545 7.18107 1.76545H16.8019V6.01624C16.8019 6.12332 16.7995 6.22131 16.7973 6.31227C16.7854 6.81242 16.7785 7.09989 17.1948 7.51624C17.6869 8.0083 17.9989 8.01624 18.6948 8.01624H22.9242V24.8766C22.9242 25.3405 22.9242 25.6365 22.6841 25.8766C22.3561 26.2046 22.1481 26.2547 21.6841 26.2547H19.4257V28.004L21.6841 28.0162C21.7063 28.0162 21.7285 28.0162 21.7506 28.0162C22.6556 28.0166 23.5437 28.017 24.1841 27.3766C24.7316 26.8291 24.7136 26.1978 24.6926 25.4647C24.6884 25.3193 24.6841 25.1698 24.6841 25.0162ZM6.24405 27.0273C6.12324 26.7793 6.05566 26.5089 6.04565 26.2332H7.38381C7.4081 26.3698 7.46024 26.4999 7.53698 26.6155C7.61372 26.731 7.71341 26.8296 7.82986 26.905C7.96247 26.9953 8.10902 27.0633 8.26367 27.1061C8.4316 27.1533 8.61877 27.1761 8.82343 27.1761C9.1103 27.1761 9.3517 27.1359 9.54586 27.0536C9.72425 26.9869 9.87928 26.8696 9.99192 26.716C10.0914 26.5658 10.1432 26.389 10.1406 26.2088C10.1456 26.0991 10.1238 25.9899 10.0772 25.8906C10.0305 25.7913 9.96046 25.7047 9.87297 25.6385C9.69455 25.4986 9.42692 25.3866 9.06482 25.3009L7.9838 25.049C7.61996 24.9685 7.30684 24.8426 7.03921 24.6764C6.77333 24.5068 6.56867 24.2951 6.42523 24.0345C6.28004 23.7756 6.21007 23.4695 6.21007 23.1179C6.21007 22.691 6.32027 22.3185 6.54243 22.0001C6.76633 21.6835 7.07245 21.4368 7.46602 21.2637C7.85785 21.0887 8.3109 21.0013 8.82343 21.0013C9.2923 20.9879 9.75829 21.0787 10.1878 21.2672C10.539 21.4225 10.8414 21.6704 11.0625 21.9844C11.2686 22.2754 11.3892 22.6184 11.4105 22.9744H10.0986C10.0687 22.8084 9.99637 22.653 9.88871 22.5231C9.77421 22.3838 9.62697 22.275 9.46015 22.2065C9.27823 22.1278 9.06308 22.0876 8.81293 22.0876C8.43335 22.0876 8.13423 22.1768 7.91558 22.3534C7.70042 22.5284 7.59372 22.7523 7.59372 23.0252C7.59188 23.1258 7.61353 23.2254 7.65695 23.3162C7.70037 23.407 7.76437 23.4864 7.84386 23.5482C8.05319 23.7039 8.29562 23.8092 8.5523 23.856L9.63857 24.1079C9.98448 24.1804 10.3176 24.3042 10.6269 24.4753C10.8965 24.6223 11.1227 24.8377 11.2829 25.0997C11.4403 25.3621 11.519 25.6875 11.519 26.0793C11.5264 26.4858 11.4125 26.8853 11.1919 27.2268C10.975 27.5557 10.6619 27.8128 10.2473 27.9965C9.83799 28.1801 9.33771 28.2729 8.74646 28.2729C8.30216 28.2729 7.91558 28.2204 7.58322 28.1137C7.25087 28.0087 6.97449 27.8618 6.74709 27.6729C6.5362 27.4951 6.36485 27.2752 6.24405 27.0273ZM0.810185 26.9609C0.713977 26.7055 0.666748 26.4344 0.666748 26.1458H2.00491C2.00803 26.3113 2.05189 26.4735 2.13261 26.6181C2.21315 26.7554 2.32972 26.8681 2.4697 26.9439C2.60967 27.0198 2.76773 27.0559 2.92676 27.0484C3.25736 27.0484 3.50401 26.9539 3.66494 26.7615C3.82587 26.5709 3.90633 26.298 3.90633 25.9464V21.1447H5.28998V25.9114C5.28998 26.6793 5.08007 27.2653 4.66375 27.6676C4.25093 28.0717 3.67718 28.2729 2.9425 28.2729C2.56642 28.2729 2.23406 28.2186 1.94719 28.1102C1.66381 27.9965 1.42767 27.8408 1.23525 27.6431C1.04808 27.4455 0.906393 27.2181 0.810185 26.9609ZM16.2472 21.1447H17.8092L15.5807 24.6554L17.7743 28.1382H16.186L14.6991 25.663H14.6379L13.1458 28.1382H11.6397L13.8087 24.6117L11.6607 21.143H13.2892L14.7446 23.6584H14.8076L16.2472 21.143V21.1447Z" fill="#2A2238"/>
</svg>
