<svg width="25" height="29" viewBox="0 0 25 29" fill="none" xmlns="http://www.w3.org/2000/svg">
<path fill-rule="evenodd" clip-rule="evenodd" d="M24.0174 25.3585L24.0067 8.23006L16.1351 0.358502H6.51432C6.14725 0.358505 5.83603 0.353232 5.56846 0.3487C4.3804 0.328572 4.05287 0.323024 3.51738 0.858512C2.97382 1.40207 2.98668 2.07455 3.00708 3.14136C3.01131 3.36222 3.01585 3.59997 3.01585 3.85697V19.6001H4.76509V3.85697C4.76509 3.39305 4.76509 2.60008 5.00667 2.3585C5.26622 2.09895 5.90726 2.10363 6.37083 2.10702C6.42097 2.10739 6.46904 2.10774 6.51432 2.10774H16.1351V6.35852C16.1351 6.4656 16.1328 6.5636 16.1306 6.65456C16.1186 7.15471 16.1117 7.44217 16.5281 7.85852C17.0201 8.35059 17.3322 8.35852 18.0281 8.35852H22.2574V25.2189C22.2574 25.6828 22.2574 25.9788 22.0174 26.2189C21.6893 26.5469 21.4813 26.597 21.0174 26.597H18.759V28.3463L21.0174 28.3585C21.0396 28.3585 21.0617 28.3585 21.0839 28.3585C21.9889 28.3589 22.877 28.3593 23.5174 27.7189C24.0649 27.1714 24.0468 26.5401 24.0258 25.807C24.0217 25.6615 24.0174 25.5121 24.0174 25.3585ZM6.14017 27.3692C6.01937 27.1213 5.95179 26.8508 5.94178 26.5752H7.27986C7.30415 26.7118 7.35629 26.8419 7.43302 26.9574C7.50975 27.073 7.60944 27.1715 7.72589 27.2469C7.8585 27.3372 8.00504 27.4052 8.15967 27.448C8.32933 27.4952 8.51474 27.518 8.71939 27.518C9.00625 27.518 9.24763 27.4778 9.44178 27.3955C9.62016 27.3289 9.77518 27.2115 9.88781 27.058C9.98798 26.908 10.0399 26.731 10.0365 26.5507C10.0416 26.4412 10.0201 26.3322 9.97382 26.2328C9.92751 26.1335 9.85778 26.0469 9.77061 25.9805C9.59221 25.8406 9.32284 25.7286 8.96077 25.6429L7.87981 25.391C7.51774 25.3106 7.2029 25.1847 6.93703 25.0185C6.67117 24.8488 6.46477 24.6372 6.32134 24.3766C6.17791 24.1177 6.10795 23.8116 6.10795 23.46C6.10795 23.0332 6.21814 22.6607 6.44028 22.3423C6.66242 22.0257 6.96852 21.7791 7.36207 21.6059C7.75562 21.431 8.2069 21.3436 8.71939 21.3436C9.18823 21.3302 9.65419 21.421 10.0837 21.6094C10.4349 21.7647 10.7372 22.0126 10.9583 22.3266C11.1651 22.6174 11.2863 22.9604 11.3081 23.3166H9.99625C9.96631 23.1506 9.89401 22.9952 9.78636 22.8653C9.67137 22.7258 9.52351 22.617 9.35607 22.5487C9.17416 22.47 8.95902 22.4298 8.7089 22.4298C8.33109 22.4298 8.03198 22.519 7.81334 22.6956C7.5982 22.8706 7.48976 23.0944 7.48976 23.3673C7.48812 23.4681 7.51004 23.5678 7.55377 23.6586C7.5975 23.7494 7.66183 23.8288 7.74163 23.8903C7.95044 24.0458 8.19223 24.1511 8.44828 24.1981L9.53448 24.45C9.88097 24.5224 10.2147 24.6462 10.5245 24.8173C10.7941 24.9644 11.0203 25.1797 11.1804 25.4418C11.3361 25.7041 11.4148 26.0295 11.4148 26.4213C11.4148 26.8551 11.3063 27.2381 11.0877 27.5687C10.8726 27.8975 10.5577 28.1547 10.1449 28.3383C9.73388 28.522 9.23363 28.6147 8.64243 28.6147C8.19815 28.6147 7.81159 28.5622 7.47926 28.4555C7.14868 28.3506 6.87057 28.2036 6.64318 28.0147C6.43231 27.837 6.26096 27.6171 6.14017 27.3692ZM1.58821 23.46C1.46926 23.7626 1.40979 24.1334 1.40979 24.5672V24.569V25.4348C1.39979 25.8083 1.46032 26.1804 1.58821 26.5315C1.68936 26.8076 1.87167 27.0466 2.11119 27.2171C2.36053 27.376 2.65176 27.4564 2.94728 27.448C3.18984 27.4537 3.43026 27.4015 3.64868 27.2958C3.84356 27.1953 4.00787 27.0443 4.12444 26.8586C4.24352 26.6667 4.31434 26.4488 4.33084 26.2236H5.66717V26.3566C5.65031 26.7792 5.51317 27.1881 5.27186 27.5355C5.03398 27.8748 4.71214 28.1372 4.30984 28.3296C3.9058 28.5202 3.44928 28.6164 2.93678 28.6164C2.3071 28.6164 1.77536 28.4905 1.33808 28.2369C0.9008 27.9815 0.566717 27.6159 0.337582 27.1419C0.111944 26.6662 0 26.0977 0 25.4348V24.5637C0 23.9008 0.115442 23.3306 0.342829 22.8513C0.573713 22.3738 0.906047 22.0047 1.34333 21.7459C1.78236 21.4853 2.31409 21.3558 2.93678 21.3558C3.29712 21.3526 3.65543 21.4099 3.99675 21.5255C4.31021 21.6267 4.60079 21.7883 4.85207 22.0012C5.09736 22.2105 5.29648 22.4684 5.4368 22.7587C5.57711 23.0489 5.65556 23.3652 5.66717 23.6874V23.8133H4.32909C4.31305 23.5777 4.2411 23.3492 4.11919 23.1469C4.00508 22.9547 3.84055 22.7975 3.64343 22.6921C3.44228 22.5785 3.20965 22.5225 2.94728 22.5225C2.65219 22.5143 2.36185 22.598 2.11644 22.7621C1.87567 22.9378 1.69196 23.1806 1.58821 23.46ZM11.8591 27.3606C11.743 27.1142 11.677 26.8473 11.6649 26.5752H13.0013C13.0255 26.7118 13.0777 26.8419 13.1544 26.9574C13.2311 27.073 13.3308 27.1715 13.4473 27.2469C13.5697 27.3326 13.7166 27.399 13.8846 27.4463C14.0507 27.4952 14.2361 27.518 14.4425 27.518C14.7294 27.518 14.969 27.4778 15.1649 27.3955C15.3433 27.3289 15.4983 27.2115 15.6109 27.058C15.7109 26.9079 15.7628 26.731 15.7596 26.5507C15.7646 26.4411 15.7428 26.3319 15.6962 26.2326C15.6496 26.1333 15.5795 26.0467 15.492 25.9805C15.3153 25.8406 15.0442 25.7286 14.6822 25.6429L13.6012 25.3928C13.268 25.3223 12.9492 25.1957 12.6584 25.0185C12.4019 24.8609 12.1905 24.6398 12.0445 24.3766C11.8957 24.0944 11.8216 23.7789 11.8293 23.46C11.8293 23.0332 11.9395 22.6607 12.1617 22.3423C12.3838 22.0257 12.6917 21.7791 13.0835 21.6042C13.477 21.4293 13.93 21.3436 14.4425 21.3436C14.9743 21.3436 15.429 21.431 15.8051 21.6094C16.1847 21.7878 16.4768 22.0275 16.6797 22.3266C16.8896 22.6239 17.0067 22.9545 17.0295 23.3166H15.7176C15.6877 23.1506 15.6154 22.9952 15.5077 22.8653C15.3928 22.7258 15.2449 22.617 15.0775 22.5487C14.8722 22.4651 14.6519 22.4246 14.4303 22.4298C14.0525 22.4298 13.7534 22.5172 13.5347 22.6956C13.4322 22.7746 13.3497 22.8765 13.2938 22.9931C13.2379 23.1098 13.2102 23.238 13.2129 23.3673C13.2129 23.579 13.2951 23.7521 13.463 23.892C13.672 24.0469 13.9138 24.1516 14.1697 24.1981L15.2559 24.4483C15.6354 24.5357 15.966 24.6582 16.2459 24.8173C16.5257 24.9748 16.7444 25.1847 16.9018 25.4435C17.0592 25.7024 17.1379 26.0295 17.1379 26.423C17.1379 26.8551 17.0277 27.2381 16.8091 27.5705C16.5763 27.9127 16.2486 28.1796 15.8663 28.3383C15.457 28.522 14.9568 28.6147 14.3656 28.6147C13.9213 28.6147 13.533 28.5622 13.2024 28.4573C12.8978 28.3659 12.6138 28.2162 12.3663 28.0165C12.1528 27.8362 11.9799 27.6126 11.8591 27.3606Z" fill="#2A2238"/>
</svg>
