<svg width="18" height="18" viewBox="0 0 18 18" fill="none" xmlns="http://www.w3.org/2000/svg">
<circle cx="9" cy="9" r="8.5" fill="white" stroke="black"/>
<path d="M13.9 9C13.9 11.3784 13.1165 13.5332 12.0826 15.087C11.5657 15.8638 10.9945 16.478 10.4421 16.893C9.88197 17.3139 9.38253 17.5 9 17.5C8.61747 17.5 8.11803 17.3139 7.55791 16.893C7.00554 16.478 6.43431 15.8638 5.91743 15.087C4.88353 13.5332 4.1 11.3784 4.1 9C4.1 6.62157 4.88353 4.46683 5.91743 2.91302C6.43431 2.13623 7.00554 1.52204 7.55791 1.107C8.11803 0.686124 8.61747 0.5 9 0.5C9.38253 0.5 9.88197 0.686124 10.4421 1.107C10.9945 1.52204 11.5657 2.13623 12.0826 2.91302C13.1165 4.46683 13.9 6.62157 13.9 9Z" fill="white" stroke="black"/>
<line x1="9.07143" x2="9.07143" y2="18" stroke="black"/>
<line y1="8.97369" x2="17.1429" y2="8.97369" stroke="black"/>
</svg>
