<svg width="29" height="23" viewBox="0 0 29 23" fill="none" xmlns="http://www.w3.org/2000/svg">
<path d="M14.75 3.1125C13.2313 3.1125 11.8188 3.74375 10.7563 4.8875C9.69375 6.03125 9.125 6.9625 9.125 8.6125C9.125 9.09375 9.49375 9.4875 9.95 9.4875C10.4063 9.4875 10.775 9.09375 10.775 8.6125C10.775 7.53125 11.1875 6.5875 11.9625 5.89375C12.7 5.23125 13.6938 4.8625 14.7563 4.8625C15.8188 4.8625 16.8125 5.225 17.55 5.89375C18.325 6.59375 18.7375 7.53125 18.7375 8.6125C18.7375 9.09375 19.1063 9.4875 19.5625 9.4875C20.0188 9.4875 20.3875 9.09375 20.3875 8.6125C20.3875 6.9625 19.8125 6.03125 18.7563 4.8875C17.6813 3.7375 16.2688 3.1125 14.75 3.1125Z" fill="#2A2238"/>
<path d="M27.3188 12.8062C26.3938 11.8812 25.175 11.375 23.875 11.375H23.375C23.2375 11.375 23.125 11.2625 23.125 11.125V8.7625C23.125 6.53125 22.25 4.43125 20.6625 2.84375C19.0813 1.25 16.9813 0.375 14.75 0.375C12.5188 0.375 10.4187 1.25 8.8375 2.8375C7.25 4.425 6.375 6.525 6.375 8.75625V11.125C6.375 11.2625 6.2625 11.375 6.125 11.375H5.625C4.325 11.375 3.10625 11.8812 2.18125 12.8062C1.25625 13.7312 0.75 14.95 0.75 16.25V16.9875C0.75 18.2875 1.25625 19.5125 2.18125 20.4375C3.10625 21.3625 4.33125 21.875 5.625 21.875H5.975C6.225 21.875 6.475 21.9625 6.65625 22.1313C6.8125 22.275 7.025 22.3688 7.25 22.3688C7.73125 22.3688 8.125 21.975 8.125 21.4875V8.75625C8.125 6.99375 8.81875 5.33125 10.075 4.075C11.3313 2.81875 12.9938 2.125 14.75 2.125C16.5125 2.125 18.175 2.81875 19.425 4.075C20.6812 5.33125 21.375 6.99375 21.375 8.75625V21.4938C21.375 21.9813 21.7688 22.375 22.25 22.375C22.475 22.375 22.6875 22.2813 22.8438 22.1375C23.025 21.9688 23.275 21.8813 23.525 21.8813H23.875C25.1688 21.8813 26.3938 21.3688 27.3188 20.4438C28.2438 19.5188 28.75 18.2938 28.75 16.9938V16.25C28.75 14.95 28.2438 13.7312 27.3188 12.8062Z" fill="#2A2238"/>
</svg>
