<svg width="20" height="19" viewBox="0 0 20 19" fill="none" xmlns="http://www.w3.org/2000/svg">
<path d="M9.50415 18.9253C7.50415 18.1614 4.29994 15.3254 2.49994 12.9253C0.999939 10.9253 -6.10352e-05 8.92532 -6.10352e-05 6.42533C-6.10352e-05 3.92535 1.01437 2.21379 1.99994 1.42533C4.49994 -0.574677 7.99994 -0.574677 9.49994 3.92533L9.50415 8.42532V18.9253Z" fill="#2A2238"/>
<path d="M9.5 18.9253C11.5 18.1614 14.7042 15.1054 16.5042 12.7053C18.0042 10.7053 19.0042 8.70531 19.0042 6.20533C19.0042 3.70534 17.9898 1.99378 17.0042 1.20532C14.5042 -0.794685 11 -0.574679 9.5 3.92532V8.20531V18.9253Z" fill="#2A2238"/>
</svg>
