<svg xmlns="http://www.w3.org/2000/svg" fill="none" viewBox="0 0 24 28">
  <path fill="#2A2238" d="M1 28c-.265216 0-.51957-.1054-.707107-.2929C.105357 27.5196 0 27.2652 0 27c0-.2652.105357-.5196.292893-.7071C.48043 26.1054.734784 26 1 26h2v-2c-.00041-1.6981.47957-3.3616 1.3845-4.7984.90493-1.4369 2.19788-2.5884 3.7295-3.3216.58-.278.886-.754.886-1.18v-1.4c0-.426-.308-.902-.886-1.18-1.53162-.7332-2.82457-1.8847-3.7295-3.32156C3.47957 7.3616 2.99959 5.69806 3 4V2H1c-.265216 0-.51957-.10536-.707107-.29289C.105357 1.51957 0 1.26522 0 1 0 .734784.105357.48043.292893.292893.48043.105357.734784 0 1 0h22c.2652 0 .5196.105357.7071.292893C23.8946.48043 24 .734784 24 1c0 .26522-.1054.51957-.2929.70711C23.5196 1.89464 23.2652 2 23 2h-2v2c.0004 1.69806-.4796 3.3616-1.3845 4.79844-.9049 1.43686-2.1979 2.58836-3.7295 3.32156-.58.278-.886.754-.886 1.18v1.4c0 .426.308.902.886 1.18 1.5316.7332 2.8246 1.8847 3.7295 3.3216C20.5204 20.6384 21.0004 22.3019 21 24v2h2c.2652 0 .5196.1054.7071.2929S24 26.7348 24 27c0 .2652-.1054.5196-.2929.7071S23.2652 28 23 28H1ZM5 2v2c0 1.074.24 2.09.674 3h12.652c.432-.91.674-1.926.674-3V2H5Zm6 12.7c0 1.402-.956 2.472-2.022 2.984-1.19141.5702-2.19718 1.4659-2.9011 2.5835C5.37298 21.3852 4.99964 22.6792 5 24c0 0 1.732-2.598 6-2.96V14.7Zm2 0v6.34c4.268.362 6 2.96 6 2.96.0004-1.3208-.373-2.6148-1.0769-3.7325-.7039-1.1176-1.7097-2.0133-2.9011-2.5835-1.066-.512-2.022-1.58-2.022-2.982V14.7Z"/>
</svg>
