<svg width="26" height="22" viewBox="0 0 26 22" fill="none" xmlns="http://www.w3.org/2000/svg">
<path d="M24.025 4.66718L19.5133 4.44843L19.2508 1.50625C19.1961 0.888277 18.6438 0.456245 17.9985 0.505464L1.81646 1.83437C1.17115 1.88906 0.706306 2.40859 0.755525 3.02109L1.9149 15.9164C1.96959 16.5344 2.5274 16.9664 3.16724 16.9172L3.98755 16.8516L3.8563 19.3563C3.82349 20.0453 4.35943 20.6031 5.0813 20.6414L23.1336 21.5C23.8555 21.5328 24.4516 21.0297 24.4899 20.3406L25.25 5.9414C25.2829 5.25781 24.7415 4.7 24.025 4.66718ZM4.61646 4.95703L4.22818 12.3289L3.27115 13.6797L2.39068 3.94531V3.91797V3.89062C2.44537 3.61718 2.63131 3.39843 2.91568 3.37656L17.1891 2.20625C17.4735 2.18437 17.7196 2.37031 17.7633 2.63828C17.7633 2.64922 17.7797 2.64922 17.7797 2.66015C17.7797 2.66562 17.7961 2.67109 17.7961 2.68203L17.9438 4.3664L5.96724 3.79218C5.24537 3.77031 4.64927 4.27343 4.61646 4.95703V4.95703ZM22.8821 17.9125L18.2446 12.4711L16.1993 14.3469L12.4149 9.92813L5.70474 17.0758L6.27349 6.1875V6.16562C6.32818 5.87031 6.61255 5.65703 6.92427 5.67344L22.8493 6.43906C23.1665 6.45547 23.4125 6.69609 23.418 6.99687C23.418 7.00781 23.4344 7.01328 23.4344 7.02422L22.8821 17.9125V17.9125Z" fill="#2A2238"/>
</svg>
