<svg width="28" height="28" viewBox="0 0 28 28" fill="none" xmlns="http://www.w3.org/2000/svg">
<path d="M14 0C6.26635 0 0 6.26635 0 14C0 21.7337 6.26635 28 14 28C21.7337 28 28 21.7337 28 14C28 6.26635 21.7337 0 14 0ZM15.2788 20.4615C14.2905 21.1792 13.7291 21.2474 12.7077 20.4615V10.7625H15.2788V20.4615ZM13.9933 9.70577C13.2327 9.70577 12.6135 9.12692 12.6135 8.35962C12.6135 7.59231 13.2394 7.02019 13.9933 7.02019C14.7606 7.02019 15.3865 7.59231 15.3865 8.35962C15.3865 9.12692 14.7606 9.70577 13.9933 9.70577Z" fill="#2A2238"/>
</svg>
