<svg width="28" height="28" viewBox="0 0 28 28" fill="none" xmlns="http://www.w3.org/2000/svg">
<path d="M21.2962 17.049C21.801 16.5442 21.801 15.7163 21.2962 15.2115L14.8548 8.79038C14.3635 8.29903 13.5692 8.28557 13.0644 8.75L6.71731 15.0769C6.46154 15.3327 6.33366 15.6625 6.33366 15.999C6.33366 16.3288 6.46154 16.6654 6.71058 16.9144C7.21539 17.4192 8.03654 17.426 8.54808 16.9144L14 11.5433L19.4587 17.0558C19.9635 17.5606 20.7846 17.5606 21.2962 17.049Z" fill="#2A2238"/>
<path d="M28 14C28 6.26635 21.7337 0 14 0C6.26634 0 -1.43051e-06 6.26635 -1.43051e-06 14C-1.43051e-06 21.7337 6.26634 28 14 28C21.7337 28 28 21.7337 28 14ZM5.62692 22.3731C3.38558 20.1385 2.15384 17.1635 2.15384 14C2.15384 10.8365 3.38558 7.86154 5.62692 5.62692C7.86154 3.38558 10.8365 2.15385 14 2.15385C17.1635 2.15385 20.1385 3.38558 22.3731 5.62692C24.6144 7.86154 25.8462 10.8365 25.8462 14C25.8462 17.1635 24.6144 20.1385 22.3731 22.3731C20.1385 24.6144 17.1635 25.8462 14 25.8462C10.8365 25.8462 7.86154 24.6144 5.62692 22.3731Z" fill="#2A2238"/>
</svg>
