<svg width="28" height="28" viewBox="0 0 28 28" fill="none" xmlns="http://www.w3.org/2000/svg">
<path d="M17.049 6.70384C16.5442 6.19904 15.7163 6.19904 15.2115 6.70384L8.79038 13.1452C8.29903 13.6365 8.28557 14.4308 8.75 14.9356L15.0769 21.2827C15.3327 21.5385 15.6625 21.6663 15.999 21.6663C16.3288 21.6663 16.6654 21.5385 16.9144 21.2894C17.4192 20.7846 17.426 19.9635 16.9144 19.4519L11.5433 14L17.0558 8.54134C17.5606 8.03654 17.5606 7.21538 17.049 6.70384Z" fill="#2A2238"/>
<path d="M14 0C6.26635 0 0 6.26635 0 14C0 21.7337 6.26635 28 14 28C21.7337 28 28 21.7337 28 14C28 6.26635 21.7337 0 14 0ZM22.3731 22.3731C20.1385 24.6144 17.1635 25.8462 14 25.8462C10.8365 25.8462 7.86154 24.6144 5.62692 22.3731C3.38558 20.1385 2.15385 17.1635 2.15385 14C2.15385 10.8365 3.38558 7.86154 5.62692 5.62692C7.86154 3.38558 10.8365 2.15385 14 2.15385C17.1635 2.15385 20.1385 3.38558 22.3731 5.62692C24.6144 7.86154 25.8462 10.8365 25.8462 14C25.8462 17.1635 24.6144 20.1385 22.3731 22.3731Z" fill="#2A2238"/>
</svg>
