<svg width="28" height="28" viewBox="0 0 28 28" fill="none" xmlns="http://www.w3.org/2000/svg">
<path d="M14 0C6.26635 0 0 6.26635 0 14C0 21.7337 6.26635 28 14 28C21.7337 28 28 21.7337 28 14C28 6.26635 21.7337 0 14 0ZM17.5471 19.0683L14 15.5212L10.4529 19.0683C10.0356 19.4856 9.34904 19.4856 8.93173 19.0683C8.72308 18.8596 8.61539 18.5837 8.61539 18.3077C8.61539 18.0317 8.72308 17.7558 8.93173 17.5471L12.4788 14L8.93173 10.4529C8.72308 10.2442 8.61539 9.96827 8.61539 9.69231C8.61539 9.41635 8.72308 9.14038 8.93173 8.93173C9.34904 8.51442 10.0356 8.51442 10.4529 8.93173L14 12.4788L17.5471 8.93173C17.9644 8.51442 18.651 8.51442 19.0683 8.93173C19.4856 9.34904 19.4856 10.0356 19.0683 10.4529L15.5212 14L19.0683 17.5471C19.4856 17.9644 19.4856 18.651 19.0683 19.0683C18.651 19.4923 17.9644 19.4923 17.5471 19.0683Z" fill="#2A2238"/>
</svg>
