<svg width="19" height="28" viewBox="0 0 19 28" fill="none" xmlns="http://www.w3.org/2000/svg">
<path fill-rule="evenodd" clip-rule="evenodd" d="M4.91535 3.11111H9.3313C9.39546 3.11111 9.44302 3.17067 9.42882 3.23324L4.51535 24.8889H0.797705C0.576792 24.8889 0.397705 25.068 0.397705 25.2889V27.6C0.397705 27.8209 0.576791 28 0.797705 28H6.16241H6.98594H13.9977C14.2186 28 14.3977 27.8209 14.3977 27.6V25.2889C14.3977 25.068 14.2186 24.8889 13.9977 24.8889H9.58176C9.5176 24.8889 9.47004 24.8293 9.48424 24.7668L14.3977 3.11111H18.1154C18.3363 3.11111 18.5154 2.93202 18.5154 2.71111V0.4C18.5154 0.179085 18.3363 0 18.1154 0H12.7506H11.9271H4.91535C4.69444 0 4.51535 0.179086 4.51535 0.4V2.71111C4.51535 2.93203 4.69444 3.11111 4.91535 3.11111Z" fill="#2A2238"/>
</svg>
