<svg width="28" height="28" viewBox="0 0 28 28" fill="none" xmlns="http://www.w3.org/2000/svg">
<path fill-rule="evenodd" clip-rule="evenodd" d="M26.7273 0C27.4302 0 28 0.569819 28 1.27273V26.7273C28 27.4302 27.4302 28 26.7273 28C26.0244 28 25.4545 27.4302 25.4545 26.7273V1.27273C25.4545 0.569819 26.0244 0 26.7273 0ZM1.27273 1.13791e-06C1.97564 1.06205e-06 2.54545 0.56982 2.54545 1.27273L2.54546 26.7273C2.54546 27.4302 1.97564 28 1.27273 28C0.569821 28 1.13791e-06 27.4302 1.13791e-06 26.7273L0 1.27273C0 0.569821 0.569819 1.13791e-06 1.27273 1.13791e-06ZM11.5405 6.8291C12.2123 4.30965 15.7877 4.30965 16.4595 6.8291L20.3207 21.3084C20.5018 21.9876 20.098 22.685 19.4188 22.8661C18.7397 23.0472 18.0423 22.6435 17.8612 21.9643L16.8404 18.1364H11.1596L10.1388 21.9643C9.95773 22.6435 9.26033 23.0472 8.58116 22.8661C7.90198 22.685 7.49822 21.9876 7.67934 21.3084L11.5405 6.8291ZM11.8384 15.5909H16.1616L14 7.48497L11.8384 15.5909Z" fill="#2A2238"/>
</svg>
