<svg xmlns="http://www.w3.org/2000/svg" fill="none" viewBox="0 0 17 27">
  <path stroke="#2A2238" d="M13.5689 17.3174c-1.5225 3.0611-3.3615 6.1326-4.82242 8.3951-1.49421-2.2692-3.44803-5.3438-5.08201-8.4077-.89598-1.6801-1.69096-3.348-2.26084-4.8718C.830532 10.9006.5 9.55251.5 8.5c0-4.42904 3.31622-8 8-8 4.6838 0 8 3.57096 8 8 0 1.05972-.3047 2.4127-.8336 3.945-.5262 1.5247-1.2623 3.193-2.0975 4.8724Z"/>
  <path stroke="#2A2238" d="M13 8c0 2.4853-2.0147 4.5-4.50003 4.5-2.48528 0-4.5-2.0147-4.5-4.5 0-2.48528 2.01472-4.5 4.5-4.5C10.9853 3.5 13 5.51472 13 8Z"/>
</svg>
