<svg width="25" height="29" viewBox="0 0 25 29" fill="none" xmlns="http://www.w3.org/2000/svg">
<path fill-rule="evenodd" clip-rule="evenodd" d="M12.3488 28.2728C13.277 28.2728 14.1672 27.9041 14.8236 27.2478C15.4799 26.5914 15.8486 25.7012 15.8486 24.773H8.84901C8.84901 25.7012 9.21774 26.5914 9.87408 27.2478C10.5304 27.9041 11.4206 28.2728 12.3488 28.2728ZM14.09 2.1975C14.1144 1.95419 14.0876 1.70845 14.0112 1.47615C13.9348 1.24384 13.8106 1.03012 13.6465 0.848778C13.4825 0.667433 13.2822 0.522485 13.0587 0.423283C12.8352 0.324081 12.5934 0.272827 12.3488 0.272827C12.1043 0.272827 11.8625 0.324081 11.6389 0.423283C11.4154 0.522485 11.2152 0.667433 11.0511 0.848778C10.8871 1.03012 10.7628 1.24384 10.6865 1.47615C10.6101 1.70845 10.5832 1.95419 10.6077 2.1975C8.62978 2.59981 6.85171 3.6733 5.57453 5.23621C4.29735 6.79912 3.59955 8.7554 3.5993 10.7738C3.5993 12.6952 2.72434 21.2732 0.0994873 23.0231H24.5981C21.9733 21.2732 21.0983 12.6952 21.0983 10.7738C21.0983 6.53902 18.0885 3.00421 14.09 2.1975ZM7.1886 1.30866C6.93224 0.983303 6.46067 0.927367 6.13532 1.18372C4.34304 2.5959 3.26166 3.65797 2.51012 4.85579C1.7626 6.04722 1.37382 7.32558 0.878127 9.06756C0.764759 9.46595 0.995821 9.88082 1.39422 9.99419C1.79262 10.1076 2.20748 9.8765 2.32085 9.4781C2.82301 7.71343 3.16322 6.63721 3.78073 5.653C4.39422 4.6752 5.31392 3.74059 7.06366 2.36193C7.38901 2.10558 7.44495 1.63401 7.1886 1.30866ZM18.5637 0.683721C18.2383 0.427367 17.7667 0.483303 17.5104 0.808657C17.254 1.13401 17.31 1.60558 17.6353 1.86193C19.3851 3.24059 20.3048 4.1752 20.9182 5.153C21.5358 6.13721 21.876 7.21343 22.3781 8.9781C22.4915 9.3765 22.9064 9.60756 23.3048 9.49419C23.7032 9.38082 23.9342 8.96595 23.8209 8.56756C23.3252 6.82558 22.9364 5.54722 22.1889 4.35579C21.4373 3.15797 20.3559 2.0959 18.5637 0.683721Z" fill="#2A2238"/>
</svg>
