<svg width="29" height="28" viewBox="0 0 29 28" fill="none" xmlns="http://www.w3.org/2000/svg">
<path d="M8.9326 22.8404H26.3517C23.6953 21.1205 22.8098 12.6897 22.8098 10.8013C22.8098 10.3473 22.7744 9.90184 22.7036 9.46671L8.9326 22.8404ZM20.0684 4.58057C18.8618 3.46059 17.3531 2.69551 15.7171 2.37398C15.7418 2.13484 15.7147 1.89333 15.6374 1.66501C15.5601 1.43669 15.4344 1.22664 15.2683 1.04841C15.1023 0.870178 14.8997 0.727718 14.6735 0.630219C14.4472 0.532719 14.2025 0.482345 13.955 0.482345C13.7075 0.482345 13.4628 0.532719 13.2366 0.630219C13.0104 0.727718 12.8078 0.870178 12.6417 1.04841C12.4757 1.22664 12.35 1.43669 12.2727 1.66501C12.1954 1.89333 12.1682 2.13484 12.1929 2.37398C10.1915 2.76932 8.39231 3.82414 7.0998 5.35987C5.80729 6.8956 5.10091 8.81789 5.10025 10.8013C5.10025 12.3458 4.50698 18.269 2.83696 21.3149L20.0684 4.58057ZM17.4969 24.5603C17.4969 25.4725 17.1238 26.3474 16.4595 26.9925C15.7953 27.6376 14.8944 28 13.955 28C13.0157 28 12.1148 27.6376 11.4505 26.9925C10.7863 26.3474 10.4131 25.4725 10.4131 24.5603H17.4969ZM0.894223 25.6352C0.718091 25.8062 0.619141 26.0382 0.619141 26.2801C0.619141 26.522 0.718091 26.754 0.894223 26.9251C1.07036 27.0961 1.30924 27.1922 1.55833 27.1922C1.80742 27.1922 2.04631 27.0961 2.22244 26.9251L28.3441 1.55705C28.4313 1.47235 28.5005 1.3718 28.5476 1.26114C28.5948 1.15048 28.6191 1.03188 28.6191 0.912097C28.6191 0.792319 28.5948 0.673713 28.5476 0.563053C28.5005 0.452392 28.4313 0.351843 28.3441 0.267147C28.2568 0.182451 28.1533 0.115266 28.0394 0.0694293C27.9254 0.0235921 27.8033 0 27.6799 0C27.5566 0 27.4345 0.0235921 27.3205 0.0694293C27.2066 0.115266 27.1031 0.182451 27.0158 0.267147L0.894223 25.6352Z" fill="#2A2238"/>
</svg>
