<svg width="28" height="28" viewBox="0 0 28 28" fill="none" xmlns="http://www.w3.org/2000/svg">
<path fill-rule="evenodd" clip-rule="evenodd" d="M14 1.78723C7.25508 1.78723 1.78723 7.25508 1.78723 14C1.78723 20.7449 7.25508 26.2128 14 26.2128C20.7449 26.2128 26.2128 20.7449 26.2128 14C26.2128 7.25508 20.7449 1.78723 14 1.78723ZM0 14C0 6.26801 6.26801 0 14 0C21.732 0 28 6.26801 28 14C28 21.732 21.732 28 14 28C6.26801 28 0 21.732 0 14ZM11.617 8.34043C12.1106 8.34043 12.5106 8.74051 12.5106 9.23404V18.766C12.5106 19.2595 12.1106 19.6596 11.617 19.6596C11.1235 19.6596 10.7234 19.2595 10.7234 18.766V9.23404C10.7234 8.74051 11.1235 8.34043 11.617 8.34043ZM16.383 8.34043C16.8765 8.34043 17.2766 8.74051 17.2766 9.23404V18.766C17.2766 19.2595 16.8765 19.6596 16.383 19.6596C15.8894 19.6596 15.4894 19.2595 15.4894 18.766V9.23404C15.4894 8.74051 15.8894 8.34043 16.383 8.34043Z" fill="#2A2238"/>
</svg>
