<svg width="28" height="28" viewBox="0 0 28 28" fill="none" xmlns="http://www.w3.org/2000/svg">
<path d="M13.125 1.7815C10.857 1.94403 8.67891 2.73463 6.83468 4.06478C4.99046 5.39493 3.55286 7.21213 2.68281 9.31296C1.81277 11.4138 1.54462 13.7153 1.90839 15.9599C2.27215 18.2045 3.25348 20.3035 4.7425 22.022L13.125 13.6377V1.7815ZM14.875 1.7815V13.125L26.2185 13.125C26.0076 10.1862 24.7448 7.42189 22.6615 5.33854C20.5781 3.25518 17.8138 1.99236 14.875 1.7815ZM26.2185 14.875L14.3622 14.875L5.97975 23.2575C7.69829 24.746 9.79716 25.7269 12.0415 26.0904C14.2858 26.4539 16.587 26.1856 18.6875 25.3156C20.788 24.4456 22.605 23.0082 23.935 21.1643C25.2651 19.3204 26.0557 17.1427 26.2185 14.875ZM0 14C0 10.287 1.475 6.72601 4.1005 4.1005C6.72601 1.475 10.287 0 14 0C17.713 0 21.274 1.475 23.8995 4.1005C26.525 6.72601 28 10.287 28 14C28 17.713 26.525 21.274 23.8995 23.8995C21.274 26.525 17.713 28 14 28C10.287 28 6.72601 26.525 4.1005 23.8995C1.475 21.274 0 17.713 0 14Z" fill="#2A2238"/>
</svg>
