<svg width="28" height="28" viewBox="0 0 28 28" fill="none" xmlns="http://www.w3.org/2000/svg">
<path fill-rule="evenodd" clip-rule="evenodd" d="M14 1.78723C7.25508 1.78723 1.78723 7.25508 1.78723 14C1.78723 20.7449 7.25508 26.2128 14 26.2128C20.7449 26.2128 26.2128 20.7449 26.2128 14C26.2128 7.25508 20.7449 1.78723 14 1.78723ZM0 14C0 6.26801 6.26801 0 14 0C21.732 0 28 6.26801 28 14C28 21.732 21.732 28 14 28C6.26801 28 0 21.732 0 14ZM11.1954 8.44616C11.4859 8.29066 11.8385 8.3077 12.1127 8.49051L19.2616 13.2565C19.5102 13.4222 19.6596 13.7012 19.6596 14C19.6596 14.2988 19.5102 14.5778 19.2616 14.7435L12.1127 19.5095C11.8385 19.6923 11.4859 19.7093 11.1954 19.5538C10.9048 19.3983 10.7234 19.0955 10.7234 18.766V9.23404C10.7234 8.90448 10.9048 8.60167 11.1954 8.44616ZM12.5106 10.9038V17.0962L17.155 14L12.5106 10.9038Z" fill="#2A2238"/>
</svg>
