<svg width="21" height="29" viewBox="0 0 21 29" fill="none" xmlns="http://www.w3.org/2000/svg">
<path fill-rule="evenodd" clip-rule="evenodd" d="M0.25 3.87369C0.25 0.854416 3.72975 -0.836864 6.10385 1.02851L19.2615 11.3667C20.1346 12.0527 20.6444 13.1015 20.6444 14.2118V14.2853C20.6444 15.3957 20.1346 16.4445 19.2615 17.1305L6.10385 27.4687C3.72974 29.3341 0.25 27.6428 0.25 24.6235V3.87369ZM4.88449 2.58042C3.80535 1.73253 2.22365 2.50129 2.22365 3.87369V24.6235C2.22365 25.9959 3.80535 26.7647 4.88449 25.9168L18.0422 15.5786C18.439 15.2668 18.6707 14.79 18.6707 14.2853V14.2118C18.6707 13.7072 18.439 13.2304 18.0422 12.9186L4.88449 2.58042Z" fill="#2A2238"/>
</svg>
