<svg width="16" height="16" viewBox="0 0 16 16" fill="none" xmlns="http://www.w3.org/2000/svg">
<path d="M10.1721 2.17205C11.5204 2.67457 12.6528 3.62905 13.3762 4.87287C14.0997 6.11669 14.3695 7.57288 14.1397 8.99334C13.9099 10.4138 13.1947 11.7106 12.1159 12.6628C11.0371 13.6151 9.66154 14.1638 8.22354 14.2155C6.78555 14.2672 5.3741 13.8188 4.22971 12.9465C3.08532 12.0742 2.27877 10.8321 1.94751 9.43183C1.61625 8.03155 1.78076 6.55974 2.41302 5.26716C3.04527 3.97458 4.10615 2.94122 5.41489 2.34314L6.0322 3.69395C5.03597 4.14921 4.22842 4.93582 3.74714 5.91974C3.26586 6.90366 3.14064 8.02402 3.3928 9.08992C3.64496 10.1558 4.2589 11.1013 5.13002 11.7653C6.00115 12.4293 7.07555 12.7707 8.17016 12.7313C9.26477 12.6919 10.3119 12.2742 11.133 11.5494C11.9542 10.8246 12.4987 9.8374 12.6736 8.75614C12.8485 7.67487 12.6431 6.56641 12.0924 5.6196C11.5417 4.6728 10.6797 3.94623 9.65339 3.56371L10.1721 2.17205Z" fill="black"/>
<path d="M8 1V8.85627" stroke="black" stroke-width="2"/>
</svg>
