<svg xmlns="http://www.w3.org/2000/svg" fill="none" viewBox="0 0 40 36">
  <path fill="#2A2238" d="M20.5 22c-1.9295 0-3.5-1.57-3.5-3.5s1.5705-3.5 3.5-3.5 3.5 1.57 3.5 3.5-1.5705 3.5-3.5 3.5Zm0-6.5c-1.6545 0-3 1.3455-3 3s1.3455 3 3 3 3-1.3455 3-3-1.3455-3-3-3Z"/>
  <path fill="#2A2238" d="M12.2355.497c2.247 0 4.998 1.455 7.766 3.9335 2.7675-2.4765 5.517-3.93 7.762-3.93.8115 0 1.5495.185 2.193.5495 1.078.611 1.826 1.6715 2.223 3.153.5385 1.9585.4255 4.37-.217 7.04 4.611 1.5405 7.5375 3.971 7.5375 6.7555 0 2.7845-2.9265 5.215-7.538 6.756.6705 2.8865.783 5.363.217 7.0395-.397 1.481-1.1445 2.542-2.2215 3.153-.6445.365-1.23.5515-2.041.5515h-.2085c-2.246 0-4.941-1.455-7.708-3.9305-2.7675 2.478-5.5175 3.932-7.7635 3.932-.8115 0-1.5495-.185-2.193-.5495-1.079-.6125-1.8275-1.6745-2.224-3.157-.595-1.8585-.475-4.3015.217-7.0395C3.426 23.213.5 20.783.5 17.9985c0-2.784 2.926-5.2145 7.536-6.7555-.3435-1.5295-.563-2.9495-.5705-4.2445-.006-1.023.1335-1.9745.3535-2.795.397-1.483 1.145-2.545 2.224-3.157.643-.365 1.381-.5495 2.1925-.5495ZM9.479 10.8055c1.7385-.4775 3.669-.8385 5.7415-1.0585 1.191-1.605 2.4375-3.048 3.693-4.292-2.436-2.173-4.808-3.4585-6.678-3.4585-.5495 0-1.0375.119-1.452.3545-.7165.4065-1.226 1.16-1.5155 2.2405-.429 1.601-.3315 3.765.211 6.214Zm21.0405-.0005c.5425-2.449.64-4.6135.211-6.2145-.289-1.0785-.7985-1.8305-1.5135-2.236C28.802 2.119 28.3125 2 27.7635 2c-1.8685 0-4.239 1.284-6.6745 3.455 1.255 1.244 2.5 2.687 3.69 4.2915 2.0715.22 4.002.581 5.7405 1.0585Zm-13.281-1.2235c.901-.0535 1.8045-.1 2.744-.1.9395 0 1.8775.047 2.7785.1-.904-1.1395-1.832-2.1805-2.7605-3.102-.9285.9215-1.857 1.9625-2.762 3.102ZM20 24.9985c1.3805 0 2.702-.0605 3.959-.171.7595-1.0585 1.494-2.1825 2.186-3.3595.6765-1.1495 1.2885-2.313 1.835-3.4695-.5465-1.1565-1.1585-2.3195-1.8345-3.4685-.6925-1.1775-1.4265-2.301-2.1865-3.3595-1.2565-.1115-2.578-.172-3.959-.172-1.381 0-2.703.0605-3.96.1715-.7605 1.0585-1.4955 2.1825-2.188 3.3595-.676 1.1495-1.288 2.313-1.8345 3.4695.5465 1.1565 1.158 2.3195 1.834 3.4685.6925 1.177 1.427 2.301 2.187 3.3595 1.2575.111 2.58.1715 3.9615.1715Zm8.773-8.7935c.5625-1.3545 1.028-2.6845 1.383-3.9565-1.2765-.351-2.6865-.641-4.214-.8535.514.7635 1.0145 1.555 1.496 2.374.477.8095.9205 1.6235 1.335 2.436Zm-17.5485.0005c.414-.8125.858-1.6265 1.334-2.4365.482-.819.983-1.61 1.4975-2.3735-1.5275.212-2.9375.5025-4.214.8535.355 1.272.8205 2.6015 1.3825 3.9565Zm20.3695 7.104c4.038-1.368 6.406-3.378 6.406-5.311 0-1.933-2.368-3.943-6.406-5.311-.4765 1.7025-1.1345 3.4915-1.96 5.3105.8255 1.8195 1.4835 3.6085 1.96 5.3115ZM8.405 23.309c.476-1.702 1.1335-3.491 1.959-5.3095-.8255-1.819-1.4835-3.6085-1.9595-5.311C4.367 14.0565 2 16.066 2 17.9985c0 1.933 2.3675 3.9425 6.405 5.3105Zm17.537 1.293c1.5275-.212 2.9375-.502 4.214-.8535-.3555-1.272-.821-2.602-1.383-3.957-.4145.8125-.8585 1.6265-1.335 2.4365-.4815.819-.982 1.6105-1.496 2.374Zm-11.8875-.0005c-.514-.7635-1.0145-1.5545-1.4965-2.373-.476-.8095-.9195-1.623-1.3335-2.435-.562 1.354-1.027 2.6835-1.382 3.955 1.276.3505 2.6855.6405 4.212.853ZM12.237 34c1.8695 0 4.2405-1.285 6.676-3.457-1.2565-1.2445-2.5025-2.688-3.694-4.2935-2.0715-.2195-4.001-.5805-5.739-1.058-.542 2.449-.6395 4.613-.211 6.214.289 1.08.799 1.8335 1.515 2.24.414.2355.9035.3545 1.453.3545Zm15.5265-.003c.5495 0 1.038-.119 1.4535-.3545.715-.4055 1.2235-1.1575 1.512-2.2365.429-1.6015.3315-3.7655-.2105-6.214-1.7385.4775-3.6685.8385-5.7405 1.058-1.19 1.605-2.4355 3.048-3.6905 4.2925 2.4355 2.17 4.8065 3.454 6.676 3.4545ZM20 29.5185c.9285-.922 1.8565-1.9635 2.761-3.103-.9005.0535-1.7795.1665-2.7195.1665-.9405 0-1.9035-.113-2.8045-.1665.905 1.14 1.834 2.1815 2.763 3.103ZM12.058.0345001c-.8995 0-1.5425.1689999-2.2615.5764999C8.597 1.2915 7.769 2.4565 7.336 4.074c-.48 1.7935-.4385 4.151.118 6.8405C2.7095 12.593 0 15.161 0 17.9985c0 2.838 2.71 5.4055 7.4545 7.084-.5565 2.6895-.598 5.047-.1175 6.8405.4325 1.6165 1.26 2.7815 2.4605 3.463.72.408 1.585.5815 2.484.5815 2.2435 0 4.8765-1.2675 7.719-3.733 2.842 2.463 5.5195 3.762 7.7625 3.7625.8995 0 1.7205-.2065 2.4405-.6145 1.1985-.6795 2.0255-1.843 2.458-3.4585.4805-1.794.439-4.1515-.1175-6.8405 4.7455-1.679 7.456-4.247 7.456-7.085s-2.71-5.406-7.4555-7.0845c.557-2.69.598-5.0475.1175-6.841-.433-1.6155-1.2605-2.779-2.4595-3.4585C29.483.207 28.662 0 27.763 0c-2.2425 0-4.9195 1.2995-7.762 3.7635C17.158 1.2975 14.468.033 12.224.033l-.166.0015001ZM9.86 10.187c-.231-1.162-.386-2.251-.3945-3.206-.0075-.86.1105-1.6085.285-2.2605.2535-.946.684-1.597 1.2795-1.935.338-.192.75-.322 1.2115-.322 1.5905 0 3.6835 1.089 5.9415 3.017C17.0725 6.617 15.987 7.89 14.95 9.273c-1.7925.2-3.5015.5065-5.09.914Zm11.959-4.7055C24.0765 3.555 26.1745 2.5 27.763 2.5c.462 0 .8685.0975 1.207.2895.5945.337 1.0245.9865 1.2775 1.9305.437 1.409.3805 3.282-.109 5.4665-1.5885-.407-3.297-.714-5.089-.913-1.0365-1.3825-2.121-2.6555-3.2305-3.792Zm-3.4825 3.547c.548-.65 1.1045-1.265 1.664-1.839.5595.574 1.1155 1.189 1.663 1.839-.5595-.02-1.116-.03-1.6635-.03-.5475 0-1.1035.01-1.6635.03Zm-2.024 2.62C17.515 11.549 18.754 11.478 20 11.478c1.2455 0 2.4845.071 3.6865.1705.716 1.0095 1.398 2.063 2.028 3.1345.611 1.039 1.1865 2.1195 1.7115 3.215-.5255 1.096-1.101 2.177-1.712 3.216-.6305 1.072-1.312 2.125-2.028 3.1345-1.2015.0995-2.4405.233-3.686.233-1.2465 0-2.486-.134-3.689-.2335-.7165-1.009-1.3985-2.0625-2.029-3.1345-.611-1.0385-1.186-2.119-1.711-3.215.525-1.096 1.1005-2.177 1.7115-3.216.631-1.0715 1.3135-2.125 2.03-3.134Zm12.3985 3.362c-.2745-.509-.556-1.009-.8415-1.495-.285-.4845-.5835-.971-.8925-1.4545.887.151 1.7425.3315 2.557.54-.2335.783-.509 1.589-.823 2.4095ZM10.464 12.601c.8145-.2085 1.67-.389 2.557-.54-.3095.4835-.608.97-.893 1.454-.2855.486-.567.986-.8415 1.495-.314-.8195-.589-1.6255-.8225-2.409Zm19.7185 5.397c.7075-1.581 1.2935-3.146 1.745-4.663C35.379 14.5945 37.5 16.359 37.5 17.9985s-2.121 3.404-5.5725 4.6635c-.452-1.5175-1.0375-3.083-1.745-4.664ZM8.071 22.6615C4.6205 21.402 2.5 19.6375 2.5 17.9985c0-1.639 2.1205-3.4035 5.5705-4.663.4515 1.5175 1.037 3.0825 1.7445 4.6635-.707 1.5805-1.2925 3.1455-1.744 4.6625Zm18.9055 1.275c.309-.484.608-.9705.8925-1.4545.286-.486.5675-.9865.842-1.4955.314.8205.589 1.627.823 2.4105-.815.2075-1.6705.3885-2.5575.5395Zm-16.512-.5405c.2335-.783.5085-1.5885.822-2.408.274.5085.5555 1.0085.841 1.494.2845.484.583.97.8925 1.454-.8865-.1515-1.7415-.332-2.5555-.54ZM12.237 33.5c-.462 0-.868-.0975-1.2065-.2895-.595-.338-1.0255-.9885-1.2785-1.9345-.4155-1.4225-.3685-3.296.109-5.4665 1.588.407 3.296.714 5.0875.913 1.0375 1.383 2.123 2.6565 3.234 3.794-2.2575 1.9285-4.356 2.984-5.9455 2.9835Zm12.812-6.7765c1.792-.1995 3.5005-.506 5.089-.913.5525 2.37.596 4.259.1085 5.466-.2525.9445-.682 1.594-1.276 1.9305-.339.192-.745.2895-1.2065.2895-1.59 0-3.689-1.055-5.946-2.9805 1.11-1.1365 2.1945-2.4095 3.231-3.7925ZM20 28.8085c-.56-.574-1.117-1.1895-1.665-1.84.56.02 1.117.03 1.665.03.5475 0 1.104-.01 1.6635-.03-.5475.6505-1.104 1.266-1.6635 1.84Z"/>
</svg>
