<svg width="23" height="22" viewBox="0 0 23 22" fill="none" xmlns="http://www.w3.org/2000/svg">
<path d="M6.95241 17.0148C14.0482 21.3683 21.4994 15.3727 17.5031 6.53076" stroke="black"/>
<line y1="-0.5" x2="3.78283" y2="-0.5" transform="matrix(0.934227 -0.35668 0.365475 0.930821 12.7572 6.55698)" stroke="black"/>
<path d="M5.22079 15.7884C0.033059 8.1613 5.99227 0.442177 15.8117 4.91313" stroke="black"/>
<line y1="-0.5" x2="3.28859" y2="-0.5" transform="matrix(0.493116 0.869964 -0.875784 0.482704 14.1526 2.5844)" stroke="black"/>
<path d="M6.95241 17.0148C14.0482 21.3683 21.4994 15.3727 17.5031 6.53076" stroke="black"/>
<path d="M5.91207 16.9365L9.54243 15.6863" stroke="black"/>
<line y1="-0.5" x2="3.75537" y2="-0.5" transform="matrix(-0.595099 -0.803653 0.811519 -0.584326 8.95528 19.5271)" stroke="black"/>
<path d="M5.22079 15.7884C0.033059 8.1613 5.99227 0.442177 15.8117 4.91313" stroke="black"/>
<line y1="-0.5" x2="3.28859" y2="-0.5" transform="matrix(0.493116 0.869964 -0.875784 0.482704 14.1526 2.5844)" stroke="black"/>
</svg>
