<svg width="23" height="25" viewBox="0 0 23 25" fill="none" xmlns="http://www.w3.org/2000/svg">
<path d="M1 1L22 1" stroke="#2A2238" stroke-width="1.5" stroke-linecap="round"/>
<path d="M1 24L22 24" stroke="#2A2238" stroke-width="1.5" stroke-linecap="round"/>
<path d="M3 1C3.44248 4.21952 4.8005 6.69869 9.5 12.5C4.89489 17.9456 3.10708 20.5571 3 23.5" stroke="#2A2238" stroke-width="1.5"/>
<path d="M20.5 1C20.0575 4.21952 18.6995 6.69869 14 12.5C18.6051 17.9456 20.3929 20.5571 20.5 23.5" stroke="#2A2238" stroke-width="1.5"/>
<path d="M12 12C12.6895 12 15.2131 8.12121 14.9855 6.90909C14.7579 5.69697 9.24209 5.69697 9.01447 6.90909C8.78684 8.12121 11.3105 12 12 12Z" fill="#2A2238"/>
<path d="M11.4251 18.7576C12.6891 18.7576 18.3538 23.2576 17.6356 23.2576C16.9174 23.2576 7.05124 23.2576 5.92512 23.2576C4.799 23.2576 10.1611 18.7576 11.4251 18.7576Z" fill="#2A2238"/>
</svg>
