<svg width="22" height="18" viewBox="0 0 22 18" fill="none" xmlns="http://www.w3.org/2000/svg">
<path d="M1 7C1 7 1 16.2929 1 16.697C1 17.101 21 17.101 21 16.697C21 16.2929 21 7 21 7" stroke="#2A2238" stroke-width="1.5" stroke-linecap="round"/>
<path d="M11.75 1C11.75 0.585786 11.4142 0.25 11 0.25C10.5858 0.25 10.25 0.585786 10.25 1L11.75 1ZM10.4697 13.5303C10.7626 13.8232 11.2374 13.8232 11.5303 13.5303L16.3033 8.75736C16.5962 8.46447 16.5962 7.98959 16.3033 7.6967C16.0104 7.40381 15.5355 7.40381 15.2426 7.6967L11 11.9393L6.75736 7.6967C6.46447 7.40381 5.98959 7.40381 5.6967 7.6967C5.40381 7.98959 5.40381 8.46447 5.6967 8.75736L10.4697 13.5303ZM10.25 1L10.25 13L11.75 13L11.75 1L10.25 1Z" fill="#2A2238"/>
</svg>
