<svg width="22" height="18" viewBox="0 0 22 18" fill="none" xmlns="http://www.w3.org/2000/svg">
<path fill-rule="evenodd" clip-rule="evenodd" d="M11 0.25C11.4142 0.25 11.75 0.585786 11.75 1V11.1893L15.2426 7.6967C15.5355 7.40381 16.0104 7.40381 16.3033 7.6967C16.5962 7.98959 16.5962 8.46447 16.3033 8.75736L11.5303 13.5303C11.2374 13.8232 10.7626 13.8232 10.4697 13.5303L5.6967 8.75736C5.40381 8.46447 5.40381 7.98959 5.6967 7.6967C5.98959 7.40381 6.46447 7.40381 6.75736 7.6967L10.25 11.1893V1C10.25 0.585786 10.5858 0.25 11 0.25ZM0.25 16.697V7H1.75V16.0694C1.8002 16.0734 1.85392 16.0774 1.9112 16.0813C2.44197 16.1181 3.21058 16.1493 4.14519 16.1745C6.01104 16.2248 8.50377 16.25 11 16.25C13.4962 16.25 15.989 16.2248 17.8548 16.1745C18.7894 16.1493 19.558 16.1181 20.0888 16.0813C20.1461 16.0774 20.1998 16.0734 20.25 16.0694V7H21.75V16.697C21.75 17.115 21.4382 17.3165 21.3881 17.3484C21.2959 17.4071 21.2082 17.4364 21.1665 17.4495C21.0724 17.4789 20.9705 17.497 20.8873 17.5096C20.71 17.5363 20.4707 17.5585 20.1924 17.5778C19.6295 17.6167 18.8356 17.6486 17.8952 17.674C16.011 17.7247 13.5038 17.75 11 17.75C8.49623 17.75 5.98896 17.7247 4.10481 17.674C3.16442 17.6486 2.37053 17.6167 1.80755 17.5778C1.52927 17.5585 1.29002 17.5363 1.11274 17.5096C1.02951 17.497 0.927552 17.4789 0.833468 17.4495C0.791843 17.4364 0.704093 17.4071 0.611912 17.3484C0.56175 17.3165 0.25 17.115 0.25 16.697Z" fill="#2A2238"/>
</svg>
