<svg width="254" height="188" viewBox="0 0 254 188" fill="none" xmlns="http://www.w3.org/2000/svg">
<path d="M250.622 27.9711C248.314 24.8818 244.776 23.1089 240.92 23.1089H48.9389L46.4574 13.5498C44.4856 5.95124 37.6265 0.64653 29.7758 0.64653H3.7648C2.21876 0.64653 0.963997 1.90129 0.963997 3.44733C0.963997 4.99337 2.21876 6.24813 3.7648 6.24813H29.7758C35.0749 6.24813 39.7047 9.83035 41.0378 14.9586L72.3088 135.379C72.6281 136.614 73.7428 137.477 75.0199 137.477H221.224C222.773 137.477 224.025 136.225 224.025 134.676C224.025 133.127 222.773 131.875 221.224 131.875H77.185L70.4686 106.018H219.751C227.325 106.018 234.114 100.943 236.259 93.6835L252.529 38.6506C253.624 34.9535 252.927 31.0604 250.622 27.9711ZM247.157 37.0625L230.887 92.0954C229.436 96.9968 224.86 100.419 219.748 100.419H69.015L50.3925 28.7133H240.917C242.99 28.7133 244.888 29.6656 246.129 31.3265C247.37 32.9846 247.745 35.074 247.157 37.0625Z" fill="#2A2238"/>
<path d="M100.308 187.353C89.7718 187.353 81.2013 178.78 81.2013 168.246C81.2013 157.713 89.7746 149.139 100.308 149.139C110.845 149.139 119.418 157.713 119.418 168.246C119.418 178.78 110.845 187.353 100.308 187.353ZM100.308 154.738C92.8611 154.738 86.8029 160.796 86.8029 168.244C86.8029 175.691 92.8611 181.749 100.308 181.749C107.756 181.749 113.817 175.691 113.817 168.244C113.817 160.796 107.756 154.738 100.308 154.738Z" fill="#2A2238"/>
<path d="M192.175 187.353C181.638 187.353 173.068 178.78 173.068 168.246C173.068 157.713 181.641 149.139 192.175 149.139C202.714 149.139 211.284 157.713 211.284 168.246C211.284 178.78 202.711 187.353 192.175 187.353ZM192.175 154.738C184.727 154.738 178.669 160.796 178.669 168.244C178.669 175.691 184.727 181.749 192.175 181.749C199.622 181.749 205.683 175.691 205.683 168.244C205.683 160.796 199.622 154.738 192.175 154.738Z" fill="#2A2238"/>
</svg>
