<svg width="21" height="28" viewBox="0 0 21 28" fill="none" xmlns="http://www.w3.org/2000/svg">
<path d="M1 5H14V27H4C2.34315 27 1 25.6569 1 24V5Z" stroke="#2A2238" stroke-width="1.5"/>
<path d="M14 5H20V24C20 25.6569 18.6569 27 17 27H14V5Z" stroke="#2A2238" stroke-width="1.5"/>
<path d="M13 5C13 3.93913 12.5786 2.92172 11.8284 2.17157C11.0783 1.42143 10.0609 1 9 1C7.93913 1 6.92172 1.42143 6.17157 2.17157C5.42143 2.92172 5 3.93913 5 5" stroke="#2A2238" stroke-width="1.5"/>
<path d="M18 5C18 3.93913 17.5786 2.92172 16.8284 2.17157C16.0783 1.42143 15.0609 1 14 1C12.9391 1 11.9217 1.42143 11.1716 2.17157C10.4214 2.92172 10 3.93913 10 5" stroke="#2A2238" stroke-width="1.5"/>
<rect x="4" y="9" width="8" height="5" rx="1" fill="#2A2238"/>
<line x1="16.75" y1="8" x2="16.75" y2="24" stroke="#2A2238" stroke-width="1.5"/>
</svg>
