<svg width="260" height="234" viewBox="0 0 260 234" fill="none" xmlns="http://www.w3.org/2000/svg">
<path d="M133.134 104.18L131.925 92.1931L158.724 97.9684L133.134 104.18Z" fill="#7F5BBE" stroke="#36205B" stroke-width="0.6"/>
<path d="M100.034 129.029L99.0544 119.614L131.343 92.4087L132.555 104.416L100.034 129.029Z" fill="#8A62D0" stroke="#36205B" stroke-width="0.6"/>
<path d="M142.487 118.818L133.352 104.745L159.263 98.4549L142.487 118.818Z" fill="#462C73" stroke="#36205B" stroke-width="0.6"/>
<path d="M106.126 138.644L100.196 129.659L132.794 104.987L142.029 119.216L106.126 138.644Z" fill="#40276B" stroke="#36205B" stroke-width="0.6"/>
<path d="M154.286 124.821L142.93 119.224L159.533 99.0716L154.286 124.821Z" fill="#36205B" stroke="#36205B" stroke-width="0.6"/>
<path d="M115.421 143.154L106.69 139.021L142.464 119.663L153.808 125.254L115.421 143.154Z" fill="#301F4D" stroke="#36205B" stroke-width="0.6"/>
<path d="M50.5804 162.026L50.6272 161.809L50.4173 161.737C34.9483 156.416 22.8048 149.679 14.5329 142.043C6.26257 134.408 1.875 125.889 1.875 116.99C1.875 108.09 6.26178 99.5705 14.5313 91.9369C22.8023 84.3019 34.945 77.5664 50.414 72.2467L50.6239 72.1745L50.5771 71.9576C46.7401 54.1652 46.3699 38.6381 49.492 26.9682C52.1763 16.9423 57.2643 9.76475 64.6 5.60598C68.9855 3.12023 74.0091 1.8555 79.5307 1.8555C93.7002 1.8555 111.527 10.6794 129.841 26.8116L130.006 26.9571L130.172 26.8117C148.486 10.6957 166.306 1.87825 180.459 1.87825C185.981 1.87825 191.001 3.14296 195.39 5.62878C202.72 9.78434 207.811 16.949 210.495 26.9617C213.62 38.6283 213.25 54.1586 209.41 71.9543L209.363 72.1712L209.573 72.2434C225.045 77.5631 237.191 84.2995 245.465 91.9353C253.737 99.5697 258.125 108.09 258.125 116.99C258.125 125.891 253.737 134.411 245.465 142.046C237.191 149.682 225.045 156.419 209.573 161.74L209.363 161.813L209.41 162.029C213.247 179.822 213.617 195.349 210.492 207.016C207.807 217.031 202.723 224.196 195.4 228.352C191.008 230.838 185.984 232.102 180.466 232.102C166.303 232.102 148.476 223.285 130.168 207.175L130.003 207.03L129.838 207.175C111.524 223.304 93.7003 232.125 79.5405 232.125C74.019 232.125 68.9986 230.86 64.6098 228.375C57.2707 224.212 52.1828 217.035 49.4985 207.012C46.3764 195.342 46.7434 179.815 50.5804 162.026ZM62.9094 165.518L62.6548 165.451L62.6006 165.708C59.3761 181.057 59.0078 194.198 61.5767 203.781C63.3486 210.404 66.4301 215.04 70.7755 217.503C73.2661 218.915 76.2188 219.628 79.5405 219.628C90.6655 219.628 105.246 212.159 120.723 198.646L120.924 198.471L120.736 198.282C112.994 190.484 105.436 181.657 98.2431 172.013L98.178 171.925L98.0697 171.914C85.6302 170.563 73.8127 168.414 62.9094 165.518ZM139.267 198.275L139.079 198.465L139.28 198.64C154.754 212.14 169.338 219.602 180.463 219.605C183.785 219.605 186.737 218.892 189.234 217.48L189.234 217.48C193.567 215.024 196.642 210.398 198.41 203.784C200.979 194.195 200.614 181.057 197.39 165.712L197.335 165.454L197.081 165.521C186.168 168.417 174.347 170.566 161.911 171.917L161.802 171.929L161.737 172.016C154.548 181.66 146.999 190.485 139.267 198.275ZM115.601 173.268L115.041 173.241L115.396 173.676C120.12 179.453 124.954 184.845 129.823 189.749L130 189.928L130.178 189.748C135.033 184.848 139.871 179.457 144.591 173.676L144.946 173.241L144.386 173.268C139.544 173.498 134.721 173.615 130 173.615C125.275 173.615 120.45 173.498 115.601 173.268ZM104.931 159.967L104.998 160.061L105.113 160.071C113.229 160.764 121.598 161.115 130 161.115C138.408 161.115 146.768 160.764 154.871 160.074L154.986 160.065L155.053 159.97C159.887 153.191 164.496 146.087 168.76 138.843L168.568 138.73L168.76 138.843C172.885 131.833 176.766 124.517 180.298 117.094L180.35 116.987L180.298 116.88C176.776 109.476 172.898 102.164 168.764 95.1372C164.509 87.9094 159.9 80.8053 155.053 74.0101L154.986 73.916L154.871 73.9062C146.774 73.2165 138.415 72.8652 130 72.8652C121.582 72.8652 113.219 73.2165 105.126 73.9094L105.011 73.9193L104.944 74.0132C100.097 80.7987 95.4813 87.9029 91.2201 95.1404L91.22 95.1405C87.0888 102.164 83.2113 109.476 79.6852 116.889L79.6341 116.997L79.6852 117.104C83.2048 124.501 87.0823 131.814 91.2167 138.846L91.2168 138.847C95.4585 146.052 100.068 153.152 104.931 159.967ZM187.078 132.429L186.877 131.925L186.624 132.406C184.332 136.777 181.955 141.063 179.529 145.181L179.529 145.181C177.084 149.344 174.483 153.52 171.781 157.637L171.473 158.107L172.028 158.022C179.752 156.831 187.141 155.305 194.06 153.466L194.307 153.401L194.236 153.155C192.316 146.487 189.911 139.534 187.078 132.429ZM65.7478 153.152L65.6769 153.397L65.9239 153.463C72.8459 155.298 80.2321 156.828 87.9458 158.018L88.5013 158.104L88.193 157.634C85.4749 153.49 82.8738 149.311 80.445 145.181C78.0258 141.067 75.6455 136.787 73.3562 132.416L73.1039 131.934L72.9025 132.439C70.082 139.512 67.6808 146.458 65.7478 153.152ZM194.174 116.887L194.128 116.99L194.174 117.093C199.136 128.104 203.178 138.987 206.213 149.485L206.286 149.739L206.536 149.651C218.582 145.414 228.342 140.199 235.095 134.577C241.842 128.961 245.625 122.907 245.625 116.99C245.625 111.074 241.842 105.02 235.095 99.4033C228.342 93.7819 218.582 88.567 206.536 84.3292L206.286 84.2413L206.213 84.4957C203.184 94.9936 199.139 105.876 194.174 116.887ZM53.7742 84.5021L53.7007 84.2478L53.451 84.3357C41.4097 88.5719 31.6533 93.786 24.902 99.4066C18.1569 105.022 14.375 111.075 14.375 116.99C14.375 122.907 18.1569 128.961 24.9028 134.577C31.6549 140.198 41.413 145.412 53.4576 149.648L53.7073 149.736L53.7807 149.482C56.8126 138.98 60.8546 128.097 65.8097 117.099L65.856 116.997L65.8097 116.894C60.8513 105.893 56.8093 95.0099 53.7742 84.5021ZM65.9206 80.5176L65.6736 80.5832L65.7446 80.8287C67.6776 87.5127 70.0788 94.4625 72.9025 101.548L73.1037 102.053L73.3561 101.571C75.6423 97.2133 78.0194 92.9301 80.4482 88.803L80.4482 88.803C82.8901 84.6499 85.4911 80.4739 88.2027 76.3465L88.5113 75.8767L87.9557 75.9622C80.2321 77.1497 72.8459 78.6789 65.9206 80.5176ZM172.035 75.9589L171.48 75.8735L171.787 76.343C174.506 80.4901 177.107 84.6661 179.535 88.8028L179.536 88.8031C181.958 92.9172 184.338 97.2004 186.631 101.571L186.883 102.052L187.084 101.548C189.911 94.4658 192.313 87.516 194.246 80.8254L194.317 80.5799L194.07 80.5144C187.138 78.6757 179.752 77.1464 172.035 75.9589ZM61.5703 30.2025L61.5702 30.2027C59.0046 39.7952 59.3695 52.9335 62.5973 68.2755L62.6516 68.5332L62.9061 68.4656C73.8127 65.5702 85.6367 63.4176 98.0795 62.0668L98.1877 62.055L98.2529 61.9678C105.452 52.3206 113.01 43.4993 120.743 35.7084L120.93 35.5192L120.73 35.3439C105.249 21.8242 90.659 14.3555 79.5307 14.3555C76.2094 14.3555 73.2598 15.0653 70.7722 16.481C66.4301 18.9433 63.3454 23.5792 61.5703 30.2025ZM161.741 61.9645L161.806 62.0518L161.914 62.0635C174.35 63.4143 186.171 65.5637 197.084 68.4591L197.339 68.5267L197.393 68.269C200.621 52.9239 200.989 39.7822 198.417 30.1927C196.645 23.5825 193.567 18.9562 189.231 16.5005L189.108 16.718L189.231 16.5005C186.737 15.0882 183.784 14.375 180.459 14.375C169.338 14.375 154.761 21.8405 139.283 35.3439L139.083 35.5191L139.27 35.7083C146.996 43.496 154.548 52.3205 161.741 61.9645ZM144.389 60.7127L144.95 60.7394L144.594 60.3048C139.877 54.5336 135.042 49.1456 130.184 44.2386L130.007 44.0593L129.829 44.2385C124.958 49.1521 120.126 54.5401 115.409 60.3047L115.053 60.7394L115.614 60.7127C120.456 60.4822 125.279 60.3652 130 60.3652C134.721 60.3652 139.544 60.4822 144.389 60.7127Z" fill="#2A2238" stroke="black" stroke-width="0.5"/>
<mask id="path-8-inside-1_14_311" fill="white">
<path d="M79.5308 3.2305C94.1363 3.2305 112.018 12.688 130.01 28.7983C147.999 12.701 165.87 3.25325 180.463 3.25325C185.738 3.25325 190.534 4.45575 194.717 6.825C201.724 10.7965 206.586 17.6897 209.167 27.3195C212.667 40.0498 211.932 55.7245 207.756 73.0795C237.728 83.0927 256.75 98.891 256.75 116.99C256.75 135.09 237.728 150.888 207.753 160.904C212.111 179.667 212.843 195.764 209.164 206.661C206.583 216.288 201.724 223.184 194.724 227.156C190.535 229.528 186.729 230.74 181.457 230.74C181.454 230.74 180.105 230.74 180.102 230.74C165.503 230.74 147.986 221.283 130 205.192C112.011 221.299 94.1362 230.75 79.5372 230.75C74.2625 230.75 69.4655 229.548 65.2828 227.178C58.2693 223.197 53.404 216.294 50.8268 206.658C46.9593 194.577 47.7393 178.698 52.2373 160.901C22.269 150.885 3.25 135.09 3.25 116.99C3.25 98.8943 22.269 83.096 52.234 73.0795C50.0013 63.1377 48.5745 53.9077 48.5257 45.4902C48.4867 38.8407 49.3935 32.656 50.8235 27.3227C53.404 17.6832 58.266 10.7803 65.2795 6.80225C69.459 4.42975 74.256 3.2305 79.5308 3.2305ZM61.6135 70.2357C72.9138 67.132 85.462 64.7855 98.9333 63.3555C106.675 52.923 114.777 43.5435 122.938 35.4575C107.104 21.333 91.6858 12.9773 79.5308 12.9773C75.959 12.9773 72.787 13.7508 70.0928 15.2815C65.4355 17.9238 62.1237 22.8215 60.242 29.8448C57.4535 40.2513 58.0873 54.3172 61.6135 70.2357ZM198.377 70.2325C201.903 54.314 202.537 40.2447 199.748 29.8382C197.87 22.828 194.558 17.94 189.91 15.3043C187.213 13.7735 184.031 13 180.463 13C168.318 13 152.909 21.346 137.079 35.4575C145.236 43.5435 153.328 52.923 161.063 63.3522C174.528 64.7822 187.077 67.1287 198.377 70.2325ZM112.05 62.2798C117.907 61.932 123.779 61.6297 129.886 61.6297C135.993 61.6297 142.09 61.9353 147.947 62.2798C142.071 54.873 136.039 48.1065 130.003 42.1167C123.968 48.1065 117.933 54.873 112.05 62.2798ZM130 162.49C138.973 162.49 147.563 162.097 155.733 161.379C160.67 154.499 165.445 147.193 169.943 139.542C174.34 132.07 178.318 124.508 181.87 116.99C178.318 109.473 174.34 101.913 169.946 94.445C165.445 86.7912 160.673 79.4885 155.733 72.6082C147.566 71.8835 138.977 71.4902 130 71.4902C121.023 71.4902 112.431 71.8835 104.26 72.605C99.3168 79.4853 94.5393 86.7912 90.038 94.4417C85.644 101.913 81.666 109.476 78.1137 116.993C81.666 124.511 85.6407 132.07 90.0347 139.539C94.536 147.189 99.3103 154.495 104.25 161.376C112.424 162.097 121.02 162.49 130 162.49ZM187.025 105.332C190.681 96.5282 193.707 87.8832 196.014 79.6152C187.717 77.3337 178.552 75.4487 168.623 74.0675C171.964 79.0302 175.217 84.175 178.347 89.4985C181.448 94.7602 184.33 100.051 187.025 105.332ZM72.9593 105.336C75.6503 100.055 78.5362 94.7635 81.6302 89.4985C84.7632 84.175 88.0197 79.0335 91.364 74.0708C81.4352 75.4488 72.2702 77.337 63.973 79.6185C66.2805 87.8865 69.3063 96.5283 72.9593 105.336ZM205.361 151.512C231.608 142.62 247 129.555 247 116.99C247 104.426 231.608 91.3608 205.361 82.4688C202.264 93.535 197.987 105.164 192.621 116.987C197.987 128.814 202.264 140.442 205.361 151.512ZM54.6325 151.508C57.7265 140.445 62.0003 128.817 67.366 116.997C62.0003 105.173 57.7232 93.5415 54.6292 82.4753C28.3855 91.3673 13 104.429 13 116.99C13 129.555 28.3888 142.616 54.6325 151.508ZM168.623 159.913C178.552 158.535 187.717 156.65 196.014 154.365C193.703 146.097 190.678 137.452 187.025 128.645C184.33 133.926 181.444 139.217 178.347 144.482C175.217 149.806 171.964 154.95 168.623 159.913ZM91.3542 159.91C88.0132 154.947 84.76 149.806 81.627 144.485C78.533 139.224 75.6503 133.936 72.9593 128.658C69.3063 137.459 66.2837 146.101 63.9762 154.365C72.2703 156.643 81.432 158.529 91.3542 159.91ZM79.5405 221C91.6923 221 107.104 212.647 122.935 198.529C114.767 190.44 106.668 181.057 98.9235 170.622C85.4587 169.195 72.917 166.849 61.62 163.745C58.097 179.663 57.4633 193.729 60.2485 204.136C62.127 211.156 65.442 216.054 70.096 218.696C72.787 220.227 75.9688 221 79.5405 221ZM180.463 220.981C184.035 220.981 187.21 220.207 189.91 218.676C194.558 216.041 197.863 211.153 199.738 204.139C202.527 193.729 201.893 179.663 198.37 163.748C187.07 166.852 174.525 169.198 161.057 170.625C153.322 181.057 145.226 190.437 137.069 198.526C152.899 212.631 168.311 220.977 180.463 220.981ZM130 191.87C136.035 185.877 142.067 179.108 147.947 171.701C142.093 172.049 136.38 172.783 130.27 172.783C124.156 172.783 117.897 172.049 112.04 171.701C117.923 179.111 123.961 185.881 130 191.87ZM78.377 0.224251C72.5302 0.224251 68.3507 1.32275 63.6772 3.9715C55.8805 8.39475 50.4985 15.9673 47.684 26.481C44.564 38.1388 44.8338 53.4625 48.451 70.9443C17.6117 81.8545 0 98.5465 0 116.99C0 135.437 17.615 152.126 48.4543 163.036C44.837 180.518 44.5672 195.842 47.6905 207.499C50.5017 218.007 55.8805 225.579 63.6837 230.009C68.3637 232.661 73.9862 233.789 79.8298 233.789C94.4125 233.789 111.527 225.55 130.003 209.524C148.476 225.534 165.88 233.977 180.46 233.981C186.306 233.981 191.643 232.638 196.323 229.986C204.113 225.57 209.488 218.007 212.3 207.506C215.423 195.845 215.153 180.521 211.536 163.043C242.382 152.129 260 135.437 260 116.99C260 98.5433 242.385 81.8512 211.539 70.941C215.16 53.456 215.426 38.1322 212.303 26.4745C209.488 15.9737 204.11 8.411 196.316 3.99425C191.64 1.3455 186.303 0 180.46 0C165.883 0 148.483 8.44675 130.007 24.4627C111.527 8.43375 94.042 0.2145 79.456 0.2145L78.377 0.224251ZM64.09 66.2155C62.5885 58.6625 61.581 51.584 61.5257 45.3765C61.477 39.7865 62.244 34.9213 63.3783 30.6833C65.026 24.5343 67.8242 20.3028 71.695 18.1058C73.892 16.8578 76.57 16.0128 79.5697 16.0128C89.908 16.0128 103.513 23.0913 118.19 35.6233C110.971 43.0105 103.915 51.285 97.175 60.2745C85.5237 61.5745 74.4152 63.5667 64.09 66.2155ZM141.824 35.6297C156.497 23.1075 170.134 16.25 180.46 16.25C183.463 16.25 186.105 16.8838 188.305 18.1318C192.169 20.3223 194.964 24.544 196.609 30.68C199.449 39.8385 199.082 52.013 195.9 66.2122C185.575 63.5667 174.47 61.5712 162.822 60.2777C156.084 51.2915 149.035 43.017 141.824 35.6297ZM119.187 58.6852C122.749 54.4602 126.367 50.4628 130.003 46.7318C133.64 50.4628 137.254 54.4602 140.813 58.6852C137.176 58.5552 133.559 58.4902 130 58.4902C126.441 58.4902 122.827 58.5552 119.187 58.6852ZM106.031 75.7152C113.847 75.0685 121.901 74.607 130 74.607C138.096 74.607 146.149 75.0685 153.962 75.7152C158.616 82.277 163.049 89.1248 167.144 96.0895C171.116 102.843 174.856 109.866 178.269 116.987C174.853 124.111 171.113 131.138 167.141 137.891C163.043 144.859 158.613 151.704 153.959 158.265C146.149 158.912 138.096 159.78 130 159.78C121.898 159.78 113.841 158.909 106.022 158.262C101.364 151.704 96.9313 144.856 92.833 137.888C88.8615 131.138 85.124 124.114 81.7115 116.99C85.124 109.866 88.8648 102.84 92.8363 96.0863C96.9378 89.1215 101.374 82.2737 106.031 75.7152ZM186.622 97.5682C184.837 94.2597 183.007 91.0098 181.152 87.8508C179.299 84.7015 177.359 81.5392 175.35 78.3965C181.116 79.378 186.677 80.5513 191.971 81.9065C190.453 86.996 188.663 92.235 186.622 97.5682ZM68.016 81.9065C73.3102 80.5513 78.871 79.378 84.6365 78.3965C82.6247 81.5392 80.6845 84.7015 78.832 87.8475C76.9763 91.0065 75.1465 94.2565 73.3623 97.565C71.3213 92.2382 69.5337 86.9993 68.016 81.9065ZM196.186 116.987C200.785 106.711 204.594 96.538 207.529 86.6775C229.963 94.8642 243.75 106.334 243.75 116.99C243.75 127.647 229.963 139.116 207.529 147.303C204.591 137.439 200.785 127.264 196.186 116.987ZM52.4615 147.3C30.0333 139.113 16.25 127.644 16.25 116.99C16.25 106.337 30.0333 94.8675 52.4583 86.6807C55.393 96.5445 59.1987 106.717 63.7975 116.993C59.202 127.267 55.3963 137.439 52.4615 147.3ZM175.347 155.587C177.356 152.441 179.299 149.279 181.148 146.133C183.007 142.974 184.837 139.721 186.622 136.412C188.663 141.746 190.45 146.988 191.971 152.081C186.674 153.429 181.113 154.606 175.347 155.587ZM68.0193 152.074C69.537 146.985 71.3245 141.749 73.3623 136.422C75.1433 139.727 76.973 142.977 78.8288 146.133C80.678 149.279 82.6183 152.438 84.63 155.584C78.8678 154.599 73.3103 153.426 68.0193 152.074ZM79.5405 217.75C76.5375 217.75 73.8985 217.116 71.6982 215.868C67.8307 213.671 65.0325 209.443 63.388 203.294C60.6873 194.048 60.9927 181.87 64.0965 167.762C74.4185 170.407 85.5205 172.403 97.1652 173.696C103.909 182.686 110.965 190.964 118.186 198.357C103.513 210.893 89.8723 217.753 79.5405 217.75ZM162.818 173.703C174.466 172.406 185.572 170.414 195.897 167.768C199.488 183.173 199.771 195.452 196.602 203.297C194.961 209.437 192.169 213.658 188.308 215.846C186.105 217.094 183.466 217.727 180.466 217.727V220.977L180.463 217.727C170.128 217.727 156.488 210.87 141.817 198.354C149.032 190.967 156.081 182.692 162.818 173.703ZM130 187.255C126.36 183.524 122.739 179.524 119.177 175.295C122.817 175.425 126.438 175.49 130 175.49C133.559 175.49 137.176 175.425 140.813 175.295C137.254 179.524 133.637 183.524 130 187.255Z"/>
</mask>
<path d="M79.5308 3.2305C94.1363 3.2305 112.018 12.688 130.01 28.7983C147.999 12.701 165.87 3.25325 180.463 3.25325C185.738 3.25325 190.534 4.45575 194.717 6.825C201.724 10.7965 206.586 17.6897 209.167 27.3195C212.667 40.0498 211.932 55.7245 207.756 73.0795C237.728 83.0927 256.75 98.891 256.75 116.99C256.75 135.09 237.728 150.888 207.753 160.904C212.111 179.667 212.843 195.764 209.164 206.661C206.583 216.288 201.724 223.184 194.724 227.156C190.535 229.528 186.729 230.74 181.457 230.74C181.454 230.74 180.105 230.74 180.102 230.74C165.503 230.74 147.986 221.283 130 205.192C112.011 221.299 94.1362 230.75 79.5372 230.75C74.2625 230.75 69.4655 229.548 65.2828 227.178C58.2693 223.197 53.404 216.294 50.8268 206.658C46.9593 194.577 47.7393 178.698 52.2373 160.901C22.269 150.885 3.25 135.09 3.25 116.99C3.25 98.8943 22.269 83.096 52.234 73.0795C50.0013 63.1377 48.5745 53.9077 48.5257 45.4902C48.4867 38.8407 49.3935 32.656 50.8235 27.3227C53.404 17.6832 58.266 10.7803 65.2795 6.80225C69.459 4.42975 74.256 3.2305 79.5308 3.2305ZM61.6135 70.2357C72.9138 67.132 85.462 64.7855 98.9333 63.3555C106.675 52.923 114.777 43.5435 122.938 35.4575C107.104 21.333 91.6858 12.9773 79.5308 12.9773C75.959 12.9773 72.787 13.7508 70.0928 15.2815C65.4355 17.9238 62.1237 22.8215 60.242 29.8448C57.4535 40.2513 58.0873 54.3172 61.6135 70.2357ZM198.377 70.2325C201.903 54.314 202.537 40.2447 199.748 29.8382C197.87 22.828 194.558 17.94 189.91 15.3043C187.213 13.7735 184.031 13 180.463 13C168.318 13 152.909 21.346 137.079 35.4575C145.236 43.5435 153.328 52.923 161.063 63.3522C174.528 64.7822 187.077 67.1287 198.377 70.2325ZM112.05 62.2798C117.907 61.932 123.779 61.6297 129.886 61.6297C135.993 61.6297 142.09 61.9353 147.947 62.2798C142.071 54.873 136.039 48.1065 130.003 42.1167C123.968 48.1065 117.933 54.873 112.05 62.2798ZM130 162.49C138.973 162.49 147.563 162.097 155.733 161.379C160.67 154.499 165.445 147.193 169.943 139.542C174.34 132.07 178.318 124.508 181.87 116.99C178.318 109.473 174.34 101.913 169.946 94.445C165.445 86.7912 160.673 79.4885 155.733 72.6082C147.566 71.8835 138.977 71.4902 130 71.4902C121.023 71.4902 112.431 71.8835 104.26 72.605C99.3168 79.4853 94.5393 86.7912 90.038 94.4417C85.644 101.913 81.666 109.476 78.1137 116.993C81.666 124.511 85.6407 132.07 90.0347 139.539C94.536 147.189 99.3103 154.495 104.25 161.376C112.424 162.097 121.02 162.49 130 162.49ZM187.025 105.332C190.681 96.5282 193.707 87.8832 196.014 79.6152C187.717 77.3337 178.552 75.4487 168.623 74.0675C171.964 79.0302 175.217 84.175 178.347 89.4985C181.448 94.7602 184.33 100.051 187.025 105.332ZM72.9593 105.336C75.6503 100.055 78.5362 94.7635 81.6302 89.4985C84.7632 84.175 88.0197 79.0335 91.364 74.0708C81.4352 75.4488 72.2702 77.337 63.973 79.6185C66.2805 87.8865 69.3063 96.5283 72.9593 105.336ZM205.361 151.512C231.608 142.62 247 129.555 247 116.99C247 104.426 231.608 91.3608 205.361 82.4688C202.264 93.535 197.987 105.164 192.621 116.987C197.987 128.814 202.264 140.442 205.361 151.512ZM54.6325 151.508C57.7265 140.445 62.0003 128.817 67.366 116.997C62.0003 105.173 57.7232 93.5415 54.6292 82.4753C28.3855 91.3673 13 104.429 13 116.99C13 129.555 28.3888 142.616 54.6325 151.508ZM168.623 159.913C178.552 158.535 187.717 156.65 196.014 154.365C193.703 146.097 190.678 137.452 187.025 128.645C184.33 133.926 181.444 139.217 178.347 144.482C175.217 149.806 171.964 154.95 168.623 159.913ZM91.3542 159.91C88.0132 154.947 84.76 149.806 81.627 144.485C78.533 139.224 75.6503 133.936 72.9593 128.658C69.3063 137.459 66.2837 146.101 63.9762 154.365C72.2703 156.643 81.432 158.529 91.3542 159.91ZM79.5405 221C91.6923 221 107.104 212.647 122.935 198.529C114.767 190.44 106.668 181.057 98.9235 170.622C85.4587 169.195 72.917 166.849 61.62 163.745C58.097 179.663 57.4633 193.729 60.2485 204.136C62.127 211.156 65.442 216.054 70.096 218.696C72.787 220.227 75.9688 221 79.5405 221ZM180.463 220.981C184.035 220.981 187.21 220.207 189.91 218.676C194.558 216.041 197.863 211.153 199.738 204.139C202.527 193.729 201.893 179.663 198.37 163.748C187.07 166.852 174.525 169.198 161.057 170.625C153.322 181.057 145.226 190.437 137.069 198.526C152.899 212.631 168.311 220.977 180.463 220.981ZM130 191.87C136.035 185.877 142.067 179.108 147.947 171.701C142.093 172.049 136.38 172.783 130.27 172.783C124.156 172.783 117.897 172.049 112.04 171.701C117.923 179.111 123.961 185.881 130 191.87ZM78.377 0.224251C72.5302 0.224251 68.3507 1.32275 63.6772 3.9715C55.8805 8.39475 50.4985 15.9673 47.684 26.481C44.564 38.1388 44.8338 53.4625 48.451 70.9443C17.6117 81.8545 0 98.5465 0 116.99C0 135.437 17.615 152.126 48.4543 163.036C44.837 180.518 44.5672 195.842 47.6905 207.499C50.5017 218.007 55.8805 225.579 63.6837 230.009C68.3637 232.661 73.9862 233.789 79.8298 233.789C94.4125 233.789 111.527 225.55 130.003 209.524C148.476 225.534 165.88 233.977 180.46 233.981C186.306 233.981 191.643 232.638 196.323 229.986C204.113 225.57 209.488 218.007 212.3 207.506C215.423 195.845 215.153 180.521 211.536 163.043C242.382 152.129 260 135.437 260 116.99C260 98.5433 242.385 81.8512 211.539 70.941C215.16 53.456 215.426 38.1322 212.303 26.4745C209.488 15.9737 204.11 8.411 196.316 3.99425C191.64 1.3455 186.303 0 180.46 0C165.883 0 148.483 8.44675 130.007 24.4627C111.527 8.43375 94.042 0.2145 79.456 0.2145L78.377 0.224251ZM64.09 66.2155C62.5885 58.6625 61.581 51.584 61.5257 45.3765C61.477 39.7865 62.244 34.9213 63.3783 30.6833C65.026 24.5343 67.8242 20.3028 71.695 18.1058C73.892 16.8578 76.57 16.0128 79.5697 16.0128C89.908 16.0128 103.513 23.0913 118.19 35.6233C110.971 43.0105 103.915 51.285 97.175 60.2745C85.5237 61.5745 74.4152 63.5667 64.09 66.2155ZM141.824 35.6297C156.497 23.1075 170.134 16.25 180.46 16.25C183.463 16.25 186.105 16.8838 188.305 18.1318C192.169 20.3223 194.964 24.544 196.609 30.68C199.449 39.8385 199.082 52.013 195.9 66.2122C185.575 63.5667 174.47 61.5712 162.822 60.2777C156.084 51.2915 149.035 43.017 141.824 35.6297ZM119.187 58.6852C122.749 54.4602 126.367 50.4628 130.003 46.7318C133.64 50.4628 137.254 54.4602 140.813 58.6852C137.176 58.5552 133.559 58.4902 130 58.4902C126.441 58.4902 122.827 58.5552 119.187 58.6852ZM106.031 75.7152C113.847 75.0685 121.901 74.607 130 74.607C138.096 74.607 146.149 75.0685 153.962 75.7152C158.616 82.277 163.049 89.1248 167.144 96.0895C171.116 102.843 174.856 109.866 178.269 116.987C174.853 124.111 171.113 131.138 167.141 137.891C163.043 144.859 158.613 151.704 153.959 158.265C146.149 158.912 138.096 159.78 130 159.78C121.898 159.78 113.841 158.909 106.022 158.262C101.364 151.704 96.9313 144.856 92.833 137.888C88.8615 131.138 85.124 124.114 81.7115 116.99C85.124 109.866 88.8648 102.84 92.8363 96.0863C96.9378 89.1215 101.374 82.2737 106.031 75.7152ZM186.622 97.5682C184.837 94.2597 183.007 91.0098 181.152 87.8508C179.299 84.7015 177.359 81.5392 175.35 78.3965C181.116 79.378 186.677 80.5513 191.971 81.9065C190.453 86.996 188.663 92.235 186.622 97.5682ZM68.016 81.9065C73.3102 80.5513 78.871 79.378 84.6365 78.3965C82.6247 81.5392 80.6845 84.7015 78.832 87.8475C76.9763 91.0065 75.1465 94.2565 73.3623 97.565C71.3213 92.2382 69.5337 86.9993 68.016 81.9065ZM196.186 116.987C200.785 106.711 204.594 96.538 207.529 86.6775C229.963 94.8642 243.75 106.334 243.75 116.99C243.75 127.647 229.963 139.116 207.529 147.303C204.591 137.439 200.785 127.264 196.186 116.987ZM52.4615 147.3C30.0333 139.113 16.25 127.644 16.25 116.99C16.25 106.337 30.0333 94.8675 52.4583 86.6807C55.393 96.5445 59.1987 106.717 63.7975 116.993C59.202 127.267 55.3963 137.439 52.4615 147.3ZM175.347 155.587C177.356 152.441 179.299 149.279 181.148 146.133C183.007 142.974 184.837 139.721 186.622 136.412C188.663 141.746 190.45 146.988 191.971 152.081C186.674 153.429 181.113 154.606 175.347 155.587ZM68.0193 152.074C69.537 146.985 71.3245 141.749 73.3623 136.422C75.1433 139.727 76.973 142.977 78.8288 146.133C80.678 149.279 82.6183 152.438 84.63 155.584C78.8678 154.599 73.3103 153.426 68.0193 152.074ZM79.5405 217.75C76.5375 217.75 73.8985 217.116 71.6982 215.868C67.8307 213.671 65.0325 209.443 63.388 203.294C60.6873 194.048 60.9927 181.87 64.0965 167.762C74.4185 170.407 85.5205 172.403 97.1652 173.696C103.909 182.686 110.965 190.964 118.186 198.357C103.513 210.893 89.8723 217.753 79.5405 217.75ZM162.818 173.703C174.466 172.406 185.572 170.414 195.897 167.768C199.488 183.173 199.771 195.452 196.602 203.297C194.961 209.437 192.169 213.658 188.308 215.846C186.105 217.094 183.466 217.727 180.466 217.727V220.977L180.463 217.727C170.128 217.727 156.488 210.87 141.817 198.354C149.032 190.967 156.081 182.692 162.818 173.703ZM130 187.255C126.36 183.524 122.739 179.524 119.177 175.295C122.817 175.425 126.438 175.49 130 175.49C133.559 175.49 137.176 175.425 140.813 175.295C137.254 179.524 133.637 183.524 130 187.255Z" fill="#8A62D0" stroke="black" mask="url(#path-8-inside-1_14_311)"/>
</svg>
