<svg xmlns="http://www.w3.org/2000/svg" fill="none" viewBox="0 0 28 23">
  <path stroke="#2A2238" stroke-width="1.5" d="M19.0909 3.54545V3.5c0-1.38071-1.1193-2.5-2.5-2.5h-5.1818c-1.3808 0-2.50004 1.11929-2.50004 2.5v.04545"/>
  <rect width="26.5" height="17.5909" x=".75" y="4.29547" stroke="#2A2238" stroke-width="1.5" rx="2.25"/>
  <path stroke="#2A2238" stroke-width="1.5" d="M20.4773 4.01135V22.1728M7.20459 3.62216V22.179"/>
  <rect width="7.63636" height="3.81818" x="10.1819" y="13.7273" fill="#2A2238" rx=".6"/>
  <path fill="#2A2238" d="M21.6364 2.8727c0-.33137.2686-.59999.6-.59999h1.3454c.3314 0 .6.26862.6.6v.67272h-2.5454V2.8727Zm-17.81816 0c0-.33137.26863-.59999.6-.59999h1.34545c.33137 0 .6.26862.6.6v.67272H3.81824V2.8727Z"/>
  <path fill="#2A2238" d="M3.81824 2.8727c0-.33137.26863-.59999.6-.59999h1.34545c.33137 0 .6.26862.6.6v.67272H3.81824V2.8727Z"/>
</svg>
