<svg width="17" height="16" viewBox="0 0 17 16" fill="none" xmlns="http://www.w3.org/2000/svg">
<path d="M0 10C0 9.44772 0.447715 9 1 9H7C7.55228 9 8 9.44772 8 10V15C8 15.5523 7.55228 16 7 16H1C0.447715 16 0 15.5523 0 15V10Z" fill="#2A2238"/>
<path d="M9 1C9 0.447715 9.44772 0 10 0H16C16.5523 0 17 0.447715 17 1V6C17 6.55228 16.5523 7 16 7H10C9.44772 7 9 6.55228 9 6V1Z" fill="#2A2238"/>
<path d="M0 1C0 0.447715 0.447715 0 1 0H7C7.55228 0 8 0.447715 8 1V6C8 6.55228 7.55228 7 7 7H1C0.447715 7 0 6.55228 0 6V1Z" fill="#2A2238"/>
<path fill-rule="evenodd" clip-rule="evenodd" d="M12.75 9C13.1642 9 13.5 9.33579 13.5 9.75V11.25H15.5C15.9142 11.25 16.25 11.5858 16.25 12C16.25 12.4142 15.9142 12.75 15.5 12.75H13.5V14.25C13.5 14.6642 13.1642 15 12.75 15C12.3358 15 12 14.6642 12 14.25V12.75H10C9.58579 12.75 9.25 12.4142 9.25 12C9.25 11.5858 9.58579 11.25 10 11.25H12V9.75C12 9.33579 12.3358 9 12.75 9Z" fill="#2A2238"/>
</svg>
