<svg width="31" height="28" viewBox="0 0 31 28" fill="none" xmlns="http://www.w3.org/2000/svg">
<path fill-rule="evenodd" clip-rule="evenodd" d="M0.84541 6.4H3.53953C3.70521 6.4 3.83953 6.26569 3.83953 6.1V2.8C3.83953 2.57909 4.01861 2.4 4.23953 2.4H13.3219C13.54 2.4 13.7174 2.57463 13.7218 2.79172V25.2083C13.7174 25.4254 13.54 25.6 13.3219 25.6H9.1807C8.95979 25.6 8.7807 25.7791 8.7807 26V27.6C8.7807 27.8209 8.95979 28 9.1807 28H13.8218H16.916H21.5571C21.778 28 21.9571 27.8209 21.9571 27.6V26C21.9571 25.7791 21.778 25.6 21.5571 25.6H17.4159C17.1978 25.6 17.0204 25.4254 17.016 25.2083V2.79172C17.0204 2.57463 17.1978 2.4 17.4159 2.4H26.4983C26.7192 2.4 26.8983 2.57909 26.8983 2.8V6.1C26.8983 6.26569 27.0326 6.4 27.1983 6.4H29.8924C30.0581 6.4 30.1924 6.26569 30.1924 6.1V0.3C30.1924 0.134315 30.0581 0 29.8924 0H16.916H13.8218H0.845409C0.679724 0 0.54541 0.134315 0.54541 0.3V6.1C0.54541 6.26569 0.679725 6.4 0.84541 6.4Z" fill="#2A2238"/>
</svg>
