<svg width="19" height="28" viewBox="0 0 19 28" fill="none" xmlns="http://www.w3.org/2000/svg">
<path fill-rule="evenodd" clip-rule="evenodd" d="M5.21802 16.2353C5.10617 18.5744 7.37187 19.0588 9.52572 19.0588C11.6796 19.0588 13.9453 18.5744 13.8334 16.2353V0.399999C13.8334 0.179085 14.0125 0 14.2334 0H18.459C18.68 0 18.859 0.179086 18.859 0.4V17.6471C18.859 24 13.1155 24 9.52572 24C5.93597 24 0.192383 24 0.192383 17.6471V0.4C0.192383 0.179086 0.371469 0 0.592383 0H4.81802C5.03894 0 5.21802 0.179085 5.21802 0.399999V16.2353ZM0.592383 25.3333C0.371469 25.3333 0.192383 25.5124 0.192383 25.7333V27.6C0.192383 27.8209 0.371468 28 0.592382 28H18.459C18.68 28 18.859 27.8209 18.859 27.6V25.7333C18.859 25.5124 18.68 25.3333 18.459 25.3333H0.592383Z" fill="#2A2238"/>
</svg>
