<svg xmlns="http://www.w3.org/2000/svg" fill="none" viewBox="0 0 22 23">
  <path stroke="#2A2238" stroke-width="1.5" d="M18.2549 15.9627c1.7372 1.6917 2.7826 3.9253 2.966 6.2873H.779073c.183425-2.362 1.228807-4.5956 2.966007-6.2873.8178-.7965 1.78346-.9775 3.01035-.9201.53598.0251 1.09052.0938 1.69266.1684.10033.0124.20198.025.30508.0375.70723.0863 1.46823.1698 2.24683.1698.7786 0 1.5396-.0835 2.2468-.1698.1031-.0125.2048-.0251.3051-.0375.6022-.0746 1.1567-.1433 1.6927-.1684 1.2269-.0574 2.1925.1237 3.0103.9201Zm-.6715-9.41636c0 3.18261-2.655 5.79636-5.9723 5.79636-3.3172 0-5.97218-2.61375-5.97218-5.79636S8.2939.75 11.6111.75c3.3173 0 5.9723 2.61373 5.9723 5.79634Z"/>
</svg>
