<svg xmlns="http://www.w3.org/2000/svg" fill="none" viewBox="0 0 28 28">
  <mask id="a" fill="#fff">
    <path d="M21 20.5c0-1.7239-.7375-3.3772-2.0503-4.5962C17.637 14.6848 15.8565 14 14 14s-3.637.6848-4.94975 1.9038C7.7375 17.1228 7 18.7761 7 20.5h14Z"/>
  </mask>
  <path stroke="#2A2238" stroke-width="3" d="M21 20.5c0-1.7239-.7375-3.3772-2.0503-4.5962C17.637 14.6848 15.8565 14 14 14s-3.637.6848-4.94975 1.9038C7.7375 17.1228 7 18.7761 7 20.5h14Z" mask="url(#a)"/>
  <path stroke="#2A2238" stroke-width="1.5" d="M17.1944 9.08065c0 1.85865-1.4615 3.33065-3.2222 3.33065S10.75 10.9393 10.75 9.08065c0-1.85864 1.4615-3.33065 3.2222-3.33065s3.2222 1.47201 3.2222 3.33065Z"/>
  <circle cx="14" cy="14" r="13.25" stroke="#2A2238" stroke-width="1.5"/>
</svg>
