<svg xmlns="http://www.w3.org/2000/svg" width="28" height="28" viewBox="0 0 28 28">
  <path id="Icon_ionic-ios-person" data-name="Icon ionic-ios-person" d="M32.487,31.793c-.525-2.319-3.522-3.449-4.558-3.814a33.981,33.981,0,0,0-3.8-.729,3.86,3.86,0,0,1-1.757-.809c-.292-.35-.117-3.595-.117-3.595a10.815,10.815,0,0,0,.831-1.582A20.408,20.408,0,0,0,23.7,18.5s.6,0,.809-1.05a10.331,10.331,0,0,0,.54-2.443c-.044-.839-.5-.817-.5-.817a12.784,12.784,0,0,0,.5-3.741c.066-3-2.282-5.95-6.534-5.95-4.31,0-6.607,2.953-6.541,5.95a13.334,13.334,0,0,0,.489,3.741s-.459-.022-.5.817a10.33,10.33,0,0,0,.54,2.443c.2,1.05.809,1.05.809,1.05a20.408,20.408,0,0,0,.613,2.764,10.815,10.815,0,0,0,.831,1.582s.175,3.245-.117,3.595a3.86,3.86,0,0,1-1.757.809,33.981,33.981,0,0,0-3.8.729c-1.035.365-4.032,1.495-4.558,3.814a.583.583,0,0,0,.576.707H31.918A.582.582,0,0,0,32.487,31.793Z" transform="translate(-4.501 -4.5)"/>
</svg>
