<svg width="28" height="28" viewBox="0 0 28 28" fill="none" xmlns="http://www.w3.org/2000/svg">
<path fill-rule="evenodd" clip-rule="evenodd" d="M11.9728 15.2785C10.8792 15.5858 9.8729 16.1399 9.05025 16.9038C8.12532 17.7627 7.48596 18.8371 7.18892 20C7.06437 20.4876 7 20.9907 7 21.5H21C21 20.9907 20.9356 20.4876 20.8111 20C20.514 18.8371 19.8747 17.7627 18.9497 16.9038C18.1189 16.1323 17.1006 15.5747 15.9943 15.2694C15.3527 15.0923 14.6815 15 14 15C13.9907 15 13.9815 15 13.9722 15.0001C13.2887 15.0026 12.6157 15.0979 11.9728 15.2785ZM12.1287 13.6962C12.6797 13.9932 13.3068 14.1613 13.9722 14.1613C13.9815 14.1613 13.9907 14.1613 14 14.1612C14.6613 14.1565 15.2842 13.9859 15.8312 13.6877C17.0883 13.0026 17.9444 11.6444 17.9444 10.0806C17.9444 7.82697 16.166 6 13.9722 6C11.7784 6 10 7.82697 10 10.0806C10 11.6508 10.8632 13.0138 12.1287 13.6962ZM19.2461 20C18.9904 19.262 18.5455 18.5754 17.9291 18.003C16.9047 17.0518 15.4931 16.5 14 16.5C12.5069 16.5 11.0953 17.0518 10.0709 18.003C9.45445 18.5754 9.00957 19.262 8.7539 20H19.2461ZM13.9722 12.6613C15.2998 12.6613 16.4444 11.5442 16.4444 10.0806C16.4444 8.61706 15.2998 7.5 13.9722 7.5C12.6447 7.5 11.5 8.61706 11.5 10.0806C11.5 11.5442 12.6447 12.6613 13.9722 12.6613Z" fill="#2A2238"/>
<path d="M28 14C28 21.732 21.732 28 14 28C6.26801 28 0 21.732 0 14C0 6.26801 6.26801 0 14 0C21.732 0 28 6.26801 28 14ZM1.81633 14C1.81633 20.7289 7.27114 26.1837 14 26.1837C20.7289 26.1837 26.1837 20.7289 26.1837 14C26.1837 7.27114 20.7289 1.81633 14 1.81633C7.27114 1.81633 1.81633 7.27114 1.81633 14Z" fill="#2A2238"/>
</svg>
