<svg width="24" height="28" viewBox="0 0 24 28" fill="none" xmlns="http://www.w3.org/2000/svg">
<path d="M4.25 1.25H5H19H19.75V2V3.99979C19.75 3.99986 19.75 3.99993 19.75 4C19.7504 5.46229 19.337 6.89484 18.5577 8.13217C17.7785 9.3693 16.6653 10.3608 15.3466 10.9921M4.25 1.25L19.75 24.0002L19 24H19.75C19.7504 22.5377 19.337 21.1052 18.5577 19.8678C17.7784 18.6304 16.6648 17.6388 15.3458 17.0075L15.022 17.684L15.3467 17.0079C14.4591 16.5816 13.75 15.735 13.75 14.702V13.298C13.75 12.2668 14.4593 11.4184 15.3466 10.9921M4.25 1.25V2V3.99979V1.25ZM15.3466 10.9921C15.3463 10.9923 15.346 10.9924 15.3458 10.9925L15.022 10.316L15.3467 10.9921C15.3467 10.9921 15.3466 10.9921 15.3466 10.9921ZM21 1.25H20.25V2V4V4.00018C20.2504 5.55674 19.8104 7.08165 18.9809 8.39876C18.1514 9.71586 16.9662 10.7714 15.5622 11.4435L15.5618 11.4437C14.7908 11.8132 14.25 12.5158 14.25 13.3V14.7C14.25 15.4853 14.7941 16.1871 15.5609 16.5559L15.5622 16.5565C16.9662 17.2286 18.1514 18.2841 18.9809 19.6012C19.8104 20.9184 20.2504 22.4433 20.25 23.9998V24V26V26.75H21H23C23.0663 26.75 23.1299 26.7763 23.1768 26.8232C23.2237 26.8701 23.25 26.9337 23.25 27C23.25 27.0663 23.2237 27.1299 23.1768 27.1768C23.1299 27.2237 23.0663 27.25 23 27.25H1C0.933695 27.25 0.870107 27.2237 0.823223 27.1768C0.77634 27.1299 0.75 27.0663 0.75 27C0.75 26.9337 0.77634 26.8701 0.823223 26.8232C0.870107 26.7763 0.933695 26.75 1 26.75H3H3.75V26V24V23.9998C3.74962 22.4433 4.18961 20.9184 5.01912 19.6012C5.84864 18.2841 7.03385 17.2286 8.43783 16.5565L8.43817 16.5563C9.20916 16.1868 9.75 15.4842 9.75 14.7V13.3C9.75 12.5147 9.20593 11.8129 8.43908 11.4441L8.43783 11.4435C7.03385 10.7714 5.84864 9.71586 5.01912 8.39876C4.18961 7.08165 3.74962 5.55674 3.75 4.00018V4V2V1.25H3H1C0.933696 1.25 0.870108 1.22366 0.823223 1.17678C0.776339 1.12989 0.75 1.0663 0.75 1C0.75 0.933696 0.776339 0.870108 0.823223 0.823223C0.870108 0.776339 0.933696 0.75 1 0.75H23C23.0663 0.75 23.1299 0.77634 23.1768 0.823223C23.2237 0.870106 23.25 0.933694 23.25 1C23.25 1.06631 23.2237 1.12989 23.1768 1.17678C23.1299 1.22366 23.0663 1.25 23 1.25H21ZM4.25 24.0002L5 24H4.25C4.25 24.0001 4.25 24.0001 4.25 24.0002Z" stroke="#2A2238" stroke-width="1.5"/>
</svg>
