<svg width="28" height="25" viewBox="0 0 28 25" fill="none" xmlns="http://www.w3.org/2000/svg">
<path d="M15.7152 0.992804C15.542 0.691094 15.2923 0.440426 14.9912 0.266109C14.6901 0.0917927 14.3484 0 14.0005 0C13.6526 0 13.3109 0.0917927 13.0098 0.266109C12.7088 0.440426 12.459 0.691094 12.2858 0.992804L0.288177 21.4065C-0.511432 22.7677 0.447399 24.4982 2.00287 24.4982H25.9964C27.5519 24.4982 28.5124 22.766 27.7111 21.4065L15.7152 0.992804ZM13.997 7.00124C14.9331 7.00124 15.6662 7.8096 15.5717 8.74219L14.9593 14.8784C14.9388 15.1194 14.8285 15.344 14.6503 15.5076C14.4721 15.6712 14.2389 15.762 13.997 15.762C13.7551 15.762 13.5219 15.6712 13.3438 15.5076C13.1656 15.344 13.0553 15.1194 13.0347 14.8784L12.4223 8.74219C12.4003 8.52213 12.4246 8.29991 12.4938 8.08984C12.5629 7.87977 12.6752 7.68651 12.8236 7.5225C12.9719 7.35849 13.153 7.22737 13.3551 7.13759C13.5572 7.04782 13.7759 7.00137 13.997 7.00124V7.00124ZM14.0005 17.4994C14.4646 17.4994 14.9096 17.6837 15.2377 18.0119C15.5659 18.34 15.7502 18.785 15.7502 19.2491C15.7502 19.7131 15.5659 20.1582 15.2377 20.4863C14.9096 20.8144 14.4646 20.9988 14.0005 20.9988C13.5365 20.9988 13.0914 20.8144 12.7633 20.4863C12.4352 20.1582 12.2508 19.7131 12.2508 19.2491C12.2508 18.785 12.4352 18.34 12.7633 18.0119C13.0914 17.6837 13.5365 17.4994 14.0005 17.4994Z" fill="#2A2238"/>
</svg>
