<svg width="28" height="25" viewBox="0 0 28 25" fill="none" xmlns="http://www.w3.org/2000/svg">
<path d="M13.8885 1.78017C13.9228 1.76136 13.9614 1.75172 14.0005 1.75217C14.039 1.75202 14.077 1.76165 14.1107 1.78017C14.1507 1.80416 14.1834 1.83865 14.2052 1.8799L26.2029 22.2935C26.2658 22.3985 26.2641 22.5105 26.2064 22.6137C26.1842 22.6561 26.1517 22.6922 26.1119 22.7187C26.0772 22.74 26.037 22.7503 25.9964 22.7485H2.00462C1.96401 22.7504 1.92375 22.7401 1.88914 22.7187C1.84935 22.6922 1.81686 22.6561 1.79466 22.6137C1.76583 22.5652 1.7509 22.5096 1.75152 22.4531C1.75214 22.3967 1.76827 22.3415 1.79816 22.2935L13.794 1.8799C13.8159 1.8387 13.8486 1.80423 13.8885 1.78017ZM15.7152 0.992804C15.542 0.691094 15.2923 0.440426 14.9912 0.266109C14.6901 0.0917927 14.3484 0 14.0005 0C13.6526 0 13.3109 0.0917927 13.0098 0.266109C12.7088 0.440426 12.459 0.691094 12.2858 0.992804L0.288177 21.4065C-0.511432 22.7677 0.447399 24.4982 2.00287 24.4982H25.9964C27.5519 24.4982 28.5124 22.766 27.7111 21.4065L15.7152 0.992804Z" fill="#2A2238"/>
<path d="M12.2508 19.2491C12.2508 19.0193 12.2961 18.7918 12.384 18.5795C12.4719 18.3672 12.6008 18.1743 12.7633 18.0118C12.9258 17.8494 13.1187 17.7205 13.3309 17.6325C13.5432 17.5446 13.7707 17.4994 14.0005 17.4994C14.2303 17.4994 14.4578 17.5446 14.6701 17.6325C14.8824 17.7205 15.0753 17.8494 15.2377 18.0118C15.4002 18.1743 15.5291 18.3672 15.617 18.5795C15.705 18.7918 15.7502 19.0193 15.7502 19.2491C15.7502 19.7131 15.5659 20.1581 15.2377 20.4863C14.9096 20.8144 14.4646 20.9987 14.0005 20.9987C13.5365 20.9987 13.0914 20.8144 12.7633 20.4863C12.4352 20.1581 12.2508 19.7131 12.2508 19.2491ZM12.4223 8.74215C12.399 8.52142 12.4224 8.29824 12.4909 8.08712C12.5594 7.87599 12.6715 7.68163 12.82 7.51665C12.9685 7.35166 13.15 7.21974 13.3528 7.12943C13.5556 7.03913 13.7751 6.99246 13.997 6.99246C14.219 6.99246 14.4385 7.03913 14.6412 7.12943C14.844 7.21974 15.0255 7.35166 15.174 7.51665C15.3225 7.68163 15.4346 7.87599 15.5032 8.08712C15.5717 8.29824 15.595 8.52142 15.5717 8.74215L14.9594 14.8783C14.9388 15.1194 14.8285 15.3439 14.6503 15.5076C14.4721 15.6712 14.239 15.762 13.997 15.762C13.7551 15.762 13.522 15.6712 13.3438 15.5076C13.1656 15.3439 13.0553 15.1194 13.0347 14.8783L12.4223 8.74215Z" fill="#2A2238"/>
</svg>
