<svg width="32" height="32" viewBox="0 0 32 32" fill="none" xmlns="http://www.w3.org/2000/svg">
<path d="M2 12.1333C2 8.58633 2 6.81283 2.69029 5.45806C3.29749 4.26637 4.26637 3.29749 5.45806 2.69029C6.81283 2 8.58633 2 12.1333 2H19.8667C23.4137 2 25.1872 2 26.5419 2.69029C27.7336 3.29749 28.7025 4.26637 29.3097 5.45806C30 6.81283 30 8.58633 30 12.1333V19.8667C30 23.4137 30 25.1872 29.3097 26.5419C28.7025 27.7336 27.7336 28.7025 26.5419 29.3097C25.1872 30 23.4137 30 19.8667 30H12.1333C8.58633 30 6.81283 30 5.45806 29.3097C4.26637 28.7025 3.29749 27.7336 2.69029 26.5419C2 25.1872 2 23.4137 2 19.8667V12.1333Z" fill="#B30B00"/>
<path d="M24.0401 17.8976C22.7327 16.464 19.1701 17.0912 18.3094 17.1808C17.0891 15.9264 16.2284 14.504 15.8798 13.9664C16.3156 12.6224 16.6642 11.1104 16.6642 9.6768C16.6642 8.3328 16.1413 7 14.7576 7C14.2347 7 13.7989 7.2688 13.5374 7.7168C12.9273 8.792 13.1887 10.9312 14.1475 13.16C13.6245 14.7728 12.753 17.1808 11.7179 19.0512C10.3234 19.5888 7.28369 21.0112 7.02221 22.624C6.93505 23.072 7.10937 23.6096 7.45801 23.8784C7.80665 24.2368 8.24244 24.3264 8.67824 24.3264C10.4977 24.3264 12.328 21.7392 13.6354 19.4096C14.6814 19.0512 16.3265 18.5136 17.9825 18.2448C19.8891 20.0368 21.6323 20.2944 22.5039 20.2944C23.7242 20.2944 24.16 19.7568 24.3234 19.3088C24.5522 18.8832 24.3887 18.256 24.0401 17.8976ZM22.8199 18.7936C22.7327 19.152 22.2969 19.5104 21.5125 19.3312C20.5537 19.0624 19.693 18.6144 18.9958 17.9872C19.6059 17.8976 21.0767 17.7184 22.1226 17.8976C22.4712 17.9872 22.907 18.256 22.8199 18.7936ZM14.3872 8.0752C14.4744 7.896 14.6487 7.8064 14.823 7.8064C15.2588 7.8064 15.3459 8.344 15.3459 8.792C15.2588 9.8672 15.0845 11.0208 14.7358 12.0064C14.0386 10.0464 14.1257 8.6128 14.3872 8.0752ZM14.3 18.1664C14.7358 17.36 15.2588 15.848 15.4331 15.3104C15.8689 16.1168 16.6533 17.0128 17.002 17.4496C17.0891 17.3712 15.5203 17.7184 14.3 18.1664ZM11.3475 20.2272C10.1382 22.1872 9.00509 23.4416 8.30781 23.4416C8.22065 23.4416 8.04634 23.4416 7.95918 23.352C7.87202 23.1728 7.78486 22.9936 7.87202 22.8144C7.95918 22.0976 9.35373 21.112 11.3475 20.2272Z" fill="white"/>
</svg>
