<svg width="32" height="32" viewBox="0 0 32 32" fill="none" xmlns="http://www.w3.org/2000/svg">
<path d="M2 12.1333C2 8.58633 2 6.81283 2.69029 5.45806C3.29749 4.26637 4.26637 3.29749 5.45806 2.69029C6.81283 2 8.58633 2 12.1333 2H19.8667C23.4137 2 25.1872 2 26.5419 2.69029C27.7336 3.29749 28.7025 4.26637 29.3097 5.45806C30 6.81283 30 8.58633 30 12.1333V19.8667C30 23.4137 30 25.1872 29.3097 26.5419C28.7025 27.7336 27.7336 28.7025 26.5419 29.3097C25.1872 30 23.4137 30 19.8667 30H12.1333C8.58633 30 6.81283 30 5.45806 29.3097C4.26637 28.7025 3.29749 27.7336 2.69029 26.5419C2 25.1872 2 23.4137 2 19.8667V12.1333Z" fill="#00005B"/>
<path d="M12.8157 18.9018H8.46207L7.57628 21.8194C7.55168 21.9276 7.45513 22.0042 7.3501 21.9989H5.14503C5.01928 21.9989 4.97531 21.9258 5.0131 21.7795L8.78245 10.3383C8.82018 10.2186 8.85784 10.1017 8.89557 9.94863C8.94487 9.68251 8.97011 9.41204 8.97095 9.14086C8.96015 9.06073 9.02717 8.9898 9.10288 9.00121H12.0995C12.1873 9.00121 12.2376 9.03446 12.2503 9.10096L16.5286 21.7994C16.5662 21.9325 16.5285 21.999 16.4155 21.9989H13.9653C13.8794 22.009 13.7973 21.9482 13.7769 21.8593L12.8157 18.9018ZM9.14055 16.4417H12.1184C11.6291 14.7166 11.077 13.0142 10.6295 11.2758C10.1224 13.0791 9.65412 14.7516 9.14055 16.4417Z" fill="#9999FF"/>
<path d="M17.7262 21.7823V14.3625C17.7262 14.1366 17.723 13.884 17.7168 13.6046C17.7103 13.3254 17.7009 13.0594 17.6885 12.8068C17.6758 12.5543 17.6633 12.3549 17.6508 12.2084C17.6161 12.1144 17.6983 12.042 17.7827 12.0488H19.7428C20.0964 12.0366 20.156 12.5809 20.1763 12.8666C20.5407 12.5288 20.963 12.2681 21.4202 12.0987C21.8748 11.9322 22.3526 11.8479 22.8337 11.8494C23.2083 11.8512 23.5803 11.9152 23.9362 12.0389C24.3471 12.1779 24.7218 12.416 25.0309 12.7345C25.34 13.0529 25.5749 13.443 25.7173 13.8739C25.9057 14.3859 26 15.0474 26 15.8585V21.7823C26 21.902 25.9497 21.9618 25.8492 21.9618H23.5687C23.4605 21.9783 23.3647 21.8769 23.3802 21.7624V16.0978C23.3915 15.7499 23.3337 15.4034 23.2106 15.0806C22.7165 13.8564 21.1101 14.1251 20.3459 14.8811V21.7823C20.3459 21.902 20.2956 21.9618 20.1951 21.9618H17.8958C17.7984 21.9765 17.7123 21.8853 17.7262 21.7823Z" fill="#9999FF"/>
</svg>
