<svg width="32" height="32" viewBox="0 0 32 32" fill="none" xmlns="http://www.w3.org/2000/svg">
<path d="M2 12.1333C2 8.58633 2 6.81283 2.69029 5.45806C3.29749 4.26637 4.26637 3.29749 5.45806 2.69029C6.81283 2 8.58633 2 12.1333 2H19.8667C23.4137 2 25.1872 2 26.5419 2.69029C27.7336 3.29749 28.7025 4.26637 29.3097 5.45806C30 6.81283 30 8.58633 30 12.1333V19.8667C30 23.4137 30 25.1872 29.3097 26.5419C28.7025 27.7336 27.7336 28.7025 26.5419 29.3097C25.1872 30 23.4137 30 19.8667 30H12.1333C8.58633 30 6.81283 30 5.45806 29.3097C4.26637 28.7025 3.29749 27.7336 2.69029 26.5419C2 25.1872 2 23.4137 2 19.8667V12.1333Z" fill="#470137"/>
<path d="M5.00091 22.696V10.219C4.99199 10.1401 5.04959 10.0673 5.12499 10.0621C6.27129 9.97879 7.43329 10.0035 8.5815 10.0032C10.8265 10.0032 13.105 10.8162 14.2094 13.0146C14.6761 13.9498 14.9095 15.0255 14.9096 16.2417C14.9233 17.0911 14.8004 17.9367 14.5462 18.743C14.3267 19.426 13.9903 20.0609 13.5535 20.6165C13.1467 21.1282 12.665 21.5686 12.1266 21.9211C10.103 23.2442 7.40456 23.0393 5.10725 22.8922C5.03634 22.8922 5.0009 22.8268 5.00091 22.696ZM7.44704 12.4162V20.5381C10.1509 20.5381 12.4028 19.3929 12.3571 16.3006C12.4165 13.166 10.0509 12.2495 7.44704 12.4162Z" fill="#FF61F6"/>
<path d="M25.2867 22.8942H23.1176C22.9986 22.9112 22.9421 22.8012 22.9094 22.698C22.4668 20.4086 22.0033 18.1543 21.5906 15.9298C21.1023 18.1921 20.6058 20.4489 20.0636 22.698C20.0403 22.8289 19.9769 22.8942 19.8727 22.8942H17.7036C17.5824 22.9079 17.4951 22.837 17.4607 22.7176L15.2049 13.301C15.1702 13.1965 15.2165 13.1441 15.3437 13.144H17.5301C17.6342 13.144 17.6921 13.1833 17.7036 13.2618C18.202 15.5727 18.6388 17.8885 19.0051 20.2261C19.4536 17.9106 19.9751 15.5955 20.4453 13.3402C20.4555 13.2149 20.4941 13.144 20.6188 13.144H22.8921C22.9615 13.144 23.0018 13.19 23.0135 13.2814C23.5226 15.5854 23.9155 17.8497 24.315 20.3046C24.8525 17.9928 25.1632 15.6211 25.6858 13.301C25.7089 13.1965 25.7609 13.1441 25.842 13.144H27.8722C27.9763 13.144 28.0168 13.2029 27.9937 13.3206L25.4949 22.7176C25.4635 22.8216 25.4012 22.9093 25.2867 22.8942Z" fill="#FF61F6"/>
</svg>
