<svg width="32" height="32" viewBox="0 0 32 32" fill="none" xmlns="http://www.w3.org/2000/svg">
<path d="M2 12.1333C2 8.58633 2 6.81283 2.69029 5.45806C3.29749 4.26637 4.26637 3.29749 5.45806 2.69029C6.81283 2 8.58633 2 12.1333 2H19.8667C23.4137 2 25.1872 2 26.5419 2.69029C27.7336 3.29749 28.7025 4.26637 29.3097 5.45806C30 6.81283 30 8.58633 30 12.1333V19.8667C30 23.4137 30 25.1872 29.3097 26.5419C28.7025 27.7336 27.7336 28.7025 26.5419 29.3097C25.1872 30 23.4137 30 19.8667 30H12.1333C8.58633 30 6.81283 30 5.45806 29.3097C4.26637 28.7025 3.29749 27.7336 2.69029 26.5419C2 25.1872 2 23.4137 2 19.8667V12.1333Z" fill="#013301"/>
<path d="M14.7893 19.5638H10.4504L9.56759 22.3819C9.54308 22.4864 9.44685 22.5604 9.34218 22.5553H7.14454C7.01922 22.5553 6.97539 22.4847 7.01306 22.3434L10.7697 11.2926C10.8073 11.1771 10.8448 11.0641 10.8824 10.9163C10.9316 10.6592 10.9567 10.398 10.9576 10.1361C10.9468 10.0587 11.0136 9.99014 11.089 10.0012H14.0756C14.1631 10.0012 14.2131 10.0333 14.2258 10.0975L18.4897 22.3626C18.5272 22.4912 18.4896 22.5554 18.377 22.5553H15.9351C15.8495 22.565 15.7677 22.5063 15.7473 22.4204L14.7893 19.5638ZM11.1266 17.1877H14.0944C13.6068 15.5215 13.0565 13.8773 12.6105 12.1981C12.1051 13.9399 11.6384 15.5553 11.1266 17.1877Z" fill="#33FF66"/>
<path d="M19.7292 12.9826H21.7767C21.8896 12.9836 21.9909 13.0636 22.0208 13.1753C22.1709 13.517 22.1893 13.929 22.1899 14.2979C22.541 13.8786 22.9644 13.5292 23.4389 13.2673C23.9479 12.9719 24.5249 12.8222 25.1096 12.8338C25.2066 12.8196 25.2925 12.9077 25.2787 13.0072V15.3382C25.2787 15.4282 25.2158 15.4731 25.0908 15.4731C24.2242 15.4118 22.875 15.6218 22.2453 16.3208V22.3819C22.2453 22.4975 22.1952 22.5553 22.0951 22.5553H19.8983C19.7904 22.5711 19.6952 22.4715 19.7104 22.3626V15.7813C19.7104 14.8995 19.7291 13.9911 19.5978 13.1175C19.5775 13.0371 19.6526 12.9623 19.7292 12.9826Z" fill="#33FF66"/>
</svg>
