<svg width="32" height="32" viewBox="0 0 32 32" fill="none" xmlns="http://www.w3.org/2000/svg">
<path d="M2 12.1333C2 8.58633 2 6.81283 2.69029 5.45806C3.29749 4.26637 4.26637 3.29749 5.45806 2.69029C6.81283 2 8.58633 2 12.1333 2H19.8667C23.4137 2 25.1872 2 26.5419 2.69029C27.7336 3.29749 28.7025 4.26637 29.3097 5.45806C30 6.81283 30 8.58633 30 12.1333V19.8667C30 23.4137 30 25.1872 29.3097 26.5419C28.7025 27.7336 27.7336 28.7025 26.5419 29.3097C25.1872 30 23.4137 30 19.8667 30H12.1333C8.58633 30 6.81283 30 5.45806 29.3097C4.26637 28.7025 3.29749 27.7336 2.69029 26.5419C2 25.1872 2 23.4137 2 19.8667V12.1333Z" fill="#001E36"/>
<path d="M16.7052 22.6201H9.30453C9.17926 22.6201 9.11665 22.5494 9.11671 22.4082V10.1749C9.10285 10.0754 9.18875 9.98729 9.28578 10.0015H11.5774C11.6528 9.99061 11.7193 10.0602 11.7088 10.1364V20.1927H17.0997C17.2123 20.1927 17.2562 20.2505 17.2311 20.3661L16.893 22.4467C16.8901 22.5515 16.8041 22.619 16.7052 22.6201Z" fill="#31A8FF"/>
<path d="M18.5853 13.0319H20.6327C20.7456 13.0329 20.847 13.1129 20.8769 13.2246C21.0269 13.5663 21.0454 13.9783 21.046 14.3472C21.3971 13.9279 21.8205 13.5785 22.295 13.3166C22.804 13.0212 23.381 12.8715 23.9657 12.8831C24.0627 12.8689 24.1486 12.957 24.1347 13.0565V15.3876C24.1347 15.4776 24.0719 15.5224 23.9469 15.5224C23.0803 15.4611 21.7311 15.6711 21.1014 16.3701V22.4312C21.1014 22.5468 21.0513 22.6046 20.9511 22.6046H18.7544C18.6465 22.6204 18.5513 22.5208 18.5665 22.4119V15.8307C18.5665 14.9488 18.5852 14.0404 18.4538 13.1668C18.4336 13.0864 18.5087 13.0117 18.5853 13.0319Z" fill="#31A8FF"/>
</svg>
