<svg width="32" height="32" viewBox="0 0 32 32" fill="none" xmlns="http://www.w3.org/2000/svg">
<path d="M2 12.1333C2 8.58633 2 6.81283 2.69029 5.45806C3.29749 4.26637 4.26637 3.29749 5.45806 2.69029C6.81283 2 8.58633 2 12.1333 2H19.8667C23.4137 2 25.1872 2 26.5419 2.69029C27.7336 3.29749 28.7025 4.26637 29.3097 5.45806C30 6.81283 30 8.58633 30 12.1333V19.8667C30 23.4137 30 25.1872 29.3097 26.5419C28.7025 27.7336 27.7336 28.7025 26.5419 29.3097C25.1872 30 23.4137 30 19.8667 30H12.1333C8.58633 30 6.81283 30 5.45806 29.3097C4.26637 28.7025 3.29749 27.7336 2.69029 26.5419C2 25.1872 2 23.4137 2 19.8667V12.1333Z" fill="#00005B"/>
<path d="M13.7893 19.5638H9.4504L8.56759 22.3819C8.54308 22.4864 8.44685 22.5604 8.34218 22.5553H6.14454C6.01922 22.5553 5.97539 22.4847 6.01306 22.3434L9.76969 11.2926C9.80729 11.1771 9.84483 11.0641 9.88243 10.9163C9.93156 10.6592 9.95672 10.398 9.95756 10.1361C9.9468 10.0587 10.0136 9.99014 10.089 10.0012H13.0756C13.1631 10.0012 13.2131 10.0333 13.2258 10.0975L17.4897 22.3626C17.5272 22.4912 17.4896 22.5554 17.377 22.5553H14.9351C14.8495 22.565 14.7677 22.5063 14.7473 22.4204L13.7893 19.5638ZM10.1266 17.1877H13.0944C12.6068 15.5215 12.0565 13.8773 11.6105 12.1981C11.1051 13.9399 10.6384 15.5553 10.1266 17.1877Z" fill="#9999FF"/>
<path d="M20.6608 18.4757C20.8335 19.9066 22.0351 20.5888 23.3656 20.5597C24.1159 20.545 24.9177 20.4285 25.6188 20.1448C25.6812 20.0937 25.7127 20.1256 25.7127 20.2412V22.0713C25.7186 22.1665 25.6788 22.2516 25.6 22.3025C24.7286 22.6983 23.7284 22.8177 22.7833 22.8025C19.9655 22.8025 18.0304 20.8171 18.0312 17.9285C18.0238 15.1911 19.7997 12.8817 22.5579 12.8817C24.896 12.8211 26.5147 14.693 26.5212 17.0231C26.5212 17.4474 26.4975 17.8733 26.4461 18.2945C26.4361 18.3813 26.3622 18.4487 26.277 18.4487C24.4097 18.4487 22.5333 18.4757 20.6608 18.4757ZM20.6608 16.7207C21.7015 16.7207 22.7482 16.7575 23.7882 16.7111C23.9445 16.6951 24.0606 16.6654 24.0606 16.5029C24.0389 15.6391 23.3099 14.9286 22.464 14.9617C21.442 14.8983 20.7879 15.7611 20.6608 16.7207Z" fill="#9999FF"/>
</svg>
