<svg width="32" height="32" viewBox="0 0 32 32" fill="none" xmlns="http://www.w3.org/2000/svg">
<path d="M2 12.1333C2 8.58633 2 6.81283 2.69029 5.45806C3.29749 4.26637 4.26637 3.29749 5.45806 2.69029C6.81283 2 8.58633 2 12.1333 2H19.8667C23.4137 2 25.1872 2 26.5419 2.69029C27.7336 3.29749 28.7025 4.26637 29.3097 5.45806C30 6.81283 30 8.58633 30 12.1333V19.8667C30 23.4137 30 25.1872 29.3097 26.5419C28.7025 27.7336 27.7336 28.7025 26.5419 29.3097C25.1872 30 23.4137 30 19.8667 30H12.1333C8.58633 30 6.81283 30 5.45806 29.3097C4.26637 28.7025 3.29749 27.7336 2.69029 26.5419C2 25.1872 2 23.4137 2 19.8667V12.1333Z" fill="white"/>
<path d="M2 12.1333C2 8.58633 2 6.81283 2.69029 5.45806C3.29749 4.26637 4.26637 3.29749 5.45806 2.69029C6.81283 2 8.58633 2 12.1333 2H19.8667C23.4137 2 25.1872 2 26.5419 2.69029C27.7336 3.29749 28.7025 4.26637 29.3097 5.45806C30 6.81283 30 8.58633 30 12.1333V19.8667C30 23.4137 30 25.1872 29.3097 26.5419C28.7025 27.7336 27.7336 28.7025 26.5419 29.3097C25.1872 30 23.4137 30 19.8667 30H12.1333C8.58633 30 6.81283 30 5.45806 29.3097C4.26637 28.7025 3.29749 27.7336 2.69029 26.5419C2 25.1872 2 23.4137 2 19.8667V12.1333Z" fill="url(#paint0_radial_87_7395)"/>
<path d="M2 12.1333C2 8.58633 2 6.81283 2.69029 5.45806C3.29749 4.26637 4.26637 3.29749 5.45806 2.69029C6.81283 2 8.58633 2 12.1333 2H19.8667C23.4137 2 25.1872 2 26.5419 2.69029C27.7336 3.29749 28.7025 4.26637 29.3097 5.45806C30 6.81283 30 8.58633 30 12.1333V19.8667C30 23.4137 30 25.1872 29.3097 26.5419C28.7025 27.7336 27.7336 28.7025 26.5419 29.3097C25.1872 30 23.4137 30 19.8667 30H12.1333C8.58633 30 6.81283 30 5.45806 29.3097C4.26637 28.7025 3.29749 27.7336 2.69029 26.5419C2 25.1872 2 23.4137 2 19.8667V12.1333Z" fill="url(#paint1_radial_87_7395)"/>
<path d="M2 12.1333C2 8.58633 2 6.81283 2.69029 5.45806C3.29749 4.26637 4.26637 3.29749 5.45806 2.69029C6.81283 2 8.58633 2 12.1333 2H19.8667C23.4137 2 25.1872 2 26.5419 2.69029C27.7336 3.29749 28.7025 4.26637 29.3097 5.45806C30 6.81283 30 8.58633 30 12.1333V19.8667C30 23.4137 30 25.1872 29.3097 26.5419C28.7025 27.7336 27.7336 28.7025 26.5419 29.3097C25.1872 30 23.4137 30 19.8667 30H12.1333C8.58633 30 6.81283 30 5.45806 29.3097C4.26637 28.7025 3.29749 27.7336 2.69029 26.5419C2 25.1872 2 23.4137 2 19.8667V12.1333Z" fill="url(#paint2_radial_87_7395)"/>
<path d="M2 12.1333C2 8.58633 2 6.81283 2.69029 5.45806C3.29749 4.26637 4.26637 3.29749 5.45806 2.69029C6.81283 2 8.58633 2 12.1333 2H19.8667C23.4137 2 25.1872 2 26.5419 2.69029C27.7336 3.29749 28.7025 4.26637 29.3097 5.45806C30 6.81283 30 8.58633 30 12.1333V19.8667C30 23.4137 30 25.1872 29.3097 26.5419C28.7025 27.7336 27.7336 28.7025 26.5419 29.3097C25.1872 30 23.4137 30 19.8667 30H12.1333C8.58633 30 6.81283 30 5.45806 29.3097C4.26637 28.7025 3.29749 27.7336 2.69029 26.5419C2 25.1872 2 23.4137 2 19.8667V12.1333Z" fill="url(#paint3_radial_87_7395)"/>
<path d="M2 12.1333C2 8.58633 2 6.81283 2.69029 5.45806C3.29749 4.26637 4.26637 3.29749 5.45806 2.69029C6.81283 2 8.58633 2 12.1333 2H19.8667C23.4137 2 25.1872 2 26.5419 2.69029C27.7336 3.29749 28.7025 4.26637 29.3097 5.45806C30 6.81283 30 8.58633 30 12.1333V19.8667C30 23.4137 30 25.1872 29.3097 26.5419C28.7025 27.7336 27.7336 28.7025 26.5419 29.3097C25.1872 30 23.4137 30 19.8667 30H12.1333C8.58633 30 6.81283 30 5.45806 29.3097C4.26637 28.7025 3.29749 27.7336 2.69029 26.5419C2 25.1872 2 23.4137 2 19.8667V12.1333Z" fill="url(#paint4_radial_87_7395)"/>
<path d="M2 12.1333C2 8.58633 2 6.81283 2.69029 5.45806C3.29749 4.26637 4.26637 3.29749 5.45806 2.69029C6.81283 2 8.58633 2 12.1333 2H19.8667C23.4137 2 25.1872 2 26.5419 2.69029C27.7336 3.29749 28.7025 4.26637 29.3097 5.45806C30 6.81283 30 8.58633 30 12.1333V19.8667C30 23.4137 30 25.1872 29.3097 26.5419C28.7025 27.7336 27.7336 28.7025 26.5419 29.3097C25.1872 30 23.4137 30 19.8667 30H12.1333C8.58633 30 6.81283 30 5.45806 29.3097C4.26637 28.7025 3.29749 27.7336 2.69029 26.5419C2 25.1872 2 23.4137 2 19.8667V12.1333Z" fill="url(#paint5_radial_87_7395)"/>
<path d="M2 12.1333C2 8.58633 2 6.81283 2.69029 5.45806C3.29749 4.26637 4.26637 3.29749 5.45806 2.69029C6.81283 2 8.58633 2 12.1333 2H19.8667C23.4137 2 25.1872 2 26.5419 2.69029C27.7336 3.29749 28.7025 4.26637 29.3097 5.45806C30 6.81283 30 8.58633 30 12.1333V19.8667C30 23.4137 30 25.1872 29.3097 26.5419C28.7025 27.7336 27.7336 28.7025 26.5419 29.3097C25.1872 30 23.4137 30 19.8667 30H12.1333C8.58633 30 6.81283 30 5.45806 29.3097C4.26637 28.7025 3.29749 27.7336 2.69029 26.5419C2 25.1872 2 23.4137 2 19.8667V12.1333Z" fill="url(#paint6_radial_87_7395)"/>
<path d="M24.4703 10.436C22.9886 8.79672 20.9003 7.87536 18.7303 7.88732C16.6069 7.88732 14.4486 8.82066 13.0603 10.3283C12.8036 10.3044 12.5469 10.2805 12.3019 10.2805C8.13693 10.2805 5.55859 13.8702 5.55859 17.1967C5.57026 18.9916 6.24693 20.7147 7.44859 22.0309C8.70859 23.407 10.4586 24.1848 12.3019 24.1848H18.7303C23.0936 24.1848 26.6403 20.5113 26.6403 16.0121C26.6169 13.942 25.8469 11.9557 24.4703 10.436ZM12.1736 23.0121C9.08193 23.0121 6.58526 20.4395 6.58526 17.2685C6.58526 14.1215 9.07026 11.5608 12.1503 11.5369C13.5153 11.5369 14.9503 11.9916 15.8603 12.9848L18.2053 15.4497C18.5903 15.8566 18.5786 16.5027 18.1819 16.8976C17.7853 17.2925 17.1553 17.2805 16.7703 16.8736L14.4836 14.4566C12.9903 13.1403 10.7386 13.3078 9.45526 14.8395C8.89526 15.4976 8.59193 16.3472 8.59193 17.2207C8.59193 19.2309 10.2603 20.9301 12.2319 20.9301H12.6869C13.3403 21.8634 15.1719 23.0121 15.1719 23.0121H12.1736ZM23.6303 20.954C22.3819 22.2942 20.6553 23.048 18.8469 23.06C17.1319 23.06 15.3819 22.2702 14.0403 20.9061L10.9836 17.7472C10.5986 17.3403 10.6103 16.6942 10.9953 16.2993C11.1819 16.1078 11.4269 16.0121 11.6953 16.0121C11.9636 16.0121 12.2203 16.1198 12.4069 16.3232L15.4519 19.4463C16.4203 20.4395 17.6569 21.0019 18.8469 21.0019C20.1186 21.0019 21.3319 20.4634 22.2069 19.5061C23.1053 18.5608 23.6069 17.2925 23.6069 15.9762C23.6069 13.2719 21.4603 11.0822 18.8236 11.0702C17.8203 11.0702 16.9919 11.2736 16.1753 11.86C15.7129 11.3858 14.7169 10.9147 14.2619 10.8189C15.5219 9.6104 17.0969 9.02408 18.8236 9.02408C22.5686 9.02408 25.5903 12.1352 25.6019 15.9762C25.6019 17.8309 24.9019 19.6258 23.6303 20.954Z" fill="white"/>
<defs>
<radialGradient id="paint0_radial_87_7395" cx="0" cy="0" r="1" gradientUnits="userSpaceOnUse" gradientTransform="translate(25.275 25.9316) rotate(46.87) scale(16.7238 17.1298)">
<stop stop-color="#68E048"/>
<stop offset="1" stop-color="#5CE049" stop-opacity="0"/>
</radialGradient>
<radialGradient id="paint1_radial_87_7395" cx="0" cy="0" r="1" gradientUnits="userSpaceOnUse" gradientTransform="translate(6.43333 25.812) rotate(137.364) scale(17.0478 17.527)">
<stop stop-color="#308CFE"/>
<stop offset="1" stop-color="#2F8BFF" stop-opacity="0"/>
</radialGradient>
<radialGradient id="paint2_radial_87_7395" cx="0" cy="0" r="1" gradientUnits="userSpaceOnUse" gradientTransform="translate(24.75 17.6752) rotate(7.9001) scale(10.0117 10.5219)">
<stop stop-color="#FDD511"/>
<stop offset="1" stop-color="#FDD20D" stop-opacity="0"/>
</radialGradient>
<radialGradient id="paint3_radial_87_7395" cx="0" cy="0" r="1" gradientUnits="userSpaceOnUse" gradientTransform="translate(6.78333 12.1111) rotate(-127.134) scale(14.7842 15.0641)">
<stop stop-color="#F928C2"/>
<stop offset="1" stop-color="#F922BC" stop-opacity="0"/>
</radialGradient>
<radialGradient id="paint4_radial_87_7395" cx="0" cy="0" r="1" gradientUnits="userSpaceOnUse" gradientTransform="translate(17.8667 6.66667) rotate(-63.404) scale(14.8538 15.0084)">
<stop stop-color="#F90700"/>
<stop offset="1" stop-color="#F90700" stop-opacity="0"/>
</radialGradient>
<radialGradient id="paint5_radial_87_7395" cx="0" cy="0" r="1" gradientUnits="userSpaceOnUse" gradientTransform="translate(28.4833 6.06838) rotate(-65.6935) scale(8.92818 9.00675)">
<stop stop-color="#FB4200"/>
<stop offset="1" stop-color="#FB4300" stop-opacity="0"/>
</radialGradient>
<radialGradient id="paint6_radial_87_7395" cx="0" cy="0" r="1" gradientUnits="userSpaceOnUse" gradientTransform="translate(4.91667 5.41026) rotate(-133.672) scale(7.94077 8.13743)">
<stop stop-color="#FE0D88"/>
<stop offset="1" stop-color="#FE0D88" stop-opacity="0"/>
</radialGradient>
</defs>
</svg>
