<svg width="28" height="32" viewBox="0 0 28 32" fill="none" xmlns="http://www.w3.org/2000/svg">
<path d="M13.6466 31.9999C16.1714 31.9999 18.2181 29.9532 18.2181 27.4285C18.2181 24.9038 16.1714 22.8571 13.6466 22.8571C11.1219 22.8571 9.0752 24.9038 9.0752 27.4285C9.0752 29.9532 11.1219 31.9999 13.6466 31.9999Z" fill="#FF7700"/>
<path fill-rule="evenodd" clip-rule="evenodd" d="M21.1892 6.17181C19.8652 4.84783 18.3669 3.94466 16.6944 3.46231V3.04762C16.6944 2.20605 16.3968 1.48771 15.8018 0.892626C15.2066 0.297542 14.4883 0 13.6467 0C12.8052 0 12.0868 0.297542 11.4917 0.892626C10.8967 1.48771 10.5991 2.20605 10.5991 3.04762V3.46231C8.92652 3.94466 7.42824 4.84783 6.10426 6.17181C4.02147 8.2546 2.98007 10.7688 2.98007 13.7143V21.9429L0.491411 24.9292C0.302152 25.1564 0.184215 25.4165 0.137601 25.7097C0.108531 26.0029 0.156694 26.2834 0.282088 26.5512C0.407483 26.8188 0.594914 27.032 0.844382 27.1906C1.09385 27.3492 1.3664 27.4286 1.66203 27.4286H25.6314C25.927 27.4286 26.1996 27.3492 26.4491 27.1906C26.6986 27.032 26.886 26.8188 27.0114 26.5512C27.1368 26.2834 27.1806 26.0029 27.1427 25.7097C27.1048 25.4165 26.9912 25.1564 26.802 24.9292L24.3134 21.9429V13.7143C24.3134 10.7688 23.272 8.2546 21.1892 6.17181Z" fill="url(#paint0_radial_103_1590)"/>
<defs>
<radialGradient id="paint0_radial_103_1590" cx="0" cy="0" r="1" gradientUnits="userSpaceOnUse" gradientTransform="translate(9.12995 7.54174) rotate(53.71) scale(21.2682 20.9501)">
<stop stop-color="#FADF73"/>
<stop offset="0.457142" stop-color="#FFD500"/>
<stop offset="1" stop-color="#FC9900"/>
</radialGradient>
</defs>
</svg>
