<svg width="70" height="48" viewBox="0 0 70 48" fill="none" xmlns="http://www.w3.org/2000/svg">
<rect x="0.5" y="0.5" width="69" height="47" rx="5.5" fill="white" stroke="#D9D9D9"/>
<path fill-rule="evenodd" clip-rule="evenodd" d="M51.2538 24.1292C51.2538 33.0371 44.0329 40.2584 35.1255 40.2584C26.218 40.2584 18.9971 33.0371 18.9971 24.1292C18.9971 15.2213 26.218 8 35.1255 8C44.0329 8 51.2538 15.2213 51.2538 24.1292ZM39.0002 18.1366C41.2438 18.9071 42.8849 20.0607 42.5629 22.2077C42.3291 23.7799 41.4543 24.5403 40.2921 24.8065C41.8866 25.6335 42.4301 27.2029 41.9251 29.1005C40.9664 31.8314 38.6874 32.0613 35.6562 31.4905L34.9202 34.4261L33.1434 33.9844L33.8693 31.0882C33.4087 30.9742 32.9379 30.8522 32.4529 30.7221L31.724 33.6325L29.9492 33.1908L30.6842 30.2491L27.1053 29.3496L27.9882 27.3226C27.9882 27.3226 29.2982 27.6685 29.28 27.6433C29.7832 27.7673 30.0069 27.4406 30.095 27.2238L32.0895 19.256C32.1117 18.8798 31.9811 18.4059 31.2613 18.2264C31.2886 18.2072 29.9705 17.9067 29.9705 17.9067L30.4433 16.0158L34.0272 16.9003L34.7562 13.9919L36.532 14.4336L35.8182 17.2845C36.2961 17.3924 36.776 17.5023 37.2427 17.6183L37.9514 14.7855L39.7282 15.2272L39.0002 18.1366ZM34.7488 22.9882C35.9591 23.3091 38.5928 24.0074 39.0519 22.1765C39.5202 20.3033 36.9615 19.7376 35.7087 19.4606L35.7086 19.4606L35.7085 19.4606C35.5666 19.4292 35.4414 19.4015 35.3393 19.3761L34.4545 22.9117C34.5388 22.9325 34.6378 22.9588 34.7488 22.9882ZM33.3775 28.6807C34.8271 29.0626 37.9976 29.8977 38.5021 27.8803C39.0185 25.8175 35.9445 25.1305 34.4446 24.7952L34.4441 24.7951C34.2767 24.7577 34.129 24.7247 34.008 24.6946L33.032 28.5913C33.1311 28.6158 33.2472 28.6464 33.3771 28.6806L33.3775 28.6807Z" fill="#F7931A"/>
</svg>
