<svg width="32" height="32" viewBox="0 0 32 32" fill="none" xmlns="http://www.w3.org/2000/svg">
<path d="M16 2C8.26811 2 2 8.26811 2 16C2 23.7319 8.26811 30.0001 16 30.0001C23.7319 30.0001 30 23.7319 30 16C30 8.26811 23.7319 2 16 2Z" fill="url(#paint0_linear_109_812)"/>
<path d="M15.9999 24.9426C11.061 24.9426 7.05713 20.9388 7.05713 15.9999C7.05713 11.061 11.061 7.05713 15.9999 7.05713C20.9387 7.05713 24.9426 11.061 24.9426 15.9999C24.9426 20.9388 20.9388 24.9426 15.9999 24.9426Z" fill="white"/>
<path d="M7.63281 15.9997H16.0002V7.63232C11.3791 7.63232 7.63281 11.3787 7.63281 15.9997ZM16.0002 15.9997V24.3672C20.6214 24.3672 24.3676 20.6209 24.3676 15.9997H16.0002Z" fill="url(#paint1_linear_109_812)"/>
<path fill-rule="evenodd" clip-rule="evenodd" d="M8.24351 7.35914C8.67368 7.09244 9.13189 7.17928 9.42833 7.4674C9.88381 7.91014 9.81681 8.42205 9.38354 8.9384L7.48728 11.1982L4.66064 8.82632L6.45878 6.68344C6.83095 6.23992 7.3513 5.88572 7.84573 6.3006C7.85487 6.30827 7.8637 6.31563 7.87225 6.32277C8.00664 6.43488 8.07425 6.49128 8.24848 6.809C8.29211 6.9289 8.32567 7.14621 8.24351 7.35914ZM7.44147 7.22333C7.2596 7.07077 6.97682 7.06464 6.8517 7.2138L5.77167 8.50087L6.43979 9.06151L7.50761 7.78895C7.6419 7.62899 7.64142 7.39111 7.44147 7.22333ZM7.62576 10.0567L8.7516 8.71502C8.90112 8.53686 8.87952 8.25923 8.66136 8.07628C8.46864 7.9145 8.18288 7.95898 8.05472 8.11172L6.91978 9.46432L7.62576 10.0567Z" fill="white"/>
<path d="M17.4393 3.87616L16.4686 6.44915H15.6626L14.6918 3.87616V6.44915H13.9541V2.76416H15.0626L16.0656 5.38891L17.0686 2.76416H18.1771V6.44915H17.4393V3.87616Z" fill="white"/>
<path d="M24.9987 9.94876L26.3877 7.98223L25.776 7.22685L23.5637 8.17665L25.0113 6.28288L24.4412 5.57878L22.1294 8.55246L22.8051 9.38016L24.989 8.48146L24.9968 8.49123L23.6637 10.4405L24.3329 11.2735L27.7222 9.63054L27.152 8.92644L24.9987 9.94876Z" fill="white"/>
<defs>
<linearGradient id="paint0_linear_109_812" x1="6.27673" y1="6.2767" x2="25.1832" y2="26.2635" gradientUnits="userSpaceOnUse">
<stop offset="0.0273393" stop-color="#949AA0"/>
<stop offset="0.403335" stop-color="#1A1D1E"/>
<stop offset="1" stop-color="#040606"/>
</linearGradient>
<linearGradient id="paint1_linear_109_812" x1="16.0002" y1="7.63232" x2="16.0002" y2="24.3672" gradientUnits="userSpaceOnUse">
<stop stop-color="#7CD1F4"/>
<stop offset="1" stop-color="#1274B9"/>
</linearGradient>
</defs>
</svg>
