<svg width="32" height="23" viewBox="0 0 32 23" fill="none" xmlns="http://www.w3.org/2000/svg">
<path d="M27.0766 14.7692H24.615C23.9353 14.7692 23.3843 15.3202 23.3843 15.9999V20.923C23.3843 21.6027 23.9353 22.1538 24.615 22.1538H27.0766C27.7563 22.1538 28.3074 21.6027 28.3074 20.923V15.9999C28.3074 15.3202 27.7563 14.7692 27.0766 14.7692Z" fill="url(#paint0_linear_103_1486)"/>
<path d="M7.38469 14.7693H4.92315C4.24342 14.7693 3.69238 15.3203 3.69238 16.0001V20.9231C3.69238 21.6029 4.24342 22.1539 4.92315 22.1539H7.38469C8.06443 22.1539 8.61546 21.6029 8.61546 20.9231V16.0001C8.61546 15.3203 8.06443 14.7693 7.38469 14.7693Z" fill="url(#paint1_linear_103_1486)"/>
<path fill-rule="evenodd" clip-rule="evenodd" d="M28.3078 9.84615H3.69238L7.16378 1.51479C7.54598 0.597508 8.44225 0 9.43598 0H22.5641C23.5579 0 24.4541 0.597508 24.8364 1.51479L28.3078 9.84615ZM24.6155 7.38462H7.38469L9.43598 2.46154H22.5641L24.6155 7.38462Z" fill="url(#paint2_linear_103_1486)"/>
<path d="M3.07692 6.15381H1.84615C0.826551 6.15381 0 6.98036 0 7.99996C0 9.01957 0.826551 9.84612 1.84615 9.84612H3.07692C4.09653 9.84612 4.92308 9.01957 4.92308 7.99996C4.92308 6.98036 4.09653 6.15381 3.07692 6.15381Z" fill="url(#paint3_linear_103_1486)"/>
<path d="M30.1536 6.15393H28.9228C27.9032 6.15393 27.0767 6.98048 27.0767 8.00008C27.0767 9.01969 27.9032 9.84624 28.9228 9.84624H30.1536C31.1732 9.84624 31.9997 9.01969 31.9997 8.00008C31.9997 6.98048 31.1732 6.15393 30.1536 6.15393Z" fill="url(#paint4_linear_103_1486)"/>
<path d="M24.6153 7.38464H7.3845C4.66556 7.38464 2.46143 9.58878 2.46143 12.3077V14.7693C2.46143 17.4882 4.66556 19.6923 7.3845 19.6923H24.6153C27.3342 19.6923 29.5383 17.4882 29.5383 14.7693V12.3077C29.5383 9.58878 27.3342 7.38464 24.6153 7.38464Z" fill="url(#paint5_linear_103_1486)"/>
<path d="M7.38488 16C8.74435 16 9.84642 14.8979 9.84642 13.5384C9.84642 12.179 8.74435 11.0769 7.38488 11.0769C6.02541 11.0769 4.92334 12.179 4.92334 13.5384C4.92334 14.8979 6.02541 16 7.38488 16Z" fill="white"/>
<path d="M24.6153 16C25.9748 16 27.0769 14.8979 27.0769 13.5384C27.0769 12.179 25.9748 11.0769 24.6153 11.0769C23.2559 11.0769 22.1538 12.179 22.1538 13.5384C22.1538 14.8979 23.2559 16 24.6153 16Z" fill="white"/>
<path d="M14.7692 12.3077C14.7692 11.6279 14.2181 11.0769 13.5384 11.0769C12.8587 11.0769 12.3076 11.6279 12.3076 12.3077V14.7692C12.3076 15.4489 12.8587 16 13.5384 16C14.2181 16 14.7692 15.4489 14.7692 14.7692V12.3077Z" fill="black" fill-opacity="0.4"/>
<path d="M19.692 12.3077C19.692 11.6279 19.141 11.0769 18.4612 11.0769C17.7815 11.0769 17.2305 11.6279 17.2305 12.3077V14.7692C17.2305 15.4489 17.7815 16 18.4612 16C19.141 16 19.692 15.4489 19.692 14.7692V12.3077Z" fill="black" fill-opacity="0.4"/>
<defs>
<linearGradient id="paint0_linear_103_1486" x1="25.8458" y1="14.7692" x2="25.8458" y2="22.1538" gradientUnits="userSpaceOnUse">
<stop stop-color="#3873E5"/>
<stop offset="1" stop-color="#2A5CDD"/>
</linearGradient>
<linearGradient id="paint1_linear_103_1486" x1="6.15392" y1="14.7693" x2="6.15392" y2="22.1539" gradientUnits="userSpaceOnUse">
<stop stop-color="#3873E5"/>
<stop offset="1" stop-color="#2A5CDD"/>
</linearGradient>
<linearGradient id="paint2_linear_103_1486" x1="16.0001" y1="0" x2="16.0001" y2="9.84615" gradientUnits="userSpaceOnUse">
<stop stop-color="#57A6F5"/>
<stop offset="1" stop-color="#3C79E7"/>
</linearGradient>
<linearGradient id="paint3_linear_103_1486" x1="2.46154" y1="6.15381" x2="2.46154" y2="9.84612" gradientUnits="userSpaceOnUse">
<stop stop-color="#58A8F6"/>
<stop offset="1" stop-color="#3B78E7"/>
</linearGradient>
<linearGradient id="paint4_linear_103_1486" x1="29.5382" y1="6.15393" x2="29.5382" y2="9.84624" gradientUnits="userSpaceOnUse">
<stop stop-color="#58A8F6"/>
<stop offset="1" stop-color="#3B78E7"/>
</linearGradient>
<linearGradient id="paint5_linear_103_1486" x1="15.9999" y1="7.38464" x2="15.9999" y2="19.6923" gradientUnits="userSpaceOnUse">
<stop stop-color="#58A8F6"/>
<stop offset="1" stop-color="#3B78E7"/>
</linearGradient>
</defs>
</svg>
