<svg width="32" height="32" viewBox="0 0 32 32" fill="none" xmlns="http://www.w3.org/2000/svg">
<path d="M16 32C24.8366 32 32 24.8366 32 16C32 7.16344 24.8366 0 16 0C7.16344 0 0 7.16344 0 16C0 24.8366 7.16344 32 16 32Z" fill="#473333"/>
<path d="M16.0003 23.2727C20.0169 23.2727 23.273 20.0166 23.273 16C23.273 11.9834 20.0169 8.72729 16.0003 8.72729C11.9836 8.72729 8.72754 11.9834 8.72754 16C8.72754 20.0166 11.9836 23.2727 16.0003 23.2727Z" fill="#EE4F07"/>
<path d="M15.9999 18.9091C17.6066 18.9091 18.909 17.6067 18.909 16C18.909 14.3934 17.6066 13.0909 15.9999 13.0909C14.3933 13.0909 13.0908 14.3934 13.0908 16C13.0908 17.6067 14.3933 18.9091 15.9999 18.9091Z" fill="white"/>
</svg>
