<svg width="32" height="32" viewBox="0 0 32 32" fill="none" xmlns="http://www.w3.org/2000/svg">
<path d="M10.1836 13.436H20.098C20.098 9.91613 18.5621 7.51636 14.3743 7.51636C9.42537 7.51634 4.3926 10.7381 2 14.7553C2.74111 7.78266 7.74053 2.15332 15.2673 2.15332C21.7186 2.15332 27.8309 7.08585 27.8309 15.2853V18.4026H10.2364C10.2364 22.6456 13.9377 24.3267 17.8142 24.3267C22.5317 24.3267 25.4532 22.2068 25.4532 22.2068V28.15C25.4532 28.15 22.1552 30.1533 16.8985 30.1533C10.0672 30.1533 5.24517 25.2576 5.24517 19.1697C5.24517 14.3911 8.13564 10.5759 12.1393 9.00165C10.1904 11.142 10.1835 13.436 10.1835 13.436H10.1836Z" fill="#137AD4"/>
</svg>
