<svg width="24" height="32" viewBox="0 0 24 32" fill="none" xmlns="http://www.w3.org/2000/svg">
<path d="M2.90918 16H13.091C13.8943 16 14.5455 15.3488 14.5455 14.5455V2.90914C14.5455 2.10581 13.8943 1.45459 13.091 1.45459H2.90918V16Z" fill="url(#paint0_linear_103_1577)"/>
<path d="M11.6367 16.0001C11.6367 16.8034 12.2879 17.4546 13.0913 17.4546H21.8185C22.6219 17.4546 23.2731 16.8034 23.2731 16.0001V4.36373C23.2731 3.5604 22.6219 2.90918 21.8185 2.90918H11.6367V16.0001Z" fill="url(#paint1_linear_103_1577)"/>
<path d="M2.90909 1.45455C2.90909 0.651222 2.25787 0 1.45455 0C0.651222 0 0 0.651222 0 1.45455V30.5455C0 31.3488 0.651222 32 1.45455 32C2.25787 32 2.90909 31.3488 2.90909 30.5455V1.45455Z" fill="url(#paint2_linear_103_1577)"/>
<defs>
<linearGradient id="paint0_linear_103_1577" x1="2.90918" y1="7.37793" x2="15.1535" y2="11.2961" gradientUnits="userSpaceOnUse">
<stop stop-color="#FF6200"/>
<stop offset="1" stop-color="#CA3F07"/>
</linearGradient>
<linearGradient id="paint1_linear_103_1577" x1="11.6367" y1="2.90918" x2="25.8274" y2="14.2617" gradientUnits="userSpaceOnUse">
<stop stop-color="#FF6200"/>
<stop offset="1" stop-color="#E84909"/>
</linearGradient>
<linearGradient id="paint2_linear_103_1577" x1="0" y1="8.65061" x2="2.90909" y2="8.65061" gradientUnits="userSpaceOnUse">
<stop stop-color="#E4E4E4"/>
<stop offset="0.999997" stop-color="#C2C2C2"/>
</linearGradient>
</defs>
</svg>
