<svg width="29" height="32" viewBox="0 0 29 32" fill="none" xmlns="http://www.w3.org/2000/svg">
<path d="M0 28.8496C0 30.5896 1.41049 32 3.15041 32H25.2032C26.9432 32 28.3537 30.5896 28.3537 28.8496V13.0282C28.3537 12.1326 27.9725 11.2793 27.3054 10.6817L16.2789 0.803877C15.0825 -0.267959 13.2712 -0.267959 12.0747 0.803877L1.0483 10.6817C0.381205 11.2793 0 12.1326 0 13.0282V28.8496Z" fill="url(#paint0_linear_103_1796)"/>
<path d="M9.45122 32H18.9024V20.9736C18.9024 20.1036 18.1972 19.3984 17.3272 19.3984H11.0264C10.1565 19.3984 9.45122 20.1036 9.45122 20.9736V32Z" fill="white" fill-opacity="0.48"/>
<defs>
<linearGradient id="paint0_linear_103_1796" x1="14.1768" y1="32" x2="14.1768" y2="0" gradientUnits="userSpaceOnUse">
<stop stop-color="#E84909"/>
<stop offset="1" stop-color="#FF6200"/>
</linearGradient>
</defs>
</svg>
