<svg width="32" height="32" viewBox="0 0 32 32" fill="none" xmlns="http://www.w3.org/2000/svg">
<circle cx="16" cy="16" r="14" fill="#FF3366"/>
<path d="M11.3594 10.8594C12.3259 10.8594 13.1094 10.0759 13.1094 9.10938C13.1094 8.14288 12.3259 7.35938 11.3594 7.35938C10.3929 7.35938 9.60938 8.14288 9.60938 9.10938C9.60938 10.0759 10.3929 10.8594 11.3594 10.8594Z" fill="white"/>
<path d="M7.70312 12.3594L7.09375 14.5938H9.09375C8.69271 16.224 7.85312 19.6531 7.70312 20.3281C7.51562 21.1719 7.48433 23.5781 10.0156 23.5781C11.7824 23.5781 12.9093 22.4368 13.5379 21.5048L13.0625 23.4062H15.9062L17.3906 17.3981C17.6016 16.3984 18.0981 14.4688 19.8906 14.4688C22.0225 14.4688 21.2404 16.9933 20.8571 18.2305C20.8415 18.2809 20.8266 18.3291 20.8125 18.375C20.525 19.3125 20.2188 20.4062 20.2188 21.1562C20.2188 22 20.6094 23.5781 22.7969 23.5781C24.9844 23.5781 25.9167 21.4115 26.1094 20.3281L25 19.875C24.9219 20.4531 24.2188 21.7031 23.5625 21.7031C22.6641 21.7031 23.1154 20.1885 23.597 18.5721C23.8106 17.8551 24.0302 17.1181 24.1406 16.4844C24.4198 14.8821 24.1406 12.1562 21.3594 12.1562C19.632 12.1562 18.2756 13.6955 17.6303 14.7641L18.1719 12.3594H13.8438L13.25 14.5938H15.2656C15.2656 14.5938 14.0695 19.4683 13.9922 19.6211C13.1797 21.2266 11.9508 21.7655 11.0312 21.7031C10.2938 21.6531 10.3802 20.7656 10.5156 20.3281L12.5156 12.3594H7.70312Z" fill="white"/>
</svg>
