<svg width="32" height="32" viewBox="0 0 32 32" fill="none" xmlns="http://www.w3.org/2000/svg">
<path d="M27.0631 25.1427L32.0002 12.0227L17.0517 8.68555L15.0859 14.2627L27.0631 25.1427Z" fill="#247CE6"/>
<path d="M31.9999 25.6455L24.457 31.9998L9.41699 28.1141L13.4398 20.7998L31.9999 25.6455Z" fill="url(#paint0_linear_87_7943)"/>
<path d="M4.43473 15.9086L0.594727 4.93714L17.5547 0L16.1833 14.1714L4.43473 15.9086Z" fill="url(#paint1_linear_87_7943)"/>
<path d="M27.9314 18.5143L23.1771 10.3771L23.2686 10.3314L17.5543 0L0 18.9714V32L31.9086 25.6457L27.9314 18.5143Z" fill="url(#paint2_linear_87_7943)"/>
<path d="M6.12598 6.12549H25.8745V25.8741H6.12598V6.12549Z" fill="black"/>
<path d="M7.95508 22.1714H15.3608V23.4057H7.95508V22.1714Z" fill="white"/>
<path d="M11.1999 8.68555H12.8456L16.3199 16.8684H14.4456L13.7142 15.0398H10.2856L9.55416 16.8684H7.72559L11.1999 8.68555ZM13.0742 13.4398L11.977 10.7884L10.8799 13.4398H13.0742Z" fill="white"/>
<path d="M15.8633 12.8455C15.8633 10.4683 17.6461 8.54834 20.1604 8.54834C21.7147 8.54834 22.629 9.0512 23.4061 9.82834L22.2633 11.1541C21.6233 10.5598 20.9833 10.2398 20.1604 10.2398C18.789 10.2398 17.7833 11.3826 17.7833 12.7998C17.7833 14.2169 18.7433 15.4055 20.1604 15.4055C21.1204 15.4055 21.669 15.0398 22.309 14.4455L23.4519 15.5883C22.5833 16.5026 21.669 17.0512 20.069 17.0512C17.6461 17.0512 15.8633 15.1769 15.8633 12.8455Z" fill="white"/>
<defs>
<linearGradient id="paint0_linear_87_7943" x1="9.42476" y1="26.4021" x2="31.9999" y2="26.4021" gradientUnits="userSpaceOnUse">
<stop offset="0.194" stop-color="#00DAF0"/>
<stop offset="0.903" stop-color="#247CE6"/>
</linearGradient>
<linearGradient id="paint1_linear_87_7943" x1="0.582841" y1="7.96114" x2="17.5593" y2="7.96114" gradientUnits="userSpaceOnUse">
<stop offset="0.194" stop-color="#00DAF0"/>
<stop offset="0.903" stop-color="#247CE6"/>
</linearGradient>
<linearGradient id="paint2_linear_87_7943" x1="20.9719" y1="33.0158" x2="5.11863" y2="10.891" gradientUnits="userSpaceOnUse">
<stop offset="0.091" stop-color="#1DDF93"/>
<stop offset="0.484" stop-color="#00DAF0"/>
<stop offset="0.903" stop-color="#247CE6"/>
</linearGradient>
</defs>
</svg>
