<svg width="32" height="32" viewBox="0 0 32 32" fill="none" xmlns="http://www.w3.org/2000/svg">
<g clip-path="url(#clip0_87_8030)">
<path d="M22.4456 5.02881L31.7714 12.846L28.4342 19.6574L22.7656 18.1031H17.9199L22.4456 5.02881Z" fill="url(#paint0_linear_87_8030)"/>
<path d="M13.0286 10.1029L11.2 19.6571L11.0171 22.9486L6.49143 24.9143L0 25.6L1.96571 4.89143L13.6686 0L20.8914 4.75429L13.0286 10.1029Z" fill="url(#paint1_linear_87_8030)"/>
<path d="M13.0286 10.103L13.8971 28.5716L10.9714 32.0002L0 25.6002L9.00571 12.1602L13.0286 10.103Z" fill="url(#paint2_linear_87_8030)"/>
<path d="M25.0969 8.73143H13.9883L23.8169 0L25.0969 8.73143Z" fill="url(#paint3_linear_87_8030)"/>
<path d="M32.0001 28.6171L22.2172 31.9543L9.23438 28.2971L13.0287 10.1029L14.5372 8.73143L22.4458 8L21.7144 15.9543L28.0229 13.5314L32.0001 28.6171Z" fill="url(#paint4_linear_87_8030)"/>
<path d="M6.12598 6.12549H25.8745V25.8741H6.12598V6.12549Z" fill="black"/>
<path d="M8 22.1714H15.4057V23.4057H8V22.1714Z" fill="white"/>
<path d="M7.95508 8.73145H11.2465C13.2122 8.73145 14.4008 9.8743 14.4008 11.5657C14.4008 13.44 12.9379 14.4914 11.1094 14.4914H9.73794V16.9143H7.95508L7.95508 8.73145ZM11.1551 12.8457C12.0694 12.8457 12.5722 12.2514 12.5722 11.5657C12.5722 10.7429 12.0236 10.3314 11.1094 10.3314H9.73794V12.8457H11.1551Z" fill="white"/>
<path d="M15.1318 12.8457C15.1318 10.5142 16.869 8.59424 19.3833 8.59424C20.9376 8.59424 21.8518 9.0971 22.629 9.87424L21.4861 11.2C20.8461 10.6057 20.2061 10.2857 19.3833 10.2857C18.0118 10.2857 17.0061 11.4285 17.0061 12.8457C17.0061 14.2628 17.9661 15.36 19.3833 15.36C20.2976 15.36 20.8918 14.9942 21.5318 14.4L22.6747 15.5428C21.8518 16.4571 20.8918 17.0057 19.3376 17.0057C16.9147 17.0514 15.1318 15.1771 15.1318 12.8457Z" fill="white"/>
</g>
<defs>
<linearGradient id="paint0_linear_87_8030" x1="11.4276" y1="12.3641" x2="30.4712" y2="12.3641" gradientUnits="userSpaceOnUse">
<stop stop-color="#21D789"/>
<stop offset="1" stop-color="#07C3F2"/>
</linearGradient>
<linearGradient id="paint1_linear_87_8030" x1="-11.227" y1="27.0085" x2="27.9863" y2="-1.93875" gradientUnits="userSpaceOnUse">
<stop offset="0.011" stop-color="#FCF84A"/>
<stop offset="0.112" stop-color="#A7EB62"/>
<stop offset="0.206" stop-color="#5FE077"/>
<stop offset="0.273" stop-color="#32DA84"/>
<stop offset="0.306" stop-color="#21D789"/>
<stop offset="0.577" stop-color="#21D789"/>
<stop offset="0.597" stop-color="#21D789"/>
<stop offset="0.686" stop-color="#20D68C"/>
<stop offset="0.763" stop-color="#1ED497"/>
<stop offset="0.835" stop-color="#19D1A9"/>
<stop offset="0.904" stop-color="#13CCC2"/>
<stop offset="0.971" stop-color="#0BC6E1"/>
<stop offset="1" stop-color="#07C3F2"/>
</linearGradient>
<linearGradient id="paint2_linear_87_8030" x1="4.26514" y1="35.4991" x2="10.8055" y2="14.9762" gradientUnits="userSpaceOnUse">
<stop stop-color="#21D789"/>
<stop offset="0.164" stop-color="#24D788"/>
<stop offset="0.305" stop-color="#2FD886"/>
<stop offset="0.437" stop-color="#41DA82"/>
<stop offset="0.564" stop-color="#5ADC7D"/>
<stop offset="0.688" stop-color="#7AE077"/>
<stop offset="0.809" stop-color="#A1E36E"/>
<stop offset="0.925" stop-color="#CFE865"/>
<stop offset="1" stop-color="#F1EB5E"/>
</linearGradient>
<linearGradient id="paint3_linear_87_8030" x1="12.9254" y1="17.6562" x2="27.1581" y2="-1.47932" gradientUnits="userSpaceOnUse">
<stop stop-color="#21D789"/>
<stop offset="0.061" stop-color="#24D788"/>
<stop offset="0.113" stop-color="#2FD886"/>
<stop offset="0.162" stop-color="#41DA82"/>
<stop offset="0.209" stop-color="#5ADD7D"/>
<stop offset="0.255" stop-color="#79E077"/>
<stop offset="0.258" stop-color="#7CE076"/>
<stop offset="0.499" stop-color="#8CE173"/>
<stop offset="0.925" stop-color="#B2E56B"/>
</linearGradient>
<linearGradient id="paint4_linear_87_8030" x1="34.6922" y1="20.0914" x2="6.01518" y2="19.8258" gradientUnits="userSpaceOnUse">
<stop offset="0.387" stop-color="#FCF84A"/>
<stop offset="0.536" stop-color="#ECF451"/>
<stop offset="0.826" stop-color="#C2E964"/>
<stop offset="0.925" stop-color="#B2E56B"/>
</linearGradient>
<clipPath id="clip0_87_8030">
<rect width="32" height="32" fill="white"/>
</clipPath>
</defs>
</svg>
