<svg width="32" height="23" viewBox="0 0 32 23" fill="none" xmlns="http://www.w3.org/2000/svg">
<path fill-rule="evenodd" clip-rule="evenodd" d="M6.56449 7.19768C4.21015 6.14946 1.45183 7.20828 0.403613 9.56263C-0.644608 11.917 0.414213 14.6753 2.76856 15.7235L7.64045 17.8926C8.44313 18.25 9.29275 18.3624 10.1056 18.2622V18.4294H21.8925V18.2622C22.7053 18.3624 23.5549 18.25 24.3576 17.8926L29.2296 15.7235C31.5838 14.6753 32.6426 11.917 31.5945 9.56263C30.5463 7.20828 27.7879 6.14946 25.4336 7.19768L21.8925 8.77427V7.76352H10.1056V8.77427L6.56449 7.19768ZM10.1056 10.2337L6.02222 8.41565C5.18138 8.04129 4.33133 8.01903 3.47205 8.34887C2.61277 8.67872 1.99595 9.26406 1.62158 10.1049C1.24722 10.9457 1.22497 11.7958 1.55481 12.6551C1.88466 13.5143 2.47 14.1312 3.31084 14.5055L8.18273 16.6746C8.81841 16.9577 9.45935 17.0394 10.1056 16.92V10.2337ZM21.8925 16.92V10.2337L25.9758 8.41565C26.8166 8.04129 27.6667 8.01903 28.526 8.34887C29.3852 8.67872 30.002 9.26406 30.3764 10.1049C30.7508 10.9457 30.773 11.7958 30.4432 12.6551C30.1134 13.5143 29.528 14.1312 28.6872 14.5055L23.8153 16.6746C23.1797 16.9577 22.5387 17.0394 21.8925 16.92Z" fill="#0E9495"/>
<path d="M5.33301 15.5988C5.33301 18.046 6.99848 20.179 9.37254 20.7726L12.7653 21.6208C14.8884 22.1515 17.1095 22.1515 19.2326 21.6208L22.6253 20.7726C24.9994 20.179 26.6648 18.046 26.6648 15.5988V8.39296C26.6648 6.37298 25.5236 4.52638 23.7169 3.62301L19.5764 1.55277C17.3243 0.426744 14.6735 0.426744 12.4215 1.55277L8.281 3.62301C6.47427 4.52638 5.33301 6.37298 5.33301 8.39296V15.5988Z" fill="url(#paint0_radial_103_1618)"/>
<path fill-rule="evenodd" clip-rule="evenodd" d="M15.9995 22.0187V0.708252C17.2252 0.708252 18.4509 0.98976 19.577 1.55278L23.7174 3.62302C25.5242 4.52637 26.6654 6.37298 26.6654 8.39296V15.5988C26.6654 18.0459 25 20.179 22.6259 20.7726L19.2331 21.6208C18.1716 21.8861 17.0855 22.0187 15.9995 22.0187Z" fill="#0E9495" fill-opacity="0.3"/>
<path d="M11.7883 4.46462L14.9533 3.40963C15.6489 3.17776 16.3452 3.17565 17.0422 3.40332L20.2876 4.46336L19.8736 5.73071L16.6283 4.67066C16.2101 4.53406 15.7923 4.53532 15.3749 4.67445L12.2099 5.72944L11.7883 4.46462ZM12.6658 5.09703C12.6658 5.14081 12.6615 5.18416 12.6529 5.22709C12.6444 5.27001 12.6318 5.31169 12.615 5.35213C12.5983 5.39258 12.5777 5.43099 12.5534 5.46739C12.5291 5.50378 12.5015 5.53745 12.4705 5.5684C12.4396 5.59936 12.4059 5.62699 12.3695 5.6513C12.3331 5.67562 12.2947 5.69615 12.2542 5.71291C12.2138 5.72966 12.1721 5.74231 12.1292 5.75084C12.0863 5.75938 12.0429 5.76365 11.9991 5.76365C11.9554 5.76365 11.912 5.75938 11.8691 5.75084C11.8262 5.74231 11.7845 5.72966 11.744 5.71291C11.7036 5.69615 11.6652 5.67562 11.6288 5.6513C11.5924 5.62699 11.5587 5.59936 11.5278 5.5684C11.4968 5.53745 11.4692 5.50378 11.4449 5.46739C11.4205 5.43099 11.4 5.39258 11.3833 5.35213C11.3665 5.31169 11.3539 5.27001 11.3453 5.22709C11.3368 5.18416 11.3325 5.14081 11.3325 5.09703C11.3325 5.05326 11.3368 5.00991 11.3453 4.96698C11.3539 4.92405 11.3665 4.88237 11.3833 4.84193C11.4 4.80149 11.4205 4.76307 11.4449 4.72668C11.4692 4.69028 11.4968 4.65661 11.5278 4.62566C11.5587 4.59471 11.5924 4.56708 11.6288 4.54276C11.6652 4.51844 11.7036 4.49791 11.744 4.48116C11.7845 4.46441 11.8262 4.45176 11.8691 4.44322C11.912 4.43468 11.9554 4.43041 11.9991 4.43041C12.0429 4.43041 12.0863 4.43468 12.1292 4.44322C12.1721 4.45176 12.2138 4.46441 12.2542 4.48116C12.2947 4.49791 12.3331 4.51844 12.3695 4.54276C12.4059 4.56708 12.4396 4.59471 12.4705 4.62566C12.5015 4.65661 12.5291 4.69028 12.5534 4.72668C12.5777 4.76307 12.5983 4.80149 12.615 4.84193C12.6318 4.88237 12.6444 4.92405 12.6529 4.96698C12.6615 5.00991 12.6658 5.05326 12.6658 5.09703ZM20.7472 5.09703C20.7472 5.14081 20.7429 5.18416 20.7344 5.22709C20.7259 5.27001 20.7132 5.31169 20.6965 5.35213C20.6797 5.39258 20.6592 5.43099 20.6349 5.46739C20.6106 5.50378 20.5829 5.53745 20.552 5.5684C20.521 5.59936 20.4873 5.62699 20.451 5.6513C20.4146 5.67562 20.3761 5.69615 20.3357 5.71291C20.2953 5.72966 20.2536 5.74231 20.2107 5.75084C20.1677 5.75938 20.1244 5.76365 20.0806 5.76365C20.0368 5.76365 19.9935 5.75938 19.9506 5.75084C19.9076 5.74231 19.8659 5.72966 19.8255 5.71291C19.7851 5.69615 19.7466 5.67562 19.7102 5.6513C19.6739 5.62699 19.6402 5.59936 19.6092 5.5684C19.5783 5.53745 19.5506 5.50378 19.5263 5.46739C19.502 5.43099 19.4815 5.39258 19.4647 5.35213C19.448 5.31169 19.4353 5.27001 19.4268 5.22709C19.4182 5.18416 19.414 5.14081 19.414 5.09703C19.414 5.05326 19.4182 5.00991 19.4268 4.96698C19.4353 4.92405 19.448 4.88237 19.4647 4.84193C19.4815 4.80149 19.502 4.76307 19.5263 4.72668C19.5506 4.69028 19.5783 4.65661 19.6092 4.62566C19.6402 4.59471 19.6739 4.56708 19.7102 4.54276C19.7466 4.51844 19.7851 4.49791 19.8255 4.48116C19.8659 4.46441 19.9076 4.45176 19.9506 4.44322C19.9935 4.43468 20.0368 4.43041 20.0806 4.43041C20.1244 4.43041 20.1677 4.43468 20.2107 4.44322C20.2536 4.45176 20.2953 4.46441 20.3357 4.48116C20.3761 4.49791 20.4146 4.51844 20.451 4.54276C20.4873 4.56708 20.521 4.59471 20.552 4.62566C20.5829 4.65661 20.6106 4.69028 20.6349 4.72668C20.6592 4.76307 20.6797 4.80149 20.6965 4.84193C20.7132 4.88237 20.7259 4.92405 20.7344 4.96698C20.7429 5.00991 20.7472 5.05326 20.7472 5.09703Z" fill="white"/>
<defs>
<radialGradient id="paint0_radial_103_1618" cx="0" cy="0" r="1" gradientUnits="userSpaceOnUse" gradientTransform="translate(15.9989 7.48315) rotate(90) scale(14.946)">
<stop stop-color="#05FEAF"/>
<stop offset="0.379117" stop-color="#05F8B5"/>
<stop offset="1" stop-color="#00BB9C"/>
</radialGradient>
</defs>
</svg>
