<svg width="48" height="48" viewBox="0 0 48 48" fill="none" xmlns="http://www.w3.org/2000/svg">
<circle cx="24" cy="24" r="20" fill="#1F74BD"/>
<path d="M16.4177 20.1446C17.8026 20.1446 19.289 20.8292 20.0436 21.8718C20.7975 20.8292 22.286 20.0124 23.6709 20.0124C26.0241 20.0124 28.0886 21.7296 28.0886 25.0189L28.1415 27.2378C28.1415 30.6479 30.3904 31.0845 31.3165 31.0845C32.2426 31.0845 34.4071 30.4642 34.4071 27.5536V21.4137C34.4071 20.3576 36 20.3576 36 21.4137V27.5536C35.9435 31.3903 33.1687 32.6695 31.3165 32.6695C29.4642 32.6695 26.5536 31.574 26.5536 27.2378L26.5 24.891C26.5 22.1291 24.5692 21.7303 23.6709 21.7303C22.256 21.7303 20.8418 22.9058 20.8418 24.891V31.8784C20.8418 32.3172 20.4859 32.6695 20.0479 32.6695H20.0407C19.602 32.6695 19.2468 32.3172 19.2468 31.8784V24.891C19.2468 22.9058 17.8319 21.7303 16.4177 21.7303C15.0028 21.7303 13.5879 22.4764 13.5886 25.4091V31.8784C13.5886 32.3143 13.2327 32.6695 12.7939 32.6695C12.3559 32.6695 12 32.3172 12 31.8784V25.4091C12 21.5502 14.1288 20.1446 16.4177 20.1446ZM31.1586 14.5879C29.1369 14.5879 27.9671 16.3079 27.9671 17.895C27.9671 19.0863 26.3807 19.0863 26.3807 17.895C26.3807 15.1167 28.4752 13 31.1586 13C33.8419 13 35.9371 15.1167 35.9371 17.895C35.9371 19.0863 34.3457 19.0863 34.3457 17.895C34.3457 16.3079 33.1802 14.5879 31.1586 14.5879ZM31.3115 16.8917C31.8903 16.8917 32.3598 17.3605 32.3598 17.9393C32.3598 18.5189 31.8903 18.9877 31.3115 18.9877C30.7326 18.9877 30.2639 18.5189 30.2639 17.9393C30.2639 17.3605 30.7326 16.8917 31.3115 16.8917Z" fill="white"/>
</svg>
