<svg width="32" height="32" viewBox="0 0 32 32" fill="none" xmlns="http://www.w3.org/2000/svg">
<path d="M30.899 12.61C30.6034 12.5256 30.2741 12.4858 29.5805 12.3983C26.7098 12.278 19.6154 11.9961 16.0002 11.9961C12.3851 11.9961 5.29056 12.2778 2.42016 12.3983C1.72624 12.4858 1.39664 12.5256 1.10112 12.61C0.19856 12.8275 0 13.1585 0 13.819V18.346C0 19.0066 0.69264 19.4518 1.17008 19.5416C1.64784 19.632 1.95008 19.6681 2.45264 19.717C5.02016 19.8795 10.977 20.2183 16 20.2237C21.0232 20.2188 26.9797 19.8797 29.5474 19.717C30.0498 19.6681 30.3522 19.6318 30.8301 19.5416C31.3074 19.4517 32 19.0066 32 18.346V13.819C32 13.1585 31.8016 12.8275 30.899 12.61Z" fill="url(#paint0_linear_109_818)"/>
<path d="M4.48808 12.7879C5.90056 7.76702 10.5417 4.08305 16.051 4.08305C21.5444 4.08305 26.1761 7.74675 27.6023 12.7475C27.6068 12.7651 27.6098 12.7743 27.6148 12.7913C28.4337 12.6973 29.1673 12.5521 29.6857 12.4107C29.6762 12.3785 29.6738 12.3719 29.6657 12.3402C28.0447 6.38339 22.5634 2 16.051 2C9.51656 2 4.02088 6.41184 2.41992 12.3981C3.14008 12.5997 3.6676 12.6842 4.48808 12.7879Z" fill="url(#paint1_radial_109_818)"/>
<path d="M27.5685 19.3687C27.5542 19.4133 27.5384 19.4625 27.531 19.4869C26.0291 24.3674 21.4579 27.9172 16.051 27.9172C10.6014 27.9172 6.00144 24.3127 4.536 19.3734C3.64032 19.5354 3.33776 19.5971 2.45264 19.7174C4.09264 25.6451 9.55888 30.0002 16.051 30.0002C22.5459 30.0002 28.0141 25.6405 29.651 19.7079C28.8712 19.6095 28.4118 19.5351 27.5685 19.3687Z" fill="url(#paint2_radial_109_818)"/>
<path d="M4.77629 12.777C5.11629 12.6335 5.44525 12.4046 5.95805 12.2573C7.48685 8.19859 11.4283 5.30837 16.0507 5.30837C20.6587 5.30837 24.5904 8.18077 26.1288 12.2198C26.1342 12.2336 26.1398 12.2502 26.1441 12.2606C26.4088 12.3542 27.1885 12.6773 27.431 12.7854C27.4654 12.7862 27.5388 12.7888 27.6147 12.7909C27.6102 12.7764 27.6061 12.7618 27.6022 12.7471C26.1753 7.748 21.5438 4.08545 16.0507 4.08545C10.5429 4.08545 5.90173 7.76778 4.48877 12.7876C4.57037 12.7878 4.72573 12.7806 4.77629 12.777Z" fill="url(#paint3_radial_109_818)"/>
<path d="M15.963 4.42518C21.1171 4.42518 25.6859 7.56554 27.4164 12.7419L27.4305 12.7858C27.4574 12.7858 27.5555 12.7894 27.6142 12.7914C27.6096 12.7726 27.6048 12.7617 27.6017 12.7476C26.1748 7.74849 21.5433 4.08594 16.0502 4.08594C10.5424 4.08594 5.90124 7.76827 4.48828 12.7881C4.59836 12.7863 4.65132 12.7863 4.77612 12.7773C6.32332 7.8631 10.8468 4.42518 15.963 4.42518Z" fill="white"/>
<path d="M27.2763 19.3827C26.906 19.5941 26.4451 19.7975 26.0766 19.9164C26.0716 19.9284 26.0507 19.9821 26.0462 19.9947C24.4523 23.9221 20.5776 26.6944 16.0508 26.6944C11.4956 26.6944 7.60108 23.8884 6.02572 19.9221C5.60188 19.8019 4.96828 19.5066 4.72844 19.3834C4.63868 19.379 4.59036 19.3763 4.53516 19.3734C6.0006 24.312 10.6014 27.9172 16.051 27.9172C21.476 27.9172 26.059 24.345 27.5459 19.4412C27.5491 19.4318 27.5656 19.3778 27.5691 19.3687C27.4832 19.3721 27.3518 19.3827 27.2763 19.3827Z" fill="url(#paint4_radial_109_818)"/>
<path d="M30.6426 12.9378C29.8822 12.8433 29.3638 12.8535 27.5117 12.7882C27.4275 12.7851 27.3419 12.7825 27.255 12.7794C23.8966 12.6617 18.8518 12.5044 16 12.5044C13.1483 12.5044 8.10368 12.6617 4.7448 12.7794C4.65808 12.7825 4.5728 12.7851 4.4888 12.7882C2.63632 12.8535 2.11808 12.8433 1.3576 12.9378C0.59728 13.0331 0 13.3734 0 13.952V18.1499C0 18.7289 0.71952 19.1976 1.35744 19.1976C1.35744 19.1976 9.4768 19.7098 16 19.7159C22.5234 19.7098 30.6426 19.1976 30.6426 19.1976C31.2805 19.1976 32 18.7289 32 18.1499V13.952C32 13.3734 31.4029 13.0331 30.6426 12.9378Z" fill="url(#paint5_radial_109_818)"/>
<path d="M27.2763 19.3829C25.6829 24.2129 21.2016 27.5776 16.1397 27.5776C11.0262 27.5776 6.48893 24.4866 4.72797 19.3829C4.66333 19.3794 4.59933 19.3768 4.53613 19.3731C6.00125 24.3118 10.6029 27.917 16.0526 27.917C21.5041 27.917 26.1062 24.3096 27.5701 19.3682C27.4737 19.3727 27.376 19.3781 27.2763 19.3829Z" fill="white"/>
<path d="M27.2856 19.3823L27.2759 19.3827C26.9056 19.594 26.445 19.7974 26.0762 19.9163C26.0712 19.9284 26.0503 19.982 26.046 19.9946C25.5416 21.2375 24.8088 22.3646 23.8984 23.3251C25.3234 22.2606 26.4856 20.9157 27.2856 19.3823Z" fill="#8C8C8C"/>
<path d="M8.5106 23.6377C7.43892 22.5946 6.5858 21.332 6.0258 19.9218C5.60196 19.8015 4.96852 19.5061 4.72852 19.3828C4.98498 19.9261 5.28736 20.4455 5.6322 20.935C6.33764 21.8738 7.19268 22.7105 8.16596 23.4186C8.27924 23.4945 8.39412 23.5674 8.5106 23.6377Z" fill="#4D4D4D"/>
<path d="M4.53584 19.3734V19.373L4.53216 19.3737C3.63936 19.5354 3.33648 19.5974 2.45264 19.717C2.52384 19.9754 2.60272 20.2299 2.68864 20.4819L4.53584 19.3734Z" fill="#252525"/>
<path d="M22.5018 14.7967C22.2349 14.1872 22.3297 14.2511 21.7487 14.2354C21.7015 14.2191 21.5756 14.2191 21.4031 14.2191C21.2309 14.2191 21.1993 14.2191 21.0578 14.2354C20.5087 14.2354 20.6028 14.2034 20.4146 14.6042C20.4146 14.6042 19.4721 16.7692 19.0644 17.6673L19.0487 17.6993C18.9703 17.8594 19.0175 17.8594 19.1428 17.8594H19.9906C20.0537 17.8594 20.0847 17.828 20.1004 17.7953C20.1004 17.7953 20.226 17.5226 20.3829 17.1379H22.4548C22.6119 17.5069 22.7217 17.7793 22.7217 17.7953C22.7373 17.8435 22.7845 17.8594 22.8314 17.8594H23.7105C23.8361 17.8594 23.8676 17.8762 23.8205 17.7632C23.6633 17.3785 22.6431 15.133 22.5018 14.7967ZM20.6965 16.3682C20.9634 15.7268 21.2306 15.1014 21.2306 15.0852C21.2465 15.053 21.2778 15.037 21.3247 15.037C21.3405 15.0207 21.3879 15.0207 21.4348 15.0207C21.4663 15.0207 21.513 15.0207 21.5289 15.037C21.5601 15.037 21.5921 15.053 21.6071 15.1013C21.6705 15.2773 21.9053 15.8229 22.125 16.3682H20.6965ZM9.39541 14.187C9.47381 14.187 9.48965 14.2189 9.48965 14.2831V17.7157C9.48965 17.7954 9.47381 17.8281 9.37989 17.8281H8.56357C8.46965 17.8281 8.45397 17.8118 8.45397 17.7157V14.2831C8.45397 14.2189 8.46965 14.187 8.53221 14.187H9.39541ZM7.65317 14.2189C7.74709 14.2189 7.76325 14.2508 7.76325 14.3314V17.7477C7.76325 17.8442 7.74709 17.8602 7.65317 17.8602H6.69557C6.13077 17.8602 6.08357 17.8602 5.89541 17.5397C5.50293 16.9144 4.32549 15.0699 4.32549 15.0699V17.748C4.32549 17.8447 4.30981 17.8604 4.21589 17.8604H3.50933C3.41525 17.8604 3.39941 17.8447 3.39941 17.748V14.3314C3.39941 14.2511 3.41525 14.2189 3.50933 14.2189H4.32549C4.93765 14.2189 5.01605 14.203 5.23621 14.5238C5.40869 14.8127 6.83701 17.0579 6.83701 17.0579V14.3314C6.83701 14.2511 6.85269 14.2189 6.94709 14.2189H7.65317ZM28.6074 14.2189C28.7021 14.2189 28.7175 14.2508 28.7175 14.3314V17.7477C28.7175 17.8442 28.7018 17.8602 28.6074 17.8602H27.6508C27.0852 17.8602 27.038 17.8602 26.8498 17.5397C26.457 16.9139 25.2799 15.0695 25.2799 15.0695V17.7479C25.2799 17.8443 25.2642 17.86 25.1698 17.86H24.4639C24.3698 17.86 24.3537 17.8443 24.3537 17.7479V14.3314C24.3537 14.2511 24.37 14.2189 24.4639 14.2189H25.2799C25.8921 14.2189 25.9708 14.203 26.1901 14.5238C26.3786 14.8127 27.7914 17.0579 27.7914 17.0579V14.3314C27.7914 14.2511 27.8073 14.2189 27.9015 14.2189H28.6074ZM12.99 15.6148C13.618 15.6787 14.0733 15.7909 14.1988 16.4005C14.1988 16.4483 14.2146 16.6088 14.2146 16.7854C14.2146 16.8979 14.2146 17.0417 14.1831 17.1703C14.0735 17.7475 13.6493 17.8597 12.9905 17.8597H10.353C10.2588 17.8597 10.2429 17.844 10.2429 17.7475V17.1703C10.2429 17.0738 10.2588 17.0578 10.353 17.0578H13.021C13.1311 17.0578 13.1625 17.0259 13.178 16.9453V16.8009V16.7048C13.1621 16.6404 13.1466 16.5442 13.0055 16.5285C12.7071 16.5125 11.8284 16.4321 11.2316 16.3682C10.4625 16.2879 10.2743 15.9514 10.2428 15.6625C10.2271 15.5661 10.2271 15.4379 10.2271 15.3256C10.2271 15.2293 10.2271 15.0851 10.2428 14.9726C10.3529 14.4591 10.7297 14.2189 11.3885 14.2189H13.9469C14.0415 14.2189 14.073 14.2352 14.073 14.3152V14.9088C14.073 14.9885 14.0415 15.0208 13.9469 15.0048H11.4357C11.3258 15.0048 11.2789 15.0529 11.2629 15.165V15.3094C11.2629 15.3897 11.3101 15.4539 11.4199 15.4694C11.7188 15.5021 12.6445 15.5823 12.99 15.6148ZM17.5258 15.6148C18.1543 15.6787 18.6092 15.7909 18.7349 16.4005C18.7349 16.4483 18.7506 16.6088 18.7506 16.7854C18.7506 16.8979 18.7506 17.0417 18.7193 17.1703C18.6097 17.7475 18.186 17.8597 17.5265 17.8597H14.8892C14.7949 17.8597 14.7791 17.844 14.7791 17.7475V17.1703C14.7791 17.0738 14.7949 17.0578 14.8892 17.0578H17.5577C17.6674 17.0578 17.6983 17.0259 17.7145 16.9453V16.8009V16.7048C17.6981 16.6404 17.6671 16.5442 17.5417 16.5285C17.2436 16.5125 16.3645 16.4321 15.7682 16.3682C14.9988 16.2879 14.8265 15.9514 14.7791 15.6625C14.7634 15.5661 14.7634 15.4379 14.7634 15.3256C14.7634 15.2293 14.7634 15.0851 14.7791 14.9726C14.8892 14.4591 15.2658 14.2189 15.9249 14.2189H18.4837C18.5775 14.2189 18.6093 14.2352 18.6093 14.3152V14.9088C18.6093 14.9885 18.5775 15.0208 18.4837 15.0048H15.9721C15.8623 15.0048 15.8154 15.0529 15.7994 15.165V15.3094C15.7994 15.3897 15.8309 15.4539 15.9567 15.4694C16.2549 15.5021 17.1807 15.5823 17.5258 15.6148Z" fill="url(#paint6_radial_109_818)"/>
<defs>
<linearGradient id="paint0_linear_109_818" x1="16" y1="2.41349" x2="16" y2="25.2045" gradientUnits="userSpaceOnUse">
<stop offset="0.194" stop-color="white"/>
<stop offset="0.208" stop-color="#F8F8F8"/>
<stop offset="0.366" stop-color="#AEAEAE"/>
<stop offset="0.513" stop-color="#707070"/>
<stop offset="0.647" stop-color="#404040"/>
<stop offset="0.764" stop-color="#1D1D1D"/>
<stop offset="0.86" stop-color="#080808"/>
<stop offset="0.922"/>
</linearGradient>
<radialGradient id="paint1_radial_109_818" cx="0" cy="0" r="1" gradientUnits="userSpaceOnUse" gradientTransform="translate(7.0172 -3.62887) scale(22.3141 22.8011)">
<stop offset="0.202" stop-color="white"/>
<stop offset="0.382" stop-color="#FDFDFD"/>
<stop offset="0.487" stop-color="#F4F4F4"/>
<stop offset="0.573" stop-color="#E6E6E6"/>
<stop offset="0.648" stop-color="#D2D2D2"/>
<stop offset="0.689" stop-color="#C4C4C4"/>
<stop offset="1" stop-color="#333333"/>
</radialGradient>
<radialGradient id="paint2_radial_109_818" cx="0" cy="0" r="1" gradientUnits="userSpaceOnUse" gradientTransform="translate(61.0186 32.8929) scale(46.472 47.4863)">
<stop offset="0.202" stop-color="white"/>
<stop offset="0.368" stop-color="#E4E4E4"/>
<stop offset="0.594" stop-color="#C4C4C4"/>
<stop offset="1" stop-color="#333333"/>
</radialGradient>
<radialGradient id="paint3_radial_109_818" cx="0" cy="0" r="1" gradientUnits="userSpaceOnUse" gradientTransform="translate(12.3768 22.4136) scale(14.267 14.5784)">
<stop offset="0.202" stop-color="white"/>
<stop offset="0.368" stop-color="#E4E4E4"/>
<stop offset="0.594" stop-color="#C4C4C4"/>
<stop offset="1" stop-color="#333333"/>
</radialGradient>
<radialGradient id="paint4_radial_109_818" cx="0" cy="0" r="1" gradientUnits="userSpaceOnUse" gradientTransform="translate(23.8899 37.3206) scale(27.071 27.6619)">
<stop offset="0.202" stop-color="white"/>
<stop offset="0.368" stop-color="#E4E4E4"/>
<stop offset="0.594" stop-color="#C4C4C4"/>
<stop offset="1" stop-color="#333333"/>
</radialGradient>
<radialGradient id="paint5_radial_109_818" cx="0" cy="0" r="1" gradientUnits="userSpaceOnUse" gradientTransform="translate(15.7856 4.88468) scale(21.5123 21.9818)">
<stop offset="0.202" stop-color="white"/>
<stop offset="0.397" stop-color="#FDFDFD"/>
<stop offset="0.51" stop-color="#F4F4F4"/>
<stop offset="0.603" stop-color="#E6E6E6"/>
<stop offset="0.684" stop-color="#D2D2D2"/>
<stop offset="0.728" stop-color="#C4C4C4"/>
<stop offset="1" stop-color="#4D4D4D"/>
</radialGradient>
<radialGradient id="paint6_radial_109_818" cx="0" cy="0" r="1" gradientUnits="userSpaceOnUse" gradientTransform="translate(16.2837 7.08557) scale(14.4898 14.806)">
<stop offset="0.111" stop-color="#4D4D4D"/>
<stop offset="0.248" stop-color="#494949"/>
<stop offset="0.355" stop-color="#404040"/>
<stop offset="0.451" stop-color="#2F2F2F"/>
<stop offset="0.541" stop-color="#181818"/>
<stop offset="0.611"/>
</radialGradient>
</defs>
</svg>
