<svg width="32" height="32" viewBox="0 0 32 32" fill="none" xmlns="http://www.w3.org/2000/svg">
<path d="M17.4546 21.3333C20.2486 24.2604 24.038 25.9048 27.9893 25.9048H32C31.036 19.3402 31.036 12.6598 32 6.09523H27.9893C24.038 6.09523 20.2486 4.45084 17.4546 1.5238V21.3333Z" fill="url(#paint0_linear_103_1683)"/>
<path fill-rule="evenodd" clip-rule="evenodd" d="M21.8182 6.09534H0V25.9049C0 26.0046 0.00438027 26.1043 0.0131406 26.204C0.021901 26.3035 0.035031 26.403 0.0525305 26.5023C0.07003 26.6016 0.0918779 26.7005 0.118075 26.7992C0.144271 26.8979 0.174784 26.9962 0.209615 27.094C0.244445 27.1919 0.283551 27.2891 0.326932 27.3859C0.370312 27.4827 0.417916 27.5788 0.469741 27.6742C0.521568 27.7696 0.577554 27.8644 0.6377 27.9583C0.697848 28.0522 0.762082 28.1452 0.830404 28.2374C0.898727 28.3296 0.971055 28.4208 1.04739 28.5109C1.12372 28.6011 1.20397 28.6902 1.28813 28.7782C1.37229 28.8661 1.46027 28.9529 1.55206 29.0384C1.64384 29.124 1.73933 29.2082 1.83852 29.2912C1.93771 29.3741 2.04048 29.4556 2.14682 29.5358C2.25318 29.6159 2.36299 29.6946 2.47625 29.7717C2.58951 29.8488 2.70609 29.9243 2.82599 29.9981C2.94589 30.0721 3.06896 30.1443 3.1952 30.2148C3.32145 30.2854 3.45071 30.3542 3.583 30.4211C3.71528 30.4881 3.85043 30.5532 3.98844 30.6165C4.12644 30.6798 4.26715 30.7411 4.41055 30.8006C4.55395 30.86 4.69988 30.9174 4.84832 30.9729C4.99677 31.0283 5.14756 31.0816 5.3007 31.1329C5.45383 31.1842 5.60913 31.2334 5.76658 31.2804C5.92403 31.3274 6.08346 31.3723 6.24486 31.415C6.40624 31.4575 6.56941 31.4979 6.73436 31.5361C6.8993 31.5743 7.06583 31.6102 7.23393 31.6438C7.40203 31.6775 7.57151 31.7087 7.74236 31.7377C7.9132 31.7667 8.08521 31.7932 8.2584 31.8174C8.43159 31.8417 8.60573 31.8635 8.78083 31.8829C8.95594 31.9024 9.13179 31.9195 9.30839 31.9341C9.48499 31.9487 9.66213 31.9609 9.83981 31.9707C10.0175 31.9805 10.1955 31.9879 10.3738 31.9928C10.5521 31.9977 10.7306 32.0001 10.9091 32.0001C11.0876 32.0001 11.2661 31.9977 11.4444 31.9928C11.6227 31.9879 11.8007 31.9805 11.9784 31.9707C12.156 31.9609 12.3332 31.9487 12.5098 31.9341C12.6864 31.9195 12.8622 31.9024 13.0374 31.8829C13.2125 31.8635 13.3866 31.8417 13.5598 31.8174C13.733 31.7932 13.905 31.7667 14.0758 31.7377C14.2467 31.7087 14.4162 31.6775 14.5843 31.6438C14.7523 31.6102 14.9188 31.5743 15.0838 31.5361C15.2487 31.4979 15.4119 31.4575 15.5734 31.415C15.7347 31.3723 15.8942 31.3274 16.0516 31.2804C16.209 31.2334 16.3643 31.1842 16.5175 31.1329C16.6706 31.0816 16.8214 31.0283 16.9699 30.9729C17.1184 30.9174 17.2642 30.86 17.4076 30.8006C17.551 30.7411 17.6917 30.6798 17.8297 30.6165C17.9678 30.5532 18.1029 30.4881 18.2352 30.4211C18.3675 30.3542 18.4967 30.2854 18.623 30.2148C18.7492 30.1443 18.8723 30.0721 18.9921 29.9981C19.1121 29.9243 19.2287 29.8488 19.342 29.7717C19.4552 29.6946 19.565 29.6159 19.6714 29.5358C19.7777 29.4556 19.8804 29.3741 19.9796 29.2912C20.0788 29.2082 20.1744 29.124 20.2662 29.0384C20.3579 28.9529 20.4459 28.8661 20.53 28.7782C20.6142 28.6902 20.6944 28.6011 20.7708 28.5109C20.8471 28.4208 20.9194 28.3296 20.9878 28.2374C21.0561 28.1452 21.1204 28.0522 21.1805 27.9583C21.2406 27.8644 21.2966 27.7696 21.3485 27.6742C21.4003 27.5788 21.4479 27.4827 21.4912 27.3859C21.5346 27.2891 21.5738 27.1919 21.6086 27.094C21.6434 26.9962 21.6739 26.8979 21.7001 26.7992C21.7263 26.7005 21.7481 26.6016 21.7657 26.5023C21.7831 26.403 21.7963 26.3035 21.8051 26.204C21.8138 26.1043 21.8182 26.0046 21.8182 25.9049V6.09534Z" fill="url(#paint1_linear_103_1683)"/>
<path d="M10.9091 12.1905C16.934 12.1905 21.8182 9.46155 21.8182 6.09524C21.8182 2.72893 16.934 0 10.9091 0C4.88417 0 0 2.72893 0 6.09524C0 9.46155 4.88417 12.1905 10.9091 12.1905Z" fill="url(#paint2_linear_103_1683)"/>
<path d="M10.9088 7.61916C12.9171 7.61916 14.5452 6.59581 14.5452 5.33344C14.5452 4.07108 12.9171 3.04773 10.9088 3.04773C8.90052 3.04773 7.27246 4.07108 7.27246 5.33344C7.27246 6.59581 8.90052 7.61916 10.9088 7.61916Z" fill="url(#paint3_linear_103_1683)"/>
<defs>
<linearGradient id="paint0_linear_103_1683" x1="20.7074" y1="10.944" x2="31.8975" y2="10.8674" gradientUnits="userSpaceOnUse">
<stop stop-color="#F97D00"/>
<stop offset="1" stop-color="#FBC65F"/>
</linearGradient>
<linearGradient id="paint1_linear_103_1683" x1="0" y1="15.6319" x2="21.8182" y2="15.6319" gradientUnits="userSpaceOnUse">
<stop stop-color="#FED783"/>
<stop offset="0.28453" stop-color="#FDE0A2"/>
<stop offset="1" stop-color="#FAB127"/>
</linearGradient>
<linearGradient id="paint2_linear_103_1683" x1="10.9091" y1="12.287" x2="10.9091" y2="0" gradientUnits="userSpaceOnUse">
<stop stop-color="#FCF1D6"/>
<stop offset="1" stop-color="#FFD272"/>
</linearGradient>
<linearGradient id="paint3_linear_103_1683" x1="10.9088" y1="3.04773" x2="10.9088" y2="7.61916" gradientUnits="userSpaceOnUse">
<stop stop-color="#FAB227"/>
<stop offset="1" stop-color="#FA8E27"/>
</linearGradient>
</defs>
</svg>
