<svg width="33" height="29" viewBox="0 0 33 29" fill="none" xmlns="http://www.w3.org/2000/svg">
<path d="M8.78271 16.6242L12.2227 26.9454L28.0848 6.67813V4.80151L17.8604 9.58687L8.78271 16.6242Z" fill="url(#paint0_linear_103_1561)"/>
<path d="M12.2227 26.9454L28.0848 12.0734V4.80151L22.3515 12.6833L13.3693 18.5008L12.2227 26.9454Z" fill="url(#paint1_linear_103_1561)"/>
<path d="M1.9044 11.45C0.611678 11.9303 0.628604 13.7646 1.92996 14.221L8.78229 16.6241L28.0844 4.80145L13.369 18.5008L25.6405 27.7826C26.5064 28.4375 27.7593 27.9626 27.9734 26.8981L32.9143 2.32681C33.1417 1.19533 32.0388 0.253539 30.9569 0.655507L1.9044 11.45Z" fill="url(#paint2_linear_103_1561)"/>
<defs>
<linearGradient id="paint0_linear_103_1561" x1="18.4338" y1="4.80151" x2="18.4338" y2="26.9454" gradientUnits="userSpaceOnUse">
<stop stop-color="#FAC227"/>
<stop offset="1" stop-color="#FAA627"/>
</linearGradient>
<linearGradient id="paint1_linear_103_1561" x1="20.1537" y1="12.4874" x2="20.1537" y2="26.9454" gradientUnits="userSpaceOnUse">
<stop stop-color="#FA7F27"/>
<stop offset="1" stop-color="#FA9427"/>
</linearGradient>
<linearGradient id="paint2_linear_103_1561" x1="16.9443" y1="0.561035" x2="16.9443" y2="28.0821" gradientUnits="userSpaceOnUse">
<stop stop-color="#FCE4B1"/>
<stop offset="1" stop-color="#FFD272"/>
</linearGradient>
</defs>
</svg>
