<svg width="48" height="48" viewBox="0 0 48 48" fill="none" xmlns="http://www.w3.org/2000/svg">
<circle cx="24" cy="24" r="20" fill="#0070BA"/>
<path d="M32.3305 18.0977C32.3082 18.24 32.2828 18.3856 32.2542 18.5351C31.2704 23.5861 27.9046 25.331 23.606 25.331H21.4173C20.8916 25.331 20.4486 25.7127 20.3667 26.2313L19.2461 33.3381L18.9288 35.3527C18.8755 35.693 19.1379 36 19.4815 36H23.3634C23.8231 36 24.2136 35.666 24.286 35.2127L24.3241 35.0154L25.055 30.3772L25.1019 30.1227C25.1735 29.6678 25.5648 29.3338 26.0245 29.3338H26.6051C30.3661 29.3338 33.3103 27.8068 34.1708 23.388C34.5303 21.5421 34.3442 20.0008 33.393 18.9168C33.1051 18.59 32.748 18.3188 32.3305 18.0977Z" fill="white" fill-opacity="0.6"/>
<path d="M31.3009 17.6871C31.1506 17.6434 30.9955 17.6036 30.8364 17.5678C30.6766 17.5328 30.5127 17.5018 30.3441 17.4748C29.754 17.3793 29.1074 17.334 28.4147 17.334H22.5676C22.4237 17.334 22.2869 17.3666 22.1644 17.4254C21.8948 17.5551 21.6944 17.8104 21.6459 18.1229L20.402 26.0013L20.3662 26.2311C20.4481 25.7126 20.8911 25.3308 21.4168 25.3308H23.6055C27.9041 25.3308 31.2699 23.5851 32.2537 18.5349C32.2831 18.3854 32.3078 18.2398 32.33 18.0975C32.0811 17.9655 31.8115 17.8525 31.5212 17.7563C31.4496 17.7324 31.3757 17.7094 31.3009 17.6871Z" fill="white" fill-opacity="0.8"/>
<path d="M21.6461 18.1231C21.6946 17.8105 21.895 17.5552 22.1646 17.4264C22.2879 17.3675 22.4239 17.3349 22.5678 17.3349H28.4149C29.1077 17.3349 29.7542 17.3803 30.3444 17.4757C30.513 17.5027 30.6768 17.5338 30.8367 17.5687C30.9957 17.6045 31.1508 17.6443 31.3011 17.688C31.3759 17.7103 31.4498 17.7334 31.5222 17.7564C31.8125 17.8527 32.0821 17.9664 32.331 18.0976C32.6237 16.231 32.3287 14.9601 31.3194 13.8093C30.2068 12.5424 28.1986 12 25.629 12H18.169C17.6441 12 17.1963 12.3817 17.1152 12.9011L14.0079 32.5969C13.9467 32.9866 14.2473 33.3381 14.6402 33.3381H19.2458L20.4022 26.0014L21.6461 18.1231Z" fill="white"/>
</svg>
