<svg width="48" height="48" viewBox="0 0 48 48" fill="none" xmlns="http://www.w3.org/2000/svg">
<circle cx="24" cy="24" r="20" fill="#BD081C"/>
<path fill-rule="evenodd" clip-rule="evenodd" d="M24.8523 12C18.3024 12 15 16.6959 15 20.6118C15 22.9826 15.8978 25.0924 17.8231 25.8777C18.1389 26.0067 18.4216 25.8822 18.5131 25.5327C18.5769 25.2905 18.7276 24.6799 18.7944 24.4257C18.8866 24.0799 18.8506 23.9592 18.5956 23.6577C18.0406 23.0029 17.6858 22.1553 17.6858 20.9546C17.6858 17.4699 20.2929 14.3513 24.4736 14.3513C28.1757 14.3513 30.2098 16.6141 30.2098 19.6345C30.2098 23.6096 28.4502 26.9645 25.8394 26.9645C24.3971 26.9645 23.3178 25.7712 23.6636 24.3087C24.0776 22.5626 24.8808 20.6771 24.8808 19.417C24.8808 18.289 24.2748 17.3477 23.0215 17.3477C21.547 17.3477 20.3627 18.8725 20.3627 20.9156C20.3627 22.2169 20.8022 23.0974 20.8022 23.0974C20.8022 23.0974 19.2931 29.4899 19.0291 30.6097C18.5026 32.8395 18.9504 35.5726 18.9879 35.8486C19.0104 36.0121 19.2204 36.0511 19.3156 35.9266C19.4514 35.7496 21.2072 33.5812 21.8042 31.4152C21.973 30.8024 22.774 27.6261 22.774 27.6261C23.2525 28.5396 24.6528 29.3444 26.1416 29.3444C30.5735 29.3444 33.5796 25.304 33.5796 19.8955C33.5796 15.8079 30.1168 12 24.8523 12Z" fill="white"/>
</svg>
