<svg width="27" height="32" viewBox="0 0 27 32" fill="none" xmlns="http://www.w3.org/2000/svg">
<path d="M23.2728 0H2.90914C2.10581 0 1.45459 0.651222 1.45459 1.45455V27.6364C1.45459 28.4397 2.10581 29.0909 2.90914 29.0909H23.2728C24.0761 29.0909 24.7273 28.4397 24.7273 27.6364V1.45455C24.7273 0.651222 24.0761 0 23.2728 0Z" fill="url(#paint0_linear_103_1420)"/>
<path d="M24.7273 2.90906H1.45455C0.651222 2.90906 0 3.56028 0 4.3636V30.5454C0 31.3487 0.651222 32 1.45455 32H24.7273C25.5306 32 26.1818 31.3487 26.1818 30.5454V4.3636C26.1818 3.56028 25.5306 2.90906 24.7273 2.90906Z" fill="url(#paint1_linear_103_1420)"/>
<g filter="url(#filter0_f_103_1420)">
<path d="M20.3633 10.1818C20.3633 12.1902 19.6533 13.9043 18.2332 15.3244C16.8131 16.7445 15.0989 17.4546 13.0906 17.4546C11.0823 17.4546 9.36809 16.7445 7.948 15.3244C6.52792 13.9043 5.81787 12.1902 5.81787 10.1818H8.72696C8.72696 11.3868 9.15299 12.4153 10.005 13.2674C10.8571 14.1194 11.8856 14.5455 13.0906 14.5455C14.2956 14.5455 15.3241 14.1194 16.1762 13.2674C17.0282 12.4153 17.4542 11.3868 17.4542 10.1818H20.3633ZM20.3633 10.1818C20.3633 10.2773 20.354 10.3719 20.3354 10.4656C20.3167 10.5593 20.2892 10.6502 20.2526 10.7385C20.2161 10.8267 20.1713 10.9105 20.1182 10.9899C20.0651 11.0694 20.0048 11.1428 19.9373 11.2104C19.8698 11.2779 19.7963 11.3382 19.7169 11.3913C19.6375 11.4443 19.5536 11.4891 19.4654 11.5257C19.3772 11.5622 19.2862 11.5898 19.1925 11.6084C19.0989 11.6271 19.0043 11.6364 18.9088 11.6364C18.8133 11.6364 18.7187 11.6271 18.625 11.6084C18.5313 11.5898 18.4404 11.5622 18.3522 11.5257C18.2639 11.4891 18.1801 11.4443 18.1007 11.3913C18.0213 11.3382 17.9478 11.2779 17.8803 11.2104C17.8127 11.1428 17.7524 11.0694 17.6994 10.9899C17.6463 10.9105 17.6015 10.8267 17.565 10.7385C17.5284 10.6502 17.5008 10.5593 17.4822 10.4656C17.4636 10.3719 17.4542 10.2773 17.4542 10.1818C17.4542 10.0863 17.4636 9.99174 17.4822 9.89807C17.5008 9.8044 17.5284 9.71345 17.565 9.62521C17.6015 9.53697 17.6463 9.45315 17.6994 9.37374C17.7524 9.29433 17.8127 9.22086 17.8803 9.15332C17.9478 9.08579 18.0213 9.02549 18.1007 8.97243C18.1801 8.91937 18.2639 8.87457 18.3522 8.83802C18.4404 8.80147 18.5313 8.77388 18.625 8.75524C18.7187 8.73661 18.8133 8.72729 18.9088 8.72729C19.0043 8.72729 19.0989 8.73661 19.1925 8.75524C19.2862 8.77388 19.3772 8.80147 19.4654 8.83802C19.5536 8.87457 19.6375 8.91937 19.7169 8.97243C19.7963 9.02549 19.8698 9.08579 19.9373 9.15332C20.0048 9.22086 20.0651 9.29433 20.1182 9.37374C20.1713 9.45315 20.2161 9.53697 20.2526 9.62521C20.2892 9.71345 20.3167 9.8044 20.3354 9.89807C20.354 9.99174 20.3633 10.0863 20.3633 10.1818ZM8.72696 10.1818C8.72696 10.2773 8.71765 10.3719 8.69901 10.4656C8.68038 10.5593 8.65279 10.6502 8.61624 10.7385C8.57969 10.8267 8.53489 10.9105 8.48183 10.9899C8.42877 11.0694 8.36847 11.1428 8.30094 11.2104C8.2334 11.2779 8.15993 11.3382 8.08052 11.3913C8.00111 11.4443 7.91728 11.4891 7.82905 11.5257C7.74081 11.5622 7.64986 11.5898 7.55618 11.6084C7.46251 11.6271 7.36792 11.6364 7.27242 11.6364C7.17691 11.6364 7.08232 11.6271 6.98865 11.6084C6.89498 11.5898 6.80402 11.5622 6.71579 11.5257C6.62755 11.4891 6.54373 11.4443 6.46432 11.3913C6.3849 11.3382 6.31143 11.2779 6.2439 11.2104C6.17636 11.1428 6.11607 11.0694 6.06301 10.9899C6.00995 10.9105 5.96514 10.8267 5.92859 10.7385C5.89204 10.6502 5.86445 10.5593 5.84582 10.4656C5.82719 10.3719 5.81787 10.2773 5.81787 10.1818C5.81787 10.0863 5.82719 9.99174 5.84582 9.89807C5.86445 9.8044 5.89204 9.71345 5.92859 9.62521C5.96514 9.53697 6.00995 9.45315 6.06301 9.37374C6.11607 9.29433 6.17636 9.22086 6.2439 9.15332C6.31143 9.08579 6.3849 9.02549 6.46432 8.97243C6.54373 8.91937 6.62755 8.87457 6.71579 8.83802C6.80402 8.80147 6.89498 8.77388 6.98865 8.75524C7.08232 8.73661 7.17691 8.72729 7.27242 8.72729C7.36792 8.72729 7.46251 8.73661 7.55618 8.75524C7.64986 8.77388 7.74081 8.80147 7.82905 8.83802C7.91728 8.87457 8.00111 8.91937 8.08052 8.97243C8.15993 9.02549 8.2334 9.08579 8.30094 9.15332C8.36847 9.22086 8.42877 9.29433 8.48183 9.37374C8.53489 9.45315 8.57969 9.53697 8.61624 9.62521C8.65279 9.71345 8.68038 9.8044 8.69901 9.89807C8.71765 9.99174 8.72696 10.0863 8.72696 10.1818Z" fill="black" fill-opacity="0.2"/>
</g>
<path d="M8.72696 8.72725C8.72696 9.93223 9.15299 10.9608 10.005 11.8128C10.8571 12.6649 11.8856 13.0909 13.0906 13.0909C14.2956 13.0909 15.3241 12.6649 16.1762 11.8128C17.0282 10.9608 17.4542 9.93224 17.4542 8.72725H20.3633C20.3633 10.7356 19.6533 12.4498 18.2332 13.8698C16.8131 15.2899 15.0989 16 13.0906 16C11.0823 16 9.36809 15.2899 7.948 13.8698C6.52792 12.4498 5.81787 10.7356 5.81787 8.72725H8.72696ZM8.72696 8.72725C8.72696 8.82276 8.71765 8.91735 8.69901 9.01102C8.68038 9.10469 8.65279 9.19564 8.61624 9.28388C8.57969 9.37212 8.53489 9.45594 8.48183 9.53535C8.42877 9.61476 8.36847 9.68824 8.30094 9.75577C8.2334 9.8233 8.15993 9.8836 8.08052 9.93666C8.00111 9.98972 7.91728 10.0345 7.82905 10.0711C7.74081 10.1076 7.64986 10.1352 7.55618 10.1538C7.46251 10.1725 7.36792 10.1818 7.27242 10.1818C7.17691 10.1818 7.08232 10.1725 6.98865 10.1538C6.89498 10.1352 6.80402 10.1076 6.71579 10.0711C6.62755 10.0345 6.54373 9.98972 6.46432 9.93666C6.3849 9.8836 6.31143 9.8233 6.2439 9.75577C6.17636 9.68824 6.11607 9.61476 6.06301 9.53535C6.00995 9.45594 5.96514 9.37212 5.92859 9.28388C5.89204 9.19564 5.86445 9.10469 5.84582 9.01102C5.82719 8.91735 5.81787 8.82276 5.81787 8.72725C5.81787 8.63174 5.82719 8.53715 5.84582 8.44348C5.86445 8.34981 5.89204 8.25886 5.92859 8.17062C5.96514 8.08238 6.00995 7.99856 6.06301 7.91915C6.11607 7.83974 6.17636 7.76627 6.2439 7.69873C6.31143 7.6312 6.3849 7.5709 6.46432 7.51784C6.54373 7.46478 6.62755 7.41998 6.71579 7.38343C6.80402 7.34688 6.89498 7.31929 6.98865 7.30065C7.08232 7.28202 7.17691 7.27271 7.27242 7.27271C7.36792 7.27271 7.46251 7.28202 7.55618 7.30065C7.64986 7.31929 7.74081 7.34688 7.82905 7.38343C7.91728 7.41998 8.00111 7.46478 8.08052 7.51784C8.15993 7.5709 8.2334 7.6312 8.30094 7.69873C8.36847 7.76627 8.42877 7.83974 8.48183 7.91915C8.53489 7.99856 8.57969 8.08238 8.61624 8.17062C8.65279 8.25886 8.68038 8.34981 8.69901 8.44348C8.71765 8.53715 8.72696 8.63174 8.72696 8.72725ZM20.3633 8.72725C20.3633 8.82276 20.354 8.91735 20.3354 9.01102C20.3167 9.10469 20.2892 9.19564 20.2526 9.28388C20.2161 9.37212 20.1713 9.45594 20.1182 9.53535C20.0651 9.61476 20.0048 9.68824 19.9373 9.75577C19.8698 9.8233 19.7963 9.8836 19.7169 9.93666C19.6375 9.98972 19.5536 10.0345 19.4654 10.0711C19.3772 10.1076 19.2862 10.1352 19.1925 10.1538C19.0989 10.1725 19.0043 10.1818 18.9088 10.1818C18.8133 10.1818 18.7187 10.1725 18.625 10.1538C18.5313 10.1352 18.4404 10.1076 18.3522 10.0711C18.2639 10.0345 18.1801 9.98972 18.1007 9.93666C18.0213 9.8836 17.9478 9.8233 17.8803 9.75577C17.8127 9.68824 17.7524 9.61476 17.6994 9.53535C17.6463 9.45594 17.6015 9.37212 17.565 9.28388C17.5284 9.19564 17.5008 9.10469 17.4822 9.01102C17.4636 8.91735 17.4542 8.82276 17.4542 8.72725C17.4542 8.63174 17.4636 8.53715 17.4822 8.44348C17.5008 8.34981 17.5284 8.25886 17.565 8.17062C17.6015 8.08238 17.6463 7.99856 17.6994 7.91915C17.7524 7.83974 17.8127 7.76627 17.8803 7.69873C17.9478 7.6312 18.0213 7.5709 18.1007 7.51784C18.1801 7.46478 18.2639 7.41998 18.3522 7.38343C18.4404 7.34688 18.5313 7.31929 18.625 7.30065C18.7187 7.28202 18.8133 7.27271 18.9088 7.27271C19.0043 7.27271 19.0989 7.28202 19.1925 7.30065C19.2862 7.31929 19.3772 7.34688 19.4654 7.38343C19.5536 7.41998 19.6375 7.46478 19.7169 7.51784C19.7963 7.5709 19.8698 7.6312 19.9373 7.69873C20.0048 7.76627 20.0651 7.83974 20.1182 7.91915C20.1713 7.99856 20.2161 8.08238 20.2526 8.17062C20.2892 8.25886 20.3167 8.34981 20.3354 8.44348C20.354 8.53715 20.3633 8.63174 20.3633 8.72725Z" fill="white"/>
<defs>
<filter id="filter0_f_103_1420" x="4.81787" y="7.72729" width="16.5454" height="10.7273" filterUnits="userSpaceOnUse" color-interpolation-filters="sRGB">
<feFlood flood-opacity="0" result="BackgroundImageFix"/>
<feBlend mode="normal" in="SourceGraphic" in2="BackgroundImageFix" result="shape"/>
<feGaussianBlur stdDeviation="0.5" result="effect1_foregroundBlur_103_1420"/>
</filter>
<linearGradient id="paint0_linear_103_1420" x1="13.091" y1="24.1817" x2="13.091" y2="-20.5455" gradientUnits="userSpaceOnUse">
<stop stop-color="#3077DB"/>
<stop offset="1" stop-color="#67A9F4"/>
</linearGradient>
<linearGradient id="paint1_linear_103_1420" x1="13.2227" y1="1.7671" x2="13.06" y2="31.9998" gradientUnits="userSpaceOnUse">
<stop stop-color="#67A9F4"/>
<stop offset="1" stop-color="#377EE3"/>
</linearGradient>
</defs>
</svg>
