<svg width="32" height="32" viewBox="0 0 32 32" fill="none" xmlns="http://www.w3.org/2000/svg">
<path d="M0 15.9999C0 21.5138 7.17772 26 16 26C24.8222 26 32 21.5138 32 15.9999C31.9999 10.4856 24.8222 6 15.9999 6C7.1776 6 0 10.4856 0 15.9999ZM0.490986 15.9999C0.490986 10.757 7.44813 6.49129 16 6.49129C24.5516 6.49129 31.509 10.757 31.509 15.9999C31.509 21.244 24.5516 25.5096 16 25.5096C7.44813 25.5094 0.490986 21.2441 0.490986 15.9999Z" fill="black"/>
<path d="M14.4884 7.81796C10.7436 8.04638 8.02367 9.03777 7.56006 10.3439C7.51285 10.4755 7.48852 10.6142 7.48813 10.754C7.48813 10.9743 7.55049 11.1947 7.67421 11.4053C8.19392 12.2898 9.80718 13.0192 12.1029 13.4104L12.3459 13.4502L12.3867 13.2076C12.7635 10.9116 13.5907 9.10607 14.657 8.25358L15.2612 7.77002L14.4884 7.81796ZM8.09806 11.158C8.01803 11.022 7.97862 10.8879 7.97862 10.7557C7.97862 10.6724 7.99299 10.591 8.02269 10.5081C8.37657 9.5103 10.7806 8.63881 13.8516 8.35767C12.9755 9.34748 12.3019 10.9425 11.9505 12.8803C9.95484 12.5115 8.51994 11.8764 8.09806 11.158ZM13.8037 13.3544L13.7557 13.6212L14.0266 13.6418C14.669 13.6897 15.3332 13.7156 15.9996 13.7156C16.6666 13.7156 17.3312 13.6897 17.9737 13.6418L18.2442 13.6212L18.196 13.3544C17.8267 11.2826 17.005 10.045 16 10.045C14.9942 10.045 14.1729 11.2826 13.8037 13.3544ZM16.0001 10.5354C16.6872 10.5354 17.3216 11.5632 17.6558 13.1677C17.1124 13.2031 16.559 13.2252 15.9996 13.2252C15.441 13.2252 14.8873 13.2031 14.3445 13.1677C14.6778 11.5632 15.3131 10.5354 16.0001 10.5354ZM17.3427 8.25383C18.4086 9.10631 19.2367 10.9121 19.6135 13.2079L19.6538 13.4504L19.8964 13.4107C22.1932 13.0194 23.8073 12.2898 24.3251 11.4054C24.5266 11.0656 24.5649 10.6985 24.4403 10.3443C23.9768 9.03826 21.2567 8.04687 17.5122 7.8182L16.7404 7.77026L17.3427 8.25383ZM18.1496 8.35767C21.2198 8.63881 23.6236 9.5119 23.9765 10.5081C24.0072 10.591 24.0216 10.6724 24.0216 10.7557C24.0216 10.8879 23.9813 11.022 23.9031 11.158C23.4798 11.8762 22.0444 12.5115 20.0498 12.8803C19.6983 10.9426 19.0257 9.3476 18.1496 8.35767ZM5.19056 11.3065C3.50758 12.7146 2.61816 14.3875 2.61816 16.1451C2.61816 20.2796 7.6655 23.7744 14.358 24.2724L15.1055 24.3284L14.5364 23.8428C13.0701 22.5899 12.1596 19.6172 12.1596 16.0842L12.175 15.2495L11.9697 15.2078C8.44948 14.5776 5.94508 13.0991 5.58851 11.4434L5.5032 11.046L5.19056 11.3065ZM3.10964 16.1451C3.10964 14.638 3.84563 13.1916 5.22751 11.9353C5.87131 13.6083 8.2769 15.002 11.6772 15.6505C11.6729 15.842 11.6691 16.0842 11.6691 16.0842C11.6691 19.36 12.4473 22.1891 13.7309 23.7154C7.63285 23.0655 3.10964 19.8839 3.10964 16.1451ZM13.6037 15.7032L13.6023 15.7922C13.6023 19.0761 14.6331 21.5536 16.0001 21.5536C17.3666 21.5536 18.3976 19.0761 18.3976 15.7922L18.3943 15.4379L18.1306 15.4604C17.4354 15.5212 16.7195 15.5514 16.0003 15.5514C15.2812 15.5514 14.5643 15.5212 13.8709 15.4604L13.6063 15.4365L13.6037 15.7032ZM17.9037 15.9664C17.8667 19.0219 16.903 21.0635 16.0001 21.0635C15.0963 21.0635 14.1325 19.0219 14.0966 15.9664C14.7208 16.0124 15.3585 16.0411 16.0001 16.0411C16.6427 16.0411 17.2785 16.0124 17.9037 15.9664ZM26.4108 11.4434C26.0546 13.0991 23.5497 14.5775 20.0306 15.2078L19.8244 15.2461L19.8407 16.0841C19.8407 19.617 18.9297 22.5899 17.464 23.8427L16.8948 24.3283L17.6413 24.2723C24.3345 23.7743 29.3819 20.2795 29.3819 16.1449C29.3819 14.3874 28.4915 12.7145 26.8085 11.3064L26.4969 11.0458L26.4108 11.4434ZM26.7718 11.9353C28.1547 13.1916 28.8912 14.638 28.8912 16.1451C28.8912 19.8839 24.3682 23.0655 18.2696 23.7154C19.5531 22.1891 20.3313 19.36 20.3313 16.0842C20.3313 16.0842 20.3265 15.8418 20.3232 15.6505C23.7225 15.002 26.1279 13.6082 26.7718 11.9353Z" fill="black"/>
<path d="M26.5846 10.1813C26.6072 10.2436 26.6279 10.3071 26.6441 10.371C26.7366 10.7383 26.7175 11.099 26.5975 11.4506C28.1942 12.7658 29.1354 14.3878 29.1354 16.1454C29.1354 20.5323 23.2542 24.0894 15.9999 24.0894C8.74505 24.0894 2.86427 20.5323 2.86427 16.1454C2.86427 14.3893 3.80647 12.7659 5.40119 11.4506C5.28225 11.099 5.2631 10.7383 5.35565 10.371C5.3748 10.3013 5.40032 10.2335 5.43188 10.1685C3.25313 11.7189 1.93213 13.7509 1.93213 15.9763C1.93213 20.8355 8.23 24.7742 15.9997 24.7742C23.7685 24.7742 30.0673 20.8355 30.0673 15.9763C30.0676 13.7556 28.7519 11.7283 26.5846 10.1813Z" fill="url(#paint0_linear_109_817)"/>
<path d="M17.9541 13.3973C17.3341 13.4438 16.6806 13.4692 15.9992 13.4692C15.3184 13.4692 14.6653 13.4438 14.0453 13.3973H14.0434L13.6382 13.6913C14.3857 13.7564 15.1751 13.7933 15.9996 13.7933C16.8242 13.7933 17.6135 13.7564 18.3615 13.6913L17.9541 13.3973ZM25.1398 10.3149C24.646 8.68456 20.5752 7.4873 15.9997 7.4873C11.425 7.4873 7.35432 8.68481 6.86051 10.3149C6.43188 11.7291 8.77167 13.0381 12.4631 13.5572L12.1424 13.1672C9.15624 12.6596 7.38132 11.5772 7.7908 10.4264C8.28707 9.02921 11.8916 8.01746 15.9994 8.01746C20.1069 8.01746 23.7124 9.02945 24.2081 10.4264C24.6171 11.5773 22.8431 12.6597 19.8562 13.1672L19.5365 13.5572C23.2267 13.0381 25.568 11.7291 25.1398 10.3149Z" fill="url(#paint1_linear_109_817)"/>
<path d="M14.0505 13.3975C14.3933 11.4946 15.137 10.3055 15.9996 10.3055C16.8631 10.3055 17.6062 11.4946 17.9495 13.3975H17.9564L18.3574 13.6882C18.0189 11.1752 17.0916 9.56934 16.0002 9.56934C14.908 9.56934 13.9811 11.1752 13.6431 13.6882L14.044 13.3975H14.0505Z" fill="url(#paint2_linear_109_817)"/>
<path d="M18.4788 15.1123L18.1508 15.7047C18.1508 15.7479 18.1528 15.7923 18.1528 15.8373C18.1528 18.9915 17.1871 21.383 15.9996 21.383C14.8109 21.383 13.8472 18.9912 13.8472 15.8373C13.8472 15.7875 13.8482 15.7381 13.8492 15.6904L13.5207 15.1123C13.511 15.3527 13.5063 15.5933 13.5063 15.834C13.5063 19.41 14.6226 22.1189 16.0001 22.1189C17.3775 22.1189 18.4948 19.41 18.4948 15.834C18.4943 15.5933 18.4889 15.3527 18.4788 15.1123Z" fill="url(#paint3_linear_109_817)"/>
<path d="M12.4687 13.5584C12.9405 10.0656 14.343 7.48682 16.0001 7.48682C14.2236 7.48682 12.7094 9.77147 12.1475 13.1738L12.4639 13.5584H12.4687Z" fill="url(#paint4_linear_109_817)"/>
<path d="M19.5319 13.5584H19.5352L19.8517 13.1738C19.2907 9.77147 17.7755 7.48682 16 7.48682C17.6571 7.48706 19.0606 10.0656 19.5319 13.5584Z" fill="url(#paint5_linear_109_817)"/>
<path d="M20.0721 15.4472L19.6694 14.9668H19.6661C19.6887 15.3485 19.7015 15.7364 19.7015 16.1305C19.7015 20.904 18.044 24.7736 16 24.7736C18.2918 24.7736 20.0851 21.1847 20.0851 16.1305C20.0851 15.8992 20.0803 15.6724 20.0721 15.4472Z" fill="url(#paint6_linear_109_817)"/>
<path d="M12.2994 16.1305C12.2994 15.7364 12.3122 15.3485 12.3343 14.9668H12.3316L11.9279 15.4457C11.9194 15.6739 11.9149 15.9021 11.9146 16.1305C11.9146 21.1847 13.7092 24.7736 16.0002 24.7736C13.9569 24.7736 12.2994 20.9039 12.2994 16.1305Z" fill="url(#paint7_linear_109_817)"/>
<path d="M26.5973 11.4501C27.2077 11.953 27.7227 12.5018 28.1254 13.0847C27.986 12.1577 27.6168 11.2802 27.0514 10.532C26.8988 10.4109 26.743 10.2939 26.5842 10.1811C26.6069 10.2434 26.6275 10.3069 26.6435 10.3708C26.7364 10.738 26.7173 11.0986 26.5973 11.4501ZM5.40111 11.4501C5.28217 11.0986 5.26302 10.7378 5.35557 10.3705C5.37473 10.3008 5.40024 10.233 5.4318 10.168C5.26807 10.286 5.10679 10.4073 4.94805 10.532C4.38348 11.2807 4.01438 12.1579 3.87402 13.0847C4.27675 12.5018 4.79069 11.9529 5.40111 11.4501Z" fill="#2D2F34"/>
<path d="M0.245605 16C0.245605 10.6134 7.29862 6.24561 16.0001 6.24561C24.7004 6.24561 31.7535 10.6134 31.7535 16C31.7535 21.3877 24.7004 25.7538 16.0001 25.7538C7.29862 25.7537 0.245605 21.3878 0.245605 16ZM16 24.7738C23.7689 24.7738 30.0676 20.8351 30.0676 15.9759C30.0676 11.1163 23.7689 7.17619 16 7.17619C8.23014 7.17619 1.9319 11.1165 1.9319 15.9759C1.9319 20.8351 8.23026 24.7738 16 24.7738Z" fill="url(#paint8_linear_109_817)"/>
<path d="M12.2993 16.1305C12.2993 11.407 13.9569 7.4873 15.9999 7.4873C18.0438 7.4873 19.7015 11.407 19.7015 16.1305C19.7015 20.9041 18.0438 24.7736 15.9999 24.7736C13.9559 24.7736 12.2993 20.9039 12.2993 16.1305ZM15.9999 22.1185C17.3775 22.1185 18.4947 19.4096 18.4947 15.835C18.4947 12.1253 17.3773 9.56929 15.9999 9.56929C14.6224 9.56929 13.5062 12.1253 13.5062 15.835C13.5062 19.4096 14.6224 22.1185 15.9999 22.1185Z" fill="url(#paint9_linear_109_817)"/>
<path d="M5.35568 10.3702C5.76172 8.76438 10.6723 6.42725 15.9998 6.42725C21.3267 6.42725 26.0686 8.09715 26.644 10.3702C27.2879 12.9179 22.5554 15.2237 15.9998 15.2237C9.44301 15.2237 4.71077 12.9181 5.35568 10.3702ZM15.9998 7.48706C11.425 7.48706 7.35436 8.68456 6.86055 10.3146C6.30721 12.1408 10.3702 13.7931 15.9998 13.7931C21.6304 13.7931 25.6927 12.1406 25.1398 10.3146C24.646 8.68432 20.5755 7.48706 15.9998 7.48706Z" fill="url(#paint10_linear_109_817)"/>
<path d="M13.5159 15.1077L13.5187 15.1096L13.8568 15.7049C14.5448 15.7636 15.2602 15.7972 16 15.7972C16.7433 15.7972 17.4605 15.7637 18.153 15.7034L18.482 15.1094L18.4839 15.1074C17.6928 15.1826 16.8633 15.2243 16.0003 15.2243C15.1708 15.2247 14.3417 15.1858 13.5159 15.1077ZM26.6998 10.9219C26.6154 12.7436 23.812 14.3576 19.6681 14.9658L19.6695 14.9673L20.0737 15.4497C24.1284 14.7217 26.7958 12.9334 26.6998 10.9219ZM5.30035 10.9219C5.20449 12.9353 7.87165 14.7216 11.9256 15.4497L12.3308 14.9673L12.3318 14.9658C8.1871 14.3577 5.38566 12.7437 5.30035 10.9219Z" fill="url(#paint11_linear_109_817)"/>
<defs>
<linearGradient id="paint0_linear_109_817" x1="15.9997" y1="23.6875" x2="15.9997" y2="12.5725" gradientUnits="userSpaceOnUse">
<stop stop-color="#F0F3F5"/>
<stop offset="0.056" stop-color="#E2E5E8"/>
<stop offset="0.138" stop-color="#D4D8DD"/>
<stop offset="0.242" stop-color="#CCD0D6"/>
<stop offset="0.44" stop-color="#CACED4"/>
<stop offset="0.568" stop-color="#B3B7BD"/>
<stop offset="0.835" stop-color="#797C83"/>
<stop offset="1" stop-color="#52545C"/>
</linearGradient>
<linearGradient id="paint1_linear_109_817" x1="16.0001" y1="15.218" x2="16.0001" y2="9.1951" gradientUnits="userSpaceOnUse">
<stop stop-color="#F0F3F5"/>
<stop offset="0.056" stop-color="#E2E5E8"/>
<stop offset="0.138" stop-color="#D4D8DD"/>
<stop offset="0.242" stop-color="#CCD0D6"/>
<stop offset="0.44" stop-color="#CACED4"/>
<stop offset="0.568" stop-color="#B3B7BD"/>
<stop offset="0.835" stop-color="#797C83"/>
<stop offset="1" stop-color="#52545C"/>
</linearGradient>
<linearGradient id="paint2_linear_109_817" x1="18.0019" y1="14.1112" x2="14.2405" y2="10.9513" gradientUnits="userSpaceOnUse">
<stop stop-color="#F0F3F5"/>
<stop offset="0.056" stop-color="#E2E5E8"/>
<stop offset="0.138" stop-color="#D4D8DD"/>
<stop offset="0.242" stop-color="#CCD0D6"/>
<stop offset="0.44" stop-color="#CACED4"/>
<stop offset="0.568" stop-color="#B3B7BD"/>
<stop offset="0.835" stop-color="#797C83"/>
<stop offset="1" stop-color="#52545C"/>
</linearGradient>
<linearGradient id="paint3_linear_109_817" x1="18.3848" y1="19.3611" x2="12.8978" y2="16.1896" gradientUnits="userSpaceOnUse">
<stop stop-color="#F0F3F5"/>
<stop offset="0.056" stop-color="#E2E5E8"/>
<stop offset="0.138" stop-color="#D4D8DD"/>
<stop offset="0.242" stop-color="#CCD0D6"/>
<stop offset="0.44" stop-color="#CACED4"/>
<stop offset="0.568" stop-color="#B3B7BD"/>
<stop offset="0.835" stop-color="#797C83"/>
<stop offset="1" stop-color="#52545C"/>
</linearGradient>
<linearGradient id="paint4_linear_109_817" x1="14.0738" y1="6.24432" x2="14.0738" y2="15.7974" gradientUnits="userSpaceOnUse">
<stop stop-color="#F0F3F5"/>
<stop offset="0.056" stop-color="#E2E5E8"/>
<stop offset="0.138" stop-color="#D4D8DD"/>
<stop offset="0.242" stop-color="#CCD0D6"/>
<stop offset="0.44" stop-color="#CACED4"/>
<stop offset="0.568" stop-color="#B3B7BD"/>
<stop offset="0.835" stop-color="#797C83"/>
<stop offset="1" stop-color="#52545C"/>
</linearGradient>
<linearGradient id="paint5_linear_109_817" x1="17.9259" y1="6.24432" x2="17.9259" y2="15.7974" gradientUnits="userSpaceOnUse">
<stop stop-color="#F0F3F5"/>
<stop offset="0.056" stop-color="#E2E5E8"/>
<stop offset="0.138" stop-color="#D4D8DD"/>
<stop offset="0.242" stop-color="#CCD0D6"/>
<stop offset="0.44" stop-color="#CACED4"/>
<stop offset="0.568" stop-color="#B3B7BD"/>
<stop offset="0.835" stop-color="#797C83"/>
<stop offset="1" stop-color="#52545C"/>
</linearGradient>
<linearGradient id="paint6_linear_109_817" x1="18.0425" y1="6.16436" x2="18.0425" y2="22.1074" gradientUnits="userSpaceOnUse">
<stop stop-color="#F0F3F5"/>
<stop offset="0.056" stop-color="#E2E5E8"/>
<stop offset="0.138" stop-color="#D4D8DD"/>
<stop offset="0.242" stop-color="#CCD0D6"/>
<stop offset="0.44" stop-color="#CACED4"/>
<stop offset="0.568" stop-color="#B3B7BD"/>
<stop offset="0.835" stop-color="#797C83"/>
<stop offset="1" stop-color="#52545C"/>
</linearGradient>
<linearGradient id="paint7_linear_109_817" x1="13.9573" y1="6.16424" x2="13.9573" y2="22.1073" gradientUnits="userSpaceOnUse">
<stop stop-color="#F0F3F5"/>
<stop offset="0.056" stop-color="#E2E5E8"/>
<stop offset="0.138" stop-color="#D4D8DD"/>
<stop offset="0.242" stop-color="#CCD0D6"/>
<stop offset="0.44" stop-color="#CACED4"/>
<stop offset="0.568" stop-color="#B3B7BD"/>
<stop offset="0.835" stop-color="#797C83"/>
<stop offset="1" stop-color="#52545C"/>
</linearGradient>
<linearGradient id="paint8_linear_109_817" x1="15.9995" y1="6.24561" x2="15.9995" y2="25.7538" gradientUnits="userSpaceOnUse">
<stop stop-color="#F0F3F5"/>
<stop offset="0.253" stop-color="#EDF0F3"/>
<stop offset="0.406" stop-color="#E5E8EA"/>
<stop offset="0.531" stop-color="#D7DADC"/>
<stop offset="0.642" stop-color="#C3C5C9"/>
<stop offset="0.744" stop-color="#A9ABAF"/>
<stop offset="0.839" stop-color="#888B90"/>
<stop offset="0.926" stop-color="#63656B"/>
<stop offset="1" stop-color="#3D3F46"/>
</linearGradient>
<linearGradient id="paint9_linear_109_817" x1="16.0004" y1="6.24444" x2="16.0004" y2="25.7539" gradientUnits="userSpaceOnUse">
<stop stop-color="#F0F3F5"/>
<stop offset="0.253" stop-color="#EDF0F3"/>
<stop offset="0.406" stop-color="#E5E8EA"/>
<stop offset="0.531" stop-color="#D7DADC"/>
<stop offset="0.642" stop-color="#C3C5C9"/>
<stop offset="0.744" stop-color="#A9ABAF"/>
<stop offset="0.839" stop-color="#888B90"/>
<stop offset="0.926" stop-color="#63656B"/>
<stop offset="1" stop-color="#3D3F46"/>
</linearGradient>
<linearGradient id="paint10_linear_109_817" x1="15.9998" y1="6.24628" x2="15.9998" y2="25.7552" gradientUnits="userSpaceOnUse">
<stop stop-color="#F0F3F5"/>
<stop offset="0.253" stop-color="#EDF0F3"/>
<stop offset="0.406" stop-color="#E5E8EA"/>
<stop offset="0.531" stop-color="#D7DADC"/>
<stop offset="0.642" stop-color="#C3C5C9"/>
<stop offset="0.744" stop-color="#A9ABAF"/>
<stop offset="0.839" stop-color="#888B90"/>
<stop offset="0.926" stop-color="#63656B"/>
<stop offset="1" stop-color="#3D3F46"/>
</linearGradient>
<linearGradient id="paint11_linear_109_817" x1="16.0002" y1="10.292" x2="16.0002" y2="15.852" gradientUnits="userSpaceOnUse">
<stop stop-color="#CACED4"/>
<stop offset="1" stop-color="#52545C"/>
</linearGradient>
</defs>
</svg>
