<svg width="32" height="32" viewBox="0 0 32 32" fill="none" xmlns="http://www.w3.org/2000/svg">
<path d="M2 16C2 8.26801 8.26801 2 16 2C23.732 2 30 8.26801 30 16C30 23.732 23.732 30 16 30C8.26801 30 2 23.732 2 16Z" fill="#59316B"/>
<path d="M17.0341 5.64229L16.4629 7.96739C17.272 6.32521 18.5572 5.0895 20.0329 4C18.9539 5.28452 17.9703 6.56916 17.3673 7.85369C18.3828 6.39022 19.7473 5.57729 21.2863 5.04069C19.2395 6.91062 17.6148 8.91715 16.3772 10.9334L15.3936 10.4944C15.5679 8.88465 16.1614 7.23589 17.0341 5.64229Z" fill="#ABCD03"/>
<path d="M14.4073 10.0669L16.2796 10.8629C16.2796 11.3508 16.2409 12.8389 16.5386 13.2779C19.6525 17.3877 19.1286 25.6259 15.9079 25.8372C11.0033 25.8372 9.13281 22.4227 9.13281 19.2844C9.13281 16.4226 12.4805 14.5202 14.4798 12.8292C14.9875 12.3739 14.8994 11.3677 14.4073 10.0669Z" fill="#FFFCDB"/>
<path d="M16.2803 10.8345L16.955 11.1872C16.8916 11.6424 16.9867 12.6507 17.4309 12.9107C19.3984 14.1627 21.2547 15.5286 21.9846 16.8944C24.5868 21.7075 20.16 26.1626 16.3362 25.7399C18.4147 24.1626 19.0176 20.9269 18.2402 17.3984C17.9229 16.0162 17.4309 14.7642 16.5582 13.3496C16.1801 12.6552 16.3121 11.794 16.2803 10.8345Z" fill="white"/>
<path d="M15.9552 10.7157L17.3514 10.9108C16.9389 12.3092 18.1607 13.2847 18.5573 13.5125C19.4458 14.0166 20.3026 14.5369 20.9849 15.171C22.2702 16.3742 23 18.0653 23 19.8539C23 21.6262 22.2066 23.3335 20.8739 24.4717C19.6204 25.5449 17.891 26.0002 16.2091 26.0002C15.1619 26.0002 14.2258 25.9515 13.2104 25.6099C10.894 24.8132 9.16445 22.7807 9.02167 20.3416C8.89469 18.4391 9.30723 16.992 10.7512 15.4798C11.4968 14.6831 13.0042 13.7725 14.0356 13.0408C14.5434 12.683 15.0828 11.6748 14.0514 9.7725L14.2577 9.60986L15.7862 10.659L14.4958 10.114C14.6068 10.2766 14.9083 11.0083 14.9719 11.2197C15.1147 11.8213 15.0512 12.4068 14.9242 12.6668C14.2738 13.8701 13.1631 14.1953 12.354 14.8782C10.9259 16.0814 9.37101 17.0408 9.54551 20.3416C9.62486 21.9675 10.8625 23.9513 12.7187 24.8782C13.766 25.3986 14.9719 25.6099 16.1936 25.6749C17.2883 25.7237 19.3827 25.057 20.5251 24.0814C21.7468 23.0409 22.4291 21.4636 22.4291 19.8539C22.4291 18.2278 21.7944 16.6831 20.6044 15.5936C19.9221 14.9595 18.7957 14.1953 18.0976 13.7887C17.3995 13.3822 16.5268 12.244 16.8123 11.1546L15.9552 10.7157Z" fill="black"/>
<path d="M15.5267 13.1221C15.3839 13.8701 15.2252 15.2196 14.5906 15.7237C14.3208 15.9188 14.051 16.114 13.7655 16.309C12.6231 17.1059 11.4806 17.8537 10.9572 19.7724C10.8461 20.179 10.9414 20.618 11.0366 21.0245C11.3222 22.1952 12.1313 23.4635 12.766 24.2115C12.766 24.244 12.893 24.3254 12.893 24.3579C13.4166 24.9921 13.5753 25.1709 15.5585 25.6261L15.5109 25.8538C14.3209 25.5287 13.3373 25.236 12.7184 24.5042C12.7184 24.488 12.6073 24.3741 12.6073 24.3741C11.9409 23.5935 11.1316 22.2928 10.8303 21.0733C10.7192 20.5854 10.6241 20.2115 10.7509 19.7073C11.2903 17.7237 12.4645 16.9431 13.6545 16.1139C13.9243 15.9351 14.2416 15.7723 14.4954 15.561C14.9872 15.1871 15.2568 14.0488 15.5267 13.1221Z" fill="black"/>
<path d="M16.0344 16.2114C16.0504 17.057 15.9698 17.4812 16.176 18.0829C16.3029 18.4405 16.7316 18.9284 16.8586 19.4C17.0331 20.0342 17.2231 20.7333 17.2071 21.1561C17.2071 21.644 17.1773 22.5541 16.9711 23.5298C16.8139 24.336 16.4514 25.0277 15.842 25.4199C15.2178 25.2881 14.4848 25.0633 14.0522 24.6832C13.2113 23.9353 12.4665 22.6846 12.3713 21.5951C12.292 20.7009 13.1 19.382 14.2265 18.7154C15.1784 18.1463 15.3998 17.4977 15.606 16.457C15.3205 17.3675 15.0523 18.1309 14.1321 18.6186C12.7993 19.3341 12.1154 20.535 12.1789 21.6732C12.274 23.1366 12.8459 24.1282 13.9723 24.925C14.4483 25.2665 15.3375 25.6273 15.8929 25.7249V25.6505C16.314 25.5697 16.8592 24.8609 17.1309 23.9019C17.3689 23.0401 17.4627 21.9372 17.4467 21.2379C17.4308 20.8315 17.2558 19.9511 16.9384 19.1544C16.7639 18.7154 16.4959 18.2765 16.3213 17.9675C16.1311 17.6583 16.1297 16.9919 16.0344 16.2114Z" fill="black"/>
<path d="M15.9395 19.3999C15.9553 19.969 16.1784 20.6982 16.2735 21.4462C16.353 21.9991 16.3185 22.5545 16.3026 23.0424C16.2869 23.6071 16.1033 24.6189 15.8524 25.111C15.6158 24.9998 15.5233 24.873 15.3695 24.6682C15.1792 24.3918 15.05 24.1153 14.923 23.7902C14.8278 23.5462 14.7166 23.267 14.6689 22.9419C14.6054 22.4541 14.6232 21.691 15.1626 20.9105C15.5751 20.2925 15.6697 20.2456 15.8125 19.5301C15.6219 20.1642 15.4799 20.2289 15.0355 20.7654C14.5438 21.3508 14.4619 22.213 14.4619 22.9121C14.4619 23.2049 14.5758 23.5297 14.687 23.8386C14.8139 24.1638 14.9228 24.4877 15.0973 24.7315C15.3596 25.1269 15.6953 25.3517 15.8597 25.3938C15.8607 25.394 15.8622 25.3935 15.8633 25.3938C15.8668 25.3946 15.8708 25.3968 15.8742 25.3975V25.3789C16.182 25.0271 16.3673 24.6777 16.4296 24.3259C16.509 23.9032 16.5272 23.4795 16.5749 22.9754C16.6224 22.5526 16.5879 21.9831 16.4768 21.3979C16.3183 20.6661 16.0506 19.9201 15.9395 19.3999L15.9395 19.3999Z" fill="black"/>
<path d="M15.9871 12.439C16.003 13.2844 16.0664 14.8618 16.2886 15.4796C16.352 15.6909 16.939 16.6178 17.3515 17.7397C17.6371 18.5202 17.7006 19.2357 17.7482 19.447C17.9386 20.3739 17.7006 21.9348 17.3832 23.4145C17.2246 24.2112 16.6851 25.2031 16.0663 25.5934L15.9395 25.821C16.2886 25.8047 17.1452 24.943 17.4467 23.8698C17.9545 22.0487 18.1607 21.2031 17.9228 19.1868C17.8911 18.9916 17.8118 18.3251 17.5103 17.6096C17.066 16.5201 16.4313 15.4795 16.3521 15.268C16.2092 14.9267 16.0188 13.447 15.9871 12.439Z" fill="black"/>
<path d="M16.2845 11.2827C16.2375 12.1516 16.2249 12.4716 16.3834 13.1057C16.5579 13.8049 17.4466 14.813 17.8115 15.9675C18.5096 18.1789 18.3351 21.0732 17.8273 23.3333C17.637 24.1299 16.7324 25.2846 15.8281 25.6584L16.4945 25.821C16.8594 25.8047 17.7955 24.9105 18.1605 23.8861C18.7474 22.2763 18.8586 20.3577 18.6205 18.3414C18.6046 18.1463 18.2872 16.4065 17.9859 15.6748C17.5574 14.5854 16.7958 13.6097 16.7165 13.3985C16.5739 13.0407 16.2604 12.2979 16.2845 11.2827Z" fill="black"/>
<rect x="15.7803" y="10.6714" width="0.492005" height="15.0036" fill="black"/>
</svg>
