<svg width="48" height="48" viewBox="0 0 48 48" fill="none" xmlns="http://www.w3.org/2000/svg">
<circle cx="24" cy="24" r="20" fill="#35465C"/>
<path d="M31.3174 33.7474C30.5679 34.468 29.0299 35.0033 27.5558 35.0282C27.5001 35.0292 27.4455 35.0297 27.3907 35.0297H27.3902C22.5415 35.0294 21.2478 31.3282 21.2478 29.1411V22.4204C21.2478 22.365 21.2029 22.32 21.1475 22.32H18.8029C18.7474 22.32 18.7025 22.2751 18.7025 22.2196V19.1581C18.7025 19.1171 18.7281 19.0806 18.7663 19.0658C21.2722 18.0903 22.6716 16.152 23.0397 13.154C23.0602 12.9875 23.1976 12.9829 23.199 12.9829H26.3287C26.3842 12.9829 26.4291 13.0279 26.4291 13.0833V18.4642C26.4291 18.5196 26.4741 18.5645 26.5295 18.5645H30.4253C30.4808 18.5645 30.5257 18.6095 30.5257 18.6649V22.2196C30.5257 22.2751 30.4808 22.32 30.4253 22.32H26.5127C26.4573 22.32 26.4123 22.365 26.4123 22.4205L26.4124 28.8076C26.4355 30.2457 27.1315 30.9747 28.4812 30.9747C29.025 30.9747 29.6479 30.8482 30.2166 30.6309C30.2698 30.6106 30.3285 30.6377 30.3466 30.6916L31.3419 33.6419C31.3544 33.6791 31.3457 33.7203 31.3174 33.7474ZM26.7413 36C29.1428 36 31.5222 35.145 32.3094 34.1092L32.4671 33.9016L30.9785 29.4895C30.9647 29.4486 30.9264 29.4212 30.8834 29.4212H27.5578C27.5128 29.4212 27.4721 29.3925 27.4607 29.3489C27.422 29.2018 27.3988 29.0219 27.3952 28.7996V23.4034C27.3952 23.3479 27.4402 23.3029 27.4956 23.3029H31.4082C31.4637 23.3029 31.5086 23.258 31.5086 23.2025V17.682C31.5086 17.6266 31.4637 17.5816 31.4082 17.5816H27.5124C27.457 17.5816 27.412 17.5367 27.412 17.4812V12.1004C27.412 12.045 27.3671 12 27.3116 12H20.4794C19.9909 12 19.4271 12.3624 19.3446 13.034C19.0035 15.8116 17.7296 17.478 15.3357 18.278L15.0686 18.3672C15.0276 18.3809 15 18.4192 15 18.4624V23.2025C15 23.258 15.0449 23.3029 15.1004 23.3029H17.5453V29.1411C17.5453 33.8016 20.7733 36 26.7413 36Z" fill="white"/>
</svg>
