<svg width="32" height="32" viewBox="0 0 32 32" fill="none" xmlns="http://www.w3.org/2000/svg">
<path fill-rule="evenodd" clip-rule="evenodd" d="M16.0061 29.9998C23.7367 29.9998 30 23.7365 30 16.0061C30 8.26328 23.7367 2 16.0061 2C8.27561 2 2 8.26328 2 16.0061C2 23.7365 8.27561 29.9998 16.0061 29.9998Z" fill="url(#paint0_linear_109_821)"/>
<path fill-rule="evenodd" clip-rule="evenodd" d="M8.52242 23.3912C9.40452 24.273 10.4301 24.9984 11.5554 25.5363L8.52242 18.5828L5.99491 12.788C5.66202 13.799 5.48941 14.884 5.48941 16.0059C5.48941 18.8787 6.64836 21.4925 8.52242 23.3912ZM23.49 26.079C26.56 23.798 28.5573 20.1361 28.5573 16.0059C28.5573 11.8756 26.56 8.21382 23.49 5.92057C21.394 4.36708 18.805 3.44238 16.0063 3.44238C13.2075 3.44238 10.6184 4.36708 8.52242 5.92057C5.45242 8.21382 3.45508 11.8756 3.45508 16.0059C3.45508 20.1361 5.45242 23.798 8.52242 26.079C10.6184 27.6323 13.2075 28.5572 16.0063 28.5572C18.805 28.5572 21.394 27.6325 23.49 26.079ZM23.49 8.62069C23.8637 8.99473 24.206 9.39884 24.5135 9.82896L23.49 12.1962L19.6311 21.0609L17.6338 16.5114H14.3788L12.3815 21.0609L8.52242 12.1962L7.49909 9.82896C7.80647 9.39881 8.14873 8.99468 8.52242 8.62069C9.16269 7.96698 9.88848 7.40293 10.68 6.9439L14.3295 15.4388H17.6829L21.3324 6.9439C22.1239 7.40293 22.8497 7.96698 23.49 8.62069ZM23.49 18.5828L26.0175 12.788C26.3506 13.799 26.5232 14.884 26.5232 16.0059C26.5232 18.8785 25.3642 21.4925 23.49 23.3912C22.608 24.273 21.5824 24.9984 20.4572 25.5363L23.49 18.5828ZM16.0063 19.3965L18.9408 26.0913C17.9876 26.3702 16.9995 26.5113 16.0063 26.5105C15.0132 26.5113 14.0251 26.3702 13.0719 26.0913L16.0063 19.3965ZM16.0063 12.8126L19.0271 5.9329C18.0776 5.637 17.0543 5.48905 16.0063 5.48905C14.9583 5.48905 13.9473 5.637 12.9856 5.9329L16.0063 12.8126Z" fill="white"/>
<defs>
<linearGradient id="paint0_linear_109_821" x1="2.00431" y1="2.0043" x2="29.9955" y2="29.9955" gradientUnits="userSpaceOnUse">
<stop stop-color="#2088FA"/>
<stop offset="1" stop-color="#032B5C"/>
</linearGradient>
</defs>
</svg>
