<svg width="32" height="26" viewBox="0 0 32 26" fill="none" xmlns="http://www.w3.org/2000/svg">
<path d="M25.0435 0H2.78261C1.24582 0 0 1.24582 0 2.78261V19.4783C0 21.0151 1.24582 22.2609 2.78261 22.2609H25.0435C26.5803 22.2609 27.8261 21.0151 27.8261 19.4783V2.78261C27.8261 1.24582 26.5803 0 25.0435 0Z" fill="url(#paint0_linear_103_1548)"/>
<path d="M26.4348 2.78259H2.78261C1.24582 2.78259 0 4.02841 0 5.5652V22.2609C0 23.7976 1.24582 25.0435 2.78261 25.0435H26.4348C27.9716 25.0435 29.2174 23.7976 29.2174 22.2609V5.5652C29.2174 4.02841 27.9716 2.78259 26.4348 2.78259Z" fill="url(#paint1_linear_103_1548)"/>
<path d="M20.8696 13.913C20.8696 16.2182 22.7384 18.087 25.0435 18.087L32.0001 18.0852L31.9983 9.73914H25.0435C22.7384 9.73914 20.8696 11.6079 20.8696 13.913Z" fill="url(#paint2_radial_103_1548)"/>
<path d="M25.0432 15.3043C25.8116 15.3043 26.4345 14.6814 26.4345 13.913C26.4345 13.1446 25.8116 12.5217 25.0432 12.5217C24.2748 12.5217 23.6519 13.1446 23.6519 13.913C23.6519 14.6814 24.2748 15.3043 25.0432 15.3043Z" fill="#FF4900"/>
<defs>
<linearGradient id="paint0_linear_103_1548" x1="-8.73115" y1="34.1988" x2="-3.06148" y2="-0.500232" gradientUnits="userSpaceOnUse">
<stop stop-color="#FFB300"/>
<stop offset="0.999999" stop-color="#FF4900"/>
</linearGradient>
<linearGradient id="paint1_linear_103_1548" x1="0" y1="2.78259" x2="18.8486" y2="30.205" gradientUnits="userSpaceOnUse">
<stop stop-color="#FFB300"/>
<stop offset="1" stop-color="#FF4900"/>
</linearGradient>
<radialGradient id="paint2_radial_103_1548" cx="0" cy="0" r="1" gradientUnits="userSpaceOnUse" gradientTransform="translate(25.145 12.2036) rotate(50.8861) scale(6.79607 9.06143)">
<stop stop-color="#FFDB00"/>
<stop offset="1" stop-color="#FFBB00"/>
</radialGradient>
</defs>
</svg>
