<svg width="48" height="48" viewBox="0 0 48 48" fill="none" xmlns="http://www.w3.org/2000/svg">
<circle cx="24" cy="24" r="20" fill="#FF6122"/>
<path fill-rule="evenodd" clip-rule="evenodd" d="M28.1004 20.6128C29.172 19.1404 31.0422 16.7404 33.0392 15.903C34.6854 15.2127 36.4013 15.9368 35.9166 17.8355C35.7265 18.58 34.7764 19.5932 34.1128 20.5841C32.9689 22.2924 31.801 24.4612 30.849 26.4247C30.1842 27.796 29.7024 28.9436 28.7447 29.8174C26.3941 31.9619 22.8512 30.0608 23.1188 24.893C21.8018 26.5437 21.0341 30.1549 19.3395 31.8359C18.7104 32.4601 17.2833 33.1515 15.9039 32.7807C12.2357 31.7948 11.5817 25.2154 12.2105 20.3264C12.4719 18.2942 13.1589 16.3731 14.5296 15.8601C15.5316 15.4851 16.9427 15.7538 17.5358 16.2896C18.7377 17.3753 18.4139 19.7567 18.3947 21.5719C19.0278 20.7298 19.8875 19.0984 20.9715 17.8357C21.9467 16.6995 23.2111 15.3479 24.493 15.0871C27.628 14.4493 28.5557 17.4177 28.1004 20.6128Z" fill="white"/>
</svg>
